<svg xmlns="http://www.w3.org/2000/svg" xmlns:xlink="http://www.w3.org/1999/xlink" width="292pt" height="112" viewBox="0 0 292 84"><g id="graph0" class="graph" transform="scale(1 1) rotate(0) translate(4 80)"><title>apt-pkg/acquire.h</title><polygon fill="#fff" stroke="transparent" points="-4 4 -4 -80 288 -80 288 4 -4 4"/><g id="node1" class="node"><title>Node1</title><g id="a_node1"><a><polygon fill="#bfbfbf" stroke="#000" points="88 -56.5 88 -75.5 190 -75.5 190 -56.5 88 -56.5"/><text x="139" y="-63.5" font-family="Helvetica,sans-Serif" font-size="10" text-anchor="middle">apt-pkg/acquire.h</text></a></g></g><g id="node2" class="node"><title>Node2</title><g id="a_node2"><a target="_top" xlink:href="acquire-item_8h.xhtml"><polygon fill="#fff" stroke="#000" points="0 -.5 0 -19.5 128 -19.5 128 -.5 0 -.5"/><text x="64" y="-7.5" font-family="Helvetica,sans-Serif" font-size="10" text-anchor="middle">apt-pkg/acquire-item.h</text></a></g></g><g id="edge1" class="edge"><title>Node1-&gt;Node2</title><path fill="none" stroke="#191970" d="M118.69,-50.38C105.14,-40.62 87.76,-28.11 76.27,-19.83"/><polygon fill="#191970" stroke="#191970" points="116.79 -53.32 126.95 -56.32 120.88 -47.64 116.79 -53.32"/></g><g id="node3" class="node"><title>Node3</title><g id="a_node3"><a target="_top" xlink:href="acquire-worker_8h.xhtml"><polygon fill="#fff" stroke="#000" points="146 -.5 146 -19.5 284 -19.5 284 -.5 146 -.5"/><text x="215" y="-7.5" font-family="Helvetica,sans-Serif" font-size="10" text-anchor="middle">apt-pkg/acquire-worker.h</text></a></g></g><g id="edge2" class="edge"><title>Node1-&gt;Node3</title><path fill="none" stroke="#191970" d="M159.58,-50.38C173.31,-40.62 190.93,-28.11 202.57,-19.83"/><polygon fill="#191970" stroke="#191970" points="157.34 -47.68 151.21 -56.32 161.39 -53.38 157.34 -47.68"/></g></g></svg>