<svg xmlns="http://www.w3.org/2000/svg" xmlns:xlink="http://www.w3.org/1999/xlink" width="848pt" height="196pt" viewBox="0 0 848.49 196"><g id="graph0" class="graph" transform="scale(1 1) rotate(0) translate(4 192)"><title>apt-pkg/cachefilter.h</title><polygon fill="#fff" stroke="transparent" points="-4 4 -4 -192 844.49 -192 844.49 4 -4 4"/><g id="node1" class="node"><title>Node1</title><g id="a_node1"><a><polygon fill="#bfbfbf" stroke="#000" points="587.99 -168.5 587.99 -187.5 703.99 -187.5 703.99 -168.5 587.99 -168.5"/><text x="645.99" y="-175.5" font-family="Helvetica,sans-Serif" font-size="10" text-anchor="middle">apt-pkg/cachefilter.h</text></a></g></g><g id="node2" class="node"><title>Node2</title><g id="a_node2"><a target="_top" xlink:href="pkgcache_8h.xhtml" xlink:title="pkgCache - Structure definitions for the cache file"><polygon fill="#fff" stroke="#000" points="215.49 -112.5 215.49 -131.5 328.49 -131.5 328.49 -112.5 215.49 -112.5"/><text x="271.99" y="-119.5" font-family="Helvetica,sans-Serif" font-size="10" text-anchor="middle">apt-pkg/pkgcache.h</text></a></g></g><g id="edge1" class="edge"><title>Node1-&gt;Node2</title><path fill="none" stroke="#191970" d="M587.96,-168.62C520.59,-158.89 409.68,-142.88 338.78,-132.64"/><polygon fill="#191970" stroke="#191970" points="339.02 -129.14 328.62 -131.18 338.01 -136.07 339.02 -129.14"/></g><g id="node6" class="node"><title>Node6</title><g id="a_node6"><a><polygon fill="#fff" stroke="#bfbfbf" points="557.99 -.5 557.99 -19.5 601.99 -19.5 601.99 -.5 557.99 -.5"/><text x="579.99" y="-7.5" font-family="Helvetica,sans-Serif" font-size="10" text-anchor="middle">string</text></a></g></g><g id="edge18" class="edge"><title>Node1-&gt;Node6</title><path fill="none" stroke="#191970" d="M642.44,-168.08C632,-141.83 601.28,-64.55 587.19,-29.12"/><polygon fill="#191970" stroke="#191970" points="590.34 -27.57 583.39 -19.57 583.84 -30.15 590.34 -27.57"/></g><g id="node9" class="node"><title>Node9</title><g id="a_node9"><a><polygon fill="#fff" stroke="#bfbfbf" points="34.99 -.5 34.99 -19.5 156.99 -19.5 156.99 -.5 34.99 -.5"/><text x="95.99" y="-7.5" font-family="Helvetica,sans-Serif" font-size="10" text-anchor="middle">apt-pkg/string_view.h</text></a></g></g><g id="edge16" class="edge"><title>Node1-&gt;Node9</title><path fill="none" stroke="#191970" d="M587.85,-177.52C443.41,-177.39 74.79,-167.9 4.99,-76 -12.89,-52.46 22.68,-33.93 54.45,-22.78"/><polygon fill="#191970" stroke="#191970" points="55.75 -26.03 64.13 -19.55 53.53 -19.39 55.75 -26.03"/></g><g id="node14" class="node"><title>Node14</title><g id="a_node14"><a><polygon fill="#fff" stroke="#bfbfbf" points="645.99 -112.5 645.99 -131.5 703.99 -131.5 703.99 -112.5 645.99 -112.5"/><text x="674.99" y="-119.5" font-family="Helvetica,sans-Serif" font-size="10" text-anchor="middle">memory</text></a></g></g><g id="edge17" class="edge"><title>Node1-&gt;Node14</title><path fill="none" stroke="#191970" d="M650.78,-168.08C654.75,-160.69 660.51,-149.95 665.42,-140.81"/><polygon fill="#191970" stroke="#191970" points="668.64 -142.22 670.29 -131.75 662.47 -138.91 668.64 -142.22"/></g><g id="node15" class="node"><title>Node15</title><g id="a_node15"><a><polygon fill="#fff" stroke="#bfbfbf" points="722.49 -112.5 722.49 -131.5 769.49 -131.5 769.49 -112.5 722.49 -112.5"/><text x="745.99" y="-119.5" font-family="Helvetica,sans-Serif" font-size="10" text-anchor="middle">vector</text></a></g></g><g id="edge19" class="edge"><title>Node1-&gt;Node15</title><path fill="none" stroke="#191970" d="M662.05,-168.32C677.94,-159.74 702.49,-146.49 720.95,-136.52"/><polygon fill="#191970" stroke="#191970" points="722.82 -139.49 729.96 -131.65 719.5 -133.33 722.82 -139.49"/></g><g id="node16" class="node"><title>Node16</title><g id="a_node16"><a><polygon fill="#fff" stroke="#bfbfbf" points="787.49 -112.5 787.49 -131.5 840.49 -131.5 840.49 -112.5 787.49 -112.5"/><text x="813.99" y="-119.5" font-family="Helvetica,sans-Serif" font-size="10" text-anchor="middle">regex.h</text></a></g></g><g id="edge20" class="edge"><title>Node1-&gt;Node16</title><path fill="none" stroke="#191970" d="M672.61,-168.44C700.99,-159.32 746.12,-144.81 777.74,-134.65"/><polygon fill="#191970" stroke="#191970" points="779.04 -137.91 787.49 -131.52 776.9 -131.24 779.04 -137.91"/></g><g id="node3" class="node"><title>Node3</title><g id="a_node3"><a><polygon fill="#fff" stroke="#bfbfbf" points="220.99 -.5 220.99 -19.5 322.99 -19.5 322.99 -.5 220.99 -.5"/><text x="271.99" y="-7.5" font-family="Helvetica,sans-Serif" font-size="10" text-anchor="middle">apt-pkg/macros.h</text></a></g></g><g id="edge2" class="edge"><title>Node2-&gt;Node3</title><path fill="none" stroke="#191970" d="M271.99,-112.37C271.99,-94.62 271.99,-53.67 271.99,-29.6"/><polygon fill="#191970" stroke="#191970" points="275.49 -29.59 271.99 -19.59 268.49 -29.59 275.49 -29.59"/></g><g id="node4" class="node"><title>Node4</title><g id="a_node4"><a><polygon fill="#fff" stroke="#bfbfbf" points="453.99 -56.5 453.99 -75.5 551.99 -75.5 551.99 -56.5 453.99 -56.5"/><text x="502.99" y="-63.5" font-family="Helvetica,sans-Serif" font-size="10" text-anchor="middle">apt-pkg/mmap.h</text></a></g></g><g id="edge3" class="edge"><title>Node2-&gt;Node4</title><path fill="none" stroke="#191970" d="M308.59,-112.44C348.72,-103.06 413.18,-87.99 456.77,-77.8"/><polygon fill="#191970" stroke="#191970" points="457.61 -81.2 466.56 -75.52 456.02 -74.38 457.61 -81.2"/></g><g id="node5" class="node"><title>Node5</title><g id="a_node5"><a><polygon fill="#fff" stroke="#bfbfbf" points="14.49 -56.5 14.49 -75.5 67.49 -75.5 67.49 -56.5 14.49 -56.5"/><text x="40.99" y="-63.5" font-family="Helvetica,sans-Serif" font-size="10" text-anchor="middle">cstddef</text></a></g></g><g id="edge4" class="edge"><title>Node2-&gt;Node5</title><path fill="none" stroke="#191970" d="M235.38,-112.44C192.16,-102.34 120.7,-85.63 77.51,-75.54"/><polygon fill="#191970" stroke="#191970" points="78.23 -72.11 67.7 -73.24 76.64 -78.93 78.23 -72.11"/></g><g id="edge5" class="edge"><title>Node2-&gt;Node6</title><path fill="none" stroke="#191970" d="M328.55,-119.23C402.7,-115.75 527.31,-105.56 560.99,-76 574.08,-64.5 578.38,-44.53 579.68,-29.75"/><polygon fill="#191970" stroke="#191970" points="583.18 -29.85 580.19 -19.69 576.19 -29.5 583.18 -29.85"/></g><g id="node7" class="node"><title>Node7</title><g id="a_node7"><a><polygon fill="#fff" stroke="#bfbfbf" points="124.49 -56.5 124.49 -75.5 177.49 -75.5 177.49 -56.5 124.49 -56.5"/><text x="150.99" y="-63.5" font-family="Helvetica,sans-Serif" font-size="10" text-anchor="middle">stdint.h</text></a></g></g><g id="edge6" class="edge"><title>Node2-&gt;Node7</title><path fill="none" stroke="#191970" d="M252.81,-112.44C233.08,-103.64 202.1,-89.81 179.49,-79.72"/><polygon fill="#191970" stroke="#191970" points="180.63 -76.4 170.07 -75.52 177.78 -82.79 180.63 -76.4"/></g><g id="node8" class="node"><title>Node8</title><g id="a_node8"><a><polygon fill="#fff" stroke="#bfbfbf" points="195.99 -56.5 195.99 -75.5 243.99 -75.5 243.99 -56.5 195.99 -56.5"/><text x="219.99" y="-63.5" font-family="Helvetica,sans-Serif" font-size="10" text-anchor="middle">time.h</text></a></g></g><g id="edge7" class="edge"><title>Node2-&gt;Node8</title><path fill="none" stroke="#191970" d="M263.4,-112.08C255.83,-104.22 244.61,-92.57 235.47,-83.08"/><polygon fill="#191970" stroke="#191970" points="237.87 -80.53 228.41 -75.75 232.83 -85.38 237.87 -80.53"/></g><g id="edge8" class="edge"><title>Node2-&gt;Node9</title><path fill="none" stroke="#191970" d="M215.46,-118.08C182.12,-113.45 141.42,-102.3 114.99,-76 102.89,-63.96 98.4,-44.67 96.78,-30.23"/><polygon fill="#191970" stroke="#191970" points="100.25 -29.62 96.01 -19.91 93.27 -30.15 100.25 -29.62"/></g><g id="node10" class="node"><title>Node10</title><g id="a_node10"><a target="_top" xlink:href="cacheiterators_8h_source.xhtml"><polygon fill="#fff" stroke="#000" points="299.99 -56.5 299.99 -75.5 435.99 -75.5 435.99 -56.5 299.99 -56.5"/><text x="367.99" y="-63.5" font-family="Helvetica,sans-Serif" font-size="10" text-anchor="middle">apt-pkg/cacheiterators.h</text></a></g></g><g id="edge9" class="edge"><title>Node2-&gt;Node10</title><path fill="none" stroke="#191970" d="M287.41,-112.32C302.53,-103.82 325.8,-90.73 343.46,-80.8"/><polygon fill="#191970" stroke="#191970" points="345.6 -83.61 352.6 -75.65 342.17 -77.51 345.6 -83.61"/></g><g id="edge10" class="edge"><title>Node10-&gt;Node3</title><path fill="none" stroke="#191970" d="M352.56,-56.32C337.45,-47.82 314.17,-34.73 296.52,-24.8"/><polygon fill="#191970" stroke="#191970" points="297.8 -21.51 287.37 -19.65 294.37 -27.61 297.8 -21.51"/></g><g id="edge13" class="edge"><title>Node10-&gt;Node6</title><path fill="none" stroke="#191970" d="M401.58,-56.44C441.77,-46.21 508.56,-29.19 548.02,-19.14"/><polygon fill="#191970" stroke="#191970" points="549.08 -22.48 557.91 -16.62 547.35 -15.7 549.08 -22.48"/></g><g id="edge14" class="edge"><title>Node10-&gt;Node9</title><path fill="none" stroke="#191970" d="M324.89,-56.44C277.14,-46.96 200.13,-31.67 148.79,-21.48"/><polygon fill="#191970" stroke="#191970" points="149.37 -18.03 138.88 -19.52 148.01 -24.9 149.37 -18.03"/></g><g id="node11" class="node"><title>Node11</title><g id="a_node11"><a><polygon fill="#fff" stroke="#bfbfbf" points="340.99 -.5 340.99 -19.5 388.99 -19.5 388.99 -.5 340.99 -.5"/><text x="364.99" y="-7.5" font-family="Helvetica,sans-Serif" font-size="10" text-anchor="middle">iosfwd</text></a></g></g><g id="edge11" class="edge"><title>Node10-&gt;Node11</title><path fill="none" stroke="#191970" d="M367.49,-56.08C367.1,-49.01 366.53,-38.86 366.04,-29.99"/><polygon fill="#191970" stroke="#191970" points="369.52 -29.54 365.47 -19.75 362.53 -29.93 369.52 -29.54"/></g><g id="node12" class="node"><title>Node12</title><g id="a_node12"><a><polygon fill="#fff" stroke="#bfbfbf" points="407.49 -.5 407.49 -19.5 460.49 -19.5 460.49 -.5 407.49 -.5"/><text x="433.99" y="-7.5" font-family="Helvetica,sans-Serif" font-size="10" text-anchor="middle">iterator</text></a></g></g><g id="edge12" class="edge"><title>Node10-&gt;Node12</title><path fill="none" stroke="#191970" d="M378.59,-56.32C388.44,-48.26 403.34,-36.08 415.2,-26.37"/><polygon fill="#191970" stroke="#191970" points="417.67 -28.88 423.19 -19.83 413.23 -23.46 417.67 -28.88"/></g><g id="node13" class="node"><title>Node13</title><g id="a_node13"><a><polygon fill="#fff" stroke="#bfbfbf" points="478.49 -.5 478.49 -19.5 531.49 -19.5 531.49 -.5 478.49 -.5"/><text x="504.99" y="-7.5" font-family="Helvetica,sans-Serif" font-size="10" text-anchor="middle">string.h</text></a></g></g><g id="edge15" class="edge"><title>Node10-&gt;Node13</title><path fill="none" stroke="#191970" d="M389.69,-56.44C412.34,-47.52 448.06,-33.44 473.74,-23.32"/><polygon fill="#191970" stroke="#191970" points="475.36 -26.44 483.38 -19.52 472.79 -19.93 475.36 -26.44"/></g></g></svg>