<svg xmlns="http://www.w3.org/2000/svg" xmlns:xlink="http://www.w3.org/1999/xlink" width="331pt" height="196pt" viewBox="0 0 331 196"><g id="graph0" class="graph" transform="scale(1 1) rotate(0) translate(4 192)"><title>apt-pkg/cacheset.h</title><polygon fill="#fff" stroke="transparent" points="-4 4 -4 -192 327 -192 327 4 -4 4"/><g id="node1" class="node"><title>Node1</title><g id="a_node1"><a><polygon fill="#bfbfbf" stroke="#000" points="138.5 -168.5 138.5 -187.5 248.5 -187.5 248.5 -168.5 138.5 -168.5"/><text x="193.5" y="-175.5" font-family="Helvetica,sans-Serif" font-size="10" text-anchor="middle">apt-pkg/cacheset.h</text></a></g></g><g id="node2" class="node"><title>Node2</title><g id="a_node2"><a target="_top" xlink:href="edsp_8h.xhtml"><polygon fill="#fff" stroke="#000" points="85 -112.5 85 -131.5 174 -131.5 174 -112.5 85 -112.5"/><text x="129.5" y="-119.5" font-family="Helvetica,sans-Serif" font-size="10" text-anchor="middle">apt-pkg/edsp.h</text></a></g></g><g id="edge1" class="edge"><title>Node1-&gt;Node2</title><path fill="none" stroke="#191970" d="M175.51,-161.82C164.04,-152.15 149.59,-139.95 139.97,-131.83"/><polygon fill="#191970" stroke="#191970" points="173.32 -164.55 183.22 -168.32 177.83 -159.2 173.32 -164.55"/></g><g id="node6" class="node"><title>Node6</title><g id="a_node6"><a target="_top" xlink:href="statechanges_8h_source.xhtml"><polygon fill="#fff" stroke="#000" points="192 -112.5 192 -131.5 323 -131.5 323 -112.5 192 -112.5"/><text x="257.5" y="-119.5" font-family="Helvetica,sans-Serif" font-size="10" text-anchor="middle">apt-pkg/statechanges.h</text></a></g></g><g id="edge5" class="edge"><title>Node1-&gt;Node6</title><path fill="none" stroke="#191970" d="M211.49,-161.82C222.96,-152.15 237.41,-139.95 247.03,-131.83"/><polygon fill="#191970" stroke="#191970" points="209.17 -159.2 203.78 -168.32 213.68 -164.55 209.17 -159.2"/></g><g id="node3" class="node"><title>Node3</title><g id="a_node3"><a target="_top" xlink:href="packagemanager_8h_source.xhtml"><polygon fill="#fff" stroke="#000" points="55 -56.5 55 -75.5 204 -75.5 204 -56.5 55 -56.5"/><text x="129.5" y="-63.5" font-family="Helvetica,sans-Serif" font-size="10" text-anchor="middle">apt-pkg/packagemanager.h</text></a></g></g><g id="edge2" class="edge"><title>Node2-&gt;Node3</title><path fill="none" stroke="#191970" d="M129.5,-101.8C129.5,-92.91 129.5,-82.78 129.5,-75.75"/><polygon fill="#191970" stroke="#191970" points="126 -102.08 129.5 -112.08 133 -102.08 126 -102.08"/></g><g id="node4" class="node"><title>Node4</title><g id="a_node4"><a target="_top" xlink:href="algorithms_8h_source.xhtml"><polygon fill="#fff" stroke="#000" points="0 -.5 0 -19.5 119 -19.5 119 -.5 0 -.5"/><text x="59.5" y="-7.5" font-family="Helvetica,sans-Serif" font-size="10" text-anchor="middle">apt-pkg/algorithms.h</text></a></g></g><g id="edge3" class="edge"><title>Node3-&gt;Node4</title><path fill="none" stroke="#191970" d="M110.19,-50.1C97.59,-40.38 81.57,-28.03 70.95,-19.83"/><polygon fill="#191970" stroke="#191970" points="108.2 -52.99 118.25 -56.32 112.47 -47.44 108.2 -52.99"/></g><g id="node5" class="node"><title>Node5</title><g id="a_node5"><a target="_top" xlink:href="dpkgpm_8h_source.xhtml"><polygon fill="#fff" stroke="#000" points="137 -.5 137 -19.5 264 -19.5 264 -.5 137 -.5"/><text x="200.5" y="-7.5" font-family="Helvetica,sans-Serif" font-size="10" text-anchor="middle">apt-pkg/deb/dpkgpm.h</text></a></g></g><g id="edge4" class="edge"><title>Node3-&gt;Node5</title><path fill="none" stroke="#191970" d="M149.09,-50.1C161.87,-40.38 178.11,-28.03 188.89,-19.83"/><polygon fill="#191970" stroke="#191970" points="146.75 -47.48 140.91 -56.32 150.99 -53.06 146.75 -47.48"/></g></g></svg>