<?xml version="1.0" encoding="UTF-8" standalone="no"?>
<!DOCTYPE svg PUBLIC "-//W3C//DTD SVG 1.1//EN"
 "http://www.w3.org/Graphics/SVG/1.1/DTD/svg11.dtd">
<!-- Generated by graphviz version 2.43.0 (0)
 -->
<!-- Title: apt&#45;pkg/cacheset.h Pages: 1 -->
<svg width="1078pt" height="196pt"
 viewBox="0.00 0.00 1077.50 196.00" xmlns="http://www.w3.org/2000/svg" xmlns:xlink="http://www.w3.org/1999/xlink">
<g id="graph0" class="graph" transform="scale(1 1) rotate(0) translate(4 192)">
<title>apt&#45;pkg/cacheset.h</title>
<polygon fill="white" stroke="transparent" points="-4,4 -4,-192 1073.5,-192 1073.5,4 -4,4"/>
<!-- Node1 -->
<g id="node1" class="node">
<title>Node1</title>
<g id="a_node1"><a xlink:title=" ">
<polygon fill="#bfbfbf" stroke="black" points="326.5,-168.5 326.5,-187.5 436.5,-187.5 436.5,-168.5 326.5,-168.5"/>
<text text-anchor="middle" x="381.5" y="-175.5" font-family="Helvetica,sans-Serif" font-size="10.00">apt&#45;pkg/cacheset.h</text>
</a>
</g>
</g>
<!-- Node2 -->
<g id="node2" class="node">
<title>Node2</title>
<g id="a_node2"><a xlink:title=" ">
<polygon fill="white" stroke="#bfbfbf" points="0,-112.5 0,-131.5 55,-131.5 55,-112.5 0,-112.5"/>
<text text-anchor="middle" x="27.5" y="-119.5" font-family="Helvetica,sans-Serif" font-size="10.00">fstream</text>
</a>
</g>
</g>
<!-- Node1&#45;&gt;Node2 -->
<g id="edge1" class="edge">
<title>Node1&#45;&gt;Node2</title>
<path fill="none" stroke="midnightblue" d="M326.25,-170.82C264.89,-163.58 162.73,-150.42 65.33,-131.99"/>
<polygon fill="midnightblue" stroke="midnightblue" points="65.8,-128.52 55.32,-130.07 64.48,-135.39 65.8,-128.52"/>
</g>
<!-- Node3 -->
<g id="node3" class="node">
<title>Node3</title>
<g id="a_node3"><a xlink:title=" ">
<polygon fill="white" stroke="#bfbfbf" points="73.5,-112.5 73.5,-131.5 111.5,-131.5 111.5,-112.5 73.5,-112.5"/>
<text text-anchor="middle" x="92.5" y="-119.5" font-family="Helvetica,sans-Serif" font-size="10.00">map</text>
</a>
</g>
</g>
<!-- Node1&#45;&gt;Node3 -->
<g id="edge2" class="edge">
<title>Node1&#45;&gt;Node3</title>
<path fill="none" stroke="midnightblue" d="M326.3,-169.78C275.33,-162.59 197.43,-150.31 121.42,-131.95"/>
<polygon fill="midnightblue" stroke="midnightblue" points="122.22,-128.54 111.68,-129.56 120.56,-135.34 122.22,-128.54"/>
</g>
<!-- Node4 -->
<g id="node4" class="node">
<title>Node4</title>
<g id="a_node4"><a xlink:title=" ">
<polygon fill="white" stroke="#bfbfbf" points="129.5,-112.5 129.5,-131.5 161.5,-131.5 161.5,-112.5 129.5,-112.5"/>
<text text-anchor="middle" x="145.5" y="-119.5" font-family="Helvetica,sans-Serif" font-size="10.00">set</text>
</a>
</g>
</g>
<!-- Node1&#45;&gt;Node4 -->
<g id="edge3" class="edge">
<title>Node1&#45;&gt;Node4</title>
<path fill="none" stroke="midnightblue" d="M332.43,-168.49C291.56,-160.95 231.71,-148.92 171.24,-131.91"/>
<polygon fill="midnightblue" stroke="midnightblue" points="172.11,-128.52 161.53,-129.13 170.19,-135.25 172.11,-128.52"/>
</g>
<!-- Node5 -->
<g id="node5" class="node">
<title>Node5</title>
<g id="a_node5"><a xlink:title=" ">
<polygon fill="white" stroke="#bfbfbf" points="179.5,-112.5 179.5,-131.5 243.5,-131.5 243.5,-112.5 179.5,-112.5"/>
<text text-anchor="middle" x="211.5" y="-119.5" font-family="Helvetica,sans-Serif" font-size="10.00">algorithm</text>
</a>
</g>
</g>
<!-- Node1&#45;&gt;Node5 -->
<g id="edge4" class="edge">
<title>Node1&#45;&gt;Node5</title>
<path fill="none" stroke="midnightblue" d="M354.56,-168.44C325.84,-159.32 280.17,-144.81 248.18,-134.65"/>
<polygon fill="midnightblue" stroke="midnightblue" points="248.9,-131.21 238.31,-131.52 246.78,-137.88 248.9,-131.21"/>
</g>
<!-- Node6 -->
<g id="node6" class="node">
<title>Node6</title>
<g id="a_node6"><a xlink:title=" ">
<polygon fill="white" stroke="#bfbfbf" points="262,-112.5 262,-131.5 309,-131.5 309,-112.5 262,-112.5"/>
<text text-anchor="middle" x="285.5" y="-119.5" font-family="Helvetica,sans-Serif" font-size="10.00">deque</text>
</a>
</g>
</g>
<!-- Node1&#45;&gt;Node6 -->
<g id="edge5" class="edge">
<title>Node1&#45;&gt;Node6</title>
<path fill="none" stroke="midnightblue" d="M366.08,-168.32C350.96,-159.82 327.68,-146.73 310.03,-136.8"/>
<polygon fill="midnightblue" stroke="midnightblue" points="311.32,-133.51 300.89,-131.65 307.89,-139.61 311.32,-133.51"/>
</g>
<!-- Node7 -->
<g id="node7" class="node">
<title>Node7</title>
<g id="a_node7"><a xlink:title=" ">
<polygon fill="white" stroke="#bfbfbf" points="355,-0.5 355,-19.5 408,-19.5 408,-0.5 355,-0.5"/>
<text text-anchor="middle" x="381.5" y="-7.5" font-family="Helvetica,sans-Serif" font-size="10.00">iterator</text>
</a>
</g>
</g>
<!-- Node1&#45;&gt;Node7 -->
<g id="edge6" class="edge">
<title>Node1&#45;&gt;Node7</title>
<path fill="none" stroke="midnightblue" d="M374.87,-168.27C368.73,-159.61 360.04,-145.67 356.5,-132 347.08,-95.64 362.24,-52.42 372.76,-28.72"/>
<polygon fill="midnightblue" stroke="midnightblue" points="375.98,-30.12 377.04,-19.58 369.63,-27.16 375.98,-30.12"/>
</g>
<!-- Node8 -->
<g id="node8" class="node">
<title>Node8</title>
<g id="a_node8"><a xlink:title=" ">
<polygon fill="white" stroke="#bfbfbf" points="365.5,-112.5 365.5,-131.5 397.5,-131.5 397.5,-112.5 365.5,-112.5"/>
<text text-anchor="middle" x="381.5" y="-119.5" font-family="Helvetica,sans-Serif" font-size="10.00">list</text>
</a>
</g>
</g>
<!-- Node1&#45;&gt;Node8 -->
<g id="edge7" class="edge">
<title>Node1&#45;&gt;Node8</title>
<path fill="none" stroke="midnightblue" d="M381.5,-168.08C381.5,-161.01 381.5,-150.86 381.5,-141.99"/>
<polygon fill="midnightblue" stroke="midnightblue" points="385,-141.75 381.5,-131.75 378,-141.75 385,-141.75"/>
</g>
<!-- Node9 -->
<g id="node9" class="node">
<title>Node9</title>
<g id="a_node9"><a xlink:title=" ">
<polygon fill="white" stroke="#bfbfbf" points="470.5,-0.5 470.5,-19.5 514.5,-19.5 514.5,-0.5 470.5,-0.5"/>
<text text-anchor="middle" x="492.5" y="-7.5" font-family="Helvetica,sans-Serif" font-size="10.00">string</text>
</a>
</g>
</g>
<!-- Node1&#45;&gt;Node9 -->
<g id="edge8" class="edge">
<title>Node1&#45;&gt;Node9</title>
<path fill="none" stroke="midnightblue" d="M386.4,-168.43C391.53,-159.42 399.75,-144.81 406.5,-132 424.12,-98.6 421.93,-86.28 444.5,-56 452.74,-44.95 463.87,-34.32 473.34,-26.17"/>
<polygon fill="midnightblue" stroke="midnightblue" points="475.68,-28.78 481.13,-19.7 471.2,-23.4 475.68,-28.78"/>
</g>
<!-- Node10 -->
<g id="node10" class="node">
<title>Node10</title>
<g id="a_node10"><a xlink:title=" ">
<polygon fill="white" stroke="#bfbfbf" points="454,-112.5 454,-131.5 501,-131.5 501,-112.5 454,-112.5"/>
<text text-anchor="middle" x="477.5" y="-119.5" font-family="Helvetica,sans-Serif" font-size="10.00">vector</text>
</a>
</g>
</g>
<!-- Node1&#45;&gt;Node10 -->
<g id="edge9" class="edge">
<title>Node1&#45;&gt;Node10</title>
<path fill="none" stroke="midnightblue" d="M396.92,-168.32C412.04,-159.82 435.32,-146.73 452.97,-136.8"/>
<polygon fill="midnightblue" stroke="midnightblue" points="455.11,-139.61 462.11,-131.65 451.68,-133.51 455.11,-139.61"/>
</g>
<!-- Node11 -->
<g id="node11" class="node">
<title>Node11</title>
<g id="a_node11"><a xlink:title=" ">
<polygon fill="white" stroke="#bfbfbf" points="519.5,-112.5 519.5,-131.5 575.5,-131.5 575.5,-112.5 519.5,-112.5"/>
<text text-anchor="middle" x="547.5" y="-119.5" font-family="Helvetica,sans-Serif" font-size="10.00">stddef.h</text>
</a>
</g>
</g>
<!-- Node1&#45;&gt;Node11 -->
<g id="edge10" class="edge">
<title>Node1&#45;&gt;Node11</title>
<path fill="none" stroke="midnightblue" d="M407.8,-168.44C435.85,-159.32 480.44,-144.81 511.68,-134.65"/>
<polygon fill="midnightblue" stroke="midnightblue" points="512.89,-137.94 521.32,-131.52 510.73,-131.28 512.89,-137.94"/>
</g>
<!-- Node12 -->
<g id="node12" class="node">
<title>Node12</title>
<g id="a_node12"><a xlink:title=" ">
<polygon fill="white" stroke="#bfbfbf" points="594,-112.5 594,-131.5 683,-131.5 683,-112.5 594,-112.5"/>
<text text-anchor="middle" x="638.5" y="-119.5" font-family="Helvetica,sans-Serif" font-size="10.00">apt&#45;pkg/error.h</text>
</a>
</g>
</g>
<!-- Node1&#45;&gt;Node12 -->
<g id="edge11" class="edge">
<title>Node1&#45;&gt;Node12</title>
<path fill="none" stroke="midnightblue" d="M422.22,-168.44C467.15,-159 539.5,-143.8 588,-133.61"/>
<polygon fill="midnightblue" stroke="midnightblue" points="588.9,-137 597.97,-131.52 587.46,-130.15 588.9,-137"/>
</g>
<!-- Node13 -->
<g id="node13" class="node">
<title>Node13</title>
<g id="a_node13"><a xlink:title=" ">
<polygon fill="white" stroke="#bfbfbf" points="967.5,-0.5 967.5,-19.5 1069.5,-19.5 1069.5,-0.5 967.5,-0.5"/>
<text text-anchor="middle" x="1018.5" y="-7.5" font-family="Helvetica,sans-Serif" font-size="10.00">apt&#45;pkg/macros.h</text>
</a>
</g>
</g>
<!-- Node1&#45;&gt;Node13 -->
<g id="edge12" class="edge">
<title>Node1&#45;&gt;Node13</title>
<path fill="none" stroke="midnightblue" d="M436.61,-174.48C520.53,-169.95 685.12,-158.32 822.5,-132 911.9,-114.87 964.64,-148.63 1019.5,-76 1029.38,-62.92 1027.73,-43.77 1024.45,-29.64"/>
<polygon fill="midnightblue" stroke="midnightblue" points="1027.71,-28.3 1021.66,-19.6 1020.97,-30.17 1027.71,-28.3"/>
</g>
<!-- Node14 -->
<g id="node14" class="node">
<title>Node14</title>
<g id="a_node14"><a xlink:href="pkgcache_8h.xhtml" target="_top" xlink:title="pkgCache &#45; Structure definitions for the cache file">
<polygon fill="white" stroke="black" points="701,-112.5 701,-131.5 814,-131.5 814,-112.5 701,-112.5"/>
<text text-anchor="middle" x="757.5" y="-119.5" font-family="Helvetica,sans-Serif" font-size="10.00">apt&#45;pkg/pkgcache.h</text>
</a>
</g>
</g>
<!-- Node1&#45;&gt;Node14 -->
<g id="edge13" class="edge">
<title>Node1&#45;&gt;Node14</title>
<path fill="none" stroke="midnightblue" d="M436.58,-169.09C504.08,-159.4 618.4,-142.98 690.81,-132.58"/>
<polygon fill="midnightblue" stroke="midnightblue" points="691.34,-136.04 700.74,-131.15 690.34,-129.11 691.34,-136.04"/>
</g>
<!-- Node14&#45;&gt;Node9 -->
<g id="edge17" class="edge">
<title>Node14&#45;&gt;Node9</title>
<path fill="none" stroke="midnightblue" d="M700.65,-112.93C647.88,-104.69 573.79,-91.02 548.5,-76 528.96,-64.4 512.82,-43.53 502.97,-28.57"/>
<polygon fill="midnightblue" stroke="midnightblue" points="505.71,-26.36 497.43,-19.75 499.78,-30.08 505.71,-26.36"/>
</g>
<!-- Node14&#45;&gt;Node13 -->
<g id="edge14" class="edge">
<title>Node14&#45;&gt;Node13</title>
<path fill="none" stroke="midnightblue" d="M814.19,-117.24C876.97,-111.93 972.87,-100.08 999.5,-76 1012.43,-64.31 1016.75,-44.37 1018.11,-29.65"/>
<polygon fill="midnightblue" stroke="midnightblue" points="1021.6,-29.81 1018.65,-19.63 1014.61,-29.43 1021.6,-29.81"/>
</g>
<!-- Node15 -->
<g id="node15" class="node">
<title>Node15</title>
<g id="a_node15"><a xlink:title=" ">
<polygon fill="white" stroke="#bfbfbf" points="749.5,-56.5 749.5,-75.5 847.5,-75.5 847.5,-56.5 749.5,-56.5"/>
<text text-anchor="middle" x="798.5" y="-63.5" font-family="Helvetica,sans-Serif" font-size="10.00">apt&#45;pkg/mmap.h</text>
</a>
</g>
</g>
<!-- Node14&#45;&gt;Node15 -->
<g id="edge15" class="edge">
<title>Node14&#45;&gt;Node15</title>
<path fill="none" stroke="midnightblue" d="M764.27,-112.08C770.06,-104.46 778.56,-93.26 785.64,-83.94"/>
<polygon fill="midnightblue" stroke="midnightblue" points="788.6,-85.83 791.86,-75.75 783.02,-81.6 788.6,-85.83"/>
</g>
<!-- Node16 -->
<g id="node16" class="node">
<title>Node16</title>
<g id="a_node16"><a xlink:title=" ">
<polygon fill="white" stroke="#bfbfbf" points="866,-56.5 866,-75.5 919,-75.5 919,-56.5 866,-56.5"/>
<text text-anchor="middle" x="892.5" y="-63.5" font-family="Helvetica,sans-Serif" font-size="10.00">cstddef</text>
</a>
</g>
</g>
<!-- Node14&#45;&gt;Node16 -->
<g id="edge16" class="edge">
<title>Node14&#45;&gt;Node16</title>
<path fill="none" stroke="midnightblue" d="M778.89,-112.44C801.21,-103.52 836.4,-89.44 861.71,-79.32"/>
<polygon fill="midnightblue" stroke="midnightblue" points="863.22,-82.48 871.21,-75.52 860.62,-75.98 863.22,-82.48"/>
</g>
<!-- Node17 -->
<g id="node17" class="node">
<title>Node17</title>
<g id="a_node17"><a xlink:title=" ">
<polygon fill="white" stroke="#bfbfbf" points="937,-56.5 937,-75.5 990,-75.5 990,-56.5 937,-56.5"/>
<text text-anchor="middle" x="963.5" y="-63.5" font-family="Helvetica,sans-Serif" font-size="10.00">stdint.h</text>
</a>
</g>
</g>
<!-- Node14&#45;&gt;Node17 -->
<g id="edge18" class="edge">
<title>Node14&#45;&gt;Node17</title>
<path fill="none" stroke="midnightblue" d="M790.14,-112.44C827.42,-102.67 888.27,-86.72 927.07,-76.55"/>
<polygon fill="midnightblue" stroke="midnightblue" points="928.12,-79.89 936.91,-73.97 926.35,-73.12 928.12,-79.89"/>
</g>
<!-- Node18 -->
<g id="node18" class="node">
<title>Node18</title>
<g id="a_node18"><a xlink:title=" ">
<polygon fill="white" stroke="#bfbfbf" points="453.5,-56.5 453.5,-75.5 501.5,-75.5 501.5,-56.5 453.5,-56.5"/>
<text text-anchor="middle" x="477.5" y="-63.5" font-family="Helvetica,sans-Serif" font-size="10.00">time.h</text>
</a>
</g>
</g>
<!-- Node14&#45;&gt;Node18 -->
<g id="edge19" class="edge">
<title>Node14&#45;&gt;Node18</title>
<path fill="none" stroke="midnightblue" d="M707.77,-112.48C658.75,-103.91 581.77,-90 515.5,-76 514.23,-75.73 512.94,-75.45 511.64,-75.17"/>
<polygon fill="midnightblue" stroke="midnightblue" points="512.11,-71.69 501.58,-72.89 510.56,-78.51 512.11,-71.69"/>
</g>
<!-- Node19 -->
<g id="node19" class="node">
<title>Node19</title>
<g id="a_node19"><a xlink:title=" ">
<polygon fill="white" stroke="#bfbfbf" points="670.5,-0.5 670.5,-19.5 792.5,-19.5 792.5,-0.5 670.5,-0.5"/>
<text text-anchor="middle" x="731.5" y="-7.5" font-family="Helvetica,sans-Serif" font-size="10.00">apt&#45;pkg/string_view.h</text>
</a>
</g>
</g>
<!-- Node14&#45;&gt;Node19 -->
<g id="edge20" class="edge">
<title>Node14&#45;&gt;Node19</title>
<path fill="none" stroke="midnightblue" d="M753.51,-112.22C749.61,-103.29 743.8,-88.95 740.5,-76 736.59,-60.63 734.27,-42.75 732.97,-29.64"/>
<polygon fill="midnightblue" stroke="midnightblue" points="736.44,-29.18 732.07,-19.53 729.47,-29.8 736.44,-29.18"/>
</g>
<!-- Node20 -->
<g id="node20" class="node">
<title>Node20</title>
<g id="a_node20"><a xlink:href="cacheiterators_8h_source.xhtml" target="_top" xlink:title=" ">
<polygon fill="white" stroke="black" points="557.5,-56.5 557.5,-75.5 693.5,-75.5 693.5,-56.5 557.5,-56.5"/>
<text text-anchor="middle" x="625.5" y="-63.5" font-family="Helvetica,sans-Serif" font-size="10.00">apt&#45;pkg/cacheiterators.h</text>
</a>
</g>
</g>
<!-- Node14&#45;&gt;Node20 -->
<g id="edge21" class="edge">
<title>Node14&#45;&gt;Node20</title>
<path fill="none" stroke="midnightblue" d="M736.58,-112.44C714.76,-103.52 680.35,-89.44 655.61,-79.32"/>
<polygon fill="midnightblue" stroke="midnightblue" points="656.9,-76.06 646.32,-75.52 654.25,-82.54 656.9,-76.06"/>
</g>
<!-- Node20&#45;&gt;Node7 -->
<g id="edge24" class="edge">
<title>Node20&#45;&gt;Node7</title>
<path fill="none" stroke="midnightblue" d="M586.84,-56.44C540.59,-46.21 463.72,-29.2 418.31,-19.15"/>
<polygon fill="midnightblue" stroke="midnightblue" points="418.82,-15.67 408.3,-16.93 417.31,-22.51 418.82,-15.67"/>
</g>
<!-- Node20&#45;&gt;Node9 -->
<g id="edge25" class="edge">
<title>Node20&#45;&gt;Node9</title>
<path fill="none" stroke="midnightblue" d="M604.43,-56.44C582.44,-47.52 547.77,-33.44 522.84,-23.32"/>
<polygon fill="midnightblue" stroke="midnightblue" points="524.06,-20.04 513.48,-19.52 521.42,-26.52 524.06,-20.04"/>
</g>
<!-- Node20&#45;&gt;Node13 -->
<g id="edge22" class="edge">
<title>Node20&#45;&gt;Node13</title>
<path fill="none" stroke="midnightblue" d="M687.77,-56.44C761.67,-46.29 884.09,-29.47 957.45,-19.39"/>
<polygon fill="midnightblue" stroke="midnightblue" points="958.04,-22.84 967.47,-18.01 957.08,-15.91 958.04,-22.84"/>
</g>
<!-- Node20&#45;&gt;Node19 -->
<g id="edge26" class="edge">
<title>Node20&#45;&gt;Node19</title>
<path fill="none" stroke="midnightblue" d="M642.53,-56.32C659.53,-47.66 685.88,-34.24 705.49,-24.25"/>
<polygon fill="midnightblue" stroke="midnightblue" points="707.19,-27.31 714.51,-19.65 704.01,-21.08 707.19,-27.31"/>
</g>
<!-- Node21 -->
<g id="node21" class="node">
<title>Node21</title>
<g id="a_node21"><a xlink:title=" ">
<polygon fill="white" stroke="#bfbfbf" points="532.5,-0.5 532.5,-19.5 580.5,-19.5 580.5,-0.5 532.5,-0.5"/>
<text text-anchor="middle" x="556.5" y="-7.5" font-family="Helvetica,sans-Serif" font-size="10.00">iosfwd</text>
</a>
</g>
</g>
<!-- Node20&#45;&gt;Node21 -->
<g id="edge23" class="edge">
<title>Node20&#45;&gt;Node21</title>
<path fill="none" stroke="midnightblue" d="M614.41,-56.32C604.01,-48.18 588.24,-35.84 575.78,-26.09"/>
<polygon fill="midnightblue" stroke="midnightblue" points="577.82,-23.24 567.79,-19.83 573.51,-28.75 577.82,-23.24"/>
</g>
<!-- Node22 -->
<g id="node22" class="node">
<title>Node22</title>
<g id="a_node22"><a xlink:title=" ">
<polygon fill="white" stroke="#bfbfbf" points="599,-0.5 599,-19.5 652,-19.5 652,-0.5 599,-0.5"/>
<text text-anchor="middle" x="625.5" y="-7.5" font-family="Helvetica,sans-Serif" font-size="10.00">string.h</text>
</a>
</g>
</g>
<!-- Node20&#45;&gt;Node22 -->
<g id="edge27" class="edge">
<title>Node20&#45;&gt;Node22</title>
<path fill="none" stroke="midnightblue" d="M625.5,-56.08C625.5,-49.01 625.5,-38.86 625.5,-29.99"/>
<polygon fill="midnightblue" stroke="midnightblue" points="629,-29.75 625.5,-19.75 622,-29.75 629,-29.75"/>
</g>
</g>
</svg>
