<svg xmlns="http://www.w3.org/2000/svg" xmlns:xlink="http://www.w3.org/1999/xlink" width="224" height="140pt" viewBox="0 0 168 140"><g id="graph0" class="graph" transform="scale(1 1) rotate(0) translate(4 136)"><title>pkgDepCache::InRootSetFunc</title><polygon fill="#fff" stroke="transparent" points="-4 4 -4 -136 164 -136 164 4 -4 4"/><g id="node1" class="node"><title>Node1</title><g id="a_node1"><a xlink:title="An arbitrary predicate on packages."><polygon fill="#bfbfbf" stroke="#000" points="0 -112.5 0 -131.5 160 -131.5 160 -112.5 0 -112.5"/><text x="80" y="-119.5" font-family="Helvetica,sans-Serif" font-size="10" text-anchor="middle">pkgDepCache::InRootSetFunc</text></a></g></g><g id="node2" class="node"><title>Node2</title><g id="a_node2"><a target="_top" xlink:href="classpkgDepCache_1_1DefaultRootSetFunc.xhtml" xlink:title="Returns true for packages matching a regular expression in APT::NeverAutoRemove."><polygon fill="#fff" stroke="#000" points="23.5 -56.5 23.5 -75.5 136.5 -75.5 136.5 -56.5 23.5 -56.5"/><text x="80" y="-63.5" font-family="Helvetica,sans-Serif" font-size="10" text-anchor="middle">DefaultRootSetFunc</text></a></g></g><g id="edge1" class="edge"><title>Node1-&gt;Node2</title><path fill="none" stroke="#191970" d="M80,-101.8C80,-92.91 80,-82.78 80,-75.75"/><polygon fill="#191970" stroke="#191970" points="76.5 -102.08 80 -112.08 83.5 -102.08 76.5 -102.08"/></g><g id="node3" class="node"><title>Node3</title><g id="a_node3"><a target="_top" xlink:href="classDefaultRootSetFunc2.xhtml" xlink:title="Returns true for packages matching a regular expression in APT::NeverAutoRemove."><polygon fill="#fff" stroke="#000" points="20.5 -.5 20.5 -19.5 139.5 -19.5 139.5 -.5 20.5 -.5"/><text x="80" y="-7.5" font-family="Helvetica,sans-Serif" font-size="10" text-anchor="middle">DefaultRootSetFunc2</text></a></g></g><g id="edge2" class="edge"><title>Node2-&gt;Node3</title><path fill="none" stroke="#191970" d="M80,-45.8C80,-36.91 80,-26.78 80,-19.75"/><polygon fill="#191970" stroke="#191970" points="76.5 -46.08 80 -56.08 83.5 -46.08 76.5 -46.08"/></g></g></svg>