<svg xmlns="http://www.w3.org/2000/svg" xmlns:xlink="http://www.w3.org/1999/xlink" width="131pt" height="396" viewBox="0 0 131 297"><g id="graph0" class="graph" transform="scale(1 1) rotate(0) translate(4 293)"><title>pkgSimulatePrivate</title><polygon fill="#fff" stroke="transparent" points="-4 4 -4 -293 127 -293 127 4 -4 4"/><g id="node1" class="node"><title>Node1</title><g id="a_node1"><a><polygon fill="#bfbfbf" stroke="#000" points="5 -.5 5 -19.5 118 -19.5 118 -.5 5 -.5"/><text x="61.5" y="-7.5" font-family="Helvetica,sans-Serif" font-size="10" text-anchor="middle">pkgSimulatePrivate</text></a></g></g><g id="node2" class="node"><title>Node2</title><g id="a_node2"><a><polygon fill="#fff" stroke="#bfbfbf" points="0 -67.5 0 -97.5 123 -97.5 123 -67.5 0 -67.5"/><text x="8" y="-85.5" font-family="Helvetica,sans-Serif" font-size="10" text-anchor="start">vector&lt; pkgDPkgPM::</text><text x="61.5" y="-74.5" font-family="Helvetica,sans-Serif" font-size="10" text-anchor="middle">Item &gt;</text></a></g></g><g id="edge1" class="edge"><title>Node2-&gt;Node1</title><path fill="none" stroke="#9a32cd" stroke-dasharray="5 2" d="M61.5,-57.09C61.5,-44.21 61.5,-29.2 61.5,-19.89"/><polygon fill="#9a32cd" stroke="#9a32cd" points="58 -57.23 61.5 -67.23 65 -57.23 58 -57.23"/><text x="72" y="-41" font-family="Helvetica,sans-Serif" font-size="10" text-anchor="middle">List</text></g><g id="node3" class="node"><title>Node3</title><g id="a_node3"><a target="_top" xlink:href="structpkgDPkgPM_1_1Item.xhtml"><polygon fill="#fff" stroke="#000" points="42 -145.5 42 -164.5 81 -164.5 81 -145.5 42 -145.5"/><text x="61.5" y="-152.5" font-family="Helvetica,sans-Serif" font-size="10" text-anchor="middle">Item</text></a></g></g><g id="edge2" class="edge"><title>Node3-&gt;Node2</title><path fill="none" stroke="#9a32cd" stroke-dasharray="5 2" d="M61.5,-135.24C61.5,-123.41 61.5,-108.38 61.5,-97.58"/><polygon fill="#9a32cd" stroke="#9a32cd" points="58 -135.36 61.5 -145.36 65 -135.36 58 -135.36"/><text x="86" y="-119" font-family="Helvetica,sans-Serif" font-size="10" text-anchor="middle">elements</text></g><g id="node4" class="node"><title>Node4</title><g id="a_node4"><a><polygon fill="#fff" stroke="#bfbfbf" points="39.5 -212.5 39.5 -231.5 83.5 -231.5 83.5 -212.5 39.5 -212.5"/><text x="61.5" y="-219.5" font-family="Helvetica,sans-Serif" font-size="10" text-anchor="middle">string</text></a></g></g><g id="edge3" class="edge"><title>Node4-&gt;Node3</title><path fill="none" stroke="#9a32cd" stroke-dasharray="5 2" d="M61.5,-202.04C61.5,-189.67 61.5,-174.12 61.5,-164.63"/><polygon fill="#9a32cd" stroke="#9a32cd" points="58 -202.23 61.5 -212.23 65 -202.23 58 -202.23"/><text x="72" y="-186" font-family="Helvetica,sans-Serif" font-size="10" text-anchor="middle">File</text></g><g id="node5" class="node"><title>Node5</title><g id="a_node5"><a><polygon fill="#fff" stroke="#bfbfbf" points="1.5 -269.5 1.5 -288.5 121.5 -288.5 121.5 -269.5 1.5 -269.5"/><text x="61.5" y="-276.5" font-family="Helvetica,sans-Serif" font-size="10" text-anchor="middle">basic_string&lt; Char &gt;</text></a></g></g><g id="edge4" class="edge"><title>Node5-&gt;Node4</title><path fill="none" stroke="#191970" d="M61.5,-259.12C61.5,-249.82 61.5,-239.06 61.5,-231.71"/><polygon fill="#191970" stroke="#191970" points="58 -259.41 61.5 -269.41 65 -259.41 58 -259.41"/></g></g></svg>