<svg xmlns="http://www.w3.org/2000/svg" xmlns:xlink="http://www.w3.org/1999/xlink" width="128pt" height="163pt" viewBox="0 0 128 163"><g id="graph0" class="graph" transform="scale(1 1) rotate(0) translate(4 159)"><title>OpProgress</title><polygon fill="#fff" stroke="transparent" points="-4 4 -4 -159 124 -159 124 4 -4 4"/><g id="node1" class="node"><title>Node1</title><g id="a_node1"><a><polygon fill="#bfbfbf" stroke="#000" points="24 -.5 24 -19.5 96 -19.5 96 -.5 24 -.5"/><text x="60" y="-7.5" font-family="Helvetica,sans-Serif" font-size="10" text-anchor="middle">OpProgress</text></a></g></g><g id="node2" class="node"><title>Node2</title><g id="a_node2"><a><polygon fill="#fff" stroke="#bfbfbf" points="38 -78.5 38 -97.5 82 -97.5 82 -78.5 38 -78.5"/><text x="60" y="-85.5" font-family="Helvetica,sans-Serif" font-size="10" text-anchor="middle">string</text></a></g></g><g id="edge1" class="edge"><title>Node2-&gt;Node1</title><path fill="none" stroke="#9a32cd" stroke-dasharray="5 2" d="M60,-68.22C60,-52.7 60,-31.36 60,-19.62"/><polygon fill="#9a32cd" stroke="#9a32cd" points="56.5 -68.28 60 -78.28 63.5 -68.28 56.5 -68.28"/><text x="76" y="-52" font-family="Helvetica,sans-Serif" font-size="10" text-anchor="middle">Op</text><text x="76" y="-41" font-family="Helvetica,sans-Serif" font-size="10" text-anchor="middle">SubOp</text></g><g id="node3" class="node"><title>Node3</title><g id="a_node3"><a><polygon fill="#fff" stroke="#bfbfbf" points="0 -135.5 0 -154.5 120 -154.5 120 -135.5 0 -135.5"/><text x="60" y="-142.5" font-family="Helvetica,sans-Serif" font-size="10" text-anchor="middle">basic_string&lt; Char &gt;</text></a></g></g><g id="edge2" class="edge"><title>Node3-&gt;Node2</title><path fill="none" stroke="#191970" d="M60,-125.12C60,-115.82 60,-105.06 60,-97.71"/><polygon fill="#191970" stroke="#191970" points="56.5 -125.41 60 -135.41 63.5 -125.41 56.5 -125.41"/></g></g></svg>