<svg xmlns="http://www.w3.org/2000/svg" xmlns:xlink="http://www.w3.org/1999/xlink" id="main" onload="init(evt)" version="1.1" xml:space="preserve"><style type="text/css">.edge:hover path{stroke:red}.edge:hover polygon{stroke:red;fill:red}</style><script type="text/javascript"><![CDATA[
var edges = document.getElementsByTagName('g');
if (edges && edges.length) {
  for (var i=0;i<edges.length;i++) {
    if (edges[i].id.substr(0,4)=='edge') {
      edges[i].setAttribute('class','edge');
    }
  }
}
]]></script><defs><circle id="rim" cx="0" cy="0" r="7"/><circle id="rim2" cx="0" cy="0" r="3.5"/><g id="zoomPlus"><use fill="#404040" xlink:href="#rim"><set attributeName="fill" begin="zoomplus.mouseover" end="zoomplus.mouseout" to="#808080"/></use><path fill="none" stroke="#fff" stroke-width="1.5" d="M-4,0h8M0,-4v8" pointer-events="none"/></g><g id="zoomMin"><use fill="#404040" xlink:href="#rim"><set attributeName="fill" begin="zoomminus.mouseover" end="zoomminus.mouseout" to="#808080"/></use><path fill="none" stroke="#fff" stroke-width="1.5" d="M-4,0h8" pointer-events="none"/></g><g id="dirArrow"><path fill="none" stroke="#fff" stroke-width="1.5" d="M0,-3.0v7 M-2.5,-0.5L0,-3.0L2.5,-0.5"/></g><g id="resetDef"><use fill="#404040" xlink:href="#rim2"><set attributeName="fill" begin="reset.mouseover" end="reset.mouseout" to="#808080"/></use></g></defs><script type="text/javascript">var viewWidth = 547; var viewHeight = 196; var sectionId = &apos;dynsection-0&apos;;</script><script xlink:href="svgpan.js"/><svg id="graph" class="graph"><g id="viewport"><title>debListParser</title><polygon fill="#fff" stroke="transparent" points="-4 4 -4 -192 543 -192 543 4 -4 4"/><g id="node1" class="node"><title>Node1</title><g id="a_node1"><a><polygon fill="#bfbfbf" stroke="#000" points="202.5 -112.5 202.5 -131.5 284.5 -131.5 284.5 -112.5 202.5 -112.5"/><text x="243.5" y="-119.5" font-family="Helvetica,sans-Serif" font-size="10" text-anchor="middle">debListParser</text></a></g></g><g id="node3" class="node"><title>Node3</title><g id="a_node3"><a target="_top" xlink:href="classdebDebFileParser.xhtml"><polygon fill="#fff" stroke="#000" points="0 -56.5 0 -75.5 101 -75.5 101 -56.5 0 -56.5"/><text x="50.5" y="-63.5" font-family="Helvetica,sans-Serif" font-size="10" text-anchor="middle">debDebFileParser</text></a></g></g><g id="edge2" class="edge"><title>Node1-&gt;Node3</title><path fill="none" stroke="#191970" d="M203.11,-109.7C166.68,-99.51 113.91,-84.74 80.94,-75.52"/><polygon fill="#191970" stroke="#191970" points="202.35 -113.12 212.92 -112.44 204.23 -106.38 202.35 -113.12"/></g><g id="node4" class="node"><title>Node4</title><g id="a_node4"><a target="_top" xlink:href="classdebStatusListParser.xhtml"><polygon fill="#fff" stroke="#000" points="119 -56.5 119 -75.5 232 -75.5 232 -56.5 119 -56.5"/><text x="175.5" y="-63.5" font-family="Helvetica,sans-Serif" font-size="10" text-anchor="middle">debStatusListParser</text></a></g></g><g id="edge3" class="edge"><title>Node1-&gt;Node4</title><path fill="none" stroke="#191970" d="M224.74,-106.1C212.5,-96.38 196.94,-84.03 186.62,-75.83"/><polygon fill="#191970" stroke="#191970" points="222.57 -108.85 232.57 -112.32 226.92 -103.36 222.57 -108.85"/></g><g id="node5" class="node"><title>Node5</title><g id="a_node5"><a target="_top" xlink:href="classdebTranslationsParser.xhtml"><polygon fill="#fff" stroke="#000" points="250 -56.5 250 -75.5 373 -75.5 373 -56.5 250 -56.5"/><text x="311.5" y="-63.5" font-family="Helvetica,sans-Serif" font-size="10" text-anchor="middle">debTranslationsParser</text></a></g></g><g id="edge4" class="edge"><title>Node1-&gt;Node5</title><path fill="none" stroke="#191970" d="M262.26,-106.1C274.5,-96.38 290.06,-84.03 300.38,-75.83"/><polygon fill="#191970" stroke="#191970" points="260.08 -103.36 254.43 -112.32 264.43 -108.85 260.08 -103.36"/></g><g id="node6" class="node"><title>Node6</title><g id="a_node6"><a target="_top" xlink:href="classedspLikeListParser.xhtml"><polygon fill="#fff" stroke="#000" points="391 -56.5 391 -75.5 498 -75.5 498 -56.5 391 -56.5"/><text x="444.5" y="-63.5" font-family="Helvetica,sans-Serif" font-size="10" text-anchor="middle">edspLikeListParser</text></a></g></g><g id="edge5" class="edge"><title>Node1-&gt;Node6</title><path fill="none" stroke="#191970" d="M285.08,-109.83C323.03,-99.63 378.31,-84.78 412.8,-75.52"/><polygon fill="#191970" stroke="#191970" points="284.1 -106.47 275.35 -112.44 285.91 -113.23 284.1 -106.47"/></g><g id="node2" class="node"><title>Node2</title><g id="a_node2"><a target="_top" xlink:href="classpkgCacheListParser.xhtml"><polygon fill="#fff" stroke="#000" points="187.5 -168.5 187.5 -187.5 299.5 -187.5 299.5 -168.5 187.5 -168.5"/><text x="243.5" y="-175.5" font-family="Helvetica,sans-Serif" font-size="10" text-anchor="middle">pkgCacheListParser</text></a></g></g><g id="edge1" class="edge"><title>Node2-&gt;Node1</title><path fill="none" stroke="#191970" d="M243.5,-157.8C243.5,-148.91 243.5,-138.78 243.5,-131.75"/><polygon fill="#191970" stroke="#191970" points="240 -158.08 243.5 -168.08 247 -158.08 240 -158.08"/></g><g id="node7" class="node"><title>Node7</title><g id="a_node7"><a target="_top" xlink:href="classedspListParser.xhtml"><polygon fill="#fff" stroke="#000" points="349 -.5 349 -19.5 436 -19.5 436 -.5 349 -.5"/><text x="392.5" y="-7.5" font-family="Helvetica,sans-Serif" font-size="10" text-anchor="middle">edspListParser</text></a></g></g><g id="edge6" class="edge"><title>Node6-&gt;Node7</title><path fill="none" stroke="#191970" d="M428.82,-48.72C419.66,-39.2 408.45,-27.56 400.93,-19.75"/><polygon fill="#191970" stroke="#191970" points="426.46 -51.31 435.91 -56.08 431.5 -46.45 426.46 -51.31"/></g><g id="node8" class="node"><title>Node8</title><g id="a_node8"><a target="_top" xlink:href="classeippListParser.xhtml"><polygon fill="#fff" stroke="#000" points="454 -.5 454 -19.5 539 -19.5 539 -.5 454 -.5"/><text x="496.5" y="-7.5" font-family="Helvetica,sans-Serif" font-size="10" text-anchor="middle">eippListParser</text></a></g></g><g id="edge7" class="edge"><title>Node6-&gt;Node8</title><path fill="none" stroke="#191970" d="M460.18,-48.72C469.34,-39.2 480.55,-27.56 488.07,-19.75"/><polygon fill="#191970" stroke="#191970" points="457.5 -46.45 453.09 -56.08 462.54 -51.31 457.5 -46.45"/></g></g></svg><g id="navigator" fill="#404254" transform="translate(0 0)"><rect width="60" height="60" x="0" y="0" fill="#f2f5e9" fill-opacity=".5" stroke="#606060" stroke-width=".5"/><use id="zoomplus" x="17" y="9" onmousedown="handleZoom(evt,'in')" xlink:href="#zoomPlus"/><use id="zoomminus" x="42" y="9" onmousedown="handleZoom(evt,'out')" xlink:href="#zoomMin"/><use id="reset" x="30" y="36" onmousedown="handleReset()" xlink:href="#resetDef"/><g id="arrowUp" onmousedown="handlePan(0,-1)" transform="translate(30 24)" xlink:href="#dirArrow"><use fill="#404040" xlink:href="#rim"><set attributeName="fill" begin="arrowUp.mouseover" end="arrowUp.mouseout" to="#808080"/></use><path fill="none" stroke="#fff" stroke-width="1.5" d="M0,-3.0v7 M-2.5,-0.5L0,-3.0L2.5,-0.5"/></g><g id="arrowRight" onmousedown="handlePan(1,0)" transform="rotate(90) translate(36 -43)" xlink:href="#dirArrow"><use fill="#404040" xlink:href="#rim"><set attributeName="fill" begin="arrowRight.mouseover" end="arrowRight.mouseout" to="#808080"/></use><path fill="none" stroke="#fff" stroke-width="1.5" d="M0,-3.0v7 M-2.5,-0.5L0,-3.0L2.5,-0.5"/></g><g id="arrowDown" onmousedown="handlePan(0,1)" transform="rotate(180) translate(-30 -48)" xlink:href="#dirArrow"><use fill="#404040" xlink:href="#rim"><set attributeName="fill" begin="arrowDown.mouseover" end="arrowDown.mouseout" to="#808080"/></use><path fill="none" stroke="#fff" stroke-width="1.5" d="M0,-3.0v7 M-2.5,-0.5L0,-3.0L2.5,-0.5"/></g><g id="arrowLeft" onmousedown="handlePan(-1,0)" transform="rotate(270) translate(-36 17)" xlink:href="#dirArrow"><use fill="#404040" xlink:href="#rim"><set attributeName="fill" begin="arrowLeft.mouseover" end="arrowLeft.mouseout" to="#808080"/></use><path fill="none" stroke="#fff" stroke-width="1.5" d="M0,-3.0v7 M-2.5,-0.5L0,-3.0L2.5,-0.5"/></g></g><svg width="100%" height="30" preserveAspectRatio="xMaxYMin meet" viewBox="0 0 15 15"><g id="arrow_out" transform="scale(0.3 0.3)"><a target="_base" xlink:href="classdebListParser__inherit__graph_org.svg"><rect id="button" width="38" height="38" x="6" y="6" fill="#f2f5e9" fill-opacity=".5" stroke="#606060" stroke-width="1" rx="5" ry="5"/><path id="arrow" d="M 11.500037,31.436501 C 11.940474,20.09759 22.043105,11.32322 32.158766,21.979434 L 37.068811,17.246167 C 37.068811,17.246167 37.088388,32 37.088388,32 L 22.160133,31.978069 C 22.160133,31.978069 26.997745,27.140456 26.997745,27.140456 C 18.528582,18.264221 13.291696,25.230495 11.500037,31.436501 z" style="fill:#404040"/></a></g></svg></svg>