<svg xmlns="http://www.w3.org/2000/svg" xmlns:xlink="http://www.w3.org/1999/xlink" width="124pt" height="140pt" viewBox="0 0 124 140"><g id="graph0" class="graph" transform="scale(1 1) rotate(0) translate(4 136)"><title>debDscRecordParser</title><polygon fill="#fff" stroke="transparent" points="-4 4 -4 -136 120 -136 120 4 -4 4"/><g id="node1" class="node"><title>Node1</title><g id="a_node1"><a><polygon fill="#bfbfbf" stroke="#000" points="0 -.5 0 -19.5 116 -19.5 116 -.5 0 -.5"/><text x="58" y="-7.5" font-family="Helvetica,sans-Serif" font-size="10" text-anchor="middle">debDscRecordParser</text></a></g></g><g id="node2" class="node"><title>Node2</title><g id="a_node2"><a target="_top" xlink:href="classdebSrcRecordParser.xhtml"><polygon fill="#fff" stroke="#000" points="1.5 -56.5 1.5 -75.5 114.5 -75.5 114.5 -56.5 1.5 -56.5"/><text x="58" y="-63.5" font-family="Helvetica,sans-Serif" font-size="10" text-anchor="middle">debSrcRecordParser</text></a></g></g><g id="edge1" class="edge"><title>Node2-&gt;Node1</title><path fill="none" stroke="#191970" d="M58,-45.8C58,-36.91 58,-26.78 58,-19.75"/><polygon fill="#191970" stroke="#191970" points="54.5 -46.08 58 -56.08 61.5 -46.08 54.5 -46.08"/></g><g id="node3" class="node"><title>Node3</title><g id="a_node3"><a target="_top" xlink:href="classpkgSrcRecords_1_1Parser.xhtml"><polygon fill="#fff" stroke="#000" points="34.5 -112.5 34.5 -131.5 81.5 -131.5 81.5 -112.5 34.5 -112.5"/><text x="58" y="-119.5" font-family="Helvetica,sans-Serif" font-size="10" text-anchor="middle">Parser</text></a></g></g><g id="edge2" class="edge"><title>Node3-&gt;Node2</title><path fill="none" stroke="#191970" d="M58,-101.8C58,-92.91 58,-82.78 58,-75.75"/><polygon fill="#191970" stroke="#191970" points="54.5 -102.08 58 -112.08 61.5 -102.08 54.5 -102.08"/></g></g></svg>