<?xml version="1.0" encoding="UTF-8" standalone="no"?>
<!DOCTYPE svg PUBLIC "-//W3C//DTD SVG 1.1//EN"
 "http://www.w3.org/Graphics/SVG/1.1/DTD/svg11.dtd">
<!-- Generated by graphviz version 2.43.0 (0)
 -->
<!-- Title: PackageManager Pages: 1 -->
<svg width="334pt" height="142pt"
 viewBox="0.00 0.00 334.00 142.00" xmlns="http://www.w3.org/2000/svg" xmlns:xlink="http://www.w3.org/1999/xlink">
<g id="graph0" class="graph" transform="scale(1 1) rotate(0) translate(4 138)">
<title>PackageManager</title>
<polygon fill="white" stroke="transparent" points="-4,4 -4,-138 330,-138 330,4 -4,4"/>
<!-- Node1 -->
<g id="node1" class="node">
<title>Node1</title>
<g id="a_node1"><a xlink:title=" ">
<polygon fill="#bfbfbf" stroke="black" points="0,-57.5 0,-76.5 99,-76.5 99,-57.5 0,-57.5"/>
<text text-anchor="middle" x="49.5" y="-64.5" font-family="Helvetica,sans-Serif" font-size="10.00">PackageManager</text>
</a>
</g>
</g>
<!-- Node2 -->
<g id="node2" class="node">
<title>Node2</title>
<g id="a_node2"><a xlink:href="classAPT_1_1Progress_1_1PackageManagerFancy.xhtml" target="_top" xlink:title=" ">
<polygon fill="white" stroke="black" points="167,-114.5 167,-133.5 294,-133.5 294,-114.5 167,-114.5"/>
<text text-anchor="middle" x="230.5" y="-121.5" font-family="Helvetica,sans-Serif" font-size="10.00">PackageManagerFancy</text>
</a>
</g>
</g>
<!-- Node1&#45;&gt;Node2 -->
<g id="edge1" class="edge">
<title>Node1&#45;&gt;Node2</title>
<path fill="none" stroke="midnightblue" d="M77.45,-80.99C93.75,-88.98 115.15,-98.63 135,-105 146.63,-108.73 159.31,-111.88 171.5,-114.48"/>
<polygon fill="midnightblue" stroke="midnightblue" points="79,-77.85 68.49,-76.52 75.88,-84.12 79,-77.85"/>
</g>
<!-- Node3 -->
<g id="node3" class="node">
<title>Node3</title>
<g id="a_node3"><a xlink:href="classAPT_1_1Progress_1_1PackageManagerProgressDeb822Fd.xhtml" target="_top" xlink:title=" ">
<polygon fill="white" stroke="black" points="135,-76.5 135,-95.5 326,-95.5 326,-76.5 135,-76.5"/>
<text text-anchor="middle" x="230.5" y="-83.5" font-family="Helvetica,sans-Serif" font-size="10.00">PackageManagerProgressDeb822Fd</text>
</a>
</g>
</g>
<!-- Node1&#45;&gt;Node3 -->
<g id="edge2" class="edge">
<title>Node1&#45;&gt;Node3</title>
<path fill="none" stroke="midnightblue" d="M109.65,-73.28C119.31,-74.3 129.5,-75.38 139.69,-76.47"/>
<polygon fill="midnightblue" stroke="midnightblue" points="109.73,-69.77 99.41,-72.19 108.99,-76.73 109.73,-69.77"/>
</g>
<!-- Node4 -->
<g id="node4" class="node">
<title>Node4</title>
<g id="a_node4"><a xlink:href="classAPT_1_1Progress_1_1PackageManagerProgressFd.xhtml" target="_top" xlink:title=" ">
<polygon fill="white" stroke="black" points="154,-38.5 154,-57.5 307,-57.5 307,-38.5 154,-38.5"/>
<text text-anchor="middle" x="230.5" y="-45.5" font-family="Helvetica,sans-Serif" font-size="10.00">PackageManagerProgressFd</text>
</a>
</g>
</g>
<!-- Node1&#45;&gt;Node4 -->
<g id="edge3" class="edge">
<title>Node1&#45;&gt;Node4</title>
<path fill="none" stroke="midnightblue" d="M109.49,-60.74C123.64,-59.24 138.95,-57.61 153.75,-56.04"/>
<polygon fill="midnightblue" stroke="midnightblue" points="108.99,-57.27 99.41,-61.81 109.73,-64.23 108.99,-57.27"/>
</g>
<!-- Node5 -->
<g id="node5" class="node">
<title>Node5</title>
<g id="a_node5"><a xlink:href="classAPT_1_1Progress_1_1PackageManagerText.xhtml" target="_top" xlink:title=" ">
<polygon fill="white" stroke="black" points="171,-0.5 171,-19.5 290,-19.5 290,-0.5 171,-0.5"/>
<text text-anchor="middle" x="230.5" y="-7.5" font-family="Helvetica,sans-Serif" font-size="10.00">PackageManagerText</text>
</a>
</g>
</g>
<!-- Node1&#45;&gt;Node5 -->
<g id="edge4" class="edge">
<title>Node1&#45;&gt;Node5</title>
<path fill="none" stroke="midnightblue" d="M77.45,-53.01C93.75,-45.02 115.15,-35.37 135,-29 146.63,-25.27 159.31,-22.12 171.5,-19.52"/>
<polygon fill="midnightblue" stroke="midnightblue" points="75.88,-49.88 68.49,-57.48 79,-56.15 75.88,-49.88"/>
</g>
</g>
</svg>
