<svg xmlns="http://www.w3.org/2000/svg" xmlns:xlink="http://www.w3.org/1999/xlink" id="main" onload="init(evt)" version="1.1" xml:space="preserve"><style type="text/css">.edge:hover path{stroke:red}.edge:hover polygon{stroke:red;fill:red}</style><script type="text/javascript"><![CDATA[
var edges = document.getElementsByTagName('g');
if (edges && edges.length) {
  for (var i=0;i<edges.length;i++) {
    if (edges[i].id.substr(0,4)=='edge') {
      edges[i].setAttribute('class','edge');
    }
  }
}
]]></script><defs><circle id="rim" cx="0" cy="0" r="7"/><circle id="rim2" cx="0" cy="0" r="3.5"/><g id="zoomPlus"><use fill="#404040" xlink:href="#rim"><set attributeName="fill" begin="zoomplus.mouseover" end="zoomplus.mouseout" to="#808080"/></use><path fill="none" stroke="#fff" stroke-width="1.5" d="M-4,0h8M0,-4v8" pointer-events="none"/></g><g id="zoomMin"><use fill="#404040" xlink:href="#rim"><set attributeName="fill" begin="zoomminus.mouseover" end="zoomminus.mouseout" to="#808080"/></use><path fill="none" stroke="#fff" stroke-width="1.5" d="M-4,0h8" pointer-events="none"/></g><g id="dirArrow"><path fill="none" stroke="#fff" stroke-width="1.5" d="M0,-3.0v7 M-2.5,-0.5L0,-3.0L2.5,-0.5"/></g><g id="resetDef"><use fill="#404040" xlink:href="#rim2"><set attributeName="fill" begin="reset.mouseover" end="reset.mouseout" to="#808080"/></use></g></defs><script type="text/javascript">var viewWidth = 856; var viewHeight = 681; var sectionId = &apos;dynsection-1&apos;;</script><script xlink:href="svgpan.js"/><svg id="graph" class="graph"><g id="viewport"><title>pkgAcqBaseIndex</title><polygon fill="#fff" stroke="transparent" points="-4 4 -4 -677 851.56 -677 851.56 4 -4 4"/><g id="node1" class="node"><title>Node1</title><g id="a_node1"><a xlink:title="Common base class for all classes that deal with fetching indexes {{{."><polygon fill="#bfbfbf" stroke="#000" points="317.06 -189 317.06 -208 421.06 -208 421.06 -189 317.06 -189"/><text x="369.06" y="-196" font-family="Helvetica,sans-Serif" font-size="10" text-anchor="middle">pkgAcqBaseIndex</text></a></g></g><g id="node2" class="node"><title>Node2</title><g id="a_node2"><a target="_top" xlink:href="classpkgAcqTransactionItem.xhtml" xlink:title="baseclass for the indexes files to manage them all together"><polygon fill="#fff" stroke="#000" points="158.56 -261.5 158.56 -280.5 289.56 -280.5 289.56 -261.5 158.56 -261.5"/><text x="224.06" y="-268.5" font-family="Helvetica,sans-Serif" font-size="10" text-anchor="middle">pkgAcqTransactionItem</text></a></g></g><g id="edge1" class="edge"><title>Node2-&gt;Node1</title><path fill="none" stroke="#191970" d="M250.8,-257C280.15,-242.73 326.43,-220.23 351.51,-208.03"/><polygon fill="#191970" stroke="#191970" points="249.01 -253.98 241.55 -261.5 252.07 -260.27 249.01 -253.98"/></g><g id="node10" class="node"><title>Node10</title><g id="a_node10"><a target="_top" xlink:href="classpkgAcqMetaBase.xhtml" xlink:title="the manager of a transaction"><polygon fill="#fff" stroke="#000" points="192.56 -115.5 192.56 -134.5 293.56 -134.5 293.56 -115.5 192.56 -115.5"/><text x="243.06" y="-122.5" font-family="Helvetica,sans-Serif" font-size="10" text-anchor="middle">pkgAcqMetaBase</text></a></g></g><g id="edge11" class="edge"><title>Node2-&gt;Node10</title><path fill="none" stroke="#191970" d="M190.62,-257.14C172.12,-248.09 150.76,-234 140.06,-214 133.56,-201.85 133.06,-194.87 140.06,-183 155,-157.65 185.73,-142.78 209.75,-134.63"/><polygon fill="#191970" stroke="#191970" points="189.41 -260.43 199.96 -261.41 192.32 -254.07 189.41 -260.43"/></g><g id="node11" class="node"><title>Node11</title><g id="a_node11"><a><polygon fill="#fff" stroke="#bfbfbf" points="149.06 -183.5 149.06 -213.5 299.06 -213.5 299.06 -183.5 149.06 -183.5"/><text x="157.06" y="-201.5" font-family="Helvetica,sans-Serif" font-size="10" text-anchor="start">vector&lt; pkgAcqTransaction</text><text x="224.06" y="-190.5" font-family="Helvetica,sans-Serif" font-size="10" text-anchor="middle">Item * &gt;</text></a></g></g><g id="edge13" class="edge"><title>Node2-&gt;Node11</title><path fill="none" stroke="#9a32cd" stroke-dasharray="5 2" d="M224.06,-251.24C224.06,-239.41 224.06,-224.38 224.06,-213.58"/><polygon fill="#9a32cd" stroke="#9a32cd" points="220.56 -251.36 224.06 -261.36 227.56 -251.36 220.56 -251.36"/><text x="248.56" y="-235" font-family="Helvetica,sans-Serif" font-size="10" text-anchor="middle">elements</text></g><g id="node3" class="node"><title>Node3</title><g id="a_node3"><a><polygon fill="#fff" stroke="#bfbfbf" points="212.56 -334 212.56 -353 251.56 -353 251.56 -334 212.56 -334"/><text x="232.06" y="-341" font-family="Helvetica,sans-Serif" font-size="10" text-anchor="middle">Item</text></a></g></g><g id="edge2" class="edge"><title>Node3-&gt;Node2</title><path fill="none" stroke="#191970" d="M229.94,-323.86C228.36,-309.9 226.26,-291.43 225.05,-280.72"/><polygon fill="#191970" stroke="#191970" points="226.47 -324.31 231.08 -333.86 233.43 -323.52 226.47 -324.31"/></g><g id="node4" class="node"><title>Node4</title><g id="a_node4"><a target="_top" xlink:href="classIndexTarget.xhtml" xlink:title="Information about an index file."><polygon fill="#fff" stroke="#000" points="120.06 -334 120.06 -353 194.06 -353 194.06 -334 120.06 -334"/><text x="157.06" y="-341" font-family="Helvetica,sans-Serif" font-size="10" text-anchor="middle">IndexTarget</text></a></g></g><g id="edge3" class="edge"><title>Node4-&gt;Node2</title><path fill="none" stroke="#9a32cd" stroke-dasharray="5 2" d="M168.3,-325.69C174.3,-317.27 182.08,-307.16 190.06,-299 196.7,-292.21 205.04,-285.56 211.8,-280.56"/><polygon fill="#9a32cd" stroke="#9a32cd" points="165.37 -323.77 162.57 -333.99 171.13 -327.75 165.37 -323.77"/><text x="207.06" y="-302" font-family="Helvetica,sans-Serif" font-size="10" text-anchor="middle">Target</text></g><g id="node9" class="node"><title>Node9</title><g id="a_node9"><a target="_top" xlink:href="classpkgAcqMetaIndex.xhtml" xlink:title="An item that is responsible for downloading the meta-index {{{ file (i.e., Release) itself and verify..."><polygon fill="#fff" stroke="#000" points="145.06 -57.5 145.06 -76.5 249.06 -76.5 249.06 -57.5 145.06 -57.5"/><text x="197.06" y="-64.5" font-family="Helvetica,sans-Serif" font-size="10" text-anchor="middle">pkgAcqMetaIndex</text></a></g></g><g id="edge15" class="edge"><title>Node4-&gt;Node9</title><path fill="none" stroke="#9a32cd" stroke-dasharray="5 2" d="M126.56,-329.62C74.57,-305.57 -23.03,-250.13 5.06,-183 31.23,-120.45 110.93,-89.74 159.03,-76.53"/><polygon fill="#9a32cd" stroke="#9a32cd" points="125.45 -332.96 136 -333.88 128.32 -326.58 125.45 -332.96"/><text x="52.56" y="-196" font-family="Helvetica,sans-Serif" font-size="10" text-anchor="middle">DetachedSigTarget</text></g><g id="node5" class="node"><title>Node5</title><g id="a_node5"><a><polygon fill="#fff" stroke="#bfbfbf" points="234.56 -501 234.56 -531 353.56 -531 353.56 -501 234.56 -501"/><text x="242.56" y="-519" font-family="Helvetica,sans-Serif" font-size="10" text-anchor="start">map&lt; std::string, std</text><text x="294.06" y="-508" font-family="Helvetica,sans-Serif" font-size="10" text-anchor="middle">::string &gt;</text></a></g></g><g id="edge4" class="edge"><title>Node5-&gt;Node4</title><path fill="none" stroke="#9a32cd" stroke-dasharray="5 2" d="M276.25,-492.84C245.78,-454.92 184.92,-379.18 164.18,-353.36"/><polygon fill="#9a32cd" stroke="#9a32cd" points="273.62 -495.15 282.61 -500.76 279.08 -490.77 273.62 -495.15"/><text x="280.56" y="-424" font-family="Helvetica,sans-Serif" font-size="10" text-anchor="middle">Options</text></g><g id="node6" class="node"><title>Node6</title><g id="a_node6"><a><polygon fill="#fff" stroke="#bfbfbf" points="427.06 -596.5 427.06 -615.5 471.06 -615.5 471.06 -596.5 427.06 -596.5"/><text x="449.06" y="-603.5" font-family="Helvetica,sans-Serif" font-size="10" text-anchor="middle">string</text></a></g></g><g id="edge25" class="edge"><title>Node6-&gt;Node2</title><path fill="none" stroke="#9a32cd" stroke-dasharray="5 2" d="M438.66,-587.31C415.67,-548.49 358.37,-453.24 305.06,-377 279.2,-340.02 245.46,-298.12 231.06,-280.51"/><polygon fill="#9a32cd" stroke="#9a32cd" points="435.76 -589.28 443.85 -596.11 441.79 -585.72 435.76 -589.28"/><text x="395.06" y="-424" font-family="Helvetica,sans-Serif" font-size="10" text-anchor="middle">PartialFile</text></g><g id="edge7" class="edge"><title>Node6-&gt;Node4</title><path fill="none" stroke="#9a32cd" stroke-dasharray="5 2" d="M416.71,-602.3C349.15,-595.92 196.79,-577.39 166.06,-538 121.37,-480.73 145.69,-382.35 154.38,-353"/><polygon fill="#9a32cd" stroke="#9a32cd" points="416.51 -605.8 426.79 -603.22 417.15 -598.83 416.51 -605.8"/><text x="195.56" y="-530" font-family="Helvetica,sans-Serif" font-size="10" text-anchor="middle">Description</text><text x="195.56" y="-519" font-family="Helvetica,sans-Serif" font-size="10" text-anchor="middle">MetaKey</text><text x="195.56" y="-508" font-family="Helvetica,sans-Serif" font-size="10" text-anchor="middle">ShortDesc</text><text x="195.56" y="-497" font-family="Helvetica,sans-Serif" font-size="10" text-anchor="middle">URI</text></g><g id="edge5" class="edge"><title>Node6-&gt;Node5</title><path fill="none" stroke="#9a32cd" stroke-dasharray="5 2" d="M416.53,-601.74C383,-597.78 333.62,-590.1 319.06,-578 304.89,-566.22 298.65,-545.13 295.98,-531.1"/><polygon fill="#9a32cd" stroke="#9a32cd" points="416.47 -605.26 426.8 -602.9 417.25 -598.3 416.47 -605.26"/><text x="343.56" y="-570" font-family="Helvetica,sans-Serif" font-size="10" text-anchor="middle">elements</text><text x="343.56" y="-559" font-family="Helvetica,sans-Serif" font-size="10" text-anchor="middle">keys</text></g><g id="edge14" class="edge"><title>Node6-&gt;Node10</title><path fill="none" stroke="#9a32cd" stroke-dasharray="5 2" d="M449.06,-586.07C449.06,-568.25 449.06,-540.81 449.06,-517 449.06,-517 449.06,-517 449.06,-197.5 449.06,-164.71 354.71,-143.55 293.72,-133.3"/><polygon fill="#9a32cd" stroke="#9a32cd" points="445.56 -586.26 449.06 -596.26 452.56 -586.26 445.56 -586.26"/><text x="471.56" y="-302" font-family="Helvetica,sans-Serif" font-size="10" text-anchor="middle">BaseURI</text></g><g id="node12" class="node"><title>Node12</title><g id="a_node12"><a target="_top" xlink:href="classmetaIndex.xhtml"><polygon fill="#fff" stroke="#000" points="492.56 -261.5 492.56 -280.5 561.56 -280.5 561.56 -261.5 492.56 -261.5"/><text x="527.06" y="-268.5" font-family="Helvetica,sans-Serif" font-size="10" text-anchor="middle">metaIndex</text></a></g></g><g id="edge19" class="edge"><title>Node6-&gt;Node12</title><path fill="none" stroke="#9a32cd" stroke-dasharray="5 2" d="M459.2,-587.33C460.66,-584.29 462.02,-581.1 463.06,-578 498.99,-471.14 476.58,-436.82 506.06,-328 510.73,-310.76 518.6,-291.41 523.27,-280.56"/><polygon fill="#9a32cd" stroke="#9a32cd" points="456.03 -585.83 454.44 -596.3 462.22 -589.11 456.03 -585.83"/><text x="528.06" y="-468" font-family="Helvetica,sans-Serif" font-size="10" text-anchor="middle">Codename</text><text x="528.06" y="-457" font-family="Helvetica,sans-Serif" font-size="10" text-anchor="middle">Dist</text><text x="528.06" y="-446" font-family="Helvetica,sans-Serif" font-size="10" text-anchor="middle">Label</text><text x="528.06" y="-435" font-family="Helvetica,sans-Serif" font-size="10" text-anchor="middle">Origin</text><text x="528.06" y="-424" font-family="Helvetica,sans-Serif" font-size="10" text-anchor="middle">ReleaseNotes</text><text x="528.06" y="-413" font-family="Helvetica,sans-Serif" font-size="10" text-anchor="middle">SignedBy</text><text x="528.06" y="-402" font-family="Helvetica,sans-Serif" font-size="10" text-anchor="middle">Suite</text><text x="528.06" y="-391" font-family="Helvetica,sans-Serif" font-size="10" text-anchor="middle">URI</text><text x="528.06" y="-380" font-family="Helvetica,sans-Serif" font-size="10" text-anchor="middle">Version</text></g><g id="node15" class="node"><title>Node15</title><g id="a_node15"><a><polygon fill="#fff" stroke="#bfbfbf" points="673.56 -328.5 673.56 -358.5 830.56 -358.5 830.56 -328.5 673.56 -328.5"/><text x="681.56" y="-346.5" font-family="Helvetica,sans-Serif" font-size="10" text-anchor="start">map&lt; std::string, metaIndex</text><text x="752.06" y="-335.5" font-family="Helvetica,sans-Serif" font-size="10" text-anchor="middle">::checkSum * &gt;</text></a></g></g><g id="edge21" class="edge"><title>Node6-&gt;Node15</title><path fill="none" stroke="#9a32cd" stroke-dasharray="5 2" d="M481.31,-599.61C520.15,-591.75 585.69,-573.98 630.06,-538 693.14,-486.85 733.29,-393.94 746.89,-358.63"/><polygon fill="#9a32cd" stroke="#9a32cd" points="480.26 -596.25 471.1 -601.57 481.58 -603.12 480.26 -596.25"/><text x="683.06" y="-513.5" font-family="Helvetica,sans-Serif" font-size="10" text-anchor="middle">keys</text></g><g id="node16" class="node"><title>Node16</title><g id="a_node16"><a target="_top" xlink:href="structmetaIndex_1_1checkSum.xhtml"><polygon fill="#fff" stroke="#000" points="718.56 -506.5 718.56 -525.5 785.56 -525.5 785.56 -506.5 718.56 -506.5"/><text x="752.06" y="-513.5" font-family="Helvetica,sans-Serif" font-size="10" text-anchor="middle">checkSum</text></a></g></g><g id="edge24" class="edge"><title>Node6-&gt;Node16</title><path fill="none" stroke="#9a32cd" stroke-dasharray="5 2" d="M481.23,-603.85C534.05,-601.51 636.45,-594.88 668.06,-578 679.45,-571.91 677.17,-564.32 687.06,-556 701.76,-543.63 720.84,-532.68 734.51,-525.56"/><polygon fill="#9a32cd" stroke="#9a32cd" points="480.91 -600.37 471.06 -604.28 481.2 -607.36 480.91 -600.37"/><text x="732.56" y="-564.5" font-family="Helvetica,sans-Serif" font-size="10" text-anchor="middle">MetaKeyFilename</text></g><g id="node7" class="node"><title>Node7</title><g id="a_node7"><a><polygon fill="#fff" stroke="#bfbfbf" points="389.06 -653.5 389.06 -672.5 509.06 -672.5 509.06 -653.5 389.06 -653.5"/><text x="449.06" y="-660.5" font-family="Helvetica,sans-Serif" font-size="10" text-anchor="middle">basic_string&lt; Char &gt;</text></a></g></g><g id="edge6" class="edge"><title>Node7-&gt;Node6</title><path fill="none" stroke="#191970" d="M449.06,-643.12C449.06,-633.82 449.06,-623.06 449.06,-615.71"/><polygon fill="#191970" stroke="#191970" points="445.56 -643.41 449.06 -653.41 452.56 -643.41 445.56 -643.41"/></g><g id="node8" class="node"><title>Node8</title><g id="a_node8"><a target="_top" xlink:href="classpkgAcqMetaClearSig.xhtml" xlink:title="An item responsible for downloading clearsigned metaindexes {{{."><polygon fill="#fff" stroke="#000" points="138.06 -.5 138.06 -19.5 256.06 -19.5 256.06 -.5 138.06 -.5"/><text x="197.06" y="-7.5" font-family="Helvetica,sans-Serif" font-size="10" text-anchor="middle">pkgAcqMetaClearSig</text></a></g></g><g id="edge8" class="edge"><title>Node8-&gt;Node2</title><path fill="none" stroke="#9a32cd" stroke-dasharray="5 2" d="M168.04,-24.22C129.02,-44.15 66.13,-85.06 81.06,-136 92.35,-174.53 133.87,-229.64 151.06,-243 161.73,-251.29 175.2,-257.23 187.66,-261.38"/><polygon fill="#9a32cd" stroke="#9a32cd" points="169.97 -27.17 177.39 -19.61 166.87 -20.89 169.97 -27.17"/><text x="132.06" y="-122.5" font-family="Helvetica,sans-Serif" font-size="10" text-anchor="middle">TransactionManager</text></g><g id="edge9" class="edge"><title>Node9-&gt;Node8</title><path fill="none" stroke="#191970" d="M197.06,-47.12C197.06,-37.82 197.06,-27.06 197.06,-19.71"/><polygon fill="#191970" stroke="#191970" points="193.56 -47.41 197.06 -57.41 200.56 -47.41 193.56 -47.41"/></g><g id="edge10" class="edge"><title>Node10-&gt;Node9</title><path fill="none" stroke="#191970" d="M229.45,-107.43C221.1,-97.27 210.76,-84.69 204.04,-76.51"/><polygon fill="#191970" stroke="#191970" points="226.82 -109.74 235.87 -115.25 232.23 -105.3 226.82 -109.74"/></g><g id="edge12" class="edge"><title>Node11-&gt;Node10</title><path fill="none" stroke="#9a32cd" stroke-dasharray="5 2" d="M230.47,-173.36C234.02,-160.01 238.21,-144.25 240.75,-134.7"/><polygon fill="#9a32cd" stroke="#9a32cd" points="227 -172.81 227.81 -183.37 233.76 -174.61 227 -172.81"/><text x="265.56" y="-157" font-family="Helvetica,sans-Serif" font-size="10" text-anchor="middle">Transaction</text></g><g id="edge16" class="edge"><title>Node12-&gt;Node8</title><path fill="none" stroke="#9a32cd" stroke-dasharray="5 2" d="M515.81,-252.46C508.02,-238.63 499.06,-218.58 499.06,-199.5 499.06,-199.5 499.06,-199.5 499.06,-66 499.06,-41.59 344.31,-23.94 256.36,-15.89"/><polygon fill="#9a32cd" stroke="#9a32cd" points="512.97 -254.54 521.12 -261.32 518.98 -250.94 512.97 -254.54"/><text x="552.06" y="-128" font-family="Helvetica,sans-Serif" font-size="10" text-anchor="middle">LastMetaIndexParser</text><text x="552.06" y="-117" font-family="Helvetica,sans-Serif" font-size="10" text-anchor="middle">MetaIndexParser</text></g><g id="node13" class="node"><title>Node13</title><g id="a_node13"><a><polygon fill="#fff" stroke="#bfbfbf" points="515.06 -334 515.06 -353 655.06 -353 655.06 -334 515.06 -334"/><text x="585.06" y="-341" font-family="Helvetica,sans-Serif" font-size="10" text-anchor="middle">vector&lt; pkgIndexFile * &gt;</text></a></g></g><g id="edge17" class="edge"><title>Node13-&gt;Node12</title><path fill="none" stroke="#9a32cd" stroke-dasharray="5 2" d="M571.4,-325.9C559.75,-311.74 543.48,-291.96 534.23,-280.72"/><polygon fill="#9a32cd" stroke="#9a32cd" points="568.89 -328.36 577.95 -333.86 574.3 -323.91 568.89 -328.36"/><text x="577.56" y="-302" font-family="Helvetica,sans-Serif" font-size="10" text-anchor="middle">Indexes</text></g><g id="node14" class="node"><title>Node14</title><g id="a_node14"><a target="_top" xlink:href="classpkgIndexFile.xhtml"><polygon fill="#fff" stroke="#000" points="541.56 -506.5 541.56 -525.5 620.56 -525.5 620.56 -506.5 541.56 -506.5"/><text x="581.06" y="-513.5" font-family="Helvetica,sans-Serif" font-size="10" text-anchor="middle">pkgIndexFile</text></a></g></g><g id="edge18" class="edge"><title>Node14-&gt;Node13</title><path fill="none" stroke="#9a32cd" stroke-dasharray="5 2" d="M581.5,-496.02C582.36,-459.33 584.23,-379.96 584.85,-353.38"/><polygon fill="#9a32cd" stroke="#9a32cd" points="578 -496.23 581.26 -506.31 585 -496.4 578 -496.23"/><text x="608.56" y="-424" font-family="Helvetica,sans-Serif" font-size="10" text-anchor="middle">elements</text></g><g id="edge20" class="edge"><title>Node15-&gt;Node12</title><path fill="none" stroke="#9a32cd" stroke-dasharray="5 2" d="M697.67,-325.46C652.38,-311.27 589.78,-291.65 554.36,-280.55"/><polygon fill="#9a32cd" stroke="#9a32cd" points="696.75 -328.84 707.34 -328.49 698.84 -322.16 696.75 -328.84"/><text x="664.56" y="-302" font-family="Helvetica,sans-Serif" font-size="10" text-anchor="middle">Entries</text></g><g id="edge22" class="edge"><title>Node16-&gt;Node15</title><path fill="none" stroke="#9a32cd" stroke-dasharray="5 2" d="M752.06,-496.21C752.06,-461.77 752.06,-389.27 752.06,-358.64"/><polygon fill="#9a32cd" stroke="#9a32cd" points="748.56 -496.31 752.06 -506.31 755.56 -496.31 748.56 -496.31"/><text x="776.56" y="-424" font-family="Helvetica,sans-Serif" font-size="10" text-anchor="middle">elements</text></g><g id="node17" class="node"><title>Node17</title><g id="a_node17"><a target="_top" xlink:href="classHashStringList.xhtml"><polygon fill="#fff" stroke="#000" points="760.56 -596.5 760.56 -615.5 847.56 -615.5 847.56 -596.5 760.56 -596.5"/><text x="804.06" y="-603.5" font-family="Helvetica,sans-Serif" font-size="10" text-anchor="middle">HashStringList</text></a></g></g><g id="edge23" class="edge"><title>Node17-&gt;Node16</title><path fill="none" stroke="#9a32cd" stroke-dasharray="5 2" d="M797.09,-586.82C793.17,-577.36 787.9,-565.77 782.06,-556 775.4,-544.86 766.07,-533.2 759.59,-525.56"/><polygon fill="#9a32cd" stroke="#9a32cd" points="793.94 -588.38 800.9 -596.38 800.45 -585.79 793.94 -588.38"/><text x="812.06" y="-564.5" font-family="Helvetica,sans-Serif" font-size="10" text-anchor="middle">Hashes</text></g></g></svg><g id="navigator" fill="#404254" transform="translate(0 0)"><rect width="60" height="60" x="0" y="0" fill="#f2f5e9" fill-opacity=".5" stroke="#606060" stroke-width=".5"/><use id="zoomplus" x="17" y="9" onmousedown="handleZoom(evt,'in')" xlink:href="#zoomPlus"/><use id="zoomminus" x="42" y="9" onmousedown="handleZoom(evt,'out')" xlink:href="#zoomMin"/><use id="reset" x="30" y="36" onmousedown="handleReset()" xlink:href="#resetDef"/><g id="arrowUp" onmousedown="handlePan(0,-1)" transform="translate(30 24)" xlink:href="#dirArrow"><use fill="#404040" xlink:href="#rim"><set attributeName="fill" begin="arrowUp.mouseover" end="arrowUp.mouseout" to="#808080"/></use><path fill="none" stroke="#fff" stroke-width="1.5" d="M0,-3.0v7 M-2.5,-0.5L0,-3.0L2.5,-0.5"/></g><g id="arrowRight" onmousedown="handlePan(1,0)" transform="rotate(90) translate(36 -43)" xlink:href="#dirArrow"><use fill="#404040" xlink:href="#rim"><set attributeName="fill" begin="arrowRight.mouseover" end="arrowRight.mouseout" to="#808080"/></use><path fill="none" stroke="#fff" stroke-width="1.5" d="M0,-3.0v7 M-2.5,-0.5L0,-3.0L2.5,-0.5"/></g><g id="arrowDown" onmousedown="handlePan(0,1)" transform="rotate(180) translate(-30 -48)" xlink:href="#dirArrow"><use fill="#404040" xlink:href="#rim"><set attributeName="fill" begin="arrowDown.mouseover" end="arrowDown.mouseout" to="#808080"/></use><path fill="none" stroke="#fff" stroke-width="1.5" d="M0,-3.0v7 M-2.5,-0.5L0,-3.0L2.5,-0.5"/></g><g id="arrowLeft" onmousedown="handlePan(-1,0)" transform="rotate(270) translate(-36 17)" xlink:href="#dirArrow"><use fill="#404040" xlink:href="#rim"><set attributeName="fill" begin="arrowLeft.mouseover" end="arrowLeft.mouseout" to="#808080"/></use><path fill="none" stroke="#fff" stroke-width="1.5" d="M0,-3.0v7 M-2.5,-0.5L0,-3.0L2.5,-0.5"/></g></g><svg width="100%" height="30" preserveAspectRatio="xMaxYMin meet" viewBox="0 0 15 15"><g id="arrow_out" transform="scale(0.3 0.3)"><a target="_base" xlink:href="classpkgAcqBaseIndex__coll__graph_org.svg"><rect id="button" width="38" height="38" x="6" y="6" fill="#f2f5e9" fill-opacity=".5" stroke="#606060" stroke-width="1" rx="5" ry="5"/><path id="arrow" d="M 11.500037,31.436501 C 11.940474,20.09759 22.043105,11.32322 32.158766,21.979434 L 37.068811,17.246167 C 37.068811,17.246167 37.088388,32 37.088388,32 L 22.160133,31.978069 C 22.160133,31.978069 26.997745,27.140456 26.997745,27.140456 C 18.528582,18.264221 13.291696,25.230495 11.500037,31.436501 z" style="fill:#404040"/></a></g></svg></svg>