<svg xmlns="http://www.w3.org/2000/svg" xmlns:xlink="http://www.w3.org/1999/xlink" width="149pt" height="85pt" viewBox="0 0 148.5 85"><g id="graph0" class="graph" transform="scale(1 1) rotate(0) translate(4 81)"><title>debSLTypeDebian</title><polygon fill="#fff" stroke="transparent" points="-4 4 -4 -81 144.5 -81 144.5 4 -4 4"/><g id="node1" class="node"><title>Node1</title><g id="a_node1"><a><polygon fill="#bfbfbf" stroke="#000" points="0 -.5 0 -19.5 102 -19.5 102 -.5 0 -.5"/><text x="51" y="-7.5" font-family="Helvetica,sans-Serif" font-size="10" text-anchor="middle">debSLTypeDebian</text></a></g></g><g id="node2" class="node"><title>Node2</title><g id="a_node2"><a target="_top" xlink:href="classpkgSourceList_1_1Type.xhtml"><polygon fill="#fff" stroke="#000" points="31.5 -57.5 31.5 -76.5 70.5 -76.5 70.5 -57.5 31.5 -57.5"/><text x="51" y="-64.5" font-family="Helvetica,sans-Serif" font-size="10" text-anchor="middle">Type</text></a></g></g><g id="edge1" class="edge"><title>Node2-&gt;Node1</title><path fill="none" stroke="#191970" d="M51,-47.12C51,-37.82 51,-27.06 51,-19.71"/><polygon fill="#191970" stroke="#191970" points="47.5 -47.41 51 -57.41 54.5 -47.41 47.5 -47.41"/></g><g id="edge2" class="edge"><title>Node2-&gt;Node2</title><path fill="none" stroke="#9a32cd" stroke-dasharray="5 2" d="M80.83,-71.79C85.4,-71.06 88.5,-69.47 88.5,-67 88.5,-62.95 80.14,-61.25 70.68,-61.88"/><polygon fill="#9a32cd" stroke="#9a32cd" points="80.56 -68.3 70.68 -72.12 80.79 -75.3 80.56 -68.3"/><text x="114.5" y="-64.5" font-family="Helvetica,sans-Serif" font-size="10" text-anchor="middle">GlobalList</text></g></g></svg>