<svg xmlns="http://www.w3.org/2000/svg" xmlns:xlink="http://www.w3.org/1999/xlink" width="230pt" height="140pt" viewBox="0 0 229.5 140"><g id="graph0" class="graph" transform="scale(1 1) rotate(0) translate(4 136)"><title>pkgSystem</title><polygon fill="#fff" stroke="transparent" points="-4 4 -4 -136 225.5 -136 225.5 4 -4 4"/><g id="node1" class="node"><title>Node1</title><g id="a_node1"><a><polygon fill="#bfbfbf" stroke="#000" points="51 -112.5 51 -131.5 122 -131.5 122 -112.5 51 -112.5"/><text x="86.5" y="-119.5" font-family="Helvetica,sans-Serif" font-size="10" text-anchor="middle">pkgSystem</text></a></g></g><g id="node2" class="node"><title>Node2</title><g id="a_node2"><a target="_top" xlink:href="classdebSystem.xhtml"><polygon fill="#fff" stroke="#000" points="0 -56.5 0 -75.5 71 -75.5 71 -56.5 0 -56.5"/><text x="35.5" y="-63.5" font-family="Helvetica,sans-Serif" font-size="10" text-anchor="middle">debSystem</text></a></g></g><g id="edge1" class="edge"><title>Node1-&gt;Node2</title><path fill="none" stroke="#191970" d="M71.12,-104.72C62.13,-95.2 51.14,-83.56 43.76,-75.75"/><polygon fill="#191970" stroke="#191970" points="68.67 -107.22 78.08 -112.08 73.76 -102.41 68.67 -107.22"/></g><g id="node3" class="node"><title>Node3</title><g id="a_node3"><a target="_top" xlink:href="classedspLikeSystem.xhtml"><polygon fill="#fff" stroke="#000" points="89.5 -56.5 89.5 -75.5 185.5 -75.5 185.5 -56.5 89.5 -56.5"/><text x="137.5" y="-63.5" font-family="Helvetica,sans-Serif" font-size="10" text-anchor="middle">edspLikeSystem</text></a></g></g><g id="edge2" class="edge"><title>Node1-&gt;Node3</title><path fill="none" stroke="#191970" d="M101.88,-104.72C110.87,-95.2 121.86,-83.56 129.24,-75.75"/><polygon fill="#191970" stroke="#191970" points="99.24 -102.41 94.92 -112.08 104.33 -107.22 99.24 -102.41"/></g><g id="node4" class="node"><title>Node4</title><g id="a_node4"><a target="_top" xlink:href="classedspSystem.xhtml"><polygon fill="#fff" stroke="#000" points="52 -.5 52 -19.5 129 -19.5 129 -.5 52 -.5"/><text x="90.5" y="-7.5" font-family="Helvetica,sans-Serif" font-size="10" text-anchor="middle">edspSystem</text></a></g></g><g id="edge3" class="edge"><title>Node3-&gt;Node4</title><path fill="none" stroke="#191970" d="M123.08,-48.43C114.84,-38.97 104.85,-27.48 98.12,-19.75"/><polygon fill="#191970" stroke="#191970" points="120.53 -50.84 129.74 -56.08 125.81 -46.24 120.53 -50.84"/></g><g id="node5" class="node"><title>Node5</title><g id="a_node5"><a target="_top" xlink:href="classeippSystem.xhtml"><polygon fill="#fff" stroke="#000" points="147.5 -.5 147.5 -19.5 221.5 -19.5 221.5 -.5 147.5 -.5"/><text x="184.5" y="-7.5" font-family="Helvetica,sans-Serif" font-size="10" text-anchor="middle">eippSystem</text></a></g></g><g id="edge4" class="edge"><title>Node3-&gt;Node5</title><path fill="none" stroke="#191970" d="M151.92,-48.43C160.16,-38.97 170.15,-27.48 176.88,-19.75"/><polygon fill="#191970" stroke="#191970" points="149.19 -46.24 145.26 -56.08 154.47 -50.84 149.19 -46.24"/></g></g></svg>