<svg xmlns="http://www.w3.org/2000/svg" xmlns:xlink="http://www.w3.org/1999/xlink" width="226pt" height="95pt" viewBox="0 0 226 95"><g id="graph0" class="graph" transform="scale(1 1) rotate(0) translate(4 91)"><title>pkgDepCache::DefaultRootSetFunc</title><polygon fill="#fff" stroke="transparent" points="-4 4 -4 -91 222 -91 222 4 -4 4"/><g id="node1" class="node"><title>Node1</title><g id="a_node1"><a xlink:title="Returns true for packages matching a regular expression in APT::NeverAutoRemove."><polygon fill="#bfbfbf" stroke="#000" points="27.5 -.5 27.5 -30.5 176.5 -30.5 176.5 -.5 27.5 -.5"/><text x="35.5" y="-18.5" font-family="Helvetica,sans-Serif" font-size="10" text-anchor="start">pkgDepCache::DefaultRoot</text><text x="102" y="-7.5" font-family="Helvetica,sans-Serif" font-size="10" text-anchor="middle">SetFunc</text></a></g></g><g id="node2" class="node"><title>Node2</title><g id="a_node2"><a target="_top" xlink:href="classpkgDepCache_1_1InRootSetFunc.xhtml" xlink:title="An arbitrary predicate on packages."><polygon fill="#fff" stroke="#000" points="0 -67.5 0 -86.5 86 -86.5 86 -67.5 0 -67.5"/><text x="43" y="-74.5" font-family="Helvetica,sans-Serif" font-size="10" text-anchor="middle">InRootSetFunc</text></a></g></g><g id="edge1" class="edge"><title>Node2-&gt;Node1</title><path fill="none" stroke="#191970" d="M58.5,-60.37C67.68,-51.11 79.21,-39.48 88.09,-30.52"/><polygon fill="#191970" stroke="#191970" points="56.01 -57.91 51.45 -67.48 60.98 -62.84 56.01 -57.91"/></g><g id="node3" class="node"><title>Node3</title><g id="a_node3"><a target="_top" xlink:href="classConfiguration_1_1MatchAgainstConfig.xhtml" xlink:title="match a string against a configurable list of patterns"><polygon fill="#fff" stroke="#000" points="104 -67.5 104 -86.5 218 -86.5 218 -67.5 104 -67.5"/><text x="161" y="-74.5" font-family="Helvetica,sans-Serif" font-size="10" text-anchor="middle">MatchAgainstConfig</text></a></g></g><g id="edge2" class="edge"><title>Node3-&gt;Node1</title><path fill="none" stroke="#191970" d="M145.5,-60.37C136.32,-51.11 124.79,-39.48 115.91,-30.52"/><polygon fill="#191970" stroke="#191970" points="143.02 -62.84 152.55 -67.48 147.99 -57.91 143.02 -62.84"/></g></g></svg>