<?xml version="1.0" encoding="UTF-8" standalone="no"?>
<!DOCTYPE svg PUBLIC "-//W3C//DTD SVG 1.1//EN"
 "http://www.w3.org/Graphics/SVG/1.1/DTD/svg11.dtd">
<!-- Generated by graphviz version 2.43.0 (0)
 -->
<!-- Title: debSystemPrivate Pages: 1 -->
<svg width="237pt" height="276pt"
 viewBox="0.00 0.00 236.50 276.00" xmlns="http://www.w3.org/2000/svg" xmlns:xlink="http://www.w3.org/1999/xlink">
<g id="graph0" class="graph" transform="scale(1 1) rotate(0) translate(4 272)">
<title>debSystemPrivate</title>
<polygon fill="white" stroke="transparent" points="-4,4 -4,-272 232.5,-272 232.5,4 -4,4"/>
<!-- Node1 -->
<g id="node1" class="node">
<title>Node1</title>
<g id="a_node1"><a xlink:title=" ">
<polygon fill="#bfbfbf" stroke="black" points="51.5,-0.5 51.5,-19.5 157.5,-19.5 157.5,-0.5 51.5,-0.5"/>
<text text-anchor="middle" x="104.5" y="-7.5" font-family="Helvetica,sans-Serif" font-size="10.00">debSystemPrivate</text>
</a>
</g>
</g>
<!-- Node2 -->
<g id="node2" class="node">
<title>Node2</title>
<g id="a_node2"><a xlink:href="classdebStatusIndex.xhtml" target="_top" xlink:title=" ">
<polygon fill="white" stroke="black" points="58.5,-67.5 58.5,-86.5 150.5,-86.5 150.5,-67.5 58.5,-67.5"/>
<text text-anchor="middle" x="104.5" y="-74.5" font-family="Helvetica,sans-Serif" font-size="10.00">debStatusIndex</text>
</a>
</g>
</g>
<!-- Node2&#45;&gt;Node1 -->
<g id="edge1" class="edge">
<title>Node2&#45;&gt;Node1</title>
<path fill="none" stroke="#9a32cd" stroke-dasharray="5,2" d="M104.5,-57.04C104.5,-44.67 104.5,-29.12 104.5,-19.63"/>
<polygon fill="#9a32cd" stroke="#9a32cd" points="101,-57.23 104.5,-67.23 108,-57.23 101,-57.23"/>
<text text-anchor="middle" x="130.5" y="-41" font-family="Helvetica,sans-Serif" font-size="10.00"> StatusFile</text>
</g>
<!-- Node3 -->
<g id="node3" class="node">
<title>Node3</title>
<g id="a_node3"><a xlink:href="classpkgDebianIndexRealFile.xhtml" target="_top" xlink:title=" ">
<polygon fill="white" stroke="black" points="37,-124.5 37,-143.5 172,-143.5 172,-124.5 37,-124.5"/>
<text text-anchor="middle" x="104.5" y="-131.5" font-family="Helvetica,sans-Serif" font-size="10.00">pkgDebianIndexRealFile</text>
</a>
</g>
</g>
<!-- Node3&#45;&gt;Node2 -->
<g id="edge2" class="edge">
<title>Node3&#45;&gt;Node2</title>
<path fill="none" stroke="midnightblue" d="M104.5,-114.12C104.5,-104.82 104.5,-94.06 104.5,-86.71"/>
<polygon fill="midnightblue" stroke="midnightblue" points="101,-114.41 104.5,-124.41 108,-114.41 101,-114.41"/>
</g>
<!-- Node4 -->
<g id="node4" class="node">
<title>Node4</title>
<g id="a_node4"><a xlink:href="classpkgDebianIndexFile.xhtml" target="_top" xlink:title=" ">
<polygon fill="white" stroke="black" points="0,-191.5 0,-210.5 113,-210.5 113,-191.5 0,-191.5"/>
<text text-anchor="middle" x="56.5" y="-198.5" font-family="Helvetica,sans-Serif" font-size="10.00">pkgDebianIndexFile</text>
</a>
</g>
</g>
<!-- Node4&#45;&gt;Node3 -->
<g id="edge3" class="edge">
<title>Node4&#45;&gt;Node3</title>
<path fill="none" stroke="midnightblue" d="M69.12,-182.9C78.45,-170.27 90.76,-153.6 98.13,-143.63"/>
<polygon fill="midnightblue" stroke="midnightblue" points="66.1,-181.11 62.97,-191.23 71.73,-185.27 66.1,-181.11"/>
</g>
<!-- Node5 -->
<g id="node5" class="node">
<title>Node5</title>
<g id="a_node5"><a xlink:href="classpkgIndexFile.xhtml" target="_top" xlink:title=" ">
<polygon fill="white" stroke="black" points="12,-248.5 12,-267.5 91,-267.5 91,-248.5 12,-248.5"/>
<text text-anchor="middle" x="51.5" y="-255.5" font-family="Helvetica,sans-Serif" font-size="10.00">pkgIndexFile</text>
</a>
</g>
</g>
<!-- Node5&#45;&gt;Node4 -->
<g id="edge4" class="edge">
<title>Node5&#45;&gt;Node4</title>
<path fill="none" stroke="midnightblue" d="M53.19,-238.42C54.04,-229.05 55.03,-218.14 55.71,-210.71"/>
<polygon fill="midnightblue" stroke="midnightblue" points="49.7,-238.13 52.28,-248.41 56.67,-238.76 49.7,-238.13"/>
</g>
<!-- Node6 -->
<g id="node6" class="node">
<title>Node6</title>
<g id="a_node6"><a xlink:title=" ">
<polygon fill="white" stroke="#bfbfbf" points="141.5,-191.5 141.5,-210.5 185.5,-210.5 185.5,-191.5 141.5,-191.5"/>
<text text-anchor="middle" x="163.5" y="-198.5" font-family="Helvetica,sans-Serif" font-size="10.00">string</text>
</a>
</g>
</g>
<!-- Node6&#45;&gt;Node3 -->
<g id="edge5" class="edge">
<title>Node6&#45;&gt;Node3</title>
<path fill="none" stroke="#9a32cd" stroke-dasharray="5,2" d="M148.65,-183.63C137.11,-170.92 121.56,-153.8 112.33,-143.63"/>
<polygon fill="#9a32cd" stroke="#9a32cd" points="146.23,-186.18 155.54,-191.23 151.41,-181.48 146.23,-186.18"/>
<text text-anchor="middle" x="149" y="-165" font-family="Helvetica,sans-Serif" font-size="10.00"> File</text>
</g>
<!-- Node7 -->
<g id="node7" class="node">
<title>Node7</title>
<g id="a_node7"><a xlink:title=" ">
<polygon fill="white" stroke="#bfbfbf" points="108.5,-248.5 108.5,-267.5 228.5,-267.5 228.5,-248.5 108.5,-248.5"/>
<text text-anchor="middle" x="168.5" y="-255.5" font-family="Helvetica,sans-Serif" font-size="10.00">basic_string&lt; Char &gt;</text>
</a>
</g>
</g>
<!-- Node7&#45;&gt;Node6 -->
<g id="edge6" class="edge">
<title>Node7&#45;&gt;Node6</title>
<path fill="none" stroke="midnightblue" d="M166.81,-238.42C165.96,-229.05 164.97,-218.14 164.29,-210.71"/>
<polygon fill="midnightblue" stroke="midnightblue" points="163.33,-238.76 167.72,-248.41 170.3,-238.13 163.33,-238.76"/>
</g>
</g>
</svg>
