<?xml version="1.0" encoding="UTF-8" standalone="no"?>
<!DOCTYPE svg PUBLIC "-//W3C//DTD SVG 1.1//EN"
 "http://www.w3.org/Graphics/SVG/1.1/DTD/svg11.dtd">
<!-- Generated by graphviz version 2.43.0 (0)
 -->
<!-- Title: FileFdPrivate Pages: 1 -->
<svg width="272pt" height="294pt"
 viewBox="0.00 0.00 272.00 294.00" xmlns="http://www.w3.org/2000/svg" xmlns:xlink="http://www.w3.org/1999/xlink">
<g id="graph0" class="graph" transform="scale(1 1) rotate(0) translate(4 290)">
<title>FileFdPrivate</title>
<polygon fill="white" stroke="transparent" points="-4,4 -4,-290 268,-290 268,4 -4,4"/>
<!-- Node1 -->
<g id="node1" class="node">
<title>Node1</title>
<g id="a_node1"><a xlink:title=" ">
<polygon fill="#bfbfbf" stroke="black" points="0,-133.5 0,-152.5 80,-152.5 80,-133.5 0,-133.5"/>
<text text-anchor="middle" x="40" y="-140.5" font-family="Helvetica,sans-Serif" font-size="10.00">FileFdPrivate</text>
</a>
</g>
</g>
<!-- Node2 -->
<g id="node2" class="node">
<title>Node2</title>
<g id="a_node2"><a xlink:href="classBufferedWriteFileFdPrivate.xhtml" target="_top" xlink:title=" ">
<polygon fill="white" stroke="black" points="116,-266.5 116,-285.5 264,-285.5 264,-266.5 116,-266.5"/>
<text text-anchor="middle" x="190" y="-273.5" font-family="Helvetica,sans-Serif" font-size="10.00">BufferedWriteFileFdPrivate</text>
</a>
</g>
</g>
<!-- Node1&#45;&gt;Node2 -->
<g id="edge1" class="edge">
<title>Node1&#45;&gt;Node2</title>
<path fill="none" stroke="midnightblue" d="M48.34,-162.04C59.2,-187.6 81.98,-232.62 116,-257 121.43,-260.89 127.59,-263.98 133.98,-266.45"/>
<polygon fill="midnightblue" stroke="midnightblue" points="51.55,-160.63 44.54,-152.68 45.06,-163.27 51.55,-160.63"/>
</g>
<!-- Node3 -->
<g id="node3" class="node">
<title>Node3</title>
<g id="a_node3"><a xlink:href="classBz2FileFdPrivate.xhtml" target="_top" xlink:title=" ">
<polygon fill="white" stroke="black" points="141,-228.5 141,-247.5 239,-247.5 239,-228.5 141,-228.5"/>
<text text-anchor="middle" x="190" y="-235.5" font-family="Helvetica,sans-Serif" font-size="10.00">Bz2FileFdPrivate</text>
</a>
</g>
</g>
<!-- Node1&#45;&gt;Node3 -->
<g id="edge2" class="edge">
<title>Node1&#45;&gt;Node3</title>
<path fill="none" stroke="midnightblue" d="M53.87,-160.76C67.41,-178.16 90.29,-204.17 116,-219 123.6,-223.39 132.22,-226.78 140.81,-229.39"/>
<polygon fill="midnightblue" stroke="midnightblue" points="56.49,-158.43 47.67,-152.55 50.9,-162.64 56.49,-158.43"/>
</g>
<!-- Node4 -->
<g id="node4" class="node">
<title>Node4</title>
<g id="a_node4"><a xlink:href="classDirectFileFdPrivate.xhtml" target="_top" xlink:title=" ">
<polygon fill="white" stroke="black" points="135,-190.5 135,-209.5 245,-209.5 245,-190.5 135,-190.5"/>
<text text-anchor="middle" x="190" y="-197.5" font-family="Helvetica,sans-Serif" font-size="10.00">DirectFileFdPrivate</text>
</a>
</g>
</g>
<!-- Node1&#45;&gt;Node4 -->
<g id="edge3" class="edge">
<title>Node1&#45;&gt;Node4</title>
<path fill="none" stroke="midnightblue" d="M66.37,-157.57C80.62,-165.31 98.92,-174.54 116,-181 125.55,-184.62 136.06,-187.79 146.06,-190.46"/>
<polygon fill="midnightblue" stroke="midnightblue" points="67.66,-154.29 57.22,-152.5 64.27,-160.41 67.66,-154.29"/>
</g>
<!-- Node5 -->
<g id="node5" class="node">
<title>Node5</title>
<g id="a_node5"><a xlink:href="classGzipFileFdPrivate.xhtml" target="_top" xlink:title=" ">
<polygon fill="white" stroke="black" points="139,-152.5 139,-171.5 241,-171.5 241,-152.5 139,-152.5"/>
<text text-anchor="middle" x="190" y="-159.5" font-family="Helvetica,sans-Serif" font-size="10.00">GzipFileFdPrivate</text>
</a>
</g>
</g>
<!-- Node1&#45;&gt;Node5 -->
<g id="edge4" class="edge">
<title>Node1&#45;&gt;Node5</title>
<path fill="none" stroke="midnightblue" d="M90.28,-149.33C105.91,-151.33 123.22,-153.55 138.91,-155.57"/>
<polygon fill="midnightblue" stroke="midnightblue" points="90.64,-145.84 80.27,-148.04 89.75,-152.79 90.64,-145.84"/>
</g>
<!-- Node6 -->
<g id="node6" class="node">
<title>Node6</title>
<g id="a_node6"><a xlink:href="classLz4FileFdPrivate.xhtml" target="_top" xlink:title=" ">
<polygon fill="white" stroke="black" points="141.5,-114.5 141.5,-133.5 238.5,-133.5 238.5,-114.5 141.5,-114.5"/>
<text text-anchor="middle" x="190" y="-121.5" font-family="Helvetica,sans-Serif" font-size="10.00">Lz4FileFdPrivate</text>
</a>
</g>
</g>
<!-- Node1&#45;&gt;Node6 -->
<g id="edge5" class="edge">
<title>Node1&#45;&gt;Node6</title>
<path fill="none" stroke="midnightblue" d="M90.25,-136.68C106.71,-134.56 125.02,-132.21 141.36,-130.12"/>
<polygon fill="midnightblue" stroke="midnightblue" points="89.75,-133.21 80.27,-137.96 90.64,-140.16 89.75,-133.21"/>
</g>
<!-- Node7 -->
<g id="node7" class="node">
<title>Node7</title>
<g id="a_node7"><a xlink:href="classLzmaFileFdPrivate.xhtml" target="_top" xlink:title=" ">
<polygon fill="white" stroke="black" points="136.5,-76.5 136.5,-95.5 243.5,-95.5 243.5,-76.5 136.5,-76.5"/>
<text text-anchor="middle" x="190" y="-83.5" font-family="Helvetica,sans-Serif" font-size="10.00">LzmaFileFdPrivate</text>
</a>
</g>
</g>
<!-- Node1&#45;&gt;Node7 -->
<g id="edge6" class="edge">
<title>Node1&#45;&gt;Node7</title>
<path fill="none" stroke="midnightblue" d="M66.37,-128.43C80.62,-120.69 98.92,-111.46 116,-105 125.55,-101.38 136.06,-98.21 146.06,-95.54"/>
<polygon fill="midnightblue" stroke="midnightblue" points="64.27,-125.59 57.22,-133.5 67.66,-131.71 64.27,-125.59"/>
</g>
<!-- Node8 -->
<g id="node8" class="node">
<title>Node8</title>
<g id="a_node8"><a xlink:href="classPipedFileFdPrivate.xhtml" target="_top" xlink:title=" ">
<polygon fill="white" stroke="black" points="136.5,-38.5 136.5,-57.5 243.5,-57.5 243.5,-38.5 136.5,-38.5"/>
<text text-anchor="middle" x="190" y="-45.5" font-family="Helvetica,sans-Serif" font-size="10.00">PipedFileFdPrivate</text>
</a>
</g>
</g>
<!-- Node1&#45;&gt;Node8 -->
<g id="edge7" class="edge">
<title>Node1&#45;&gt;Node8</title>
<path fill="none" stroke="midnightblue" d="M53.87,-125.24C67.41,-107.84 90.29,-81.83 116,-67 122.69,-63.14 130.18,-60.05 137.73,-57.58"/>
<polygon fill="midnightblue" stroke="midnightblue" points="50.9,-123.36 47.67,-133.45 56.49,-127.57 50.9,-123.36"/>
</g>
<!-- Node9 -->
<g id="node9" class="node">
<title>Node9</title>
<g id="a_node9"><a xlink:href="classZstdFileFdPrivate.xhtml" target="_top" xlink:title=" ">
<polygon fill="white" stroke="black" points="139,-0.5 139,-19.5 241,-19.5 241,-0.5 139,-0.5"/>
<text text-anchor="middle" x="190" y="-7.5" font-family="Helvetica,sans-Serif" font-size="10.00">ZstdFileFdPrivate</text>
</a>
</g>
</g>
<!-- Node1&#45;&gt;Node9 -->
<g id="edge8" class="edge">
<title>Node1&#45;&gt;Node9</title>
<path fill="none" stroke="midnightblue" d="M48.34,-123.96C59.2,-98.4 81.98,-53.38 116,-29 122.81,-24.12 130.78,-20.49 138.9,-17.79"/>
<polygon fill="midnightblue" stroke="midnightblue" points="45.06,-122.73 44.54,-133.32 51.55,-125.37 45.06,-122.73"/>
</g>
</g>
</svg>
