<svg xmlns="http://www.w3.org/2000/svg" xmlns:xlink="http://www.w3.org/1999/xlink" width="334pt" height="142pt" viewBox="0 0 334 142"><g id="graph0" class="graph" transform="scale(1 1) rotate(0) translate(4 138)"><title>PackageManager</title><polygon fill="#fff" stroke="transparent" points="-4 4 -4 -138 330 -138 330 4 -4 4"/><g id="node1" class="node"><title>Node1</title><g id="a_node1"><a><polygon fill="#bfbfbf" stroke="#000" points="0 -57.5 0 -76.5 99 -76.5 99 -57.5 0 -57.5"/><text x="49.5" y="-64.5" font-family="Helvetica,sans-Serif" font-size="10" text-anchor="middle">PackageManager</text></a></g></g><g id="node2" class="node"><title>Node2</title><g id="a_node2"><a target="_top" xlink:href="classAPT_1_1Progress_1_1PackageManagerFancy.xhtml"><polygon fill="#fff" stroke="#000" points="167 -114.5 167 -133.5 294 -133.5 294 -114.5 167 -114.5"/><text x="230.5" y="-121.5" font-family="Helvetica,sans-Serif" font-size="10" text-anchor="middle">PackageManagerFancy</text></a></g></g><g id="edge1" class="edge"><title>Node1-&gt;Node2</title><path fill="none" stroke="#191970" d="M77.45,-80.99C93.75,-88.98 115.15,-98.63 135,-105 146.63,-108.73 159.31,-111.88 171.5,-114.48"/><polygon fill="#191970" stroke="#191970" points="79 -77.85 68.49 -76.52 75.88 -84.12 79 -77.85"/></g><g id="node3" class="node"><title>Node3</title><g id="a_node3"><a target="_top" xlink:href="classAPT_1_1Progress_1_1PackageManagerProgressDeb822Fd.xhtml"><polygon fill="#fff" stroke="#000" points="135 -76.5 135 -95.5 326 -95.5 326 -76.5 135 -76.5"/><text x="230.5" y="-83.5" font-family="Helvetica,sans-Serif" font-size="10" text-anchor="middle">PackageManagerProgressDeb822Fd</text></a></g></g><g id="edge2" class="edge"><title>Node1-&gt;Node3</title><path fill="none" stroke="#191970" d="M109.65,-73.28C119.31,-74.3 129.5,-75.38 139.69,-76.47"/><polygon fill="#191970" stroke="#191970" points="109.73 -69.77 99.41 -72.19 108.99 -76.73 109.73 -69.77"/></g><g id="node4" class="node"><title>Node4</title><g id="a_node4"><a target="_top" xlink:href="classAPT_1_1Progress_1_1PackageManagerProgressFd.xhtml"><polygon fill="#fff" stroke="#000" points="154 -38.5 154 -57.5 307 -57.5 307 -38.5 154 -38.5"/><text x="230.5" y="-45.5" font-family="Helvetica,sans-Serif" font-size="10" text-anchor="middle">PackageManagerProgressFd</text></a></g></g><g id="edge3" class="edge"><title>Node1-&gt;Node4</title><path fill="none" stroke="#191970" d="M109.49,-60.74C123.64,-59.24 138.95,-57.61 153.75,-56.04"/><polygon fill="#191970" stroke="#191970" points="108.99 -57.27 99.41 -61.81 109.73 -64.23 108.99 -57.27"/></g><g id="node5" class="node"><title>Node5</title><g id="a_node5"><a target="_top" xlink:href="classAPT_1_1Progress_1_1PackageManagerText.xhtml"><polygon fill="#fff" stroke="#000" points="171 -.5 171 -19.5 290 -19.5 290 -.5 171 -.5"/><text x="230.5" y="-7.5" font-family="Helvetica,sans-Serif" font-size="10" text-anchor="middle">PackageManagerText</text></a></g></g><g id="edge4" class="edge"><title>Node1-&gt;Node5</title><path fill="none" stroke="#191970" d="M77.45,-53.01C93.75,-45.02 115.15,-35.37 135,-29 146.63,-25.27 159.31,-22.12 171.5,-19.52"/><polygon fill="#191970" stroke="#191970" points="75.88 -49.88 68.49 -57.48 79 -56.15 75.88 -49.88"/></g></g></svg>