<?xml version="1.0" encoding="UTF-8" standalone="no"?>
<!DOCTYPE svg PUBLIC "-//W3C//DTD SVG 1.1//EN"
 "http://www.w3.org/Graphics/SVG/1.1/DTD/svg11.dtd">
<!-- Generated by graphviz version 2.43.0 (0)
 -->
<!-- Title: PackageUniverse::const_iterator Pages: 1 -->
<svg width="566pt" height="122pt"
 viewBox="0.00 0.00 566.00 121.50" xmlns="http://www.w3.org/2000/svg" xmlns:xlink="http://www.w3.org/1999/xlink">
<g id="graph0" class="graph" transform="scale(1 1) rotate(0) translate(4 117.5)">
<title>PackageUniverse::const_iterator</title>
<polygon fill="white" stroke="transparent" points="-4,4 -4,-117.5 562,-117.5 562,4 -4,4"/>
<!-- Node1 -->
<g id="node1" class="node">
<title>Node1</title>
<g id="a_node1"><a xlink:title=" ">
<polygon fill="#bfbfbf" stroke="black" points="426,-39 426,-69 558,-69 558,-39 426,-39"/>
<text text-anchor="start" x="434" y="-57" font-family="Helvetica,sans-Serif" font-size="10.00">PackageUniverse::const</text>
<text text-anchor="middle" x="492" y="-46" font-family="Helvetica,sans-Serif" font-size="10.00">_iterator</text>
</a>
</g>
</g>
<!-- Node2 -->
<g id="node2" class="node">
<title>Node2</title>
<g id="a_node2"><a xlink:href="classAPT_1_1Container__iterator__base.xhtml" target="_top" xlink:title=" ">
<polygon fill="white" stroke="black" points="208,-17 208,-91 390,-91 390,-17 208,-17"/>
<text text-anchor="start" x="216" y="-79" font-family="Helvetica,sans-Serif" font-size="10.00">Container_iterator</text>
<text text-anchor="start" x="216" y="-68" font-family="Helvetica,sans-Serif" font-size="10.00">_base&lt; APT::PackageContainer</text>
<text text-anchor="start" x="216" y="-57" font-family="Helvetica,sans-Serif" font-size="10.00">Interface, PackageUniverse,</text>
<text text-anchor="start" x="216" y="-46" font-family="Helvetica,sans-Serif" font-size="10.00"> PackageUniverse::const_iterator,</text>
<text text-anchor="start" x="216" y="-35" font-family="Helvetica,sans-Serif" font-size="10.00"> pkgCache::PkgIterator, pkgCache</text>
<text text-anchor="middle" x="299" y="-24" font-family="Helvetica,sans-Serif" font-size="10.00">::PkgIterator &gt;</text>
</a>
</g>
</g>
<!-- Node2&#45;&gt;Node1 -->
<g id="edge1" class="edge">
<title>Node2&#45;&gt;Node1</title>
<path fill="none" stroke="midnightblue" d="M400.38,-54C409.06,-54 417.69,-54 425.97,-54"/>
<polygon fill="midnightblue" stroke="midnightblue" points="400.19,-50.5 390.19,-54 400.19,-57.5 400.19,-50.5"/>
</g>
<!-- Node3 -->
<g id="node3" class="node">
<title>Node3</title>
<g id="a_node3"><a xlink:title=" ">
<polygon fill="white" stroke="#bfbfbf" points="0,-61 0,-113 172,-113 172,-61 0,-61"/>
<text text-anchor="start" x="8" y="-101" font-family="Helvetica,sans-Serif" font-size="10.00">iterator&lt; std::iterator</text>
<text text-anchor="start" x="8" y="-90" font-family="Helvetica,sans-Serif" font-size="10.00">_traits&lt; pkgCache::PkgIterator</text>
<text text-anchor="start" x="8" y="-79" font-family="Helvetica,sans-Serif" font-size="10.00"> &gt;::iterator_category, pkgCache</text>
<text text-anchor="middle" x="86" y="-68" font-family="Helvetica,sans-Serif" font-size="10.00">::PkgIterator &gt;</text>
</a>
</g>
</g>
<!-- Node3&#45;&gt;Node2 -->
<g id="edge2" class="edge">
<title>Node3&#45;&gt;Node2</title>
<path fill="none" stroke="midnightblue" d="M182.22,-72.11C190.8,-70.77 199.46,-69.41 207.99,-68.08"/>
<polygon fill="midnightblue" stroke="midnightblue" points="181.55,-68.67 172.21,-73.67 182.63,-75.59 181.55,-68.67"/>
</g>
<!-- Node4 -->
<g id="node4" class="node">
<title>Node4</title>
<g id="a_node4"><a xlink:title=" ">
<polygon fill="white" stroke="#bfbfbf" points="14.5,-0.5 14.5,-41.5 157.5,-41.5 157.5,-0.5 14.5,-0.5"/>
<text text-anchor="start" x="22.5" y="-29.5" font-family="Helvetica,sans-Serif" font-size="10.00">template iterator_base</text>
<text text-anchor="start" x="22.5" y="-18.5" font-family="Helvetica,sans-Serif" font-size="10.00">&lt; PackageUniverse::const</text>
<text text-anchor="middle" x="86" y="-7.5" font-family="Helvetica,sans-Serif" font-size="10.00">_iterator &gt;</text>
</a>
</g>
</g>
<!-- Node4&#45;&gt;Node2 -->
<g id="edge3" class="edge">
<title>Node4&#45;&gt;Node2</title>
<path fill="none" stroke="midnightblue" d="M167.47,-33.59C180.6,-35.64 194.28,-37.78 207.63,-39.87"/>
<polygon fill="midnightblue" stroke="midnightblue" points="167.97,-30.12 157.55,-32.03 166.89,-37.04 167.97,-30.12"/>
</g>
</g>
</svg>
