<svg xmlns="http://www.w3.org/2000/svg" xmlns:xlink="http://www.w3.org/1999/xlink" width="226pt" height="140pt" viewBox="0 0 226 140"><g id="graph0" class="graph" transform="scale(1 1) rotate(0) translate(4 136)"><title>DefaultRootSetFunc2</title><polygon fill="#fff" stroke="transparent" points="-4 4 -4 -136 222 -136 222 4 -4 4"/><g id="node1" class="node"><title>Node1</title><g id="a_node1"><a xlink:title="Returns true for packages matching a regular expression in APT::NeverAutoRemove."><polygon fill="#bfbfbf" stroke="#000" points="42.5 -.5 42.5 -19.5 161.5 -19.5 161.5 -.5 42.5 -.5"/><text x="102" y="-7.5" font-family="Helvetica,sans-Serif" font-size="10" text-anchor="middle">DefaultRootSetFunc2</text></a></g></g><g id="node2" class="node"><title>Node2</title><g id="a_node2"><a target="_top" xlink:href="classpkgDepCache_1_1DefaultRootSetFunc.xhtml" xlink:title="Returns true for packages matching a regular expression in APT::NeverAutoRemove."><polygon fill="#fff" stroke="#000" points="45.5 -56.5 45.5 -75.5 158.5 -75.5 158.5 -56.5 45.5 -56.5"/><text x="102" y="-63.5" font-family="Helvetica,sans-Serif" font-size="10" text-anchor="middle">DefaultRootSetFunc</text></a></g></g><g id="edge1" class="edge"><title>Node2-&gt;Node1</title><path fill="none" stroke="#191970" d="M102,-45.8C102,-36.91 102,-26.78 102,-19.75"/><polygon fill="#191970" stroke="#191970" points="98.5 -46.08 102 -56.08 105.5 -46.08 98.5 -46.08"/></g><g id="node3" class="node"><title>Node3</title><g id="a_node3"><a target="_top" xlink:href="classpkgDepCache_1_1InRootSetFunc.xhtml" xlink:title="An arbitrary predicate on packages."><polygon fill="#fff" stroke="#000" points="0 -112.5 0 -131.5 86 -131.5 86 -112.5 0 -112.5"/><text x="43" y="-119.5" font-family="Helvetica,sans-Serif" font-size="10" text-anchor="middle">InRootSetFunc</text></a></g></g><g id="edge2" class="edge"><title>Node3-&gt;Node2</title><path fill="none" stroke="#191970" d="M59.89,-105.54C70.41,-95.91 83.57,-83.87 92.35,-75.83"/><polygon fill="#191970" stroke="#191970" points="57.49 -102.99 52.48 -112.32 62.22 -108.15 57.49 -102.99"/></g><g id="node4" class="node"><title>Node4</title><g id="a_node4"><a target="_top" xlink:href="classConfiguration_1_1MatchAgainstConfig.xhtml" xlink:title="match a string against a configurable list of patterns"><polygon fill="#fff" stroke="#000" points="104 -112.5 104 -131.5 218 -131.5 218 -112.5 104 -112.5"/><text x="161" y="-119.5" font-family="Helvetica,sans-Serif" font-size="10" text-anchor="middle">MatchAgainstConfig</text></a></g></g><g id="edge3" class="edge"><title>Node4-&gt;Node2</title><path fill="none" stroke="#191970" d="M144.11,-105.54C133.59,-95.91 120.43,-83.87 111.65,-75.83"/><polygon fill="#191970" stroke="#191970" points="141.78 -108.15 151.52 -112.32 146.51 -102.99 141.78 -108.15"/></g></g></svg>