<svg xmlns="http://www.w3.org/2000/svg" xmlns:xlink="http://www.w3.org/1999/xlink" width="548" height="254pt" viewBox="0 0 411 254"><g id="graph0" class="graph" transform="scale(1 1) rotate(0) translate(4 250)"><title>pkgAcqMethod</title><polygon fill="#fff" stroke="transparent" points="-4 4 -4 -250 407 -250 407 4 -4 4"/><g id="node1" class="node"><title>Node1</title><g id="a_node1"><a><polygon fill="#bfbfbf" stroke="#000" points="165 -.5 165 -19.5 254 -19.5 254 -.5 165 -.5"/><text x="209.5" y="-7.5" font-family="Helvetica,sans-Serif" font-size="10" text-anchor="middle">pkgAcqMethod</text></a></g></g><g id="node2" class="node"><title>Node2</title><g id="a_node2"><a target="_top" xlink:href="structpkgAcqMethod_1_1FetchItem.xhtml"><polygon fill="#fff" stroke="#000" points="63 -85 63 -104 128 -104 128 -85 63 -85"/><text x="95.5" y="-92" font-family="Helvetica,sans-Serif" font-size="10" text-anchor="middle">FetchItem</text></a></g></g><g id="edge1" class="edge"><title>Node2-&gt;Node1</title><path fill="none" stroke="#9a32cd" stroke-dasharray="5 2" d="M105.8,-76.04C113.7,-63.94 125.59,-48.23 139.5,-38 150.62,-29.82 164.53,-23.78 177.02,-19.52"/><polygon fill="#9a32cd" stroke="#9a32cd" points="102.66 -74.45 100.36 -84.8 108.61 -78.15 102.66 -74.45"/><text x="167.5" y="-52" font-family="Helvetica,sans-Serif" font-size="10" text-anchor="middle">Queue</text><text x="167.5" y="-41" font-family="Helvetica,sans-Serif" font-size="10" text-anchor="middle">QueueBack</text></g><g id="edge3" class="edge"><title>Node2-&gt;Node2</title><path fill="none" stroke="#9a32cd" stroke-dasharray="5 2" d="M138.14,-101.47C142.91,-100.15 146,-97.83 146,-94.5 146,-89.17 138.1,-86.42 128.04,-86.26"/><polygon fill="#9a32cd" stroke="#9a32cd" points="137.52 -98.02 128.04 -102.74 138.4 -104.96 137.52 -98.02"/><text x="159.5" y="-92" font-family="Helvetica,sans-Serif" font-size="10" text-anchor="middle">Next</text></g><g id="node3" class="node"><title>Node3</title><g id="a_node3"><a target="_top" xlink:href="classHashStringList.xhtml"><polygon fill="#fff" stroke="#000" points="0 -169.5 0 -188.5 87 -188.5 87 -169.5 0 -169.5"/><text x="43.5" y="-176.5" font-family="Helvetica,sans-Serif" font-size="10" text-anchor="middle">HashStringList</text></a></g></g><g id="edge2" class="edge"><title>Node3-&gt;Node2</title><path fill="none" stroke="#9a32cd" stroke-dasharray="5 2" d="M39.91,-159.29C39.01,-149.67 39.47,-138.1 44.5,-129 50.75,-117.69 62.63,-109.55 73.35,-104.13"/><polygon fill="#9a32cd" stroke="#9a32cd" points="36.48 -160.02 41.39 -169.41 43.41 -159.01 36.48 -160.02"/><text x="87" y="-137.5" font-family="Helvetica,sans-Serif" font-size="10" text-anchor="middle">ExpectedHashes</text></g><g id="node4" class="node"><title>Node4</title><g id="a_node4"><a><polygon fill="#fff" stroke="#bfbfbf" points="187.5 -169.5 187.5 -188.5 231.5 -188.5 231.5 -169.5 187.5 -169.5"/><text x="209.5" y="-176.5" font-family="Helvetica,sans-Serif" font-size="10" text-anchor="middle">string</text></a></g></g><g id="edge6" class="edge"><title>Node4-&gt;Node1</title><path fill="none" stroke="#9a32cd" stroke-dasharray="5 2" d="M209.5,-159.41C209.5,-123.47 209.5,-45.73 209.5,-19.69"/><polygon fill="#9a32cd" stroke="#9a32cd" points="206 -159.49 209.5 -169.49 213 -159.49 206 -159.49"/><text x="237.5" y="-103" font-family="Helvetica,sans-Serif" font-size="10" text-anchor="middle">FailReason</text><text x="237.5" y="-92" font-family="Helvetica,sans-Serif" font-size="10" text-anchor="middle">IP</text><text x="237.5" y="-81" font-family="Helvetica,sans-Serif" font-size="10" text-anchor="middle">UsedMirror</text></g><g id="edge4" class="edge"><title>Node4-&gt;Node2</title><path fill="none" stroke="#9a32cd" stroke-dasharray="5 2" d="M178.34,-165.5C169.65,-161.42 160.42,-156.51 152.5,-151 151.15,-150.06 120.08,-119.63 104.4,-104.24"/><polygon fill="#9a32cd" stroke="#9a32cd" points="176.91 -168.7 187.47 -169.58 179.77 -162.31 176.91 -168.7"/><text x="174" y="-143" font-family="Helvetica,sans-Serif" font-size="10" text-anchor="middle">DestFile</text><text x="174" y="-132" font-family="Helvetica,sans-Serif" font-size="10" text-anchor="middle">Uri</text></g><g id="node6" class="node"><title>Node6</title><g id="a_node6"><a><polygon fill="#fff" stroke="#bfbfbf" points="284 -85 284 -104 403 -104 403 -85 284 -85"/><text x="343.5" y="-92" font-family="Helvetica,sans-Serif" font-size="10" text-anchor="middle">vector&lt; std::string &gt;</text></a></g></g><g id="edge8" class="edge"><title>Node4-&gt;Node6</title><path fill="none" stroke="#9a32cd" stroke-dasharray="5 2" d="M232,-164.15C259.84,-147.01 306.38,-118.35 329.54,-104.1"/><polygon fill="#9a32cd" stroke="#9a32cd" points="230.02 -161.26 223.34 -169.48 233.69 -167.22 230.02 -161.26"/><text x="313" y="-137.5" font-family="Helvetica,sans-Serif" font-size="10" text-anchor="middle">elements</text></g><g id="node5" class="node"><title>Node5</title><g id="a_node5"><a><polygon fill="#fff" stroke="#bfbfbf" points="149.5 -226.5 149.5 -245.5 269.5 -245.5 269.5 -226.5 149.5 -226.5"/><text x="209.5" y="-233.5" font-family="Helvetica,sans-Serif" font-size="10" text-anchor="middle">basic_string&lt; Char &gt;</text></a></g></g><g id="edge5" class="edge"><title>Node5-&gt;Node4</title><path fill="none" stroke="#191970" d="M209.5,-216.12C209.5,-206.82 209.5,-196.06 209.5,-188.71"/><polygon fill="#191970" stroke="#191970" points="206 -216.41 209.5 -226.41 213 -216.41 206 -216.41"/></g><g id="edge7" class="edge"><title>Node6-&gt;Node1</title><path fill="none" stroke="#9a32cd" stroke-dasharray="5 2" d="M321,-79.65C293.16,-62.51 246.62,-33.85 223.46,-19.6"/><polygon fill="#9a32cd" stroke="#9a32cd" points="319.31 -82.72 329.66 -84.98 322.98 -76.76 319.31 -82.72"/><text x="314.5" y="-46.5" font-family="Helvetica,sans-Serif" font-size="10" text-anchor="middle">Messages</text></g></g></svg>