<?xml version="1.0" encoding="UTF-8" standalone="no"?>
<!DOCTYPE svg PUBLIC "-//W3C//DTD SVG 1.1//EN"
 "http://www.w3.org/Graphics/SVG/1.1/DTD/svg11.dtd">
<!-- Generated by graphviz version 2.43.0 (0)
 -->
<!-- Title: debDebianSourceDirIndex Pages: 1 -->
<svg width="151pt" height="252pt"
 viewBox="0.00 0.00 151.00 252.00" xmlns="http://www.w3.org/2000/svg" xmlns:xlink="http://www.w3.org/1999/xlink">
<g id="graph0" class="graph" transform="scale(1 1) rotate(0) translate(4 248)">
<title>debDebianSourceDirIndex</title>
<polygon fill="white" stroke="transparent" points="-4,4 -4,-248 147,-248 147,4 -4,4"/>
<!-- Node1 -->
<g id="node1" class="node">
<title>Node1</title>
<g id="a_node1"><a xlink:title=" ">
<polygon fill="#bfbfbf" stroke="black" points="0,-0.5 0,-19.5 143,-19.5 143,-0.5 0,-0.5"/>
<text text-anchor="middle" x="71.5" y="-7.5" font-family="Helvetica,sans-Serif" font-size="10.00">debDebianSourceDirIndex</text>
</a>
</g>
</g>
<!-- Node2 -->
<g id="node2" class="node">
<title>Node2</title>
<g id="a_node2"><a xlink:href="classdebDscFileIndex.xhtml" target="_top" xlink:title=" ">
<polygon fill="white" stroke="black" points="23,-56.5 23,-75.5 120,-75.5 120,-56.5 23,-56.5"/>
<text text-anchor="middle" x="71.5" y="-63.5" font-family="Helvetica,sans-Serif" font-size="10.00">debDscFileIndex</text>
</a>
</g>
</g>
<!-- Node2&#45;&gt;Node1 -->
<g id="edge1" class="edge">
<title>Node2&#45;&gt;Node1</title>
<path fill="none" stroke="midnightblue" d="M71.5,-45.8C71.5,-36.91 71.5,-26.78 71.5,-19.75"/>
<polygon fill="midnightblue" stroke="midnightblue" points="68,-46.08 71.5,-56.08 75,-46.08 68,-46.08"/>
</g>
<!-- Node3 -->
<g id="node3" class="node">
<title>Node3</title>
<g id="a_node3"><a xlink:href="classpkgDebianIndexRealFile.xhtml" target="_top" xlink:title=" ">
<polygon fill="white" stroke="black" points="4,-112.5 4,-131.5 139,-131.5 139,-112.5 4,-112.5"/>
<text text-anchor="middle" x="71.5" y="-119.5" font-family="Helvetica,sans-Serif" font-size="10.00">pkgDebianIndexRealFile</text>
</a>
</g>
</g>
<!-- Node3&#45;&gt;Node2 -->
<g id="edge2" class="edge">
<title>Node3&#45;&gt;Node2</title>
<path fill="none" stroke="midnightblue" d="M71.5,-101.8C71.5,-92.91 71.5,-82.78 71.5,-75.75"/>
<polygon fill="midnightblue" stroke="midnightblue" points="68,-102.08 71.5,-112.08 75,-102.08 68,-102.08"/>
</g>
<!-- Node4 -->
<g id="node4" class="node">
<title>Node4</title>
<g id="a_node4"><a xlink:href="classpkgDebianIndexFile.xhtml" target="_top" xlink:title=" ">
<polygon fill="white" stroke="black" points="15,-168.5 15,-187.5 128,-187.5 128,-168.5 15,-168.5"/>
<text text-anchor="middle" x="71.5" y="-175.5" font-family="Helvetica,sans-Serif" font-size="10.00">pkgDebianIndexFile</text>
</a>
</g>
</g>
<!-- Node4&#45;&gt;Node3 -->
<g id="edge3" class="edge">
<title>Node4&#45;&gt;Node3</title>
<path fill="none" stroke="midnightblue" d="M71.5,-157.8C71.5,-148.91 71.5,-138.78 71.5,-131.75"/>
<polygon fill="midnightblue" stroke="midnightblue" points="68,-158.08 71.5,-168.08 75,-158.08 68,-158.08"/>
</g>
<!-- Node5 -->
<g id="node5" class="node">
<title>Node5</title>
<g id="a_node5"><a xlink:href="classpkgIndexFile.xhtml" target="_top" xlink:title=" ">
<polygon fill="white" stroke="black" points="32,-224.5 32,-243.5 111,-243.5 111,-224.5 32,-224.5"/>
<text text-anchor="middle" x="71.5" y="-231.5" font-family="Helvetica,sans-Serif" font-size="10.00">pkgIndexFile</text>
</a>
</g>
</g>
<!-- Node5&#45;&gt;Node4 -->
<g id="edge4" class="edge">
<title>Node5&#45;&gt;Node4</title>
<path fill="none" stroke="midnightblue" d="M71.5,-213.8C71.5,-204.91 71.5,-194.78 71.5,-187.75"/>
<polygon fill="midnightblue" stroke="midnightblue" points="68,-214.08 71.5,-224.08 75,-214.08 68,-214.08"/>
</g>
</g>
</svg>
