<svg xmlns="http://www.w3.org/2000/svg" xmlns:xlink="http://www.w3.org/1999/xlink" width="1087pt" height="127pt" viewBox="0 0 1087 127"><g id="graph0" class="graph" transform="scale(1 1) rotate(0) translate(4 123)"><title>Private</title><polygon fill="#fff" stroke="transparent" points="-4 4 -4 -123 1083 -123 1083 4 -4 4"/><g id="node1" class="node"><title>Node1</title><g id="a_node1"><a><polygon fill="#bfbfbf" stroke="#000" points="1028 -41.5 1028 -60.5 1079 -60.5 1079 -41.5 1028 -41.5"/><text x="1053.5" y="-48.5" font-family="Helvetica,sans-Serif" font-size="10" text-anchor="middle">Private</text></a></g></g><g id="node2" class="node"><title>Node2</title><g id="a_node2"><a><polygon fill="#fff" stroke="#bfbfbf" points="775 -80 775 -110 912 -110 912 -80 775 -80"/><text x="783" y="-98" font-family="Helvetica,sans-Serif" font-size="10" text-anchor="start">list&lt; pkgAcquire::Item</text><text x="843.5" y="-87" font-family="Helvetica,sans-Serif" font-size="10" text-anchor="middle">::Private::AlternateURI &gt;</text></a></g></g><g id="edge1" class="edge"><title>Node2-&gt;Node1</title><path fill="none" stroke="#9a32cd" stroke-dasharray="5 2" d="M922.28,-83.19C950.13,-78.36 981.64,-72.2 1010,-65 1015.87,-63.51 1022.11,-61.63 1027.95,-59.73"/><polygon fill="#9a32cd" stroke="#9a32cd" points="921.46 -79.78 912.19 -84.91 922.64 -86.68 921.46 -79.78"/><text x="970" y="-85" font-family="Helvetica,sans-Serif" font-size="10" text-anchor="middle">AlternativeURIs</text></g><g id="node3" class="node"><title>Node3</title><g id="a_node3"><a target="_top" xlink:href="structpkgAcquire_1_1Item_1_1Private_1_1AlternateURI.xhtml"><polygon fill="#fff" stroke="#000" points="560 -85.5 560 -104.5 639 -104.5 639 -85.5 560 -85.5"/><text x="599.5" y="-92.5" font-family="Helvetica,sans-Serif" font-size="10" text-anchor="middle">AlternateURI</text></a></g></g><g id="edge2" class="edge"><title>Node3-&gt;Node2</title><path fill="none" stroke="#9a32cd" stroke-dasharray="5 2" d="M649.37,-95C685.41,-95 734.88,-95 774.74,-95"/><polygon fill="#9a32cd" stroke="#9a32cd" points="649.11 -91.5 639.11 -95 649.11 -98.5 649.11 -91.5"/><text x="707" y="-98" font-family="Helvetica,sans-Serif" font-size="10" text-anchor="middle">elements</text></g><g id="node4" class="node"><title>Node4</title><g id="a_node4"><a><polygon fill="#fff" stroke="#bfbfbf" points="286 -42 286 -72 405 -72 405 -42 286 -42"/><text x="294" y="-60" font-family="Helvetica,sans-Serif" font-size="10" text-anchor="start">unordered_map&lt; std</text><text x="345.5" y="-49" font-family="Helvetica,sans-Serif" font-size="10" text-anchor="middle">::string, std::string &gt;</text></a></g></g><g id="edge7" class="edge"><title>Node4-&gt;Node1</title><path fill="none" stroke="#9a32cd" stroke-dasharray="5 2" d="M415.37,-56.41C568.19,-55.12 929.84,-52.04 1027.71,-51.21"/><polygon fill="#9a32cd" stroke="#9a32cd" points="415.15 -52.92 405.18 -56.5 415.21 -59.92 415.15 -52.92"/><text x="707" y="-58" font-family="Helvetica,sans-Serif" font-size="10" text-anchor="middle">CustomFields</text></g><g id="edge3" class="edge"><title>Node4-&gt;Node3</title><path fill="none" stroke="#9a32cd" stroke-dasharray="5 2" d="M415.48,-66.31C452.95,-71.52 500.07,-78.29 542,-85 547.8,-85.93 553.93,-86.96 559.93,-88"/><polygon fill="#9a32cd" stroke="#9a32cd" points="415.56 -62.79 405.18 -64.89 414.6 -69.73 415.56 -62.79"/><text x="482.5" y="-88" font-family="Helvetica,sans-Serif" font-size="10" text-anchor="middle">changefields</text></g><g id="node5" class="node"><title>Node5</title><g id="a_node5"><a><polygon fill="#fff" stroke="#bfbfbf" points="157 -47.5 157 -66.5 201 -66.5 201 -47.5 157 -47.5"/><text x="179" y="-54.5" font-family="Helvetica,sans-Serif" font-size="10" text-anchor="middle">string</text></a></g></g><g id="edge6" class="edge"><title>Node5-&gt;Node3</title><path fill="none" stroke="#9a32cd" stroke-dasharray="5 2" d="M199.17,-72.66C205.18,-76.74 212.06,-80.65 219,-83 355.11,-128.99 398.33,-97.27 542,-96 547.79,-95.95 553.91,-95.87 559.9,-95.77"/><polygon fill="#9a32cd" stroke="#9a32cd" points="201.22 -69.82 191.09 -66.71 197.07 -75.46 201.22 -69.82"/><text x="345.5" y="-111" font-family="Helvetica,sans-Serif" font-size="10" text-anchor="middle">URI</text></g><g id="edge4" class="edge"><title>Node5-&gt;Node4</title><path fill="none" stroke="#9a32cd" stroke-dasharray="5 2" d="M211.45,-57C232.49,-57 260.81,-57 285.92,-57"/><polygon fill="#9a32cd" stroke="#9a32cd" points="211.17 -53.5 201.17 -57 211.17 -60.5 211.17 -53.5"/><text x="243.5" y="-71" font-family="Helvetica,sans-Serif" font-size="10" text-anchor="middle">elements</text><text x="243.5" y="-60" font-family="Helvetica,sans-Serif" font-size="10" text-anchor="middle">keys</text></g><g id="node7" class="node"><title>Node7</title><g id="a_node7"><a><polygon fill="#fff" stroke="#bfbfbf" points="423 -.5 423 -19.5 542 -19.5 542 -.5 423 -.5"/><text x="482.5" y="-7.5" font-family="Helvetica,sans-Serif" font-size="10" text-anchor="middle">vector&lt; std::string &gt;</text></a></g></g><g id="edge9" class="edge"><title>Node5-&gt;Node7</title><path fill="none" stroke="#9a32cd" stroke-dasharray="5 2" d="M210.86,-44.43C213.59,-43.53 216.33,-42.7 219,-42 287.59,-23.92 369,-16.01 422.77,-12.58"/><polygon fill="#9a32cd" stroke="#9a32cd" points="209.42 -41.23 201.18 -47.89 211.77 -47.82 209.42 -41.23"/><text x="243.5" y="-45" font-family="Helvetica,sans-Serif" font-size="10" text-anchor="middle">elements</text></g><g id="node6" class="node"><title>Node6</title><g id="a_node6"><a><polygon fill="#fff" stroke="#bfbfbf" points="0 -47.5 0 -66.5 120 -66.5 120 -47.5 0 -47.5"/><text x="60" y="-54.5" font-family="Helvetica,sans-Serif" font-size="10" text-anchor="middle">basic_string&lt; Char &gt;</text></a></g></g><g id="edge5" class="edge"><title>Node6-&gt;Node5</title><path fill="none" stroke="#191970" d="M130.3,-57C139.91,-57 149.12,-57 156.84,-57"/><polygon fill="#191970" stroke="#191970" points="130.19 -53.5 120.19 -57 130.19 -60.5 130.19 -53.5"/></g><g id="edge8" class="edge"><title>Node7-&gt;Node1</title><path fill="none" stroke="#9a32cd" stroke-dasharray="5 2" d="M552.23,-8.54C584.1,-7.93 622.48,-7.3 657,-7 814.45,-5.64 856.28,-2.93 1010,-37 1015.76,-38.28 1021.85,-40.03 1027.56,-41.86"/><polygon fill="#9a32cd" stroke="#9a32cd" points="552.05 -5.04 542.12 -8.73 552.19 -12.04 552.05 -5.04"/><text x="707" y="-21" font-family="Helvetica,sans-Serif" font-size="10" text-anchor="middle">BadAlternativeSites</text><text x="707" y="-10" font-family="Helvetica,sans-Serif" font-size="10" text-anchor="middle">PastRedirections</text></g></g></svg>