<svg xmlns="http://www.w3.org/2000/svg" xmlns:xlink="http://www.w3.org/1999/xlink" width="240" height="140pt" viewBox="0 0 179.5 140"><g id="graph0" class="graph" transform="scale(1 1) rotate(0) translate(4 136)"><title>pkgPackageManager</title><polygon fill="#fff" stroke="transparent" points="-4 4 -4 -136 175.5 -136 175.5 4 -4 4"/><g id="node1" class="node"><title>Node1</title><g id="a_node1"><a><polygon fill="#bfbfbf" stroke="#000" points="26 -56.5 26 -75.5 143 -75.5 143 -56.5 26 -56.5"/><text x="84.5" y="-63.5" font-family="Helvetica,sans-Serif" font-size="10" text-anchor="middle">pkgPackageManager</text></a></g></g><g id="node3" class="node"><title>Node3</title><g id="a_node3"><a target="_top" xlink:href="classpkgDPkgPM.xhtml"><polygon fill="#fff" stroke="#000" points="0 -.5 0 -19.5 75 -19.5 75 -.5 0 -.5"/><text x="37.5" y="-7.5" font-family="Helvetica,sans-Serif" font-size="10" text-anchor="middle">pkgDPkgPM</text></a></g></g><g id="edge2" class="edge"><title>Node1-&gt;Node3</title><path fill="none" stroke="#191970" d="M70.08,-48.43C61.84,-38.97 51.85,-27.48 45.12,-19.75"/><polygon fill="#191970" stroke="#191970" points="67.53 -50.84 76.74 -56.08 72.81 -46.24 67.53 -50.84"/></g><g id="node4" class="node"><title>Node4</title><g id="a_node4"><a target="_top" xlink:href="classpkgSimulate.xhtml"><polygon fill="#fff" stroke="#000" points="93.5 -.5 93.5 -19.5 171.5 -19.5 171.5 -.5 93.5 -.5"/><text x="132.5" y="-7.5" font-family="Helvetica,sans-Serif" font-size="10" text-anchor="middle">pkgSimulate</text></a></g></g><g id="edge3" class="edge"><title>Node1-&gt;Node4</title><path fill="none" stroke="#191970" d="M99.23,-48.43C107.64,-38.97 117.85,-27.48 124.72,-19.75"/><polygon fill="#191970" stroke="#191970" points="96.45 -46.28 92.43 -56.08 101.69 -50.93 96.45 -46.28"/></g><g id="node2" class="node"><title>Node2</title><g id="a_node2"><a target="_top" xlink:href="classpkgCache_1_1Namespace.xhtml"><polygon fill="#fff" stroke="#000" points="47.5 -112.5 47.5 -131.5 121.5 -131.5 121.5 -112.5 47.5 -112.5"/><text x="84.5" y="-119.5" font-family="Helvetica,sans-Serif" font-size="10" text-anchor="middle">Namespace</text></a></g></g><g id="edge1" class="edge"><title>Node2-&gt;Node1</title><path fill="none" stroke="#006400" d="M84.5,-101.8C84.5,-92.91 84.5,-82.78 84.5,-75.75"/><polygon fill="#006400" stroke="#006400" points="81 -102.08 84.5 -112.08 88 -102.08 81 -102.08"/></g></g></svg>