<svg xmlns="http://www.w3.org/2000/svg" xmlns:xlink="http://www.w3.org/1999/xlink" width="130pt" height="140pt" viewBox="0 0 130 140"><g id="graph0" class="graph" transform="scale(1 1) rotate(0) translate(4 136)"><title>debRecordParser</title><polygon fill="#fff" stroke="transparent" points="-4 4 -4 -136 126 -136 126 4 -4 4"/><g id="node1" class="node"><title>Node1</title><g id="a_node1"><a><polygon fill="#bfbfbf" stroke="#000" points="12 -.5 12 -19.5 110 -19.5 110 -.5 12 -.5"/><text x="61" y="-7.5" font-family="Helvetica,sans-Serif" font-size="10" text-anchor="middle">debRecordParser</text></a></g></g><g id="node2" class="node"><title>Node2</title><g id="a_node2"><a target="_top" xlink:href="classdebRecordParserBase.xhtml"><polygon fill="#fff" stroke="#000" points="0 -56.5 0 -75.5 122 -75.5 122 -56.5 0 -56.5"/><text x="61" y="-63.5" font-family="Helvetica,sans-Serif" font-size="10" text-anchor="middle">debRecordParserBase</text></a></g></g><g id="edge1" class="edge"><title>Node2-&gt;Node1</title><path fill="none" stroke="#191970" d="M61,-45.8C61,-36.91 61,-26.78 61,-19.75"/><polygon fill="#191970" stroke="#191970" points="57.5 -46.08 61 -56.08 64.5 -46.08 57.5 -46.08"/></g><g id="node3" class="node"><title>Node3</title><g id="a_node3"><a><polygon fill="#fff" stroke="#bfbfbf" points="37.5 -112.5 37.5 -131.5 84.5 -131.5 84.5 -112.5 37.5 -112.5"/><text x="61" y="-119.5" font-family="Helvetica,sans-Serif" font-size="10" text-anchor="middle">Parser</text></a></g></g><g id="edge2" class="edge"><title>Node3-&gt;Node2</title><path fill="none" stroke="#191970" d="M61,-101.8C61,-92.91 61,-82.78 61,-75.75"/><polygon fill="#191970" stroke="#191970" points="57.5 -102.08 61 -112.08 64.5 -102.08 57.5 -102.08"/></g></g></svg>