<?xml version="1.0" encoding="UTF-8" standalone="no"?>
<!DOCTYPE svg PUBLIC "-//W3C//DTD SVG 1.1//EN"
 "http://www.w3.org/Graphics/SVG/1.1/DTD/svg11.dtd">
<!-- Generated by graphviz version 2.43.0 (0)
 -->
<!-- Title: edspListParser Pages: 1 -->
<svg width="312pt" height="209pt"
 viewBox="0.00 0.00 312.00 209.00" xmlns="http://www.w3.org/2000/svg" xmlns:xlink="http://www.w3.org/1999/xlink">
<g id="graph0" class="graph" transform="scale(1 1) rotate(0) translate(4 205)">
<title>edspListParser</title>
<polygon fill="white" stroke="transparent" points="-4,4 -4,-205 308,-205 308,4 -4,4"/>
<!-- Node1 -->
<g id="node1" class="node">
<title>Node1</title>
<g id="a_node1"><a xlink:title=" ">
<polygon fill="#bfbfbf" stroke="black" points="130.5,-0.5 130.5,-19.5 217.5,-19.5 217.5,-0.5 130.5,-0.5"/>
<text text-anchor="middle" x="174" y="-7.5" font-family="Helvetica,sans-Serif" font-size="10.00">edspListParser</text>
</a>
</g>
</g>
<!-- Node2 -->
<g id="node2" class="node">
<title>Node2</title>
<g id="a_node2"><a xlink:href="classedspLikeListParser.xhtml" target="_top" xlink:title=" ">
<polygon fill="white" stroke="black" points="120.5,-57.5 120.5,-76.5 227.5,-76.5 227.5,-57.5 120.5,-57.5"/>
<text text-anchor="middle" x="174" y="-64.5" font-family="Helvetica,sans-Serif" font-size="10.00">edspLikeListParser</text>
</a>
</g>
</g>
<!-- Node2&#45;&gt;Node1 -->
<g id="edge1" class="edge">
<title>Node2&#45;&gt;Node1</title>
<path fill="none" stroke="midnightblue" d="M174,-47.12C174,-37.82 174,-27.06 174,-19.71"/>
<polygon fill="midnightblue" stroke="midnightblue" points="170.5,-47.41 174,-57.41 177.5,-47.41 170.5,-47.41"/>
</g>
<!-- Node3 -->
<g id="node3" class="node">
<title>Node3</title>
<g id="a_node3"><a xlink:href="classdebListParser.xhtml" target="_top" xlink:title=" ">
<polygon fill="white" stroke="black" points="133,-114.5 133,-133.5 215,-133.5 215,-114.5 133,-114.5"/>
<text text-anchor="middle" x="174" y="-121.5" font-family="Helvetica,sans-Serif" font-size="10.00">debListParser</text>
</a>
</g>
</g>
<!-- Node3&#45;&gt;Node2 -->
<g id="edge2" class="edge">
<title>Node3&#45;&gt;Node2</title>
<path fill="none" stroke="midnightblue" d="M174,-104.12C174,-94.82 174,-84.06 174,-76.71"/>
<polygon fill="midnightblue" stroke="midnightblue" points="170.5,-104.41 174,-114.41 177.5,-104.41 170.5,-104.41"/>
</g>
<!-- Node4 -->
<g id="node4" class="node">
<title>Node4</title>
<g id="a_node4"><a xlink:href="classpkgCacheListParser.xhtml" target="_top" xlink:title=" ">
<polygon fill="white" stroke="black" points="0,-181.5 0,-200.5 112,-200.5 112,-181.5 0,-181.5"/>
<text text-anchor="middle" x="56" y="-188.5" font-family="Helvetica,sans-Serif" font-size="10.00">pkgCacheListParser</text>
</a>
</g>
</g>
<!-- Node4&#45;&gt;Node3 -->
<g id="edge3" class="edge">
<title>Node4&#45;&gt;Node3</title>
<path fill="none" stroke="midnightblue" d="M80.89,-176.29C104.28,-163.4 138.56,-144.52 158.34,-133.63"/>
<polygon fill="midnightblue" stroke="midnightblue" points="78.98,-173.34 71.91,-181.23 82.36,-179.47 78.98,-173.34"/>
</g>
<!-- Node5 -->
<g id="node5" class="node">
<title>Node5</title>
<g id="a_node5"><a xlink:href="classpkgTagSection.xhtml" target="_top" xlink:title=" ">
<polygon fill="white" stroke="black" points="130.5,-181.5 130.5,-200.5 217.5,-200.5 217.5,-181.5 130.5,-181.5"/>
<text text-anchor="middle" x="174" y="-188.5" font-family="Helvetica,sans-Serif" font-size="10.00">pkgTagSection</text>
</a>
</g>
</g>
<!-- Node5&#45;&gt;Node3 -->
<g id="edge4" class="edge">
<title>Node5&#45;&gt;Node3</title>
<path fill="none" stroke="#9a32cd" stroke-dasharray="5,2" d="M174,-171.04C174,-158.67 174,-143.12 174,-133.63"/>
<polygon fill="#9a32cd" stroke="#9a32cd" points="170.5,-171.23 174,-181.23 177.5,-171.23 170.5,-171.23"/>
<text text-anchor="middle" x="194" y="-155" font-family="Helvetica,sans-Serif" font-size="10.00"> Section</text>
</g>
<!-- Node6 -->
<g id="node6" class="node">
<title>Node6</title>
<g id="a_node6"><a xlink:href="classpkgTagFile.xhtml" target="_top" xlink:title=" ">
<polygon fill="white" stroke="black" points="236,-181.5 236,-200.5 304,-200.5 304,-181.5 236,-181.5"/>
<text text-anchor="middle" x="270" y="-188.5" font-family="Helvetica,sans-Serif" font-size="10.00">pkgTagFile</text>
</a>
</g>
</g>
<!-- Node6&#45;&gt;Node3 -->
<g id="edge5" class="edge">
<title>Node6&#45;&gt;Node3</title>
<path fill="none" stroke="#9a32cd" stroke-dasharray="5,2" d="M250.49,-175.17C240.84,-167.98 228.95,-159.34 218,-152 208.47,-145.61 197.47,-138.86 188.85,-133.71"/>
<polygon fill="#9a32cd" stroke="#9a32cd" points="248.53,-178.07 258.62,-181.28 252.73,-172.47 248.53,-178.07"/>
<text text-anchor="middle" x="244.5" y="-155" font-family="Helvetica,sans-Serif" font-size="10.00"> Tags</text>
</g>
</g>
</svg>
