<?xml version="1.0" encoding="UTF-8" standalone="no"?>
<!DOCTYPE svg PUBLIC "-//W3C//DTD SVG 1.1//EN"
 "http://www.w3.org/Graphics/SVG/1.1/DTD/svg11.dtd">
<!-- Generated by graphviz version 2.43.0 (0)
 -->
<!-- Title: Configuration::MatchAgainstConfig Pages: 1 -->
<svg width="163pt" height="151pt"
 viewBox="0.00 0.00 163.00 151.00" xmlns="http://www.w3.org/2000/svg" xmlns:xlink="http://www.w3.org/1999/xlink">
<g id="graph0" class="graph" transform="scale(1 1) rotate(0) translate(4 147)">
<title>Configuration::MatchAgainstConfig</title>
<polygon fill="white" stroke="transparent" points="-4,4 -4,-147 159,-147 159,4 -4,4"/>
<!-- Node1 -->
<g id="node1" class="node">
<title>Node1</title>
<g id="a_node1"><a xlink:title="match a string against a configurable list of patterns">
<polygon fill="#bfbfbf" stroke="black" points="0,-112.5 0,-142.5 155,-142.5 155,-112.5 0,-112.5"/>
<text text-anchor="start" x="8" y="-130.5" font-family="Helvetica,sans-Serif" font-size="10.00">Configuration::MatchAgainst</text>
<text text-anchor="middle" x="77.5" y="-119.5" font-family="Helvetica,sans-Serif" font-size="10.00">Config</text>
</a>
</g>
</g>
<!-- Node2 -->
<g id="node2" class="node">
<title>Node2</title>
<g id="a_node2"><a xlink:href="classpkgDepCache_1_1DefaultRootSetFunc.xhtml" target="_top" xlink:title="Returns true for packages matching a regular expression in APT::NeverAutoRemove.">
<polygon fill="white" stroke="black" points="21,-56.5 21,-75.5 134,-75.5 134,-56.5 21,-56.5"/>
<text text-anchor="middle" x="77.5" y="-63.5" font-family="Helvetica,sans-Serif" font-size="10.00">DefaultRootSetFunc</text>
</a>
</g>
</g>
<!-- Node1&#45;&gt;Node2 -->
<g id="edge1" class="edge">
<title>Node1&#45;&gt;Node2</title>
<path fill="none" stroke="midnightblue" d="M77.5,-102.29C77.5,-92.86 77.5,-82.65 77.5,-75.66"/>
<polygon fill="midnightblue" stroke="midnightblue" points="74,-102.4 77.5,-112.4 81,-102.4 74,-102.4"/>
</g>
<!-- Node3 -->
<g id="node3" class="node">
<title>Node3</title>
<g id="a_node3"><a xlink:href="classDefaultRootSetFunc2.xhtml" target="_top" xlink:title="Returns true for packages matching a regular expression in APT::NeverAutoRemove.">
<polygon fill="white" stroke="black" points="18,-0.5 18,-19.5 137,-19.5 137,-0.5 18,-0.5"/>
<text text-anchor="middle" x="77.5" y="-7.5" font-family="Helvetica,sans-Serif" font-size="10.00">DefaultRootSetFunc2</text>
</a>
</g>
</g>
<!-- Node2&#45;&gt;Node3 -->
<g id="edge2" class="edge">
<title>Node2&#45;&gt;Node3</title>
<path fill="none" stroke="midnightblue" d="M77.5,-45.8C77.5,-36.91 77.5,-26.78 77.5,-19.75"/>
<polygon fill="midnightblue" stroke="midnightblue" points="74,-46.08 77.5,-56.08 81,-46.08 74,-46.08"/>
</g>
</g>
</svg>
