<?xml version="1.0" encoding="UTF-8" standalone="no"?>
<!DOCTYPE svg PUBLIC "-//W3C//DTD SVG 1.1//EN"
 "http://www.w3.org/Graphics/SVG/1.1/DTD/svg11.dtd">
<!-- Generated by graphviz version 2.43.0 (0)
 -->
<!-- Title: pkgDepCache::DefaultRootSetFunc Pages: 1 -->
<svg width="226pt" height="95pt"
 viewBox="0.00 0.00 226.00 95.00" xmlns="http://www.w3.org/2000/svg" xmlns:xlink="http://www.w3.org/1999/xlink">
<g id="graph0" class="graph" transform="scale(1 1) rotate(0) translate(4 91)">
<title>pkgDepCache::DefaultRootSetFunc</title>
<polygon fill="white" stroke="transparent" points="-4,4 -4,-91 222,-91 222,4 -4,4"/>
<!-- Node1 -->
<g id="node1" class="node">
<title>Node1</title>
<g id="a_node1"><a xlink:title="Returns true for packages matching a regular expression in APT::NeverAutoRemove.">
<polygon fill="#bfbfbf" stroke="black" points="27.5,-0.5 27.5,-30.5 176.5,-30.5 176.5,-0.5 27.5,-0.5"/>
<text text-anchor="start" x="35.5" y="-18.5" font-family="Helvetica,sans-Serif" font-size="10.00">pkgDepCache::DefaultRoot</text>
<text text-anchor="middle" x="102" y="-7.5" font-family="Helvetica,sans-Serif" font-size="10.00">SetFunc</text>
</a>
</g>
</g>
<!-- Node2 -->
<g id="node2" class="node">
<title>Node2</title>
<g id="a_node2"><a xlink:href="classpkgDepCache_1_1InRootSetFunc.xhtml" target="_top" xlink:title="An arbitrary predicate on packages.">
<polygon fill="white" stroke="black" points="0,-67.5 0,-86.5 86,-86.5 86,-67.5 0,-67.5"/>
<text text-anchor="middle" x="43" y="-74.5" font-family="Helvetica,sans-Serif" font-size="10.00">InRootSetFunc</text>
</a>
</g>
</g>
<!-- Node2&#45;&gt;Node1 -->
<g id="edge1" class="edge">
<title>Node2&#45;&gt;Node1</title>
<path fill="none" stroke="midnightblue" d="M58.5,-60.37C67.68,-51.11 79.21,-39.48 88.09,-30.52"/>
<polygon fill="midnightblue" stroke="midnightblue" points="56.01,-57.91 51.45,-67.48 60.98,-62.84 56.01,-57.91"/>
</g>
<!-- Node3 -->
<g id="node3" class="node">
<title>Node3</title>
<g id="a_node3"><a xlink:href="classConfiguration_1_1MatchAgainstConfig.xhtml" target="_top" xlink:title="match a string against a configurable list of patterns">
<polygon fill="white" stroke="black" points="104,-67.5 104,-86.5 218,-86.5 218,-67.5 104,-67.5"/>
<text text-anchor="middle" x="161" y="-74.5" font-family="Helvetica,sans-Serif" font-size="10.00">MatchAgainstConfig</text>
</a>
</g>
</g>
<!-- Node3&#45;&gt;Node1 -->
<g id="edge2" class="edge">
<title>Node3&#45;&gt;Node1</title>
<path fill="none" stroke="midnightblue" d="M145.5,-60.37C136.32,-51.11 124.79,-39.48 115.91,-30.52"/>
<polygon fill="midnightblue" stroke="midnightblue" points="143.02,-62.84 152.55,-67.48 147.99,-57.91 143.02,-62.84"/>
</g>
</g>
</svg>
