<svg xmlns="http://www.w3.org/2000/svg" xmlns:xlink="http://www.w3.org/1999/xlink" width="163pt" height="151pt" viewBox="0 0 163 151"><g id="graph0" class="graph" transform="scale(1 1) rotate(0) translate(4 147)"><title>Configuration::MatchAgainstConfig</title><polygon fill="#fff" stroke="transparent" points="-4 4 -4 -147 159 -147 159 4 -4 4"/><g id="node1" class="node"><title>Node1</title><g id="a_node1"><a xlink:title="match a string against a configurable list of patterns"><polygon fill="#bfbfbf" stroke="#000" points="0 -112.5 0 -142.5 155 -142.5 155 -112.5 0 -112.5"/><text x="8" y="-130.5" font-family="Helvetica,sans-Serif" font-size="10" text-anchor="start">Configuration::MatchAgainst</text><text x="77.5" y="-119.5" font-family="Helvetica,sans-Serif" font-size="10" text-anchor="middle">Config</text></a></g></g><g id="node2" class="node"><title>Node2</title><g id="a_node2"><a target="_top" xlink:href="classpkgDepCache_1_1DefaultRootSetFunc.xhtml" xlink:title="Returns true for packages matching a regular expression in APT::NeverAutoRemove."><polygon fill="#fff" stroke="#000" points="21 -56.5 21 -75.5 134 -75.5 134 -56.5 21 -56.5"/><text x="77.5" y="-63.5" font-family="Helvetica,sans-Serif" font-size="10" text-anchor="middle">DefaultRootSetFunc</text></a></g></g><g id="edge1" class="edge"><title>Node1-&gt;Node2</title><path fill="none" stroke="#191970" d="M77.5,-102.29C77.5,-92.86 77.5,-82.65 77.5,-75.66"/><polygon fill="#191970" stroke="#191970" points="74 -102.4 77.5 -112.4 81 -102.4 74 -102.4"/></g><g id="node3" class="node"><title>Node3</title><g id="a_node3"><a target="_top" xlink:href="classDefaultRootSetFunc2.xhtml" xlink:title="Returns true for packages matching a regular expression in APT::NeverAutoRemove."><polygon fill="#fff" stroke="#000" points="18 -.5 18 -19.5 137 -19.5 137 -.5 18 -.5"/><text x="77.5" y="-7.5" font-family="Helvetica,sans-Serif" font-size="10" text-anchor="middle">DefaultRootSetFunc2</text></a></g></g><g id="edge2" class="edge"><title>Node2-&gt;Node3</title><path fill="none" stroke="#191970" d="M77.5,-45.8C77.5,-36.91 77.5,-26.78 77.5,-19.75"/><polygon fill="#191970" stroke="#191970" points="74 -46.08 77.5 -56.08 81 -46.08 74 -46.08"/></g></g></svg>