<?xml version="1.0" encoding="UTF-8" standalone="no"?>
<!DOCTYPE svg PUBLIC "-//W3C//DTD SVG 1.1//EN"
 "http://www.w3.org/Graphics/SVG/1.1/DTD/svg11.dtd">
<!-- Generated by graphviz version 2.43.0 (0)
 -->
<!-- Title: debPackagesIndex Pages: 1 -->
<svg width="356pt" height="378pt"
 viewBox="0.00 0.00 356.00 378.00" xmlns="http://www.w3.org/2000/svg" xmlns:xlink="http://www.w3.org/1999/xlink">
<g id="graph0" class="graph" transform="scale(1 1) rotate(0) translate(4 374)">
<title>debPackagesIndex</title>
<polygon fill="white" stroke="transparent" points="-4,4 -4,-374 352,-374 352,4 -4,4"/>
<!-- Node1 -->
<g id="node1" class="node">
<title>Node1</title>
<g id="a_node1"><a xlink:title=" ">
<polygon fill="#bfbfbf" stroke="black" points="58,-0.5 58,-19.5 165,-19.5 165,-0.5 58,-0.5"/>
<text text-anchor="middle" x="111.5" y="-7.5" font-family="Helvetica,sans-Serif" font-size="10.00">debPackagesIndex</text>
</a>
</g>
</g>
<!-- Node2 -->
<g id="node2" class="node">
<title>Node2</title>
<g id="a_node2"><a xlink:href="classpkgDebianIndexTargetFile.xhtml" target="_top" xlink:title=" ">
<polygon fill="white" stroke="black" points="40,-57.5 40,-76.5 183,-76.5 183,-57.5 40,-57.5"/>
<text text-anchor="middle" x="111.5" y="-64.5" font-family="Helvetica,sans-Serif" font-size="10.00">pkgDebianIndexTargetFile</text>
</a>
</g>
</g>
<!-- Node2&#45;&gt;Node1 -->
<g id="edge1" class="edge">
<title>Node2&#45;&gt;Node1</title>
<path fill="none" stroke="midnightblue" d="M111.5,-47.12C111.5,-37.82 111.5,-27.06 111.5,-19.71"/>
<polygon fill="midnightblue" stroke="midnightblue" points="108,-47.41 111.5,-57.41 115,-47.41 108,-47.41"/>
</g>
<!-- Node3 -->
<g id="node3" class="node">
<title>Node3</title>
<g id="a_node3"><a xlink:href="classpkgDebianIndexFile.xhtml" target="_top" xlink:title=" ">
<polygon fill="white" stroke="black" points="0,-124.5 0,-143.5 113,-143.5 113,-124.5 0,-124.5"/>
<text text-anchor="middle" x="56.5" y="-131.5" font-family="Helvetica,sans-Serif" font-size="10.00">pkgDebianIndexFile</text>
</a>
</g>
</g>
<!-- Node3&#45;&gt;Node2 -->
<g id="edge2" class="edge">
<title>Node3&#45;&gt;Node2</title>
<path fill="none" stroke="midnightblue" d="M70.66,-116.27C81.38,-103.6 95.68,-86.7 104.2,-76.63"/>
<polygon fill="midnightblue" stroke="midnightblue" points="67.71,-114.34 63.92,-124.23 73.05,-118.86 67.71,-114.34"/>
</g>
<!-- Node4 -->
<g id="node4" class="node">
<title>Node4</title>
<g id="a_node4"><a xlink:href="classpkgIndexFile.xhtml" target="_top" xlink:title=" ">
<polygon fill="white" stroke="black" points="17,-203.5 17,-222.5 96,-222.5 96,-203.5 17,-203.5"/>
<text text-anchor="middle" x="56.5" y="-210.5" font-family="Helvetica,sans-Serif" font-size="10.00">pkgIndexFile</text>
</a>
</g>
</g>
<!-- Node4&#45;&gt;Node3 -->
<g id="edge3" class="edge">
<title>Node4&#45;&gt;Node3</title>
<path fill="none" stroke="midnightblue" d="M56.5,-193.31C56.5,-177.59 56.5,-155.81 56.5,-143.81"/>
<polygon fill="midnightblue" stroke="midnightblue" points="53,-193.47 56.5,-203.47 60,-193.47 53,-193.47"/>
</g>
<!-- Node5 -->
<g id="node5" class="node">
<title>Node5</title>
<g id="a_node5"><a xlink:href="classIndexTarget.xhtml" target="_top" xlink:title="Information about an index file.">
<polygon fill="white" stroke="black" points="131.5,-124.5 131.5,-143.5 205.5,-143.5 205.5,-124.5 131.5,-124.5"/>
<text text-anchor="middle" x="168.5" y="-131.5" font-family="Helvetica,sans-Serif" font-size="10.00">IndexTarget</text>
</a>
</g>
</g>
<!-- Node5&#45;&gt;Node2 -->
<g id="edge4" class="edge">
<title>Node5&#45;&gt;Node2</title>
<path fill="none" stroke="#9a32cd" stroke-dasharray="5,2" d="M154.15,-116.63C143,-103.92 127.98,-86.8 119.07,-76.63"/>
<polygon fill="#9a32cd" stroke="#9a32cd" points="151.59,-119.02 160.81,-124.23 156.85,-114.41 151.59,-119.02"/>
<text text-anchor="middle" x="159.5" y="-98" font-family="Helvetica,sans-Serif" font-size="10.00"> Target</text>
</g>
<!-- Node6 -->
<g id="node6" class="node">
<title>Node6</title>
<g id="a_node6"><a xlink:title=" ">
<polygon fill="white" stroke="#bfbfbf" points="229,-198 229,-228 348,-228 348,-198 229,-198"/>
<text text-anchor="start" x="237" y="-216" font-family="Helvetica,sans-Serif" font-size="10.00">map&lt; std::string, std</text>
<text text-anchor="middle" x="288.5" y="-205" font-family="Helvetica,sans-Serif" font-size="10.00">::string &gt;</text>
</a>
</g>
</g>
<!-- Node6&#45;&gt;Node5 -->
<g id="edge5" class="edge">
<title>Node6&#45;&gt;Node5</title>
<path fill="none" stroke="#9a32cd" stroke-dasharray="5,2" d="M257.88,-192.35C233.33,-176.6 200.05,-155.25 181.82,-143.55"/>
<polygon fill="#9a32cd" stroke="#9a32cd" points="256.18,-195.42 266.49,-197.88 259.96,-189.53 256.18,-195.42"/>
<text text-anchor="middle" x="245" y="-165" font-family="Helvetica,sans-Serif" font-size="10.00"> Options</text>
</g>
<!-- Node7 -->
<g id="node7" class="node">
<title>Node7</title>
<g id="a_node7"><a xlink:title=" ">
<polygon fill="white" stroke="#bfbfbf" points="145.5,-293.5 145.5,-312.5 189.5,-312.5 189.5,-293.5 145.5,-293.5"/>
<text text-anchor="middle" x="167.5" y="-300.5" font-family="Helvetica,sans-Serif" font-size="10.00">string</text>
</a>
</g>
</g>
<!-- Node7&#45;&gt;Node5 -->
<g id="edge8" class="edge">
<title>Node7&#45;&gt;Node5</title>
<path fill="none" stroke="#9a32cd" stroke-dasharray="5,2" d="M165.17,-283.38C162.72,-261.32 159.48,-223.48 161.5,-191 162.55,-174.18 165.35,-154.68 167.07,-143.7"/>
<polygon fill="#9a32cd" stroke="#9a32cd" points="161.7,-283.84 166.35,-293.36 168.65,-283.02 161.7,-283.84"/>
<text text-anchor="middle" x="191" y="-227" font-family="Helvetica,sans-Serif" font-size="10.00"> Description</text>
<text text-anchor="middle" x="191" y="-216" font-family="Helvetica,sans-Serif" font-size="10.00">MetaKey</text>
<text text-anchor="middle" x="191" y="-205" font-family="Helvetica,sans-Serif" font-size="10.00">ShortDesc</text>
<text text-anchor="middle" x="191" y="-194" font-family="Helvetica,sans-Serif" font-size="10.00">URI</text>
</g>
<!-- Node7&#45;&gt;Node6 -->
<g id="edge6" class="edge">
<title>Node7&#45;&gt;Node6</title>
<path fill="none" stroke="#9a32cd" stroke-dasharray="5,2" d="M187.75,-287.27C210.35,-270.83 246.66,-244.43 268.96,-228.21"/>
<polygon fill="#9a32cd" stroke="#9a32cd" points="185.57,-284.53 179.54,-293.24 189.69,-290.19 185.57,-284.53"/>
<text text-anchor="middle" x="256" y="-267" font-family="Helvetica,sans-Serif" font-size="10.00"> elements</text>
<text text-anchor="middle" x="256" y="-256" font-family="Helvetica,sans-Serif" font-size="10.00">keys</text>
</g>
<!-- Node8 -->
<g id="node8" class="node">
<title>Node8</title>
<g id="a_node8"><a xlink:title=" ">
<polygon fill="white" stroke="#bfbfbf" points="107.5,-350.5 107.5,-369.5 227.5,-369.5 227.5,-350.5 107.5,-350.5"/>
<text text-anchor="middle" x="167.5" y="-357.5" font-family="Helvetica,sans-Serif" font-size="10.00">basic_string&lt; Char &gt;</text>
</a>
</g>
</g>
<!-- Node8&#45;&gt;Node7 -->
<g id="edge7" class="edge">
<title>Node8&#45;&gt;Node7</title>
<path fill="none" stroke="midnightblue" d="M167.5,-340.12C167.5,-330.82 167.5,-320.06 167.5,-312.71"/>
<polygon fill="midnightblue" stroke="midnightblue" points="164,-340.41 167.5,-350.41 171,-340.41 164,-340.41"/>
</g>
</g>
</svg>
