<svg xmlns="http://www.w3.org/2000/svg" xmlns:xlink="http://www.w3.org/1999/xlink" width="176" height="209pt" viewBox="0 0 132 209"><g id="graph0" class="graph" transform="scale(1 1) rotate(0) translate(4 205)"><title>PackageManagerText</title><polygon fill="#fff" stroke="transparent" points="-4 4 -4 -205 128 -205 128 4 -4 4"/><g id="node1" class="node"><title>Node1</title><g id="a_node1"><a><polygon fill="#bfbfbf" stroke="#000" points=".5 -.5 .5 -19.5 119.5 -19.5 119.5 -.5 .5 -.5"/><text x="60" y="-7.5" font-family="Helvetica,sans-Serif" font-size="10" text-anchor="middle">PackageManagerText</text></a></g></g><g id="node2" class="node"><title>Node2</title><g id="a_node2"><a target="_top" xlink:href="classAPT_1_1Progress_1_1PackageManager.xhtml"><polygon fill="#fff" stroke="#000" points="10.5 -57.5 10.5 -76.5 109.5 -76.5 109.5 -57.5 10.5 -57.5"/><text x="60" y="-64.5" font-family="Helvetica,sans-Serif" font-size="10" text-anchor="middle">PackageManager</text></a></g></g><g id="edge1" class="edge"><title>Node2-&gt;Node1</title><path fill="none" stroke="#191970" d="M60,-47.12C60,-37.82 60,-27.06 60,-19.71"/><polygon fill="#191970" stroke="#191970" points="56.5 -47.41 60 -57.41 63.5 -47.41 56.5 -47.41"/></g><g id="node3" class="node"><title>Node3</title><g id="a_node3"><a><polygon fill="#fff" stroke="#bfbfbf" points="38 -124.5 38 -143.5 82 -143.5 82 -124.5 38 -124.5"/><text x="60" y="-131.5" font-family="Helvetica,sans-Serif" font-size="10" text-anchor="middle">string</text></a></g></g><g id="edge2" class="edge"><title>Node3-&gt;Node2</title><path fill="none" stroke="#9a32cd" stroke-dasharray="5 2" d="M60,-114.04C60,-101.67 60,-86.12 60,-76.63"/><polygon fill="#9a32cd" stroke="#9a32cd" points="56.5 -114.23 60 -124.23 63.5 -114.23 56.5 -114.23"/><text x="92" y="-98" font-family="Helvetica,sans-Serif" font-size="10" text-anchor="middle">progress_str</text></g><g id="node4" class="node"><title>Node4</title><g id="a_node4"><a><polygon fill="#fff" stroke="#bfbfbf" points="0 -181.5 0 -200.5 120 -200.5 120 -181.5 0 -181.5"/><text x="60" y="-188.5" font-family="Helvetica,sans-Serif" font-size="10" text-anchor="middle">basic_string&lt; Char &gt;</text></a></g></g><g id="edge3" class="edge"><title>Node4-&gt;Node3</title><path fill="none" stroke="#191970" d="M60,-171.12C60,-161.82 60,-151.06 60,-143.71"/><polygon fill="#191970" stroke="#191970" points="56.5 -171.41 60 -181.41 63.5 -171.41 56.5 -171.41"/></g></g></svg>