<svg xmlns="http://www.w3.org/2000/svg" xmlns:xlink="http://www.w3.org/1999/xlink" width="204" height="152pt" viewBox="0 0 153 152"><g id="graph0" class="graph" transform="scale(1 1) rotate(0) translate(4 148)"><title>pkgAcqChangelog::Private</title><polygon fill="#fff" stroke="transparent" points="-4 4 -4 -148 149 -148 149 4 -4 4"/><g id="node1" class="node"><title>Node1</title><g id="a_node1"><a><polygon fill="#bfbfbf" stroke="#000" points="0 -.5 0 -19.5 145 -19.5 145 -.5 0 -.5"/><text x="72.5" y="-7.5" font-family="Helvetica,sans-Serif" font-size="10" text-anchor="middle">pkgAcqChangelog::Private</text></a></g></g><g id="node2" class="node"><title>Node2</title><g id="a_node2"><a><polygon fill="#fff" stroke="#bfbfbf" points="50.5 -67.5 50.5 -86.5 94.5 -86.5 94.5 -67.5 50.5 -67.5"/><text x="72.5" y="-74.5" font-family="Helvetica,sans-Serif" font-size="10" text-anchor="middle">string</text></a></g></g><g id="edge1" class="edge"><title>Node2-&gt;Node1</title><path fill="none" stroke="#9a32cd" stroke-dasharray="5 2" d="M72.5,-57.04C72.5,-44.67 72.5,-29.12 72.5,-19.63"/><polygon fill="#9a32cd" stroke="#9a32cd" points="69 -57.23 72.5 -67.23 76 -57.23 69 -57.23"/><text x="94.5" y="-41" font-family="Helvetica,sans-Serif" font-size="10" text-anchor="middle">FinalFile</text></g><g id="node3" class="node"><title>Node3</title><g id="a_node3"><a><polygon fill="#fff" stroke="#bfbfbf" points="12.5 -124.5 12.5 -143.5 132.5 -143.5 132.5 -124.5 12.5 -124.5"/><text x="72.5" y="-131.5" font-family="Helvetica,sans-Serif" font-size="10" text-anchor="middle">basic_string&lt; Char &gt;</text></a></g></g><g id="edge2" class="edge"><title>Node3-&gt;Node2</title><path fill="none" stroke="#191970" d="M72.5,-114.12C72.5,-104.82 72.5,-94.06 72.5,-86.71"/><polygon fill="#191970" stroke="#191970" points="69 -114.41 72.5 -124.41 76 -114.41 69 -114.41"/></g></g></svg>