<svg xmlns="http://www.w3.org/2000/svg" xmlns:xlink="http://www.w3.org/1999/xlink" width="332" height="254pt" viewBox="0 0 248.5 254"><g id="graph0" class="graph" transform="scale(1 1) rotate(0) translate(4 250)"><title>IndexTarget</title><polygon fill="#fff" stroke="transparent" points="-4 4 -4 -250 244.5 -250 244.5 4 -4 4"/><g id="node1" class="node"><title>Node1</title><g id="a_node1"><a xlink:title="Information about an index file."><polygon fill="#bfbfbf" stroke="#000" points="23 -.5 23 -19.5 97 -19.5 97 -.5 23 -.5"/><text x="60" y="-7.5" font-family="Helvetica,sans-Serif" font-size="10" text-anchor="middle">IndexTarget</text></a></g></g><g id="node2" class="node"><title>Node2</title><g id="a_node2"><a><polygon fill="#fff" stroke="#bfbfbf" points="121.5 -74 121.5 -104 240.5 -104 240.5 -74 121.5 -74"/><text x="129.5" y="-92" font-family="Helvetica,sans-Serif" font-size="10" text-anchor="start">map&lt; std::string, std</text><text x="181" y="-81" font-family="Helvetica,sans-Serif" font-size="10" text-anchor="middle">::string &gt;</text></a></g></g><g id="edge1" class="edge"><title>Node2-&gt;Node1</title><path fill="none" stroke="#9a32cd" stroke-dasharray="5 2" d="M150.13,-68.35C125.37,-52.6 91.82,-31.25 73.43,-19.55"/><polygon fill="#9a32cd" stroke="#9a32cd" points="148.49 -71.46 158.81 -73.88 152.25 -65.56 148.49 -71.46"/><text x="136.5" y="-41" font-family="Helvetica,sans-Serif" font-size="10" text-anchor="middle">Options</text></g><g id="node3" class="node"><title>Node3</title><g id="a_node3"><a><polygon fill="#fff" stroke="#bfbfbf" points="38 -169.5 38 -188.5 82 -188.5 82 -169.5 38 -169.5"/><text x="60" y="-176.5" font-family="Helvetica,sans-Serif" font-size="10" text-anchor="middle">string</text></a></g></g><g id="edge4" class="edge"><title>Node3-&gt;Node1</title><path fill="none" stroke="#9a32cd" stroke-dasharray="5 2" d="M57.85,-159.03C56.44,-145.63 54.73,-127.24 54,-111 53.13,-91.46 52.96,-86.53 54,-67 54.9,-50.21 57.3,-30.7 58.78,-19.71"/><polygon fill="#9a32cd" stroke="#9a32cd" points="54.41 -159.78 58.98 -169.34 61.37 -159.02 54.41 -159.78"/><text x="83.5" y="-103" font-family="Helvetica,sans-Serif" font-size="10" text-anchor="middle">Description</text><text x="83.5" y="-92" font-family="Helvetica,sans-Serif" font-size="10" text-anchor="middle">MetaKey</text><text x="83.5" y="-81" font-family="Helvetica,sans-Serif" font-size="10" text-anchor="middle">ShortDesc</text><text x="83.5" y="-70" font-family="Helvetica,sans-Serif" font-size="10" text-anchor="middle">URI</text></g><g id="edge2" class="edge"><title>Node3-&gt;Node2</title><path fill="none" stroke="#9a32cd" stroke-dasharray="5 2" d="M80.25,-163.27C102.85,-146.83 139.16,-120.43 161.46,-104.21"/><polygon fill="#9a32cd" stroke="#9a32cd" points="78.07 -160.53 72.04 -169.24 82.19 -166.19 78.07 -160.53"/><text x="148.5" y="-143" font-family="Helvetica,sans-Serif" font-size="10" text-anchor="middle">elements</text><text x="148.5" y="-132" font-family="Helvetica,sans-Serif" font-size="10" text-anchor="middle">keys</text></g><g id="node4" class="node"><title>Node4</title><g id="a_node4"><a><polygon fill="#fff" stroke="#bfbfbf" points="0 -226.5 0 -245.5 120 -245.5 120 -226.5 0 -226.5"/><text x="60" y="-233.5" font-family="Helvetica,sans-Serif" font-size="10" text-anchor="middle">basic_string&lt; Char &gt;</text></a></g></g><g id="edge3" class="edge"><title>Node4-&gt;Node3</title><path fill="none" stroke="#191970" d="M60,-216.12C60,-206.82 60,-196.06 60,-188.71"/><polygon fill="#191970" stroke="#191970" points="56.5 -216.41 60 -226.41 63.5 -216.41 56.5 -216.41"/></g></g></svg>