<svg xmlns="http://www.w3.org/2000/svg" xmlns:xlink="http://www.w3.org/1999/xlink" width="340pt" height="428" viewBox="0 0 339.65 321"><g id="graph0" class="graph" transform="scale(1 1) rotate(0) translate(4 317)"><title>FileFdPrivate</title><polygon fill="#fff" stroke="transparent" points="-4 4 -4 -317 335.65 -317 335.65 4 -4 4"/><g id="node1" class="node"><title>Node1</title><g id="a_node1"><a><polygon fill="#bfbfbf" stroke="#000" points="162.15 -.5 162.15 -19.5 242.15 -19.5 242.15 -.5 162.15 -.5"/><text x="202.15" y="-7.5" font-family="Helvetica,sans-Serif" font-size="10" text-anchor="middle">FileFdPrivate</text></a></g></g><g id="node2" class="node"><title>Node2</title><g id="a_node2"><a target="_top" xlink:href="structAPT_1_1Configuration_1_1Compressor.xhtml" xlink:title="Representation of supported compressors."><polygon fill="#fff" stroke="#000" points="62.65 -67.5 62.65 -86.5 137.65 -86.5 137.65 -67.5 62.65 -67.5"/><text x="100.15" y="-74.5" font-family="Helvetica,sans-Serif" font-size="10" text-anchor="middle">Compressor</text></a></g></g><g id="edge1" class="edge"><title>Node2-&gt;Node1</title><path fill="none" stroke="#9a32cd" stroke-dasharray="5 2" d="M109.56,-58.27C114.08,-51.16 120.06,-43.38 127.15,-38 138.17,-29.63 152.03,-23.68 164.82,-19.54"/><polygon fill="#9a32cd" stroke="#9a32cd" points="106.33 -56.87 104.34 -67.28 112.38 -60.38 106.33 -56.87"/><text x="157.65" y="-41" font-family="Helvetica,sans-Serif" font-size="10" text-anchor="middle">compressor</text></g><g id="node3" class="node"><title>Node3</title><g id="a_node3"><a><polygon fill="#fff" stroke="#bfbfbf" points="101.15 -236.5 101.15 -255.5 145.15 -255.5 145.15 -236.5 101.15 -236.5"/><text x="123.15" y="-243.5" font-family="Helvetica,sans-Serif" font-size="10" text-anchor="middle">string</text></a></g></g><g id="edge2" class="edge"><title>Node3-&gt;Node2</title><path fill="none" stroke="#9a32cd" stroke-dasharray="5 2" d="M91.1,-236.67C62.89,-227.45 23.52,-209.55 5.15,-178 -17.8,-138.58 46.01,-102.45 80.17,-86.55"/><polygon fill="#9a32cd" stroke="#9a32cd" points="90.35 -240.1 100.94 -239.69 92.4 -233.41 90.35 -240.1"/><text x="29.65" y="-170" font-family="Helvetica,sans-Serif" font-size="10" text-anchor="middle">Binary</text><text x="29.65" y="-159" font-family="Helvetica,sans-Serif" font-size="10" text-anchor="middle">Extension</text><text x="29.65" y="-148" font-family="Helvetica,sans-Serif" font-size="10" text-anchor="middle">Name</text></g><g id="node5" class="node"><title>Node5</title><g id="a_node5"><a><polygon fill="#fff" stroke="#bfbfbf" points="63.65 -152 63.65 -171 182.65 -171 182.65 -152 63.65 -152"/><text x="123.15" y="-159" font-family="Helvetica,sans-Serif" font-size="10" text-anchor="middle">vector&lt; std::string &gt;</text></a></g></g><g id="edge5" class="edge"><title>Node3-&gt;Node5</title><path fill="none" stroke="#9a32cd" stroke-dasharray="5 2" d="M123.15,-226.43C123.15,-209.13 123.15,-184.11 123.15,-171.1"/><polygon fill="#9a32cd" stroke="#9a32cd" points="119.65 -226.48 123.15 -236.48 126.65 -226.48 119.65 -226.48"/><text x="147.65" y="-204.5" font-family="Helvetica,sans-Serif" font-size="10" text-anchor="middle">elements</text></g><g id="node7" class="node"><title>Node7</title><g id="a_node7"><a target="_top" xlink:href="classFileFd.xhtml"><polygon fill="#fff" stroke="#000" points="188.15 -106.5 188.15 -125.5 234.15 -125.5 234.15 -106.5 188.15 -106.5"/><text x="211.15" y="-113.5" font-family="Helvetica,sans-Serif" font-size="10" text-anchor="middle">FileFd</text></a></g></g><g id="edge8" class="edge"><title>Node3-&gt;Node7</title><path fill="none" stroke="#9a32cd" stroke-dasharray="5 2" d="M154.43,-233.7C162.3,-229.7 170.2,-224.52 176.15,-218 201.06,-190.73 208.39,-144.83 210.42,-125.74"/><polygon fill="#9a32cd" stroke="#9a32cd" points="152.96 -230.53 145.32 -237.87 155.87 -236.89 152.96 -230.53"/><text x="239.65" y="-210" font-family="Helvetica,sans-Serif" font-size="10" text-anchor="middle">FileName</text><text x="239.65" y="-199" font-family="Helvetica,sans-Serif" font-size="10" text-anchor="middle">TemporaryFileName</text></g><g id="node4" class="node"><title>Node4</title><g id="a_node4"><a><polygon fill="#fff" stroke="#bfbfbf" points="63.15 -293.5 63.15 -312.5 183.15 -312.5 183.15 -293.5 63.15 -293.5"/><text x="123.15" y="-300.5" font-family="Helvetica,sans-Serif" font-size="10" text-anchor="middle">basic_string&lt; Char &gt;</text></a></g></g><g id="edge3" class="edge"><title>Node4-&gt;Node3</title><path fill="none" stroke="#191970" d="M123.15,-283.12C123.15,-273.82 123.15,-263.06 123.15,-255.71"/><polygon fill="#191970" stroke="#191970" points="119.65 -283.41 123.15 -293.41 126.65 -283.41 119.65 -283.41"/></g><g id="edge4" class="edge"><title>Node5-&gt;Node2</title><path fill="none" stroke="#9a32cd" stroke-dasharray="5 2" d="M106.41,-144.23C102.25,-139.15 98.35,-133.23 96.15,-127 91.38,-113.48 94.59,-96.6 97.37,-86.6"/><polygon fill="#9a32cd" stroke="#9a32cd" points="104.09 -146.88 113.42 -151.9 109.26 -142.16 104.09 -146.88"/><text x="137.65" y="-119" font-family="Helvetica,sans-Serif" font-size="10" text-anchor="middle">CompressArgs</text><text x="137.65" y="-108" font-family="Helvetica,sans-Serif" font-size="10" text-anchor="middle">UncompressArgs</text></g><g id="node6" class="node"><title>Node6</title><g id="a_node6"><a target="_top" xlink:href="structsimple__buffer.xhtml"><polygon fill="#fff" stroke="#000" points="248.65 -67.5 248.65 -86.5 331.65 -86.5 331.65 -67.5 248.65 -67.5"/><text x="290.15" y="-74.5" font-family="Helvetica,sans-Serif" font-size="10" text-anchor="middle">simple_buffer</text></a></g></g><g id="edge6" class="edge"><title>Node6-&gt;Node1</title><path fill="none" stroke="#9a32cd" stroke-dasharray="5 2" d="M269.94,-61.07C252.57,-48.24 228.13,-30.19 213.83,-19.63"/><polygon fill="#9a32cd" stroke="#9a32cd" points="268.16 -64.11 278.28 -67.23 272.32 -58.48 268.16 -64.11"/><text x="267.15" y="-41" font-family="Helvetica,sans-Serif" font-size="10" text-anchor="middle">buffer</text></g><g id="edge7" class="edge"><title>Node7-&gt;Node1</title><path fill="none" stroke="#9a32cd" stroke-dasharray="5 2" d="M209.55,-96.43C207.58,-73.77 204.35,-36.41 202.9,-19.63"/><polygon fill="#9a32cd" stroke="#9a32cd" points="206.07 -96.83 210.42 -106.49 213.04 -96.22 206.07 -96.83"/><text x="222.15" y="-74.5" font-family="Helvetica,sans-Serif" font-size="10" text-anchor="middle">filefd</text></g></g></svg>