<svg xmlns="http://www.w3.org/2000/svg" xmlns:xlink="http://www.w3.org/1999/xlink" width="149pt" height="142pt" viewBox="0 0 148.5 142"><g id="graph0" class="graph" transform="scale(1 1) rotate(0) translate(4 138)"><title>debSLTypeDebSrc</title><polygon fill="#fff" stroke="transparent" points="-4 4 -4 -138 144.5 -138 144.5 4 -4 4"/><g id="node1" class="node"><title>Node1</title><g id="a_node1"><a><polygon fill="#bfbfbf" stroke="#000" points="0 -.5 0 -19.5 102 -19.5 102 -.5 0 -.5"/><text x="51" y="-7.5" font-family="Helvetica,sans-Serif" font-size="10" text-anchor="middle">debSLTypeDebSrc</text></a></g></g><g id="node2" class="node"><title>Node2</title><g id="a_node2"><a target="_top" xlink:href="classdebSLTypeDebian.xhtml"><polygon fill="#fff" stroke="#000" points="0 -57.5 0 -76.5 102 -76.5 102 -57.5 0 -57.5"/><text x="51" y="-64.5" font-family="Helvetica,sans-Serif" font-size="10" text-anchor="middle">debSLTypeDebian</text></a></g></g><g id="edge1" class="edge"><title>Node2-&gt;Node1</title><path fill="none" stroke="#191970" d="M51,-47.12C51,-37.82 51,-27.06 51,-19.71"/><polygon fill="#191970" stroke="#191970" points="47.5 -47.41 51 -57.41 54.5 -47.41 47.5 -47.41"/></g><g id="node3" class="node"><title>Node3</title><g id="a_node3"><a target="_top" xlink:href="classpkgSourceList_1_1Type.xhtml"><polygon fill="#fff" stroke="#000" points="31.5 -114.5 31.5 -133.5 70.5 -133.5 70.5 -114.5 31.5 -114.5"/><text x="51" y="-121.5" font-family="Helvetica,sans-Serif" font-size="10" text-anchor="middle">Type</text></a></g></g><g id="edge2" class="edge"><title>Node3-&gt;Node2</title><path fill="none" stroke="#191970" d="M51,-104.12C51,-94.82 51,-84.06 51,-76.71"/><polygon fill="#191970" stroke="#191970" points="47.5 -104.41 51 -114.41 54.5 -104.41 47.5 -104.41"/></g><g id="edge3" class="edge"><title>Node3-&gt;Node3</title><path fill="none" stroke="#9a32cd" stroke-dasharray="5 2" d="M80.83,-128.79C85.4,-128.06 88.5,-126.47 88.5,-124 88.5,-119.95 80.14,-118.25 70.68,-118.88"/><polygon fill="#9a32cd" stroke="#9a32cd" points="80.56 -125.3 70.68 -129.12 80.79 -132.3 80.56 -125.3"/><text x="114.5" y="-121.5" font-family="Helvetica,sans-Serif" font-size="10" text-anchor="middle">GlobalList</text></g></g></svg>