<?xml version="1.0" encoding="UTF-8" standalone="no"?>
<!DOCTYPE svg PUBLIC "-//W3C//DTD SVG 1.1//EN"
 "http://www.w3.org/Graphics/SVG/1.1/DTD/svg11.dtd">
<!-- Generated by graphviz version 2.43.0 (0)
 -->
<!-- Title: pkgDebianIndexRealFile Pages: 1 -->
<!--zoomable 199 -->
<svg id="main" version="1.1" xmlns="http://www.w3.org/2000/svg" xmlns:xlink="http://www.w3.org/1999/xlink" xml:space="preserve" onload="init(evt)">
<style type="text/css"><![CDATA[
.edge:hover path { stroke: red; }
.edge:hover polygon { stroke: red; fill: red; }
]]></style>
<script type="text/javascript"><![CDATA[
var edges = document.getElementsByTagName('g');
if (edges && edges.length) {
  for (var i=0;i<edges.length;i++) {
    if (edges[i].id.substr(0,4)=='edge') {
      edges[i].setAttribute('class','edge');
    }
  }
}
]]></script>
        <defs>
                <circle id="rim" cx="0" cy="0" r="7"/>
                <circle id="rim2" cx="0" cy="0" r="3.5"/>
                <g id="zoomPlus">
                        <use xlink:href="#rim" fill="#404040">
                                <set attributeName="fill" to="#808080" begin="zoomplus.mouseover" end="zoomplus.mouseout"/>
                        </use>
                        <path d="M-4,0h8M0,-4v8" fill="none" stroke="white" stroke-width="1.5" pointer-events="none"/>
                </g>
                <g id="zoomMin">
                        <use xlink:href="#rim" fill="#404040">
                                <set attributeName="fill" to="#808080" begin="zoomminus.mouseover" end="zoomminus.mouseout"/>
                        </use>
                        <path d="M-4,0h8" fill="none" stroke="white" stroke-width="1.5" pointer-events="none"/>
                </g>
                <g id="dirArrow">
                        <path fill="none" stroke="white" stroke-width="1.5" d="M0,-3.0v7 M-2.5,-0.5L0,-3.0L2.5,-0.5"/>
                </g>
               <g id="resetDef">
                       <use xlink:href="#rim2" fill="#404040">
                               <set attributeName="fill" to="#808080" begin="reset.mouseover" end="reset.mouseout"/>
                       </use>
               </g>
        </defs>

<script type="text/javascript">
var viewWidth = 752;
var viewHeight = 199;
var sectionId = 'dynsection-0';
</script>
<script xlink:href="svgpan.js"/>
<svg id="graph" class="graph">
<g id="viewport">
<title>pkgDebianIndexRealFile</title>
<polygon fill="white" stroke="transparent" points="-4,4 -4,-195 748,-195 748,4 -4,4"/>
<!-- Node1 -->
<g id="node1" class="node">
<title>Node1</title>
<g id="a_node1"><a xlink:title=" ">
<polygon fill="#bfbfbf" stroke="black" points="264,-95.5 264,-114.5 399,-114.5 399,-95.5 264,-95.5"/>
<text text-anchor="middle" x="331.5" y="-102.5" font-family="Helvetica,sans-Serif" font-size="10.00">pkgDebianIndexRealFile</text>
</a>
</g>
</g>
<!-- Node4 -->
<g id="node4" class="node">
<title>Node4</title>
<g id="a_node4"><a xlink:href="classdebDebPkgFileIndex.xhtml" target="_top" xlink:title=" ">
<polygon fill="white" stroke="black" points="442,-171.5 442,-190.5 558,-190.5 558,-171.5 442,-171.5"/>
<text text-anchor="middle" x="500" y="-178.5" font-family="Helvetica,sans-Serif" font-size="10.00">debDebPkgFileIndex</text>
</a>
</g>
</g>
<!-- Node1&#45;&gt;Node4 -->
<g id="edge3" class="edge">
<title>Node1&#45;&gt;Node4</title>
<path fill="none" stroke="midnightblue" d="M355.83,-119.91C376.13,-132.42 406.68,-150.09 435,-162 443.44,-165.55 452.77,-168.72 461.63,-171.4"/>
<polygon fill="midnightblue" stroke="midnightblue" points="357.6,-116.89 347.26,-114.57 353.89,-122.83 357.6,-116.89"/>
</g>
<!-- Node5 -->
<g id="node5" class="node">
<title>Node5</title>
<g id="a_node5"><a xlink:href="classdebDscFileIndex.xhtml" target="_top" xlink:title=" ">
<polygon fill="white" stroke="black" points="451.5,-133.5 451.5,-152.5 548.5,-152.5 548.5,-133.5 451.5,-133.5"/>
<text text-anchor="middle" x="500" y="-140.5" font-family="Helvetica,sans-Serif" font-size="10.00">debDscFileIndex</text>
</a>
</g>
</g>
<!-- Node1&#45;&gt;Node5 -->
<g id="edge4" class="edge">
<title>Node1&#45;&gt;Node5</title>
<path fill="none" stroke="midnightblue" d="M384.31,-116.82C407.78,-122.18 435.17,-128.43 457.29,-133.48"/>
<polygon fill="midnightblue" stroke="midnightblue" points="385.04,-113.4 374.51,-114.59 383.49,-120.23 385.04,-113.4"/>
</g>
<!-- Node7 -->
<g id="node7" class="node">
<title>Node7</title>
<g id="a_node7"><a xlink:href="classdebStatusIndex.xhtml" target="_top" xlink:title=" ">
<polygon fill="white" stroke="black" points="454,-95.5 454,-114.5 546,-114.5 546,-95.5 454,-95.5"/>
<text text-anchor="middle" x="500" y="-102.5" font-family="Helvetica,sans-Serif" font-size="10.00">debStatusIndex</text>
</a>
</g>
</g>
<!-- Node1&#45;&gt;Node7 -->
<g id="edge6" class="edge">
<title>Node1&#45;&gt;Node7</title>
<path fill="none" stroke="midnightblue" d="M409.63,-105C424.71,-105 440.06,-105 453.69,-105"/>
<polygon fill="midnightblue" stroke="midnightblue" points="409.26,-101.5 399.26,-105 409.26,-108.5 409.26,-101.5"/>
</g>
<!-- Node8 -->
<g id="node8" class="node">
<title>Node8</title>
<g id="a_node8"><a xlink:href="classdebStringPackageIndex.xhtml" target="_top" xlink:title=" ">
<polygon fill="white" stroke="black" points="435,-57.5 435,-76.5 565,-76.5 565,-57.5 435,-57.5"/>
<text text-anchor="middle" x="500" y="-64.5" font-family="Helvetica,sans-Serif" font-size="10.00">debStringPackageIndex</text>
</a>
</g>
</g>
<!-- Node1&#45;&gt;Node8 -->
<g id="edge7" class="edge">
<title>Node1&#45;&gt;Node8</title>
<path fill="none" stroke="midnightblue" d="M384.31,-93.18C407.78,-87.82 435.17,-81.57 457.29,-76.52"/>
<polygon fill="midnightblue" stroke="midnightblue" points="383.49,-89.77 374.51,-95.41 385.04,-96.6 383.49,-89.77"/>
</g>
<!-- Node9 -->
<g id="node9" class="node">
<title>Node9</title>
<g id="a_node9"><a xlink:href="classedspLikeIndex.xhtml" target="_top" xlink:title=" ">
<polygon fill="white" stroke="black" points="457,-19.5 457,-38.5 543,-38.5 543,-19.5 457,-19.5"/>
<text text-anchor="middle" x="500" y="-26.5" font-family="Helvetica,sans-Serif" font-size="10.00">edspLikeIndex</text>
</a>
</g>
</g>
<!-- Node1&#45;&gt;Node9 -->
<g id="edge8" class="edge">
<title>Node1&#45;&gt;Node9</title>
<path fill="none" stroke="midnightblue" d="M355.83,-90.09C376.13,-77.58 406.68,-59.91 435,-48 443.44,-44.45 452.77,-41.28 461.63,-38.6"/>
<polygon fill="midnightblue" stroke="midnightblue" points="353.89,-87.17 347.26,-95.43 357.6,-93.11 353.89,-87.17"/>
</g>
<!-- Node2 -->
<g id="node2" class="node">
<title>Node2</title>
<g id="a_node2"><a xlink:href="classpkgDebianIndexFile.xhtml" target="_top" xlink:title=" ">
<polygon fill="white" stroke="black" points="115,-95.5 115,-114.5 228,-114.5 228,-95.5 115,-95.5"/>
<text text-anchor="middle" x="171.5" y="-102.5" font-family="Helvetica,sans-Serif" font-size="10.00">pkgDebianIndexFile</text>
</a>
</g>
</g>
<!-- Node2&#45;&gt;Node1 -->
<g id="edge1" class="edge">
<title>Node2&#45;&gt;Node1</title>
<path fill="none" stroke="midnightblue" d="M238.38,-105C246.82,-105 255.47,-105 263.93,-105"/>
<polygon fill="midnightblue" stroke="midnightblue" points="238.2,-101.5 228.2,-105 238.2,-108.5 238.2,-101.5"/>
</g>
<!-- Node3 -->
<g id="node3" class="node">
<title>Node3</title>
<g id="a_node3"><a xlink:href="classpkgIndexFile.xhtml" target="_top" xlink:title=" ">
<polygon fill="white" stroke="black" points="0,-95.5 0,-114.5 79,-114.5 79,-95.5 0,-95.5"/>
<text text-anchor="middle" x="39.5" y="-102.5" font-family="Helvetica,sans-Serif" font-size="10.00">pkgIndexFile</text>
</a>
</g>
</g>
<!-- Node3&#45;&gt;Node2 -->
<g id="edge2" class="edge">
<title>Node3&#45;&gt;Node2</title>
<path fill="none" stroke="midnightblue" d="M89.16,-105C97.56,-105 106.35,-105 114.92,-105"/>
<polygon fill="midnightblue" stroke="midnightblue" points="89.15,-101.5 79.15,-105 89.15,-108.5 89.15,-101.5"/>
</g>
<!-- Node6 -->
<g id="node6" class="node">
<title>Node6</title>
<g id="a_node6"><a xlink:href="classdebDebianSourceDirIndex.xhtml" target="_top" xlink:title=" ">
<polygon fill="white" stroke="black" points="601,-133.5 601,-152.5 744,-152.5 744,-133.5 601,-133.5"/>
<text text-anchor="middle" x="672.5" y="-140.5" font-family="Helvetica,sans-Serif" font-size="10.00">debDebianSourceDirIndex</text>
</a>
</g>
</g>
<!-- Node5&#45;&gt;Node6 -->
<g id="edge5" class="edge">
<title>Node5&#45;&gt;Node6</title>
<path fill="none" stroke="midnightblue" d="M558.98,-143C572.38,-143 586.8,-143 600.68,-143"/>
<polygon fill="midnightblue" stroke="midnightblue" points="558.95,-139.5 548.95,-143 558.95,-146.5 558.95,-139.5"/>
</g>
<!-- Node10 -->
<g id="node10" class="node">
<title>Node10</title>
<g id="a_node10"><a xlink:href="classedspIndex.xhtml" target="_top" xlink:title=" ">
<polygon fill="white" stroke="black" points="639,-38.5 639,-57.5 706,-57.5 706,-38.5 639,-38.5"/>
<text text-anchor="middle" x="672.5" y="-45.5" font-family="Helvetica,sans-Serif" font-size="10.00">edspIndex</text>
</a>
</g>
</g>
<!-- Node9&#45;&gt;Node10 -->
<g id="edge9" class="edge">
<title>Node9&#45;&gt;Node10</title>
<path fill="none" stroke="midnightblue" d="M553.16,-34.81C581.12,-37.93 614.69,-41.67 638.92,-44.37"/>
<polygon fill="midnightblue" stroke="midnightblue" points="553.47,-31.33 543.15,-33.7 552.7,-38.28 553.47,-31.33"/>
</g>
<!-- Node11 -->
<g id="node11" class="node">
<title>Node11</title>
<g id="a_node11"><a xlink:href="classeippIndex.xhtml" target="_top" xlink:title=" ">
<polygon fill="white" stroke="black" points="640,-0.5 640,-19.5 705,-19.5 705,-0.5 640,-0.5"/>
<text text-anchor="middle" x="672.5" y="-7.5" font-family="Helvetica,sans-Serif" font-size="10.00">eippIndex</text>
</a>
</g>
</g>
<!-- Node9&#45;&gt;Node11 -->
<g id="edge10" class="edge">
<title>Node9&#45;&gt;Node11</title>
<path fill="none" stroke="midnightblue" d="M553.27,-23.18C581.51,-20.03 615.47,-16.24 639.73,-13.54"/>
<polygon fill="midnightblue" stroke="midnightblue" points="552.7,-19.72 543.15,-24.3 553.47,-26.67 552.7,-19.72"/>
</g>
</g>
</svg>
        <g id="navigator" transform="translate(0 0)" fill="#404254">
                <rect fill="#f2f5e9" fill-opacity="0.5" stroke="#606060" stroke-width=".5" x="0" y="0" width="60" height="60"/>
                <use id="zoomplus" xlink:href="#zoomPlus" x="17" y="9" onmousedown="handleZoom(evt,'in')"/>
                <use id="zoomminus" xlink:href="#zoomMin" x="42" y="9" onmousedown="handleZoom(evt,'out')"/>
                <use id="reset" xlink:href="#resetDef" x="30" y="36" onmousedown="handleReset()"/>
                <g id="arrowUp" xlink:href="#dirArrow" transform="translate(30 24)" onmousedown="handlePan(0,-1)">
                  <use xlink:href="#rim" fill="#404040">
                        <set attributeName="fill" to="#808080" begin="arrowUp.mouseover" end="arrowUp.mouseout"/>
                  </use>
                  <path fill="none" stroke="white" stroke-width="1.5" d="M0,-3.0v7 M-2.5,-0.5L0,-3.0L2.5,-0.5"/>
                </g>
                <g id="arrowRight" xlink:href="#dirArrow" transform="rotate(90) translate(36 -43)" onmousedown="handlePan(1,0)">
                  <use xlink:href="#rim" fill="#404040">
                        <set attributeName="fill" to="#808080" begin="arrowRight.mouseover" end="arrowRight.mouseout"/>
                  </use>
                  <path fill="none" stroke="white" stroke-width="1.5" d="M0,-3.0v7 M-2.5,-0.5L0,-3.0L2.5,-0.5"/>
                </g>
                <g id="arrowDown" xlink:href="#dirArrow" transform="rotate(180) translate(-30 -48)" onmousedown="handlePan(0,1)">
                  <use xlink:href="#rim" fill="#404040">
                        <set attributeName="fill" to="#808080" begin="arrowDown.mouseover" end="arrowDown.mouseout"/>
                  </use>
                  <path fill="none" stroke="white" stroke-width="1.5" d="M0,-3.0v7 M-2.5,-0.5L0,-3.0L2.5,-0.5"/>
                </g>
                <g id="arrowLeft" xlink:href="#dirArrow" transform="rotate(270) translate(-36 17)" onmousedown="handlePan(-1,0)">
                  <use xlink:href="#rim" fill="#404040">
                        <set attributeName="fill" to="#808080" begin="arrowLeft.mouseover" end="arrowLeft.mouseout"/>
                  </use>
                  <path fill="none" stroke="white" stroke-width="1.5" d="M0,-3.0v7 M-2.5,-0.5L0,-3.0L2.5,-0.5"/>
                </g>
        </g>
        <svg viewBox="0 0 15 15" width="100%" height="30px" preserveAspectRatio="xMaxYMin meet">
         <g id="arrow_out" transform="scale(0.3 0.3)">
          <a xlink:href="classpkgDebianIndexRealFile__inherit__graph_org.svg" target="_base">
           <rect id="button" ry="5" rx="5" y="6" x="6" height="38" width="38"
                fill="#f2f5e9" fill-opacity="0.5" stroke="#606060" stroke-width="1.0"/>
           <path id="arrow"
             d="M 11.500037,31.436501 C 11.940474,20.09759 22.043105,11.32322 32.158766,21.979434 L 37.068811,17.246167 C 37.068811,17.246167 37.088388,32 37.088388,32 L 22.160133,31.978069 C 22.160133,31.978069 26.997745,27.140456 26.997745,27.140456 C 18.528582,18.264221 13.291696,25.230495 11.500037,31.436501 z"
             style="fill:#404040;"/>
          </a>
         </g>
        </svg>
</svg>
