<?xml version="1.0" encoding="UTF-8" standalone="no"?>
<!DOCTYPE svg PUBLIC "-//W3C//DTD SVG 1.1//EN"
 "http://www.w3.org/Graphics/SVG/1.1/DTD/svg11.dtd">
<!-- Generated by graphviz version 2.43.0 (0)
 -->
<!-- Title: DefaultRootSetFunc2 Pages: 1 -->
<svg width="226pt" height="140pt"
 viewBox="0.00 0.00 226.00 140.00" xmlns="http://www.w3.org/2000/svg" xmlns:xlink="http://www.w3.org/1999/xlink">
<g id="graph0" class="graph" transform="scale(1 1) rotate(0) translate(4 136)">
<title>DefaultRootSetFunc2</title>
<polygon fill="white" stroke="transparent" points="-4,4 -4,-136 222,-136 222,4 -4,4"/>
<!-- Node1 -->
<g id="node1" class="node">
<title>Node1</title>
<g id="a_node1"><a xlink:title="Returns true for packages matching a regular expression in APT::NeverAutoRemove.">
<polygon fill="#bfbfbf" stroke="black" points="42.5,-0.5 42.5,-19.5 161.5,-19.5 161.5,-0.5 42.5,-0.5"/>
<text text-anchor="middle" x="102" y="-7.5" font-family="Helvetica,sans-Serif" font-size="10.00">DefaultRootSetFunc2</text>
</a>
</g>
</g>
<!-- Node2 -->
<g id="node2" class="node">
<title>Node2</title>
<g id="a_node2"><a xlink:href="classpkgDepCache_1_1DefaultRootSetFunc.xhtml" target="_top" xlink:title="Returns true for packages matching a regular expression in APT::NeverAutoRemove.">
<polygon fill="white" stroke="black" points="45.5,-56.5 45.5,-75.5 158.5,-75.5 158.5,-56.5 45.5,-56.5"/>
<text text-anchor="middle" x="102" y="-63.5" font-family="Helvetica,sans-Serif" font-size="10.00">DefaultRootSetFunc</text>
</a>
</g>
</g>
<!-- Node2&#45;&gt;Node1 -->
<g id="edge1" class="edge">
<title>Node2&#45;&gt;Node1</title>
<path fill="none" stroke="midnightblue" d="M102,-45.8C102,-36.91 102,-26.78 102,-19.75"/>
<polygon fill="midnightblue" stroke="midnightblue" points="98.5,-46.08 102,-56.08 105.5,-46.08 98.5,-46.08"/>
</g>
<!-- Node3 -->
<g id="node3" class="node">
<title>Node3</title>
<g id="a_node3"><a xlink:href="classpkgDepCache_1_1InRootSetFunc.xhtml" target="_top" xlink:title="An arbitrary predicate on packages.">
<polygon fill="white" stroke="black" points="0,-112.5 0,-131.5 86,-131.5 86,-112.5 0,-112.5"/>
<text text-anchor="middle" x="43" y="-119.5" font-family="Helvetica,sans-Serif" font-size="10.00">InRootSetFunc</text>
</a>
</g>
</g>
<!-- Node3&#45;&gt;Node2 -->
<g id="edge2" class="edge">
<title>Node3&#45;&gt;Node2</title>
<path fill="none" stroke="midnightblue" d="M59.89,-105.54C70.41,-95.91 83.57,-83.87 92.35,-75.83"/>
<polygon fill="midnightblue" stroke="midnightblue" points="57.49,-102.99 52.48,-112.32 62.22,-108.15 57.49,-102.99"/>
</g>
<!-- Node4 -->
<g id="node4" class="node">
<title>Node4</title>
<g id="a_node4"><a xlink:href="classConfiguration_1_1MatchAgainstConfig.xhtml" target="_top" xlink:title="match a string against a configurable list of patterns">
<polygon fill="white" stroke="black" points="104,-112.5 104,-131.5 218,-131.5 218,-112.5 104,-112.5"/>
<text text-anchor="middle" x="161" y="-119.5" font-family="Helvetica,sans-Serif" font-size="10.00">MatchAgainstConfig</text>
</a>
</g>
</g>
<!-- Node4&#45;&gt;Node2 -->
<g id="edge3" class="edge">
<title>Node4&#45;&gt;Node2</title>
<path fill="none" stroke="midnightblue" d="M144.11,-105.54C133.59,-95.91 120.43,-83.87 111.65,-75.83"/>
<polygon fill="midnightblue" stroke="midnightblue" points="141.78,-108.15 151.52,-112.32 146.51,-102.99 141.78,-108.15"/>
</g>
</g>
</svg>
