<svg xmlns="http://www.w3.org/2000/svg" xmlns:xlink="http://www.w3.org/1999/xlink" width="1260" height="703pt" viewBox="0 0 945 703"><g id="graph0" class="graph" transform="scale(1 1) rotate(0) translate(4 699)"><title>pkgAcqIndex</title><polygon fill="#fff" stroke="transparent" points="-4 4 -4 -699 941 -699 941 4 -4 4"/><g id="node1" class="node"><title>Node1</title><g id="a_node1"><a xlink:title="An acquire item that is responsible for fetching an index {{{ file (e.g., Packages or Sources)."><polygon fill="#bfbfbf" stroke="#000" points="0 -115.5 0 -134.5 80 -134.5 80 -115.5 0 -115.5"/><text x="40" y="-122.5" font-family="Helvetica,sans-Serif" font-size="10" text-anchor="middle">pkgAcqIndex</text></a></g></g><g id="node2" class="node"><title>Node2</title><g id="a_node2"><a target="_top" xlink:href="classpkgAcqBaseIndex.xhtml" xlink:title="Common base class for all classes that deal with fetching indexes {{{."><polygon fill="#fff" stroke="#000" points="48 -189 48 -208 152 -208 152 -189 48 -189"/><text x="100" y="-196" font-family="Helvetica,sans-Serif" font-size="10" text-anchor="middle">pkgAcqBaseIndex</text></a></g></g><g id="edge1" class="edge"><title>Node2-&gt;Node1</title><path fill="none" stroke="#191970" d="M86.21,-181.07C74.14,-166.69 57.07,-146.35 47.42,-134.84"/><polygon fill="#191970" stroke="#191970" points="83.53 -183.32 92.64 -188.73 88.9 -178.82 83.53 -183.32"/></g><g id="node3" class="node"><title>Node3</title><g id="a_node3"><a target="_top" xlink:href="classpkgAcqTransactionItem.xhtml" xlink:title="baseclass for the indexes files to manage them all together"><polygon fill="#fff" stroke="#000" points="196.5 -261.5 196.5 -280.5 327.5 -280.5 327.5 -261.5 196.5 -261.5"/><text x="262" y="-268.5" font-family="Helvetica,sans-Serif" font-size="10" text-anchor="middle">pkgAcqTransactionItem</text></a></g></g><g id="edge2" class="edge"><title>Node3-&gt;Node2</title><path fill="none" stroke="#191970" d="M210.82,-258.75C196.02,-254.66 180.08,-249.43 166,-243 145.28,-233.54 123.68,-218.05 111.05,-208.34"/><polygon fill="#191970" stroke="#191970" points="210.28 -262.22 220.85 -261.39 212.07 -255.46 210.28 -262.22"/></g><g id="node11" class="node"><title>Node11</title><g id="a_node11"><a target="_top" xlink:href="classpkgAcqMetaBase.xhtml" xlink:title="the manager of a transaction"><polygon fill="#fff" stroke="#000" points="301.5 -115.5 301.5 -134.5 402.5 -134.5 402.5 -115.5 301.5 -115.5"/><text x="352" y="-122.5" font-family="Helvetica,sans-Serif" font-size="10" text-anchor="middle">pkgAcqMetaBase</text></a></g></g><g id="edge12" class="edge"><title>Node3-&gt;Node11</title><path fill="none" stroke="#191970" d="M249.42,-252.94C237.54,-234.54 223.39,-204.93 237,-183 253.21,-156.87 285.36,-142.35 311.56,-134.51"/><polygon fill="#191970" stroke="#191970" points="246.56 -254.95 255.11 -261.21 252.33 -250.99 246.56 -254.95"/></g><g id="node12" class="node"><title>Node12</title><g id="a_node12"><a><polygon fill="#fff" stroke="#bfbfbf" points="246 -183.5 246 -213.5 396 -213.5 396 -183.5 246 -183.5"/><text x="254" y="-201.5" font-family="Helvetica,sans-Serif" font-size="10" text-anchor="start">vector&lt; pkgAcqTransaction</text><text x="321" y="-190.5" font-family="Helvetica,sans-Serif" font-size="10" text-anchor="middle">Item * &gt;</text></a></g></g><g id="edge14" class="edge"><title>Node3-&gt;Node12</title><path fill="none" stroke="#9a32cd" stroke-dasharray="5 2" d="M275.9,-253.39C286.03,-241.28 299.62,-225.05 309.22,-213.58"/><polygon fill="#9a32cd" stroke="#9a32cd" points="272.97 -251.44 269.23 -261.36 278.34 -255.93 272.97 -251.44"/><text x="318.5" y="-235" font-family="Helvetica,sans-Serif" font-size="10" text-anchor="middle">elements</text></g><g id="node4" class="node"><title>Node4</title><g id="a_node4"><a><polygon fill="#fff" stroke="#bfbfbf" points="290.5 -356 290.5 -375 329.5 -375 329.5 -356 290.5 -356"/><text x="310" y="-363" font-family="Helvetica,sans-Serif" font-size="10" text-anchor="middle">Item</text></a></g></g><g id="edge3" class="edge"><title>Node4-&gt;Node3</title><path fill="none" stroke="#191970" d="M300.94,-347.04C290.64,-327.19 274.23,-295.58 266.42,-280.52"/><polygon fill="#191970" stroke="#191970" points="297.86 -348.7 305.57 -355.96 304.07 -345.48 297.86 -348.7"/></g><g id="node5" class="node"><title>Node5</title><g id="a_node5"><a target="_top" xlink:href="classIndexTarget.xhtml" xlink:title="Information about an index file."><polygon fill="#fff" stroke="#000" points="360 -356 360 -375 434 -375 434 -356 360 -356"/><text x="397" y="-363" font-family="Helvetica,sans-Serif" font-size="10" text-anchor="middle">IndexTarget</text></a></g></g><g id="edge4" class="edge"><title>Node5-&gt;Node3</title><path fill="none" stroke="#9a32cd" stroke-dasharray="5 2" d="M376.12,-350.2C347.67,-330.7 297.61,-296.4 274.43,-280.52"/><polygon fill="#9a32cd" stroke="#9a32cd" points="374.31 -353.2 384.54 -355.96 378.27 -347.42 374.31 -353.2"/><text x="366" y="-313" font-family="Helvetica,sans-Serif" font-size="10" text-anchor="middle">Target</text></g><g id="node10" class="node"><title>Node10</title><g id="a_node10"><a target="_top" xlink:href="classpkgAcqMetaIndex.xhtml" xlink:title="An item that is responsible for downloading the meta-index {{{ file (i.e., Release) itself and verify..."><polygon fill="#fff" stroke="#000" points="353 -57.5 353 -76.5 457 -76.5 457 -57.5 353 -57.5"/><text x="405" y="-64.5" font-family="Helvetica,sans-Serif" font-size="10" text-anchor="middle">pkgAcqMetaIndex</text></a></g></g><g id="edge16" class="edge"><title>Node5-&gt;Node10</title><path fill="none" stroke="#9a32cd" stroke-dasharray="5 2" d="M407.85,-347.21C418.13,-329.16 432,-299.67 432,-272 432,-272 432,-272 432,-124 432,-105.65 420.09,-86.98 412.09,-76.5"/><polygon fill="#9a32cd" stroke="#9a32cd" points="404.74 -345.6 402.62 -355.98 410.75 -349.18 404.74 -345.6"/><text x="479.5" y="-196" font-family="Helvetica,sans-Serif" font-size="10" text-anchor="middle">DetachedSigTarget</text></g><g id="node6" class="node"><title>Node6</title><g id="a_node6"><a><polygon fill="#fff" stroke="#bfbfbf" points="312.5 -523 312.5 -553 431.5 -553 431.5 -523 312.5 -523"/><text x="320.5" y="-541" font-family="Helvetica,sans-Serif" font-size="10" text-anchor="start">map&lt; std::string, std</text><text x="372" y="-530" font-family="Helvetica,sans-Serif" font-size="10" text-anchor="middle">::string &gt;</text></a></g></g><g id="edge5" class="edge"><title>Node6-&gt;Node5</title><path fill="none" stroke="#9a32cd" stroke-dasharray="5 2" d="M375.61,-512.4C381.27,-473.76 391.99,-400.64 395.7,-375.36"/><polygon fill="#9a32cd" stroke="#9a32cd" points="372.08 -512.35 374.09 -522.76 379 -513.37 372.08 -512.35"/><text x="412.5" y="-446" font-family="Helvetica,sans-Serif" font-size="10" text-anchor="middle">Options</text></g><g id="node7" class="node"><title>Node7</title><g id="a_node7"><a><polygon fill="#fff" stroke="#bfbfbf" points="490 -618.5 490 -637.5 534 -637.5 534 -618.5 490 -618.5"/><text x="512" y="-625.5" font-family="Helvetica,sans-Serif" font-size="10" text-anchor="middle">string</text></a></g></g><g id="edge27" class="edge"><title>Node7-&gt;Node1</title><path fill="none" stroke="#9a32cd" stroke-dasharray="5 2" d="M479.8,-624.66C370.44,-616.31 20,-585.87 20,-539 20,-539 20,-539 20,-197.5 20,-174.04 30.11,-147.8 35.95,-134.59"/><polygon fill="#9a32cd" stroke="#9a32cd" points="479.67 -628.16 489.9 -625.43 480.2 -621.18 479.67 -628.16"/><text x="94" y="-324" font-family="Helvetica,sans-Serif" font-size="10" text-anchor="middle">CompressionExtensions</text><text x="94" y="-313" font-family="Helvetica,sans-Serif" font-size="10" text-anchor="middle">CurrentCompressionExtension</text><text x="94" y="-302" font-family="Helvetica,sans-Serif" font-size="10" text-anchor="middle">EraseFileName</text></g><g id="edge26" class="edge"><title>Node7-&gt;Node3</title><path fill="none" stroke="#9a32cd" stroke-dasharray="5 2" d="M479.67,-627.54C431.83,-626.37 343.48,-616.19 303,-560 237.17,-468.62 254.92,-317.91 260.59,-280.57"/><polygon fill="#9a32cd" stroke="#9a32cd" points="479.75 -631.04 489.79 -627.67 479.84 -624.04 479.75 -631.04"/><text x="298" y="-446" font-family="Helvetica,sans-Serif" font-size="10" text-anchor="middle">PartialFile</text></g><g id="edge8" class="edge"><title>Node7-&gt;Node5</title><path fill="none" stroke="#9a32cd" stroke-dasharray="5 2" d="M503.3,-609.5C496.88,-596.15 488.21,-577.19 482,-560 456.75,-490.12 477.75,-461.13 437,-399 430.52,-389.12 420.09,-380.79 411.5,-375.04"/><polygon fill="#9a32cd" stroke="#9a32cd" points="500.16 -611.05 507.7 -618.5 506.45 -607.97 500.16 -611.05"/><text x="511.5" y="-552" font-family="Helvetica,sans-Serif" font-size="10" text-anchor="middle">Description</text><text x="511.5" y="-541" font-family="Helvetica,sans-Serif" font-size="10" text-anchor="middle">MetaKey</text><text x="511.5" y="-530" font-family="Helvetica,sans-Serif" font-size="10" text-anchor="middle">ShortDesc</text><text x="511.5" y="-519" font-family="Helvetica,sans-Serif" font-size="10" text-anchor="middle">URI</text></g><g id="edge6" class="edge"><title>Node7-&gt;Node6</title><path fill="none" stroke="#9a32cd" stroke-dasharray="5 2" d="M479.39,-625.57C456.49,-623.06 426.28,-616.55 405,-600 389.7,-588.1 380.59,-567.04 375.94,-553.05"/><polygon fill="#9a32cd" stroke="#9a32cd" points="479.38 -629.09 489.66 -626.49 480.01 -622.12 479.38 -629.09"/><text x="429.5" y="-592" font-family="Helvetica,sans-Serif" font-size="10" text-anchor="middle">elements</text><text x="429.5" y="-581" font-family="Helvetica,sans-Serif" font-size="10" text-anchor="middle">keys</text></g><g id="edge15" class="edge"><title>Node7-&gt;Node11</title><path fill="none" stroke="#9a32cd" stroke-dasharray="5 2" d="M525.93,-610.2C538.49,-593.31 555,-565.97 555,-539 555,-539 555,-539 555,-236.5 555,-167.28 462.83,-141.17 402.7,-131.51"/><polygon fill="#9a32cd" stroke="#9a32cd" points="522.89 -608.4 519.49 -618.44 528.41 -612.71 522.89 -608.4"/><text x="577.5" y="-313" font-family="Helvetica,sans-Serif" font-size="10" text-anchor="middle">BaseURI</text></g><g id="node13" class="node"><title>Node13</title><g id="a_node13"><a target="_top" xlink:href="classmetaIndex.xhtml"><polygon fill="#fff" stroke="#000" points="598.5 -261.5 598.5 -280.5 667.5 -280.5 667.5 -261.5 598.5 -261.5"/><text x="633" y="-268.5" font-family="Helvetica,sans-Serif" font-size="10" text-anchor="middle">metaIndex</text></a></g></g><g id="edge20" class="edge"><title>Node7-&gt;Node13</title><path fill="none" stroke="#9a32cd" stroke-dasharray="5 2" d="M543.58,-617.53C552.37,-613.46 561.1,-607.78 567,-600 635.21,-509.94 588.73,-460.34 613,-350 618.59,-324.6 626.61,-294.94 630.58,-280.61"/><polygon fill="#9a32cd" stroke="#9a32cd" points="542.11 -614.35 534.16 -621.35 544.74 -620.84 542.11 -614.35"/><text x="640" y="-490" font-family="Helvetica,sans-Serif" font-size="10" text-anchor="middle">Codename</text><text x="640" y="-479" font-family="Helvetica,sans-Serif" font-size="10" text-anchor="middle">Dist</text><text x="640" y="-468" font-family="Helvetica,sans-Serif" font-size="10" text-anchor="middle">Label</text><text x="640" y="-457" font-family="Helvetica,sans-Serif" font-size="10" text-anchor="middle">Origin</text><text x="640" y="-446" font-family="Helvetica,sans-Serif" font-size="10" text-anchor="middle">ReleaseNotes</text><text x="640" y="-435" font-family="Helvetica,sans-Serif" font-size="10" text-anchor="middle">SignedBy</text><text x="640" y="-424" font-family="Helvetica,sans-Serif" font-size="10" text-anchor="middle">Suite</text><text x="640" y="-413" font-family="Helvetica,sans-Serif" font-size="10" text-anchor="middle">URI</text><text x="640" y="-402" font-family="Helvetica,sans-Serif" font-size="10" text-anchor="middle">Version</text></g><g id="node16" class="node"><title>Node16</title><g id="a_node16"><a><polygon fill="#fff" stroke="#bfbfbf" points="621.5 -350.5 621.5 -380.5 778.5 -380.5 778.5 -350.5 621.5 -350.5"/><text x="629.5" y="-368.5" font-family="Helvetica,sans-Serif" font-size="10" text-anchor="start">map&lt; std::string, metaIndex</text><text x="700" y="-357.5" font-family="Helvetica,sans-Serif" font-size="10" text-anchor="middle">::checkSum * &gt;</text></a></g></g><g id="edge22" class="edge"><title>Node7-&gt;Node16</title><path fill="none" stroke="#9a32cd" stroke-dasharray="5 2" d="M544.32,-625.87C608.64,-623.29 747.7,-615.92 762,-600 769.24,-591.93 808.87,-493.16 753,-399 748.48,-391.39 741.42,-385.32 733.91,-380.58"/><polygon fill="#9a32cd" stroke="#9a32cd" points="544.17 -622.38 534.31 -626.26 544.44 -629.37 544.17 -622.38"/><text x="795" y="-535.5" font-family="Helvetica,sans-Serif" font-size="10" text-anchor="middle">keys</text></g><g id="node17" class="node"><title>Node17</title><g id="a_node17"><a target="_top" xlink:href="structmetaIndex_1_1checkSum.xhtml"><polygon fill="#fff" stroke="#000" points="666.5 -528.5 666.5 -547.5 733.5 -547.5 733.5 -528.5 666.5 -528.5"/><text x="700" y="-535.5" font-family="Helvetica,sans-Serif" font-size="10" text-anchor="middle">checkSum</text></a></g></g><g id="edge25" class="edge"><title>Node7-&gt;Node17</title><path fill="none" stroke="#9a32cd" stroke-dasharray="5 2" d="M544.25,-619.13C559.32,-614.71 577.17,-608.37 592,-600 605.18,-592.56 605.28,-586.21 618,-578 637.34,-565.52 661.29,-554.59 678.3,-547.5"/><polygon fill="#9a32cd" stroke="#9a32cd" points="543.03 -615.83 534.33 -621.89 544.9 -622.58 543.03 -615.83"/><text x="663.5" y="-586.5" font-family="Helvetica,sans-Serif" font-size="10" text-anchor="middle">MetaKeyFilename</text></g><g id="node8" class="node"><title>Node8</title><g id="a_node8"><a><polygon fill="#fff" stroke="#bfbfbf" points="452 -675.5 452 -694.5 572 -694.5 572 -675.5 452 -675.5"/><text x="512" y="-682.5" font-family="Helvetica,sans-Serif" font-size="10" text-anchor="middle">basic_string&lt; Char &gt;</text></a></g></g><g id="edge7" class="edge"><title>Node8-&gt;Node7</title><path fill="none" stroke="#191970" d="M512,-665.12C512,-655.82 512,-645.06 512,-637.71"/><polygon fill="#191970" stroke="#191970" points="508.5 -665.41 512 -675.41 515.5 -665.41 508.5 -665.41"/></g><g id="node9" class="node"><title>Node9</title><g id="a_node9"><a target="_top" xlink:href="classpkgAcqMetaClearSig.xhtml" xlink:title="An item responsible for downloading clearsigned metaindexes {{{."><polygon fill="#fff" stroke="#000" points="346 -.5 346 -19.5 464 -19.5 464 -.5 346 -.5"/><text x="405" y="-7.5" font-family="Helvetica,sans-Serif" font-size="10" text-anchor="middle">pkgAcqMetaClearSig</text></a></g></g><g id="edge9" class="edge"><title>Node9-&gt;Node3</title><path fill="none" stroke="#9a32cd" stroke-dasharray="5 2" d="M335.9,-14.66C269.77,-20.1 180,-33.49 180,-66 180,-199.5 180,-199.5 180,-199.5 180,-230.48 214.06,-250.81 238.28,-261.35"/><polygon fill="#9a32cd" stroke="#9a32cd" points="336.19 -18.14 345.88 -13.88 335.64 -11.17 336.19 -18.14"/><text x="231" y="-122.5" font-family="Helvetica,sans-Serif" font-size="10" text-anchor="middle">TransactionManager</text></g><g id="edge10" class="edge"><title>Node10-&gt;Node9</title><path fill="none" stroke="#191970" d="M405,-47.12C405,-37.82 405,-27.06 405,-19.71"/><polygon fill="#191970" stroke="#191970" points="401.5 -47.41 405 -57.41 408.5 -47.41 401.5 -47.41"/></g><g id="edge11" class="edge"><title>Node11-&gt;Node10</title><path fill="none" stroke="#191970" d="M367.39,-107.74C377.06,-97.53 389.13,-84.77 396.95,-76.51"/><polygon fill="#191970" stroke="#191970" points="364.61 -105.58 360.28 -115.25 369.7 -110.39 364.61 -105.58"/></g><g id="edge13" class="edge"><title>Node12-&gt;Node11</title><path fill="none" stroke="#9a32cd" stroke-dasharray="5 2" d="M326.8,-173.72C328.74,-167.19 331.15,-160.2 334,-154 337.09,-147.28 341.59,-140.28 345.32,-134.96"/><polygon fill="#9a32cd" stroke="#9a32cd" points="323.4 -172.85 324.14 -183.42 330.16 -174.7 323.4 -172.85"/><text x="363.5" y="-157" font-family="Helvetica,sans-Serif" font-size="10" text-anchor="middle">Transaction</text></g><g id="edge17" class="edge"><title>Node13-&gt;Node9</title><path fill="none" stroke="#9a32cd" stroke-dasharray="5 2" d="M621.75,-252.46C613.96,-238.63 605,-218.58 605,-199.5 605,-199.5 605,-199.5 605,-66 605,-36.52 523.17,-22.25 464.19,-15.79"/><polygon fill="#9a32cd" stroke="#9a32cd" points="618.92 -254.54 627.06 -261.32 624.92 -250.94 618.92 -254.54"/><text x="658" y="-128" font-family="Helvetica,sans-Serif" font-size="10" text-anchor="middle">LastMetaIndexParser</text><text x="658" y="-117" font-family="Helvetica,sans-Serif" font-size="10" text-anchor="middle">MetaIndexParser</text></g><g id="node14" class="node"><title>Node14</title><g id="a_node14"><a><polygon fill="#fff" stroke="#bfbfbf" points="797 -356 797 -375 937 -375 937 -356 797 -356"/><text x="867" y="-363" font-family="Helvetica,sans-Serif" font-size="10" text-anchor="middle">vector&lt; pkgIndexFile * &gt;</text></a></g></g><g id="edge18" class="edge"><title>Node14-&gt;Node13</title><path fill="none" stroke="#9a32cd" stroke-dasharray="5 2" d="M839.43,-351.46C809.6,-337.59 760.46,-315.43 717,-299 698.95,-292.18 678.31,-285.53 662.02,-280.54"/><polygon fill="#9a32cd" stroke="#9a32cd" points="838.23 -354.76 848.77 -355.83 841.19 -348.42 838.23 -354.76"/><text x="815.5" y="-313" font-family="Helvetica,sans-Serif" font-size="10" text-anchor="middle">Indexes</text></g><g id="node15" class="node"><title>Node15</title><g id="a_node15"><a target="_top" xlink:href="classpkgIndexFile.xhtml"><polygon fill="#fff" stroke="#000" points="827.5 -528.5 827.5 -547.5 906.5 -547.5 906.5 -528.5 827.5 -528.5"/><text x="867" y="-535.5" font-family="Helvetica,sans-Serif" font-size="10" text-anchor="middle">pkgIndexFile</text></a></g></g><g id="edge19" class="edge"><title>Node15-&gt;Node14</title><path fill="none" stroke="#9a32cd" stroke-dasharray="5 2" d="M867,-518.02C867,-481.33 867,-401.96 867,-375.38"/><polygon fill="#9a32cd" stroke="#9a32cd" points="863.5 -518.31 867 -528.31 870.5 -518.31 863.5 -518.31"/><text x="891.5" y="-446" font-family="Helvetica,sans-Serif" font-size="10" text-anchor="middle">elements</text></g><g id="edge21" class="edge"><title>Node16-&gt;Node13</title><path fill="none" stroke="#9a32cd" stroke-dasharray="5 2" d="M683.9,-342.27C669.56,-322.47 649.34,-294.56 639.24,-280.62"/><polygon fill="#9a32cd" stroke="#9a32cd" points="681.12 -344.41 689.82 -350.45 686.79 -340.3 681.12 -344.41"/><text x="694.5" y="-313" font-family="Helvetica,sans-Serif" font-size="10" text-anchor="middle">Entries</text></g><g id="edge23" class="edge"><title>Node17-&gt;Node16</title><path fill="none" stroke="#9a32cd" stroke-dasharray="5 2" d="M700,-518.21C700,-483.77 700,-411.27 700,-380.64"/><polygon fill="#9a32cd" stroke="#9a32cd" points="696.5 -518.31 700 -528.31 703.5 -518.31 696.5 -518.31"/><text x="724.5" y="-446" font-family="Helvetica,sans-Serif" font-size="10" text-anchor="middle">elements</text></g><g id="node18" class="node"><title>Node18</title><g id="a_node18"><a target="_top" xlink:href="classHashStringList.xhtml"><polygon fill="#fff" stroke="#000" points="684.5 -618.5 684.5 -637.5 771.5 -637.5 771.5 -618.5 684.5 -618.5"/><text x="728" y="-625.5" font-family="Helvetica,sans-Serif" font-size="10" text-anchor="middle">HashStringList</text></a></g></g><g id="edge24" class="edge"><title>Node18-&gt;Node17</title><path fill="none" stroke="#9a32cd" stroke-dasharray="5 2" d="M722.12,-608.5C716.17,-589.83 707.25,-561.8 702.78,-547.72"/><polygon fill="#9a32cd" stroke="#9a32cd" points="718.85 -609.77 725.21 -618.24 725.52 -607.65 718.85 -609.77"/><text x="738" y="-586.5" font-family="Helvetica,sans-Serif" font-size="10" text-anchor="middle">Hashes</text></g></g></svg>