<svg xmlns="http://www.w3.org/2000/svg" xmlns:xlink="http://www.w3.org/1999/xlink" width="1116" height="908" viewBox="0 0 836.97 681"><g id="graph0" class="graph" transform="scale(1 1) rotate(0) translate(4 677)"><title>CleanupItem</title><polygon fill="#fff" stroke="transparent" points="-4 4 -4 -677 832.97 -677 832.97 4 -4 4"/><g id="node1" class="node"><title>Node1</title><g id="a_node1"><a><polygon fill="#bfbfbf" stroke="#000" points="322.97 -189 322.97 -208 401.97 -208 401.97 -189 322.97 -189"/><text x="362.47" y="-196" font-family="Helvetica,sans-Serif" font-size="10" text-anchor="middle">CleanupItem</text></a></g></g><g id="node2" class="node"><title>Node2</title><g id="a_node2"><a target="_top" xlink:href="classpkgAcqTransactionItem.xhtml" xlink:title="baseclass for the indexes files to manage them all together"><polygon fill="#fff" stroke="#000" points="159.97 -261.5 159.97 -280.5 290.97 -280.5 290.97 -261.5 159.97 -261.5"/><text x="225.47" y="-268.5" font-family="Helvetica,sans-Serif" font-size="10" text-anchor="middle">pkgAcqTransactionItem</text></a></g></g><g id="edge1" class="edge"><title>Node2-&gt;Node1</title><path fill="none" stroke="#191970" d="M252.79,-257.12C261.95,-252.72 272.19,-247.73 281.47,-243 304.51,-231.26 330.82,-216.96 347.04,-208.04"/><polygon fill="#191970" stroke="#191970" points="251.24 -253.98 243.72 -261.44 254.26 -260.3 251.24 -253.98"/></g><g id="node10" class="node"><title>Node10</title><g id="a_node10"><a target="_top" xlink:href="classpkgAcqMetaBase.xhtml" xlink:title="the manager of a transaction"><polygon fill="#fff" stroke="#000" points="198.97 -115.5 198.97 -134.5 299.97 -134.5 299.97 -115.5 198.97 -115.5"/><text x="249.47" y="-122.5" font-family="Helvetica,sans-Serif" font-size="10" text-anchor="middle">pkgAcqMetaBase</text></a></g></g><g id="edge11" class="edge"><title>Node2-&gt;Node10</title><path fill="none" stroke="#191970" d="M194.16,-256.75C176.7,-247.54 156.5,-233.41 146.47,-214 140.14,-201.76 139.47,-194.87 146.47,-183 161.41,-157.65 192.13,-142.78 216.15,-134.63"/><polygon fill="#191970" stroke="#191970" points="192.98 -260.07 203.5 -261.37 196.08 -253.8 192.98 -260.07"/></g><g id="node11" class="node"><title>Node11</title><g id="a_node11"><a><polygon fill="#fff" stroke="#bfbfbf" points="155.47 -183.5 155.47 -213.5 305.47 -213.5 305.47 -183.5 155.47 -183.5"/><text x="163.47" y="-201.5" font-family="Helvetica,sans-Serif" font-size="10" text-anchor="start">vector&lt; pkgAcqTransaction</text><text x="230.47" y="-190.5" font-family="Helvetica,sans-Serif" font-size="10" text-anchor="middle">Item * &gt;</text></a></g></g><g id="edge13" class="edge"><title>Node2-&gt;Node11</title><path fill="none" stroke="#9a32cd" stroke-dasharray="5 2" d="M226.8,-251.24C227.64,-239.41 228.7,-224.38 229.47,-213.58"/><polygon fill="#9a32cd" stroke="#9a32cd" points="223.3 -251.13 226.08 -261.36 230.28 -251.63 223.3 -251.13"/><text x="252.97" y="-235" font-family="Helvetica,sans-Serif" font-size="10" text-anchor="middle">elements</text></g><g id="node3" class="node"><title>Node3</title><g id="a_node3"><a><polygon fill="#fff" stroke="#bfbfbf" points="205.97 -334 205.97 -353 244.97 -353 244.97 -334 205.97 -334"/><text x="225.47" y="-341" font-family="Helvetica,sans-Serif" font-size="10" text-anchor="middle">Item</text></a></g></g><g id="edge2" class="edge"><title>Node3-&gt;Node2</title><path fill="none" stroke="#191970" d="M225.47,-323.44C225.47,-309.53 225.47,-291.32 225.47,-280.72"/><polygon fill="#191970" stroke="#191970" points="221.97 -323.86 225.47 -333.86 228.97 -323.86 221.97 -323.86"/></g><g id="node4" class="node"><title>Node4</title><g id="a_node4"><a target="_top" xlink:href="classIndexTarget.xhtml" xlink:title="Information about an index file."><polygon fill="#fff" stroke="#000" points="109.47 -334 109.47 -353 183.47 -353 183.47 -334 109.47 -334"/><text x="146.47" y="-341" font-family="Helvetica,sans-Serif" font-size="10" text-anchor="middle">IndexTarget</text></a></g></g><g id="edge3" class="edge"><title>Node4-&gt;Node2</title><path fill="none" stroke="#9a32cd" stroke-dasharray="5 2" d="M160.65,-325.95C168.24,-317.5 177.96,-307.28 187.47,-299 195.16,-292.3 204.48,-285.66 211.97,-280.64"/><polygon fill="#9a32cd" stroke="#9a32cd" points="157.83 -323.86 153.86 -333.68 163.09 -328.48 157.83 -323.86"/><text x="204.47" y="-302" font-family="Helvetica,sans-Serif" font-size="10" text-anchor="middle">Target</text></g><g id="node9" class="node"><title>Node9</title><g id="a_node9"><a target="_top" xlink:href="classpkgAcqMetaIndex.xhtml" xlink:title="An item that is responsible for downloading the meta-index {{{ file (i.e., Release) itself and verify..."><polygon fill="#fff" stroke="#000" points="151.47 -57.5 151.47 -76.5 255.47 -76.5 255.47 -57.5 151.47 -57.5"/><text x="203.47" y="-64.5" font-family="Helvetica,sans-Serif" font-size="10" text-anchor="middle">pkgAcqMetaIndex</text></a></g></g><g id="edge15" class="edge"><title>Node4-&gt;Node9</title><path fill="none" stroke="#9a32cd" stroke-dasharray="5 2" d="M118.48,-329.45C69.68,-304.71 -23.15,-247.63 5.47,-183 33.31,-120.12 113.94,-89.71 163.3,-76.6"/><polygon fill="#9a32cd" stroke="#9a32cd" points="117.08 -332.67 127.6 -333.96 120.19 -326.4 117.08 -332.67"/><text x="52.97" y="-196" font-family="Helvetica,sans-Serif" font-size="10" text-anchor="middle">DetachedSigTarget</text></g><g id="node5" class="node"><title>Node5</title><g id="a_node5"><a><polygon fill="#fff" stroke="#bfbfbf" points="215.97 -501 215.97 -531 334.97 -531 334.97 -501 215.97 -501"/><text x="223.97" y="-519" font-family="Helvetica,sans-Serif" font-size="10" text-anchor="start">map&lt; std::string, std</text><text x="275.47" y="-508" font-family="Helvetica,sans-Serif" font-size="10" text-anchor="middle">::string &gt;</text></a></g></g><g id="edge4" class="edge"><title>Node5-&gt;Node4</title><path fill="none" stroke="#9a32cd" stroke-dasharray="5 2" d="M258.34,-492.36C229.53,-454.28 172.62,-379.07 153.17,-353.36"/><polygon fill="#9a32cd" stroke="#9a32cd" points="255.87 -494.89 264.69 -500.76 261.45 -490.67 255.87 -494.89"/><text x="263.97" y="-424" font-family="Helvetica,sans-Serif" font-size="10" text-anchor="middle">Options</text></g><g id="node6" class="node"><title>Node6</title><g id="a_node6"><a><polygon fill="#fff" stroke="#bfbfbf" points="408.47 -596.5 408.47 -615.5 452.47 -615.5 452.47 -596.5 408.47 -596.5"/><text x="430.47" y="-603.5" font-family="Helvetica,sans-Serif" font-size="10" text-anchor="middle">string</text></a></g></g><g id="edge25" class="edge"><title>Node6-&gt;Node2</title><path fill="none" stroke="#9a32cd" stroke-dasharray="5 2" d="M419.78,-587.64C382.32,-526.8 257.81,-324.54 230.71,-280.51"/><polygon fill="#9a32cd" stroke="#9a32cd" points="416.97 -589.75 425.19 -596.43 422.93 -586.08 416.97 -589.75"/><text x="374.47" y="-424" font-family="Helvetica,sans-Serif" font-size="10" text-anchor="middle">PartialFile</text></g><g id="edge7" class="edge"><title>Node6-&gt;Node4</title><path fill="none" stroke="#9a32cd" stroke-dasharray="5 2" d="M397.99,-602.4C330.18,-596.2 177.38,-578.02 147.47,-538 104.22,-480.15 132.91,-382.99 143.21,-353.35"/><polygon fill="#9a32cd" stroke="#9a32cd" points="397.84 -605.9 408.11 -603.29 398.45 -598.93 397.84 -605.9"/><text x="176.97" y="-530" font-family="Helvetica,sans-Serif" font-size="10" text-anchor="middle">Description</text><text x="176.97" y="-519" font-family="Helvetica,sans-Serif" font-size="10" text-anchor="middle">MetaKey</text><text x="176.97" y="-508" font-family="Helvetica,sans-Serif" font-size="10" text-anchor="middle">ShortDesc</text><text x="176.97" y="-497" font-family="Helvetica,sans-Serif" font-size="10" text-anchor="middle">URI</text></g><g id="edge5" class="edge"><title>Node6-&gt;Node5</title><path fill="none" stroke="#9a32cd" stroke-dasharray="5 2" d="M397.94,-601.74C364.4,-597.78 315.02,-590.1 300.47,-578 286.29,-566.22 280.06,-545.13 277.38,-531.1"/><polygon fill="#9a32cd" stroke="#9a32cd" points="397.87 -605.26 408.2 -602.9 398.66 -598.3 397.87 -605.26"/><text x="324.97" y="-570" font-family="Helvetica,sans-Serif" font-size="10" text-anchor="middle">elements</text><text x="324.97" y="-559" font-family="Helvetica,sans-Serif" font-size="10" text-anchor="middle">keys</text></g><g id="edge14" class="edge"><title>Node6-&gt;Node10</title><path fill="none" stroke="#9a32cd" stroke-dasharray="5 2" d="M430.47,-586.07C430.47,-568.25 430.47,-540.81 430.47,-517 430.47,-517 430.47,-517 430.47,-197.5 430.47,-141.25 353.9,-127.92 300.37,-125.48"/><polygon fill="#9a32cd" stroke="#9a32cd" points="426.97 -586.26 430.47 -596.26 433.97 -586.26 426.97 -586.26"/><text x="452.97" y="-302" font-family="Helvetica,sans-Serif" font-size="10" text-anchor="middle">BaseURI</text></g><g id="node12" class="node"><title>Node12</title><g id="a_node12"><a target="_top" xlink:href="classmetaIndex.xhtml"><polygon fill="#fff" stroke="#000" points="473.97 -261.5 473.97 -280.5 542.97 -280.5 542.97 -261.5 473.97 -261.5"/><text x="508.47" y="-268.5" font-family="Helvetica,sans-Serif" font-size="10" text-anchor="middle">metaIndex</text></a></g></g><g id="edge19" class="edge"><title>Node6-&gt;Node12</title><path fill="none" stroke="#9a32cd" stroke-dasharray="5 2" d="M440.6,-587.33C442.06,-584.29 443.42,-581.1 444.47,-578 480.4,-471.14 457.99,-436.82 487.47,-328 492.14,-310.76 500.01,-291.41 504.68,-280.56"/><polygon fill="#9a32cd" stroke="#9a32cd" points="437.44 -585.83 435.85 -596.3 443.62 -589.11 437.44 -585.83"/><text x="509.47" y="-468" font-family="Helvetica,sans-Serif" font-size="10" text-anchor="middle">Codename</text><text x="509.47" y="-457" font-family="Helvetica,sans-Serif" font-size="10" text-anchor="middle">Dist</text><text x="509.47" y="-446" font-family="Helvetica,sans-Serif" font-size="10" text-anchor="middle">Label</text><text x="509.47" y="-435" font-family="Helvetica,sans-Serif" font-size="10" text-anchor="middle">Origin</text><text x="509.47" y="-424" font-family="Helvetica,sans-Serif" font-size="10" text-anchor="middle">ReleaseNotes</text><text x="509.47" y="-413" font-family="Helvetica,sans-Serif" font-size="10" text-anchor="middle">SignedBy</text><text x="509.47" y="-402" font-family="Helvetica,sans-Serif" font-size="10" text-anchor="middle">Suite</text><text x="509.47" y="-391" font-family="Helvetica,sans-Serif" font-size="10" text-anchor="middle">URI</text><text x="509.47" y="-380" font-family="Helvetica,sans-Serif" font-size="10" text-anchor="middle">Version</text></g><g id="node15" class="node"><title>Node15</title><g id="a_node15"><a><polygon fill="#fff" stroke="#bfbfbf" points="654.97 -328.5 654.97 -358.5 811.97 -358.5 811.97 -328.5 654.97 -328.5"/><text x="662.97" y="-346.5" font-family="Helvetica,sans-Serif" font-size="10" text-anchor="start">map&lt; std::string, metaIndex</text><text x="733.47" y="-335.5" font-family="Helvetica,sans-Serif" font-size="10" text-anchor="middle">::checkSum * &gt;</text></a></g></g><g id="edge21" class="edge"><title>Node6-&gt;Node15</title><path fill="none" stroke="#9a32cd" stroke-dasharray="5 2" d="M462.72,-599.61C501.56,-591.75 567.1,-573.98 611.47,-538 674.55,-486.85 714.7,-393.94 728.3,-358.63"/><polygon fill="#9a32cd" stroke="#9a32cd" points="461.67 -596.25 452.51 -601.57 462.99 -603.12 461.67 -596.25"/><text x="664.47" y="-513.5" font-family="Helvetica,sans-Serif" font-size="10" text-anchor="middle">keys</text></g><g id="node16" class="node"><title>Node16</title><g id="a_node16"><a target="_top" xlink:href="structmetaIndex_1_1checkSum.xhtml"><polygon fill="#fff" stroke="#000" points="699.97 -506.5 699.97 -525.5 766.97 -525.5 766.97 -506.5 699.97 -506.5"/><text x="733.47" y="-513.5" font-family="Helvetica,sans-Serif" font-size="10" text-anchor="middle">checkSum</text></a></g></g><g id="edge24" class="edge"><title>Node6-&gt;Node16</title><path fill="none" stroke="#9a32cd" stroke-dasharray="5 2" d="M462.64,-603.85C515.46,-601.51 617.85,-594.88 649.47,-578 660.86,-571.91 658.58,-564.32 668.47,-556 683.17,-543.63 702.24,-532.68 715.92,-525.56"/><polygon fill="#9a32cd" stroke="#9a32cd" points="462.31 -600.37 452.47 -604.28 462.61 -607.36 462.31 -600.37"/><text x="713.97" y="-564.5" font-family="Helvetica,sans-Serif" font-size="10" text-anchor="middle">MetaKeyFilename</text></g><g id="node7" class="node"><title>Node7</title><g id="a_node7"><a><polygon fill="#fff" stroke="#bfbfbf" points="370.47 -653.5 370.47 -672.5 490.47 -672.5 490.47 -653.5 370.47 -653.5"/><text x="430.47" y="-660.5" font-family="Helvetica,sans-Serif" font-size="10" text-anchor="middle">basic_string&lt; Char &gt;</text></a></g></g><g id="edge6" class="edge"><title>Node7-&gt;Node6</title><path fill="none" stroke="#191970" d="M430.47,-643.12C430.47,-633.82 430.47,-623.06 430.47,-615.71"/><polygon fill="#191970" stroke="#191970" points="426.97 -643.41 430.47 -653.41 433.97 -643.41 426.97 -643.41"/></g><g id="node8" class="node"><title>Node8</title><g id="a_node8"><a target="_top" xlink:href="classpkgAcqMetaClearSig.xhtml" xlink:title="An item responsible for downloading clearsigned metaindexes {{{."><polygon fill="#fff" stroke="#000" points="144.47 -.5 144.47 -19.5 262.47 -19.5 262.47 -.5 144.47 -.5"/><text x="203.47" y="-7.5" font-family="Helvetica,sans-Serif" font-size="10" text-anchor="middle">pkgAcqMetaClearSig</text></a></g></g><g id="edge8" class="edge"><title>Node8-&gt;Node2</title><path fill="none" stroke="#9a32cd" stroke-dasharray="5 2" d="M174.43,-24.22C135.39,-44.17 72.47,-85.08 87.47,-136 103.45,-190.28 112.66,-207.18 156.47,-243 166.62,-251.31 179.64,-257.28 191.63,-261.46"/><polygon fill="#9a32cd" stroke="#9a32cd" points="176.36 -27.17 183.78 -19.61 173.27 -20.9 176.36 -27.17"/><text x="138.47" y="-122.5" font-family="Helvetica,sans-Serif" font-size="10" text-anchor="middle">TransactionManager</text></g><g id="edge9" class="edge"><title>Node9-&gt;Node8</title><path fill="none" stroke="#191970" d="M203.47,-47.12C203.47,-37.82 203.47,-27.06 203.47,-19.71"/><polygon fill="#191970" stroke="#191970" points="199.97 -47.41 203.47 -57.41 206.97 -47.41 199.97 -47.41"/></g><g id="edge10" class="edge"><title>Node10-&gt;Node9</title><path fill="none" stroke="#191970" d="M235.86,-107.43C227.51,-97.27 217.17,-84.69 210.45,-76.51"/><polygon fill="#191970" stroke="#191970" points="233.23 -109.74 242.28 -115.25 238.64 -105.3 233.23 -109.74"/></g><g id="edge12" class="edge"><title>Node11-&gt;Node10</title><path fill="none" stroke="#9a32cd" stroke-dasharray="5 2" d="M236.88,-173.36C240.43,-160.01 244.62,-144.25 247.16,-134.7"/><polygon fill="#9a32cd" stroke="#9a32cd" points="233.41 -172.81 234.22 -183.37 240.17 -174.61 233.41 -172.81"/><text x="270.97" y="-157" font-family="Helvetica,sans-Serif" font-size="10" text-anchor="middle">Transaction</text></g><g id="edge16" class="edge"><title>Node12-&gt;Node8</title><path fill="none" stroke="#9a32cd" stroke-dasharray="5 2" d="M497.21,-252.46C489.43,-238.63 480.47,-218.58 480.47,-199.5 480.47,-199.5 480.47,-199.5 480.47,-66 480.47,-21.94 343.9,-12.63 262.55,-11"/><polygon fill="#9a32cd" stroke="#9a32cd" points="494.38 -254.54 502.53 -261.32 500.39 -250.94 494.38 -254.54"/><text x="533.47" y="-128" font-family="Helvetica,sans-Serif" font-size="10" text-anchor="middle">LastMetaIndexParser</text><text x="533.47" y="-117" font-family="Helvetica,sans-Serif" font-size="10" text-anchor="middle">MetaIndexParser</text></g><g id="node13" class="node"><title>Node13</title><g id="a_node13"><a><polygon fill="#fff" stroke="#bfbfbf" points="496.47 -334 496.47 -353 636.47 -353 636.47 -334 496.47 -334"/><text x="566.47" y="-341" font-family="Helvetica,sans-Serif" font-size="10" text-anchor="middle">vector&lt; pkgIndexFile * &gt;</text></a></g></g><g id="edge17" class="edge"><title>Node13-&gt;Node12</title><path fill="none" stroke="#9a32cd" stroke-dasharray="5 2" d="M552.81,-325.9C541.16,-311.74 524.88,-291.96 515.64,-280.72"/><polygon fill="#9a32cd" stroke="#9a32cd" points="550.3 -328.36 559.35 -333.86 555.7 -323.91 550.3 -328.36"/><text x="558.97" y="-302" font-family="Helvetica,sans-Serif" font-size="10" text-anchor="middle">Indexes</text></g><g id="node14" class="node"><title>Node14</title><g id="a_node14"><a target="_top" xlink:href="classpkgIndexFile.xhtml"><polygon fill="#fff" stroke="#000" points="522.97 -506.5 522.97 -525.5 601.97 -525.5 601.97 -506.5 522.97 -506.5"/><text x="562.47" y="-513.5" font-family="Helvetica,sans-Serif" font-size="10" text-anchor="middle">pkgIndexFile</text></a></g></g><g id="edge18" class="edge"><title>Node14-&gt;Node13</title><path fill="none" stroke="#9a32cd" stroke-dasharray="5 2" d="M562.91,-496.02C563.77,-459.33 565.63,-379.96 566.26,-353.38"/><polygon fill="#9a32cd" stroke="#9a32cd" points="559.41 -496.23 562.67 -506.31 566.4 -496.4 559.41 -496.23"/><text x="589.97" y="-424" font-family="Helvetica,sans-Serif" font-size="10" text-anchor="middle">elements</text></g><g id="edge20" class="edge"><title>Node15-&gt;Node12</title><path fill="none" stroke="#9a32cd" stroke-dasharray="5 2" d="M679.07,-325.46C633.79,-311.27 571.19,-291.65 535.77,-280.55"/><polygon fill="#9a32cd" stroke="#9a32cd" points="678.16 -328.84 688.74 -328.49 680.25 -322.16 678.16 -328.84"/><text x="645.97" y="-302" font-family="Helvetica,sans-Serif" font-size="10" text-anchor="middle">Entries</text></g><g id="edge22" class="edge"><title>Node16-&gt;Node15</title><path fill="none" stroke="#9a32cd" stroke-dasharray="5 2" d="M733.47,-496.21C733.47,-461.77 733.47,-389.27 733.47,-358.64"/><polygon fill="#9a32cd" stroke="#9a32cd" points="729.97 -496.31 733.47 -506.31 736.97 -496.31 729.97 -496.31"/><text x="757.97" y="-424" font-family="Helvetica,sans-Serif" font-size="10" text-anchor="middle">elements</text></g><g id="node17" class="node"><title>Node17</title><g id="a_node17"><a target="_top" xlink:href="classHashStringList.xhtml"><polygon fill="#fff" stroke="#000" points="741.97 -596.5 741.97 -615.5 828.97 -615.5 828.97 -596.5 741.97 -596.5"/><text x="785.47" y="-603.5" font-family="Helvetica,sans-Serif" font-size="10" text-anchor="middle">HashStringList</text></a></g></g><g id="edge23" class="edge"><title>Node17-&gt;Node16</title><path fill="none" stroke="#9a32cd" stroke-dasharray="5 2" d="M778.5,-586.82C774.58,-577.36 769.31,-565.77 763.47,-556 756.8,-544.86 747.48,-533.2 741,-525.56"/><polygon fill="#9a32cd" stroke="#9a32cd" points="775.35 -588.38 782.3 -596.38 781.86 -585.79 775.35 -588.38"/><text x="793.47" y="-564.5" font-family="Helvetica,sans-Serif" font-size="10" text-anchor="middle">Hashes</text></g></g></svg>