<?xml version="1.0" encoding="UTF-8" standalone="no"?>
<!DOCTYPE svg PUBLIC "-//W3C//DTD SVG 1.1//EN"
 "http://www.w3.org/Graphics/SVG/1.1/DTD/svg11.dtd">
<!-- Generated by graphviz version 2.43.0 (0)
 -->
<!-- Title: PackageCopy Pages: 1 -->
<svg width="95pt" height="152pt"
 viewBox="0.00 0.00 95.00 152.00" xmlns="http://www.w3.org/2000/svg" xmlns:xlink="http://www.w3.org/1999/xlink">
<g id="graph0" class="graph" transform="scale(1 1) rotate(0) translate(4 148)">
<title>PackageCopy</title>
<polygon fill="white" stroke="transparent" points="-4,4 -4,-148 91,-148 91,4 -4,4"/>
<!-- Node1 -->
<g id="node1" class="node">
<title>Node1</title>
<g id="a_node1"><a xlink:title=" ">
<polygon fill="#bfbfbf" stroke="black" points="3,-0.5 3,-19.5 84,-19.5 84,-0.5 3,-0.5"/>
<text text-anchor="middle" x="43.5" y="-7.5" font-family="Helvetica,sans-Serif" font-size="10.00">PackageCopy</text>
</a>
</g>
</g>
<!-- Node2 -->
<g id="node2" class="node">
<title>Node2</title>
<g id="a_node2"><a xlink:href="classIndexCopy.xhtml" target="_top" xlink:title=" ">
<polygon fill="white" stroke="black" points="9.5,-57.5 9.5,-76.5 77.5,-76.5 77.5,-57.5 9.5,-57.5"/>
<text text-anchor="middle" x="43.5" y="-64.5" font-family="Helvetica,sans-Serif" font-size="10.00">IndexCopy</text>
</a>
</g>
</g>
<!-- Node2&#45;&gt;Node1 -->
<g id="edge1" class="edge">
<title>Node2&#45;&gt;Node1</title>
<path fill="none" stroke="midnightblue" d="M43.5,-47.12C43.5,-37.82 43.5,-27.06 43.5,-19.71"/>
<polygon fill="midnightblue" stroke="midnightblue" points="40,-47.41 43.5,-57.41 47,-47.41 40,-47.41"/>
</g>
<!-- Node3 -->
<g id="node3" class="node">
<title>Node3</title>
<g id="a_node3"><a xlink:href="classpkgTagSection.xhtml" target="_top" xlink:title=" ">
<polygon fill="white" stroke="black" points="0,-124.5 0,-143.5 87,-143.5 87,-124.5 0,-124.5"/>
<text text-anchor="middle" x="43.5" y="-131.5" font-family="Helvetica,sans-Serif" font-size="10.00">pkgTagSection</text>
</a>
</g>
</g>
<!-- Node3&#45;&gt;Node2 -->
<g id="edge2" class="edge">
<title>Node3&#45;&gt;Node2</title>
<path fill="none" stroke="#9a32cd" stroke-dasharray="5,2" d="M43.5,-114.04C43.5,-101.67 43.5,-86.12 43.5,-76.63"/>
<polygon fill="#9a32cd" stroke="#9a32cd" points="40,-114.23 43.5,-124.23 47,-114.23 40,-114.23"/>
<text text-anchor="middle" x="63.5" y="-98" font-family="Helvetica,sans-Serif" font-size="10.00"> Section</text>
</g>
</g>
</svg>
