<svg xmlns="http://www.w3.org/2000/svg" xmlns:xlink="http://www.w3.org/1999/xlink" width="288" height="140pt" viewBox="0 0 215.5 140"><g id="graph0" class="graph" transform="scale(1 1) rotate(0) translate(4 136)"><title>debSLTypeDebian</title><polygon fill="#fff" stroke="transparent" points="-4 4 -4 -136 211.5 -136 211.5 4 -4 4"/><g id="node1" class="node"><title>Node1</title><g id="a_node1"><a><polygon fill="#bfbfbf" stroke="#000" points="48.5 -56.5 48.5 -75.5 150.5 -75.5 150.5 -56.5 48.5 -56.5"/><text x="99.5" y="-63.5" font-family="Helvetica,sans-Serif" font-size="10" text-anchor="middle">debSLTypeDebian</text></a></g></g><g id="node3" class="node"><title>Node3</title><g id="a_node3"><a target="_top" xlink:href="classdebSLTypeDeb.xhtml"><polygon fill="#fff" stroke="#000" points="0 -.5 0 -19.5 87 -19.5 87 -.5 0 -.5"/><text x="43.5" y="-7.5" font-family="Helvetica,sans-Serif" font-size="10" text-anchor="middle">debSLTypeDeb</text></a></g></g><g id="edge2" class="edge"><title>Node1-&gt;Node3</title><path fill="none" stroke="#191970" d="M83.17,-49.25C73.24,-39.67 60.91,-27.79 52.66,-19.83"/><polygon fill="#191970" stroke="#191970" points="80.87 -51.9 90.5 -56.32 85.73 -46.86 80.87 -51.9"/></g><g id="node4" class="node"><title>Node4</title><g id="a_node4"><a target="_top" xlink:href="classdebSLTypeDebSrc.xhtml"><polygon fill="#fff" stroke="#000" points="105.5 -.5 105.5 -19.5 207.5 -19.5 207.5 -.5 105.5 -.5"/><text x="156.5" y="-7.5" font-family="Helvetica,sans-Serif" font-size="10" text-anchor="middle">debSLTypeDebSrc</text></a></g></g><g id="edge3" class="edge"><title>Node1-&gt;Node4</title><path fill="none" stroke="#191970" d="M116.12,-49.25C126.23,-39.67 138.78,-27.79 147.18,-19.83"/><polygon fill="#191970" stroke="#191970" points="113.51 -46.91 108.66 -56.32 118.32 -51.99 113.51 -46.91"/></g><g id="node2" class="node"><title>Node2</title><g id="a_node2"><a target="_top" xlink:href="classpkgSourceList_1_1Type.xhtml"><polygon fill="#fff" stroke="#000" points="80 -112.5 80 -131.5 119 -131.5 119 -112.5 80 -112.5"/><text x="99.5" y="-119.5" font-family="Helvetica,sans-Serif" font-size="10" text-anchor="middle">Type</text></a></g></g><g id="edge1" class="edge"><title>Node2-&gt;Node1</title><path fill="none" stroke="#191970" d="M99.5,-101.8C99.5,-92.91 99.5,-82.78 99.5,-75.75"/><polygon fill="#191970" stroke="#191970" points="96 -102.08 99.5 -112.08 103 -102.08 96 -102.08"/></g></g></svg>