<svg xmlns="http://www.w3.org/2000/svg" xmlns:xlink="http://www.w3.org/1999/xlink" width="182pt" height="112" viewBox="0 0 181.5 84"><g id="graph0" class="graph" transform="scale(1 1) rotate(0) translate(4 80)"><title>IndexCopy</title><polygon fill="#fff" stroke="transparent" points="-4 4 -4 -80 177.5 -80 177.5 4 -4 4"/><g id="node1" class="node"><title>Node1</title><g id="a_node1"><a><polygon fill="#bfbfbf" stroke="#000" points="54.5 -56.5 54.5 -75.5 122.5 -75.5 122.5 -56.5 54.5 -56.5"/><text x="88.5" y="-63.5" font-family="Helvetica,sans-Serif" font-size="10" text-anchor="middle">IndexCopy</text></a></g></g><g id="node2" class="node"><title>Node2</title><g id="a_node2"><a target="_top" xlink:href="classPackageCopy.xhtml"><polygon fill="#fff" stroke="#000" points="0 -.5 0 -19.5 81 -19.5 81 -.5 0 -.5"/><text x="40.5" y="-7.5" font-family="Helvetica,sans-Serif" font-size="10" text-anchor="middle">PackageCopy</text></a></g></g><g id="edge1" class="edge"><title>Node1-&gt;Node2</title><path fill="none" stroke="#191970" d="M73.77,-48.43C65.36,-38.97 55.15,-27.48 48.28,-19.75"/><polygon fill="#191970" stroke="#191970" points="71.31 -50.93 80.57 -56.08 76.55 -46.28 71.31 -50.93"/></g><g id="node3" class="node"><title>Node3</title><g id="a_node3"><a target="_top" xlink:href="classSourceCopy.xhtml"><polygon fill="#fff" stroke="#000" points="99.5 -.5 99.5 -19.5 173.5 -19.5 173.5 -.5 99.5 -.5"/><text x="136.5" y="-7.5" font-family="Helvetica,sans-Serif" font-size="10" text-anchor="middle">SourceCopy</text></a></g></g><g id="edge2" class="edge"><title>Node1-&gt;Node3</title><path fill="none" stroke="#191970" d="M103.23,-48.43C111.64,-38.97 121.85,-27.48 128.72,-19.75"/><polygon fill="#191970" stroke="#191970" points="100.45 -46.28 96.43 -56.08 105.69 -50.93 100.45 -46.28"/></g></g></svg>