<svg xmlns="http://www.w3.org/2000/svg" xmlns:xlink="http://www.w3.org/1999/xlink" width="904pt" height="701pt" viewBox="0 0 904 701"><g id="graph0" class="graph" transform="scale(1 1) rotate(0) translate(4 697)"><title>pkgAcqIndexDiffs</title><polygon fill="#fff" stroke="transparent" points="-4 4 -4 -697 900 -697 900 4 -4 4"/><g id="node1" class="node"><title>Node1</title><g id="a_node1"><a xlink:title="An item that is responsible for fetching server-merge patches {{{ that need to be applied to a given ..."><polygon fill="#bfbfbf" stroke="#000" points="462 -115.5 462 -134.5 564 -134.5 564 -115.5 462 -115.5"/><text x="513" y="-122.5" font-family="Helvetica,sans-Serif" font-size="10" text-anchor="middle">pkgAcqIndexDiffs</text></a></g></g><g id="node2" class="node"><title>Node2</title><g id="a_node2"><a target="_top" xlink:href="classpkgAcqBaseIndex.xhtml" xlink:title="Common base class for all classes that deal with fetching indexes {{{."><polygon fill="#fff" stroke="#000" points="272 -189 272 -208 376 -208 376 -189 272 -189"/><text x="324" y="-196" font-family="Helvetica,sans-Serif" font-size="10" text-anchor="middle">pkgAcqBaseIndex</text></a></g></g><g id="edge1" class="edge"><title>Node2-&gt;Node1</title><path fill="none" stroke="#191970" d="M356.42,-185.24C394.62,-170.78 457.1,-147.15 490.42,-134.54"/><polygon fill="#191970" stroke="#191970" points="354.91 -182.06 346.8 -188.88 357.39 -188.61 354.91 -182.06"/></g><g id="node3" class="node"><title>Node3</title><g id="a_node3"><a target="_top" xlink:href="classpkgAcqTransactionItem.xhtml" xlink:title="baseclass for the indexes files to manage them all together"><polygon fill="#fff" stroke="#000" points="178.5 -261.5 178.5 -280.5 309.5 -280.5 309.5 -261.5 178.5 -261.5"/><text x="244" y="-268.5" font-family="Helvetica,sans-Serif" font-size="10" text-anchor="middle">pkgAcqTransactionItem</text></a></g></g><g id="edge2" class="edge"><title>Node3-&gt;Node2</title><path fill="none" stroke="#191970" d="M261.49,-254.58C277.62,-240.37 300.99,-219.77 314.11,-208.22"/><polygon fill="#191970" stroke="#191970" points="259 -252.12 253.81 -261.36 263.63 -257.37 259 -252.12"/></g><g id="node11" class="node"><title>Node11</title><g id="a_node11"><a target="_top" xlink:href="classpkgAcqMetaBase.xhtml" xlink:title="the manager of a transaction"><polygon fill="#fff" stroke="#000" points="175.5 -115.5 175.5 -134.5 276.5 -134.5 276.5 -115.5 175.5 -115.5"/><text x="226" y="-122.5" font-family="Helvetica,sans-Serif" font-size="10" text-anchor="middle">pkgAcqMetaBase</text></a></g></g><g id="edge12" class="edge"><title>Node3-&gt;Node11</title><path fill="none" stroke="#191970" d="M241.86,-251.19C239.21,-228.24 234.51,-188.24 230,-154 229.15,-147.57 228.12,-140.33 227.31,-134.82"/><polygon fill="#191970" stroke="#191970" points="238.4 -251.72 243.01 -261.26 245.35 -250.93 238.4 -251.72"/></g><g id="node12" class="node"><title>Node12</title><g id="a_node12"><a><polygon fill="#fff" stroke="#bfbfbf" points="66 -183.5 66 -213.5 216 -213.5 216 -183.5 66 -183.5"/><text x="74" y="-201.5" font-family="Helvetica,sans-Serif" font-size="10" text-anchor="start">vector&lt; pkgAcqTransaction</text><text x="141" y="-190.5" font-family="Helvetica,sans-Serif" font-size="10" text-anchor="middle">Item * &gt;</text></a></g></g><g id="edge14" class="edge"><title>Node3-&gt;Node12</title><path fill="none" stroke="#9a32cd" stroke-dasharray="5 2" d="M207.9,-257.62C198.71,-253.65 189.15,-248.77 181,-243 169.61,-234.94 159.03,-223.16 151.62,-213.9"/><polygon fill="#9a32cd" stroke="#9a32cd" points="206.68 -260.9 217.26 -261.41 209.31 -254.41 206.68 -260.9"/><text x="205.5" y="-235" font-family="Helvetica,sans-Serif" font-size="10" text-anchor="middle">elements</text></g><g id="node4" class="node"><title>Node4</title><g id="a_node4"><a><polygon fill="#fff" stroke="#bfbfbf" points="233.5 -343 233.5 -362 272.5 -362 272.5 -343 233.5 -343"/><text x="253" y="-350" font-family="Helvetica,sans-Serif" font-size="10" text-anchor="middle">Item</text></a></g></g><g id="edge3" class="edge"><title>Node4-&gt;Node3</title><path fill="none" stroke="#191970" d="M250.89,-332.91C249.03,-316.45 246.4,-293.16 244.98,-280.69"/><polygon fill="#191970" stroke="#191970" points="247.43 -333.45 252.04 -342.99 254.39 -332.66 247.43 -333.45"/></g><g id="node5" class="node"><title>Node5</title><g id="a_node5"><a target="_top" xlink:href="classIndexTarget.xhtml" xlink:title="Information about an index file."><polygon fill="#fff" stroke="#000" points="322 -343 322 -362 396 -362 396 -343 322 -343"/><text x="359" y="-350" font-family="Helvetica,sans-Serif" font-size="10" text-anchor="middle">IndexTarget</text></a></g></g><g id="edge4" class="edge"><title>Node5-&gt;Node3</title><path fill="none" stroke="#9a32cd" stroke-dasharray="5 2" d="M338.36,-337.23C314.58,-320.79 276.26,-294.3 256.57,-280.69"/><polygon fill="#9a32cd" stroke="#9a32cd" points="336.48 -340.18 346.69 -342.99 340.46 -334.43 336.48 -340.18"/><text x="328" y="-306.5" font-family="Helvetica,sans-Serif" font-size="10" text-anchor="middle">Target</text></g><g id="node10" class="node"><title>Node10</title><g id="a_node10"><a target="_top" xlink:href="classpkgAcqMetaIndex.xhtml" xlink:title="An item that is responsible for downloading the meta-index {{{ file (i.e., Release) itself and verify..."><polygon fill="#fff" stroke="#000" points="307 -57.5 307 -76.5 411 -76.5 411 -57.5 307 -57.5"/><text x="359" y="-64.5" font-family="Helvetica,sans-Serif" font-size="10" text-anchor="middle">pkgAcqMetaIndex</text></a></g></g><g id="edge16" class="edge"><title>Node5-&gt;Node10</title><path fill="none" stroke="#9a32cd" stroke-dasharray="5 2" d="M377.24,-336.14C392.57,-321.43 412,-297.71 412,-272 412,-272 412,-272 412,-124 412,-102.45 391.04,-85.86 375.48,-76.51"/><polygon fill="#9a32cd" stroke="#9a32cd" points="374.77 -333.66 369.73 -342.98 379.48 -338.84 374.77 -333.66"/><text x="459.5" y="-196" font-family="Helvetica,sans-Serif" font-size="10" text-anchor="middle">DetachedSigTarget</text></g><g id="node6" class="node"><title>Node6</title><g id="a_node6"><a><polygon fill="#fff" stroke="#bfbfbf" points="233.5 -510 233.5 -540 352.5 -540 352.5 -510 233.5 -510"/><text x="241.5" y="-528" font-family="Helvetica,sans-Serif" font-size="10" text-anchor="start">map&lt; std::string, std</text><text x="293" y="-517" font-family="Helvetica,sans-Serif" font-size="10" text-anchor="middle">::string &gt;</text></a></g></g><g id="edge5" class="edge"><title>Node6-&gt;Node5</title><path fill="none" stroke="#9a32cd" stroke-dasharray="5 2" d="M297.38,-499.79C303.15,-471.41 314.85,-423.5 334,-386 338.53,-377.12 345.59,-368.24 351.05,-362"/><polygon fill="#9a32cd" stroke="#9a32cd" points="293.94 -499.16 295.46 -509.64 300.81 -500.5 293.94 -499.16"/><text x="354.5" y="-433" font-family="Helvetica,sans-Serif" font-size="10" text-anchor="middle">Options</text></g><g id="node7" class="node"><title>Node7</title><g id="a_node7"><a><polygon fill="#fff" stroke="#bfbfbf" points="393 -616.5 393 -635.5 437 -635.5 437 -616.5 393 -616.5"/><text x="415" y="-623.5" font-family="Helvetica,sans-Serif" font-size="10" text-anchor="middle">string</text></a></g></g><g id="edge26" class="edge"><title>Node7-&gt;Node3</title><path fill="none" stroke="#9a32cd" stroke-dasharray="5 2" d="M382.86,-623.53C336.85,-619.42 254.41,-604.03 224,-547 174.22,-453.65 225.29,-316.53 240.19,-280.78"/><polygon fill="#9a32cd" stroke="#9a32cd" points="382.66 -627.03 392.9 -624.3 383.2 -620.05 382.66 -627.03"/><text x="235" y="-433" font-family="Helvetica,sans-Serif" font-size="10" text-anchor="middle">PartialFile</text></g><g id="edge8" class="edge"><title>Node7-&gt;Node5</title><path fill="none" stroke="#9a32cd" stroke-dasharray="5 2" d="M410.88,-606.35C407.46,-590.59 402.61,-567.37 399,-547 386.39,-475.76 396.57,-455.06 375,-386 372.34,-377.48 367.71,-368.41 364.11,-362.02"/><polygon fill="#9a32cd" stroke="#9a32cd" points="407.51 -607.35 413.07 -616.37 414.35 -605.86 407.51 -607.35"/><text x="428.5" y="-539" font-family="Helvetica,sans-Serif" font-size="10" text-anchor="middle">Description</text><text x="428.5" y="-528" font-family="Helvetica,sans-Serif" font-size="10" text-anchor="middle">MetaKey</text><text x="428.5" y="-517" font-family="Helvetica,sans-Serif" font-size="10" text-anchor="middle">ShortDesc</text><text x="428.5" y="-506" font-family="Helvetica,sans-Serif" font-size="10" text-anchor="middle">URI</text></g><g id="edge6" class="edge"><title>Node7-&gt;Node6</title><path fill="none" stroke="#9a32cd" stroke-dasharray="5 2" d="M382.75,-621.8C364.28,-618.48 341.73,-611.74 326,-598 308.6,-582.81 299.83,-556.55 295.85,-540.29"/><polygon fill="#9a32cd" stroke="#9a32cd" points="382.38 -625.28 392.79 -623.35 383.44 -618.36 382.38 -625.28"/><text x="350.5" y="-584.5" font-family="Helvetica,sans-Serif" font-size="10" text-anchor="middle">elements</text><text x="350.5" y="-573.5" font-family="Helvetica,sans-Serif" font-size="10" text-anchor="middle">keys</text></g><g id="edge15" class="edge"><title>Node7-&gt;Node11</title><path fill="none" stroke="#9a32cd" stroke-dasharray="5 2" d="M382.84,-624.2C285.39,-620.93 0,-604.62 0,-526 0,-526 0,-526 0,-197.5 0,-160.98 108.65,-140.73 175.28,-131.74"/><polygon fill="#9a32cd" stroke="#9a32cd" points="382.88 -627.71 392.98 -624.52 383.09 -620.71 382.88 -627.71"/><text x="22.5" y="-306.5" font-family="Helvetica,sans-Serif" font-size="10" text-anchor="middle">BaseURI</text></g><g id="node13" class="node"><title>Node13</title><g id="a_node13"><a target="_top" xlink:href="classmetaIndex.xhtml"><polygon fill="#fff" stroke="#000" points="615.5 -261.5 615.5 -280.5 684.5 -280.5 684.5 -261.5 615.5 -261.5"/><text x="650" y="-268.5" font-family="Helvetica,sans-Serif" font-size="10" text-anchor="middle">metaIndex</text></a></g></g><g id="edge20" class="edge"><title>Node7-&gt;Node13</title><path fill="none" stroke="#9a32cd" stroke-dasharray="5 2" d="M446.74,-615.81C458.72,-611.49 472.08,-605.59 483,-598 508.06,-580.58 516.48,-574.84 529,-547 567.94,-460.42 510.35,-412.42 568,-337 586.87,-312.32 617.12,-291.61 635.12,-280.58"/><polygon fill="#9a32cd" stroke="#9a32cd" points="445.44 -612.55 437.09 -619.07 447.68 -619.18 445.44 -612.55"/><text x="577" y="-477" font-family="Helvetica,sans-Serif" font-size="10" text-anchor="middle">Codename</text><text x="577" y="-466" font-family="Helvetica,sans-Serif" font-size="10" text-anchor="middle">Dist</text><text x="577" y="-455" font-family="Helvetica,sans-Serif" font-size="10" text-anchor="middle">Label</text><text x="577" y="-444" font-family="Helvetica,sans-Serif" font-size="10" text-anchor="middle">Origin</text><text x="577" y="-433" font-family="Helvetica,sans-Serif" font-size="10" text-anchor="middle">ReleaseNotes</text><text x="577" y="-422" font-family="Helvetica,sans-Serif" font-size="10" text-anchor="middle">SignedBy</text><text x="577" y="-411" font-family="Helvetica,sans-Serif" font-size="10" text-anchor="middle">Suite</text><text x="577" y="-400" font-family="Helvetica,sans-Serif" font-size="10" text-anchor="middle">URI</text><text x="577" y="-389" font-family="Helvetica,sans-Serif" font-size="10" text-anchor="middle">Version</text></g><g id="node16" class="node"><title>Node16</title><g id="a_node16"><a><polygon fill="#fff" stroke="#bfbfbf" points="576.5 -337.5 576.5 -367.5 733.5 -367.5 733.5 -337.5 576.5 -337.5"/><text x="584.5" y="-355.5" font-family="Helvetica,sans-Serif" font-size="10" text-anchor="start">map&lt; std::string, metaIndex</text><text x="655" y="-344.5" font-family="Helvetica,sans-Serif" font-size="10" text-anchor="middle">::checkSum * &gt;</text></a></g></g><g id="edge22" class="edge"><title>Node7-&gt;Node16</title><path fill="none" stroke="#9a32cd" stroke-dasharray="5 2" d="M447.06,-622.48C484.73,-618.95 544.34,-611.42 562,-598 600.96,-568.4 640.23,-415.37 651.68,-367.7"/><polygon fill="#9a32cd" stroke="#9a32cd" points="446.72 -619 437.07 -623.37 447.34 -625.97 446.72 -619"/><text x="625" y="-522.5" font-family="Helvetica,sans-Serif" font-size="10" text-anchor="middle">keys</text></g><g id="node17" class="node"><title>Node17</title><g id="a_node17"><a target="_top" xlink:href="structmetaIndex_1_1checkSum.xhtml"><polygon fill="#fff" stroke="#000" points="656.5 -515.5 656.5 -534.5 723.5 -534.5 723.5 -515.5 656.5 -515.5"/><text x="690" y="-522.5" font-family="Helvetica,sans-Serif" font-size="10" text-anchor="middle">checkSum</text></a></g></g><g id="edge25" class="edge"><title>Node7-&gt;Node17</title><path fill="none" stroke="#9a32cd" stroke-dasharray="5 2" d="M447.22,-623.97C498.07,-621.82 594.16,-615.51 623,-598 638.28,-588.72 634.12,-578.36 646,-565 656.18,-553.56 669.53,-542.14 678.85,-534.64"/><polygon fill="#9a32cd" stroke="#9a32cd" points="446.95 -620.47 437.09 -624.36 447.22 -627.47 446.95 -620.47"/><text x="691.5" y="-579" font-family="Helvetica,sans-Serif" font-size="10" text-anchor="middle">MetaKeyFilename</text></g><g id="node20" class="node"><title>Node20</title><g id="a_node20"><a target="_top" xlink:href="structDiffInfo.xhtml"><polygon fill="#fff" stroke="#000" points="466.5 -515.5 466.5 -534.5 519.5 -534.5 519.5 -515.5 466.5 -515.5"/><text x="493" y="-522.5" font-family="Helvetica,sans-Serif" font-size="10" text-anchor="middle">DiffInfo</text></a></g></g><g id="edge30" class="edge"><title>Node7-&gt;Node20</title><path fill="none" stroke="#9a32cd" stroke-dasharray="5 2" d="M428.12,-608.35C444.88,-587.08 473.26,-551.05 486.2,-534.62"/><polygon fill="#9a32cd" stroke="#9a32cd" points="425.36 -606.19 421.92 -616.21 430.86 -610.53 425.36 -606.19"/><text x="469.5" y="-579" font-family="Helvetica,sans-Serif" font-size="10" text-anchor="middle">file</text></g><g id="node8" class="node"><title>Node8</title><g id="a_node8"><a><polygon fill="#fff" stroke="#bfbfbf" points="355 -673.5 355 -692.5 475 -692.5 475 -673.5 355 -673.5"/><text x="415" y="-680.5" font-family="Helvetica,sans-Serif" font-size="10" text-anchor="middle">basic_string&lt; Char &gt;</text></a></g></g><g id="edge7" class="edge"><title>Node8-&gt;Node7</title><path fill="none" stroke="#191970" d="M415,-663.12C415,-653.82 415,-643.06 415,-635.71"/><polygon fill="#191970" stroke="#191970" points="411.5 -663.41 415 -673.41 418.5 -663.41 411.5 -663.41"/></g><g id="node9" class="node"><title>Node9</title><g id="a_node9"><a target="_top" xlink:href="classpkgAcqMetaClearSig.xhtml" xlink:title="An item responsible for downloading clearsigned metaindexes {{{."><polygon fill="#fff" stroke="#000" points="300 -.5 300 -19.5 418 -19.5 418 -.5 300 -.5"/><text x="359" y="-7.5" font-family="Helvetica,sans-Serif" font-size="10" text-anchor="middle">pkgAcqMetaClearSig</text></a></g></g><g id="edge9" class="edge"><title>Node9-&gt;Node3</title><path fill="none" stroke="#9a32cd" stroke-dasharray="5 2" d="M289.7,-16.04C195.32,-23.85 38,-40.67 38,-66 38,-199.5 38,-199.5 38,-199.5 38,-230.73 123.84,-251.02 184.69,-261.48"/><polygon fill="#9a32cd" stroke="#9a32cd" points="290.07 -19.52 299.75 -15.22 289.5 -12.54 290.07 -19.52"/><text x="89" y="-122.5" font-family="Helvetica,sans-Serif" font-size="10" text-anchor="middle">TransactionManager</text></g><g id="edge10" class="edge"><title>Node10-&gt;Node9</title><path fill="none" stroke="#191970" d="M359,-47.12C359,-37.82 359,-27.06 359,-19.71"/><polygon fill="#191970" stroke="#191970" points="355.5 -47.41 359 -57.41 362.5 -47.41 355.5 -47.41"/></g><g id="edge11" class="edge"><title>Node11-&gt;Node10</title><path fill="none" stroke="#191970" d="M255.65,-111.52C280.88,-100.89 316.46,-85.91 338.61,-76.59"/><polygon fill="#191970" stroke="#191970" points="254.06 -108.39 246.2 -115.49 256.77 -114.84 254.06 -108.39"/></g><g id="edge13" class="edge"><title>Node12-&gt;Node11</title><path fill="none" stroke="#9a32cd" stroke-dasharray="5 2" d="M153.8,-174.48C158.54,-167.31 164.4,-159.78 171,-154 180.35,-145.81 192.52,-139.3 203.04,-134.62"/><polygon fill="#9a32cd" stroke="#9a32cd" points="150.68 -172.86 148.41 -183.2 156.64 -176.53 150.68 -172.86"/><text x="200.5" y="-157" font-family="Helvetica,sans-Serif" font-size="10" text-anchor="middle">Transaction</text></g><g id="edge17" class="edge"><title>Node13-&gt;Node9</title><path fill="none" stroke="#9a32cd" stroke-dasharray="5 2" d="M649.17,-250.91C648.62,-236.73 648,-216.91 648,-199.5 648,-199.5 648,-199.5 648,-66 648,-19.65 502.73,-11.38 418.18,-10.49"/><polygon fill="#9a32cd" stroke="#9a32cd" points="645.69 -251.47 649.6 -261.32 652.68 -251.18 645.69 -251.47"/><text x="701" y="-128" font-family="Helvetica,sans-Serif" font-size="10" text-anchor="middle">LastMetaIndexParser</text><text x="701" y="-117" font-family="Helvetica,sans-Serif" font-size="10" text-anchor="middle">MetaIndexParser</text></g><g id="node14" class="node"><title>Node14</title><g id="a_node14"><a><polygon fill="#fff" stroke="#bfbfbf" points="752 -343 752 -362 892 -362 892 -343 752 -343"/><text x="822" y="-350" font-family="Helvetica,sans-Serif" font-size="10" text-anchor="middle">vector&lt; pkgIndexFile * &gt;</text></a></g></g><g id="edge18" class="edge"><title>Node14-&gt;Node13</title><path fill="none" stroke="#9a32cd" stroke-dasharray="5 2" d="M794.33,-338.71C758.99,-322.38 698.8,-294.56 668.53,-280.57"/><polygon fill="#9a32cd" stroke="#9a32cd" points="793.05 -341.97 803.59 -342.99 795.98 -335.62 793.05 -341.97"/><text x="771.5" y="-306.5" font-family="Helvetica,sans-Serif" font-size="10" text-anchor="middle">Indexes</text></g><g id="node15" class="node"><title>Node15</title><g id="a_node15"><a target="_top" xlink:href="classpkgIndexFile.xhtml"><polygon fill="#fff" stroke="#000" points="782.5 -515.5 782.5 -534.5 861.5 -534.5 861.5 -515.5 782.5 -515.5"/><text x="822" y="-522.5" font-family="Helvetica,sans-Serif" font-size="10" text-anchor="middle">pkgIndexFile</text></a></g></g><g id="edge19" class="edge"><title>Node15-&gt;Node14</title><path fill="none" stroke="#9a32cd" stroke-dasharray="5 2" d="M822,-505.02C822,-468.33 822,-388.96 822,-362.38"/><polygon fill="#9a32cd" stroke="#9a32cd" points="818.5 -505.31 822 -515.31 825.5 -505.31 818.5 -505.31"/><text x="846.5" y="-433" font-family="Helvetica,sans-Serif" font-size="10" text-anchor="middle">elements</text></g><g id="edge21" class="edge"><title>Node16-&gt;Node13</title><path fill="none" stroke="#9a32cd" stroke-dasharray="5 2" d="M653.47,-327.13C652.48,-311.35 651.24,-291.76 650.55,-280.69"/><polygon fill="#9a32cd" stroke="#9a32cd" points="649.99 -327.53 654.11 -337.29 656.97 -327.09 649.99 -327.53"/><text x="670.5" y="-306.5" font-family="Helvetica,sans-Serif" font-size="10" text-anchor="middle">Entries</text></g><g id="edge23" class="edge"><title>Node17-&gt;Node16</title><path fill="none" stroke="#9a32cd" stroke-dasharray="5 2" d="M686.14,-505.21C679.07,-470.77 664.19,-398.27 657.9,-367.64"/><polygon fill="#9a32cd" stroke="#9a32cd" points="682.78 -506.22 688.22 -515.31 689.63 -504.81 682.78 -506.22"/><text x="705.5" y="-433" font-family="Helvetica,sans-Serif" font-size="10" text-anchor="middle">elements</text></g><g id="node18" class="node"><title>Node18</title><g id="a_node18"><a target="_top" xlink:href="classHashStringList.xhtml"><polygon fill="#fff" stroke="#000" points="772.5 -616.5 772.5 -635.5 859.5 -635.5 859.5 -616.5 772.5 -616.5"/><text x="816" y="-623.5" font-family="Helvetica,sans-Serif" font-size="10" text-anchor="middle">HashStringList</text></a></g></g><g id="edge24" class="edge"><title>Node18-&gt;Node17</title><path fill="none" stroke="#9a32cd" stroke-dasharray="5 2" d="M841.44,-610.05C845.31,-606.6 848.75,-602.58 851,-598 857.47,-584.84 860.11,-576.49 851,-565 829.16,-537.47 808.16,-555.26 774,-547 757.49,-543.01 739.19,-538.45 723.89,-534.6"/><polygon fill="#9a32cd" stroke="#9a32cd" points="839.03 -607.48 833.17 -616.3 843.25 -613.07 839.03 -607.48"/><text x="876" y="-579" font-family="Helvetica,sans-Serif" font-size="10" text-anchor="middle">Hashes</text></g><g id="edge29" class="edge"><title>Node18-&gt;Node20</title><path fill="none" stroke="#9a32cd" stroke-dasharray="5 2" d="M778.33,-612.39C770.38,-608.6 762.45,-603.84 756,-598 743.45,-586.64 751.11,-574.35 737,-565 709.56,-546.82 622.45,-552.49 590,-547 566.05,-542.95 539.05,-536.99 519.63,-532.45"/><polygon fill="#9a32cd" stroke="#9a32cd" points="777.02 -615.64 787.59 -616.42 779.81 -609.22 777.02 -615.64"/><text x="801.5" y="-590" font-family="Helvetica,sans-Serif" font-size="10" text-anchor="middle">download_hashes</text><text x="801.5" y="-579" font-family="Helvetica,sans-Serif" font-size="10" text-anchor="middle">patch_hashes</text><text x="801.5" y="-568" font-family="Helvetica,sans-Serif" font-size="10" text-anchor="middle">result_hashes</text></g><g id="node19" class="node"><title>Node19</title><g id="a_node19"><a><polygon fill="#fff" stroke="#bfbfbf" points="427 -299.5 427 -318.5 533 -318.5 533 -299.5 427 -299.5"/><text x="480" y="-306.5" font-family="Helvetica,sans-Serif" font-size="10" text-anchor="middle">vector&lt; DiffInfo &gt;</text></a></g></g><g id="edge27" class="edge"><title>Node19-&gt;Node1</title><path fill="none" stroke="#9a32cd" stroke-dasharray="5 2" d="M487.66,-290.12C495.22,-271.51 506.29,-241.31 511,-214 515.96,-185.24 514.63,-150.41 513.64,-134.58"/><polygon fill="#9a32cd" stroke="#9a32cd" points="484.41 -288.83 483.79 -299.41 490.87 -291.52 484.41 -288.83"/><text x="552" y="-235" font-family="Helvetica,sans-Serif" font-size="10" text-anchor="middle">available_patches</text></g><g id="edge28" class="edge"><title>Node20-&gt;Node19</title><path fill="none" stroke="#9a32cd" stroke-dasharray="5 2" d="M483.97,-506.15C481.15,-499.66 478.41,-492.16 477,-485 464.66,-422.39 474.58,-344.74 478.55,-318.86"/><polygon fill="#9a32cd" stroke="#9a32cd" points="480.86 -507.77 488.29 -515.32 487.2 -504.79 480.86 -507.77"/><text x="501.5" y="-433" font-family="Helvetica,sans-Serif" font-size="10" text-anchor="middle">elements</text></g></g></svg>