<svg xmlns="http://www.w3.org/2000/svg" xmlns:xlink="http://www.w3.org/1999/xlink" width="264" height="196pt" viewBox="0 0 198 196"><g id="graph0" class="graph" transform="scale(1 1) rotate(0) translate(4 192)"><title>edspLikeListParser</title><polygon fill="#fff" stroke="transparent" points="-4 4 -4 -192 194 -192 194 4 -4 4"/><g id="node1" class="node"><title>Node1</title><g id="a_node1"><a><polygon fill="#bfbfbf" stroke="#000" points="42 -56.5 42 -75.5 149 -75.5 149 -56.5 42 -56.5"/><text x="95.5" y="-63.5" font-family="Helvetica,sans-Serif" font-size="10" text-anchor="middle">edspLikeListParser</text></a></g></g><g id="node4" class="node"><title>Node4</title><g id="a_node4"><a target="_top" xlink:href="classedspListParser.xhtml"><polygon fill="#fff" stroke="#000" points="0 -.5 0 -19.5 87 -19.5 87 -.5 0 -.5"/><text x="43.5" y="-7.5" font-family="Helvetica,sans-Serif" font-size="10" text-anchor="middle">edspListParser</text></a></g></g><g id="edge3" class="edge"><title>Node1-&gt;Node4</title><path fill="none" stroke="#191970" d="M79.82,-48.72C70.66,-39.2 59.45,-27.56 51.93,-19.75"/><polygon fill="#191970" stroke="#191970" points="77.46 -51.31 86.91 -56.08 82.5 -46.45 77.46 -51.31"/></g><g id="node5" class="node"><title>Node5</title><g id="a_node5"><a target="_top" xlink:href="classeippListParser.xhtml"><polygon fill="#fff" stroke="#000" points="105 -.5 105 -19.5 190 -19.5 190 -.5 105 -.5"/><text x="147.5" y="-7.5" font-family="Helvetica,sans-Serif" font-size="10" text-anchor="middle">eippListParser</text></a></g></g><g id="edge4" class="edge"><title>Node1-&gt;Node5</title><path fill="none" stroke="#191970" d="M111.18,-48.72C120.34,-39.2 131.55,-27.56 139.07,-19.75"/><polygon fill="#191970" stroke="#191970" points="108.5 -46.45 104.09 -56.08 113.54 -51.31 108.5 -46.45"/></g><g id="node2" class="node"><title>Node2</title><g id="a_node2"><a target="_top" xlink:href="classdebListParser.xhtml"><polygon fill="#fff" stroke="#000" points="54.5 -112.5 54.5 -131.5 136.5 -131.5 136.5 -112.5 54.5 -112.5"/><text x="95.5" y="-119.5" font-family="Helvetica,sans-Serif" font-size="10" text-anchor="middle">debListParser</text></a></g></g><g id="edge1" class="edge"><title>Node2-&gt;Node1</title><path fill="none" stroke="#191970" d="M95.5,-101.8C95.5,-92.91 95.5,-82.78 95.5,-75.75"/><polygon fill="#191970" stroke="#191970" points="92 -102.08 95.5 -112.08 99 -102.08 92 -102.08"/></g><g id="node3" class="node"><title>Node3</title><g id="a_node3"><a target="_top" xlink:href="classpkgCacheListParser.xhtml"><polygon fill="#fff" stroke="#000" points="39.5 -168.5 39.5 -187.5 151.5 -187.5 151.5 -168.5 39.5 -168.5"/><text x="95.5" y="-175.5" font-family="Helvetica,sans-Serif" font-size="10" text-anchor="middle">pkgCacheListParser</text></a></g></g><g id="edge2" class="edge"><title>Node3-&gt;Node2</title><path fill="none" stroke="#191970" d="M95.5,-157.8C95.5,-148.91 95.5,-138.78 95.5,-131.75"/><polygon fill="#191970" stroke="#191970" points="92 -158.08 95.5 -168.08 99 -158.08 92 -158.08"/></g></g></svg>