<svg xmlns="http://www.w3.org/2000/svg" xmlns:xlink="http://www.w3.org/1999/xlink" width="566pt" height="122pt" viewBox="0 0 566 121.5"><g id="graph0" class="graph" transform="scale(1 1) rotate(0) translate(4 117.5)"><title>PackageUniverse::const_iterator</title><polygon fill="#fff" stroke="transparent" points="-4 4 -4 -117.5 562 -117.5 562 4 -4 4"/><g id="node1" class="node"><title>Node1</title><g id="a_node1"><a><polygon fill="#bfbfbf" stroke="#000" points="426 -39 426 -69 558 -69 558 -39 426 -39"/><text x="434" y="-57" font-family="Helvetica,sans-Serif" font-size="10" text-anchor="start">PackageUniverse::const</text><text x="492" y="-46" font-family="Helvetica,sans-Serif" font-size="10" text-anchor="middle">_iterator</text></a></g></g><g id="node2" class="node"><title>Node2</title><g id="a_node2"><a target="_top" xlink:href="classAPT_1_1Container__iterator__base.xhtml"><polygon fill="#fff" stroke="#000" points="208 -17 208 -91 390 -91 390 -17 208 -17"/><text x="216" y="-79" font-family="Helvetica,sans-Serif" font-size="10" text-anchor="start">Container_iterator</text><text x="216" y="-68" font-family="Helvetica,sans-Serif" font-size="10" text-anchor="start">_base&lt; APT::PackageContainer</text><text x="216" y="-57" font-family="Helvetica,sans-Serif" font-size="10" text-anchor="start">Interface, PackageUniverse,</text><text x="216" y="-46" font-family="Helvetica,sans-Serif" font-size="10" text-anchor="start">PackageUniverse::const_iterator,</text><text x="216" y="-35" font-family="Helvetica,sans-Serif" font-size="10" text-anchor="start">pkgCache::PkgIterator, pkgCache</text><text x="299" y="-24" font-family="Helvetica,sans-Serif" font-size="10" text-anchor="middle">::PkgIterator &gt;</text></a></g></g><g id="edge1" class="edge"><title>Node2-&gt;Node1</title><path fill="none" stroke="#191970" d="M400.38,-54C409.06,-54 417.69,-54 425.97,-54"/><polygon fill="#191970" stroke="#191970" points="400.19 -50.5 390.19 -54 400.19 -57.5 400.19 -50.5"/></g><g id="node3" class="node"><title>Node3</title><g id="a_node3"><a><polygon fill="#fff" stroke="#bfbfbf" points="0 -61 0 -113 172 -113 172 -61 0 -61"/><text x="8" y="-101" font-family="Helvetica,sans-Serif" font-size="10" text-anchor="start">iterator&lt; std::iterator</text><text x="8" y="-90" font-family="Helvetica,sans-Serif" font-size="10" text-anchor="start">_traits&lt; pkgCache::PkgIterator</text><text x="8" y="-79" font-family="Helvetica,sans-Serif" font-size="10" text-anchor="start">&gt;::iterator_category, pkgCache</text><text x="86" y="-68" font-family="Helvetica,sans-Serif" font-size="10" text-anchor="middle">::PkgIterator &gt;</text></a></g></g><g id="edge2" class="edge"><title>Node3-&gt;Node2</title><path fill="none" stroke="#191970" d="M182.22,-72.11C190.8,-70.77 199.46,-69.41 207.99,-68.08"/><polygon fill="#191970" stroke="#191970" points="181.55 -68.67 172.21 -73.67 182.63 -75.59 181.55 -68.67"/></g><g id="node4" class="node"><title>Node4</title><g id="a_node4"><a><polygon fill="#fff" stroke="#bfbfbf" points="14.5 -.5 14.5 -41.5 157.5 -41.5 157.5 -.5 14.5 -.5"/><text x="22.5" y="-29.5" font-family="Helvetica,sans-Serif" font-size="10" text-anchor="start">template iterator_base</text><text x="22.5" y="-18.5" font-family="Helvetica,sans-Serif" font-size="10" text-anchor="start">&lt; PackageUniverse::const</text><text x="86" y="-7.5" font-family="Helvetica,sans-Serif" font-size="10" text-anchor="middle">_iterator &gt;</text></a></g></g><g id="edge3" class="edge"><title>Node4-&gt;Node2</title><path fill="none" stroke="#191970" d="M167.47,-33.59C180.6,-35.64 194.28,-37.78 207.63,-39.87"/><polygon fill="#191970" stroke="#191970" points="167.97 -30.12 157.55 -32.03 166.89 -37.04 167.97 -30.12"/></g></g></svg>