<svg xmlns="http://www.w3.org/2000/svg" xmlns:xlink="http://www.w3.org/1999/xlink" width="496" height="196pt" viewBox="0 0 371.5 196"><g id="graph0" class="graph" transform="scale(1 1) rotate(0) translate(4 192)"><title>pkgDebianIndexTargetFile</title><polygon fill="#fff" stroke="transparent" points="-4 4 -4 -192 367.5 -192 367.5 4 -4 4"/><g id="node1" class="node"><title>Node1</title><g id="a_node1"><a><polygon fill="#bfbfbf" stroke="#000" points="104 -56.5 104 -75.5 247 -75.5 247 -56.5 104 -56.5"/><text x="175.5" y="-63.5" font-family="Helvetica,sans-Serif" font-size="10" text-anchor="middle">pkgDebianIndexTargetFile</text></a></g></g><g id="node4" class="node"><title>Node4</title><g id="a_node4"><a target="_top" xlink:href="classdebPackagesIndex.xhtml"><polygon fill="#fff" stroke="#000" points="0 -.5 0 -19.5 107 -19.5 107 -.5 0 -.5"/><text x="53.5" y="-7.5" font-family="Helvetica,sans-Serif" font-size="10" text-anchor="middle">debPackagesIndex</text></a></g></g><g id="edge3" class="edge"><title>Node1-&gt;Node4</title><path fill="none" stroke="#191970" d="M146.96,-52.37C124.11,-42.26 92.69,-28.35 72.74,-19.52"/><polygon fill="#191970" stroke="#191970" points="145.61 -55.6 156.17 -56.44 148.44 -49.2 145.61 -55.6"/></g><g id="node5" class="node"><title>Node5</title><g id="a_node5"><a target="_top" xlink:href="classdebSourcesIndex.xhtml"><polygon fill="#fff" stroke="#000" points="125.5 -.5 125.5 -19.5 225.5 -19.5 225.5 -.5 125.5 -.5"/><text x="175.5" y="-7.5" font-family="Helvetica,sans-Serif" font-size="10" text-anchor="middle">debSourcesIndex</text></a></g></g><g id="edge4" class="edge"><title>Node1-&gt;Node5</title><path fill="none" stroke="#191970" d="M175.5,-45.8C175.5,-36.91 175.5,-26.78 175.5,-19.75"/><polygon fill="#191970" stroke="#191970" points="172 -46.08 175.5 -56.08 179 -46.08 172 -46.08"/></g><g id="node6" class="node"><title>Node6</title><g id="a_node6"><a target="_top" xlink:href="classdebTranslationsIndex.xhtml"><polygon fill="#fff" stroke="#000" points="243.5 -.5 243.5 -19.5 363.5 -19.5 363.5 -.5 243.5 -.5"/><text x="303.5" y="-7.5" font-family="Helvetica,sans-Serif" font-size="10" text-anchor="middle">debTranslationsIndex</text></a></g></g><g id="edge5" class="edge"><title>Node1-&gt;Node6</title><path fill="none" stroke="#191970" d="M205.12,-52.5C229.12,-42.38 262.28,-28.39 283.31,-19.52"/><polygon fill="#191970" stroke="#191970" points="203.64 -49.33 195.78 -56.44 206.36 -55.78 203.64 -49.33"/></g><g id="node2" class="node"><title>Node2</title><g id="a_node2"><a target="_top" xlink:href="classpkgDebianIndexFile.xhtml"><polygon fill="#fff" stroke="#000" points="119 -112.5 119 -131.5 232 -131.5 232 -112.5 119 -112.5"/><text x="175.5" y="-119.5" font-family="Helvetica,sans-Serif" font-size="10" text-anchor="middle">pkgDebianIndexFile</text></a></g></g><g id="edge1" class="edge"><title>Node2-&gt;Node1</title><path fill="none" stroke="#191970" d="M175.5,-101.8C175.5,-92.91 175.5,-82.78 175.5,-75.75"/><polygon fill="#191970" stroke="#191970" points="172 -102.08 175.5 -112.08 179 -102.08 172 -102.08"/></g><g id="node3" class="node"><title>Node3</title><g id="a_node3"><a target="_top" xlink:href="classpkgIndexFile.xhtml"><polygon fill="#fff" stroke="#000" points="136 -168.5 136 -187.5 215 -187.5 215 -168.5 136 -168.5"/><text x="175.5" y="-175.5" font-family="Helvetica,sans-Serif" font-size="10" text-anchor="middle">pkgIndexFile</text></a></g></g><g id="edge2" class="edge"><title>Node3-&gt;Node2</title><path fill="none" stroke="#191970" d="M175.5,-157.8C175.5,-148.91 175.5,-138.78 175.5,-131.75"/><polygon fill="#191970" stroke="#191970" points="172 -158.08 175.5 -168.08 179 -158.08 172 -158.08"/></g></g></svg>