<?xml version="1.0" encoding="UTF-8" standalone="no"?>
<!DOCTYPE svg PUBLIC "-//W3C//DTD SVG 1.1//EN"
 "http://www.w3.org/Graphics/SVG/1.1/DTD/svg11.dtd">
<!-- Generated by graphviz version 2.43.0 (0)
 -->
<!-- Title: debDebFile Pages: 1 -->
<svg width="771pt" height="270pt"
 viewBox="0.00 0.00 771.00 269.50" xmlns="http://www.w3.org/2000/svg" xmlns:xlink="http://www.w3.org/1999/xlink">
<g id="graph0" class="graph" transform="scale(1 1) rotate(0) translate(4 265.5)">
<title>debDebFile</title>
<polygon fill="white" stroke="transparent" points="-4,4 -4,-265.5 767,-265.5 767,4 -4,4"/>
<!-- Node1 -->
<g id="node1" class="node">
<title>Node1</title>
<g id="a_node1"><a xlink:title=" ">
<polygon fill="#bfbfbf" stroke="black" points="692,-124.5 692,-143.5 763,-143.5 763,-124.5 692,-124.5"/>
<text text-anchor="middle" x="727.5" y="-131.5" font-family="Helvetica,sans-Serif" font-size="10.00">debDebFile</text>
</a>
</g>
</g>
<!-- Node2 -->
<g id="node2" class="node">
<title>Node2</title>
<g id="a_node2"><a xlink:title=" ">
<polygon fill="white" stroke="#bfbfbf" points="485,-231 485,-261 604,-261 604,-231 485,-231"/>
<text text-anchor="start" x="493" y="-249" font-family="Helvetica,sans-Serif" font-size="10.00">ControlExtract public</text>
<text text-anchor="middle" x="544.5" y="-238" font-family="Helvetica,sans-Serif" font-size="10.00"> pkgDirStream</text>
</a>
</g>
</g>
<!-- Node2&#45;&gt;Node1 -->
<g id="edge1" class="edge">
<title>Node2&#45;&gt;Node1</title>
<path fill="none" stroke="#8b1a1a" d="M605.8,-226.95C609.3,-225.39 612.72,-223.74 616,-222 657.58,-199.9 698.95,-161.45 717.03,-143.61"/>
<polygon fill="#8b1a1a" stroke="#8b1a1a" points="604.28,-223.79 596.4,-230.87 606.97,-230.26 604.28,-223.79"/>
</g>
<!-- Node3 -->
<g id="node3" class="node">
<title>Node3</title>
<g id="a_node3"><a xlink:title=" ">
<polygon fill="white" stroke="#bfbfbf" points="473,-182 473,-212 616,-212 616,-182 473,-182"/>
<text text-anchor="start" x="481" y="-200" font-family="Helvetica,sans-Serif" font-size="10.00">MemControlExtract public</text>
<text text-anchor="middle" x="544.5" y="-189" font-family="Helvetica,sans-Serif" font-size="10.00"> pkgDirStream</text>
</a>
</g>
</g>
<!-- Node3&#45;&gt;Node1 -->
<g id="edge2" class="edge">
<title>Node3&#45;&gt;Node1</title>
<path fill="none" stroke="#8b1a1a" d="M610.62,-179.08C631.1,-172.96 653.67,-165.69 674,-158 685.25,-153.74 697.49,-148.2 707.32,-143.52"/>
<polygon fill="#8b1a1a" stroke="#8b1a1a" points="609.36,-175.81 600.76,-181.99 611.34,-182.52 609.36,-175.81"/>
</g>
<!-- Node4 -->
<g id="node4" class="node">
<title>Node4</title>
<g id="a_node4"><a xlink:href="classpkgTagSection.xhtml" target="_top" xlink:title=" ">
<polygon fill="white" stroke="black" points="501,-143.5 501,-162.5 588,-162.5 588,-143.5 501,-143.5"/>
<text text-anchor="middle" x="544.5" y="-150.5" font-family="Helvetica,sans-Serif" font-size="10.00">pkgTagSection</text>
</a>
</g>
</g>
<!-- Node4&#45;&gt;Node1 -->
<g id="edge3" class="edge">
<title>Node4&#45;&gt;Node1</title>
<path fill="none" stroke="#9a32cd" stroke-dasharray="5,2" d="M598.72,-147.41C628.76,-144.26 665.45,-140.41 691.79,-137.64"/>
<polygon fill="#9a32cd" stroke="#9a32cd" points="597.97,-143.97 588.39,-148.5 598.71,-150.93 597.97,-143.97"/>
<text text-anchor="middle" x="654" y="-146" font-family="Helvetica,sans-Serif" font-size="10.00"> Section</text>
</g>
<!-- Node5 -->
<g id="node5" class="node">
<title>Node5</title>
<g id="a_node5"><a xlink:href="classFileFd.xhtml" target="_top" xlink:title=" ">
<polygon fill="white" stroke="black" points="341.5,-67.5 341.5,-86.5 387.5,-86.5 387.5,-67.5 341.5,-67.5"/>
<text text-anchor="middle" x="364.5" y="-74.5" font-family="Helvetica,sans-Serif" font-size="10.00">FileFd</text>
</a>
</g>
</g>
<!-- Node5&#45;&gt;Node1 -->
<g id="edge4" class="edge">
<title>Node5&#45;&gt;Node1</title>
<path fill="none" stroke="#9a32cd" stroke-dasharray="5,2" d="M397.78,-73.5C455.48,-68.52 579.15,-63.74 674,-101 688.83,-106.83 704.06,-116.94 714.27,-124.45"/>
<polygon fill="#9a32cd" stroke="#9a32cd" points="397.43,-70.01 387.79,-74.42 398.07,-76.99 397.43,-70.01"/>
<text text-anchor="middle" x="544.5" y="-87" font-family="Helvetica,sans-Serif" font-size="10.00"> File</text>
</g>
<!-- Node8 -->
<g id="node8" class="node">
<title>Node8</title>
<g id="a_node8"><a xlink:href="classARArchive.xhtml" target="_top" xlink:title=" ">
<polygon fill="white" stroke="black" points="511,-20.5 511,-39.5 578,-39.5 578,-20.5 511,-20.5"/>
<text text-anchor="middle" x="544.5" y="-27.5" font-family="Helvetica,sans-Serif" font-size="10.00">ARArchive</text>
</a>
</g>
</g>
<!-- Node5&#45;&gt;Node8 -->
<g id="edge12" class="edge">
<title>Node5&#45;&gt;Node8</title>
<path fill="none" stroke="#9a32cd" stroke-dasharray="5,2" d="M388.16,-61.91C395.23,-57.8 403.21,-53.74 411,-51 443.85,-39.45 483.52,-34.23 510.84,-31.88"/>
<polygon fill="#9a32cd" stroke="#9a32cd" points="385.9,-59.2 379.21,-67.41 389.56,-65.16 385.9,-59.2"/>
<text text-anchor="middle" x="433" y="-54" font-family="Helvetica,sans-Serif" font-size="10.00"> File</text>
</g>
<!-- Node6 -->
<g id="node6" class="node">
<title>Node6</title>
<g id="a_node6"><a xlink:title=" ">
<polygon fill="white" stroke="#bfbfbf" points="157,-67.5 157,-86.5 201,-86.5 201,-67.5 157,-67.5"/>
<text text-anchor="middle" x="179" y="-74.5" font-family="Helvetica,sans-Serif" font-size="10.00">string</text>
</a>
</g>
</g>
<!-- Node6&#45;&gt;Node1 -->
<g id="edge7" class="edge">
<title>Node6&#45;&gt;Node1</title>
<path fill="none" stroke="#9a32cd" stroke-dasharray="5,2" d="M200.95,-92.45C206.55,-95.85 212.79,-99.02 219,-101 307.34,-129.13 592.25,-133.32 691.79,-133.91"/>
<polygon fill="#9a32cd" stroke="#9a32cd" points="202.5,-89.28 192.23,-86.68 198.64,-95.12 202.5,-89.28"/>
<text text-anchor="middle" x="433" y="-130" font-family="Helvetica,sans-Serif" font-size="10.00"> Member</text>
</g>
<!-- Node6&#45;&gt;Node5 -->
<g id="edge5" class="edge">
<title>Node6&#45;&gt;Node5</title>
<path fill="none" stroke="#9a32cd" stroke-dasharray="5,2" d="M211.25,-77C248.21,-77 308.79,-77 341.27,-77"/>
<polygon fill="#9a32cd" stroke="#9a32cd" points="211.05,-73.5 201.05,-77 211.05,-80.5 211.05,-73.5"/>
<text text-anchor="middle" x="268.5" y="-91" font-family="Helvetica,sans-Serif" font-size="10.00"> FileName</text>
<text text-anchor="middle" x="268.5" y="-80" font-family="Helvetica,sans-Serif" font-size="10.00">TemporaryFileName</text>
</g>
<!-- Node9 -->
<g id="node9" class="node">
<title>Node9</title>
<g id="a_node9"><a xlink:href="structARArchive_1_1Member.xhtml" target="_top" xlink:title=" ">
<polygon fill="white" stroke="black" points="336,-0.5 336,-19.5 393,-19.5 393,-0.5 336,-0.5"/>
<text text-anchor="middle" x="364.5" y="-7.5" font-family="Helvetica,sans-Serif" font-size="10.00">Member</text>
</a>
</g>
</g>
<!-- Node6&#45;&gt;Node9 -->
<g id="edge11" class="edge">
<title>Node6&#45;&gt;Node9</title>
<path fill="none" stroke="#9a32cd" stroke-dasharray="5,2" d="M210.57,-65.17C213.41,-64.09 216.26,-63.02 219,-62 259.85,-46.79 307.47,-29.8 336.54,-19.51"/>
<polygon fill="#9a32cd" stroke="#9a32cd" points="209.11,-61.98 201.02,-68.82 211.61,-68.52 209.11,-61.98"/>
<text text-anchor="middle" x="268.5" y="-65" font-family="Helvetica,sans-Serif" font-size="10.00"> Name</text>
</g>
<!-- Node7 -->
<g id="node7" class="node">
<title>Node7</title>
<g id="a_node7"><a xlink:title=" ">
<polygon fill="white" stroke="#bfbfbf" points="0,-67.5 0,-86.5 120,-86.5 120,-67.5 0,-67.5"/>
<text text-anchor="middle" x="60" y="-74.5" font-family="Helvetica,sans-Serif" font-size="10.00">basic_string&lt; Char &gt;</text>
</a>
</g>
</g>
<!-- Node7&#45;&gt;Node6 -->
<g id="edge6" class="edge">
<title>Node7&#45;&gt;Node6</title>
<path fill="none" stroke="midnightblue" d="M130.3,-77C139.91,-77 149.12,-77 156.84,-77"/>
<polygon fill="midnightblue" stroke="midnightblue" points="130.19,-73.5 120.19,-77 130.19,-80.5 130.19,-73.5"/>
</g>
<!-- Node8&#45;&gt;Node1 -->
<g id="edge8" class="edge">
<title>Node8&#45;&gt;Node1</title>
<path fill="none" stroke="#9a32cd" stroke-dasharray="5,2" d="M588.44,-28.39C615.07,-29.37 648.87,-34.38 674,-51 701.3,-69.06 717.18,-106.72 723.42,-124.42"/>
<polygon fill="#9a32cd" stroke="#9a32cd" points="588.32,-24.89 578.25,-28.2 588.18,-31.89 588.32,-24.89"/>
<text text-anchor="middle" x="654" y="-54" font-family="Helvetica,sans-Serif" font-size="10.00"> AR</text>
</g>
<!-- Node9&#45;&gt;Node8 -->
<g id="edge9" class="edge">
<title>Node9&#45;&gt;Node8</title>
<path fill="none" stroke="#9a32cd" stroke-dasharray="5,2" d="M403.41,-11.79C419.37,-12.73 438.12,-14.1 455,-16 473.55,-18.08 494.16,-21.29 510.81,-24.11"/>
<polygon fill="#9a32cd" stroke="#9a32cd" points="403.56,-8.29 393.37,-11.22 403.16,-15.28 403.56,-8.29"/>
<text text-anchor="middle" x="433" y="-19" font-family="Helvetica,sans-Serif" font-size="10.00"> List</text>
</g>
<!-- Node9&#45;&gt;Node9 -->
<g id="edge10" class="edge">
<title>Node9&#45;&gt;Node9</title>
<path fill="none" stroke="#9a32cd" stroke-dasharray="5,2" d="M351.98,-29.77C352.96,-34.5 357.14,-38 364.5,-38 376.59,-38 380.08,-28.57 374.98,-19.76"/>
<polygon fill="#9a32cd" stroke="#9a32cd" points="355.45,-30.25 354.02,-19.76 348.59,-28.86 355.45,-30.25"/>
<text text-anchor="middle" x="364.5" y="-41" font-family="Helvetica,sans-Serif" font-size="10.00"> Next</text>
</g>
</g>
</svg>
