<svg xmlns="http://www.w3.org/2000/svg" xmlns:xlink="http://www.w3.org/1999/xlink" width="97pt" height="140pt" viewBox="0 0 97 140"><g id="graph0" class="graph" transform="scale(1 1) rotate(0) translate(4 136)"><title>pkgAcqFile</title><polygon fill="#fff" stroke="transparent" points="-4 4 -4 -136 93 -136 93 4 -4 4"/><g id="node1" class="node"><title>Node1</title><g id="a_node1"><a xlink:title="Retrieve an arbitrary file to the current directory. {{{."><polygon fill="#bfbfbf" stroke="#000" points="9.5 -56.5 9.5 -75.5 79.5 -75.5 79.5 -56.5 9.5 -56.5"/><text x="44.5" y="-63.5" font-family="Helvetica,sans-Serif" font-size="10" text-anchor="middle">pkgAcqFile</text></a></g></g><g id="node3" class="node"><title>Node3</title><g id="a_node3"><a target="_top" xlink:href="classpkgAcqAuxFile.xhtml"><polygon fill="#fff" stroke="#000" points="0 -.5 0 -19.5 89 -19.5 89 -.5 0 -.5"/><text x="44.5" y="-7.5" font-family="Helvetica,sans-Serif" font-size="10" text-anchor="middle">pkgAcqAuxFile</text></a></g></g><g id="edge2" class="edge"><title>Node1-&gt;Node3</title><path fill="none" stroke="#191970" d="M44.5,-45.8C44.5,-36.91 44.5,-26.78 44.5,-19.75"/><polygon fill="#191970" stroke="#191970" points="41 -46.08 44.5 -56.08 48 -46.08 41 -46.08"/></g><g id="node2" class="node"><title>Node2</title><g id="a_node2"><a><polygon fill="#fff" stroke="#bfbfbf" points="25 -112.5 25 -131.5 64 -131.5 64 -112.5 25 -112.5"/><text x="44.5" y="-119.5" font-family="Helvetica,sans-Serif" font-size="10" text-anchor="middle">Item</text></a></g></g><g id="edge1" class="edge"><title>Node2-&gt;Node1</title><path fill="none" stroke="#191970" d="M44.5,-101.8C44.5,-92.91 44.5,-82.78 44.5,-75.75"/><polygon fill="#191970" stroke="#191970" points="41 -102.08 44.5 -112.08 48 -102.08 41 -102.08"/></g></g></svg>