<?xml version="1.0" encoding="UTF-8" standalone="no"?>
<!DOCTYPE svg PUBLIC "-//W3C//DTD SVG 1.1//EN"
 "http://www.w3.org/Graphics/SVG/1.1/DTD/svg11.dtd">
<!-- Generated by graphviz version 2.43.0 (0)
 -->
<!-- Title: pkgCache&lt; Str, Itr &gt; Pages: 1 -->
<!--zoomable 619 -->
<svg id="main" version="1.1" xmlns="http://www.w3.org/2000/svg" xmlns:xlink="http://www.w3.org/1999/xlink" xml:space="preserve" onload="init(evt)">
<style type="text/css"><![CDATA[
.edge:hover path { stroke: red; }
.edge:hover polygon { stroke: red; fill: red; }
]]></style>
<script type="text/javascript"><![CDATA[
var edges = document.getElementsByTagName('g');
if (edges && edges.length) {
  for (var i=0;i<edges.length;i++) {
    if (edges[i].id.substr(0,4)=='edge') {
      edges[i].setAttribute('class','edge');
    }
  }
}
]]></script>
        <defs>
                <circle id="rim" cx="0" cy="0" r="7"/>
                <circle id="rim2" cx="0" cy="0" r="3.5"/>
                <g id="zoomPlus">
                        <use xlink:href="#rim" fill="#404040">
                                <set attributeName="fill" to="#808080" begin="zoomplus.mouseover" end="zoomplus.mouseout"/>
                        </use>
                        <path d="M-4,0h8M0,-4v8" fill="none" stroke="white" stroke-width="1.5" pointer-events="none"/>
                </g>
                <g id="zoomMin">
                        <use xlink:href="#rim" fill="#404040">
                                <set attributeName="fill" to="#808080" begin="zoomminus.mouseover" end="zoomminus.mouseout"/>
                        </use>
                        <path d="M-4,0h8" fill="none" stroke="white" stroke-width="1.5" pointer-events="none"/>
                </g>
                <g id="dirArrow">
                        <path fill="none" stroke="white" stroke-width="1.5" d="M0,-3.0v7 M-2.5,-0.5L0,-3.0L2.5,-0.5"/>
                </g>
               <g id="resetDef">
                       <use xlink:href="#rim2" fill="#404040">
                               <set attributeName="fill" to="#808080" begin="reset.mouseover" end="reset.mouseout"/>
                       </use>
               </g>
        </defs>

<script type="text/javascript">
var viewWidth = 328;
var viewHeight = 619;
var sectionId = 'dynsection-0';
</script>
<script xlink:href="svgpan.js"/>
<svg id="graph" class="graph">
<g id="viewport">
<title>pkgCache&lt; Str, Itr &gt;</title>
<polygon fill="white" stroke="transparent" points="-4,4 -4,-614.5 324,-614.5 324,4 -4,4"/>
<!-- Node1 -->
<g id="node1" class="node">
<title>Node1</title>
<g id="a_node1"><a xlink:title=" ">
<polygon fill="#bfbfbf" stroke="black" points="203,-301.5 203,-320.5 320,-320.5 320,-301.5 203,-301.5"/>
<text text-anchor="middle" x="261.5" y="-308.5" font-family="Helvetica,sans-Serif" font-size="10.00">pkgCache&lt; Str, Itr &gt;</text>
</a>
</g>
</g>
<!-- Node2 -->
<g id="node2" class="node">
<title>Node2</title>
<g id="a_node2"><a xlink:title=" ">
<polygon fill="white" stroke="#bfbfbf" points="22.5,-580 22.5,-610 144.5,-610 144.5,-580 22.5,-580"/>
<text text-anchor="start" x="30.5" y="-598" font-family="Helvetica,sans-Serif" font-size="10.00">iterator&lt; std::forward</text>
<text text-anchor="middle" x="83.5" y="-587" font-family="Helvetica,sans-Serif" font-size="10.00">_iterator_tag, Str &gt;</text>
</a>
</g>
</g>
<!-- Node2&#45;&gt;Node1 -->
<g id="edge1" class="edge">
<title>Node2&#45;&gt;Node1</title>
<path fill="none" stroke="#8b1a1a" d="M154.15,-580.29C158.8,-577.68 163.16,-574.61 167,-571 243.9,-498.73 257.68,-358.66 260.04,-320.69"/>
<polygon fill="#8b1a1a" stroke="#8b1a1a" points="152.38,-577.26 144.9,-584.77 155.43,-583.57 152.38,-577.26"/>
</g>
<!-- Node3 -->
<g id="node3" class="node">
<title>Node3</title>
<g id="a_node3"><a xlink:title=" ">
<polygon fill="white" stroke="#bfbfbf" points="0,-531 0,-561 167,-561 167,-531 0,-531"/>
<text text-anchor="start" x="8" y="-549" font-family="Helvetica,sans-Serif" font-size="10.00">GrpIterator public</text>
<text text-anchor="middle" x="83.5" y="-538" font-family="Helvetica,sans-Serif" font-size="10.00"> Iterator&lt; Group, GrpIterator &gt;</text>
</a>
</g>
</g>
<!-- Node3&#45;&gt;Node1 -->
<g id="edge2" class="edge">
<title>Node3&#45;&gt;Node1</title>
<path fill="none" stroke="#8b1a1a" d="M161.4,-525.42C163.35,-524.04 165.22,-522.57 167,-521 231.63,-463.96 253.76,-353.67 259.1,-320.6"/>
<polygon fill="#8b1a1a" stroke="#8b1a1a" points="159.13,-522.7 152.41,-530.89 162.77,-528.68 159.13,-522.7"/>
</g>
<!-- Node4 -->
<g id="node4" class="node">
<title>Node4</title>
<g id="a_node4"><a xlink:title=" ">
<polygon fill="white" stroke="#bfbfbf" points="28.5,-470.5 28.5,-511.5 138.5,-511.5 138.5,-470.5 28.5,-470.5"/>
<text text-anchor="start" x="36.5" y="-499.5" font-family="Helvetica,sans-Serif" font-size="10.00">PkgIterator public</text>
<text text-anchor="start" x="36.5" y="-488.5" font-family="Helvetica,sans-Serif" font-size="10.00"> Iterator&lt; Package,</text>
<text text-anchor="middle" x="83.5" y="-477.5" font-family="Helvetica,sans-Serif" font-size="10.00"> PkgIterator &gt;</text>
</a>
</g>
</g>
<!-- Node4&#45;&gt;Node1 -->
<g id="edge3" class="edge">
<title>Node4&#45;&gt;Node1</title>
<path fill="none" stroke="#8b1a1a" d="M148.08,-472.92C154.83,-469.56 161.3,-465.62 167,-461 216.59,-420.81 247.32,-346.91 257.1,-320.6"/>
<polygon fill="#8b1a1a" stroke="#8b1a1a" points="146.41,-469.83 138.74,-477.14 149.3,-476.21 146.41,-469.83"/>
</g>
<!-- Node5 -->
<g id="node5" class="node">
<title>Node5</title>
<g id="a_node5"><a xlink:title=" ">
<polygon fill="white" stroke="#bfbfbf" points="30.5,-410.5 30.5,-451.5 136.5,-451.5 136.5,-410.5 30.5,-410.5"/>
<text text-anchor="start" x="38.5" y="-439.5" font-family="Helvetica,sans-Serif" font-size="10.00">VerIterator public</text>
<text text-anchor="start" x="38.5" y="-428.5" font-family="Helvetica,sans-Serif" font-size="10.00"> Iterator&lt; Version,</text>
<text text-anchor="middle" x="83.5" y="-417.5" font-family="Helvetica,sans-Serif" font-size="10.00"> VerIterator &gt;</text>
</a>
</g>
</g>
<!-- Node5&#45;&gt;Node1 -->
<g id="edge4" class="edge">
<title>Node5&#45;&gt;Node1</title>
<path fill="none" stroke="#8b1a1a" d="M145.96,-411.94C153.27,-408.72 160.45,-405.08 167,-401 203.71,-378.11 237.95,-338.93 252.77,-320.77"/>
<polygon fill="#8b1a1a" stroke="#8b1a1a" points="144.56,-408.73 136.66,-415.78 147.24,-415.19 144.56,-408.73"/>
</g>
<!-- Node6 -->
<g id="node6" class="node">
<title>Node6</title>
<g id="a_node6"><a xlink:title=" ">
<polygon fill="white" stroke="#bfbfbf" points="21,-350.5 21,-391.5 146,-391.5 146,-350.5 21,-350.5"/>
<text text-anchor="start" x="29" y="-379.5" font-family="Helvetica,sans-Serif" font-size="10.00">DescIterator public</text>
<text text-anchor="start" x="29" y="-368.5" font-family="Helvetica,sans-Serif" font-size="10.00"> Iterator&lt; Description,</text>
<text text-anchor="middle" x="83.5" y="-357.5" font-family="Helvetica,sans-Serif" font-size="10.00"> DescIterator &gt;</text>
</a>
</g>
</g>
<!-- Node6&#45;&gt;Node1 -->
<g id="edge5" class="edge">
<title>Node6&#45;&gt;Node1</title>
<path fill="none" stroke="#8b1a1a" d="M154.58,-347.11C181.8,-337.83 211.42,-327.73 232.39,-320.58"/>
<polygon fill="#8b1a1a" stroke="#8b1a1a" points="153.4,-343.81 145.07,-350.35 155.66,-350.44 153.4,-343.81"/>
</g>
<!-- Node7 -->
<g id="node7" class="node">
<title>Node7</title>
<g id="a_node7"><a xlink:title=" ">
<polygon fill="white" stroke="#bfbfbf" points="18,-290.5 18,-331.5 149,-331.5 149,-290.5 18,-290.5"/>
<text text-anchor="start" x="26" y="-319.5" font-family="Helvetica,sans-Serif" font-size="10.00">DepIterator public</text>
<text text-anchor="start" x="26" y="-308.5" font-family="Helvetica,sans-Serif" font-size="10.00"> Iterator&lt; Dependency,</text>
<text text-anchor="middle" x="83.5" y="-297.5" font-family="Helvetica,sans-Serif" font-size="10.00"> DepIterator &gt;</text>
</a>
</g>
</g>
<!-- Node7&#45;&gt;Node1 -->
<g id="edge6" class="edge">
<title>Node7&#45;&gt;Node1</title>
<path fill="none" stroke="#8b1a1a" d="M159.09,-311C173.77,-311 188.95,-311 202.95,-311"/>
<polygon fill="#8b1a1a" stroke="#8b1a1a" points="159.04,-307.5 149.04,-311 159.04,-314.5 159.04,-307.5"/>
</g>
<!-- Node8 -->
<g id="node8" class="node">
<title>Node8</title>
<g id="a_node8"><a xlink:title=" ">
<polygon fill="white" stroke="#bfbfbf" points="27.5,-230.5 27.5,-271.5 139.5,-271.5 139.5,-230.5 27.5,-230.5"/>
<text text-anchor="start" x="35.5" y="-259.5" font-family="Helvetica,sans-Serif" font-size="10.00">PrvIterator public</text>
<text text-anchor="start" x="35.5" y="-248.5" font-family="Helvetica,sans-Serif" font-size="10.00"> Iterator&lt; Provides,</text>
<text text-anchor="middle" x="83.5" y="-237.5" font-family="Helvetica,sans-Serif" font-size="10.00"> PrvIterator &gt;</text>
</a>
</g>
</g>
<!-- Node8&#45;&gt;Node1 -->
<g id="edge7" class="edge">
<title>Node8&#45;&gt;Node1</title>
<path fill="none" stroke="#8b1a1a" d="M149.28,-273.08C177.97,-282.86 210.2,-293.85 232.55,-301.47"/>
<polygon fill="#8b1a1a" stroke="#8b1a1a" points="150.3,-269.73 139.7,-269.82 148.04,-276.36 150.3,-269.73"/>
</g>
<!-- Node9 -->
<g id="node9" class="node">
<title>Node9</title>
<g id="a_node9"><a xlink:title=" ">
<polygon fill="white" stroke="#bfbfbf" points="20.5,-170.5 20.5,-211.5 146.5,-211.5 146.5,-170.5 20.5,-170.5"/>
<text text-anchor="start" x="28.5" y="-199.5" font-family="Helvetica,sans-Serif" font-size="10.00">RlsFileIterator public</text>
<text text-anchor="start" x="28.5" y="-188.5" font-family="Helvetica,sans-Serif" font-size="10.00"> Iterator&lt; ReleaseFile,</text>
<text text-anchor="middle" x="83.5" y="-177.5" font-family="Helvetica,sans-Serif" font-size="10.00"> RlsFileIterator &gt;</text>
</a>
</g>
</g>
<!-- Node9&#45;&gt;Node1 -->
<g id="edge8" class="edge">
<title>Node9&#45;&gt;Node1</title>
<path fill="none" stroke="#8b1a1a" d="M155.82,-214.72C159.68,-216.69 163.44,-218.78 167,-221 203.71,-243.89 237.95,-283.07 252.77,-301.23"/>
<polygon fill="#8b1a1a" stroke="#8b1a1a" points="157.19,-211.5 146.66,-210.37 154.19,-217.82 157.19,-211.5"/>
</g>
<!-- Node10 -->
<g id="node10" class="node">
<title>Node10</title>
<g id="a_node10"><a xlink:title=" ">
<polygon fill="white" stroke="#bfbfbf" points="20,-110.5 20,-151.5 147,-151.5 147,-110.5 20,-110.5"/>
<text text-anchor="start" x="28" y="-139.5" font-family="Helvetica,sans-Serif" font-size="10.00">PkgFileIterator public</text>
<text text-anchor="start" x="28" y="-128.5" font-family="Helvetica,sans-Serif" font-size="10.00"> Iterator&lt; PackageFile,</text>
<text text-anchor="middle" x="83.5" y="-117.5" font-family="Helvetica,sans-Serif" font-size="10.00"> PkgFileIterator &gt;</text>
</a>
</g>
</g>
<!-- Node10&#45;&gt;Node1 -->
<g id="edge9" class="edge">
<title>Node10&#45;&gt;Node1</title>
<path fill="none" stroke="#8b1a1a" d="M156.32,-153.58C160.08,-155.83 163.67,-158.3 167,-161 216.59,-201.19 247.32,-275.09 257.1,-301.4"/>
<polygon fill="#8b1a1a" stroke="#8b1a1a" points="157.75,-150.37 147.29,-148.69 154.42,-156.53 157.75,-150.37"/>
</g>
<!-- Node11 -->
<g id="node11" class="node">
<title>Node11</title>
<g id="a_node11"><a xlink:title=" ">
<polygon fill="white" stroke="#bfbfbf" points="33.5,-61 33.5,-91 133.5,-91 133.5,-61 33.5,-61"/>
<text text-anchor="start" x="41.5" y="-79" font-family="Helvetica,sans-Serif" font-size="10.00">Iterator&lt; VerFile,</text>
<text text-anchor="middle" x="83.5" y="-68" font-family="Helvetica,sans-Serif" font-size="10.00"> VerFileIterator &gt;</text>
</a>
</g>
</g>
<!-- Node11&#45;&gt;Node1 -->
<g id="edge10" class="edge">
<title>Node11&#45;&gt;Node1</title>
<path fill="none" stroke="#8b1a1a" d="M143.29,-86.91C151.9,-90.38 160.16,-94.96 167,-101 231.63,-158.04 253.76,-268.33 259.1,-301.4"/>
<polygon fill="#8b1a1a" stroke="#8b1a1a" points="144.44,-83.61 133.85,-83.56 142.1,-90.2 144.44,-83.61"/>
</g>
<!-- Node12 -->
<g id="node12" class="node">
<title>Node12</title>
<g id="a_node12"><a xlink:title=" ">
<polygon fill="white" stroke="#bfbfbf" points="6,-0.5 6,-41.5 161,-41.5 161,-0.5 6,-0.5"/>
<text text-anchor="start" x="14" y="-29.5" font-family="Helvetica,sans-Serif" font-size="10.00">DescFileIterator public</text>
<text text-anchor="start" x="14" y="-18.5" font-family="Helvetica,sans-Serif" font-size="10.00"> Iterator&lt; DescFile, DescFile</text>
<text text-anchor="middle" x="83.5" y="-7.5" font-family="Helvetica,sans-Serif" font-size="10.00">Iterator &gt;</text>
</a>
</g>
</g>
<!-- Node12&#45;&gt;Node1 -->
<g id="edge11" class="edge">
<title>Node12&#45;&gt;Node1</title>
<path fill="none" stroke="#8b1a1a" d="M162.43,-47.79C164.02,-49.13 165.55,-50.53 167,-52 240.72,-126.68 256.76,-263.7 259.84,-301.26"/>
<polygon fill="#8b1a1a" stroke="#8b1a1a" points="164.14,-44.71 153.99,-41.65 160.01,-50.36 164.14,-44.71"/>
</g>
</g>
</svg>
        <g id="navigator" transform="translate(0 0)" fill="#404254">
                <rect fill="#f2f5e9" fill-opacity="0.5" stroke="#606060" stroke-width=".5" x="0" y="0" width="60" height="60"/>
                <use id="zoomplus" xlink:href="#zoomPlus" x="17" y="9" onmousedown="handleZoom(evt,'in')"/>
                <use id="zoomminus" xlink:href="#zoomMin" x="42" y="9" onmousedown="handleZoom(evt,'out')"/>
                <use id="reset" xlink:href="#resetDef" x="30" y="36" onmousedown="handleReset()"/>
                <g id="arrowUp" xlink:href="#dirArrow" transform="translate(30 24)" onmousedown="handlePan(0,-1)">
                  <use xlink:href="#rim" fill="#404040">
                        <set attributeName="fill" to="#808080" begin="arrowUp.mouseover" end="arrowUp.mouseout"/>
                  </use>
                  <path fill="none" stroke="white" stroke-width="1.5" d="M0,-3.0v7 M-2.5,-0.5L0,-3.0L2.5,-0.5"/>
                </g>
                <g id="arrowRight" xlink:href="#dirArrow" transform="rotate(90) translate(36 -43)" onmousedown="handlePan(1,0)">
                  <use xlink:href="#rim" fill="#404040">
                        <set attributeName="fill" to="#808080" begin="arrowRight.mouseover" end="arrowRight.mouseout"/>
                  </use>
                  <path fill="none" stroke="white" stroke-width="1.5" d="M0,-3.0v7 M-2.5,-0.5L0,-3.0L2.5,-0.5"/>
                </g>
                <g id="arrowDown" xlink:href="#dirArrow" transform="rotate(180) translate(-30 -48)" onmousedown="handlePan(0,1)">
                  <use xlink:href="#rim" fill="#404040">
                        <set attributeName="fill" to="#808080" begin="arrowDown.mouseover" end="arrowDown.mouseout"/>
                  </use>
                  <path fill="none" stroke="white" stroke-width="1.5" d="M0,-3.0v7 M-2.5,-0.5L0,-3.0L2.5,-0.5"/>
                </g>
                <g id="arrowLeft" xlink:href="#dirArrow" transform="rotate(270) translate(-36 17)" onmousedown="handlePan(-1,0)">
                  <use xlink:href="#rim" fill="#404040">
                        <set attributeName="fill" to="#808080" begin="arrowLeft.mouseover" end="arrowLeft.mouseout"/>
                  </use>
                  <path fill="none" stroke="white" stroke-width="1.5" d="M0,-3.0v7 M-2.5,-0.5L0,-3.0L2.5,-0.5"/>
                </g>
        </g>
        <svg viewBox="0 0 15 15" width="100%" height="30px" preserveAspectRatio="xMaxYMin meet">
         <g id="arrow_out" transform="scale(0.3 0.3)">
          <a xlink:href="classpkgCache__inherit__graph_org.svg" target="_base">
           <rect id="button" ry="5" rx="5" y="6" x="6" height="38" width="38"
                fill="#f2f5e9" fill-opacity="0.5" stroke="#606060" stroke-width="1.0"/>
           <path id="arrow"
             d="M 11.500037,31.436501 C 11.940474,20.09759 22.043105,11.32322 32.158766,21.979434 L 37.068811,17.246167 C 37.068811,17.246167 37.088388,32 37.088388,32 L 22.160133,31.978069 C 22.160133,31.978069 26.997745,27.140456 26.997745,27.140456 C 18.528582,18.264221 13.291696,25.230495 11.500037,31.436501 z"
             style="fill:#404040;"/>
          </a>
         </g>
        </svg>
</svg>
