<?xml version="1.0" encoding="UTF-8" standalone="no"?>
<!DOCTYPE svg PUBLIC "-//W3C//DTD SVG 1.1//EN"
 "http://www.w3.org/Graphics/SVG/1.1/DTD/svg11.dtd">
<!-- Generated by graphviz version 2.43.0 (0)
 -->
<!-- Title: debDscRecordParser Pages: 1 -->
<svg width="473pt" height="287pt"
 viewBox="0.00 0.00 472.50 287.00" xmlns="http://www.w3.org/2000/svg" xmlns:xlink="http://www.w3.org/1999/xlink">
<g id="graph0" class="graph" transform="scale(1 1) rotate(0) translate(4 283)">
<title>debDscRecordParser</title>
<polygon fill="white" stroke="transparent" points="-4,4 -4,-283 468.5,-283 468.5,4 -4,4"/>
<!-- Node1 -->
<g id="node1" class="node">
<title>Node1</title>
<g id="a_node1"><a xlink:title=" ">
<polygon fill="#bfbfbf" stroke="black" points="192.5,-0.5 192.5,-19.5 308.5,-19.5 308.5,-0.5 192.5,-0.5"/>
<text text-anchor="middle" x="250.5" y="-7.5" font-family="Helvetica,sans-Serif" font-size="10.00">debDscRecordParser</text>
</a>
</g>
</g>
<!-- Node2 -->
<g id="node2" class="node">
<title>Node2</title>
<g id="a_node2"><a xlink:href="classdebSrcRecordParser.xhtml" target="_top" xlink:title=" ">
<polygon fill="white" stroke="black" points="194,-57.5 194,-76.5 307,-76.5 307,-57.5 194,-57.5"/>
<text text-anchor="middle" x="250.5" y="-64.5" font-family="Helvetica,sans-Serif" font-size="10.00">debSrcRecordParser</text>
</a>
</g>
</g>
<!-- Node2&#45;&gt;Node1 -->
<g id="edge1" class="edge">
<title>Node2&#45;&gt;Node1</title>
<path fill="none" stroke="midnightblue" d="M250.5,-47.12C250.5,-37.82 250.5,-27.06 250.5,-19.71"/>
<polygon fill="midnightblue" stroke="midnightblue" points="247,-47.41 250.5,-57.41 254,-47.41 247,-47.41"/>
</g>
<!-- Node3 -->
<g id="node3" class="node">
<title>Node3</title>
<g id="a_node3"><a xlink:href="classpkgSrcRecords_1_1Parser.xhtml" target="_top" xlink:title=" ">
<polygon fill="white" stroke="black" points="16,-124.5 16,-143.5 63,-143.5 63,-124.5 16,-124.5"/>
<text text-anchor="middle" x="39.5" y="-131.5" font-family="Helvetica,sans-Serif" font-size="10.00">Parser</text>
</a>
</g>
</g>
<!-- Node3&#45;&gt;Node2 -->
<g id="edge2" class="edge">
<title>Node3&#45;&gt;Node2</title>
<path fill="none" stroke="midnightblue" d="M72.93,-122.7C114.36,-109.94 184.21,-88.42 222.79,-76.53"/>
<polygon fill="midnightblue" stroke="midnightblue" points="71.82,-119.38 63.29,-125.67 73.88,-126.07 71.82,-119.38"/>
</g>
<!-- Node4 -->
<g id="node4" class="node">
<title>Node4</title>
<g id="a_node4"><a xlink:href="classpkgIndexFile.xhtml" target="_top" xlink:title=" ">
<polygon fill="white" stroke="black" points="0,-202.5 0,-221.5 79,-221.5 79,-202.5 0,-202.5"/>
<text text-anchor="middle" x="39.5" y="-209.5" font-family="Helvetica,sans-Serif" font-size="10.00">pkgIndexFile</text>
</a>
</g>
</g>
<!-- Node4&#45;&gt;Node3 -->
<g id="edge3" class="edge">
<title>Node4&#45;&gt;Node3</title>
<path fill="none" stroke="#9a32cd" stroke-dasharray="5,2" d="M39.5,-192.22C39.5,-176.7 39.5,-155.36 39.5,-143.62"/>
<polygon fill="#9a32cd" stroke="#9a32cd" points="36,-192.28 39.5,-202.28 43,-192.28 36,-192.28"/>
<text text-anchor="middle" x="56.5" y="-170.5" font-family="Helvetica,sans-Serif" font-size="10.00"> iIndex</text>
</g>
<!-- Node5 -->
<g id="node5" class="node">
<title>Node5</title>
<g id="a_node5"><a xlink:href="classpkgTagSection.xhtml" target="_top" xlink:title=" ">
<polygon fill="white" stroke="black" points="81,-124.5 81,-143.5 168,-143.5 168,-124.5 81,-124.5"/>
<text text-anchor="middle" x="124.5" y="-131.5" font-family="Helvetica,sans-Serif" font-size="10.00">pkgTagSection</text>
</a>
</g>
</g>
<!-- Node5&#45;&gt;Node2 -->
<g id="edge4" class="edge">
<title>Node5&#45;&gt;Node2</title>
<path fill="none" stroke="#9a32cd" stroke-dasharray="5,2" d="M150.14,-119.77C175.09,-106.9 212.3,-87.71 233.7,-76.67"/>
<polygon fill="#9a32cd" stroke="#9a32cd" points="148.51,-116.67 141.23,-124.37 151.72,-122.89 148.51,-116.67"/>
<text text-anchor="middle" x="208" y="-98" font-family="Helvetica,sans-Serif" font-size="10.00"> Sect</text>
</g>
<!-- Node6 -->
<g id="node6" class="node">
<title>Node6</title>
<g id="a_node6"><a xlink:title=" ">
<polygon fill="white" stroke="#bfbfbf" points="186.5,-124.5 186.5,-143.5 314.5,-143.5 314.5,-124.5 186.5,-124.5"/>
<text text-anchor="middle" x="250.5" y="-131.5" font-family="Helvetica,sans-Serif" font-size="10.00">vector&lt; const char * &gt;</text>
</a>
</g>
</g>
<!-- Node6&#45;&gt;Node2 -->
<g id="edge5" class="edge">
<title>Node6&#45;&gt;Node2</title>
<path fill="none" stroke="#9a32cd" stroke-dasharray="5,2" d="M250.5,-114.04C250.5,-101.67 250.5,-86.12 250.5,-76.63"/>
<polygon fill="#9a32cd" stroke="#9a32cd" points="247,-114.23 250.5,-124.23 254,-114.23 247,-114.23"/>
<text text-anchor="middle" x="282.5" y="-98" font-family="Helvetica,sans-Serif" font-size="10.00"> StaticBinList</text>
</g>
<!-- Node7 -->
<g id="node7" class="node">
<title>Node7</title>
<g id="a_node7"><a xlink:href="classFileFd.xhtml" target="_top" xlink:title=" ">
<polygon fill="white" stroke="black" points="332.5,-124.5 332.5,-143.5 378.5,-143.5 378.5,-124.5 332.5,-124.5"/>
<text text-anchor="middle" x="355.5" y="-131.5" font-family="Helvetica,sans-Serif" font-size="10.00">FileFd</text>
</a>
</g>
</g>
<!-- Node7&#45;&gt;Node2 -->
<g id="edge6" class="edge">
<title>Node7&#45;&gt;Node2</title>
<path fill="none" stroke="#9a32cd" stroke-dasharray="5,2" d="M342.21,-116.46C335.67,-109.14 327.31,-100.88 318.5,-95 306.67,-87.1 292.17,-80.95 279.61,-76.52"/>
<polygon fill="#9a32cd" stroke="#9a32cd" points="339.82,-119.07 348.96,-124.43 345.16,-114.54 339.82,-119.07"/>
<text text-anchor="middle" x="339.5" y="-98" font-family="Helvetica,sans-Serif" font-size="10.00"> Fd</text>
</g>
<!-- Node8 -->
<g id="node8" class="node">
<title>Node8</title>
<g id="a_node8"><a xlink:title=" ">
<polygon fill="white" stroke="#bfbfbf" points="333.5,-202.5 333.5,-221.5 377.5,-221.5 377.5,-202.5 333.5,-202.5"/>
<text text-anchor="middle" x="355.5" y="-209.5" font-family="Helvetica,sans-Serif" font-size="10.00">string</text>
</a>
</g>
</g>
<!-- Node8&#45;&gt;Node7 -->
<g id="edge7" class="edge">
<title>Node8&#45;&gt;Node7</title>
<path fill="none" stroke="#9a32cd" stroke-dasharray="5,2" d="M355.5,-192.22C355.5,-176.7 355.5,-155.36 355.5,-143.62"/>
<polygon fill="#9a32cd" stroke="#9a32cd" points="352,-192.28 355.5,-202.28 359,-192.28 352,-192.28"/>
<text text-anchor="middle" x="405" y="-176" font-family="Helvetica,sans-Serif" font-size="10.00"> FileName</text>
<text text-anchor="middle" x="405" y="-165" font-family="Helvetica,sans-Serif" font-size="10.00">TemporaryFileName</text>
</g>
<!-- Node9 -->
<g id="node9" class="node">
<title>Node9</title>
<g id="a_node9"><a xlink:title=" ">
<polygon fill="white" stroke="#bfbfbf" points="295.5,-259.5 295.5,-278.5 415.5,-278.5 415.5,-259.5 295.5,-259.5"/>
<text text-anchor="middle" x="355.5" y="-266.5" font-family="Helvetica,sans-Serif" font-size="10.00">basic_string&lt; Char &gt;</text>
</a>
</g>
</g>
<!-- Node9&#45;&gt;Node8 -->
<g id="edge8" class="edge">
<title>Node9&#45;&gt;Node8</title>
<path fill="none" stroke="midnightblue" d="M355.5,-249.12C355.5,-239.82 355.5,-229.06 355.5,-221.71"/>
<polygon fill="midnightblue" stroke="midnightblue" points="352,-249.41 355.5,-259.41 359,-249.41 352,-249.41"/>
</g>
<!-- Node10 -->
<g id="node10" class="node">
<title>Node10</title>
<g id="a_node10"><a xlink:href="classpkgTagFile.xhtml" target="_top" xlink:title=" ">
<polygon fill="white" stroke="black" points="396.5,-124.5 396.5,-143.5 464.5,-143.5 464.5,-124.5 396.5,-124.5"/>
<text text-anchor="middle" x="430.5" y="-131.5" font-family="Helvetica,sans-Serif" font-size="10.00">pkgTagFile</text>
</a>
</g>
</g>
<!-- Node10&#45;&gt;Node2 -->
<g id="edge9" class="edge">
<title>Node10&#45;&gt;Node2</title>
<path fill="none" stroke="#9a32cd" stroke-dasharray="5,2" d="M405.56,-119.52C390.27,-111.63 370.11,-101.9 351.5,-95 331.42,-87.56 308.39,-81.24 289.4,-76.59"/>
<polygon fill="#9a32cd" stroke="#9a32cd" points="404.36,-122.84 414.84,-124.39 407.61,-116.64 404.36,-122.84"/>
<text text-anchor="middle" x="388" y="-98" font-family="Helvetica,sans-Serif" font-size="10.00"> Tags</text>
</g>
</g>
</svg>
