<svg xmlns="http://www.w3.org/2000/svg" xmlns:xlink="http://www.w3.org/1999/xlink" width="110pt" height="140pt" viewBox="0 0 110 140"><g id="graph0" class="graph" transform="scale(1 1) rotate(0) translate(4 136)"><title>debSLTypeDebSrc</title><polygon fill="#fff" stroke="transparent" points="-4 4 -4 -136 106 -136 106 4 -4 4"/><g id="node1" class="node"><title>Node1</title><g id="a_node1"><a><polygon fill="#bfbfbf" stroke="#000" points="0 -.5 0 -19.5 102 -19.5 102 -.5 0 -.5"/><text x="51" y="-7.5" font-family="Helvetica,sans-Serif" font-size="10" text-anchor="middle">debSLTypeDebSrc</text></a></g></g><g id="node2" class="node"><title>Node2</title><g id="a_node2"><a target="_top" xlink:href="classdebSLTypeDebian.xhtml"><polygon fill="#fff" stroke="#000" points="0 -56.5 0 -75.5 102 -75.5 102 -56.5 0 -56.5"/><text x="51" y="-63.5" font-family="Helvetica,sans-Serif" font-size="10" text-anchor="middle">debSLTypeDebian</text></a></g></g><g id="edge1" class="edge"><title>Node2-&gt;Node1</title><path fill="none" stroke="#191970" d="M51,-45.8C51,-36.91 51,-26.78 51,-19.75"/><polygon fill="#191970" stroke="#191970" points="47.5 -46.08 51 -56.08 54.5 -46.08 47.5 -46.08"/></g><g id="node3" class="node"><title>Node3</title><g id="a_node3"><a target="_top" xlink:href="classpkgSourceList_1_1Type.xhtml"><polygon fill="#fff" stroke="#000" points="31.5 -112.5 31.5 -131.5 70.5 -131.5 70.5 -112.5 31.5 -112.5"/><text x="51" y="-119.5" font-family="Helvetica,sans-Serif" font-size="10" text-anchor="middle">Type</text></a></g></g><g id="edge2" class="edge"><title>Node3-&gt;Node2</title><path fill="none" stroke="#191970" d="M51,-101.8C51,-92.91 51,-82.78 51,-75.75"/><polygon fill="#191970" stroke="#191970" points="47.5 -102.08 51 -112.08 54.5 -102.08 47.5 -102.08"/></g></g></svg>