<?xml version="1.0" encoding="UTF-8" standalone="no"?>
<!DOCTYPE svg PUBLIC "-//W3C//DTD SVG 1.1//EN"
 "http://www.w3.org/Graphics/SVG/1.1/DTD/svg11.dtd">
<!-- Generated by graphviz version 2.43.0 (0)
 -->
<!-- Title: pkgAcquire Pages: 1 -->
<svg width="708pt" height="570pt"
 viewBox="0.00 0.00 708.00 569.91" xmlns="http://www.w3.org/2000/svg" xmlns:xlink="http://www.w3.org/1999/xlink">
<g id="graph0" class="graph" transform="scale(1 1) rotate(0) translate(4 565.91)">
<title>pkgAcquire</title>
<polygon fill="white" stroke="transparent" points="-4,4 -4,-565.91 704,-565.91 704,4 -4,4"/>
<!-- Node1 -->
<g id="node1" class="node">
<title>Node1</title>
<g id="a_node1"><a xlink:title="Represents the process by which a pkgAcquire object should retrieve a file or a collection of files.">
<polygon fill="#bfbfbf" stroke="black" points="629,-352.41 629,-371.41 700,-371.41 700,-352.41 629,-352.41"/>
<text text-anchor="middle" x="664.5" y="-359.41" font-family="Helvetica,sans-Serif" font-size="10.00">pkgAcquire</text>
</a>
</g>
</g>
<!-- Node1&#45;&gt;Node1 -->
<g id="edge8" class="edge">
<title>Node1&#45;&gt;Node1</title>
<path fill="none" stroke="#9a32cd" stroke-dasharray="5,2" d="M647.46,-381.31C648.6,-386.22 654.28,-389.91 664.5,-389.91 680.85,-389.91 685.58,-380.47 678.68,-371.66"/>
<polygon fill="#9a32cd" stroke="#9a32cd" points="650.84,-382.25 650.32,-371.66 644.12,-380.26 650.84,-382.25"/>
<text text-anchor="middle" x="664.5" y="-392.91" font-family="Helvetica,sans-Serif" font-size="10.00"> Owner</text>
</g>
<!-- Node2 -->
<g id="node2" class="node">
<title>Node2</title>
<g id="a_node2"><a xlink:title=" ">
<polygon fill="white" stroke="#bfbfbf" points="355,-542.41 355,-561.41 502,-561.41 502,-542.41 355,-542.41"/>
<text text-anchor="middle" x="428.5" y="-549.41" font-family="Helvetica,sans-Serif" font-size="10.00">Item public WeakPointable</text>
</a>
</g>
</g>
<!-- Node2&#45;&gt;Node1 -->
<g id="edge1" class="edge">
<title>Node2&#45;&gt;Node1</title>
<path fill="none" stroke="#8b1a1a" d="M509.25,-539.95C544.65,-530.85 584.26,-514.88 611,-486.91 643.85,-452.54 657.55,-394.58 661.86,-371.66"/>
<polygon fill="#8b1a1a" stroke="#8b1a1a" points="508.28,-536.58 499.39,-542.33 509.93,-543.38 508.28,-536.58"/>
</g>
<!-- Node3 -->
<g id="node3" class="node">
<title>Node3</title>
<g id="a_node3"><a xlink:title=" ">
<polygon fill="white" stroke="#bfbfbf" points="349.5,-504.41 349.5,-523.41 507.5,-523.41 507.5,-504.41 349.5,-504.41"/>
<text text-anchor="middle" x="428.5" y="-511.41" font-family="Helvetica,sans-Serif" font-size="10.00">Worker public WeakPointable</text>
</a>
</g>
</g>
<!-- Node3&#45;&gt;Node1 -->
<g id="edge2" class="edge">
<title>Node3&#45;&gt;Node1</title>
<path fill="none" stroke="#8b1a1a" d="M507.49,-502.07C542.51,-493.4 582.31,-478.48 611,-452.91 637.28,-429.48 653.77,-389.66 660.3,-371.47"/>
<polygon fill="#8b1a1a" stroke="#8b1a1a" points="506.68,-498.66 497.75,-504.35 508.28,-505.48 506.68,-498.66"/>
</g>
<!-- Node4 -->
<g id="node4" class="node">
<title>Node4</title>
<g id="a_node4"><a xlink:title=" ">
<polygon fill="white" stroke="#bfbfbf" points="343,-466.41 343,-485.41 514,-485.41 514,-466.41 343,-466.41"/>
<text text-anchor="middle" x="428.5" y="-473.41" font-family="Helvetica,sans-Serif" font-size="10.00">ItemDesc public WeakPointable</text>
</a>
</g>
</g>
<!-- Node4&#45;&gt;Node1 -->
<g id="edge3" class="edge">
<title>Node4&#45;&gt;Node1</title>
<path fill="none" stroke="midnightblue" d="M505.9,-464.14C540.2,-456.22 579.87,-443.17 611,-421.91 631.12,-408.17 648.39,-384.96 657.22,-371.8"/>
<polygon fill="midnightblue" stroke="midnightblue" points="504.92,-460.78 495.91,-466.35 506.43,-467.61 504.92,-460.78"/>
</g>
<!-- Node5 -->
<g id="node5" class="node">
<title>Node5</title>
<g id="a_node5"><a xlink:title=" ">
<polygon fill="white" stroke="#bfbfbf" points="404.5,-428.41 404.5,-447.41 452.5,-447.41 452.5,-428.41 404.5,-428.41"/>
<text text-anchor="middle" x="428.5" y="-435.41" font-family="Helvetica,sans-Serif" font-size="10.00">Queue</text>
</a>
</g>
</g>
<!-- Node5&#45;&gt;Node1 -->
<g id="edge4" class="edge">
<title>Node5&#45;&gt;Node1</title>
<path fill="none" stroke="#8b1a1a" d="M462.96,-433.77C500.23,-428.35 561.73,-416.96 611,-395.91 625.78,-389.59 641.02,-379.22 651.24,-371.58"/>
<polygon fill="#8b1a1a" stroke="#8b1a1a" points="462.08,-430.36 452.66,-435.21 463.05,-437.29 462.08,-430.36"/>
</g>
<!-- Node6 -->
<g id="node6" class="node">
<title>Node6</title>
<g id="a_node6"><a xlink:title=" ">
<polygon fill="white" stroke="#bfbfbf" points="395,-390.41 395,-409.41 462,-409.41 462,-390.41 395,-390.41"/>
<text text-anchor="middle" x="428.5" y="-397.41" font-family="Helvetica,sans-Serif" font-size="10.00">UriIterator</text>
</a>
</g>
</g>
<!-- Node6&#45;&gt;Node1 -->
<g id="edge5" class="edge">
<title>Node6&#45;&gt;Node1</title>
<path fill="none" stroke="#8b1a1a" d="M472.57,-395.8C509.5,-391.89 564.04,-385.23 611,-375.91 617.29,-374.66 623.95,-373.08 630.32,-371.45"/>
<polygon fill="#8b1a1a" stroke="#8b1a1a" points="471.75,-392.36 462.17,-396.87 472.47,-399.32 471.75,-392.36"/>
</g>
<!-- Node7 -->
<g id="node7" class="node">
<title>Node7</title>
<g id="a_node7"><a xlink:title=" ">
<polygon fill="white" stroke="#bfbfbf" points="386.5,-352.41 386.5,-371.41 470.5,-371.41 470.5,-352.41 386.5,-352.41"/>
<text text-anchor="middle" x="428.5" y="-359.41" font-family="Helvetica,sans-Serif" font-size="10.00">MethodConfig</text>
</a>
</g>
</g>
<!-- Node7&#45;&gt;Node1 -->
<g id="edge6" class="edge">
<title>Node7&#45;&gt;Node1</title>
<path fill="none" stroke="midnightblue" d="M480.64,-361.91C525.47,-361.91 589.45,-361.91 628.63,-361.91"/>
<polygon fill="midnightblue" stroke="midnightblue" points="480.53,-358.41 470.53,-361.91 480.53,-365.41 480.53,-358.41"/>
</g>
<!-- Node8 -->
<g id="node8" class="node">
<title>Node8</title>
<g id="a_node8"><a xlink:title=" ">
<polygon fill="white" stroke="#bfbfbf" points="157,-281.41 157,-300.41 258,-300.41 258,-281.41 157,-281.41"/>
<text text-anchor="middle" x="207.5" y="-288.41" font-family="Helvetica,sans-Serif" font-size="10.00">vector&lt; Item * &gt;</text>
</a>
</g>
</g>
<!-- Node8&#45;&gt;Node1 -->
<g id="edge7" class="edge">
<title>Node8&#45;&gt;Node1</title>
<path fill="none" stroke="#9a32cd" stroke-dasharray="5,2" d="M268.07,-297.75C329.76,-305.1 428.88,-317.67 514,-331.91 553.56,-338.52 598.65,-347.82 628.88,-354.3"/>
<polygon fill="#9a32cd" stroke="#9a32cd" points="268.46,-294.27 258.12,-296.57 267.64,-301.22 268.46,-294.27"/>
<text text-anchor="middle" x="428.5" y="-334.91" font-family="Helvetica,sans-Serif" font-size="10.00"> Items</text>
</g>
<!-- Node13 -->
<g id="node13" class="node">
<title>Node13</title>
<g id="a_node13"><a xlink:href="structpkgAcquire_1_1QItem.xhtml" target="_top" xlink:title="A single item placed in this queue.">
<polygon fill="white" stroke="black" points="405,-238.41 405,-257.41 452,-257.41 452,-238.41 405,-238.41"/>
<text text-anchor="middle" x="428.5" y="-245.41" font-family="Helvetica,sans-Serif" font-size="10.00">QItem</text>
</a>
</g>
</g>
<!-- Node8&#45;&gt;Node13 -->
<g id="edge16" class="edge">
<title>Node8&#45;&gt;Node13</title>
<path fill="none" stroke="#9a32cd" stroke-dasharray="5,2" d="M267.1,-279.4C312.36,-270.51 372.55,-258.7 404.8,-252.36"/>
<polygon fill="#9a32cd" stroke="#9a32cd" points="266.24,-276 257.1,-281.36 267.59,-282.87 266.24,-276"/>
<text text-anchor="middle" x="300.5" y="-279.91" font-family="Helvetica,sans-Serif" font-size="10.00"> Owners</text>
</g>
<!-- Node9 -->
<g id="node9" class="node">
<title>Node9</title>
<g id="a_node9"><a xlink:title=" ">
<polygon fill="white" stroke="#bfbfbf" points="185.5,-71.41 185.5,-90.41 229.5,-90.41 229.5,-71.41 185.5,-71.41"/>
<text text-anchor="middle" x="207.5" y="-78.41" font-family="Helvetica,sans-Serif" font-size="10.00">string</text>
</a>
</g>
</g>
<!-- Node9&#45;&gt;Node1 -->
<g id="edge9" class="edge">
<title>Node9&#45;&gt;Node1</title>
<path fill="none" stroke="#9a32cd" stroke-dasharray="5,2" d="M240.32,-82.96C316.22,-87.96 502.43,-100.86 514,-107.91 610.59,-166.72 651.83,-313.28 661.3,-352.26"/>
<polygon fill="#9a32cd" stroke="#9a32cd" points="240.17,-79.44 229.96,-82.28 239.71,-86.43 240.17,-79.44"/>
<text text-anchor="middle" x="428.5" y="-220.91" font-family="Helvetica,sans-Serif" font-size="10.00"> Access</text>
<text text-anchor="middle" x="428.5" y="-209.91" font-family="Helvetica,sans-Serif" font-size="10.00">ActiveSubprocess</text>
<text text-anchor="middle" x="428.5" y="-198.91" font-family="Helvetica,sans-Serif" font-size="10.00">Description</text>
<text text-anchor="middle" x="428.5" y="-187.91" font-family="Helvetica,sans-Serif" font-size="10.00">DestFile</text>
<text text-anchor="middle" x="428.5" y="-176.91" font-family="Helvetica,sans-Serif" font-size="10.00">ErrorText</text>
<text text-anchor="middle" x="428.5" y="-165.91" font-family="Helvetica,sans-Serif" font-size="10.00">Name</text>
<text text-anchor="middle" x="428.5" y="-154.91" font-family="Helvetica,sans-Serif" font-size="10.00">OutQueue</text>
<text text-anchor="middle" x="428.5" y="-143.91" font-family="Helvetica,sans-Serif" font-size="10.00">ShortDesc</text>
<text text-anchor="middle" x="428.5" y="-132.91" font-family="Helvetica,sans-Serif" font-size="10.00">Status</text>
<text text-anchor="middle" x="428.5" y="-121.91" font-family="Helvetica,sans-Serif" font-size="10.00">URI</text>
<text text-anchor="middle" x="428.5" y="-110.91" font-family="Helvetica,sans-Serif" font-size="10.00">...</text>
</g>
<!-- Node12 -->
<g id="node12" class="node">
<title>Node12</title>
<g id="a_node12"><a xlink:title=" ">
<polygon fill="white" stroke="#bfbfbf" points="369,-43.41 369,-62.41 488,-62.41 488,-43.41 369,-43.41"/>
<text text-anchor="middle" x="428.5" y="-50.41" font-family="Helvetica,sans-Serif" font-size="10.00">vector&lt; std::string &gt;</text>
</a>
</g>
</g>
<!-- Node9&#45;&gt;Node12 -->
<g id="edge13" class="edge">
<title>Node9&#45;&gt;Node12</title>
<path fill="none" stroke="#9a32cd" stroke-dasharray="5,2" d="M240.03,-76.88C273.54,-72.59 327.3,-65.72 368.68,-60.43"/>
<polygon fill="#9a32cd" stroke="#9a32cd" points="239.37,-73.43 229.9,-78.17 240.26,-80.37 239.37,-73.43"/>
<text text-anchor="middle" x="300.5" y="-73.91" font-family="Helvetica,sans-Serif" font-size="10.00"> elements</text>
</g>
<!-- Node10 -->
<g id="node10" class="node">
<title>Node10</title>
<g id="a_node10"><a xlink:title=" ">
<polygon fill="white" stroke="#bfbfbf" points="0,-71.41 0,-90.41 120,-90.41 120,-71.41 0,-71.41"/>
<text text-anchor="middle" x="60" y="-78.41" font-family="Helvetica,sans-Serif" font-size="10.00">basic_string&lt; Char &gt;</text>
</a>
</g>
</g>
<!-- Node10&#45;&gt;Node9 -->
<g id="edge10" class="edge">
<title>Node10&#45;&gt;Node9</title>
<path fill="none" stroke="midnightblue" d="M130.3,-80.91C150.38,-80.91 170.81,-80.91 185.46,-80.91"/>
<polygon fill="midnightblue" stroke="midnightblue" points="130.18,-77.41 120.18,-80.91 130.18,-84.41 130.18,-77.41"/>
</g>
<!-- Node11 -->
<g id="node11" class="node">
<title>Node11</title>
<g id="a_node11"><a xlink:href="classpkgAcquireStatus.xhtml" target="_top" xlink:title="A monitor object for downloads controlled by the pkgAcquire class. {{{.">
<polygon fill="white" stroke="black" points="377.5,-5.41 377.5,-24.41 479.5,-24.41 479.5,-5.41 377.5,-5.41"/>
<text text-anchor="middle" x="428.5" y="-12.41" font-family="Helvetica,sans-Serif" font-size="10.00">pkgAcquireStatus</text>
</a>
</g>
</g>
<!-- Node11&#45;&gt;Node1 -->
<g id="edge11" class="edge">
<title>Node11&#45;&gt;Node1</title>
<path fill="none" stroke="#9a32cd" stroke-dasharray="5,2" d="M478.21,-3.72C518.95,2.52 575.9,3.51 611,-28.91 659.91,-74.08 663.35,-301.95 663.51,-352.12"/>
<polygon fill="#9a32cd" stroke="#9a32cd" points="477.5,-0.29 468.22,-5.41 478.66,-7.2 477.5,-0.29"/>
<text text-anchor="middle" x="571.5" y="-31.91" font-family="Helvetica,sans-Serif" font-size="10.00"> Log</text>
</g>
<!-- Node12&#45;&gt;Node1 -->
<g id="edge12" class="edge">
<title>Node12&#45;&gt;Node1</title>
<path fill="none" stroke="#9a32cd" stroke-dasharray="5,2" d="M495.54,-42.71C534,-40.68 580.72,-45.54 611,-73.91 652.82,-113.09 661.7,-306.71 663.22,-352.29"/>
<polygon fill="#9a32cd" stroke="#9a32cd" points="495.18,-39.22 485.44,-43.41 495.66,-46.21 495.18,-39.22"/>
<text text-anchor="middle" x="571.5" y="-76.91" font-family="Helvetica,sans-Serif" font-size="10.00"> MessageQueue</text>
</g>
<!-- Node13&#45;&gt;Node1 -->
<g id="edge14" class="edge">
<title>Node13&#45;&gt;Node1</title>
<path fill="none" stroke="#9a32cd" stroke-dasharray="5,2" d="M462.33,-250.91C500.69,-255.71 564.78,-267.87 611,-297.91 632.69,-312 649.83,-337.92 658.1,-352.06"/>
<polygon fill="#9a32cd" stroke="#9a32cd" points="462.57,-247.41 452.23,-249.74 461.77,-254.37 462.57,-247.41"/>
<text text-anchor="middle" x="571.5" y="-300.91" font-family="Helvetica,sans-Serif" font-size="10.00"> Items</text>
</g>
<!-- Node13&#45;&gt;Node13 -->
<g id="edge17" class="edge">
<title>Node13&#45;&gt;Node13</title>
<path fill="none" stroke="#9a32cd" stroke-dasharray="5,2" d="M404.69,-266.94C405.99,-272.04 413.93,-275.91 428.5,-275.91 451.25,-275.91 457.83,-266.47 448.23,-257.66"/>
<polygon fill="#9a32cd" stroke="#9a32cd" points="407.95,-268.23 408.77,-257.66 401.54,-265.41 407.95,-268.23"/>
<text text-anchor="middle" x="428.5" y="-278.91" font-family="Helvetica,sans-Serif" font-size="10.00"> Next</text>
</g>
<!-- Node14 -->
<g id="node14" class="node">
<title>Node14</title>
<g id="a_node14"><a xlink:title=" ">
<polygon fill="white" stroke="#bfbfbf" points="176,-238.41 176,-257.41 239,-257.41 239,-238.41 176,-238.41"/>
<text text-anchor="middle" x="207.5" y="-245.41" font-family="Helvetica,sans-Serif" font-size="10.00">ItemDesc</text>
</a>
</g>
</g>
<!-- Node14&#45;&gt;Node13 -->
<g id="edge15" class="edge">
<title>Node14&#45;&gt;Node13</title>
<path fill="none" stroke="midnightblue" d="M249.62,-247.91C295.51,-247.91 368.11,-247.91 404.75,-247.91"/>
<polygon fill="midnightblue" stroke="midnightblue" points="249.41,-244.41 239.41,-247.91 249.41,-251.41 249.41,-244.41"/>
</g>
</g>
</svg>
