<svg xmlns="http://www.w3.org/2000/svg" xmlns:xlink="http://www.w3.org/1999/xlink" width="127pt" height="106pt" viewBox="0 0 127 106"><g id="graph0" class="graph" transform="scale(1 1) rotate(0) translate(4 102)"><title>pkgCacheGenerator::Dynamic&lt; Iter &gt;</title><polygon fill="#fff" stroke="transparent" points="-4 4 -4 -102 123 -102 123 4 -4 4"/><g id="node1" class="node"><title>Node1</title><g id="a_node1"><a><polygon fill="#bfbfbf" stroke="#000" points="0 -.5 0 -30.5 119 -30.5 119 -.5 0 -.5"/><text x="8" y="-18.5" font-family="Helvetica,sans-Serif" font-size="10" text-anchor="start">pkgCacheGenerator::</text><text x="59.5" y="-7.5" font-family="Helvetica,sans-Serif" font-size="10" text-anchor="middle">Dynamic&lt; Iter &gt;</text></a></g></g><g id="node2" class="node"><title>Node2</title><g id="a_node2"><a><polygon fill="#fff" stroke="#bfbfbf" points="12 -78.5 12 -97.5 107 -97.5 107 -78.5 12 -78.5"/><text x="59.5" y="-85.5" font-family="Helvetica,sans-Serif" font-size="10" text-anchor="middle">vector&lt; Iter * &gt;</text></a></g></g><g id="edge1" class="edge"><title>Node2-&gt;Node1</title><path fill="none" stroke="#9a32cd" stroke-dasharray="5 2" d="M59.5,-68.24C59.5,-56.41 59.5,-41.38 59.5,-30.58"/><polygon fill="#9a32cd" stroke="#9a32cd" points="56 -68.36 59.5 -78.36 63 -68.36 56 -68.36"/><text x="83" y="-52" font-family="Helvetica,sans-Serif" font-size="10" text-anchor="middle">toReMap</text></g></g></svg>