<?xml version="1.0" encoding="UTF-8" standalone="no"?>
<!DOCTYPE svg PUBLIC "-//W3C//DTD SVG 1.1//EN"
 "http://www.w3.org/Graphics/SVG/1.1/DTD/svg11.dtd">
<!-- Generated by graphviz version 2.43.0 (0)
 -->
<!-- Title: pkgDPkgPMPrivate Pages: 1 -->
<svg width="226pt" height="219pt"
 viewBox="0.00 0.00 225.50 219.00" xmlns="http://www.w3.org/2000/svg" xmlns:xlink="http://www.w3.org/1999/xlink">
<g id="graph0" class="graph" transform="scale(1 1) rotate(0) translate(4 215)">
<title>pkgDPkgPMPrivate</title>
<polygon fill="white" stroke="transparent" points="-4,4 -4,-215 221.5,-215 221.5,4 -4,4"/>
<!-- Node1 -->
<g id="node1" class="node">
<title>Node1</title>
<g id="a_node1"><a xlink:title=" ">
<polygon fill="#bfbfbf" stroke="black" points="5,-0.5 5,-19.5 115,-19.5 115,-0.5 5,-0.5"/>
<text text-anchor="middle" x="60" y="-7.5" font-family="Helvetica,sans-Serif" font-size="10.00">pkgDPkgPMPrivate</text>
</a>
</g>
</g>
<!-- Node2 -->
<g id="node2" class="node">
<title>Node2</title>
<g id="a_node2"><a xlink:href="classAPT_1_1Progress_1_1PackageManager.xhtml" target="_top" xlink:title=" ">
<polygon fill="white" stroke="black" points="118.5,-67.5 118.5,-86.5 217.5,-86.5 217.5,-67.5 118.5,-67.5"/>
<text text-anchor="middle" x="168" y="-74.5" font-family="Helvetica,sans-Serif" font-size="10.00">PackageManager</text>
</a>
</g>
</g>
<!-- Node2&#45;&gt;Node1 -->
<g id="edge1" class="edge">
<title>Node2&#45;&gt;Node1</title>
<path fill="none" stroke="#9a32cd" stroke-dasharray="5,2" d="M144.64,-61.94C123.25,-49.07 92.28,-30.43 74.33,-19.63"/>
<polygon fill="#9a32cd" stroke="#9a32cd" points="143.06,-65.08 153.43,-67.23 146.67,-59.08 143.06,-65.08"/>
<text text-anchor="middle" x="143" y="-41" font-family="Helvetica,sans-Serif" font-size="10.00"> progress</text>
</g>
<!-- Node3 -->
<g id="node3" class="node">
<title>Node3</title>
<g id="a_node3"><a xlink:title=" ">
<polygon fill="white" stroke="#bfbfbf" points="38,-134.5 38,-153.5 82,-153.5 82,-134.5 38,-134.5"/>
<text text-anchor="middle" x="60" y="-141.5" font-family="Helvetica,sans-Serif" font-size="10.00">string</text>
</a>
</g>
</g>
<!-- Node3&#45;&gt;Node1 -->
<g id="edge4" class="edge">
<title>Node3&#45;&gt;Node1</title>
<path fill="none" stroke="#9a32cd" stroke-dasharray="5,2" d="M57.08,-123.85C55.08,-108.49 52.96,-86.38 54,-67 54.9,-50.21 57.3,-30.7 58.78,-19.71"/>
<polygon fill="#9a32cd" stroke="#9a32cd" points="53.67,-124.71 58.53,-134.12 60.6,-123.73 53.67,-124.71"/>
<text text-anchor="middle" x="82" y="-74.5" font-family="Helvetica,sans-Serif" font-size="10.00"> dpkg_error</text>
</g>
<!-- Node3&#45;&gt;Node2 -->
<g id="edge2" class="edge">
<title>Node3&#45;&gt;Node2</title>
<path fill="none" stroke="#9a32cd" stroke-dasharray="5,2" d="M83.36,-128.94C104.75,-116.07 135.72,-97.43 153.67,-86.63"/>
<polygon fill="#9a32cd" stroke="#9a32cd" points="81.33,-126.08 74.57,-134.23 84.94,-132.08 81.33,-126.08"/>
<text text-anchor="middle" x="152" y="-108" font-family="Helvetica,sans-Serif" font-size="10.00"> progress_str</text>
</g>
<!-- Node4 -->
<g id="node4" class="node">
<title>Node4</title>
<g id="a_node4"><a xlink:title=" ">
<polygon fill="white" stroke="#bfbfbf" points="0,-191.5 0,-210.5 120,-210.5 120,-191.5 0,-191.5"/>
<text text-anchor="middle" x="60" y="-198.5" font-family="Helvetica,sans-Serif" font-size="10.00">basic_string&lt; Char &gt;</text>
</a>
</g>
</g>
<!-- Node4&#45;&gt;Node3 -->
<g id="edge3" class="edge">
<title>Node4&#45;&gt;Node3</title>
<path fill="none" stroke="midnightblue" d="M60,-181.12C60,-171.82 60,-161.06 60,-153.71"/>
<polygon fill="midnightblue" stroke="midnightblue" points="56.5,-181.41 60,-191.41 63.5,-181.41 56.5,-181.41"/>
</g>
</g>
</svg>
