<svg xmlns="http://www.w3.org/2000/svg" xmlns:xlink="http://www.w3.org/1999/xlink" width="176pt" height="220pt" viewBox="0 0 176 220"><g id="graph0" class="graph" transform="scale(1 1) rotate(0) translate(4 216)"><title>OpTextProgress</title><polygon fill="#fff" stroke="transparent" points="-4 4 -4 -216 172 -216 172 4 -4 4"/><g id="node1" class="node"><title>Node1</title><g id="a_node1"><a><polygon fill="#bfbfbf" stroke="#000" points="10 -.5 10 -19.5 102 -19.5 102 -.5 10 -.5"/><text x="56" y="-7.5" font-family="Helvetica,sans-Serif" font-size="10" text-anchor="middle">OpTextProgress</text></a></g></g><g id="node2" class="node"><title>Node2</title><g id="a_node2"><a target="_top" xlink:href="classOpProgress.xhtml"><polygon fill="#fff" stroke="#000" points="96 -57.5 96 -76.5 168 -76.5 168 -57.5 96 -57.5"/><text x="132" y="-64.5" font-family="Helvetica,sans-Serif" font-size="10" text-anchor="middle">OpProgress</text></a></g></g><g id="edge1" class="edge"><title>Node2-&gt;Node1</title><path fill="none" stroke="#191970" d="M111.67,-51.29C97.74,-41.21 79.75,-28.19 68.04,-19.71"/><polygon fill="#191970" stroke="#191970" points="109.97 -54.38 120.12 -57.41 114.08 -48.71 109.97 -54.38"/></g><g id="node3" class="node"><title>Node3</title><g id="a_node3"><a><polygon fill="#fff" stroke="#bfbfbf" points="38 -135.5 38 -154.5 82 -154.5 82 -135.5 38 -135.5"/><text x="60" y="-142.5" font-family="Helvetica,sans-Serif" font-size="10" text-anchor="middle">string</text></a></g></g><g id="edge4" class="edge"><title>Node3-&gt;Node1</title><path fill="none" stroke="#9a32cd" stroke-dasharray="5 2" d="M57.49,-125.04C55.84,-111.65 53.85,-93.26 53,-77 52.54,-68.12 52.71,-65.88 53,-57 53.42,-44.04 54.51,-29.06 55.25,-19.81"/><polygon fill="#9a32cd" stroke="#9a32cd" points="54.07 -125.87 58.81 -135.35 61.01 -124.99 54.07 -125.87"/><text x="70" y="-64.5" font-family="Helvetica,sans-Serif" font-size="10" text-anchor="middle">OldOp</text></g><g id="edge2" class="edge"><title>Node3-&gt;Node2</title><path fill="none" stroke="#9a32cd" stroke-dasharray="5 2" d="M75.28,-127.88C90.11,-112.22 112.07,-89.04 123.84,-76.62"/><polygon fill="#9a32cd" stroke="#9a32cd" points="72.6 -125.62 68.26 -135.28 77.68 -130.43 72.6 -125.62"/><text x="120" y="-109" font-family="Helvetica,sans-Serif" font-size="10" text-anchor="middle">Op</text><text x="120" y="-98" font-family="Helvetica,sans-Serif" font-size="10" text-anchor="middle">SubOp</text></g><g id="node4" class="node"><title>Node4</title><g id="a_node4"><a><polygon fill="#fff" stroke="#bfbfbf" points="0 -192.5 0 -211.5 120 -211.5 120 -192.5 0 -192.5"/><text x="60" y="-199.5" font-family="Helvetica,sans-Serif" font-size="10" text-anchor="middle">basic_string&lt; Char &gt;</text></a></g></g><g id="edge3" class="edge"><title>Node4-&gt;Node3</title><path fill="none" stroke="#191970" d="M60,-182.12C60,-172.82 60,-162.06 60,-154.71"/><polygon fill="#191970" stroke="#191970" points="56.5 -182.41 60 -192.41 63.5 -182.41 56.5 -182.41"/></g></g></svg>