<?xml version="1.0" encoding="UTF-8" standalone="no"?>
<!DOCTYPE svg PUBLIC "-//W3C//DTD SVG 1.1//EN"
 "http://www.w3.org/Graphics/SVG/1.1/DTD/svg11.dtd">
<!-- Generated by graphviz version 2.43.0 (0)
 -->
<!-- Title: edspIFType Pages: 1 -->
<svg width="133pt" height="85pt"
 viewBox="0.00 0.00 133.00 85.00" xmlns="http://www.w3.org/2000/svg" xmlns:xlink="http://www.w3.org/1999/xlink">
<g id="graph0" class="graph" transform="scale(1 1) rotate(0) translate(4 81)">
<title>edspIFType</title>
<polygon fill="white" stroke="transparent" points="-4,4 -4,-81 129,-81 129,4 -4,4"/>
<!-- Node1 -->
<g id="node1" class="node">
<title>Node1</title>
<g id="a_node1"><a xlink:title=" ">
<polygon fill="#bfbfbf" stroke="black" points="0,-0.5 0,-19.5 71,-19.5 71,-0.5 0,-0.5"/>
<text text-anchor="middle" x="35.5" y="-7.5" font-family="Helvetica,sans-Serif" font-size="10.00">edspIFType</text>
</a>
</g>
</g>
<!-- Node2 -->
<g id="node2" class="node">
<title>Node2</title>
<g id="a_node2"><a xlink:href="classpkgIndexFile_1_1Type.xhtml" target="_top" xlink:title=" ">
<polygon fill="white" stroke="black" points="16,-57.5 16,-76.5 55,-76.5 55,-57.5 16,-57.5"/>
<text text-anchor="middle" x="35.5" y="-64.5" font-family="Helvetica,sans-Serif" font-size="10.00">Type</text>
</a>
</g>
</g>
<!-- Node2&#45;&gt;Node1 -->
<g id="edge1" class="edge">
<title>Node2&#45;&gt;Node1</title>
<path fill="none" stroke="midnightblue" d="M35.5,-47.12C35.5,-37.82 35.5,-27.06 35.5,-19.71"/>
<polygon fill="midnightblue" stroke="midnightblue" points="32,-47.41 35.5,-57.41 39,-47.41 32,-47.41"/>
</g>
<!-- Node2&#45;&gt;Node2 -->
<g id="edge2" class="edge">
<title>Node2&#45;&gt;Node2</title>
<path fill="none" stroke="#9a32cd" stroke-dasharray="5,2" d="M65.33,-71.79C69.9,-71.06 73,-69.47 73,-67 73,-62.95 64.64,-61.25 55.18,-61.88"/>
<polygon fill="#9a32cd" stroke="#9a32cd" points="65.06,-68.3 55.18,-72.12 65.29,-75.3 65.06,-68.3"/>
<text text-anchor="middle" x="99" y="-64.5" font-family="Helvetica,sans-Serif" font-size="10.00"> GlobalList</text>
</g>
</g>
</svg>
