<svg xmlns="http://www.w3.org/2000/svg" xmlns:xlink="http://www.w3.org/1999/xlink" width="139pt" height="336" viewBox="0 0 139 252"><g id="graph0" class="graph" transform="scale(1 1) rotate(0) translate(4 248)"><title>pkgAcqMetaClearSig</title><polygon fill="#fff" stroke="transparent" points="-4 4 -4 -248 135 -248 135 4 -4 4"/><g id="node1" class="node"><title>Node1</title><g id="a_node1"><a xlink:title="An item responsible for downloading clearsigned metaindexes {{{."><polygon fill="#bfbfbf" stroke="#000" points="6.5 -.5 6.5 -19.5 124.5 -19.5 124.5 -.5 6.5 -.5"/><text x="65.5" y="-7.5" font-family="Helvetica,sans-Serif" font-size="10" text-anchor="middle">pkgAcqMetaClearSig</text></a></g></g><g id="node2" class="node"><title>Node2</title><g id="a_node2"><a target="_top" xlink:href="classpkgAcqMetaIndex.xhtml" xlink:title="An item that is responsible for downloading the meta-index {{{ file (i.e., Release) itself and verify..."><polygon fill="#fff" stroke="#000" points="13.5 -56.5 13.5 -75.5 117.5 -75.5 117.5 -56.5 13.5 -56.5"/><text x="65.5" y="-63.5" font-family="Helvetica,sans-Serif" font-size="10" text-anchor="middle">pkgAcqMetaIndex</text></a></g></g><g id="edge1" class="edge"><title>Node2-&gt;Node1</title><path fill="none" stroke="#191970" d="M65.5,-45.8C65.5,-36.91 65.5,-26.78 65.5,-19.75"/><polygon fill="#191970" stroke="#191970" points="62 -46.08 65.5 -56.08 69 -46.08 62 -46.08"/></g><g id="node3" class="node"><title>Node3</title><g id="a_node3"><a target="_top" xlink:href="classpkgAcqMetaBase.xhtml" xlink:title="the manager of a transaction"><polygon fill="#fff" stroke="#000" points="15 -112.5 15 -131.5 116 -131.5 116 -112.5 15 -112.5"/><text x="65.5" y="-119.5" font-family="Helvetica,sans-Serif" font-size="10" text-anchor="middle">pkgAcqMetaBase</text></a></g></g><g id="edge2" class="edge"><title>Node3-&gt;Node2</title><path fill="none" stroke="#191970" d="M65.5,-101.8C65.5,-92.91 65.5,-82.78 65.5,-75.75"/><polygon fill="#191970" stroke="#191970" points="62 -102.08 65.5 -112.08 69 -102.08 62 -102.08"/></g><g id="node4" class="node"><title>Node4</title><g id="a_node4"><a target="_top" xlink:href="classpkgAcqTransactionItem.xhtml" xlink:title="baseclass for the indexes files to manage them all together"><polygon fill="#fff" stroke="#000" points="0 -168.5 0 -187.5 131 -187.5 131 -168.5 0 -168.5"/><text x="65.5" y="-175.5" font-family="Helvetica,sans-Serif" font-size="10" text-anchor="middle">pkgAcqTransactionItem</text></a></g></g><g id="edge3" class="edge"><title>Node4-&gt;Node3</title><path fill="none" stroke="#191970" d="M65.5,-157.8C65.5,-148.91 65.5,-138.78 65.5,-131.75"/><polygon fill="#191970" stroke="#191970" points="62 -158.08 65.5 -168.08 69 -158.08 62 -158.08"/></g><g id="node5" class="node"><title>Node5</title><g id="a_node5"><a><polygon fill="#fff" stroke="#bfbfbf" points="46 -224.5 46 -243.5 85 -243.5 85 -224.5 46 -224.5"/><text x="65.5" y="-231.5" font-family="Helvetica,sans-Serif" font-size="10" text-anchor="middle">Item</text></a></g></g><g id="edge4" class="edge"><title>Node5-&gt;Node4</title><path fill="none" stroke="#191970" d="M65.5,-213.8C65.5,-204.91 65.5,-194.78 65.5,-187.75"/><polygon fill="#191970" stroke="#191970" points="62 -214.08 65.5 -224.08 69 -214.08 62 -214.08"/></g></g></svg>