<svg xmlns="http://www.w3.org/2000/svg" xmlns:xlink="http://www.w3.org/1999/xlink" width="95pt" height="152pt" viewBox="0 0 95 152"><g id="graph0" class="graph" transform="scale(1 1) rotate(0) translate(4 148)"><title>PackageCopy</title><polygon fill="#fff" stroke="transparent" points="-4 4 -4 -148 91 -148 91 4 -4 4"/><g id="node1" class="node"><title>Node1</title><g id="a_node1"><a><polygon fill="#bfbfbf" stroke="#000" points="3 -.5 3 -19.5 84 -19.5 84 -.5 3 -.5"/><text x="43.5" y="-7.5" font-family="Helvetica,sans-Serif" font-size="10" text-anchor="middle">PackageCopy</text></a></g></g><g id="node2" class="node"><title>Node2</title><g id="a_node2"><a target="_top" xlink:href="classIndexCopy.xhtml"><polygon fill="#fff" stroke="#000" points="9.5 -57.5 9.5 -76.5 77.5 -76.5 77.5 -57.5 9.5 -57.5"/><text x="43.5" y="-64.5" font-family="Helvetica,sans-Serif" font-size="10" text-anchor="middle">IndexCopy</text></a></g></g><g id="edge1" class="edge"><title>Node2-&gt;Node1</title><path fill="none" stroke="#191970" d="M43.5,-47.12C43.5,-37.82 43.5,-27.06 43.5,-19.71"/><polygon fill="#191970" stroke="#191970" points="40 -47.41 43.5 -57.41 47 -47.41 40 -47.41"/></g><g id="node3" class="node"><title>Node3</title><g id="a_node3"><a target="_top" xlink:href="classpkgTagSection.xhtml"><polygon fill="#fff" stroke="#000" points="0 -124.5 0 -143.5 87 -143.5 87 -124.5 0 -124.5"/><text x="43.5" y="-131.5" font-family="Helvetica,sans-Serif" font-size="10" text-anchor="middle">pkgTagSection</text></a></g></g><g id="edge2" class="edge"><title>Node3-&gt;Node2</title><path fill="none" stroke="#9a32cd" stroke-dasharray="5 2" d="M43.5,-114.04C43.5,-101.67 43.5,-86.12 43.5,-76.63"/><polygon fill="#9a32cd" stroke="#9a32cd" points="40 -114.23 43.5 -124.23 47 -114.23 40 -114.23"/><text x="63.5" y="-98" font-family="Helvetica,sans-Serif" font-size="10" text-anchor="middle">Section</text></g></g></svg>