<?xml version="1.0" encoding="UTF-8" standalone="no"?>
<!DOCTYPE svg PUBLIC "-//W3C//DTD SVG 1.1//EN"
 "http://www.w3.org/Graphics/SVG/1.1/DTD/svg11.dtd">
<!-- Generated by graphviz version 2.43.0 (0)
 -->
<!-- Title: Container_iterator&lt; Interface, Container, Master &gt; Pages: 1 -->
<svg width="562pt" height="132pt"
 viewBox="0.00 0.00 562.00 132.00" xmlns="http://www.w3.org/2000/svg" xmlns:xlink="http://www.w3.org/1999/xlink">
<g id="graph0" class="graph" transform="scale(1 1) rotate(0) translate(4 128)">
<title>Container_iterator&lt; Interface, Container, Master &gt;</title>
<polygon fill="white" stroke="transparent" points="-4,4 -4,-128 558,-128 558,4 -4,4"/>
<!-- Node1 -->
<g id="node1" class="node">
<title>Node1</title>
<g id="a_node1"><a xlink:title=" ">
<polygon fill="#bfbfbf" stroke="black" points="426,-41 426,-82 554,-82 554,-41 426,-41"/>
<text text-anchor="start" x="434" y="-70" font-family="Helvetica,sans-Serif" font-size="10.00">Container_iterator</text>
<text text-anchor="start" x="434" y="-59" font-family="Helvetica,sans-Serif" font-size="10.00">&lt; Interface, Container,</text>
<text text-anchor="middle" x="490" y="-48" font-family="Helvetica,sans-Serif" font-size="10.00"> Master &gt;</text>
</a>
</g>
</g>
<!-- Node2 -->
<g id="node2" class="node">
<title>Node2</title>
<g id="a_node2"><a xlink:href="classAPT_1_1Container__iterator__base.xhtml" target="_top" xlink:title=" ">
<polygon fill="white" stroke="black" points="207,-30 207,-93 390,-93 390,-30 207,-30"/>
<text text-anchor="start" x="215" y="-81" font-family="Helvetica,sans-Serif" font-size="10.00">Container_iterator</text>
<text text-anchor="start" x="215" y="-70" font-family="Helvetica,sans-Serif" font-size="10.00">_base&lt; Interface, Master,</text>
<text text-anchor="start" x="215" y="-59" font-family="Helvetica,sans-Serif" font-size="10.00"> Container_iterator&lt; Interface,</text>
<text text-anchor="start" x="215" y="-48" font-family="Helvetica,sans-Serif" font-size="10.00"> Container, Master &gt;, Container</text>
<text text-anchor="middle" x="298.5" y="-37" font-family="Helvetica,sans-Serif" font-size="10.00">::iterator, Container::value_type &gt;</text>
</a>
</g>
</g>
<!-- Node2&#45;&gt;Node1 -->
<g id="edge1" class="edge">
<title>Node2&#45;&gt;Node1</title>
<path fill="none" stroke="midnightblue" d="M400.29,-61.5C408.97,-61.5 417.58,-61.5 425.83,-61.5"/>
<polygon fill="midnightblue" stroke="midnightblue" points="400.09,-58 390.09,-61.5 400.09,-65 400.09,-58"/>
</g>
<!-- Node3 -->
<g id="node3" class="node">
<title>Node3</title>
<g id="a_node3"><a xlink:title=" ">
<polygon fill="white" stroke="#bfbfbf" points="0,-71.5 0,-123.5 171,-123.5 171,-71.5 0,-71.5"/>
<text text-anchor="start" x="8" y="-111.5" font-family="Helvetica,sans-Serif" font-size="10.00">iterator&lt; std::iterator</text>
<text text-anchor="start" x="8" y="-100.5" font-family="Helvetica,sans-Serif" font-size="10.00">_traits&lt; Container::iterator</text>
<text text-anchor="start" x="8" y="-89.5" font-family="Helvetica,sans-Serif" font-size="10.00"> &gt;::iterator_category, Container</text>
<text text-anchor="middle" x="85.5" y="-78.5" font-family="Helvetica,sans-Serif" font-size="10.00">::value_type &gt;</text>
</a>
</g>
</g>
<!-- Node3&#45;&gt;Node2 -->
<g id="edge2" class="edge">
<title>Node3&#45;&gt;Node2</title>
<path fill="none" stroke="midnightblue" d="M181.04,-81.37C189.56,-79.92 198.17,-78.45 206.65,-77"/>
<polygon fill="midnightblue" stroke="midnightblue" points="180.37,-77.93 171.11,-83.06 181.55,-84.83 180.37,-77.93"/>
</g>
<!-- Node4 -->
<g id="node4" class="node">
<title>Node4</title>
<g id="a_node4"><a xlink:title=" ">
<polygon fill="white" stroke="#bfbfbf" points="21.5,-0.5 21.5,-52.5 149.5,-52.5 149.5,-0.5 21.5,-0.5"/>
<text text-anchor="start" x="29.5" y="-40.5" font-family="Helvetica,sans-Serif" font-size="10.00">template iterator_base</text>
<text text-anchor="start" x="29.5" y="-29.5" font-family="Helvetica,sans-Serif" font-size="10.00">&lt; Container_iterator&lt;</text>
<text text-anchor="start" x="29.5" y="-18.5" font-family="Helvetica,sans-Serif" font-size="10.00"> Interface, Container,</text>
<text text-anchor="middle" x="85.5" y="-7.5" font-family="Helvetica,sans-Serif" font-size="10.00"> Master &gt; &gt;</text>
</a>
</g>
</g>
<!-- Node4&#45;&gt;Node2 -->
<g id="edge3" class="edge">
<title>Node4&#45;&gt;Node2</title>
<path fill="none" stroke="midnightblue" d="M159.82,-38.66C174.95,-41.17 191.05,-43.84 206.72,-46.44"/>
<polygon fill="midnightblue" stroke="midnightblue" points="159.96,-35.14 149.52,-36.95 158.81,-42.04 159.96,-35.14"/>
</g>
</g>
</svg>
