<svg xmlns="http://www.w3.org/2000/svg" xmlns:xlink="http://www.w3.org/1999/xlink" width="251pt" height="241pt" viewBox="0 0 250.5 241"><g id="graph0" class="graph" transform="scale(1 1) rotate(0) translate(4 237)"><title>pkgTagFilePrivate</title><polygon fill="#fff" stroke="transparent" points="-4 4 -4 -237 246.5 -237 246.5 4 -4 4"/><g id="node1" class="node"><title>Node1</title><g id="a_node1"><a><polygon fill="#bfbfbf" stroke="#000" points="68.5 -.5 68.5 -19.5 171.5 -19.5 171.5 -.5 68.5 -.5"/><text x="120" y="-7.5" font-family="Helvetica,sans-Serif" font-size="10" text-anchor="middle">pkgTagFilePrivate</text></a></g></g><g id="node2" class="node"><title>Node2</title><g id="a_node2"><a target="_top" xlink:href="classFileFd.xhtml"><polygon fill="#fff" stroke="#000" points="45 -73 45 -92 91 -92 91 -73 45 -73"/><text x="68" y="-80" font-family="Helvetica,sans-Serif" font-size="10" text-anchor="middle">FileFd</text></a></g></g><g id="edge1" class="edge"><title>Node2-&gt;Node1</title><path fill="none" stroke="#9a32cd" stroke-dasharray="5 2" d="M80.54,-64.5C90.96,-50.37 105.36,-30.85 113.57,-19.72"/><polygon fill="#9a32cd" stroke="#9a32cd" points="77.5 -62.73 74.38 -72.86 83.13 -66.89 77.5 -62.73"/><text x="107" y="-41" font-family="Helvetica,sans-Serif" font-size="10" text-anchor="middle">Fd</text></g><g id="node3" class="node"><title>Node3</title><g id="a_node3"><a><polygon fill="#fff" stroke="#bfbfbf" points="38 -156.5 38 -175.5 82 -175.5 82 -156.5 38 -156.5"/><text x="60" y="-163.5" font-family="Helvetica,sans-Serif" font-size="10" text-anchor="middle">string</text></a></g></g><g id="edge2" class="edge"><title>Node3-&gt;Node2</title><path fill="none" stroke="#9a32cd" stroke-dasharray="5 2" d="M61.88,-145.88C63.54,-128.9 65.9,-104.87 67.15,-92.16"/><polygon fill="#9a32cd" stroke="#9a32cd" points="58.35 -145.98 60.86 -156.28 65.32 -146.67 58.35 -145.98"/><text x="114.5" y="-130" font-family="Helvetica,sans-Serif" font-size="10" text-anchor="middle">FileName</text><text x="114.5" y="-119" font-family="Helvetica,sans-Serif" font-size="10" text-anchor="middle">TemporaryFileName</text></g><g id="node4" class="node"><title>Node4</title><g id="a_node4"><a><polygon fill="#fff" stroke="#bfbfbf" points="0 -213.5 0 -232.5 120 -232.5 120 -213.5 0 -213.5"/><text x="60" y="-220.5" font-family="Helvetica,sans-Serif" font-size="10" text-anchor="middle">basic_string&lt; Char &gt;</text></a></g></g><g id="edge3" class="edge"><title>Node4-&gt;Node3</title><path fill="none" stroke="#191970" d="M60,-203.12C60,-193.82 60,-183.06 60,-175.71"/><polygon fill="#191970" stroke="#191970" points="56.5 -203.41 60 -213.41 63.5 -203.41 56.5 -203.41"/></g><g id="node5" class="node"><title>Node5</title><g id="a_node5"><a><polygon fill="#fff" stroke="#bfbfbf" points="113.5 -67.5 113.5 -97.5 242.5 -97.5 242.5 -67.5 113.5 -67.5"/><text x="121.5" y="-85.5" font-family="Helvetica,sans-Serif" font-size="10" text-anchor="start">list&lt; pkgTagFilePrivate</text><text x="178" y="-74.5" font-family="Helvetica,sans-Serif" font-size="10" text-anchor="middle">::FileChunk &gt;</text></a></g></g><g id="edge4" class="edge"><title>Node5-&gt;Node1</title><path fill="none" stroke="#9a32cd" stroke-dasharray="5 2" d="M159.81,-59.38C148.82,-46.04 135.43,-29.76 127.32,-19.89"/><polygon fill="#9a32cd" stroke="#9a32cd" points="157.21 -61.73 166.26 -67.23 162.61 -57.29 157.21 -61.73"/><text x="170" y="-41" font-family="Helvetica,sans-Serif" font-size="10" text-anchor="middle">chunks</text></g><g id="node6" class="node"><title>Node6</title><g id="a_node6"><a target="_top" xlink:href="structpkgTagFilePrivate_1_1FileChunk.xhtml"><polygon fill="#fff" stroke="#000" points="149.5 -156.5 149.5 -175.5 214.5 -175.5 214.5 -156.5 149.5 -156.5"/><text x="182" y="-163.5" font-family="Helvetica,sans-Serif" font-size="10" text-anchor="middle">FileChunk</text></a></g></g><g id="edge5" class="edge"><title>Node6-&gt;Node5</title><path fill="none" stroke="#9a32cd" stroke-dasharray="5 2" d="M181.08,-146.23C180.35,-131.41 179.35,-111.05 178.69,-97.6"/><polygon fill="#9a32cd" stroke="#9a32cd" points="177.59 -146.46 181.57 -156.28 184.58 -146.12 177.59 -146.46"/><text x="205.5" y="-124.5" font-family="Helvetica,sans-Serif" font-size="10" text-anchor="middle">elements</text></g></g></svg>