<svg xmlns="http://www.w3.org/2000/svg" xmlns:xlink="http://www.w3.org/1999/xlink" width="104pt" height="140pt" viewBox="0 0 104 140"><g id="graph0" class="graph" transform="scale(1 1) rotate(0) translate(4 136)"><title>eippSystem</title><polygon fill="#fff" stroke="transparent" points="-4 4 -4 -136 100 -136 100 4 -4 4"/><g id="node1" class="node"><title>Node1</title><g id="a_node1"><a><polygon fill="#bfbfbf" stroke="#000" points="11 -.5 11 -19.5 85 -19.5 85 -.5 11 -.5"/><text x="48" y="-7.5" font-family="Helvetica,sans-Serif" font-size="10" text-anchor="middle">eippSystem</text></a></g></g><g id="node2" class="node"><title>Node2</title><g id="a_node2"><a target="_top" xlink:href="classedspLikeSystem.xhtml"><polygon fill="#fff" stroke="#000" points="0 -56.5 0 -75.5 96 -75.5 96 -56.5 0 -56.5"/><text x="48" y="-63.5" font-family="Helvetica,sans-Serif" font-size="10" text-anchor="middle">edspLikeSystem</text></a></g></g><g id="edge1" class="edge"><title>Node2-&gt;Node1</title><path fill="none" stroke="#191970" d="M48,-45.8C48,-36.91 48,-26.78 48,-19.75"/><polygon fill="#191970" stroke="#191970" points="44.5 -46.08 48 -56.08 51.5 -46.08 44.5 -46.08"/></g><g id="node3" class="node"><title>Node3</title><g id="a_node3"><a target="_top" xlink:href="classpkgSystem.xhtml"><polygon fill="#fff" stroke="#000" points="12.5 -112.5 12.5 -131.5 83.5 -131.5 83.5 -112.5 12.5 -112.5"/><text x="48" y="-119.5" font-family="Helvetica,sans-Serif" font-size="10" text-anchor="middle">pkgSystem</text></a></g></g><g id="edge2" class="edge"><title>Node3-&gt;Node2</title><path fill="none" stroke="#191970" d="M48,-101.8C48,-92.91 48,-82.78 48,-75.75"/><polygon fill="#191970" stroke="#191970" points="44.5 -102.08 48 -112.08 51.5 -102.08 44.5 -102.08"/></g></g></svg>