<?xml version="1.0" encoding="UTF-8" standalone="no"?>
<!DOCTYPE svg PUBLIC "-//W3C//DTD SVG 1.1//EN"
 "http://www.w3.org/Graphics/SVG/1.1/DTD/svg11.dtd">
<!-- Generated by graphviz version 2.43.0 (0)
 -->
<!-- Title: debIFTypeTrans Pages: 1 -->
<svg width="143pt" height="142pt"
 viewBox="0.00 0.00 143.00 142.00" xmlns="http://www.w3.org/2000/svg" xmlns:xlink="http://www.w3.org/1999/xlink">
<g id="graph0" class="graph" transform="scale(1 1) rotate(0) translate(4 138)">
<title>debIFTypeTrans</title>
<polygon fill="white" stroke="transparent" points="-4,4 -4,-138 139,-138 139,4 -4,4"/>
<!-- Node1 -->
<g id="node1" class="node">
<title>Node1</title>
<g id="a_node1"><a xlink:title=" ">
<polygon fill="#bfbfbf" stroke="black" points="0,-0.5 0,-19.5 91,-19.5 91,-0.5 0,-0.5"/>
<text text-anchor="middle" x="45.5" y="-7.5" font-family="Helvetica,sans-Serif" font-size="10.00">debIFTypeTrans</text>
</a>
</g>
</g>
<!-- Node2 -->
<g id="node2" class="node">
<title>Node2</title>
<g id="a_node2"><a xlink:href="classdebIFTypePkg.xhtml" target="_top" xlink:title=" ">
<polygon fill="white" stroke="black" points="4,-57.5 4,-76.5 87,-76.5 87,-57.5 4,-57.5"/>
<text text-anchor="middle" x="45.5" y="-64.5" font-family="Helvetica,sans-Serif" font-size="10.00">debIFTypePkg</text>
</a>
</g>
</g>
<!-- Node2&#45;&gt;Node1 -->
<g id="edge1" class="edge">
<title>Node2&#45;&gt;Node1</title>
<path fill="none" stroke="midnightblue" d="M45.5,-47.12C45.5,-37.82 45.5,-27.06 45.5,-19.71"/>
<polygon fill="midnightblue" stroke="midnightblue" points="42,-47.41 45.5,-57.41 49,-47.41 42,-47.41"/>
</g>
<!-- Node3 -->
<g id="node3" class="node">
<title>Node3</title>
<g id="a_node3"><a xlink:href="classpkgIndexFile_1_1Type.xhtml" target="_top" xlink:title=" ">
<polygon fill="white" stroke="black" points="26,-114.5 26,-133.5 65,-133.5 65,-114.5 26,-114.5"/>
<text text-anchor="middle" x="45.5" y="-121.5" font-family="Helvetica,sans-Serif" font-size="10.00">Type</text>
</a>
</g>
</g>
<!-- Node3&#45;&gt;Node2 -->
<g id="edge2" class="edge">
<title>Node3&#45;&gt;Node2</title>
<path fill="none" stroke="midnightblue" d="M45.5,-104.12C45.5,-94.82 45.5,-84.06 45.5,-76.71"/>
<polygon fill="midnightblue" stroke="midnightblue" points="42,-104.41 45.5,-114.41 49,-104.41 42,-104.41"/>
</g>
<!-- Node3&#45;&gt;Node3 -->
<g id="edge3" class="edge">
<title>Node3&#45;&gt;Node3</title>
<path fill="none" stroke="#9a32cd" stroke-dasharray="5,2" d="M75.33,-128.79C79.9,-128.06 83,-126.47 83,-124 83,-119.95 74.64,-118.25 65.18,-118.88"/>
<polygon fill="#9a32cd" stroke="#9a32cd" points="75.06,-125.3 65.18,-129.12 75.29,-132.3 75.06,-125.3"/>
<text text-anchor="middle" x="109" y="-121.5" font-family="Helvetica,sans-Serif" font-size="10.00"> GlobalList</text>
</g>
</g>
</svg>
