<?xml version="1.0" encoding="UTF-8" standalone="no"?>
<!DOCTYPE svg PUBLIC "-//W3C//DTD SVG 1.1//EN"
 "http://www.w3.org/Graphics/SVG/1.1/DTD/svg11.dtd">
<!-- Generated by graphviz version 2.43.0 (0)
 -->
<!-- Title: debIFTypeDscFile Pages: 1 -->
<svg width="148pt" height="85pt"
 viewBox="0.00 0.00 148.00 85.00" xmlns="http://www.w3.org/2000/svg" xmlns:xlink="http://www.w3.org/1999/xlink">
<g id="graph0" class="graph" transform="scale(1 1) rotate(0) translate(4 81)">
<title>debIFTypeDscFile</title>
<polygon fill="white" stroke="transparent" points="-4,4 -4,-81 144,-81 144,4 -4,4"/>
<!-- Node1 -->
<g id="node1" class="node">
<title>Node1</title>
<g id="a_node1"><a xlink:title=" ">
<polygon fill="#bfbfbf" stroke="black" points="0,-0.5 0,-19.5 101,-19.5 101,-0.5 0,-0.5"/>
<text text-anchor="middle" x="50.5" y="-7.5" font-family="Helvetica,sans-Serif" font-size="10.00">debIFTypeDscFile</text>
</a>
</g>
</g>
<!-- Node2 -->
<g id="node2" class="node">
<title>Node2</title>
<g id="a_node2"><a xlink:href="classpkgIndexFile_1_1Type.xhtml" target="_top" xlink:title=" ">
<polygon fill="white" stroke="black" points="31,-57.5 31,-76.5 70,-76.5 70,-57.5 31,-57.5"/>
<text text-anchor="middle" x="50.5" y="-64.5" font-family="Helvetica,sans-Serif" font-size="10.00">Type</text>
</a>
</g>
</g>
<!-- Node2&#45;&gt;Node1 -->
<g id="edge1" class="edge">
<title>Node2&#45;&gt;Node1</title>
<path fill="none" stroke="midnightblue" d="M50.5,-47.12C50.5,-37.82 50.5,-27.06 50.5,-19.71"/>
<polygon fill="midnightblue" stroke="midnightblue" points="47,-47.41 50.5,-57.41 54,-47.41 47,-47.41"/>
</g>
<!-- Node2&#45;&gt;Node2 -->
<g id="edge2" class="edge">
<title>Node2&#45;&gt;Node2</title>
<path fill="none" stroke="#9a32cd" stroke-dasharray="5,2" d="M80.33,-71.79C84.9,-71.06 88,-69.47 88,-67 88,-62.95 79.64,-61.25 70.18,-61.88"/>
<polygon fill="#9a32cd" stroke="#9a32cd" points="80.06,-68.3 70.18,-72.12 80.29,-75.3 80.06,-68.3"/>
<text text-anchor="middle" x="114" y="-64.5" font-family="Helvetica,sans-Serif" font-size="10.00"> GlobalList</text>
</g>
</g>
</svg>
