<svg xmlns="http://www.w3.org/2000/svg" xmlns:xlink="http://www.w3.org/1999/xlink" id="main" onload="init(evt)" version="1.1" xml:space="preserve"><style type="text/css">.edge:hover path{stroke:red}.edge:hover polygon{stroke:red;fill:red}</style><script type="text/javascript"><![CDATA[
var edges = document.getElementsByTagName('g');
if (edges && edges.length) {
  for (var i=0;i<edges.length;i++) {
    if (edges[i].id.substr(0,4)=='edge') {
      edges[i].setAttribute('class','edge');
    }
  }
}
]]></script><defs><circle id="rim" cx="0" cy="0" r="7"/><circle id="rim2" cx="0" cy="0" r="3.5"/><g id="zoomPlus"><use fill="#404040" xlink:href="#rim"><set attributeName="fill" begin="zoomplus.mouseover" end="zoomplus.mouseout" to="#808080"/></use><path fill="none" stroke="#fff" stroke-width="1.5" d="M-4,0h8M0,-4v8" pointer-events="none"/></g><g id="zoomMin"><use fill="#404040" xlink:href="#rim"><set attributeName="fill" begin="zoomminus.mouseover" end="zoomminus.mouseout" to="#808080"/></use><path fill="none" stroke="#fff" stroke-width="1.5" d="M-4,0h8" pointer-events="none"/></g><g id="dirArrow"><path fill="none" stroke="#fff" stroke-width="1.5" d="M0,-3.0v7 M-2.5,-0.5L0,-3.0L2.5,-0.5"/></g><g id="resetDef"><use fill="#404040" xlink:href="#rim2"><set attributeName="fill" begin="reset.mouseover" end="reset.mouseout" to="#808080"/></use></g></defs><script type="text/javascript">var viewWidth = 450; var viewHeight = 519; var sectionId = &apos;dynsection-0&apos;;</script><script xlink:href="svgpan.js"/><svg id="graph" class="graph"><g id="viewport"><title>pkgSourceList</title><polygon fill="#fff" stroke="transparent" points="-4 4 -4 -515 445.5 -515 445.5 4 -4 4"/><g id="node1" class="node"><title>Node1</title><g id="a_node1"><a><polygon fill="#bfbfbf" stroke="#000" points="125.5 -.5 125.5 -19.5 210.5 -19.5 210.5 -.5 125.5 -.5"/><text x="168" y="-7.5" font-family="Helvetica,sans-Serif" font-size="10" text-anchor="middle">pkgSourceList</text></a></g></g><g id="node2" class="node"><title>Node2</title><g id="a_node2"><a><polygon fill="#fff" stroke="#bfbfbf" points="102.5 -67.5 102.5 -86.5 233.5 -86.5 233.5 -67.5 102.5 -67.5"/><text x="168" y="-74.5" font-family="Helvetica,sans-Serif" font-size="10" text-anchor="middle">vector&lt; metaIndex * &gt;</text></a></g></g><g id="edge1" class="edge"><title>Node2-&gt;Node1</title><path fill="none" stroke="#9a32cd" stroke-dasharray="5 2" d="M168,-57.04C168,-44.67 168,-29.12 168,-19.63"/><polygon fill="#9a32cd" stroke="#9a32cd" points="164.5 -57.23 168 -67.23 171.5 -57.23 164.5 -57.23"/><text x="186" y="-41" font-family="Helvetica,sans-Serif" font-size="10" text-anchor="middle">SrcList</text></g><g id="node3" class="node"><title>Node3</title><g id="a_node3"><a target="_top" xlink:href="classmetaIndex.xhtml"><polygon fill="#fff" stroke="#000" points="133.5 -134.5 133.5 -153.5 202.5 -153.5 202.5 -134.5 133.5 -134.5"/><text x="168" y="-141.5" font-family="Helvetica,sans-Serif" font-size="10" text-anchor="middle">metaIndex</text></a></g></g><g id="edge2" class="edge"><title>Node3-&gt;Node2</title><path fill="none" stroke="#9a32cd" stroke-dasharray="5 2" d="M168,-124.04C168,-111.67 168,-96.12 168,-86.63"/><polygon fill="#9a32cd" stroke="#9a32cd" points="164.5 -124.23 168 -134.23 171.5 -124.23 164.5 -124.23"/><text x="192.5" y="-108" font-family="Helvetica,sans-Serif" font-size="10" text-anchor="middle">elements</text></g><g id="node4" class="node"><title>Node4</title><g id="a_node4"><a><polygon fill="#fff" stroke="#bfbfbf" points="0 -207 0 -226 140 -226 140 -207 0 -207"/><text x="70" y="-214" font-family="Helvetica,sans-Serif" font-size="10" text-anchor="middle">vector&lt; pkgIndexFile * &gt;</text></a></g></g><g id="edge3" class="edge"><title>Node4-&gt;Node3</title><path fill="none" stroke="#9a32cd" stroke-dasharray="5 2" d="M83.64,-199.24C91.59,-190.44 102.16,-179.8 113,-172 123.27,-164.61 135.88,-158.25 146.43,-153.57"/><polygon fill="#9a32cd" stroke="#9a32cd" points="80.84 -197.13 76.9 -206.97 86.11 -201.73 80.84 -197.13"/><text x="133.5" y="-175" font-family="Helvetica,sans-Serif" font-size="10" text-anchor="middle">Indexes</text></g><g id="node5" class="node"><title>Node5</title><g id="a_node5"><a target="_top" xlink:href="classpkgIndexFile.xhtml"><polygon fill="#fff" stroke="#000" points="30.5 -367.5 30.5 -386.5 109.5 -386.5 109.5 -367.5 30.5 -367.5"/><text x="70" y="-374.5" font-family="Helvetica,sans-Serif" font-size="10" text-anchor="middle">pkgIndexFile</text></a></g></g><g id="edge4" class="edge"><title>Node5-&gt;Node4</title><path fill="none" stroke="#9a32cd" stroke-dasharray="5 2" d="M70,-357.4C70,-323.03 70,-250.84 70,-226.06"/><polygon fill="#9a32cd" stroke="#9a32cd" points="66.5 -357.48 70 -367.48 73.5 -357.48 66.5 -357.48"/><text x="94.5" y="-297" font-family="Helvetica,sans-Serif" font-size="10" text-anchor="middle">elements</text></g><g id="node6" class="node"><title>Node6</title><g id="a_node6"><a><polygon fill="#fff" stroke="#bfbfbf" points="229 -434.5 229 -453.5 273 -453.5 273 -434.5 229 -434.5"/><text x="251" y="-441.5" font-family="Helvetica,sans-Serif" font-size="10" text-anchor="middle">string</text></a></g></g><g id="edge5" class="edge"><title>Node6-&gt;Node3</title><path fill="none" stroke="#9a32cd" stroke-dasharray="5 2" d="M236.98,-426.72C222.52,-408.92 200.64,-378.93 190,-349 164.47,-277.17 166.25,-182.88 167.52,-153.87"/><polygon fill="#9a32cd" stroke="#9a32cd" points="234.31 -428.98 243.4 -434.42 239.68 -424.5 234.31 -428.98"/><text x="224" y="-341" font-family="Helvetica,sans-Serif" font-size="10" text-anchor="middle">Codename</text><text x="224" y="-330" font-family="Helvetica,sans-Serif" font-size="10" text-anchor="middle">Dist</text><text x="224" y="-319" font-family="Helvetica,sans-Serif" font-size="10" text-anchor="middle">Label</text><text x="224" y="-308" font-family="Helvetica,sans-Serif" font-size="10" text-anchor="middle">Origin</text><text x="224" y="-297" font-family="Helvetica,sans-Serif" font-size="10" text-anchor="middle">ReleaseNotes</text><text x="224" y="-286" font-family="Helvetica,sans-Serif" font-size="10" text-anchor="middle">SignedBy</text><text x="224" y="-275" font-family="Helvetica,sans-Serif" font-size="10" text-anchor="middle">Suite</text><text x="224" y="-264" font-family="Helvetica,sans-Serif" font-size="10" text-anchor="middle">URI</text><text x="224" y="-253" font-family="Helvetica,sans-Serif" font-size="10" text-anchor="middle">Version</text></g><g id="node8" class="node"><title>Node8</title><g id="a_node8"><a><polygon fill="#fff" stroke="#bfbfbf" points="196.5 -201.5 196.5 -231.5 353.5 -231.5 353.5 -201.5 196.5 -201.5"/><text x="204.5" y="-219.5" font-family="Helvetica,sans-Serif" font-size="10" text-anchor="start">map&lt; std::string, metaIndex</text><text x="275" y="-208.5" font-family="Helvetica,sans-Serif" font-size="10" text-anchor="middle">::checkSum * &gt;</text></a></g></g><g id="edge8" class="edge"><title>Node6-&gt;Node8</title><path fill="none" stroke="#9a32cd" stroke-dasharray="5 2" d="M252.99,-424.3C257.67,-380.31 269.3,-271.03 273.48,-231.8"/><polygon fill="#9a32cd" stroke="#9a32cd" points="249.49 -424.12 251.91 -434.44 256.45 -424.86 249.49 -424.12"/><text x="273" y="-374.5" font-family="Helvetica,sans-Serif" font-size="10" text-anchor="middle">keys</text></g><g id="node9" class="node"><title>Node9</title><g id="a_node9"><a target="_top" xlink:href="structmetaIndex_1_1checkSum.xhtml"><polygon fill="#fff" stroke="#000" points="295.5 -367.5 295.5 -386.5 362.5 -386.5 362.5 -367.5 295.5 -367.5"/><text x="329" y="-374.5" font-family="Helvetica,sans-Serif" font-size="10" text-anchor="middle">checkSum</text></a></g></g><g id="edge11" class="edge"><title>Node6-&gt;Node9</title><path fill="none" stroke="#9a32cd" stroke-dasharray="5 2" d="M262.13,-426.09C267.32,-419.03 273.9,-411.07 281,-405 289.57,-397.67 300.44,-391.36 309.67,-386.69"/><polygon fill="#9a32cd" stroke="#9a32cd" points="259.22 -424.14 256.39 -434.35 264.97 -428.14 259.22 -424.14"/><text x="326.5" y="-408" font-family="Helvetica,sans-Serif" font-size="10" text-anchor="middle">MetaKeyFilename</text></g><g id="node7" class="node"><title>Node7</title><g id="a_node7"><a><polygon fill="#fff" stroke="#bfbfbf" points="191 -491.5 191 -510.5 311 -510.5 311 -491.5 191 -491.5"/><text x="251" y="-498.5" font-family="Helvetica,sans-Serif" font-size="10" text-anchor="middle">basic_string&lt; Char &gt;</text></a></g></g><g id="edge6" class="edge"><title>Node7-&gt;Node6</title><path fill="none" stroke="#191970" d="M251,-481.12C251,-471.82 251,-461.06 251,-453.71"/><polygon fill="#191970" stroke="#191970" points="247.5 -481.41 251 -491.41 254.5 -481.41 247.5 -481.41"/></g><g id="edge7" class="edge"><title>Node8-&gt;Node3</title><path fill="none" stroke="#9a32cd" stroke-dasharray="5 2" d="M244.99,-195.73C223.9,-181.83 196.73,-163.93 180.95,-153.53"/><polygon fill="#9a32cd" stroke="#9a32cd" points="243.33 -198.82 253.6 -201.4 247.18 -192.98 243.33 -198.82"/><text x="243.5" y="-175" font-family="Helvetica,sans-Serif" font-size="10" text-anchor="middle">Entries</text></g><g id="edge9" class="edge"><title>Node9-&gt;Node8</title><path fill="none" stroke="#9a32cd" stroke-dasharray="5 2" d="M322.76,-357.68C311.88,-325.74 289.66,-260.52 279.84,-231.71"/><polygon fill="#9a32cd" stroke="#9a32cd" points="319.56 -359.14 326.1 -367.48 326.18 -356.88 319.56 -359.14"/><text x="343.5" y="-297" font-family="Helvetica,sans-Serif" font-size="10" text-anchor="middle">elements</text></g><g id="node10" class="node"><title>Node10</title><g id="a_node10"><a target="_top" xlink:href="classHashStringList.xhtml"><polygon fill="#fff" stroke="#000" points="354.5 -434.5 354.5 -453.5 441.5 -453.5 441.5 -434.5 354.5 -434.5"/><text x="398" y="-441.5" font-family="Helvetica,sans-Serif" font-size="10" text-anchor="middle">HashStringList</text></a></g></g><g id="edge10" class="edge"><title>Node10-&gt;Node9</title><path fill="none" stroke="#9a32cd" stroke-dasharray="5 2" d="M390.1,-425.06C386.49,-418.22 381.73,-410.71 376,-405 368.4,-397.43 358.25,-391.24 349.33,-386.72"/><polygon fill="#9a32cd" stroke="#9a32cd" points="387.06 -426.8 394.55 -434.3 393.37 -423.77 387.06 -426.8"/><text x="404" y="-408" font-family="Helvetica,sans-Serif" font-size="10" text-anchor="middle">Hashes</text></g></g></svg><g id="navigator" fill="#404254" transform="translate(0 0)"><rect width="60" height="60" x="0" y="0" fill="#f2f5e9" fill-opacity=".5" stroke="#606060" stroke-width=".5"/><use id="zoomplus" x="17" y="9" onmousedown="handleZoom(evt,'in')" xlink:href="#zoomPlus"/><use id="zoomminus" x="42" y="9" onmousedown="handleZoom(evt,'out')" xlink:href="#zoomMin"/><use id="reset" x="30" y="36" onmousedown="handleReset()" xlink:href="#resetDef"/><g id="arrowUp" onmousedown="handlePan(0,-1)" transform="translate(30 24)" xlink:href="#dirArrow"><use fill="#404040" xlink:href="#rim"><set attributeName="fill" begin="arrowUp.mouseover" end="arrowUp.mouseout" to="#808080"/></use><path fill="none" stroke="#fff" stroke-width="1.5" d="M0,-3.0v7 M-2.5,-0.5L0,-3.0L2.5,-0.5"/></g><g id="arrowRight" onmousedown="handlePan(1,0)" transform="rotate(90) translate(36 -43)" xlink:href="#dirArrow"><use fill="#404040" xlink:href="#rim"><set attributeName="fill" begin="arrowRight.mouseover" end="arrowRight.mouseout" to="#808080"/></use><path fill="none" stroke="#fff" stroke-width="1.5" d="M0,-3.0v7 M-2.5,-0.5L0,-3.0L2.5,-0.5"/></g><g id="arrowDown" onmousedown="handlePan(0,1)" transform="rotate(180) translate(-30 -48)" xlink:href="#dirArrow"><use fill="#404040" xlink:href="#rim"><set attributeName="fill" begin="arrowDown.mouseover" end="arrowDown.mouseout" to="#808080"/></use><path fill="none" stroke="#fff" stroke-width="1.5" d="M0,-3.0v7 M-2.5,-0.5L0,-3.0L2.5,-0.5"/></g><g id="arrowLeft" onmousedown="handlePan(-1,0)" transform="rotate(270) translate(-36 17)" xlink:href="#dirArrow"><use fill="#404040" xlink:href="#rim"><set attributeName="fill" begin="arrowLeft.mouseover" end="arrowLeft.mouseout" to="#808080"/></use><path fill="none" stroke="#fff" stroke-width="1.5" d="M0,-3.0v7 M-2.5,-0.5L0,-3.0L2.5,-0.5"/></g></g><svg width="100%" height="30" preserveAspectRatio="xMaxYMin meet" viewBox="0 0 15 15"><g id="arrow_out" transform="scale(0.3 0.3)"><a target="_base" xlink:href="classpkgSourceList__coll__graph_org.svg"><rect id="button" width="38" height="38" x="6" y="6" fill="#f2f5e9" fill-opacity=".5" stroke="#606060" stroke-width="1" rx="5" ry="5"/><path id="arrow" d="M 11.500037,31.436501 C 11.940474,20.09759 22.043105,11.32322 32.158766,21.979434 L 37.068811,17.246167 C 37.068811,17.246167 37.088388,32 37.088388,32 L 22.160133,31.978069 C 22.160133,31.978069 26.997745,27.140456 26.997745,27.140456 C 18.528582,18.264221 13.291696,25.230495 11.500037,31.436501 z" style="fill:#404040"/></a></g></svg></svg>