<svg xmlns="http://www.w3.org/2000/svg" xmlns:xlink="http://www.w3.org/1999/xlink" width="346pt" height="292" viewBox="0 0 345.5 219"><g id="graph0" class="graph" transform="scale(1 1) rotate(0) translate(4 215)"><title>eippSystem</title><polygon fill="#fff" stroke="transparent" points="-4 4 -4 -215 341.5 -215 341.5 4 -4 4"/><g id="node1" class="node"><title>Node1</title><g id="a_node1"><a><polygon fill="#bfbfbf" stroke="#000" points="174 -.5 174 -19.5 248 -19.5 248 -.5 174 -.5"/><text x="211" y="-7.5" font-family="Helvetica,sans-Serif" font-size="10" text-anchor="middle">eippSystem</text></a></g></g><g id="node2" class="node"><title>Node2</title><g id="a_node2"><a target="_top" xlink:href="classedspLikeSystem.xhtml"><polygon fill="#fff" stroke="#000" points="163 -57.5 163 -76.5 259 -76.5 259 -57.5 163 -57.5"/><text x="211" y="-64.5" font-family="Helvetica,sans-Serif" font-size="10" text-anchor="middle">edspLikeSystem</text></a></g></g><g id="edge1" class="edge"><title>Node2-&gt;Node1</title><path fill="none" stroke="#191970" d="M211,-47.12C211,-37.82 211,-27.06 211,-19.71"/><polygon fill="#191970" stroke="#191970" points="207.5 -47.41 211 -57.41 214.5 -47.41 207.5 -47.41"/></g><g id="node3" class="node"><title>Node3</title><g id="a_node3"><a target="_top" xlink:href="classpkgSystem.xhtml"><polygon fill="#fff" stroke="#000" points="25.5 -124.5 25.5 -143.5 96.5 -143.5 96.5 -124.5 25.5 -124.5"/><text x="61" y="-131.5" font-family="Helvetica,sans-Serif" font-size="10" text-anchor="middle">pkgSystem</text></a></g></g><g id="edge2" class="edge"><title>Node3-&gt;Node2</title><path fill="none" stroke="#191970" d="M90.35,-120.28C120.06,-107.41 165.18,-87.85 191,-76.67"/><polygon fill="#191970" stroke="#191970" points="88.7 -117.18 80.92 -124.37 91.49 -123.6 88.7 -117.18"/></g><g id="edge3" class="edge"><title>Node3-&gt;Node3</title><path fill="none" stroke="#9a32cd" stroke-dasharray="5 2" d="M106.78,-138.95C111.49,-137.97 114.5,-136.32 114.5,-134 114.5,-130.28 106.79,-128.29 96.75,-128.03"/><polygon fill="#9a32cd" stroke="#9a32cd" points="106.35 -135.47 96.75 -139.97 107.06 -142.44 106.35 -135.47"/><text x="140.5" y="-131.5" font-family="Helvetica,sans-Serif" font-size="10" text-anchor="middle">GlobalList</text></g><g id="node4" class="node"><title>Node4</title><g id="a_node4"><a target="_top" xlink:href="classpkgVersioningSystem.xhtml"><polygon fill="#fff" stroke="#000" points="0 -191.5 0 -210.5 122 -210.5 122 -191.5 0 -191.5"/><text x="61" y="-198.5" font-family="Helvetica,sans-Serif" font-size="10" text-anchor="middle">pkgVersioningSystem</text></a></g></g><g id="edge4" class="edge"><title>Node4-&gt;Node3</title><path fill="none" stroke="#9a32cd" stroke-dasharray="5 2" d="M61,-181.04C61,-168.67 61,-153.12 61,-143.63"/><polygon fill="#9a32cd" stroke="#9a32cd" points="57.5 -181.23 61 -191.23 64.5 -181.23 57.5 -181.23"/><text x="69" y="-165" font-family="Helvetica,sans-Serif" font-size="10" text-anchor="middle">VS</text></g><g id="edge5" class="edge"><title>Node4-&gt;Node4</title><path fill="none" stroke="#9a32cd" stroke-dasharray="5 2" d="M132.49,-205.28C137.17,-204.28 140,-202.86 140,-201 140,-198.03 132.75,-196.16 122.28,-195.4"/><polygon fill="#9a32cd" stroke="#9a32cd" points="131.74 -201.84 122.28 -206.6 132.65 -208.78 131.74 -201.84"/><text x="166" y="-198.5" font-family="Helvetica,sans-Serif" font-size="10" text-anchor="middle">GlobalList</text></g><g id="node5" class="node"><title>Node5</title><g id="a_node5"><a><polygon fill="#fff" stroke="#bfbfbf" points="184.5 -124.5 184.5 -143.5 337.5 -143.5 337.5 -124.5 184.5 -124.5"/><text x="261" y="-131.5" font-family="Helvetica,sans-Serif" font-size="10" text-anchor="middle">unique_ptr&lt; pkgIndexFile &gt;</text></a></g></g><g id="edge6" class="edge"><title>Node5-&gt;Node2</title><path fill="none" stroke="#9a32cd" stroke-dasharray="5 2" d="M248.13,-116.27C238.38,-103.6 225.39,-86.7 217.64,-76.63"/><polygon fill="#9a32cd" stroke="#9a32cd" points="245.39 -118.44 254.26 -124.23 250.93 -114.17 245.39 -118.44"/><text x="264" y="-98" font-family="Helvetica,sans-Serif" font-size="10" text-anchor="middle">StatusFile</text></g></g></svg>