<svg xmlns="http://www.w3.org/2000/svg" xmlns:xlink="http://www.w3.org/1999/xlink" width="176" height="85pt" viewBox="0 0 131.5 85"><g id="graph0" class="graph" transform="scale(1 1) rotate(0) translate(4 81)"><title>eippIFType</title><polygon fill="#fff" stroke="transparent" points="-4 4 -4 -81 127.5 -81 127.5 4 -4 4"/><g id="node1" class="node"><title>Node1</title><g id="a_node1"><a><polygon fill="#bfbfbf" stroke="#000" points="0 -.5 0 -19.5 68 -19.5 68 -.5 0 -.5"/><text x="34" y="-7.5" font-family="Helvetica,sans-Serif" font-size="10" text-anchor="middle">eippIFType</text></a></g></g><g id="node2" class="node"><title>Node2</title><g id="a_node2"><a target="_top" xlink:href="classpkgIndexFile_1_1Type.xhtml"><polygon fill="#fff" stroke="#000" points="14.5 -57.5 14.5 -76.5 53.5 -76.5 53.5 -57.5 14.5 -57.5"/><text x="34" y="-64.5" font-family="Helvetica,sans-Serif" font-size="10" text-anchor="middle">Type</text></a></g></g><g id="edge1" class="edge"><title>Node2-&gt;Node1</title><path fill="none" stroke="#191970" d="M34,-47.12C34,-37.82 34,-27.06 34,-19.71"/><polygon fill="#191970" stroke="#191970" points="30.5 -47.41 34 -57.41 37.5 -47.41 30.5 -47.41"/></g><g id="edge2" class="edge"><title>Node2-&gt;Node2</title><path fill="none" stroke="#9a32cd" stroke-dasharray="5 2" d="M63.83,-71.79C68.4,-71.06 71.5,-69.47 71.5,-67 71.5,-62.95 63.14,-61.25 53.68,-61.88"/><polygon fill="#9a32cd" stroke="#9a32cd" points="63.56 -68.3 53.68 -72.12 63.79 -75.3 63.56 -68.3"/><text x="97.5" y="-64.5" font-family="Helvetica,sans-Serif" font-size="10" text-anchor="middle">GlobalList</text></g></g></svg>