<?xml version="1.0" encoding="UTF-8" standalone="no"?>
<!DOCTYPE svg PUBLIC "-//W3C//DTD SVG 1.1//EN"
 "http://www.w3.org/Graphics/SVG/1.1/DTD/svg11.dtd">
<!-- Generated by graphviz version 2.43.0 (0)
 -->
<!-- Title: debIFTypePkg Pages: 1 -->
<svg width="99pt" height="140pt"
 viewBox="0.00 0.00 99.00 140.00" xmlns="http://www.w3.org/2000/svg" xmlns:xlink="http://www.w3.org/1999/xlink">
<g id="graph0" class="graph" transform="scale(1 1) rotate(0) translate(4 136)">
<title>debIFTypePkg</title>
<polygon fill="white" stroke="transparent" points="-4,4 -4,-136 95,-136 95,4 -4,4"/>
<!-- Node1 -->
<g id="node1" class="node">
<title>Node1</title>
<g id="a_node1"><a xlink:title=" ">
<polygon fill="#bfbfbf" stroke="black" points="4,-56.5 4,-75.5 87,-75.5 87,-56.5 4,-56.5"/>
<text text-anchor="middle" x="45.5" y="-63.5" font-family="Helvetica,sans-Serif" font-size="10.00">debIFTypePkg</text>
</a>
</g>
</g>
<!-- Node3 -->
<g id="node3" class="node">
<title>Node3</title>
<g id="a_node3"><a xlink:href="classdebIFTypeTrans.xhtml" target="_top" xlink:title=" ">
<polygon fill="white" stroke="black" points="0,-0.5 0,-19.5 91,-19.5 91,-0.5 0,-0.5"/>
<text text-anchor="middle" x="45.5" y="-7.5" font-family="Helvetica,sans-Serif" font-size="10.00">debIFTypeTrans</text>
</a>
</g>
</g>
<!-- Node1&#45;&gt;Node3 -->
<g id="edge2" class="edge">
<title>Node1&#45;&gt;Node3</title>
<path fill="none" stroke="midnightblue" d="M45.5,-45.8C45.5,-36.91 45.5,-26.78 45.5,-19.75"/>
<polygon fill="midnightblue" stroke="midnightblue" points="42,-46.08 45.5,-56.08 49,-46.08 42,-46.08"/>
</g>
<!-- Node2 -->
<g id="node2" class="node">
<title>Node2</title>
<g id="a_node2"><a xlink:href="classpkgIndexFile_1_1Type.xhtml" target="_top" xlink:title=" ">
<polygon fill="white" stroke="black" points="26,-112.5 26,-131.5 65,-131.5 65,-112.5 26,-112.5"/>
<text text-anchor="middle" x="45.5" y="-119.5" font-family="Helvetica,sans-Serif" font-size="10.00">Type</text>
</a>
</g>
</g>
<!-- Node2&#45;&gt;Node1 -->
<g id="edge1" class="edge">
<title>Node2&#45;&gt;Node1</title>
<path fill="none" stroke="midnightblue" d="M45.5,-101.8C45.5,-92.91 45.5,-82.78 45.5,-75.75"/>
<polygon fill="midnightblue" stroke="midnightblue" points="42,-102.08 45.5,-112.08 49,-102.08 42,-102.08"/>
</g>
</g>
</svg>
