<?xml version="1.0" encoding="UTF-8" standalone="no"?>
<!DOCTYPE svg PUBLIC "-//W3C//DTD SVG 1.1//EN"
 "http://www.w3.org/Graphics/SVG/1.1/DTD/svg11.dtd">
<!-- Generated by graphviz version 2.43.0 (0)
 -->
<!-- Title: ExtractTar Pages: 1 -->
<svg width="235pt" height="241pt"
 viewBox="0.00 0.00 235.00 241.00" xmlns="http://www.w3.org/2000/svg" xmlns:xlink="http://www.w3.org/1999/xlink">
<g id="graph0" class="graph" transform="scale(1 1) rotate(0) translate(4 237)">
<title>ExtractTar</title>
<polygon fill="white" stroke="transparent" points="-4,4 -4,-237 231,-237 231,4 -4,4"/>
<!-- Node1 -->
<g id="node1" class="node">
<title>Node1</title>
<g id="a_node1"><a xlink:title=" ">
<polygon fill="#bfbfbf" stroke="black" points="27.5,-0.5 27.5,-19.5 92.5,-19.5 92.5,-0.5 27.5,-0.5"/>
<text text-anchor="middle" x="60" y="-7.5" font-family="Helvetica,sans-Serif" font-size="10.00">ExtractTar</text>
</a>
</g>
</g>
<!-- Node2 -->
<g id="node2" class="node">
<title>Node2</title>
<g id="a_node2"><a xlink:href="classFileFd.xhtml" target="_top" xlink:title=" ">
<polygon fill="white" stroke="black" points="148,-78.5 148,-97.5 194,-97.5 194,-78.5 148,-78.5"/>
<text text-anchor="middle" x="171" y="-85.5" font-family="Helvetica,sans-Serif" font-size="10.00">FileFd</text>
</a>
</g>
</g>
<!-- Node2&#45;&gt;Node1 -->
<g id="edge1" class="edge">
<title>Node2&#45;&gt;Node1</title>
<path fill="none" stroke="#9a32cd" stroke-dasharray="5,2" d="M149.92,-72.57C127.08,-56.93 91.4,-32.5 72.58,-19.62"/>
<polygon fill="#9a32cd" stroke="#9a32cd" points="148.04,-75.52 158.27,-78.28 151.99,-69.74 148.04,-75.52"/>
<text text-anchor="middle" x="139" y="-52" font-family="Helvetica,sans-Serif" font-size="10.00"> File</text>
<text text-anchor="middle" x="139" y="-41" font-family="Helvetica,sans-Serif" font-size="10.00">InFd</text>
</g>
<!-- Node3 -->
<g id="node3" class="node">
<title>Node3</title>
<g id="a_node3"><a xlink:title=" ">
<polygon fill="white" stroke="#bfbfbf" points="38,-156.5 38,-175.5 82,-175.5 82,-156.5 38,-156.5"/>
<text text-anchor="middle" x="60" y="-163.5" font-family="Helvetica,sans-Serif" font-size="10.00">string</text>
</a>
</g>
</g>
<!-- Node3&#45;&gt;Node1 -->
<g id="edge4" class="edge">
<title>Node3&#45;&gt;Node1</title>
<path fill="none" stroke="#9a32cd" stroke-dasharray="5,2" d="M57.06,-146.3C54.63,-128.7 51.77,-101.59 53,-78 54.1,-56.98 57.11,-32.39 58.81,-19.65"/>
<polygon fill="#9a32cd" stroke="#9a32cd" points="53.62,-146.98 58.55,-156.37 60.55,-145.96 53.62,-146.98"/>
<text text-anchor="middle" x="96" y="-85.5" font-family="Helvetica,sans-Serif" font-size="10.00"> DecompressProg</text>
</g>
<!-- Node3&#45;&gt;Node2 -->
<g id="edge2" class="edge">
<title>Node3&#45;&gt;Node2</title>
<path fill="none" stroke="#9a32cd" stroke-dasharray="5,2" d="M81.08,-150.57C103.92,-134.93 139.6,-110.5 158.42,-97.62"/>
<polygon fill="#9a32cd" stroke="#9a32cd" points="79.01,-147.74 72.73,-156.28 82.96,-153.52 79.01,-147.74"/>
<text text-anchor="middle" x="177.5" y="-130" font-family="Helvetica,sans-Serif" font-size="10.00"> FileName</text>
<text text-anchor="middle" x="177.5" y="-119" font-family="Helvetica,sans-Serif" font-size="10.00">TemporaryFileName</text>
</g>
<!-- Node4 -->
<g id="node4" class="node">
<title>Node4</title>
<g id="a_node4"><a xlink:title=" ">
<polygon fill="white" stroke="#bfbfbf" points="0,-213.5 0,-232.5 120,-232.5 120,-213.5 0,-213.5"/>
<text text-anchor="middle" x="60" y="-220.5" font-family="Helvetica,sans-Serif" font-size="10.00">basic_string&lt; Char &gt;</text>
</a>
</g>
</g>
<!-- Node4&#45;&gt;Node3 -->
<g id="edge3" class="edge">
<title>Node4&#45;&gt;Node3</title>
<path fill="none" stroke="midnightblue" d="M60,-203.12C60,-193.82 60,-183.06 60,-175.71"/>
<polygon fill="midnightblue" stroke="midnightblue" points="56.5,-203.41 60,-213.41 63.5,-203.41 56.5,-203.41"/>
</g>
</g>
</svg>
