<svg xmlns="http://www.w3.org/2000/svg" xmlns:xlink="http://www.w3.org/1999/xlink" width="356pt" height="428" viewBox="0 0 356 321"><g id="graph0" class="graph" transform="scale(1 1) rotate(0) translate(4 317)"><title>pkgDebianIndexTargetFile</title><polygon fill="#fff" stroke="transparent" points="-4 4 -4 -317 352 -317 352 4 -4 4"/><g id="node1" class="node"><title>Node1</title><g id="a_node1"><a><polygon fill="#bfbfbf" stroke="#000" points="40 -.5 40 -19.5 183 -19.5 183 -.5 40 -.5"/><text x="111.5" y="-7.5" font-family="Helvetica,sans-Serif" font-size="10" text-anchor="middle">pkgDebianIndexTargetFile</text></a></g></g><g id="node2" class="node"><title>Node2</title><g id="a_node2"><a target="_top" xlink:href="classpkgDebianIndexFile.xhtml"><polygon fill="#fff" stroke="#000" points="0 -67.5 0 -86.5 113 -86.5 113 -67.5 0 -67.5"/><text x="56.5" y="-74.5" font-family="Helvetica,sans-Serif" font-size="10" text-anchor="middle">pkgDebianIndexFile</text></a></g></g><g id="edge1" class="edge"><title>Node2-&gt;Node1</title><path fill="none" stroke="#191970" d="M70.66,-59.27C81.38,-46.6 95.68,-29.7 104.2,-19.63"/><polygon fill="#191970" stroke="#191970" points="67.71 -57.34 63.92 -67.23 73.05 -61.86 67.71 -57.34"/></g><g id="node3" class="node"><title>Node3</title><g id="a_node3"><a target="_top" xlink:href="classpkgIndexFile.xhtml"><polygon fill="#fff" stroke="#000" points="17 -146.5 17 -165.5 96 -165.5 96 -146.5 17 -146.5"/><text x="56.5" y="-153.5" font-family="Helvetica,sans-Serif" font-size="10" text-anchor="middle">pkgIndexFile</text></a></g></g><g id="edge2" class="edge"><title>Node3-&gt;Node2</title><path fill="none" stroke="#191970" d="M56.5,-136.31C56.5,-120.59 56.5,-98.81 56.5,-86.81"/><polygon fill="#191970" stroke="#191970" points="53 -136.47 56.5 -146.47 60 -136.47 53 -136.47"/></g><g id="node4" class="node"><title>Node4</title><g id="a_node4"><a target="_top" xlink:href="classIndexTarget.xhtml" xlink:title="Information about an index file."><polygon fill="#fff" stroke="#000" points="131.5 -67.5 131.5 -86.5 205.5 -86.5 205.5 -67.5 131.5 -67.5"/><text x="168.5" y="-74.5" font-family="Helvetica,sans-Serif" font-size="10" text-anchor="middle">IndexTarget</text></a></g></g><g id="edge3" class="edge"><title>Node4-&gt;Node1</title><path fill="none" stroke="#9a32cd" stroke-dasharray="5 2" d="M154.15,-59.63C143,-46.92 127.98,-29.8 119.07,-19.63"/><polygon fill="#9a32cd" stroke="#9a32cd" points="151.59 -62.02 160.81 -67.23 156.85 -57.41 151.59 -62.02"/><text x="159.5" y="-41" font-family="Helvetica,sans-Serif" font-size="10" text-anchor="middle">Target</text></g><g id="node5" class="node"><title>Node5</title><g id="a_node5"><a><polygon fill="#fff" stroke="#bfbfbf" points="229 -141 229 -171 348 -171 348 -141 229 -141"/><text x="237" y="-159" font-family="Helvetica,sans-Serif" font-size="10" text-anchor="start">map&lt; std::string, std</text><text x="288.5" y="-148" font-family="Helvetica,sans-Serif" font-size="10" text-anchor="middle">::string &gt;</text></a></g></g><g id="edge4" class="edge"><title>Node5-&gt;Node4</title><path fill="none" stroke="#9a32cd" stroke-dasharray="5 2" d="M257.88,-135.35C233.33,-119.6 200.05,-98.25 181.82,-86.55"/><polygon fill="#9a32cd" stroke="#9a32cd" points="256.18 -138.42 266.49 -140.88 259.96 -132.53 256.18 -138.42"/><text x="245" y="-108" font-family="Helvetica,sans-Serif" font-size="10" text-anchor="middle">Options</text></g><g id="node6" class="node"><title>Node6</title><g id="a_node6"><a><polygon fill="#fff" stroke="#bfbfbf" points="145.5 -236.5 145.5 -255.5 189.5 -255.5 189.5 -236.5 145.5 -236.5"/><text x="167.5" y="-243.5" font-family="Helvetica,sans-Serif" font-size="10" text-anchor="middle">string</text></a></g></g><g id="edge7" class="edge"><title>Node6-&gt;Node4</title><path fill="none" stroke="#9a32cd" stroke-dasharray="5 2" d="M165.17,-226.38C162.72,-204.32 159.48,-166.48 161.5,-134 162.55,-117.18 165.35,-97.68 167.07,-86.7"/><polygon fill="#9a32cd" stroke="#9a32cd" points="161.7 -226.84 166.35 -236.36 168.65 -226.02 161.7 -226.84"/><text x="191" y="-170" font-family="Helvetica,sans-Serif" font-size="10" text-anchor="middle">Description</text><text x="191" y="-159" font-family="Helvetica,sans-Serif" font-size="10" text-anchor="middle">MetaKey</text><text x="191" y="-148" font-family="Helvetica,sans-Serif" font-size="10" text-anchor="middle">ShortDesc</text><text x="191" y="-137" font-family="Helvetica,sans-Serif" font-size="10" text-anchor="middle">URI</text></g><g id="edge5" class="edge"><title>Node6-&gt;Node5</title><path fill="none" stroke="#9a32cd" stroke-dasharray="5 2" d="M187.75,-230.27C210.35,-213.83 246.66,-187.43 268.96,-171.21"/><polygon fill="#9a32cd" stroke="#9a32cd" points="185.57 -227.53 179.54 -236.24 189.69 -233.19 185.57 -227.53"/><text x="256" y="-210" font-family="Helvetica,sans-Serif" font-size="10" text-anchor="middle">elements</text><text x="256" y="-199" font-family="Helvetica,sans-Serif" font-size="10" text-anchor="middle">keys</text></g><g id="node7" class="node"><title>Node7</title><g id="a_node7"><a><polygon fill="#fff" stroke="#bfbfbf" points="107.5 -293.5 107.5 -312.5 227.5 -312.5 227.5 -293.5 107.5 -293.5"/><text x="167.5" y="-300.5" font-family="Helvetica,sans-Serif" font-size="10" text-anchor="middle">basic_string&lt; Char &gt;</text></a></g></g><g id="edge6" class="edge"><title>Node7-&gt;Node6</title><path fill="none" stroke="#191970" d="M167.5,-283.12C167.5,-273.82 167.5,-263.06 167.5,-255.71"/><polygon fill="#191970" stroke="#191970" points="164 -283.41 167.5 -293.41 171 -283.41 164 -283.41"/></g></g></svg>