<?xml version="1.0" encoding="UTF-8" standalone="no"?>
<!DOCTYPE svg PUBLIC "-//W3C//DTD SVG 1.1//EN"
 "http://www.w3.org/Graphics/SVG/1.1/DTD/svg11.dtd">
<!-- Generated by graphviz version 2.43.0 (0)
 -->
<!-- Title: debSLTypeDeb Pages: 1 -->
<svg width="149pt" height="142pt"
 viewBox="0.00 0.00 148.50 142.00" xmlns="http://www.w3.org/2000/svg" xmlns:xlink="http://www.w3.org/1999/xlink">
<g id="graph0" class="graph" transform="scale(1 1) rotate(0) translate(4 138)">
<title>debSLTypeDeb</title>
<polygon fill="white" stroke="transparent" points="-4,4 -4,-138 144.5,-138 144.5,4 -4,4"/>
<!-- Node1 -->
<g id="node1" class="node">
<title>Node1</title>
<g id="a_node1"><a xlink:title=" ">
<polygon fill="#bfbfbf" stroke="black" points="7.5,-0.5 7.5,-19.5 94.5,-19.5 94.5,-0.5 7.5,-0.5"/>
<text text-anchor="middle" x="51" y="-7.5" font-family="Helvetica,sans-Serif" font-size="10.00">debSLTypeDeb</text>
</a>
</g>
</g>
<!-- Node2 -->
<g id="node2" class="node">
<title>Node2</title>
<g id="a_node2"><a xlink:href="classdebSLTypeDebian.xhtml" target="_top" xlink:title=" ">
<polygon fill="white" stroke="black" points="0,-57.5 0,-76.5 102,-76.5 102,-57.5 0,-57.5"/>
<text text-anchor="middle" x="51" y="-64.5" font-family="Helvetica,sans-Serif" font-size="10.00">debSLTypeDebian</text>
</a>
</g>
</g>
<!-- Node2&#45;&gt;Node1 -->
<g id="edge1" class="edge">
<title>Node2&#45;&gt;Node1</title>
<path fill="none" stroke="midnightblue" d="M51,-47.12C51,-37.82 51,-27.06 51,-19.71"/>
<polygon fill="midnightblue" stroke="midnightblue" points="47.5,-47.41 51,-57.41 54.5,-47.41 47.5,-47.41"/>
</g>
<!-- Node3 -->
<g id="node3" class="node">
<title>Node3</title>
<g id="a_node3"><a xlink:href="classpkgSourceList_1_1Type.xhtml" target="_top" xlink:title=" ">
<polygon fill="white" stroke="black" points="31.5,-114.5 31.5,-133.5 70.5,-133.5 70.5,-114.5 31.5,-114.5"/>
<text text-anchor="middle" x="51" y="-121.5" font-family="Helvetica,sans-Serif" font-size="10.00">Type</text>
</a>
</g>
</g>
<!-- Node3&#45;&gt;Node2 -->
<g id="edge2" class="edge">
<title>Node3&#45;&gt;Node2</title>
<path fill="none" stroke="midnightblue" d="M51,-104.12C51,-94.82 51,-84.06 51,-76.71"/>
<polygon fill="midnightblue" stroke="midnightblue" points="47.5,-104.41 51,-114.41 54.5,-104.41 47.5,-104.41"/>
</g>
<!-- Node3&#45;&gt;Node3 -->
<g id="edge3" class="edge">
<title>Node3&#45;&gt;Node3</title>
<path fill="none" stroke="#9a32cd" stroke-dasharray="5,2" d="M80.83,-128.79C85.4,-128.06 88.5,-126.47 88.5,-124 88.5,-119.95 80.14,-118.25 70.68,-118.88"/>
<polygon fill="#9a32cd" stroke="#9a32cd" points="80.56,-125.3 70.68,-129.12 80.79,-132.3 80.56,-125.3"/>
<text text-anchor="middle" x="114.5" y="-121.5" font-family="Helvetica,sans-Serif" font-size="10.00"> GlobalList</text>
</g>
</g>
</svg>
