<svg xmlns="http://www.w3.org/2000/svg" xmlns:xlink="http://www.w3.org/1999/xlink" width="166pt" height="140pt" viewBox="0 0 166 140"><g id="graph0" class="graph" transform="scale(1 1) rotate(0) translate(4 136)"><title>PackageNameMatchesRegEx</title><polygon fill="#fff" stroke="transparent" points="-4 4 -4 -136 162 -136 162 4 -4 4"/><g id="node1" class="node"><title>Node1</title><g id="a_node1"><a><polygon fill="#bfbfbf" stroke="#000" points="0 -.5 0 -19.5 158 -19.5 158 -.5 0 -.5"/><text x="79" y="-7.5" font-family="Helvetica,sans-Serif" font-size="10" text-anchor="middle">PackageNameMatchesRegEx</text></a></g></g><g id="node2" class="node"><title>Node2</title><g id="a_node2"><a target="_top" xlink:href="classAPT_1_1CacheFilter_1_1PackageMatcher.xhtml"><polygon fill="#fff" stroke="#000" points="31 -56.5 31 -75.5 127 -75.5 127 -56.5 31 -56.5"/><text x="79" y="-63.5" font-family="Helvetica,sans-Serif" font-size="10" text-anchor="middle">PackageMatcher</text></a></g></g><g id="edge1" class="edge"><title>Node2-&gt;Node1</title><path fill="none" stroke="#191970" d="M79,-45.8C79,-36.91 79,-26.78 79,-19.75"/><polygon fill="#191970" stroke="#191970" points="75.5 -46.08 79 -56.08 82.5 -46.08 75.5 -46.08"/></g><g id="node3" class="node"><title>Node3</title><g id="a_node3"><a target="_top" xlink:href="classAPT_1_1CacheFilter_1_1Matcher.xhtml"><polygon fill="#fff" stroke="#000" points="51 -112.5 51 -131.5 107 -131.5 107 -112.5 51 -112.5"/><text x="79" y="-119.5" font-family="Helvetica,sans-Serif" font-size="10" text-anchor="middle">Matcher</text></a></g></g><g id="edge2" class="edge"><title>Node3-&gt;Node2</title><path fill="none" stroke="#191970" d="M79,-101.8C79,-92.91 79,-82.78 79,-75.75"/><polygon fill="#191970" stroke="#191970" points="75.5 -102.08 79 -112.08 82.5 -102.08 75.5 -102.08"/></g></g></svg>