<svg xmlns="http://www.w3.org/2000/svg" xmlns:xlink="http://www.w3.org/1999/xlink" width="416" height="152pt" viewBox="0 0 312 152"><g id="graph0" class="graph" transform="scale(1 1) rotate(0) translate(4 148)"><title>debDebFileParser</title><polygon fill="#fff" stroke="transparent" points="-4 4 -4 -148 308 -148 308 4 -4 4"/><g id="node1" class="node"><title>Node1</title><g id="a_node1"><a><polygon fill="#bfbfbf" stroke="#000" points="123.5 -.5 123.5 -19.5 224.5 -19.5 224.5 -.5 123.5 -.5"/><text x="174" y="-7.5" font-family="Helvetica,sans-Serif" font-size="10" text-anchor="middle">debDebFileParser</text></a></g></g><g id="node2" class="node"><title>Node2</title><g id="a_node2"><a target="_top" xlink:href="classdebListParser.xhtml"><polygon fill="#fff" stroke="#000" points="133 -57.5 133 -76.5 215 -76.5 215 -57.5 133 -57.5"/><text x="174" y="-64.5" font-family="Helvetica,sans-Serif" font-size="10" text-anchor="middle">debListParser</text></a></g></g><g id="edge1" class="edge"><title>Node2-&gt;Node1</title><path fill="none" stroke="#191970" d="M174,-47.12C174,-37.82 174,-27.06 174,-19.71"/><polygon fill="#191970" stroke="#191970" points="170.5 -47.41 174 -57.41 177.5 -47.41 170.5 -47.41"/></g><g id="node3" class="node"><title>Node3</title><g id="a_node3"><a target="_top" xlink:href="classpkgCacheListParser.xhtml"><polygon fill="#fff" stroke="#000" points="0 -124.5 0 -143.5 112 -143.5 112 -124.5 0 -124.5"/><text x="56" y="-131.5" font-family="Helvetica,sans-Serif" font-size="10" text-anchor="middle">pkgCacheListParser</text></a></g></g><g id="edge2" class="edge"><title>Node3-&gt;Node2</title><path fill="none" stroke="#191970" d="M80.89,-119.29C104.28,-106.4 138.56,-87.52 158.34,-76.63"/><polygon fill="#191970" stroke="#191970" points="78.98 -116.34 71.91 -124.23 82.36 -122.47 78.98 -116.34"/></g><g id="node4" class="node"><title>Node4</title><g id="a_node4"><a target="_top" xlink:href="classpkgTagSection.xhtml"><polygon fill="#fff" stroke="#000" points="130.5 -124.5 130.5 -143.5 217.5 -143.5 217.5 -124.5 130.5 -124.5"/><text x="174" y="-131.5" font-family="Helvetica,sans-Serif" font-size="10" text-anchor="middle">pkgTagSection</text></a></g></g><g id="edge3" class="edge"><title>Node4-&gt;Node2</title><path fill="none" stroke="#9a32cd" stroke-dasharray="5 2" d="M174,-114.04C174,-101.67 174,-86.12 174,-76.63"/><polygon fill="#9a32cd" stroke="#9a32cd" points="170.5 -114.23 174 -124.23 177.5 -114.23 170.5 -114.23"/><text x="194" y="-98" font-family="Helvetica,sans-Serif" font-size="10" text-anchor="middle">Section</text></g><g id="node5" class="node"><title>Node5</title><g id="a_node5"><a target="_top" xlink:href="classpkgTagFile.xhtml"><polygon fill="#fff" stroke="#000" points="236 -124.5 236 -143.5 304 -143.5 304 -124.5 236 -124.5"/><text x="270" y="-131.5" font-family="Helvetica,sans-Serif" font-size="10" text-anchor="middle">pkgTagFile</text></a></g></g><g id="edge4" class="edge"><title>Node5-&gt;Node2</title><path fill="none" stroke="#9a32cd" stroke-dasharray="5 2" d="M250.49,-118.17C240.84,-110.98 228.95,-102.34 218,-95 208.47,-88.61 197.47,-81.86 188.85,-76.71"/><polygon fill="#9a32cd" stroke="#9a32cd" points="248.53 -121.07 258.62 -124.28 252.73 -115.47 248.53 -121.07"/><text x="244.5" y="-98" font-family="Helvetica,sans-Serif" font-size="10" text-anchor="middle">Tags</text></g></g></svg>