<svg xmlns="http://www.w3.org/2000/svg" xmlns:xlink="http://www.w3.org/1999/xlink" width="1124" height="908" viewBox="0 0 843.46 681"><g id="graph0" class="graph" transform="scale(1 1) rotate(0) translate(4 677)"><title>pkgAcqMetaSig</title><polygon fill="#fff" stroke="transparent" points="-4 4 -4 -677 839.46 -677 839.46 4 -4 4"/><g id="node1" class="node"><title>Node1</title><g id="a_node1"><a xlink:title="An acquire item that downloads the detached signature {{{ of a meta-index (Release) file,..."><polygon fill="#bfbfbf" stroke="#000" points="316.96 -189 316.96 -208 408.96 -208 408.96 -189 316.96 -189"/><text x="362.96" y="-196" font-family="Helvetica,sans-Serif" font-size="10" text-anchor="middle">pkgAcqMetaSig</text></a></g></g><g id="node2" class="node"><title>Node2</title><g id="a_node2"><a target="_top" xlink:href="classpkgAcqTransactionItem.xhtml" xlink:title="baseclass for the indexes files to manage them all together"><polygon fill="#fff" stroke="#000" points="157.46 -261.5 157.46 -280.5 288.46 -280.5 288.46 -261.5 157.46 -261.5"/><text x="222.96" y="-268.5" font-family="Helvetica,sans-Serif" font-size="10" text-anchor="middle">pkgAcqTransactionItem</text></a></g></g><g id="edge1" class="edge"><title>Node2-&gt;Node1</title><path fill="none" stroke="#191970" d="M249.48,-256.77C258.24,-252.39 268.02,-247.5 276.96,-243 301.02,-230.9 328.83,-216.81 346.16,-208.03"/><polygon fill="#191970" stroke="#191970" points="247.86 -253.67 240.48 -261.27 250.99 -259.93 247.86 -253.67"/></g><g id="node10" class="node"><title>Node10</title><g id="a_node10"><a target="_top" xlink:href="classpkgAcqMetaBase.xhtml" xlink:title="the manager of a transaction"><polygon fill="#fff" stroke="#000" points="192.46 -115.5 192.46 -134.5 293.46 -134.5 293.46 -115.5 192.46 -115.5"/><text x="242.96" y="-122.5" font-family="Helvetica,sans-Serif" font-size="10" text-anchor="middle">pkgAcqMetaBase</text></a></g></g><g id="edge11" class="edge"><title>Node2-&gt;Node10</title><path fill="none" stroke="#191970" d="M189.9,-257.04C171.62,-247.96 150.52,-233.87 139.96,-214 133.49,-201.83 132.96,-194.87 139.96,-183 154.9,-157.65 185.62,-142.78 209.65,-134.63"/><polygon fill="#191970" stroke="#191970" points="188.59 -260.29 199.13 -261.33 191.54 -253.94 188.59 -260.29"/></g><g id="node11" class="node"><title>Node11</title><g id="a_node11"><a><polygon fill="#fff" stroke="#bfbfbf" points="148.96 -183.5 148.96 -213.5 298.96 -213.5 298.96 -183.5 148.96 -183.5"/><text x="156.96" y="-201.5" font-family="Helvetica,sans-Serif" font-size="10" text-anchor="start">vector&lt; pkgAcqTransaction</text><text x="223.96" y="-190.5" font-family="Helvetica,sans-Serif" font-size="10" text-anchor="middle">Item * &gt;</text></a></g></g><g id="edge13" class="edge"><title>Node2-&gt;Node11</title><path fill="none" stroke="#9a32cd" stroke-dasharray="5 2" d="M223.22,-251.24C223.39,-239.41 223.6,-224.38 223.76,-213.58"/><polygon fill="#9a32cd" stroke="#9a32cd" points="219.72 -251.31 223.08 -261.36 226.72 -251.41 219.72 -251.31"/><text x="248.46" y="-235" font-family="Helvetica,sans-Serif" font-size="10" text-anchor="middle">elements</text></g><g id="node3" class="node"><title>Node3</title><g id="a_node3"><a><polygon fill="#fff" stroke="#bfbfbf" points="203.46 -334 203.46 -353 242.46 -353 242.46 -334 203.46 -334"/><text x="222.96" y="-341" font-family="Helvetica,sans-Serif" font-size="10" text-anchor="middle">Item</text></a></g></g><g id="edge2" class="edge"><title>Node3-&gt;Node2</title><path fill="none" stroke="#191970" d="M222.96,-323.44C222.96,-309.53 222.96,-291.32 222.96,-280.72"/><polygon fill="#191970" stroke="#191970" points="219.46 -323.86 222.96 -333.86 226.46 -323.86 219.46 -323.86"/></g><g id="node4" class="node"><title>Node4</title><g id="a_node4"><a target="_top" xlink:href="classIndexTarget.xhtml" xlink:title="Information about an index file."><polygon fill="#fff" stroke="#000" points="109.96 -334 109.96 -353 183.96 -353 183.96 -334 109.96 -334"/><text x="146.96" y="-341" font-family="Helvetica,sans-Serif" font-size="10" text-anchor="middle">IndexTarget</text></a></g></g><g id="edge3" class="edge"><title>Node4-&gt;Node2</title><path fill="none" stroke="#9a32cd" stroke-dasharray="5 2" d="M159.88,-325.91C166.87,-317.42 175.91,-307.19 184.96,-299 192.52,-292.16 201.84,-285.51 209.36,-280.52"/><polygon fill="#9a32cd" stroke="#9a32cd" points="156.95 -323.97 153.43 -333.96 162.41 -328.35 156.95 -323.97"/><text x="201.96" y="-302" font-family="Helvetica,sans-Serif" font-size="10" text-anchor="middle">Target</text></g><g id="node9" class="node"><title>Node9</title><g id="a_node9"><a target="_top" xlink:href="classpkgAcqMetaIndex.xhtml" xlink:title="An item that is responsible for downloading the meta-index {{{ file (i.e., Release) itself and verify..."><polygon fill="#fff" stroke="#000" points="144.96 -57.5 144.96 -76.5 248.96 -76.5 248.96 -57.5 144.96 -57.5"/><text x="196.96" y="-64.5" font-family="Helvetica,sans-Serif" font-size="10" text-anchor="middle">pkgAcqMetaIndex</text></a></g></g><g id="edge15" class="edge"><title>Node4-&gt;Node9</title><path fill="none" stroke="#9a32cd" stroke-dasharray="5 2" d="M118.69,-329.42C69.91,-304.83 -22.35,-248.25 4.96,-183 31.13,-120.45 110.83,-89.74 158.93,-76.53"/><polygon fill="#9a32cd" stroke="#9a32cd" points="117.3 -332.64 127.82 -333.91 120.38 -326.36 117.3 -332.64"/><text x="52.46" y="-196" font-family="Helvetica,sans-Serif" font-size="10" text-anchor="middle">DetachedSigTarget</text></g><g id="node5" class="node"><title>Node5</title><g id="a_node5"><a><polygon fill="#fff" stroke="#bfbfbf" points="222.46 -501 222.46 -531 341.46 -531 341.46 -501 222.46 -501"/><text x="230.46" y="-519" font-family="Helvetica,sans-Serif" font-size="10" text-anchor="start">map&lt; std::string, std</text><text x="281.96" y="-508" font-family="Helvetica,sans-Serif" font-size="10" text-anchor="middle">::string &gt;</text></a></g></g><g id="edge4" class="edge"><title>Node5-&gt;Node4</title><path fill="none" stroke="#9a32cd" stroke-dasharray="5 2" d="M264.41,-492.84C234.39,-454.92 174.41,-379.18 153.97,-353.36"/><polygon fill="#9a32cd" stroke="#9a32cd" points="261.73 -495.09 270.68 -500.76 267.22 -490.74 261.73 -495.09"/><text x="269.46" y="-424" font-family="Helvetica,sans-Serif" font-size="10" text-anchor="middle">Options</text></g><g id="node6" class="node"><title>Node6</title><g id="a_node6"><a><polygon fill="#fff" stroke="#bfbfbf" points="414.96 -596.5 414.96 -615.5 458.96 -615.5 458.96 -596.5 414.96 -596.5"/><text x="436.96" y="-603.5" font-family="Helvetica,sans-Serif" font-size="10" text-anchor="middle">string</text></a></g></g><g id="edge25" class="edge"><title>Node6-&gt;Node2</title><path fill="none" stroke="#9a32cd" stroke-dasharray="5 2" d="M426.14,-587.29C402.55,-548.78 344.53,-454.63 293.96,-377 270.42,-340.86 241.3,-298.51 228.95,-280.64"/><polygon fill="#9a32cd" stroke="#9a32cd" points="423.4 -589.53 431.61 -596.23 429.38 -585.88 423.4 -589.53"/><text x="381.96" y="-424" font-family="Helvetica,sans-Serif" font-size="10" text-anchor="middle">PartialFile</text></g><g id="edge7" class="edge"><title>Node6-&gt;Node4</title><path fill="none" stroke="#9a32cd" stroke-dasharray="5 2" d="M404.57,-602.33C336.95,-595.99 184.49,-577.55 153.96,-538 109.79,-480.79 134.87,-383.19 144.04,-353.4"/><polygon fill="#9a32cd" stroke="#9a32cd" points="404.39 -605.82 414.67 -603.24 405.02 -598.85 404.39 -605.82"/><text x="183.46" y="-530" font-family="Helvetica,sans-Serif" font-size="10" text-anchor="middle">Description</text><text x="183.46" y="-519" font-family="Helvetica,sans-Serif" font-size="10" text-anchor="middle">MetaKey</text><text x="183.46" y="-508" font-family="Helvetica,sans-Serif" font-size="10" text-anchor="middle">ShortDesc</text><text x="183.46" y="-497" font-family="Helvetica,sans-Serif" font-size="10" text-anchor="middle">URI</text></g><g id="edge5" class="edge"><title>Node6-&gt;Node5</title><path fill="none" stroke="#9a32cd" stroke-dasharray="5 2" d="M404.43,-601.74C370.9,-597.78 321.52,-590.1 306.96,-578 292.78,-566.22 286.55,-545.13 283.88,-531.1"/><polygon fill="#9a32cd" stroke="#9a32cd" points="404.37 -605.26 414.69 -602.9 405.15 -598.3 404.37 -605.26"/><text x="331.46" y="-570" font-family="Helvetica,sans-Serif" font-size="10" text-anchor="middle">elements</text><text x="331.46" y="-559" font-family="Helvetica,sans-Serif" font-size="10" text-anchor="middle">keys</text></g><g id="edge14" class="edge"><title>Node6-&gt;Node10</title><path fill="none" stroke="#9a32cd" stroke-dasharray="5 2" d="M436.96,-586.07C436.96,-568.25 436.96,-540.81 436.96,-517 436.96,-517 436.96,-517 436.96,-197.5 436.96,-166.94 351.16,-145.41 293.68,-134.41"/><polygon fill="#9a32cd" stroke="#9a32cd" points="433.46 -586.26 436.96 -596.26 440.46 -586.26 433.46 -586.26"/><text x="459.46" y="-302" font-family="Helvetica,sans-Serif" font-size="10" text-anchor="middle">BaseURI</text></g><g id="node12" class="node"><title>Node12</title><g id="a_node12"><a target="_top" xlink:href="classmetaIndex.xhtml"><polygon fill="#fff" stroke="#000" points="480.46 -261.5 480.46 -280.5 549.46 -280.5 549.46 -261.5 480.46 -261.5"/><text x="514.96" y="-268.5" font-family="Helvetica,sans-Serif" font-size="10" text-anchor="middle">metaIndex</text></a></g></g><g id="edge19" class="edge"><title>Node6-&gt;Node12</title><path fill="none" stroke="#9a32cd" stroke-dasharray="5 2" d="M447.09,-587.33C448.56,-584.29 449.91,-581.1 450.96,-578 486.89,-471.14 464.48,-436.82 493.96,-328 498.63,-310.76 506.5,-291.41 511.17,-280.56"/><polygon fill="#9a32cd" stroke="#9a32cd" points="443.93 -585.83 442.34 -596.3 450.11 -589.11 443.93 -585.83"/><text x="515.96" y="-468" font-family="Helvetica,sans-Serif" font-size="10" text-anchor="middle">Codename</text><text x="515.96" y="-457" font-family="Helvetica,sans-Serif" font-size="10" text-anchor="middle">Dist</text><text x="515.96" y="-446" font-family="Helvetica,sans-Serif" font-size="10" text-anchor="middle">Label</text><text x="515.96" y="-435" font-family="Helvetica,sans-Serif" font-size="10" text-anchor="middle">Origin</text><text x="515.96" y="-424" font-family="Helvetica,sans-Serif" font-size="10" text-anchor="middle">ReleaseNotes</text><text x="515.96" y="-413" font-family="Helvetica,sans-Serif" font-size="10" text-anchor="middle">SignedBy</text><text x="515.96" y="-402" font-family="Helvetica,sans-Serif" font-size="10" text-anchor="middle">Suite</text><text x="515.96" y="-391" font-family="Helvetica,sans-Serif" font-size="10" text-anchor="middle">URI</text><text x="515.96" y="-380" font-family="Helvetica,sans-Serif" font-size="10" text-anchor="middle">Version</text></g><g id="node15" class="node"><title>Node15</title><g id="a_node15"><a><polygon fill="#fff" stroke="#bfbfbf" points="661.46 -328.5 661.46 -358.5 818.46 -358.5 818.46 -328.5 661.46 -328.5"/><text x="669.46" y="-346.5" font-family="Helvetica,sans-Serif" font-size="10" text-anchor="start">map&lt; std::string, metaIndex</text><text x="739.96" y="-335.5" font-family="Helvetica,sans-Serif" font-size="10" text-anchor="middle">::checkSum * &gt;</text></a></g></g><g id="edge21" class="edge"><title>Node6-&gt;Node15</title><path fill="none" stroke="#9a32cd" stroke-dasharray="5 2" d="M469.21,-599.61C508.05,-591.75 573.59,-573.98 617.96,-538 681.04,-486.85 721.19,-393.94 734.79,-358.63"/><polygon fill="#9a32cd" stroke="#9a32cd" points="468.16 -596.25 459 -601.57 469.48 -603.12 468.16 -596.25"/><text x="670.96" y="-513.5" font-family="Helvetica,sans-Serif" font-size="10" text-anchor="middle">keys</text></g><g id="node16" class="node"><title>Node16</title><g id="a_node16"><a target="_top" xlink:href="structmetaIndex_1_1checkSum.xhtml"><polygon fill="#fff" stroke="#000" points="706.46 -506.5 706.46 -525.5 773.46 -525.5 773.46 -506.5 706.46 -506.5"/><text x="739.96" y="-513.5" font-family="Helvetica,sans-Serif" font-size="10" text-anchor="middle">checkSum</text></a></g></g><g id="edge24" class="edge"><title>Node6-&gt;Node16</title><path fill="none" stroke="#9a32cd" stroke-dasharray="5 2" d="M469.13,-603.85C521.95,-601.51 624.34,-594.88 655.96,-578 667.35,-571.91 665.07,-564.32 674.96,-556 689.66,-543.63 708.73,-532.68 722.41,-525.56"/><polygon fill="#9a32cd" stroke="#9a32cd" points="468.81 -600.37 458.96 -604.28 469.1 -607.36 468.81 -600.37"/><text x="720.46" y="-564.5" font-family="Helvetica,sans-Serif" font-size="10" text-anchor="middle">MetaKeyFilename</text></g><g id="node7" class="node"><title>Node7</title><g id="a_node7"><a><polygon fill="#fff" stroke="#bfbfbf" points="376.96 -653.5 376.96 -672.5 496.96 -672.5 496.96 -653.5 376.96 -653.5"/><text x="436.96" y="-660.5" font-family="Helvetica,sans-Serif" font-size="10" text-anchor="middle">basic_string&lt; Char &gt;</text></a></g></g><g id="edge6" class="edge"><title>Node7-&gt;Node6</title><path fill="none" stroke="#191970" d="M436.96,-643.12C436.96,-633.82 436.96,-623.06 436.96,-615.71"/><polygon fill="#191970" stroke="#191970" points="433.46 -643.41 436.96 -653.41 440.46 -643.41 433.46 -643.41"/></g><g id="node8" class="node"><title>Node8</title><g id="a_node8"><a target="_top" xlink:href="classpkgAcqMetaClearSig.xhtml" xlink:title="An item responsible for downloading clearsigned metaindexes {{{."><polygon fill="#fff" stroke="#000" points="137.96 -.5 137.96 -19.5 255.96 -19.5 255.96 -.5 137.96 -.5"/><text x="196.96" y="-7.5" font-family="Helvetica,sans-Serif" font-size="10" text-anchor="middle">pkgAcqMetaClearSig</text></a></g></g><g id="edge8" class="edge"><title>Node8-&gt;Node2</title><path fill="none" stroke="#9a32cd" stroke-dasharray="5 2" d="M167.94,-24.22C128.92,-44.15 66.03,-85.06 80.96,-136 92.18,-174.31 133.74,-229.56 150.96,-243 161.59,-251.3 175.03,-257.25 187.42,-261.42"/><polygon fill="#9a32cd" stroke="#9a32cd" points="169.87 -27.17 177.29 -19.61 166.77 -20.89 169.87 -27.17"/><text x="131.96" y="-122.5" font-family="Helvetica,sans-Serif" font-size="10" text-anchor="middle">TransactionManager</text></g><g id="edge9" class="edge"><title>Node9-&gt;Node8</title><path fill="none" stroke="#191970" d="M196.96,-47.12C196.96,-37.82 196.96,-27.06 196.96,-19.71"/><polygon fill="#191970" stroke="#191970" points="193.46 -47.41 196.96 -57.41 200.46 -47.41 193.46 -47.41"/></g><g id="edge10" class="edge"><title>Node10-&gt;Node9</title><path fill="none" stroke="#191970" d="M229.35,-107.43C221,-97.27 210.66,-84.69 203.94,-76.51"/><polygon fill="#191970" stroke="#191970" points="226.72 -109.74 235.77 -115.25 232.13 -105.3 226.72 -109.74"/></g><g id="edge12" class="edge"><title>Node11-&gt;Node10</title><path fill="none" stroke="#9a32cd" stroke-dasharray="5 2" d="M230.37,-173.36C233.92,-160.01 238.11,-144.25 240.65,-134.7"/><polygon fill="#9a32cd" stroke="#9a32cd" points="226.9 -172.81 227.71 -183.37 233.66 -174.61 226.9 -172.81"/><text x="264.46" y="-157" font-family="Helvetica,sans-Serif" font-size="10" text-anchor="middle">Transaction</text></g><g id="edge16" class="edge"><title>Node12-&gt;Node8</title><path fill="none" stroke="#9a32cd" stroke-dasharray="5 2" d="M503.71,-252.46C495.92,-238.63 486.96,-218.58 486.96,-199.5 486.96,-199.5 486.96,-199.5 486.96,-66 486.96,-19.43 340.78,-11.26 255.99,-10.44"/><polygon fill="#9a32cd" stroke="#9a32cd" points="500.87 -254.54 509.02 -261.32 506.88 -250.94 500.87 -254.54"/><text x="539.96" y="-128" font-family="Helvetica,sans-Serif" font-size="10" text-anchor="middle">LastMetaIndexParser</text><text x="539.96" y="-117" font-family="Helvetica,sans-Serif" font-size="10" text-anchor="middle">MetaIndexParser</text></g><g id="node13" class="node"><title>Node13</title><g id="a_node13"><a><polygon fill="#fff" stroke="#bfbfbf" points="502.96 -334 502.96 -353 642.96 -353 642.96 -334 502.96 -334"/><text x="572.96" y="-341" font-family="Helvetica,sans-Serif" font-size="10" text-anchor="middle">vector&lt; pkgIndexFile * &gt;</text></a></g></g><g id="edge17" class="edge"><title>Node13-&gt;Node12</title><path fill="none" stroke="#9a32cd" stroke-dasharray="5 2" d="M559.3,-325.9C547.65,-311.74 531.38,-291.96 522.13,-280.72"/><polygon fill="#9a32cd" stroke="#9a32cd" points="556.79 -328.36 565.85 -333.86 562.2 -323.91 556.79 -328.36"/><text x="565.46" y="-302" font-family="Helvetica,sans-Serif" font-size="10" text-anchor="middle">Indexes</text></g><g id="node14" class="node"><title>Node14</title><g id="a_node14"><a target="_top" xlink:href="classpkgIndexFile.xhtml"><polygon fill="#fff" stroke="#000" points="529.46 -506.5 529.46 -525.5 608.46 -525.5 608.46 -506.5 529.46 -506.5"/><text x="568.96" y="-513.5" font-family="Helvetica,sans-Serif" font-size="10" text-anchor="middle">pkgIndexFile</text></a></g></g><g id="edge18" class="edge"><title>Node14-&gt;Node13</title><path fill="none" stroke="#9a32cd" stroke-dasharray="5 2" d="M569.4,-496.02C570.26,-459.33 572.13,-379.96 572.75,-353.38"/><polygon fill="#9a32cd" stroke="#9a32cd" points="565.9 -496.23 569.16 -506.31 572.9 -496.4 565.9 -496.23"/><text x="596.46" y="-424" font-family="Helvetica,sans-Serif" font-size="10" text-anchor="middle">elements</text></g><g id="edge20" class="edge"><title>Node15-&gt;Node12</title><path fill="none" stroke="#9a32cd" stroke-dasharray="5 2" d="M685.56,-325.46C640.28,-311.27 577.68,-291.65 542.26,-280.55"/><polygon fill="#9a32cd" stroke="#9a32cd" points="684.65 -328.84 695.24 -328.49 686.74 -322.16 684.65 -328.84"/><text x="652.46" y="-302" font-family="Helvetica,sans-Serif" font-size="10" text-anchor="middle">Entries</text></g><g id="edge22" class="edge"><title>Node16-&gt;Node15</title><path fill="none" stroke="#9a32cd" stroke-dasharray="5 2" d="M739.96,-496.21C739.96,-461.77 739.96,-389.27 739.96,-358.64"/><polygon fill="#9a32cd" stroke="#9a32cd" points="736.46 -496.31 739.96 -506.31 743.46 -496.31 736.46 -496.31"/><text x="764.46" y="-424" font-family="Helvetica,sans-Serif" font-size="10" text-anchor="middle">elements</text></g><g id="node17" class="node"><title>Node17</title><g id="a_node17"><a target="_top" xlink:href="classHashStringList.xhtml"><polygon fill="#fff" stroke="#000" points="748.46 -596.5 748.46 -615.5 835.46 -615.5 835.46 -596.5 748.46 -596.5"/><text x="791.96" y="-603.5" font-family="Helvetica,sans-Serif" font-size="10" text-anchor="middle">HashStringList</text></a></g></g><g id="edge23" class="edge"><title>Node17-&gt;Node16</title><path fill="none" stroke="#9a32cd" stroke-dasharray="5 2" d="M784.99,-586.82C781.07,-577.36 775.8,-565.77 769.96,-556 763.29,-544.86 753.97,-533.2 747.49,-525.56"/><polygon fill="#9a32cd" stroke="#9a32cd" points="781.84 -588.38 788.8 -596.38 788.35 -585.79 781.84 -588.38"/><text x="799.96" y="-564.5" font-family="Helvetica,sans-Serif" font-size="10" text-anchor="middle">Hashes</text></g></g></svg>