<?xml version="1.0" encoding="UTF-8" standalone="no"?>
<!DOCTYPE svg PUBLIC "-//W3C//DTD SVG 1.1//EN"
 "http://www.w3.org/Graphics/SVG/1.1/DTD/svg11.dtd">
<!-- Generated by graphviz version 2.43.0 (0)
 -->
<!-- Title: edspIndex Pages: 1 -->
<svg width="237pt" height="266pt"
 viewBox="0.00 0.00 236.50 266.00" xmlns="http://www.w3.org/2000/svg" xmlns:xlink="http://www.w3.org/1999/xlink">
<g id="graph0" class="graph" transform="scale(1 1) rotate(0) translate(4 262)">
<title>edspIndex</title>
<polygon fill="white" stroke="transparent" points="-4,4 -4,-262 232.5,-262 232.5,4 -4,4"/>
<!-- Node1 -->
<g id="node1" class="node">
<title>Node1</title>
<g id="a_node1"><a xlink:title=" ">
<polygon fill="#bfbfbf" stroke="black" points="71,-0.5 71,-19.5 138,-19.5 138,-0.5 71,-0.5"/>
<text text-anchor="middle" x="104.5" y="-7.5" font-family="Helvetica,sans-Serif" font-size="10.00">edspIndex</text>
</a>
</g>
</g>
<!-- Node2 -->
<g id="node2" class="node">
<title>Node2</title>
<g id="a_node2"><a xlink:href="classedspLikeIndex.xhtml" target="_top" xlink:title=" ">
<polygon fill="white" stroke="black" points="61.5,-57.5 61.5,-76.5 147.5,-76.5 147.5,-57.5 61.5,-57.5"/>
<text text-anchor="middle" x="104.5" y="-64.5" font-family="Helvetica,sans-Serif" font-size="10.00">edspLikeIndex</text>
</a>
</g>
</g>
<!-- Node2&#45;&gt;Node1 -->
<g id="edge1" class="edge">
<title>Node2&#45;&gt;Node1</title>
<path fill="none" stroke="midnightblue" d="M104.5,-47.12C104.5,-37.82 104.5,-27.06 104.5,-19.71"/>
<polygon fill="midnightblue" stroke="midnightblue" points="101,-47.41 104.5,-57.41 108,-47.41 101,-47.41"/>
</g>
<!-- Node3 -->
<g id="node3" class="node">
<title>Node3</title>
<g id="a_node3"><a xlink:href="classpkgDebianIndexRealFile.xhtml" target="_top" xlink:title=" ">
<polygon fill="white" stroke="black" points="37,-114.5 37,-133.5 172,-133.5 172,-114.5 37,-114.5"/>
<text text-anchor="middle" x="104.5" y="-121.5" font-family="Helvetica,sans-Serif" font-size="10.00">pkgDebianIndexRealFile</text>
</a>
</g>
</g>
<!-- Node3&#45;&gt;Node2 -->
<g id="edge2" class="edge">
<title>Node3&#45;&gt;Node2</title>
<path fill="none" stroke="midnightblue" d="M104.5,-104.12C104.5,-94.82 104.5,-84.06 104.5,-76.71"/>
<polygon fill="midnightblue" stroke="midnightblue" points="101,-104.41 104.5,-114.41 108,-104.41 101,-104.41"/>
</g>
<!-- Node4 -->
<g id="node4" class="node">
<title>Node4</title>
<g id="a_node4"><a xlink:href="classpkgDebianIndexFile.xhtml" target="_top" xlink:title=" ">
<polygon fill="white" stroke="black" points="0,-181.5 0,-200.5 113,-200.5 113,-181.5 0,-181.5"/>
<text text-anchor="middle" x="56.5" y="-188.5" font-family="Helvetica,sans-Serif" font-size="10.00">pkgDebianIndexFile</text>
</a>
</g>
</g>
<!-- Node4&#45;&gt;Node3 -->
<g id="edge3" class="edge">
<title>Node4&#45;&gt;Node3</title>
<path fill="none" stroke="midnightblue" d="M69.12,-172.9C78.45,-160.27 90.76,-143.6 98.13,-133.63"/>
<polygon fill="midnightblue" stroke="midnightblue" points="66.1,-171.11 62.97,-181.23 71.73,-175.27 66.1,-171.11"/>
</g>
<!-- Node5 -->
<g id="node5" class="node">
<title>Node5</title>
<g id="a_node5"><a xlink:href="classpkgIndexFile.xhtml" target="_top" xlink:title=" ">
<polygon fill="white" stroke="black" points="12,-238.5 12,-257.5 91,-257.5 91,-238.5 12,-238.5"/>
<text text-anchor="middle" x="51.5" y="-245.5" font-family="Helvetica,sans-Serif" font-size="10.00">pkgIndexFile</text>
</a>
</g>
</g>
<!-- Node5&#45;&gt;Node4 -->
<g id="edge4" class="edge">
<title>Node5&#45;&gt;Node4</title>
<path fill="none" stroke="midnightblue" d="M53.19,-228.42C54.04,-219.05 55.03,-208.14 55.71,-200.71"/>
<polygon fill="midnightblue" stroke="midnightblue" points="49.7,-228.13 52.28,-238.41 56.67,-228.76 49.7,-228.13"/>
</g>
<!-- Node6 -->
<g id="node6" class="node">
<title>Node6</title>
<g id="a_node6"><a xlink:title=" ">
<polygon fill="white" stroke="#bfbfbf" points="141.5,-181.5 141.5,-200.5 185.5,-200.5 185.5,-181.5 141.5,-181.5"/>
<text text-anchor="middle" x="163.5" y="-188.5" font-family="Helvetica,sans-Serif" font-size="10.00">string</text>
</a>
</g>
</g>
<!-- Node6&#45;&gt;Node3 -->
<g id="edge5" class="edge">
<title>Node6&#45;&gt;Node3</title>
<path fill="none" stroke="#9a32cd" stroke-dasharray="5,2" d="M148.65,-173.63C137.11,-160.92 121.56,-143.8 112.33,-133.63"/>
<polygon fill="#9a32cd" stroke="#9a32cd" points="146.23,-176.18 155.54,-181.23 151.41,-171.48 146.23,-176.18"/>
<text text-anchor="middle" x="149" y="-155" font-family="Helvetica,sans-Serif" font-size="10.00"> File</text>
</g>
<!-- Node7 -->
<g id="node7" class="node">
<title>Node7</title>
<g id="a_node7"><a xlink:title=" ">
<polygon fill="white" stroke="#bfbfbf" points="108.5,-238.5 108.5,-257.5 228.5,-257.5 228.5,-238.5 108.5,-238.5"/>
<text text-anchor="middle" x="168.5" y="-245.5" font-family="Helvetica,sans-Serif" font-size="10.00">basic_string&lt; Char &gt;</text>
</a>
</g>
</g>
<!-- Node7&#45;&gt;Node6 -->
<g id="edge6" class="edge">
<title>Node7&#45;&gt;Node6</title>
<path fill="none" stroke="midnightblue" d="M166.81,-228.42C165.96,-219.05 164.97,-208.14 164.29,-200.71"/>
<polygon fill="midnightblue" stroke="midnightblue" points="163.33,-228.76 167.72,-238.41 170.3,-228.13 163.33,-228.76"/>
</g>
</g>
</svg>
