<svg xmlns="http://www.w3.org/2000/svg" xmlns:xlink="http://www.w3.org/1999/xlink" width="468" height="151pt" viewBox="0 0 351 151"><g id="graph0" class="graph" transform="scale(1 1) rotate(0) translate(4 147)"><title>pkgCache&lt; Str, Itr &gt;::Namespace</title><polygon fill="#fff" stroke="transparent" points="-4 4 -4 -147 347 -147 347 4 -4 4"/><g id="node1" class="node"><title>Node1</title><g id="a_node1"><a><polygon fill="#bfbfbf" stroke="#000" points="88 -112.5 88 -142.5 194 -142.5 194 -112.5 88 -112.5"/><text x="96" y="-130.5" font-family="Helvetica,sans-Serif" font-size="10" text-anchor="start">pkgCache&lt; Str, Itr</text><text x="141" y="-119.5" font-family="Helvetica,sans-Serif" font-size="10" text-anchor="middle">&gt;::Namespace</text></a></g></g><g id="node2" class="node"><title>Node2</title><g id="a_node2"><a target="_top" xlink:href="classpkgDepCache.xhtml"><polygon fill="#fff" stroke="#000" points="0 -56.5 0 -75.5 84 -75.5 84 -56.5 0 -56.5"/><text x="42" y="-63.5" font-family="Helvetica,sans-Serif" font-size="10" text-anchor="middle">pkgDepCache</text></a></g></g><g id="edge1" class="edge"><title>Node1-&gt;Node2</title><path fill="none" stroke="#006400" d="M108.67,-107.07C91.02,-96.46 70.05,-83.86 56.41,-75.66"/><polygon fill="#006400" stroke="#006400" points="107.16 -110.25 117.54 -112.4 110.77 -104.25 107.16 -110.25"/></g><g id="node3" class="node"><title>Node3</title><g id="a_node3"><a target="_top" xlink:href="classpkgOrderList.xhtml"><polygon fill="#fff" stroke="#000" points="101.5 -56.5 101.5 -75.5 180.5 -75.5 180.5 -56.5 101.5 -56.5"/><text x="141" y="-63.5" font-family="Helvetica,sans-Serif" font-size="10" text-anchor="middle">pkgOrderList</text></a></g></g><g id="edge2" class="edge"><title>Node1-&gt;Node3</title><path fill="none" stroke="#006400" d="M141,-102.29C141,-92.86 141,-82.65 141,-75.66"/><polygon fill="#006400" stroke="#006400" points="137.5 -102.4 141 -112.4 144.5 -102.4 137.5 -102.4"/></g><g id="node4" class="node"><title>Node4</title><g id="a_node4"><a target="_top" xlink:href="classpkgPackageManager.xhtml"><polygon fill="#fff" stroke="#000" points="198.5 -56.5 198.5 -75.5 315.5 -75.5 315.5 -56.5 198.5 -56.5"/><text x="257" y="-63.5" font-family="Helvetica,sans-Serif" font-size="10" text-anchor="middle">pkgPackageManager</text></a></g></g><g id="edge3" class="edge"><title>Node1-&gt;Node4</title><path fill="none" stroke="#006400" d="M177.47,-107.8C198.43,-97.04 223.77,-84.05 240.12,-75.66"/><polygon fill="#006400" stroke="#006400" points="175.79 -104.72 168.49 -112.4 178.99 -110.95 175.79 -104.72"/></g><g id="node5" class="node"><title>Node5</title><g id="a_node5"><a target="_top" xlink:href="classpkgDPkgPM.xhtml"><polygon fill="#fff" stroke="#000" points="171.5 -.5 171.5 -19.5 246.5 -19.5 246.5 -.5 171.5 -.5"/><text x="209" y="-7.5" font-family="Helvetica,sans-Serif" font-size="10" text-anchor="middle">pkgDPkgPM</text></a></g></g><g id="edge4" class="edge"><title>Node4-&gt;Node5</title><path fill="none" stroke="#191970" d="M242.27,-48.43C233.86,-38.97 223.65,-27.48 216.78,-19.75"/><polygon fill="#191970" stroke="#191970" points="239.81 -50.93 249.07 -56.08 245.05 -46.28 239.81 -50.93"/></g><g id="node6" class="node"><title>Node6</title><g id="a_node6"><a target="_top" xlink:href="classpkgSimulate.xhtml"><polygon fill="#fff" stroke="#000" points="265 -.5 265 -19.5 343 -19.5 343 -.5 265 -.5"/><text x="304" y="-7.5" font-family="Helvetica,sans-Serif" font-size="10" text-anchor="middle">pkgSimulate</text></a></g></g><g id="edge5" class="edge"><title>Node4-&gt;Node6</title><path fill="none" stroke="#191970" d="M271.42,-48.43C279.66,-38.97 289.65,-27.48 296.38,-19.75"/><polygon fill="#191970" stroke="#191970" points="268.69 -46.24 264.76 -56.08 273.97 -50.84 268.69 -46.24"/></g></g></svg>