<svg xmlns="http://www.w3.org/2000/svg" xmlns:xlink="http://www.w3.org/1999/xlink" width="146pt" height="85pt" viewBox="0 0 145.5 85"><g id="graph0" class="graph" transform="scale(1 1) rotate(0) translate(4 81)"><title>debIFTypeStatus</title><polygon fill="#fff" stroke="transparent" points="-4 4 -4 -81 141.5 -81 141.5 4 -4 4"/><g id="node1" class="node"><title>Node1</title><g id="a_node1"><a><polygon fill="#bfbfbf" stroke="#000" points="0 -.5 0 -19.5 96 -19.5 96 -.5 0 -.5"/><text x="48" y="-7.5" font-family="Helvetica,sans-Serif" font-size="10" text-anchor="middle">debIFTypeStatus</text></a></g></g><g id="node2" class="node"><title>Node2</title><g id="a_node2"><a target="_top" xlink:href="classpkgIndexFile_1_1Type.xhtml"><polygon fill="#fff" stroke="#000" points="28.5 -57.5 28.5 -76.5 67.5 -76.5 67.5 -57.5 28.5 -57.5"/><text x="48" y="-64.5" font-family="Helvetica,sans-Serif" font-size="10" text-anchor="middle">Type</text></a></g></g><g id="edge1" class="edge"><title>Node2-&gt;Node1</title><path fill="none" stroke="#191970" d="M48,-47.12C48,-37.82 48,-27.06 48,-19.71"/><polygon fill="#191970" stroke="#191970" points="44.5 -47.41 48 -57.41 51.5 -47.41 44.5 -47.41"/></g><g id="edge2" class="edge"><title>Node2-&gt;Node2</title><path fill="none" stroke="#9a32cd" stroke-dasharray="5 2" d="M77.83,-71.79C82.4,-71.06 85.5,-69.47 85.5,-67 85.5,-62.95 77.14,-61.25 67.68,-61.88"/><polygon fill="#9a32cd" stroke="#9a32cd" points="77.56 -68.3 67.68 -72.12 77.79 -75.3 77.56 -68.3"/><text x="111.5" y="-64.5" font-family="Helvetica,sans-Serif" font-size="10" text-anchor="middle">GlobalList</text></g></g></svg>