<svg xmlns="http://www.w3.org/2000/svg" xmlns:xlink="http://www.w3.org/1999/xlink" width="425pt" height="392" viewBox="0 0 425 294"><g id="graph0" class="graph" transform="scale(1 1) rotate(0) translate(4 290)"><title>pkgIndexFile::Type</title><polygon fill="#fff" stroke="transparent" points="-4 4 -4 -290 421 -290 421 4 -4 4"/><g id="node1" class="node"><title>Node1</title><g id="a_node1"><a><polygon fill="#bfbfbf" stroke="#000" points="0 -133.5 0 -152.5 107 -152.5 107 -133.5 0 -133.5"/><text x="53.5" y="-140.5" font-family="Helvetica,sans-Serif" font-size="10" text-anchor="middle">pkgIndexFile::Type</text></a></g></g><g id="node2" class="node"><title>Node2</title><g id="a_node2"><a target="_top" xlink:href="classdebIFTypeDebPkgFile.xhtml"><polygon fill="#fff" stroke="#000" points="156.5 -266.5 156.5 -285.5 276.5 -285.5 276.5 -266.5 156.5 -266.5"/><text x="216.5" y="-273.5" font-family="Helvetica,sans-Serif" font-size="10" text-anchor="middle">debIFTypeDebPkgFile</text></a></g></g><g id="edge1" class="edge"><title>Node1-&gt;Node2</title><path fill="none" stroke="#191970" d="M63.9,-161.7C77.71,-187.2 105.9,-232.51 143,-257 148.86,-260.87 155.48,-263.95 162.27,-266.41"/><polygon fill="#191970" stroke="#191970" points="66.92 -159.91 59.18 -152.68 60.72 -163.16 66.92 -159.91"/></g><g id="node3" class="node"><title>Node3</title><g id="a_node3"><a target="_top" xlink:href="classdebIFTypeDebianSourceDir.xhtml"><polygon fill="#fff" stroke="#000" points="143 -228.5 143 -247.5 290 -247.5 290 -228.5 143 -228.5"/><text x="216.5" y="-235.5" font-family="Helvetica,sans-Serif" font-size="10" text-anchor="middle">debIFTypeDebianSourceDir</text></a></g></g><g id="edge2" class="edge"><title>Node1-&gt;Node3</title><path fill="none" stroke="#191970" d="M70.18,-160.47C86.67,-177.8 114.18,-203.89 143,-219 150.38,-222.87 158.59,-225.99 166.77,-228.49"/><polygon fill="#191970" stroke="#191970" points="72.38 -157.7 63.01 -152.75 67.25 -162.46 72.38 -157.7"/></g><g id="node4" class="node"><title>Node4</title><g id="a_node4"><a target="_top" xlink:href="classdebIFTypeDscFile.xhtml"><polygon fill="#fff" stroke="#000" points="166 -190.5 166 -209.5 267 -209.5 267 -190.5 166 -190.5"/><text x="216.5" y="-197.5" font-family="Helvetica,sans-Serif" font-size="10" text-anchor="middle">debIFTypeDscFile</text></a></g></g><g id="edge3" class="edge"><title>Node1-&gt;Node4</title><path fill="none" stroke="#191970" d="M83.94,-156.95C100.96,-164.68 122.91,-174.1 143,-181 153.09,-184.47 164.16,-187.66 174.54,-190.4"/><polygon fill="#191970" stroke="#191970" points="85.1 -153.63 74.55 -152.63 82.17 -159.99 85.1 -153.63"/></g><g id="node5" class="node"><title>Node5</title><g id="a_node5"><a target="_top" xlink:href="classdebIFTypePkg.xhtml"><polygon fill="#fff" stroke="#000" points="175 -152.5 175 -171.5 258 -171.5 258 -152.5 175 -152.5"/><text x="216.5" y="-159.5" font-family="Helvetica,sans-Serif" font-size="10" text-anchor="middle">debIFTypePkg</text></a></g></g><g id="edge4" class="edge"><title>Node1-&gt;Node5</title><path fill="none" stroke="#191970" d="M117.2,-150.4C136.6,-152.69 157.44,-155.15 174.92,-157.21"/><polygon fill="#191970" stroke="#191970" points="117.56 -146.92 107.22 -149.22 116.74 -153.87 117.56 -146.92"/></g><g id="node7" class="node"><title>Node7</title><g id="a_node7"><a target="_top" xlink:href="classdebIFTypeSrc.xhtml"><polygon fill="#fff" stroke="#000" points="176.5 -114.5 176.5 -133.5 256.5 -133.5 256.5 -114.5 176.5 -114.5"/><text x="216.5" y="-121.5" font-family="Helvetica,sans-Serif" font-size="10" text-anchor="middle">debIFTypeSrc</text></a></g></g><g id="edge6" class="edge"><title>Node1-&gt;Node7</title><path fill="none" stroke="#191970" d="M117.18,-135.6C137.15,-133.25 158.66,-130.71 176.46,-128.61"/><polygon fill="#191970" stroke="#191970" points="116.74 -132.13 107.22 -136.78 117.56 -139.08 116.74 -132.13"/></g><g id="node8" class="node"><title>Node8</title><g id="a_node8"><a target="_top" xlink:href="classdebIFTypeStatus.xhtml"><polygon fill="#fff" stroke="#000" points="168.5 -76.5 168.5 -95.5 264.5 -95.5 264.5 -76.5 168.5 -76.5"/><text x="216.5" y="-83.5" font-family="Helvetica,sans-Serif" font-size="10" text-anchor="middle">debIFTypeStatus</text></a></g></g><g id="edge7" class="edge"><title>Node1-&gt;Node8</title><path fill="none" stroke="#191970" d="M83.94,-129.05C100.96,-121.32 122.91,-111.9 143,-105 153.09,-101.53 164.16,-98.34 174.54,-95.6"/><polygon fill="#191970" stroke="#191970" points="82.17 -126.01 74.55 -133.37 85.1 -132.37 82.17 -126.01"/></g><g id="node9" class="node"><title>Node9</title><g id="a_node9"><a target="_top" xlink:href="classedspIFType.xhtml"><polygon fill="#fff" stroke="#000" points="181 -38.5 181 -57.5 252 -57.5 252 -38.5 181 -38.5"/><text x="216.5" y="-45.5" font-family="Helvetica,sans-Serif" font-size="10" text-anchor="middle">edspIFType</text></a></g></g><g id="edge8" class="edge"><title>Node1-&gt;Node9</title><path fill="none" stroke="#191970" d="M70.18,-125.53C86.67,-108.2 114.18,-82.11 143,-67 154.64,-60.9 168.38,-56.65 180.75,-53.75"/><polygon fill="#191970" stroke="#191970" points="67.25 -123.54 63.01 -133.25 72.38 -128.3 67.25 -123.54"/></g><g id="node10" class="node"><title>Node10</title><g id="a_node10"><a target="_top" xlink:href="classeippIFType.xhtml"><polygon fill="#fff" stroke="#000" points="182.5 -.5 182.5 -19.5 250.5 -19.5 250.5 -.5 182.5 -.5"/><text x="216.5" y="-7.5" font-family="Helvetica,sans-Serif" font-size="10" text-anchor="middle">eippIFType</text></a></g></g><g id="edge9" class="edge"><title>Node1-&gt;Node10</title><path fill="none" stroke="#191970" d="M63.9,-124.3C77.71,-98.8 105.9,-53.49 143,-29 154.62,-21.33 169.19,-16.75 182.22,-14.02"/><polygon fill="#191970" stroke="#191970" points="60.72 -122.84 59.18 -133.32 66.92 -126.09 60.72 -122.84"/></g><g id="node6" class="node"><title>Node6</title><g id="a_node6"><a target="_top" xlink:href="classdebIFTypeTrans.xhtml"><polygon fill="#fff" stroke="#000" points="326 -152.5 326 -171.5 417 -171.5 417 -152.5 326 -152.5"/><text x="371.5" y="-159.5" font-family="Helvetica,sans-Serif" font-size="10" text-anchor="middle">debIFTypeTrans</text></a></g></g><g id="edge5" class="edge"><title>Node5-&gt;Node6</title><path fill="none" stroke="#191970" d="M268.2,-162C286.87,-162 307.85,-162 325.94,-162"/><polygon fill="#191970" stroke="#191970" points="268.1 -158.5 258.1 -162 268.1 -165.5 268.1 -158.5"/></g></g></svg>