<svg xmlns="http://www.w3.org/2000/svg" xmlns:xlink="http://www.w3.org/1999/xlink" width="121pt" height="140pt" viewBox="0 0 121 140"><g id="graph0" class="graph" transform="scale(1 1) rotate(0) translate(4 136)"><title>debStatusListParser</title><polygon fill="#fff" stroke="transparent" points="-4 4 -4 -136 117 -136 117 4 -4 4"/><g id="node1" class="node"><title>Node1</title><g id="a_node1"><a><polygon fill="#bfbfbf" stroke="#000" points="0 -.5 0 -19.5 113 -19.5 113 -.5 0 -.5"/><text x="56.5" y="-7.5" font-family="Helvetica,sans-Serif" font-size="10" text-anchor="middle">debStatusListParser</text></a></g></g><g id="node2" class="node"><title>Node2</title><g id="a_node2"><a target="_top" xlink:href="classdebListParser.xhtml"><polygon fill="#fff" stroke="#000" points="15.5 -56.5 15.5 -75.5 97.5 -75.5 97.5 -56.5 15.5 -56.5"/><text x="56.5" y="-63.5" font-family="Helvetica,sans-Serif" font-size="10" text-anchor="middle">debListParser</text></a></g></g><g id="edge1" class="edge"><title>Node2-&gt;Node1</title><path fill="none" stroke="#191970" d="M56.5,-45.8C56.5,-36.91 56.5,-26.78 56.5,-19.75"/><polygon fill="#191970" stroke="#191970" points="53 -46.08 56.5 -56.08 60 -46.08 53 -46.08"/></g><g id="node3" class="node"><title>Node3</title><g id="a_node3"><a target="_top" xlink:href="classpkgCacheListParser.xhtml"><polygon fill="#fff" stroke="#000" points=".5 -112.5 .5 -131.5 112.5 -131.5 112.5 -112.5 .5 -112.5"/><text x="56.5" y="-119.5" font-family="Helvetica,sans-Serif" font-size="10" text-anchor="middle">pkgCacheListParser</text></a></g></g><g id="edge2" class="edge"><title>Node3-&gt;Node2</title><path fill="none" stroke="#191970" d="M56.5,-101.8C56.5,-92.91 56.5,-82.78 56.5,-75.75"/><polygon fill="#191970" stroke="#191970" points="53 -102.08 56.5 -112.08 60 -102.08 53 -102.08"/></g></g></svg>