<?xml version="1.0" encoding="UTF-8" standalone="no"?>
<!DOCTYPE svg PUBLIC "-//W3C//DTD SVG 1.1//EN"
 "http://www.w3.org/Graphics/SVG/1.1/DTD/svg11.dtd">
<!-- Generated by graphviz version 2.43.0 (0)
 -->
<!-- Title: pkgAcqMetaIndex Pages: 1 -->
<svg width="709pt" height="710pt"
 viewBox="0.00 0.00 708.50 710.00" xmlns="http://www.w3.org/2000/svg" xmlns:xlink="http://www.w3.org/1999/xlink">
<g id="graph0" class="graph" transform="scale(1 1) rotate(0) translate(4 706)">
<title>pkgAcqMetaIndex</title>
<polygon fill="white" stroke="transparent" points="-4,4 -4,-706 704.5,-706 704.5,4 -4,4"/>
<!-- Node1 -->
<g id="node1" class="node">
<title>Node1</title>
<g id="a_node1"><a xlink:title="An item that is responsible for downloading the meta&#45;index {{{ file (i.e., Release) itself and verify...">
<polygon fill="#bfbfbf" stroke="black" points="120,-290.5 120,-309.5 224,-309.5 224,-290.5 120,-290.5"/>
<text text-anchor="middle" x="172" y="-297.5" font-family="Helvetica,sans-Serif" font-size="10.00">pkgAcqMetaIndex</text>
</a>
</g>
</g>
<!-- Node9 -->
<g id="node9" class="node">
<title>Node9</title>
<g id="a_node9"><a xlink:href="classpkgAcqMetaClearSig.xhtml" target="_top" xlink:title="An item responsible for downloading clearsigned metaindexes {{{.">
<polygon fill="white" stroke="black" points="113,-212.5 113,-231.5 231,-231.5 231,-212.5 113,-212.5"/>
<text text-anchor="middle" x="172" y="-219.5" font-family="Helvetica,sans-Serif" font-size="10.00">pkgAcqMetaClearSig</text>
</a>
</g>
</g>
<!-- Node1&#45;&gt;Node9 -->
<g id="edge10" class="edge">
<title>Node1&#45;&gt;Node9</title>
<path fill="none" stroke="midnightblue" d="M172,-280.22C172,-264.7 172,-243.36 172,-231.62"/>
<polygon fill="midnightblue" stroke="midnightblue" points="168.5,-280.28 172,-290.28 175.5,-280.28 168.5,-280.28"/>
</g>
<!-- Node2 -->
<g id="node2" class="node">
<title>Node2</title>
<g id="a_node2"><a xlink:href="classpkgAcqMetaBase.xhtml" target="_top" xlink:title="the manager of a transaction">
<polygon fill="white" stroke="black" points="228.5,-0.5 228.5,-19.5 329.5,-19.5 329.5,-0.5 228.5,-0.5"/>
<text text-anchor="middle" x="279" y="-7.5" font-family="Helvetica,sans-Serif" font-size="10.00">pkgAcqMetaBase</text>
</a>
</g>
</g>
<!-- Node2&#45;&gt;Node1 -->
<g id="edge1" class="edge">
<title>Node2&#45;&gt;Node1</title>
<path fill="none" stroke="midnightblue" d="M295.42,-27.33C298.21,-30.68 300.89,-34.31 303,-38 313.07,-55.64 317,-61.19 317,-81.5 317,-223 317,-223 317,-223 317,-266.2 265.88,-284.89 224.35,-292.95"/>
<polygon fill="midnightblue" stroke="midnightblue" points="297.82,-24.77 288.49,-19.75 292.65,-29.49 297.82,-24.77"/>
</g>
<!-- Node3 -->
<g id="node3" class="node">
<title>Node3</title>
<g id="a_node3"><a xlink:href="classpkgAcqTransactionItem.xhtml" target="_top" xlink:title="baseclass for the indexes files to manage them all together">
<polygon fill="white" stroke="black" points="65.5,-145.5 65.5,-164.5 196.5,-164.5 196.5,-145.5 65.5,-145.5"/>
<text text-anchor="middle" x="131" y="-152.5" font-family="Helvetica,sans-Serif" font-size="10.00">pkgAcqTransactionItem</text>
</a>
</g>
</g>
<!-- Node3&#45;&gt;Node2 -->
<g id="edge2" class="edge">
<title>Node3&#45;&gt;Node2</title>
<path fill="none" stroke="midnightblue" d="M125.08,-135.62C120.18,-116.68 116.05,-87.14 130,-67 151.95,-35.31 194.22,-21.53 228.15,-15.55"/>
<polygon fill="midnightblue" stroke="midnightblue" points="121.77,-136.78 127.92,-145.4 128.49,-134.82 121.77,-136.78"/>
</g>
<!-- Node16 -->
<g id="node16" class="node">
<title>Node16</title>
<g id="a_node16"><a xlink:title=" ">
<polygon fill="white" stroke="#bfbfbf" points="139,-67.5 139,-97.5 289,-97.5 289,-67.5 139,-67.5"/>
<text text-anchor="start" x="147" y="-85.5" font-family="Helvetica,sans-Serif" font-size="10.00">vector&lt; pkgAcqTransaction</text>
<text text-anchor="middle" x="214" y="-74.5" font-family="Helvetica,sans-Serif" font-size="10.00">Item * &gt;</text>
</a>
</g>
</g>
<!-- Node3&#45;&gt;Node16 -->
<g id="edge22" class="edge">
<title>Node3&#45;&gt;Node16</title>
<path fill="none" stroke="#9a32cd" stroke-dasharray="5,2" d="M148.91,-138.78C163.32,-126.55 183.39,-109.5 197.43,-97.58"/>
<polygon fill="#9a32cd" stroke="#9a32cd" points="146.53,-136.21 141.18,-145.36 151.06,-141.55 146.53,-136.21"/>
<text text-anchor="middle" x="198.5" y="-119" font-family="Helvetica,sans-Serif" font-size="10.00"> elements</text>
</g>
<!-- Node4 -->
<g id="node4" class="node">
<title>Node4</title>
<g id="a_node4"><a xlink:title=" ">
<polygon fill="white" stroke="#bfbfbf" points="249.5,-212.5 249.5,-231.5 288.5,-231.5 288.5,-212.5 249.5,-212.5"/>
<text text-anchor="middle" x="269" y="-219.5" font-family="Helvetica,sans-Serif" font-size="10.00">Item</text>
</a>
</g>
</g>
<!-- Node4&#45;&gt;Node3 -->
<g id="edge3" class="edge">
<title>Node4&#45;&gt;Node3</title>
<path fill="none" stroke="midnightblue" d="M266.02,-202.25C264.01,-195.29 260.64,-187.91 255,-183 245.82,-175.01 221.46,-168.89 196.74,-164.51"/>
<polygon fill="midnightblue" stroke="midnightblue" points="262.68,-203.37 268.2,-212.42 269.53,-201.91 262.68,-203.37"/>
</g>
<!-- Node5 -->
<g id="node5" class="node">
<title>Node5</title>
<g id="a_node5"><a xlink:href="classIndexTarget.xhtml" target="_top" xlink:title="Information about an index file.">
<polygon fill="white" stroke="black" points="70,-363 70,-382 144,-382 144,-363 70,-363"/>
<text text-anchor="middle" x="107" y="-370" font-family="Helvetica,sans-Serif" font-size="10.00">IndexTarget</text>
</a>
</g>
</g>
<!-- Node5&#45;&gt;Node1 -->
<g id="edge24" class="edge">
<title>Node5&#45;&gt;Node1</title>
<path fill="none" stroke="#9a32cd" stroke-dasharray="5,2" d="M119.81,-355.01C126.48,-346.69 134.91,-336.57 143,-328 149.04,-321.59 156.29,-314.84 162.03,-309.7"/>
<polygon fill="#9a32cd" stroke="#9a32cd" points="117.04,-352.87 113.59,-362.88 122.53,-357.21 117.04,-352.87"/>
<text text-anchor="middle" x="190.5" y="-331" font-family="Helvetica,sans-Serif" font-size="10.00"> DetachedSigTarget</text>
</g>
<!-- Node5&#45;&gt;Node3 -->
<g id="edge4" class="edge">
<title>Node5&#45;&gt;Node3</title>
<path fill="none" stroke="#9a32cd" stroke-dasharray="5,2" d="M103.76,-352.75C99.2,-322.63 92.62,-261.8 104,-212 108.09,-194.11 118.65,-175.29 125.29,-164.66"/>
<polygon fill="#9a32cd" stroke="#9a32cd" points="100.32,-353.39 105.37,-362.7 107.23,-352.27 100.32,-353.39"/>
<text text-anchor="middle" x="115" y="-258.5" font-family="Helvetica,sans-Serif" font-size="10.00"> Target</text>
</g>
<!-- Node6 -->
<g id="node6" class="node">
<title>Node6</title>
<g id="a_node6"><a xlink:title=" ">
<polygon fill="white" stroke="#bfbfbf" points="123.5,-530 123.5,-560 242.5,-560 242.5,-530 123.5,-530"/>
<text text-anchor="start" x="131.5" y="-548" font-family="Helvetica,sans-Serif" font-size="10.00">map&lt; std::string, std</text>
<text text-anchor="middle" x="183" y="-537" font-family="Helvetica,sans-Serif" font-size="10.00">::string &gt;</text>
</a>
</g>
</g>
<!-- Node6&#45;&gt;Node5 -->
<g id="edge5" class="edge">
<title>Node6&#45;&gt;Node5</title>
<path fill="none" stroke="#9a32cd" stroke-dasharray="5,2" d="M172.47,-520.39C155.37,-482.02 122.31,-407.85 110.95,-382.36"/>
<polygon fill="#9a32cd" stroke="#9a32cd" points="169.38,-522.05 176.65,-529.76 175.78,-519.2 169.38,-522.05"/>
<text text-anchor="middle" x="184.5" y="-453" font-family="Helvetica,sans-Serif" font-size="10.00"> Options</text>
</g>
<!-- Node7 -->
<g id="node7" class="node">
<title>Node7</title>
<g id="a_node7"><a xlink:title=" ">
<polygon fill="white" stroke="#bfbfbf" points="249,-625.5 249,-644.5 293,-644.5 293,-625.5 249,-625.5"/>
<text text-anchor="middle" x="271" y="-632.5" font-family="Helvetica,sans-Serif" font-size="10.00">string</text>
</a>
</g>
</g>
<!-- Node7&#45;&gt;Node2 -->
<g id="edge23" class="edge">
<title>Node7&#45;&gt;Node2</title>
<path fill="none" stroke="#9a32cd" stroke-dasharray="5,2" d="M303.46,-634.19C371.55,-634.09 526.84,-631.14 573,-607 604.32,-590.62 624,-581.34 624,-546 624,-546 624,-546 624,-81.5 624,-22.12 425.36,-12.26 329.54,-10.96"/>
<polygon fill="#9a32cd" stroke="#9a32cd" points="303.31,-630.69 293.31,-634.18 303.31,-637.69 303.31,-630.69"/>
<text text-anchor="middle" x="646.5" y="-258.5" font-family="Helvetica,sans-Serif" font-size="10.00"> BaseURI</text>
</g>
<!-- Node7&#45;&gt;Node3 -->
<g id="edge20" class="edge">
<title>Node7&#45;&gt;Node3</title>
<path fill="none" stroke="#9a32cd" stroke-dasharray="5,2" d="M238.88,-631.94C189.97,-628.42 99.43,-620.33 70,-607 32.41,-589.98 0,-587.27 0,-546 0,-546 0,-546 0,-221 0,-188.63 32.49,-172.38 65.12,-164.22"/>
<polygon fill="#9a32cd" stroke="#9a32cd" points="238.71,-635.43 248.93,-632.64 239.19,-628.45 238.71,-635.43"/>
<text text-anchor="middle" x="26" y="-331" font-family="Helvetica,sans-Serif" font-size="10.00"> PartialFile</text>
</g>
<!-- Node7&#45;&gt;Node5 -->
<g id="edge8" class="edge">
<title>Node7&#45;&gt;Node5</title>
<path fill="none" stroke="#9a32cd" stroke-dasharray="5,2" d="M238.92,-634.82C190.12,-634.11 98.42,-624.65 56,-567 11.73,-506.84 77.79,-411.25 100.09,-382.17"/>
<polygon fill="#9a32cd" stroke="#9a32cd" points="238.92,-638.32 248.93,-634.85 238.95,-631.32 238.92,-638.32"/>
<text text-anchor="middle" x="85.5" y="-559" font-family="Helvetica,sans-Serif" font-size="10.00"> Description</text>
<text text-anchor="middle" x="85.5" y="-548" font-family="Helvetica,sans-Serif" font-size="10.00">MetaKey</text>
<text text-anchor="middle" x="85.5" y="-537" font-family="Helvetica,sans-Serif" font-size="10.00">ShortDesc</text>
<text text-anchor="middle" x="85.5" y="-526" font-family="Helvetica,sans-Serif" font-size="10.00">URI</text>
</g>
<!-- Node7&#45;&gt;Node6 -->
<g id="edge6" class="edge">
<title>Node7&#45;&gt;Node6</title>
<path fill="none" stroke="#9a32cd" stroke-dasharray="5,2" d="M238.97,-625.72C228.03,-621.58 216.44,-615.57 208,-607 195.24,-594.03 188.68,-573.64 185.55,-560.05"/>
<polygon fill="#9a32cd" stroke="#9a32cd" points="238.14,-629.13 248.73,-629.01 240.37,-622.5 238.14,-629.13"/>
<text text-anchor="middle" x="232.5" y="-599" font-family="Helvetica,sans-Serif" font-size="10.00"> elements</text>
<text text-anchor="middle" x="232.5" y="-588" font-family="Helvetica,sans-Serif" font-size="10.00">keys</text>
</g>
<!-- Node10 -->
<g id="node10" class="node">
<title>Node10</title>
<g id="a_node10"><a xlink:href="classmetaIndex.xhtml" target="_top" xlink:title=" ">
<polygon fill="white" stroke="black" points="315.5,-290.5 315.5,-309.5 384.5,-309.5 384.5,-290.5 315.5,-290.5"/>
<text text-anchor="middle" x="350" y="-297.5" font-family="Helvetica,sans-Serif" font-size="10.00">metaIndex</text>
</a>
</g>
</g>
<!-- Node7&#45;&gt;Node10 -->
<g id="edge14" class="edge">
<title>Node7&#45;&gt;Node10</title>
<path fill="none" stroke="#9a32cd" stroke-dasharray="5,2" d="M268.84,-615.5C262.81,-561.01 247.7,-402.07 271,-357 282.89,-334 309.06,-318.41 328.03,-309.63"/>
<polygon fill="#9a32cd" stroke="#9a32cd" points="265.37,-615.93 269.97,-625.47 272.32,-615.14 265.37,-615.93"/>
<text text-anchor="middle" x="294" y="-497" font-family="Helvetica,sans-Serif" font-size="10.00"> Codename</text>
<text text-anchor="middle" x="294" y="-486" font-family="Helvetica,sans-Serif" font-size="10.00">Dist</text>
<text text-anchor="middle" x="294" y="-475" font-family="Helvetica,sans-Serif" font-size="10.00">Label</text>
<text text-anchor="middle" x="294" y="-464" font-family="Helvetica,sans-Serif" font-size="10.00">Origin</text>
<text text-anchor="middle" x="294" y="-453" font-family="Helvetica,sans-Serif" font-size="10.00">ReleaseNotes</text>
<text text-anchor="middle" x="294" y="-442" font-family="Helvetica,sans-Serif" font-size="10.00">SignedBy</text>
<text text-anchor="middle" x="294" y="-431" font-family="Helvetica,sans-Serif" font-size="10.00">Suite</text>
<text text-anchor="middle" x="294" y="-420" font-family="Helvetica,sans-Serif" font-size="10.00">URI</text>
<text text-anchor="middle" x="294" y="-409" font-family="Helvetica,sans-Serif" font-size="10.00">Version</text>
</g>
<!-- Node13 -->
<g id="node13" class="node">
<title>Node13</title>
<g id="a_node13"><a xlink:title=" ">
<polygon fill="white" stroke="#bfbfbf" points="438.5,-357.5 438.5,-387.5 595.5,-387.5 595.5,-357.5 438.5,-357.5"/>
<text text-anchor="start" x="446.5" y="-375.5" font-family="Helvetica,sans-Serif" font-size="10.00">map&lt; std::string, metaIndex</text>
<text text-anchor="middle" x="517" y="-364.5" font-family="Helvetica,sans-Serif" font-size="10.00">::checkSum * &gt;</text>
</a>
</g>
</g>
<!-- Node7&#45;&gt;Node13 -->
<g id="edge16" class="edge">
<title>Node7&#45;&gt;Node13</title>
<path fill="none" stroke="#9a32cd" stroke-dasharray="5,2" d="M302.78,-622.97C330.64,-612.09 370.96,-593.27 399,-567 457.44,-512.26 497.53,-422.28 511.52,-387.67"/>
<polygon fill="#9a32cd" stroke="#9a32cd" points="301.25,-619.81 293.13,-626.62 303.72,-626.36 301.25,-619.81"/>
<text text-anchor="middle" x="450" y="-542.5" font-family="Helvetica,sans-Serif" font-size="10.00"> keys</text>
</g>
<!-- Node14 -->
<g id="node14" class="node">
<title>Node14</title>
<g id="a_node14"><a xlink:href="structmetaIndex_1_1checkSum.xhtml" target="_top" xlink:title=" ">
<polygon fill="white" stroke="black" points="483.5,-535.5 483.5,-554.5 550.5,-554.5 550.5,-535.5 483.5,-535.5"/>
<text text-anchor="middle" x="517" y="-542.5" font-family="Helvetica,sans-Serif" font-size="10.00">checkSum</text>
</a>
</g>
</g>
<!-- Node7&#45;&gt;Node14 -->
<g id="edge19" class="edge">
<title>Node7&#45;&gt;Node14</title>
<path fill="none" stroke="#9a32cd" stroke-dasharray="5,2" d="M303.13,-634.26C339.42,-633.39 399.49,-628.41 446,-607 473.16,-594.5 497.96,-568.45 509.76,-554.79"/>
<polygon fill="#9a32cd" stroke="#9a32cd" points="303.06,-630.76 293.11,-634.4 303.16,-637.76 303.06,-630.76"/>
<text text-anchor="middle" x="523.5" y="-593.5" font-family="Helvetica,sans-Serif" font-size="10.00"> MetaKeyFilename</text>
</g>
<!-- Node8 -->
<g id="node8" class="node">
<title>Node8</title>
<g id="a_node8"><a xlink:title=" ">
<polygon fill="white" stroke="#bfbfbf" points="211,-682.5 211,-701.5 331,-701.5 331,-682.5 211,-682.5"/>
<text text-anchor="middle" x="271" y="-689.5" font-family="Helvetica,sans-Serif" font-size="10.00">basic_string&lt; Char &gt;</text>
</a>
</g>
</g>
<!-- Node8&#45;&gt;Node7 -->
<g id="edge7" class="edge">
<title>Node8&#45;&gt;Node7</title>
<path fill="none" stroke="midnightblue" d="M271,-672.12C271,-662.82 271,-652.06 271,-644.71"/>
<polygon fill="midnightblue" stroke="midnightblue" points="267.5,-672.41 271,-682.41 274.5,-672.41 267.5,-672.41"/>
</g>
<!-- Node9&#45;&gt;Node3 -->
<g id="edge9" class="edge">
<title>Node9&#45;&gt;Node3</title>
<path fill="none" stroke="#9a32cd" stroke-dasharray="5,2" d="M159.51,-203.72C157.29,-200.53 155.04,-197.19 153,-194 146.67,-184.11 140,-172.37 135.68,-164.58"/>
<polygon fill="#9a32cd" stroke="#9a32cd" points="156.83,-206 165.46,-212.14 162.54,-201.95 156.83,-206"/>
<text text-anchor="middle" x="204" y="-186" font-family="Helvetica,sans-Serif" font-size="10.00"> TransactionManager</text>
</g>
<!-- Node10&#45;&gt;Node9 -->
<g id="edge11" class="edge">
<title>Node10&#45;&gt;Node9</title>
<path fill="none" stroke="#9a32cd" stroke-dasharray="5,2" d="M320.36,-286.34C283.98,-270.81 223.29,-244.9 192,-231.54"/>
<polygon fill="#9a32cd" stroke="#9a32cd" points="319.36,-289.72 329.93,-290.43 322.1,-283.28 319.36,-289.72"/>
<text text-anchor="middle" x="335" y="-264" font-family="Helvetica,sans-Serif" font-size="10.00"> LastMetaIndexParser</text>
<text text-anchor="middle" x="335" y="-253" font-family="Helvetica,sans-Serif" font-size="10.00">MetaIndexParser</text>
</g>
<!-- Node11 -->
<g id="node11" class="node">
<title>Node11</title>
<g id="a_node11"><a xlink:title=" ">
<polygon fill="white" stroke="#bfbfbf" points="280,-363 280,-382 420,-382 420,-363 280,-363"/>
<text text-anchor="middle" x="350" y="-370" font-family="Helvetica,sans-Serif" font-size="10.00">vector&lt; pkgIndexFile * &gt;</text>
</a>
</g>
</g>
<!-- Node11&#45;&gt;Node10 -->
<g id="edge12" class="edge">
<title>Node11&#45;&gt;Node10</title>
<path fill="none" stroke="#9a32cd" stroke-dasharray="5,2" d="M350,-352.44C350,-338.53 350,-320.32 350,-309.72"/>
<polygon fill="#9a32cd" stroke="#9a32cd" points="346.5,-352.86 350,-362.86 353.5,-352.86 346.5,-352.86"/>
<text text-anchor="middle" x="370.5" y="-331" font-family="Helvetica,sans-Serif" font-size="10.00"> Indexes</text>
</g>
<!-- Node12 -->
<g id="node12" class="node">
<title>Node12</title>
<g id="a_node12"><a xlink:href="classpkgIndexFile.xhtml" target="_top" xlink:title=" ">
<polygon fill="white" stroke="black" points="310.5,-535.5 310.5,-554.5 389.5,-554.5 389.5,-535.5 310.5,-535.5"/>
<text text-anchor="middle" x="350" y="-542.5" font-family="Helvetica,sans-Serif" font-size="10.00">pkgIndexFile</text>
</a>
</g>
</g>
<!-- Node12&#45;&gt;Node11 -->
<g id="edge13" class="edge">
<title>Node12&#45;&gt;Node11</title>
<path fill="none" stroke="#9a32cd" stroke-dasharray="5,2" d="M350,-525.02C350,-488.33 350,-408.96 350,-382.38"/>
<polygon fill="#9a32cd" stroke="#9a32cd" points="346.5,-525.31 350,-535.31 353.5,-525.31 346.5,-525.31"/>
<text text-anchor="middle" x="374.5" y="-453" font-family="Helvetica,sans-Serif" font-size="10.00"> elements</text>
</g>
<!-- Node13&#45;&gt;Node10 -->
<g id="edge15" class="edge">
<title>Node13&#45;&gt;Node10</title>
<path fill="none" stroke="#9a32cd" stroke-dasharray="5,2" d="M474.08,-353.38C440.68,-339.28 395.83,-320.35 370.21,-309.53"/>
<polygon fill="#9a32cd" stroke="#9a32cd" points="473.03,-356.74 483.61,-357.4 475.75,-350.29 473.03,-356.74"/>
<text text-anchor="middle" x="456.5" y="-331" font-family="Helvetica,sans-Serif" font-size="10.00"> Entries</text>
</g>
<!-- Node14&#45;&gt;Node13 -->
<g id="edge17" class="edge">
<title>Node14&#45;&gt;Node13</title>
<path fill="none" stroke="#9a32cd" stroke-dasharray="5,2" d="M517,-525.21C517,-490.77 517,-418.27 517,-387.64"/>
<polygon fill="#9a32cd" stroke="#9a32cd" points="513.5,-525.31 517,-535.31 520.5,-525.31 513.5,-525.31"/>
<text text-anchor="middle" x="541.5" y="-453" font-family="Helvetica,sans-Serif" font-size="10.00"> elements</text>
</g>
<!-- Node15 -->
<g id="node15" class="node">
<title>Node15</title>
<g id="a_node15"><a xlink:href="classHashStringList.xhtml" target="_top" xlink:title=" ">
<polygon fill="white" stroke="black" points="613.5,-625.5 613.5,-644.5 700.5,-644.5 700.5,-625.5 613.5,-625.5"/>
<text text-anchor="middle" x="657" y="-632.5" font-family="Helvetica,sans-Serif" font-size="10.00">HashStringList</text>
</a>
</g>
</g>
<!-- Node15&#45;&gt;Node14 -->
<g id="edge18" class="edge">
<title>Node15&#45;&gt;Node14</title>
<path fill="none" stroke="#9a32cd" stroke-dasharray="5,2" d="M636.76,-619.31C622.73,-609.31 603.5,-595.95 586,-585 568.27,-573.9 547.27,-562.23 533.13,-554.59"/>
<polygon fill="#9a32cd" stroke="#9a32cd" points="634.99,-622.35 645.16,-625.34 639.08,-616.67 634.99,-622.35"/>
<text text-anchor="middle" x="637" y="-593.5" font-family="Helvetica,sans-Serif" font-size="10.00"> Hashes</text>
</g>
<!-- Node16&#45;&gt;Node2 -->
<g id="edge21" class="edge">
<title>Node16&#45;&gt;Node2</title>
<path fill="none" stroke="#9a32cd" stroke-dasharray="5,2" d="M227.68,-58.86C232.42,-51.82 238.05,-44.27 244,-38 250.55,-31.09 258.96,-24.54 265.9,-19.62"/>
<polygon fill="#9a32cd" stroke="#9a32cd" points="224.67,-57.06 222.18,-67.36 230.55,-60.86 224.67,-57.06"/>
<text text-anchor="middle" x="273.5" y="-41" font-family="Helvetica,sans-Serif" font-size="10.00"> Transaction</text>
</g>
</g>
</svg>
