<svg xmlns="http://www.w3.org/2000/svg" xmlns:xlink="http://www.w3.org/1999/xlink" width="158pt" height="85pt" viewBox="0 0 157.5 85"><g id="graph0" class="graph" transform="scale(1 1) rotate(0) translate(4 81)"><title>debIFTypeDebPkgFile</title><polygon fill="#fff" stroke="transparent" points="-4 4 -4 -81 153.5 -81 153.5 4 -4 4"/><g id="node1" class="node"><title>Node1</title><g id="a_node1"><a><polygon fill="#bfbfbf" stroke="#000" points="0 -.5 0 -19.5 120 -19.5 120 -.5 0 -.5"/><text x="60" y="-7.5" font-family="Helvetica,sans-Serif" font-size="10" text-anchor="middle">debIFTypeDebPkgFile</text></a></g></g><g id="node2" class="node"><title>Node2</title><g id="a_node2"><a target="_top" xlink:href="classpkgIndexFile_1_1Type.xhtml"><polygon fill="#fff" stroke="#000" points="40.5 -57.5 40.5 -76.5 79.5 -76.5 79.5 -57.5 40.5 -57.5"/><text x="60" y="-64.5" font-family="Helvetica,sans-Serif" font-size="10" text-anchor="middle">Type</text></a></g></g><g id="edge1" class="edge"><title>Node2-&gt;Node1</title><path fill="none" stroke="#191970" d="M60,-47.12C60,-37.82 60,-27.06 60,-19.71"/><polygon fill="#191970" stroke="#191970" points="56.5 -47.41 60 -57.41 63.5 -47.41 56.5 -47.41"/></g><g id="edge2" class="edge"><title>Node2-&gt;Node2</title><path fill="none" stroke="#9a32cd" stroke-dasharray="5 2" d="M89.83,-71.79C94.4,-71.06 97.5,-69.47 97.5,-67 97.5,-62.95 89.14,-61.25 79.68,-61.88"/><polygon fill="#9a32cd" stroke="#9a32cd" points="89.56 -68.3 79.68 -72.12 89.79 -75.3 89.56 -68.3"/><text x="123.5" y="-64.5" font-family="Helvetica,sans-Serif" font-size="10" text-anchor="middle">GlobalList</text></g></g></svg>