<svg xmlns="http://www.w3.org/2000/svg" xmlns:xlink="http://www.w3.org/1999/xlink" id="main" onload="init(evt)" version="1.1" xml:space="preserve"><style type="text/css">.edge:hover path{stroke:red}.edge:hover polygon{stroke:red;fill:red}</style><script type="text/javascript"><![CDATA[
var edges = document.getElementsByTagName('g');
if (edges && edges.length) {
  for (var i=0;i<edges.length;i++) {
    if (edges[i].id.substr(0,4)=='edge') {
      edges[i].setAttribute('class','edge');
    }
  }
}
]]></script><defs><circle id="rim" cx="0" cy="0" r="7"/><circle id="rim2" cx="0" cy="0" r="3.5"/><g id="zoomPlus"><use fill="#404040" xlink:href="#rim"><set attributeName="fill" begin="zoomplus.mouseover" end="zoomplus.mouseout" to="#808080"/></use><path fill="none" stroke="#fff" stroke-width="1.5" d="M-4,0h8M0,-4v8" pointer-events="none"/></g><g id="zoomMin"><use fill="#404040" xlink:href="#rim"><set attributeName="fill" begin="zoomminus.mouseover" end="zoomminus.mouseout" to="#808080"/></use><path fill="none" stroke="#fff" stroke-width="1.5" d="M-4,0h8" pointer-events="none"/></g><g id="dirArrow"><path fill="none" stroke="#fff" stroke-width="1.5" d="M0,-3.0v7 M-2.5,-0.5L0,-3.0L2.5,-0.5"/></g><g id="resetDef"><use fill="#404040" xlink:href="#rim2"><set attributeName="fill" begin="reset.mouseover" end="reset.mouseout" to="#808080"/></use></g></defs><script type="text/javascript">var viewWidth = 562; var viewHeight = 132; var sectionId = &apos;dynsection-1&apos;;</script><script xlink:href="svgpan.js"/><svg id="graph" class="graph"><g id="viewport"><title>Container_iterator&lt; Interface, Container, Master &gt;</title><polygon fill="#fff" stroke="transparent" points="-4 4 -4 -128 558 -128 558 4 -4 4"/><g id="node1" class="node"><title>Node1</title><g id="a_node1"><a><polygon fill="#bfbfbf" stroke="#000" points="426 -41 426 -82 554 -82 554 -41 426 -41"/><text x="434" y="-70" font-family="Helvetica,sans-Serif" font-size="10" text-anchor="start">Container_iterator</text><text x="434" y="-59" font-family="Helvetica,sans-Serif" font-size="10" text-anchor="start">&lt; Interface, Container,</text><text x="490" y="-48" font-family="Helvetica,sans-Serif" font-size="10" text-anchor="middle">Master &gt;</text></a></g></g><g id="node2" class="node"><title>Node2</title><g id="a_node2"><a target="_top" xlink:href="classAPT_1_1Container__iterator__base.xhtml"><polygon fill="#fff" stroke="#000" points="207 -30 207 -93 390 -93 390 -30 207 -30"/><text x="215" y="-81" font-family="Helvetica,sans-Serif" font-size="10" text-anchor="start">Container_iterator</text><text x="215" y="-70" font-family="Helvetica,sans-Serif" font-size="10" text-anchor="start">_base&lt; Interface, Master,</text><text x="215" y="-59" font-family="Helvetica,sans-Serif" font-size="10" text-anchor="start">Container_iterator&lt; Interface,</text><text x="215" y="-48" font-family="Helvetica,sans-Serif" font-size="10" text-anchor="start">Container, Master &gt;, Container</text><text x="298.5" y="-37" font-family="Helvetica,sans-Serif" font-size="10" text-anchor="middle">::iterator, Container::value_type &gt;</text></a></g></g><g id="edge1" class="edge"><title>Node2-&gt;Node1</title><path fill="none" stroke="#191970" d="M400.29,-61.5C408.97,-61.5 417.58,-61.5 425.83,-61.5"/><polygon fill="#191970" stroke="#191970" points="400.09 -58 390.09 -61.5 400.09 -65 400.09 -58"/></g><g id="node3" class="node"><title>Node3</title><g id="a_node3"><a><polygon fill="#fff" stroke="#bfbfbf" points="0 -71.5 0 -123.5 171 -123.5 171 -71.5 0 -71.5"/><text x="8" y="-111.5" font-family="Helvetica,sans-Serif" font-size="10" text-anchor="start">iterator&lt; std::iterator</text><text x="8" y="-100.5" font-family="Helvetica,sans-Serif" font-size="10" text-anchor="start">_traits&lt; Container::iterator</text><text x="8" y="-89.5" font-family="Helvetica,sans-Serif" font-size="10" text-anchor="start">&gt;::iterator_category, Container</text><text x="85.5" y="-78.5" font-family="Helvetica,sans-Serif" font-size="10" text-anchor="middle">::value_type &gt;</text></a></g></g><g id="edge2" class="edge"><title>Node3-&gt;Node2</title><path fill="none" stroke="#191970" d="M181.04,-81.37C189.56,-79.92 198.17,-78.45 206.65,-77"/><polygon fill="#191970" stroke="#191970" points="180.37 -77.93 171.11 -83.06 181.55 -84.83 180.37 -77.93"/></g><g id="node4" class="node"><title>Node4</title><g id="a_node4"><a><polygon fill="#fff" stroke="#bfbfbf" points="21.5 -.5 21.5 -52.5 149.5 -52.5 149.5 -.5 21.5 -.5"/><text x="29.5" y="-40.5" font-family="Helvetica,sans-Serif" font-size="10" text-anchor="start">template iterator_base</text><text x="29.5" y="-29.5" font-family="Helvetica,sans-Serif" font-size="10" text-anchor="start">&lt; Container_iterator&lt;</text><text x="29.5" y="-18.5" font-family="Helvetica,sans-Serif" font-size="10" text-anchor="start">Interface, Container,</text><text x="85.5" y="-7.5" font-family="Helvetica,sans-Serif" font-size="10" text-anchor="middle">Master &gt; &gt;</text></a></g></g><g id="edge3" class="edge"><title>Node4-&gt;Node2</title><path fill="none" stroke="#191970" d="M159.82,-38.66C174.95,-41.17 191.05,-43.84 206.72,-46.44"/><polygon fill="#191970" stroke="#191970" points="159.96 -35.14 149.52 -36.95 158.81 -42.04 159.96 -35.14"/></g></g></svg><g id="navigator" fill="#404254" transform="translate(0 0)"><rect width="60" height="60" x="0" y="0" fill="#f2f5e9" fill-opacity=".5" stroke="#606060" stroke-width=".5"/><use id="zoomplus" x="17" y="9" onmousedown="handleZoom(evt,'in')" xlink:href="#zoomPlus"/><use id="zoomminus" x="42" y="9" onmousedown="handleZoom(evt,'out')" xlink:href="#zoomMin"/><use id="reset" x="30" y="36" onmousedown="handleReset()" xlink:href="#resetDef"/><g id="arrowUp" onmousedown="handlePan(0,-1)" transform="translate(30 24)" xlink:href="#dirArrow"><use fill="#404040" xlink:href="#rim"><set attributeName="fill" begin="arrowUp.mouseover" end="arrowUp.mouseout" to="#808080"/></use><path fill="none" stroke="#fff" stroke-width="1.5" d="M0,-3.0v7 M-2.5,-0.5L0,-3.0L2.5,-0.5"/></g><g id="arrowRight" onmousedown="handlePan(1,0)" transform="rotate(90) translate(36 -43)" xlink:href="#dirArrow"><use fill="#404040" xlink:href="#rim"><set attributeName="fill" begin="arrowRight.mouseover" end="arrowRight.mouseout" to="#808080"/></use><path fill="none" stroke="#fff" stroke-width="1.5" d="M0,-3.0v7 M-2.5,-0.5L0,-3.0L2.5,-0.5"/></g><g id="arrowDown" onmousedown="handlePan(0,1)" transform="rotate(180) translate(-30 -48)" xlink:href="#dirArrow"><use fill="#404040" xlink:href="#rim"><set attributeName="fill" begin="arrowDown.mouseover" end="arrowDown.mouseout" to="#808080"/></use><path fill="none" stroke="#fff" stroke-width="1.5" d="M0,-3.0v7 M-2.5,-0.5L0,-3.0L2.5,-0.5"/></g><g id="arrowLeft" onmousedown="handlePan(-1,0)" transform="rotate(270) translate(-36 17)" xlink:href="#dirArrow"><use fill="#404040" xlink:href="#rim"><set attributeName="fill" begin="arrowLeft.mouseover" end="arrowLeft.mouseout" to="#808080"/></use><path fill="none" stroke="#fff" stroke-width="1.5" d="M0,-3.0v7 M-2.5,-0.5L0,-3.0L2.5,-0.5"/></g></g><svg width="100%" height="30" preserveAspectRatio="xMaxYMin meet" viewBox="0 0 15 15"><g id="arrow_out" transform="scale(0.3 0.3)"><a target="_base" xlink:href="classAPT_1_1Container__iterator__coll__graph_org.svg"><rect id="button" width="38" height="38" x="6" y="6" fill="#f2f5e9" fill-opacity=".5" stroke="#606060" stroke-width="1" rx="5" ry="5"/><path id="arrow" d="M 11.500037,31.436501 C 11.940474,20.09759 22.043105,11.32322 32.158766,21.979434 L 37.068811,17.246167 C 37.068811,17.246167 37.088388,32 37.088388,32 L 22.160133,31.978069 C 22.160133,31.978069 26.997745,27.140456 26.997745,27.140456 C 18.528582,18.264221 13.291696,25.230495 11.500037,31.436501 z" style="fill:#404040"/></a></g></svg></svg>