<svg xmlns="http://www.w3.org/2000/svg" xmlns:xlink="http://www.w3.org/1999/xlink" width="400" height="112" viewBox="0 0 299.5 84"><g id="graph0" class="graph" transform="scale(1 1) rotate(0) translate(4 80)"><title>PackageContainerInterface</title><polygon fill="#fff" stroke="transparent" points="-4 4 -4 -80 295.5 -80 295.5 4 -4 4"/><g id="node1" class="node"><title>Node1</title><g id="a_node1"><a><polygon fill="#bfbfbf" stroke="#000" points="90 -56.5 90 -75.5 237 -75.5 237 -56.5 90 -56.5"/><text x="163.5" y="-63.5" font-family="Helvetica,sans-Serif" font-size="10" text-anchor="middle">PackageContainerInterface</text></a></g></g><g id="node2" class="node"><title>Node2</title><g id="a_node2"><a target="_top" xlink:href="classAPT_1_1PackageContainer.xhtml"><polygon fill="#fff" stroke="#000" points="0 -.5 0 -19.5 173 -19.5 173 -.5 0 -.5"/><text x="86.5" y="-7.5" font-family="Helvetica,sans-Serif" font-size="10" text-anchor="middle">PackageContainer&lt; Container &gt;</text></a></g></g><g id="edge1" class="edge"><title>Node1-&gt;Node2</title><path fill="none" stroke="#191970" d="M142.6,-50.34C128.59,-40.52 110.62,-27.91 98.84,-19.65"/><polygon fill="#191970" stroke="#191970" points="140.93 -53.45 151.13 -56.32 144.95 -47.72 140.93 -53.45"/></g><g id="node3" class="node"><title>Node3</title><g id="a_node3"><a target="_top" xlink:href="classAPT_1_1PackageUniverse.xhtml"><polygon fill="#fff" stroke="#000" points="191.5 -.5 191.5 -19.5 291.5 -19.5 291.5 -.5 191.5 -.5"/><text x="241.5" y="-7.5" font-family="Helvetica,sans-Serif" font-size="10" text-anchor="middle">PackageUniverse</text></a></g></g><g id="edge2" class="edge"><title>Node1-&gt;Node3</title><path fill="none" stroke="#191970" d="M184.27,-50.62C198.52,-40.76 216.96,-27.99 229,-19.65"/><polygon fill="#191970" stroke="#191970" points="182.26 -47.75 176.03 -56.32 186.25 -53.51 182.26 -47.75"/></g></g></svg>