<?xml version="1.0" encoding="UTF-8" standalone="no"?>
<!DOCTYPE svg PUBLIC "-//W3C//DTD SVG 1.1//EN"
 "http://www.w3.org/Graphics/SVG/1.1/DTD/svg11.dtd">
<!-- Generated by graphviz version 2.43.0 (0)
 -->
<!-- Title: debReleaseIndexPrivate Pages: 1 -->
<!--zoomable 164 -->
<svg id="main" version="1.1" xmlns="http://www.w3.org/2000/svg" xmlns:xlink="http://www.w3.org/1999/xlink" xml:space="preserve" onload="init(evt)">
<style type="text/css"><![CDATA[
.edge:hover path { stroke: red; }
.edge:hover polygon { stroke: red; fill: red; }
]]></style>
<script type="text/javascript"><![CDATA[
var edges = document.getElementsByTagName('g');
if (edges && edges.length) {
  for (var i=0;i<edges.length;i++) {
    if (edges[i].id.substr(0,4)=='edge') {
      edges[i].setAttribute('class','edge');
    }
  }
}
]]></script>
        <defs>
                <circle id="rim" cx="0" cy="0" r="7"/>
                <circle id="rim2" cx="0" cy="0" r="3.5"/>
                <g id="zoomPlus">
                        <use xlink:href="#rim" fill="#404040">
                                <set attributeName="fill" to="#808080" begin="zoomplus.mouseover" end="zoomplus.mouseout"/>
                        </use>
                        <path d="M-4,0h8M0,-4v8" fill="none" stroke="white" stroke-width="1.5" pointer-events="none"/>
                </g>
                <g id="zoomMin">
                        <use xlink:href="#rim" fill="#404040">
                                <set attributeName="fill" to="#808080" begin="zoomminus.mouseover" end="zoomminus.mouseout"/>
                        </use>
                        <path d="M-4,0h8" fill="none" stroke="white" stroke-width="1.5" pointer-events="none"/>
                </g>
                <g id="dirArrow">
                        <path fill="none" stroke="white" stroke-width="1.5" d="M0,-3.0v7 M-2.5,-0.5L0,-3.0L2.5,-0.5"/>
                </g>
               <g id="resetDef">
                       <use xlink:href="#rim2" fill="#404040">
                               <set attributeName="fill" to="#808080" begin="reset.mouseover" end="reset.mouseout"/>
                       </use>
               </g>
        </defs>

<script type="text/javascript">
var viewWidth = 1229;
var viewHeight = 164;
var sectionId = 'dynsection-0';
</script>
<script xlink:href="svgpan.js"/>
<svg id="graph" class="graph">
<g id="viewport">
<title>debReleaseIndexPrivate</title>
<polygon fill="white" stroke="transparent" points="-4,4 -4,-159.5 1225,-159.5 1225,4 -4,4"/>
<!-- Node1 -->
<g id="node1" class="node">
<title>Node1</title>
<g id="a_node1"><a xlink:title=" ">
<polygon fill="#bfbfbf" stroke="black" points="1086,-40 1086,-59 1221,-59 1221,-40 1086,-40"/>
<text text-anchor="middle" x="1153.5" y="-47" font-family="Helvetica,sans-Serif" font-size="10.00">debReleaseIndexPrivate</text>
</a>
</g>
</g>
<!-- Node2 -->
<g id="node2" class="node">
<title>Node2</title>
<g id="a_node2"><a xlink:title=" ">
<polygon fill="white" stroke="#bfbfbf" points="804,-84.5 804,-114.5 981,-114.5 981,-84.5 804,-84.5"/>
<text text-anchor="start" x="812" y="-102.5" font-family="Helvetica,sans-Serif" font-size="10.00">vector&lt; debReleaseIndexPrivate</text>
<text text-anchor="middle" x="892.5" y="-91.5" font-family="Helvetica,sans-Serif" font-size="10.00">::debSectionEntry &gt;</text>
</a>
</g>
</g>
<!-- Node2&#45;&gt;Node1 -->
<g id="edge1" class="edge">
<title>Node2&#45;&gt;Node1</title>
<path fill="none" stroke="#9a32cd" stroke-dasharray="5,2" d="M981.13,-82.58C1021.78,-74.74 1068.6,-65.7 1103.01,-59.05"/>
<polygon fill="#9a32cd" stroke="#9a32cd" points="980.36,-79.17 971.21,-84.5 981.69,-86.04 980.36,-79.17"/>
<text text-anchor="middle" x="1033.5" y="-93.5" font-family="Helvetica,sans-Serif" font-size="10.00"> DebEntries</text>
<text text-anchor="middle" x="1033.5" y="-82.5" font-family="Helvetica,sans-Serif" font-size="10.00">DebSrcEntries</text>
</g>
<!-- Node3 -->
<g id="node3" class="node">
<title>Node3</title>
<g id="a_node3"><a xlink:href="structdebReleaseIndexPrivate_1_1debSectionEntry.xhtml" target="_top" xlink:title=" ">
<polygon fill="white" stroke="black" points="560,-96 560,-115 656,-115 656,-96 560,-96"/>
<text text-anchor="middle" x="608" y="-103" font-family="Helvetica,sans-Serif" font-size="10.00">debSectionEntry</text>
</a>
</g>
</g>
<!-- Node3&#45;&gt;Node2 -->
<g id="edge2" class="edge">
<title>Node3&#45;&gt;Node2</title>
<path fill="none" stroke="#9a32cd" stroke-dasharray="5,2" d="M666.52,-104.28C705.97,-103.44 759.06,-102.31 803.76,-101.36"/>
<polygon fill="#9a32cd" stroke="#9a32cd" points="666.21,-100.78 656.28,-104.5 666.36,-107.78 666.21,-100.78"/>
<text text-anchor="middle" x="730" y="-107.5" font-family="Helvetica,sans-Serif" font-size="10.00"> elements</text>
</g>
<!-- Node4 -->
<g id="node4" class="node">
<title>Node4</title>
<g id="a_node4"><a xlink:title=" ">
<polygon fill="white" stroke="#bfbfbf" points="157,-64 157,-83 201,-83 201,-64 157,-64"/>
<text text-anchor="middle" x="179" y="-71" font-family="Helvetica,sans-Serif" font-size="10.00">string</text>
</a>
</g>
</g>
<!-- Node4&#45;&gt;Node3 -->
<g id="edge3" class="edge">
<title>Node4&#45;&gt;Node3</title>
<path fill="none" stroke="#9a32cd" stroke-dasharray="5,2" d="M210.86,-86.11C213.58,-87 216.33,-87.81 219,-88.5 358.55,-124.4 398.41,-128.56 542,-116.5 547.82,-116.01 553.9,-115.28 559.9,-114.42"/>
<polygon fill="#9a32cd" stroke="#9a32cd" points="211.76,-82.72 201.17,-82.66 209.41,-89.31 211.76,-82.72"/>
<text text-anchor="middle" x="345.5" y="-147.5" font-family="Helvetica,sans-Serif" font-size="10.00"> Name</text>
<text text-anchor="middle" x="345.5" y="-136.5" font-family="Helvetica,sans-Serif" font-size="10.00">UseByHash</text>
<text text-anchor="middle" x="345.5" y="-125.5" font-family="Helvetica,sans-Serif" font-size="10.00">sourcesEntry</text>
</g>
<!-- Node6 -->
<g id="node6" class="node">
<title>Node6</title>
<g id="a_node6"><a xlink:title=" ">
<polygon fill="white" stroke="#bfbfbf" points="286,-64 286,-83 405,-83 405,-64 286,-64"/>
<text text-anchor="middle" x="345.5" y="-71" font-family="Helvetica,sans-Serif" font-size="10.00">vector&lt; std::string &gt;</text>
</a>
</g>
</g>
<!-- Node4&#45;&gt;Node6 -->
<g id="edge6" class="edge">
<title>Node4&#45;&gt;Node6</title>
<path fill="none" stroke="#9a32cd" stroke-dasharray="5,2" d="M211.45,-73.5C232.49,-73.5 260.81,-73.5 285.92,-73.5"/>
<polygon fill="#9a32cd" stroke="#9a32cd" points="211.17,-70 201.17,-73.5 211.17,-77 211.17,-70"/>
<text text-anchor="middle" x="243.5" y="-76.5" font-family="Helvetica,sans-Serif" font-size="10.00"> elements</text>
</g>
<!-- Node7 -->
<g id="node7" class="node">
<title>Node7</title>
<g id="a_node7"><a xlink:title=" ">
<polygon fill="white" stroke="#bfbfbf" points="423,-0.5 423,-30.5 542,-30.5 542,-0.5 423,-0.5"/>
<text text-anchor="start" x="431" y="-18.5" font-family="Helvetica,sans-Serif" font-size="10.00">map&lt; std::string, std</text>
<text text-anchor="middle" x="482.5" y="-7.5" font-family="Helvetica,sans-Serif" font-size="10.00">::string &gt;</text>
</a>
</g>
</g>
<!-- Node4&#45;&gt;Node7 -->
<g id="edge8" class="edge">
<title>Node4&#45;&gt;Node7</title>
<path fill="none" stroke="#9a32cd" stroke-dasharray="5,2" d="M199.26,-58.09C205.27,-54.01 212.13,-50.04 219,-47.5 285.95,-22.71 368.42,-16.23 422.85,-14.96"/>
<polygon fill="#9a32cd" stroke="#9a32cd" points="197.18,-55.28 191.16,-63.99 201.31,-60.93 197.18,-55.28"/>
<text text-anchor="middle" x="243.5" y="-61.5" font-family="Helvetica,sans-Serif" font-size="10.00"> elements</text>
<text text-anchor="middle" x="243.5" y="-50.5" font-family="Helvetica,sans-Serif" font-size="10.00">keys</text>
</g>
<!-- Node5 -->
<g id="node5" class="node">
<title>Node5</title>
<g id="a_node5"><a xlink:title=" ">
<polygon fill="white" stroke="#bfbfbf" points="0,-64 0,-83 120,-83 120,-64 0,-64"/>
<text text-anchor="middle" x="60" y="-71" font-family="Helvetica,sans-Serif" font-size="10.00">basic_string&lt; Char &gt;</text>
</a>
</g>
</g>
<!-- Node5&#45;&gt;Node4 -->
<g id="edge4" class="edge">
<title>Node5&#45;&gt;Node4</title>
<path fill="none" stroke="midnightblue" d="M130.3,-73.5C139.91,-73.5 149.12,-73.5 156.84,-73.5"/>
<polygon fill="midnightblue" stroke="midnightblue" points="130.19,-70 120.19,-73.5 130.19,-77 130.19,-70"/>
</g>
<!-- Node6&#45;&gt;Node1 -->
<g id="edge9" class="edge">
<title>Node6&#45;&gt;Node1</title>
<path fill="none" stroke="#9a32cd" stroke-dasharray="5,2" d="M415.38,-69.82C417.95,-69.71 420.5,-69.6 423,-69.5 667.17,-59.77 957.51,-53.35 1085.85,-50.77"/>
<polygon fill="#9a32cd" stroke="#9a32cd" points="415.21,-66.32 405.38,-70.27 415.53,-73.31 415.21,-66.32"/>
<text text-anchor="middle" x="730" y="-86.5" font-family="Helvetica,sans-Serif" font-size="10.00"> Architectures</text>
<text text-anchor="middle" x="730" y="-75.5" font-family="Helvetica,sans-Serif" font-size="10.00">NoSupportForAll</text>
<text text-anchor="middle" x="730" y="-64.5" font-family="Helvetica,sans-Serif" font-size="10.00">SupportedComponents</text>
</g>
<!-- Node6&#45;&gt;Node3 -->
<g id="edge5" class="edge">
<title>Node6&#45;&gt;Node3</title>
<path fill="none" stroke="#9a32cd" stroke-dasharray="5,2" d="M415.53,-72.42C453.21,-72.99 500.5,-75.57 542,-83.5 556.28,-86.23 571.71,-91.35 583.95,-95.97"/>
<polygon fill="#9a32cd" stroke="#9a32cd" points="415.21,-68.92 405.17,-72.32 415.13,-75.92 415.21,-68.92"/>
<text text-anchor="middle" x="482.5" y="-108.5" font-family="Helvetica,sans-Serif" font-size="10.00"> Architectures</text>
<text text-anchor="middle" x="482.5" y="-97.5" font-family="Helvetica,sans-Serif" font-size="10.00">Languages</text>
<text text-anchor="middle" x="482.5" y="-86.5" font-family="Helvetica,sans-Serif" font-size="10.00">Targets</text>
</g>
<!-- Node7&#45;&gt;Node1 -->
<g id="edge7" class="edge">
<title>Node7&#45;&gt;Node1</title>
<path fill="none" stroke="#9a32cd" stroke-dasharray="5,2" d="M552.48,-14.23C662.09,-13.03 882.61,-13.95 1068,-35.5 1078.34,-36.7 1089.34,-38.29 1099.87,-39.97"/>
<polygon fill="#9a32cd" stroke="#9a32cd" points="552.18,-10.74 542.22,-14.36 552.27,-17.74 552.18,-10.74"/>
<text text-anchor="middle" x="730" y="-19.5" font-family="Helvetica,sans-Serif" font-size="10.00"> ReleaseOptions</text>
</g>
</g>
</svg>
        <g id="navigator" transform="translate(0 0)" fill="#404254">
                <rect fill="#f2f5e9" fill-opacity="0.5" stroke="#606060" stroke-width=".5" x="0" y="0" width="60" height="60"/>
                <use id="zoomplus" xlink:href="#zoomPlus" x="17" y="9" onmousedown="handleZoom(evt,'in')"/>
                <use id="zoomminus" xlink:href="#zoomMin" x="42" y="9" onmousedown="handleZoom(evt,'out')"/>
                <use id="reset" xlink:href="#resetDef" x="30" y="36" onmousedown="handleReset()"/>
                <g id="arrowUp" xlink:href="#dirArrow" transform="translate(30 24)" onmousedown="handlePan(0,-1)">
                  <use xlink:href="#rim" fill="#404040">
                        <set attributeName="fill" to="#808080" begin="arrowUp.mouseover" end="arrowUp.mouseout"/>
                  </use>
                  <path fill="none" stroke="white" stroke-width="1.5" d="M0,-3.0v7 M-2.5,-0.5L0,-3.0L2.5,-0.5"/>
                </g>
                <g id="arrowRight" xlink:href="#dirArrow" transform="rotate(90) translate(36 -43)" onmousedown="handlePan(1,0)">
                  <use xlink:href="#rim" fill="#404040">
                        <set attributeName="fill" to="#808080" begin="arrowRight.mouseover" end="arrowRight.mouseout"/>
                  </use>
                  <path fill="none" stroke="white" stroke-width="1.5" d="M0,-3.0v7 M-2.5,-0.5L0,-3.0L2.5,-0.5"/>
                </g>
                <g id="arrowDown" xlink:href="#dirArrow" transform="rotate(180) translate(-30 -48)" onmousedown="handlePan(0,1)">
                  <use xlink:href="#rim" fill="#404040">
                        <set attributeName="fill" to="#808080" begin="arrowDown.mouseover" end="arrowDown.mouseout"/>
                  </use>
                  <path fill="none" stroke="white" stroke-width="1.5" d="M0,-3.0v7 M-2.5,-0.5L0,-3.0L2.5,-0.5"/>
                </g>
                <g id="arrowLeft" xlink:href="#dirArrow" transform="rotate(270) translate(-36 17)" onmousedown="handlePan(-1,0)">
                  <use xlink:href="#rim" fill="#404040">
                        <set attributeName="fill" to="#808080" begin="arrowLeft.mouseover" end="arrowLeft.mouseout"/>
                  </use>
                  <path fill="none" stroke="white" stroke-width="1.5" d="M0,-3.0v7 M-2.5,-0.5L0,-3.0L2.5,-0.5"/>
                </g>
        </g>
        <svg viewBox="0 0 15 15" width="100%" height="30px" preserveAspectRatio="xMaxYMin meet">
         <g id="arrow_out" transform="scale(0.3 0.3)">
          <a xlink:href="classdebReleaseIndexPrivate__coll__graph_org.svg" target="_base">
           <rect id="button" ry="5" rx="5" y="6" x="6" height="38" width="38"
                fill="#f2f5e9" fill-opacity="0.5" stroke="#606060" stroke-width="1.0"/>
           <path id="arrow"
             d="M 11.500037,31.436501 C 11.940474,20.09759 22.043105,11.32322 32.158766,21.979434 L 37.068811,17.246167 C 37.068811,17.246167 37.088388,32 37.088388,32 L 22.160133,31.978069 C 22.160133,31.978069 26.997745,27.140456 26.997745,27.140456 C 18.528582,18.264221 13.291696,25.230495 11.500037,31.436501 z"
             style="fill:#404040;"/>
          </a>
         </g>
        </svg>
</svg>
