<svg xmlns="http://www.w3.org/2000/svg" xmlns:xlink="http://www.w3.org/1999/xlink" width="125pt" height="140pt" viewBox="0 0 125 140"><g id="graph0" class="graph" transform="scale(1 1) rotate(0) translate(4 136)"><title>pkgDPkgPM</title><polygon fill="#fff" stroke="transparent" points="-4 4 -4 -136 121 -136 121 4 -4 4"/><g id="node1" class="node"><title>Node1</title><g id="a_node1"><a><polygon fill="#bfbfbf" stroke="#000" points="21 -.5 21 -19.5 96 -19.5 96 -.5 21 -.5"/><text x="58.5" y="-7.5" font-family="Helvetica,sans-Serif" font-size="10" text-anchor="middle">pkgDPkgPM</text></a></g></g><g id="node2" class="node"><title>Node2</title><g id="a_node2"><a target="_top" xlink:href="classpkgPackageManager.xhtml"><polygon fill="#fff" stroke="#000" points="0 -56.5 0 -75.5 117 -75.5 117 -56.5 0 -56.5"/><text x="58.5" y="-63.5" font-family="Helvetica,sans-Serif" font-size="10" text-anchor="middle">pkgPackageManager</text></a></g></g><g id="edge1" class="edge"><title>Node2-&gt;Node1</title><path fill="none" stroke="#191970" d="M58.5,-45.8C58.5,-36.91 58.5,-26.78 58.5,-19.75"/><polygon fill="#191970" stroke="#191970" points="55 -46.08 58.5 -56.08 62 -46.08 55 -46.08"/></g><g id="node3" class="node"><title>Node3</title><g id="a_node3"><a target="_top" xlink:href="classpkgCache_1_1Namespace.xhtml"><polygon fill="#fff" stroke="#000" points="21.5 -112.5 21.5 -131.5 95.5 -131.5 95.5 -112.5 21.5 -112.5"/><text x="58.5" y="-119.5" font-family="Helvetica,sans-Serif" font-size="10" text-anchor="middle">Namespace</text></a></g></g><g id="edge2" class="edge"><title>Node3-&gt;Node2</title><path fill="none" stroke="#006400" d="M58.5,-101.8C58.5,-92.91 58.5,-82.78 58.5,-75.75"/><polygon fill="#006400" stroke="#006400" points="55 -102.08 58.5 -112.08 62 -102.08 55 -102.08"/></g></g></svg>