<?xml version="1.0" encoding="UTF-8" standalone="no"?>
<!DOCTYPE svg PUBLIC "-//W3C//DTD SVG 1.1//EN"
 "http://www.w3.org/Graphics/SVG/1.1/DTD/svg11.dtd">
<!-- Generated by graphviz version 2.43.0 (0)
 -->
<!-- Title: debRecordParser Pages: 1 -->
<svg width="319pt" height="230pt"
 viewBox="0.00 0.00 318.50 230.00" xmlns="http://www.w3.org/2000/svg" xmlns:xlink="http://www.w3.org/1999/xlink">
<g id="graph0" class="graph" transform="scale(1 1) rotate(0) translate(4 226)">
<title>debRecordParser</title>
<polygon fill="white" stroke="transparent" points="-4,4 -4,-226 314.5,-226 314.5,4 -4,4"/>
<!-- Node1 -->
<g id="node1" class="node">
<title>Node1</title>
<g id="a_node1"><a xlink:title=" ">
<polygon fill="#bfbfbf" stroke="black" points="152.5,-0.5 152.5,-19.5 250.5,-19.5 250.5,-0.5 152.5,-0.5"/>
<text text-anchor="middle" x="201.5" y="-7.5" font-family="Helvetica,sans-Serif" font-size="10.00">debRecordParser</text>
</a>
</g>
</g>
<!-- Node2 -->
<g id="node2" class="node">
<title>Node2</title>
<g id="a_node2"><a xlink:href="classdebRecordParserBase.xhtml" target="_top" xlink:title=" ">
<polygon fill="white" stroke="black" points="38.5,-67.5 38.5,-86.5 160.5,-86.5 160.5,-67.5 38.5,-67.5"/>
<text text-anchor="middle" x="99.5" y="-74.5" font-family="Helvetica,sans-Serif" font-size="10.00">debRecordParserBase</text>
</a>
</g>
</g>
<!-- Node2&#45;&gt;Node1 -->
<g id="edge1" class="edge">
<title>Node2&#45;&gt;Node1</title>
<path fill="none" stroke="midnightblue" d="M121.83,-61.77C142.02,-48.9 171.09,-30.38 187.96,-19.63"/>
<polygon fill="midnightblue" stroke="midnightblue" points="119.81,-58.91 113.26,-67.23 123.57,-64.81 119.81,-58.91"/>
</g>
<!-- Node3 -->
<g id="node3" class="node">
<title>Node3</title>
<g id="a_node3"><a xlink:title=" ">
<polygon fill="white" stroke="#bfbfbf" points="0,-145.5 0,-164.5 47,-164.5 47,-145.5 0,-145.5"/>
<text text-anchor="middle" x="23.5" y="-152.5" font-family="Helvetica,sans-Serif" font-size="10.00">Parser</text>
</a>
</g>
</g>
<!-- Node3&#45;&gt;Node2 -->
<g id="edge2" class="edge">
<title>Node3&#45;&gt;Node2</title>
<path fill="none" stroke="midnightblue" d="M39.62,-137.88C55.28,-122.22 78.46,-99.04 90.88,-86.62"/>
<polygon fill="midnightblue" stroke="midnightblue" points="36.81,-135.74 32.22,-145.28 41.76,-140.69 36.81,-135.74"/>
</g>
<!-- Node4 -->
<g id="node4" class="node">
<title>Node4</title>
<g id="a_node4"><a xlink:href="classpkgTagSection.xhtml" target="_top" xlink:title=" ">
<polygon fill="white" stroke="black" points="65,-145.5 65,-164.5 152,-164.5 152,-145.5 65,-145.5"/>
<text text-anchor="middle" x="108.5" y="-152.5" font-family="Helvetica,sans-Serif" font-size="10.00">pkgTagSection</text>
</a>
</g>
</g>
<!-- Node4&#45;&gt;Node2 -->
<g id="edge3" class="edge">
<title>Node4&#45;&gt;Node2</title>
<path fill="none" stroke="#9a32cd" stroke-dasharray="5,2" d="M106.28,-135.22C104.44,-119.7 101.91,-98.36 100.52,-86.62"/>
<polygon fill="#9a32cd" stroke="#9a32cd" points="102.82,-135.76 107.47,-145.28 109.77,-134.94 102.82,-135.76"/>
<text text-anchor="middle" x="125.5" y="-113.5" font-family="Helvetica,sans-Serif" font-size="10.00"> Section</text>
</g>
<!-- Node5 -->
<g id="node5" class="node">
<title>Node5</title>
<g id="a_node5"><a xlink:href="classFileFd.xhtml" target="_top" xlink:title=" ">
<polygon fill="white" stroke="black" points="178.5,-67.5 178.5,-86.5 224.5,-86.5 224.5,-67.5 178.5,-67.5"/>
<text text-anchor="middle" x="201.5" y="-74.5" font-family="Helvetica,sans-Serif" font-size="10.00">FileFd</text>
</a>
</g>
</g>
<!-- Node5&#45;&gt;Node1 -->
<g id="edge4" class="edge">
<title>Node5&#45;&gt;Node1</title>
<path fill="none" stroke="#9a32cd" stroke-dasharray="5,2" d="M201.5,-57.04C201.5,-44.67 201.5,-29.12 201.5,-19.63"/>
<polygon fill="#9a32cd" stroke="#9a32cd" points="198,-57.23 201.5,-67.23 205,-57.23 198,-57.23"/>
<text text-anchor="middle" x="212" y="-41" font-family="Helvetica,sans-Serif" font-size="10.00"> File</text>
</g>
<!-- Node6 -->
<g id="node6" class="node">
<title>Node6</title>
<g id="a_node6"><a xlink:title=" ">
<polygon fill="white" stroke="#bfbfbf" points="179.5,-145.5 179.5,-164.5 223.5,-164.5 223.5,-145.5 179.5,-145.5"/>
<text text-anchor="middle" x="201.5" y="-152.5" font-family="Helvetica,sans-Serif" font-size="10.00">string</text>
</a>
</g>
</g>
<!-- Node6&#45;&gt;Node5 -->
<g id="edge5" class="edge">
<title>Node6&#45;&gt;Node5</title>
<path fill="none" stroke="#9a32cd" stroke-dasharray="5,2" d="M201.5,-135.22C201.5,-119.7 201.5,-98.36 201.5,-86.62"/>
<polygon fill="#9a32cd" stroke="#9a32cd" points="198,-135.28 201.5,-145.28 205,-135.28 198,-135.28"/>
<text text-anchor="middle" x="251" y="-119" font-family="Helvetica,sans-Serif" font-size="10.00"> FileName</text>
<text text-anchor="middle" x="251" y="-108" font-family="Helvetica,sans-Serif" font-size="10.00">TemporaryFileName</text>
</g>
<!-- Node7 -->
<g id="node7" class="node">
<title>Node7</title>
<g id="a_node7"><a xlink:title=" ">
<polygon fill="white" stroke="#bfbfbf" points="141.5,-202.5 141.5,-221.5 261.5,-221.5 261.5,-202.5 141.5,-202.5"/>
<text text-anchor="middle" x="201.5" y="-209.5" font-family="Helvetica,sans-Serif" font-size="10.00">basic_string&lt; Char &gt;</text>
</a>
</g>
</g>
<!-- Node7&#45;&gt;Node6 -->
<g id="edge6" class="edge">
<title>Node7&#45;&gt;Node6</title>
<path fill="none" stroke="midnightblue" d="M201.5,-192.12C201.5,-182.82 201.5,-172.06 201.5,-164.71"/>
<polygon fill="midnightblue" stroke="midnightblue" points="198,-192.41 201.5,-202.41 205,-192.41 198,-192.41"/>
</g>
<!-- Node8 -->
<g id="node8" class="node">
<title>Node8</title>
<g id="a_node8"><a xlink:href="classpkgTagFile.xhtml" target="_top" xlink:title=" ">
<polygon fill="white" stroke="black" points="242.5,-67.5 242.5,-86.5 310.5,-86.5 310.5,-67.5 242.5,-67.5"/>
<text text-anchor="middle" x="276.5" y="-74.5" font-family="Helvetica,sans-Serif" font-size="10.00">pkgTagFile</text>
</a>
</g>
</g>
<!-- Node8&#45;&gt;Node1 -->
<g id="edge7" class="edge">
<title>Node8&#45;&gt;Node1</title>
<path fill="none" stroke="#9a32cd" stroke-dasharray="5,2" d="M258.45,-60.36C243.71,-47.58 223.41,-29.99 211.45,-19.63"/>
<polygon fill="#9a32cd" stroke="#9a32cd" points="256.54,-63.33 266.39,-67.23 261.12,-58.04 256.54,-63.33"/>
<text text-anchor="middle" x="255" y="-41" font-family="Helvetica,sans-Serif" font-size="10.00"> Tags</text>
</g>
</g>
</svg>
