<svg xmlns="http://www.w3.org/2000/svg" xmlns:xlink="http://www.w3.org/1999/xlink" width="158pt" height="336" viewBox="0 0 158 252"><g id="graph0" class="graph" transform="scale(1 1) rotate(0) translate(4 248)"><title>edspLikeIndex</title><polygon fill="#fff" stroke="transparent" points="-4 4 -4 -248 154 -248 154 4 -4 4"/><g id="node1" class="node"><title>Node1</title><g id="a_node1"><a><polygon fill="#bfbfbf" stroke="#000" points="32.5 -56.5 32.5 -75.5 118.5 -75.5 118.5 -56.5 32.5 -56.5"/><text x="75.5" y="-63.5" font-family="Helvetica,sans-Serif" font-size="10" text-anchor="middle">edspLikeIndex</text></a></g></g><g id="node5" class="node"><title>Node5</title><g id="a_node5"><a target="_top" xlink:href="classedspIndex.xhtml"><polygon fill="#fff" stroke="#000" points="0 -.5 0 -19.5 67 -19.5 67 -.5 0 -.5"/><text x="33.5" y="-7.5" font-family="Helvetica,sans-Serif" font-size="10" text-anchor="middle">edspIndex</text></a></g></g><g id="edge4" class="edge"><title>Node1-&gt;Node5</title><path fill="none" stroke="#191970" d="M62.39,-48.14C55.07,-38.74 46.26,-27.4 40.31,-19.75"/><polygon fill="#191970" stroke="#191970" points="59.66 -50.34 68.56 -56.08 65.19 -46.04 59.66 -50.34"/></g><g id="node6" class="node"><title>Node6</title><g id="a_node6"><a target="_top" xlink:href="classeippIndex.xhtml"><polygon fill="#fff" stroke="#000" points="85 -.5 85 -19.5 150 -19.5 150 -.5 85 -.5"/><text x="117.5" y="-7.5" font-family="Helvetica,sans-Serif" font-size="10" text-anchor="middle">eippIndex</text></a></g></g><g id="edge5" class="edge"><title>Node1-&gt;Node6</title><path fill="none" stroke="#191970" d="M88.61,-48.14C95.93,-38.74 104.74,-27.4 110.69,-19.75"/><polygon fill="#191970" stroke="#191970" points="85.81 -46.04 82.44 -56.08 91.34 -50.34 85.81 -46.04"/></g><g id="node2" class="node"><title>Node2</title><g id="a_node2"><a target="_top" xlink:href="classpkgDebianIndexRealFile.xhtml"><polygon fill="#fff" stroke="#000" points="8 -112.5 8 -131.5 143 -131.5 143 -112.5 8 -112.5"/><text x="75.5" y="-119.5" font-family="Helvetica,sans-Serif" font-size="10" text-anchor="middle">pkgDebianIndexRealFile</text></a></g></g><g id="edge1" class="edge"><title>Node2-&gt;Node1</title><path fill="none" stroke="#191970" d="M75.5,-101.8C75.5,-92.91 75.5,-82.78 75.5,-75.75"/><polygon fill="#191970" stroke="#191970" points="72 -102.08 75.5 -112.08 79 -102.08 72 -102.08"/></g><g id="node3" class="node"><title>Node3</title><g id="a_node3"><a target="_top" xlink:href="classpkgDebianIndexFile.xhtml"><polygon fill="#fff" stroke="#000" points="19 -168.5 19 -187.5 132 -187.5 132 -168.5 19 -168.5"/><text x="75.5" y="-175.5" font-family="Helvetica,sans-Serif" font-size="10" text-anchor="middle">pkgDebianIndexFile</text></a></g></g><g id="edge2" class="edge"><title>Node3-&gt;Node2</title><path fill="none" stroke="#191970" d="M75.5,-157.8C75.5,-148.91 75.5,-138.78 75.5,-131.75"/><polygon fill="#191970" stroke="#191970" points="72 -158.08 75.5 -168.08 79 -158.08 72 -158.08"/></g><g id="node4" class="node"><title>Node4</title><g id="a_node4"><a target="_top" xlink:href="classpkgIndexFile.xhtml"><polygon fill="#fff" stroke="#000" points="36 -224.5 36 -243.5 115 -243.5 115 -224.5 36 -224.5"/><text x="75.5" y="-231.5" font-family="Helvetica,sans-Serif" font-size="10" text-anchor="middle">pkgIndexFile</text></a></g></g><g id="edge3" class="edge"><title>Node4-&gt;Node3</title><path fill="none" stroke="#191970" d="M75.5,-213.8C75.5,-204.91 75.5,-194.78 75.5,-187.75"/><polygon fill="#191970" stroke="#191970" points="72 -214.08 75.5 -224.08 79 -214.08 72 -214.08"/></g></g></svg>