<svg xmlns="http://www.w3.org/2000/svg" xmlns:xlink="http://www.w3.org/1999/xlink" width="133pt" height="85pt" viewBox="0 0 133 85"><g id="graph0" class="graph" transform="scale(1 1) rotate(0) translate(4 81)"><title>edspIFType</title><polygon fill="#fff" stroke="transparent" points="-4 4 -4 -81 129 -81 129 4 -4 4"/><g id="node1" class="node"><title>Node1</title><g id="a_node1"><a><polygon fill="#bfbfbf" stroke="#000" points="0 -.5 0 -19.5 71 -19.5 71 -.5 0 -.5"/><text x="35.5" y="-7.5" font-family="Helvetica,sans-Serif" font-size="10" text-anchor="middle">edspIFType</text></a></g></g><g id="node2" class="node"><title>Node2</title><g id="a_node2"><a target="_top" xlink:href="classpkgIndexFile_1_1Type.xhtml"><polygon fill="#fff" stroke="#000" points="16 -57.5 16 -76.5 55 -76.5 55 -57.5 16 -57.5"/><text x="35.5" y="-64.5" font-family="Helvetica,sans-Serif" font-size="10" text-anchor="middle">Type</text></a></g></g><g id="edge1" class="edge"><title>Node2-&gt;Node1</title><path fill="none" stroke="#191970" d="M35.5,-47.12C35.5,-37.82 35.5,-27.06 35.5,-19.71"/><polygon fill="#191970" stroke="#191970" points="32 -47.41 35.5 -57.41 39 -47.41 32 -47.41"/></g><g id="edge2" class="edge"><title>Node2-&gt;Node2</title><path fill="none" stroke="#9a32cd" stroke-dasharray="5 2" d="M65.33,-71.79C69.9,-71.06 73,-69.47 73,-67 73,-62.95 64.64,-61.25 55.18,-61.88"/><polygon fill="#9a32cd" stroke="#9a32cd" points="65.06 -68.3 55.18 -72.12 65.29 -75.3 65.06 -68.3"/><text x="99" y="-64.5" font-family="Helvetica,sans-Serif" font-size="10" text-anchor="middle">GlobalList</text></g></g></svg>