<?xml version="1.0" encoding="UTF-8" standalone="no"?>
<!DOCTYPE svg PUBLIC "-//W3C//DTD SVG 1.1//EN"
 "http://www.w3.org/Graphics/SVG/1.1/DTD/svg11.dtd">
<!-- Generated by graphviz version 2.43.0 (0)
 -->
<!-- Title: pkgDepCache::DefaultRootSetFunc Pages: 1 -->
<svg width="226pt" height="151pt"
 viewBox="0.00 0.00 226.00 151.00" xmlns="http://www.w3.org/2000/svg" xmlns:xlink="http://www.w3.org/1999/xlink">
<g id="graph0" class="graph" transform="scale(1 1) rotate(0) translate(4 147)">
<title>pkgDepCache::DefaultRootSetFunc</title>
<polygon fill="white" stroke="transparent" points="-4,4 -4,-147 222,-147 222,4 -4,4"/>
<!-- Node1 -->
<g id="node1" class="node">
<title>Node1</title>
<g id="a_node1"><a xlink:title="Returns true for packages matching a regular expression in APT::NeverAutoRemove.">
<polygon fill="#bfbfbf" stroke="black" points="27.5,-56.5 27.5,-86.5 176.5,-86.5 176.5,-56.5 27.5,-56.5"/>
<text text-anchor="start" x="35.5" y="-74.5" font-family="Helvetica,sans-Serif" font-size="10.00">pkgDepCache::DefaultRoot</text>
<text text-anchor="middle" x="102" y="-63.5" font-family="Helvetica,sans-Serif" font-size="10.00">SetFunc</text>
</a>
</g>
</g>
<!-- Node4 -->
<g id="node4" class="node">
<title>Node4</title>
<g id="a_node4"><a xlink:href="classDefaultRootSetFunc2.xhtml" target="_top" xlink:title="Returns true for packages matching a regular expression in APT::NeverAutoRemove.">
<polygon fill="white" stroke="black" points="42.5,-0.5 42.5,-19.5 161.5,-19.5 161.5,-0.5 42.5,-0.5"/>
<text text-anchor="middle" x="102" y="-7.5" font-family="Helvetica,sans-Serif" font-size="10.00">DefaultRootSetFunc2</text>
</a>
</g>
</g>
<!-- Node1&#45;&gt;Node4 -->
<g id="edge3" class="edge">
<title>Node1&#45;&gt;Node4</title>
<path fill="none" stroke="midnightblue" d="M102,-46.29C102,-36.86 102,-26.65 102,-19.66"/>
<polygon fill="midnightblue" stroke="midnightblue" points="98.5,-46.4 102,-56.4 105.5,-46.4 98.5,-46.4"/>
</g>
<!-- Node2 -->
<g id="node2" class="node">
<title>Node2</title>
<g id="a_node2"><a xlink:href="classpkgDepCache_1_1InRootSetFunc.xhtml" target="_top" xlink:title="An arbitrary predicate on packages.">
<polygon fill="white" stroke="black" points="0,-123.5 0,-142.5 86,-142.5 86,-123.5 0,-123.5"/>
<text text-anchor="middle" x="43" y="-130.5" font-family="Helvetica,sans-Serif" font-size="10.00">InRootSetFunc</text>
</a>
</g>
</g>
<!-- Node2&#45;&gt;Node1 -->
<g id="edge1" class="edge">
<title>Node2&#45;&gt;Node1</title>
<path fill="none" stroke="midnightblue" d="M58.5,-116.37C67.68,-107.11 79.21,-95.48 88.09,-86.52"/>
<polygon fill="midnightblue" stroke="midnightblue" points="56.01,-113.91 51.45,-123.48 60.98,-118.84 56.01,-113.91"/>
</g>
<!-- Node3 -->
<g id="node3" class="node">
<title>Node3</title>
<g id="a_node3"><a xlink:href="classConfiguration_1_1MatchAgainstConfig.xhtml" target="_top" xlink:title="match a string against a configurable list of patterns">
<polygon fill="white" stroke="black" points="104,-123.5 104,-142.5 218,-142.5 218,-123.5 104,-123.5"/>
<text text-anchor="middle" x="161" y="-130.5" font-family="Helvetica,sans-Serif" font-size="10.00">MatchAgainstConfig</text>
</a>
</g>
</g>
<!-- Node3&#45;&gt;Node1 -->
<g id="edge2" class="edge">
<title>Node3&#45;&gt;Node1</title>
<path fill="none" stroke="midnightblue" d="M145.5,-116.37C136.32,-107.11 124.79,-95.48 115.91,-86.52"/>
<polygon fill="midnightblue" stroke="midnightblue" points="143.02,-118.84 152.55,-123.48 147.99,-113.91 143.02,-118.84"/>
</g>
</g>
</svg>
