<svg xmlns="http://www.w3.org/2000/svg" xmlns:xlink="http://www.w3.org/1999/xlink" width="160" height="140pt" viewBox="0 0 120 140"><g id="graph0" class="graph" transform="scale(1 1) rotate(0) translate(4 136)"><title>debDebFileParser</title><polygon fill="#fff" stroke="transparent" points="-4 4 -4 -136 116 -136 116 4 -4 4"/><g id="node1" class="node"><title>Node1</title><g id="a_node1"><a><polygon fill="#bfbfbf" stroke="#000" points="5.5 -.5 5.5 -19.5 106.5 -19.5 106.5 -.5 5.5 -.5"/><text x="56" y="-7.5" font-family="Helvetica,sans-Serif" font-size="10" text-anchor="middle">debDebFileParser</text></a></g></g><g id="node2" class="node"><title>Node2</title><g id="a_node2"><a target="_top" xlink:href="classdebListParser.xhtml"><polygon fill="#fff" stroke="#000" points="15 -56.5 15 -75.5 97 -75.5 97 -56.5 15 -56.5"/><text x="56" y="-63.5" font-family="Helvetica,sans-Serif" font-size="10" text-anchor="middle">debListParser</text></a></g></g><g id="edge1" class="edge"><title>Node2-&gt;Node1</title><path fill="none" stroke="#191970" d="M56,-45.8C56,-36.91 56,-26.78 56,-19.75"/><polygon fill="#191970" stroke="#191970" points="52.5 -46.08 56 -56.08 59.5 -46.08 52.5 -46.08"/></g><g id="node3" class="node"><title>Node3</title><g id="a_node3"><a target="_top" xlink:href="classpkgCacheListParser.xhtml"><polygon fill="#fff" stroke="#000" points="0 -112.5 0 -131.5 112 -131.5 112 -112.5 0 -112.5"/><text x="56" y="-119.5" font-family="Helvetica,sans-Serif" font-size="10" text-anchor="middle">pkgCacheListParser</text></a></g></g><g id="edge2" class="edge"><title>Node3-&gt;Node2</title><path fill="none" stroke="#191970" d="M56,-101.8C56,-92.91 56,-82.78 56,-75.75"/><polygon fill="#191970" stroke="#191970" points="52.5 -102.08 56 -112.08 59.5 -102.08 52.5 -102.08"/></g></g></svg>