<?xml version="1.0" encoding="UTF-8" standalone="no"?>
<!DOCTYPE svg PUBLIC "-//W3C//DTD SVG 1.1//EN"
 "http://www.w3.org/Graphics/SVG/1.1/DTD/svg11.dtd">
<!-- Generated by graphviz version 2.43.0 (0)
 -->
<!-- Title: pkgPackageManager Pages: 1 -->
<svg width="180pt" height="140pt"
 viewBox="0.00 0.00 179.50 140.00" xmlns="http://www.w3.org/2000/svg" xmlns:xlink="http://www.w3.org/1999/xlink">
<g id="graph0" class="graph" transform="scale(1 1) rotate(0) translate(4 136)">
<title>pkgPackageManager</title>
<polygon fill="white" stroke="transparent" points="-4,4 -4,-136 175.5,-136 175.5,4 -4,4"/>
<!-- Node1 -->
<g id="node1" class="node">
<title>Node1</title>
<g id="a_node1"><a xlink:title=" ">
<polygon fill="#bfbfbf" stroke="black" points="26,-56.5 26,-75.5 143,-75.5 143,-56.5 26,-56.5"/>
<text text-anchor="middle" x="84.5" y="-63.5" font-family="Helvetica,sans-Serif" font-size="10.00">pkgPackageManager</text>
</a>
</g>
</g>
<!-- Node3 -->
<g id="node3" class="node">
<title>Node3</title>
<g id="a_node3"><a xlink:href="classpkgDPkgPM.xhtml" target="_top" xlink:title=" ">
<polygon fill="white" stroke="black" points="0,-0.5 0,-19.5 75,-19.5 75,-0.5 0,-0.5"/>
<text text-anchor="middle" x="37.5" y="-7.5" font-family="Helvetica,sans-Serif" font-size="10.00">pkgDPkgPM</text>
</a>
</g>
</g>
<!-- Node1&#45;&gt;Node3 -->
<g id="edge2" class="edge">
<title>Node1&#45;&gt;Node3</title>
<path fill="none" stroke="midnightblue" d="M70.08,-48.43C61.84,-38.97 51.85,-27.48 45.12,-19.75"/>
<polygon fill="midnightblue" stroke="midnightblue" points="67.53,-50.84 76.74,-56.08 72.81,-46.24 67.53,-50.84"/>
</g>
<!-- Node4 -->
<g id="node4" class="node">
<title>Node4</title>
<g id="a_node4"><a xlink:href="classpkgSimulate.xhtml" target="_top" xlink:title=" ">
<polygon fill="white" stroke="black" points="93.5,-0.5 93.5,-19.5 171.5,-19.5 171.5,-0.5 93.5,-0.5"/>
<text text-anchor="middle" x="132.5" y="-7.5" font-family="Helvetica,sans-Serif" font-size="10.00">pkgSimulate</text>
</a>
</g>
</g>
<!-- Node1&#45;&gt;Node4 -->
<g id="edge3" class="edge">
<title>Node1&#45;&gt;Node4</title>
<path fill="none" stroke="midnightblue" d="M99.23,-48.43C107.64,-38.97 117.85,-27.48 124.72,-19.75"/>
<polygon fill="midnightblue" stroke="midnightblue" points="96.45,-46.28 92.43,-56.08 101.69,-50.93 96.45,-46.28"/>
</g>
<!-- Node2 -->
<g id="node2" class="node">
<title>Node2</title>
<g id="a_node2"><a xlink:href="classpkgCache_1_1Namespace.xhtml" target="_top" xlink:title=" ">
<polygon fill="white" stroke="black" points="47.5,-112.5 47.5,-131.5 121.5,-131.5 121.5,-112.5 47.5,-112.5"/>
<text text-anchor="middle" x="84.5" y="-119.5" font-family="Helvetica,sans-Serif" font-size="10.00">Namespace</text>
</a>
</g>
</g>
<!-- Node2&#45;&gt;Node1 -->
<g id="edge1" class="edge">
<title>Node2&#45;&gt;Node1</title>
<path fill="none" stroke="darkgreen" d="M84.5,-101.8C84.5,-92.91 84.5,-82.78 84.5,-75.75"/>
<polygon fill="darkgreen" stroke="darkgreen" points="81,-102.08 84.5,-112.08 88,-102.08 81,-102.08"/>
</g>
</g>
</svg>
