<svg xmlns="http://www.w3.org/2000/svg" xmlns:xlink="http://www.w3.org/1999/xlink" width="410pt" height="100pt" viewBox="0 0 410 99.5"><g id="graph0" class="graph" transform="scale(1 1) rotate(0) translate(4 95.5)"><title>Container_iterator_base&lt; Interface, Master, iterator_type, container_iterator, container_value &gt;</title><polygon fill="#fff" stroke="transparent" points="-4 4 -4 -95.5 406 -95.5 406 4 -4 4"/><g id="node1" class="node"><title>Node1</title><g id="a_node1"><a><polygon fill="#bfbfbf" stroke="#000" points="249 -16.5 249 -68.5 402 -68.5 402 -16.5 249 -16.5"/><text x="257" y="-56.5" font-family="Helvetica,sans-Serif" font-size="10" text-anchor="start">Container_iterator</text><text x="257" y="-45.5" font-family="Helvetica,sans-Serif" font-size="10" text-anchor="start">_base&lt; Interface, Master,</text><text x="257" y="-34.5" font-family="Helvetica,sans-Serif" font-size="10" text-anchor="start">iterator_type, container</text><text x="325.5" y="-23.5" font-family="Helvetica,sans-Serif" font-size="10" text-anchor="middle">_iterator, container_value &gt;</text></a></g></g><g id="node2" class="node"><title>Node2</title><g id="a_node2"><a><polygon fill="#fff" stroke="#bfbfbf" points="0 -50 0 -91 213 -91 213 -50 0 -50"/><text x="8" y="-79" font-family="Helvetica,sans-Serif" font-size="10" text-anchor="start">iterator&lt; std::iterator</text><text x="8" y="-68" font-family="Helvetica,sans-Serif" font-size="10" text-anchor="start">_traits&lt; container_iterator</text><text x="106.5" y="-57" font-family="Helvetica,sans-Serif" font-size="10" text-anchor="middle">&gt;::iterator_category, container_value &gt;</text></a></g></g><g id="edge1" class="edge"><title>Node2-&gt;Node1</title><path fill="none" stroke="#191970" d="M223.32,-55.56C231.99,-54.44 240.58,-53.33 248.9,-52.25"/><polygon fill="#191970" stroke="#191970" points="222.61 -52.12 213.14 -56.87 223.51 -59.06 222.61 -52.12"/></g><g id="node3" class="node"><title>Node3</title><g id="a_node3"><a><polygon fill="#fff" stroke="#bfbfbf" points="42.5 -.5 42.5 -30.5 170.5 -30.5 170.5 -.5 42.5 -.5"/><text x="50.5" y="-18.5" font-family="Helvetica,sans-Serif" font-size="10" text-anchor="start">template iterator_base</text><text x="106.5" y="-7.5" font-family="Helvetica,sans-Serif" font-size="10" text-anchor="middle">&lt; iterator_type &gt;</text></a></g></g><g id="edge2" class="edge"><title>Node3-&gt;Node1</title><path fill="none" stroke="#191970" d="M180.51,-24.58C202.56,-27.33 226.79,-30.34 248.99,-33.1"/><polygon fill="#191970" stroke="#191970" points="180.91 -21.11 170.56 -23.35 180.05 -28.05 180.91 -21.11"/></g></g></svg>