<svg xmlns="http://www.w3.org/2000/svg" xmlns:xlink="http://www.w3.org/1999/xlink" width="2039pt" height="428pt" viewBox="0 0 2039 428.39"><g id="graph0" class="graph" transform="scale(1 1) rotate(0) translate(4 424.39)"><title>pkgAcqMetaClearSig</title><polygon fill="#fff" stroke="transparent" points="-4 4 -4 -424.39 2035 -424.39 2035 4 -4 4"/><g id="node1" class="node"><title>Node1</title><g id="a_node1"><a xlink:title="An item responsible for downloading clearsigned metaindexes {{{."><polygon fill="#bfbfbf" stroke="#000" points="1072 -250.89 1072 -269.89 1190 -269.89 1190 -250.89 1072 -250.89"/><text x="1131" y="-257.89" font-family="Helvetica,sans-Serif" font-size="10" text-anchor="middle">pkgAcqMetaClearSig</text></a></g></g><g id="node4" class="node"><title>Node4</title><g id="a_node4"><a target="_top" xlink:href="classpkgAcqTransactionItem.xhtml" xlink:title="baseclass for the indexes files to manage them all together"><polygon fill="#fff" stroke="#000" points="1328 -160.89 1328 -179.89 1459 -179.89 1459 -160.89 1328 -160.89"/><text x="1393.5" y="-167.89" font-family="Helvetica,sans-Serif" font-size="10" text-anchor="middle">pkgAcqTransactionItem</text></a></g></g><g id="edge10" class="edge"><title>Node1-&gt;Node4</title><path fill="none" stroke="#9a32cd" stroke-dasharray="5 2" d="M1170.21,-247.56C1182.27,-243.57 1195.67,-239.23 1208,-235.39 1253.12,-221.34 1265.51,-221.31 1310,-205.39 1331.39,-197.73 1355.21,-187.43 1371.74,-179.98"/><polygon fill="#9a32cd" stroke="#9a32cd" points="1168.83 -244.32 1160.44 -250.79 1171.04 -250.97 1168.83 -244.32"/><text x="1259" y="-238.39" font-family="Helvetica,sans-Serif" font-size="10" text-anchor="middle">TransactionManager</text></g><g id="node2" class="node"><title>Node2</title><g id="a_node2"><a target="_top" xlink:href="classpkgAcqMetaIndex.xhtml" xlink:title="An item that is responsible for downloading the meta-index {{{ file (i.e., Release) itself and verify..."><polygon fill="#fff" stroke="#000" points="1927 -116.89 1927 -135.89 2031 -135.89 2031 -116.89 1927 -116.89"/><text x="1979" y="-123.89" font-family="Helvetica,sans-Serif" font-size="10" text-anchor="middle">pkgAcqMetaIndex</text></a></g></g><g id="edge1" class="edge"><title>Node2-&gt;Node1</title><path fill="none" stroke="#191970" d="M1969.54,-145.24C1951.54,-182.15 1905.7,-260.39 1840.5,-260.39 1392.5,-260.39 1392.5,-260.39 1392.5,-260.39 1322.97,-260.39 1242.99,-260.39 1190.2,-260.39"/><polygon fill="#191970" stroke="#191970" points="1972.79 -146.56 1973.87 -136.02 1966.45 -143.58 1972.79 -146.56"/></g><g id="node3" class="node"><title>Node3</title><g id="a_node3"><a target="_top" xlink:href="classpkgAcqMetaBase.xhtml" xlink:title="the manager of a transaction"><polygon fill="#fff" stroke="#000" points="1789 -116.89 1789 -135.89 1890 -135.89 1890 -116.89 1789 -116.89"/><text x="1839.5" y="-123.89" font-family="Helvetica,sans-Serif" font-size="10" text-anchor="middle">pkgAcqMetaBase</text></a></g></g><g id="edge2" class="edge"><title>Node3-&gt;Node2</title><path fill="none" stroke="#191970" d="M1900.3,-126.39C1909.05,-126.39 1918.01,-126.39 1926.58,-126.39"/><polygon fill="#191970" stroke="#191970" points="1900.14 -122.89 1890.14 -126.39 1900.14 -129.89 1900.14 -122.89"/></g><g id="edge3" class="edge"><title>Node4-&gt;Node3</title><path fill="none" stroke="#191970" d="M1469.22,-168.62C1545.54,-165.88 1667.22,-158.93 1771,-141.39 1780,-139.87 1789.6,-137.93 1798.66,-135.95"/><polygon fill="#191970" stroke="#191970" points="1469.09 -165.12 1459.22 -168.96 1469.33 -172.11 1469.09 -165.12"/></g><g id="node10" class="node"><title>Node10</title><g id="a_node10"><a><polygon fill="#fff" stroke="#bfbfbf" points="1544 -111.39 1544 -141.39 1694 -141.39 1694 -111.39 1544 -111.39"/><text x="1552" y="-129.39" font-family="Helvetica,sans-Serif" font-size="10" text-anchor="start">vector&lt; pkgAcqTransaction</text><text x="1619" y="-118.39" font-family="Helvetica,sans-Serif" font-size="10" text-anchor="middle">Item * &gt;</text></a></g></g><g id="edge13" class="edge"><title>Node4-&gt;Node10</title><path fill="none" stroke="#9a32cd" stroke-dasharray="5 2" d="M1431.87,-157.68C1445.89,-153.28 1462.05,-148.64 1477,-145.39 1498.48,-140.72 1522.07,-137 1543.7,-134.13"/><polygon fill="#9a32cd" stroke="#9a32cd" points="1430.54 -154.43 1422.09 -160.82 1432.68 -161.09 1430.54 -154.43"/><text x="1501.5" y="-148.39" font-family="Helvetica,sans-Serif" font-size="10" text-anchor="middle">elements</text></g><g id="node5" class="node"><title>Node5</title><g id="a_node5"><a><polygon fill="#fff" stroke="#bfbfbf" points="1111.5 -198.89 1111.5 -217.89 1150.5 -217.89 1150.5 -198.89 1111.5 -198.89"/><text x="1131" y="-205.89" font-family="Helvetica,sans-Serif" font-size="10" text-anchor="middle">Item</text></a></g></g><g id="edge4" class="edge"><title>Node5-&gt;Node4</title><path fill="none" stroke="#191970" d="M1160.79,-204.81C1196.02,-200.36 1257.48,-192.38 1310,-184.39 1319.05,-183.01 1328.64,-181.46 1337.96,-179.91"/><polygon fill="#191970" stroke="#191970" points="1160.22 -201.35 1150.74 -206.07 1161.1 -208.3 1160.22 -201.35"/></g><g id="node6" class="node"><title>Node6</title><g id="a_node6"><a target="_top" xlink:href="classIndexTarget.xhtml" xlink:title="Information about an index file."><polygon fill="#fff" stroke="#000" points="769 -69.89 769 -88.89 843 -88.89 843 -69.89 769 -69.89"/><text x="806" y="-76.89" font-family="Helvetica,sans-Serif" font-size="10" text-anchor="middle">IndexTarget</text></a></g></g><g id="edge15" class="edge"><title>Node6-&gt;Node2</title><path fill="none" stroke="#9a32cd" stroke-dasharray="5 2" d="M852.97,-67.78C891.87,-58.98 949.22,-48.39 1000,-48.39 1000,-48.39 1000,-48.39 1840.5,-48.39 1895.39,-48.39 1948.44,-95.99 1969.02,-116.82"/><polygon fill="#9a32cd" stroke="#9a32cd" points="851.96 -64.42 843.01 -70.09 853.54 -71.24 851.96 -64.42"/><text x="1393.5" y="-51.39" font-family="Helvetica,sans-Serif" font-size="10" text-anchor="middle">DetachedSigTarget</text></g><g id="edge5" class="edge"><title>Node6-&gt;Node4</title><path fill="none" stroke="#9a32cd" stroke-dasharray="5 2" d="M853,-86.17C941.54,-99.29 1141.79,-129.24 1310,-156.39 1318.75,-157.8 1328.01,-159.33 1337.05,-160.85"/><polygon fill="#9a32cd" stroke="#9a32cd" points="853.42 -82.7 843.02 -84.7 852.4 -89.62 853.42 -82.7"/><text x="1001" y="-119.39" font-family="Helvetica,sans-Serif" font-size="10" text-anchor="middle">Target</text></g><g id="node7" class="node"><title>Node7</title><g id="a_node7"><a><polygon fill="#fff" stroke="#bfbfbf" points="371 -31.39 371 -61.39 490 -61.39 490 -31.39 371 -31.39"/><text x="379" y="-49.39" font-family="Helvetica,sans-Serif" font-size="10" text-anchor="start">map&lt; std::string, std</text><text x="430.5" y="-38.39" font-family="Helvetica,sans-Serif" font-size="10" text-anchor="middle">::string &gt;</text></a></g></g><g id="edge6" class="edge"><title>Node7-&gt;Node6</title><path fill="none" stroke="#9a32cd" stroke-dasharray="5 2" d="M500.66,-52.5C579.98,-59.5 707.02,-70.73 768.85,-76.19"/><polygon fill="#9a32cd" stroke="#9a32cd" points="500.54 -48.97 490.27 -51.58 499.92 -55.95 500.54 -48.97"/><text x="542" y="-62.39" font-family="Helvetica,sans-Serif" font-size="10" text-anchor="middle">Options</text></g><g id="node8" class="node"><title>Node8</title><g id="a_node8"><a><polygon fill="#fff" stroke="#bfbfbf" points="178.5 -160.89 178.5 -179.89 222.5 -179.89 222.5 -160.89 178.5 -160.89"/><text x="200.5" y="-167.89" font-family="Helvetica,sans-Serif" font-size="10" text-anchor="middle">string</text></a></g></g><g id="edge14" class="edge"><title>Node8-&gt;Node3</title><path fill="none" stroke="#9a32cd" stroke-dasharray="5 2" d="M204.51,-150.69C210.16,-120.85 225.29,-64.59 262,-35.39 321.38,11.85 353.62,-2.39 429.5,-2.39 429.5,-2.39 429.5,-2.39 1260,-2.39 1478.27,-2.39 1732.78,-87.83 1812.97,-116.86"/><polygon fill="#9a32cd" stroke="#9a32cd" points="201.03 -150.27 202.78 -160.72 207.93 -151.46 201.03 -150.27"/><text x="1001" y="-5.39" font-family="Helvetica,sans-Serif" font-size="10" text-anchor="middle">BaseURI</text></g><g id="edge11" class="edge"><title>Node8-&gt;Node4</title><path fill="none" stroke="#9a32cd" stroke-dasharray="5 2" d="M232.6,-170.39C276.49,-170.39 359.11,-170.39 429.5,-170.39 429.5,-170.39 429.5,-170.39 1132,-170.39 1198.82,-170.39 1275.28,-170.39 1328,-170.39"/><polygon fill="#9a32cd" stroke="#9a32cd" points="232.56 -166.89 222.56 -170.39 232.56 -173.89 232.56 -166.89"/><text x="806" y="-173.39" font-family="Helvetica,sans-Serif" font-size="10" text-anchor="middle">PartialFile</text></g><g id="edge9" class="edge"><title>Node8-&gt;Node6</title><path fill="none" stroke="#9a32cd" stroke-dasharray="5 2" d="M232.34,-157.17C265.81,-143.47 321.17,-122.63 371,-112.39 409.44,-104.48 671.31,-87.67 768.66,-81.62"/><polygon fill="#9a32cd" stroke="#9a32cd" points="230.58 -154.11 222.68 -161.18 233.26 -160.58 230.58 -154.11"/><text x="430.5" y="-148.39" font-family="Helvetica,sans-Serif" font-size="10" text-anchor="middle">Description</text><text x="430.5" y="-137.39" font-family="Helvetica,sans-Serif" font-size="10" text-anchor="middle">MetaKey</text><text x="430.5" y="-126.39" font-family="Helvetica,sans-Serif" font-size="10" text-anchor="middle">ShortDesc</text><text x="430.5" y="-115.39" font-family="Helvetica,sans-Serif" font-size="10" text-anchor="middle">URI</text></g><g id="edge7" class="edge"><title>Node8-&gt;Node7</title><path fill="none" stroke="#9a32cd" stroke-dasharray="5 2" d="M206.36,-151C213.77,-125.9 230.48,-82.94 262,-62.39 293.81,-41.65 336.51,-37.85 370.83,-39.13"/><polygon fill="#9a32cd" stroke="#9a32cd" points="202.93 -150.27 203.67 -160.84 209.69 -152.12 202.93 -150.27"/><text x="307.5" y="-76.39" font-family="Helvetica,sans-Serif" font-size="10" text-anchor="middle">elements</text><text x="307.5" y="-65.39" font-family="Helvetica,sans-Serif" font-size="10" text-anchor="middle">keys</text></g><g id="node11" class="node"><title>Node11</title><g id="a_node11"><a target="_top" xlink:href="classmetaIndex.xhtml"><polygon fill="#fff" stroke="#000" points="861 -273.89 861 -292.89 930 -292.89 930 -273.89 861 -273.89"/><text x="895.5" y="-280.89" font-family="Helvetica,sans-Serif" font-size="10" text-anchor="middle">metaIndex</text></a></g></g><g id="edge19" class="edge"><title>Node8-&gt;Node11</title><path fill="none" stroke="#9a32cd" stroke-dasharray="5 2" d="M209.85,-189.12C224.29,-221.16 253.21,-283.68 262,-290.39 301.3,-320.35 321.82,-307.47 371,-312.39 539.05,-329.18 582.31,-320.62 751,-312.39 792.04,-310.38 803.04,-312.91 843,-303.39 853.45,-300.9 864.61,-296.76 873.87,-292.89"/><polygon fill="#9a32cd" stroke="#9a32cd" points="213 -187.59 205.71 -179.9 206.61 -190.45 213 -187.59"/><text x="542" y="-412.39" font-family="Helvetica,sans-Serif" font-size="10" text-anchor="middle">Codename</text><text x="542" y="-401.39" font-family="Helvetica,sans-Serif" font-size="10" text-anchor="middle">Dist</text><text x="542" y="-390.39" font-family="Helvetica,sans-Serif" font-size="10" text-anchor="middle">Label</text><text x="542" y="-379.39" font-family="Helvetica,sans-Serif" font-size="10" text-anchor="middle">Origin</text><text x="542" y="-368.39" font-family="Helvetica,sans-Serif" font-size="10" text-anchor="middle">ReleaseNotes</text><text x="542" y="-357.39" font-family="Helvetica,sans-Serif" font-size="10" text-anchor="middle">SignedBy</text><text x="542" y="-346.39" font-family="Helvetica,sans-Serif" font-size="10" text-anchor="middle">Suite</text><text x="542" y="-335.39" font-family="Helvetica,sans-Serif" font-size="10" text-anchor="middle">URI</text><text x="542" y="-324.39" font-family="Helvetica,sans-Serif" font-size="10" text-anchor="middle">Version</text></g><g id="node14" class="node"><title>Node14</title><g id="a_node14"><a><polygon fill="#fff" stroke="#bfbfbf" points="594 -234.39 594 -264.39 751 -264.39 751 -234.39 594 -234.39"/><text x="602" y="-252.39" font-family="Helvetica,sans-Serif" font-size="10" text-anchor="start">map&lt; std::string, metaIndex</text><text x="672.5" y="-241.39" font-family="Helvetica,sans-Serif" font-size="10" text-anchor="middle">::checkSum * &gt;</text></a></g></g><g id="edge21" class="edge"><title>Node8-&gt;Node14</title><path fill="none" stroke="#9a32cd" stroke-dasharray="5 2" d="M232.48,-177.99C241.93,-180.2 252.36,-182.51 262,-184.39 376.99,-206.79 511.28,-226.98 593.85,-238.71"/><polygon fill="#9a32cd" stroke="#9a32cd" points="233.24 -174.58 222.7 -175.68 231.62 -181.39 233.24 -174.58"/><text x="430.5" y="-225.39" font-family="Helvetica,sans-Serif" font-size="10" text-anchor="middle">keys</text></g><g id="node15" class="node"><title>Node15</title><g id="a_node15"><a target="_top" xlink:href="structmetaIndex_1_1checkSum.xhtml"><polygon fill="#fff" stroke="#000" points="397 -245.89 397 -264.89 464 -264.89 464 -245.89 397 -245.89"/><text x="430.5" y="-252.89" font-family="Helvetica,sans-Serif" font-size="10" text-anchor="middle">checkSum</text></a></g></g><g id="edge24" class="edge"><title>Node8-&gt;Node15</title><path fill="none" stroke="#9a32cd" stroke-dasharray="5 2" d="M215.33,-188.16C226.48,-201.18 243.34,-218.13 262,-227.39 285.11,-238.85 354.9,-247.73 396.75,-252.19"/><polygon fill="#9a32cd" stroke="#9a32cd" points="217.92 -185.8 208.87 -180.3 212.51 -190.25 217.92 -185.8"/><text x="307.5" y="-249.39" font-family="Helvetica,sans-Serif" font-size="10" text-anchor="middle">MetaKeyFilename</text></g><g id="node9" class="node"><title>Node9</title><g id="a_node9"><a><polygon fill="#fff" stroke="#bfbfbf" points="0 -160.89 0 -179.89 120 -179.89 120 -160.89 0 -160.89"/><text x="60" y="-167.89" font-family="Helvetica,sans-Serif" font-size="10" text-anchor="middle">basic_string&lt; Char &gt;</text></a></g></g><g id="edge8" class="edge"><title>Node9-&gt;Node8</title><path fill="none" stroke="#191970" d="M130.41,-170.39C147.91,-170.39 165.39,-170.39 178.4,-170.39"/><polygon fill="#191970" stroke="#191970" points="130.14 -166.89 120.14 -170.39 130.14 -173.89 130.14 -166.89"/></g><g id="edge12" class="edge"><title>Node10-&gt;Node3</title><path fill="none" stroke="#9a32cd" stroke-dasharray="5 2" d="M1704.65,-126.39C1733.12,-126.39 1763.94,-126.39 1788.82,-126.39"/><polygon fill="#9a32cd" stroke="#9a32cd" points="1704.28 -122.89 1694.28 -126.39 1704.28 -129.89 1704.28 -122.89"/><text x="1741.5" y="-129.39" font-family="Helvetica,sans-Serif" font-size="10" text-anchor="middle">Transaction</text></g><g id="edge16" class="edge"><title>Node11-&gt;Node1</title><path fill="none" stroke="#9a32cd" stroke-dasharray="5 2" d="M940.46,-279.06C977.54,-275.4 1030.92,-270.15 1071.59,-266.14"/><polygon fill="#9a32cd" stroke="#9a32cd" points="940.06 -275.58 930.45 -280.04 940.75 -282.54 940.06 -275.58"/><text x="1001" y="-291.39" font-family="Helvetica,sans-Serif" font-size="10" text-anchor="middle">LastMetaIndexParser</text><text x="1001" y="-280.39" font-family="Helvetica,sans-Serif" font-size="10" text-anchor="middle">MetaIndexParser</text></g><g id="node12" class="node"><title>Node12</title><g id="a_node12"><a><polygon fill="#fff" stroke="#bfbfbf" points="602.5 -283.89 602.5 -302.89 742.5 -302.89 742.5 -283.89 602.5 -283.89"/><text x="672.5" y="-290.89" font-family="Helvetica,sans-Serif" font-size="10" text-anchor="middle">vector&lt; pkgIndexFile * &gt;</text></a></g></g><g id="edge17" class="edge"><title>Node12-&gt;Node11</title><path fill="none" stroke="#9a32cd" stroke-dasharray="5 2" d="M752.84,-289.8C789.97,-288.12 832.21,-286.21 860.83,-284.91"/><polygon fill="#9a32cd" stroke="#9a32cd" points="752.35 -286.31 742.52 -290.26 752.66 -293.31 752.35 -286.31"/><text x="806" y="-291.39" font-family="Helvetica,sans-Serif" font-size="10" text-anchor="middle">Indexes</text></g><g id="node13" class="node"><title>Node13</title><g id="a_node13"><a target="_top" xlink:href="classpkgIndexFile.xhtml"><polygon fill="#fff" stroke="#000" points="391 -283.89 391 -302.89 470 -302.89 470 -283.89 391 -283.89"/><text x="430.5" y="-290.89" font-family="Helvetica,sans-Serif" font-size="10" text-anchor="middle">pkgIndexFile</text></a></g></g><g id="edge18" class="edge"><title>Node13-&gt;Node12</title><path fill="none" stroke="#9a32cd" stroke-dasharray="5 2" d="M480.5,-293.39C515.51,-293.39 563.13,-293.39 602.05,-293.39"/><polygon fill="#9a32cd" stroke="#9a32cd" points="480.06 -289.89 470.06 -293.39 480.06 -296.89 480.06 -289.89"/><text x="542" y="-296.39" font-family="Helvetica,sans-Serif" font-size="10" text-anchor="middle">elements</text></g><g id="edge20" class="edge"><title>Node14-&gt;Node11</title><path fill="none" stroke="#9a32cd" stroke-dasharray="5 2" d="M761.02,-258.13C787.47,-261.34 816.51,-265.42 843,-270.39 848.8,-271.47 854.92,-272.83 860.84,-274.25"/><polygon fill="#9a32cd" stroke="#9a32cd" points="761.36 -254.65 751.02 -256.94 760.54 -261.6 761.36 -254.65"/><text x="806" y="-273.39" font-family="Helvetica,sans-Serif" font-size="10" text-anchor="middle">Entries</text></g><g id="edge22" class="edge"><title>Node15-&gt;Node14</title><path fill="none" stroke="#9a32cd" stroke-dasharray="5 2" d="M474.37,-254.31C507.52,-253.49 554.28,-252.32 593.95,-251.33"/><polygon fill="#9a32cd" stroke="#9a32cd" points="474.03 -250.82 464.12 -254.57 474.2 -257.82 474.03 -250.82"/><text x="542" y="-256.39" font-family="Helvetica,sans-Serif" font-size="10" text-anchor="middle">elements</text></g><g id="node16" class="node"><title>Node16</title><g id="a_node16"><a target="_top" xlink:href="classHashStringList.xhtml"><polygon fill="#fff" stroke="#000" points="157 -273.89 157 -292.89 244 -292.89 244 -273.89 157 -273.89"/><text x="200.5" y="-280.89" font-family="Helvetica,sans-Serif" font-size="10" text-anchor="middle">HashStringList</text></a></g></g><g id="edge23" class="edge"><title>Node16-&gt;Node15</title><path fill="none" stroke="#9a32cd" stroke-dasharray="5 2" d="M254.06,-276.93C298.03,-271.53 359.41,-263.99 396.69,-259.42"/><polygon fill="#9a32cd" stroke="#9a32cd" points="253.62 -273.46 244.12 -278.15 254.47 -280.41 253.62 -273.46"/><text x="307.5" y="-278.39" font-family="Helvetica,sans-Serif" font-size="10" text-anchor="middle">Hashes</text></g></g></svg>