<?xml version="1.0" encoding="UTF-8" standalone="no"?>
<!DOCTYPE svg PUBLIC "-//W3C//DTD SVG 1.1//EN"
 "http://www.w3.org/Graphics/SVG/1.1/DTD/svg11.dtd">
<!-- Generated by graphviz version 2.43.0 (0)
 -->
<!-- Title: metaIndex Pages: 1 -->
<svg width="450pt" height="385pt"
 viewBox="0.00 0.00 449.50 385.00" xmlns="http://www.w3.org/2000/svg" xmlns:xlink="http://www.w3.org/1999/xlink">
<g id="graph0" class="graph" transform="scale(1 1) rotate(0) translate(4 381)">
<title>metaIndex</title>
<polygon fill="white" stroke="transparent" points="-4,4 -4,-381 445.5,-381 445.5,4 -4,4"/>
<!-- Node1 -->
<g id="node1" class="node">
<title>Node1</title>
<g id="a_node1"><a xlink:title=" ">
<polygon fill="#bfbfbf" stroke="black" points="133.5,-0.5 133.5,-19.5 202.5,-19.5 202.5,-0.5 133.5,-0.5"/>
<text text-anchor="middle" x="168" y="-7.5" font-family="Helvetica,sans-Serif" font-size="10.00">metaIndex</text>
</a>
</g>
</g>
<!-- Node2 -->
<g id="node2" class="node">
<title>Node2</title>
<g id="a_node2"><a xlink:title=" ">
<polygon fill="white" stroke="#bfbfbf" points="0,-73 0,-92 140,-92 140,-73 0,-73"/>
<text text-anchor="middle" x="70" y="-80" font-family="Helvetica,sans-Serif" font-size="10.00">vector&lt; pkgIndexFile * &gt;</text>
</a>
</g>
</g>
<!-- Node2&#45;&gt;Node1 -->
<g id="edge1" class="edge">
<title>Node2&#45;&gt;Node1</title>
<path fill="none" stroke="#9a32cd" stroke-dasharray="5,2" d="M83.64,-65.24C91.59,-56.44 102.16,-45.8 113,-38 123.27,-30.61 135.88,-24.25 146.43,-19.57"/>
<polygon fill="#9a32cd" stroke="#9a32cd" points="80.84,-63.13 76.9,-72.97 86.11,-67.73 80.84,-63.13"/>
<text text-anchor="middle" x="133.5" y="-41" font-family="Helvetica,sans-Serif" font-size="10.00"> Indexes</text>
</g>
<!-- Node3 -->
<g id="node3" class="node">
<title>Node3</title>
<g id="a_node3"><a xlink:href="classpkgIndexFile.xhtml" target="_top" xlink:title=" ">
<polygon fill="white" stroke="black" points="30.5,-233.5 30.5,-252.5 109.5,-252.5 109.5,-233.5 30.5,-233.5"/>
<text text-anchor="middle" x="70" y="-240.5" font-family="Helvetica,sans-Serif" font-size="10.00">pkgIndexFile</text>
</a>
</g>
</g>
<!-- Node3&#45;&gt;Node2 -->
<g id="edge2" class="edge">
<title>Node3&#45;&gt;Node2</title>
<path fill="none" stroke="#9a32cd" stroke-dasharray="5,2" d="M70,-223.4C70,-189.03 70,-116.84 70,-92.06"/>
<polygon fill="#9a32cd" stroke="#9a32cd" points="66.5,-223.48 70,-233.48 73.5,-223.48 66.5,-223.48"/>
<text text-anchor="middle" x="94.5" y="-163" font-family="Helvetica,sans-Serif" font-size="10.00"> elements</text>
</g>
<!-- Node4 -->
<g id="node4" class="node">
<title>Node4</title>
<g id="a_node4"><a xlink:title=" ">
<polygon fill="white" stroke="#bfbfbf" points="229,-300.5 229,-319.5 273,-319.5 273,-300.5 229,-300.5"/>
<text text-anchor="middle" x="251" y="-307.5" font-family="Helvetica,sans-Serif" font-size="10.00">string</text>
</a>
</g>
</g>
<!-- Node4&#45;&gt;Node1 -->
<g id="edge3" class="edge">
<title>Node4&#45;&gt;Node1</title>
<path fill="none" stroke="#9a32cd" stroke-dasharray="5,2" d="M236.98,-292.72C222.52,-274.92 200.64,-244.93 190,-215 164.47,-143.17 166.25,-48.88 167.52,-19.87"/>
<polygon fill="#9a32cd" stroke="#9a32cd" points="234.31,-294.98 243.4,-300.42 239.68,-290.5 234.31,-294.98"/>
<text text-anchor="middle" x="224" y="-207" font-family="Helvetica,sans-Serif" font-size="10.00"> Codename</text>
<text text-anchor="middle" x="224" y="-196" font-family="Helvetica,sans-Serif" font-size="10.00">Dist</text>
<text text-anchor="middle" x="224" y="-185" font-family="Helvetica,sans-Serif" font-size="10.00">Label</text>
<text text-anchor="middle" x="224" y="-174" font-family="Helvetica,sans-Serif" font-size="10.00">Origin</text>
<text text-anchor="middle" x="224" y="-163" font-family="Helvetica,sans-Serif" font-size="10.00">ReleaseNotes</text>
<text text-anchor="middle" x="224" y="-152" font-family="Helvetica,sans-Serif" font-size="10.00">SignedBy</text>
<text text-anchor="middle" x="224" y="-141" font-family="Helvetica,sans-Serif" font-size="10.00">Suite</text>
<text text-anchor="middle" x="224" y="-130" font-family="Helvetica,sans-Serif" font-size="10.00">URI</text>
<text text-anchor="middle" x="224" y="-119" font-family="Helvetica,sans-Serif" font-size="10.00">Version</text>
</g>
<!-- Node6 -->
<g id="node6" class="node">
<title>Node6</title>
<g id="a_node6"><a xlink:title=" ">
<polygon fill="white" stroke="#bfbfbf" points="196.5,-67.5 196.5,-97.5 353.5,-97.5 353.5,-67.5 196.5,-67.5"/>
<text text-anchor="start" x="204.5" y="-85.5" font-family="Helvetica,sans-Serif" font-size="10.00">map&lt; std::string, metaIndex</text>
<text text-anchor="middle" x="275" y="-74.5" font-family="Helvetica,sans-Serif" font-size="10.00">::checkSum * &gt;</text>
</a>
</g>
</g>
<!-- Node4&#45;&gt;Node6 -->
<g id="edge6" class="edge">
<title>Node4&#45;&gt;Node6</title>
<path fill="none" stroke="#9a32cd" stroke-dasharray="5,2" d="M252.99,-290.3C257.67,-246.31 269.3,-137.03 273.48,-97.8"/>
<polygon fill="#9a32cd" stroke="#9a32cd" points="249.49,-290.12 251.91,-300.44 256.45,-290.86 249.49,-290.12"/>
<text text-anchor="middle" x="273" y="-240.5" font-family="Helvetica,sans-Serif" font-size="10.00"> keys</text>
</g>
<!-- Node7 -->
<g id="node7" class="node">
<title>Node7</title>
<g id="a_node7"><a xlink:href="structmetaIndex_1_1checkSum.xhtml" target="_top" xlink:title=" ">
<polygon fill="white" stroke="black" points="295.5,-233.5 295.5,-252.5 362.5,-252.5 362.5,-233.5 295.5,-233.5"/>
<text text-anchor="middle" x="329" y="-240.5" font-family="Helvetica,sans-Serif" font-size="10.00">checkSum</text>
</a>
</g>
</g>
<!-- Node4&#45;&gt;Node7 -->
<g id="edge9" class="edge">
<title>Node4&#45;&gt;Node7</title>
<path fill="none" stroke="#9a32cd" stroke-dasharray="5,2" d="M262.13,-292.09C267.32,-285.03 273.9,-277.07 281,-271 289.57,-263.67 300.44,-257.36 309.67,-252.69"/>
<polygon fill="#9a32cd" stroke="#9a32cd" points="259.22,-290.14 256.39,-300.35 264.97,-294.14 259.22,-290.14"/>
<text text-anchor="middle" x="326.5" y="-274" font-family="Helvetica,sans-Serif" font-size="10.00"> MetaKeyFilename</text>
</g>
<!-- Node5 -->
<g id="node5" class="node">
<title>Node5</title>
<g id="a_node5"><a xlink:title=" ">
<polygon fill="white" stroke="#bfbfbf" points="191,-357.5 191,-376.5 311,-376.5 311,-357.5 191,-357.5"/>
<text text-anchor="middle" x="251" y="-364.5" font-family="Helvetica,sans-Serif" font-size="10.00">basic_string&lt; Char &gt;</text>
</a>
</g>
</g>
<!-- Node5&#45;&gt;Node4 -->
<g id="edge4" class="edge">
<title>Node5&#45;&gt;Node4</title>
<path fill="none" stroke="midnightblue" d="M251,-347.12C251,-337.82 251,-327.06 251,-319.71"/>
<polygon fill="midnightblue" stroke="midnightblue" points="247.5,-347.41 251,-357.41 254.5,-347.41 247.5,-347.41"/>
</g>
<!-- Node6&#45;&gt;Node1 -->
<g id="edge5" class="edge">
<title>Node6&#45;&gt;Node1</title>
<path fill="none" stroke="#9a32cd" stroke-dasharray="5,2" d="M244.99,-61.73C223.9,-47.83 196.73,-29.93 180.95,-19.53"/>
<polygon fill="#9a32cd" stroke="#9a32cd" points="243.33,-64.82 253.6,-67.4 247.18,-58.98 243.33,-64.82"/>
<text text-anchor="middle" x="243.5" y="-41" font-family="Helvetica,sans-Serif" font-size="10.00"> Entries</text>
</g>
<!-- Node7&#45;&gt;Node6 -->
<g id="edge7" class="edge">
<title>Node7&#45;&gt;Node6</title>
<path fill="none" stroke="#9a32cd" stroke-dasharray="5,2" d="M322.76,-223.68C311.88,-191.74 289.66,-126.52 279.84,-97.71"/>
<polygon fill="#9a32cd" stroke="#9a32cd" points="319.56,-225.14 326.1,-233.48 326.18,-222.88 319.56,-225.14"/>
<text text-anchor="middle" x="343.5" y="-163" font-family="Helvetica,sans-Serif" font-size="10.00"> elements</text>
</g>
<!-- Node8 -->
<g id="node8" class="node">
<title>Node8</title>
<g id="a_node8"><a xlink:href="classHashStringList.xhtml" target="_top" xlink:title=" ">
<polygon fill="white" stroke="black" points="354.5,-300.5 354.5,-319.5 441.5,-319.5 441.5,-300.5 354.5,-300.5"/>
<text text-anchor="middle" x="398" y="-307.5" font-family="Helvetica,sans-Serif" font-size="10.00">HashStringList</text>
</a>
</g>
</g>
<!-- Node8&#45;&gt;Node7 -->
<g id="edge8" class="edge">
<title>Node8&#45;&gt;Node7</title>
<path fill="none" stroke="#9a32cd" stroke-dasharray="5,2" d="M390.1,-291.06C386.49,-284.22 381.73,-276.71 376,-271 368.4,-263.43 358.25,-257.24 349.33,-252.72"/>
<polygon fill="#9a32cd" stroke="#9a32cd" points="387.06,-292.8 394.55,-300.3 393.37,-289.77 387.06,-292.8"/>
<text text-anchor="middle" x="404" y="-274" font-family="Helvetica,sans-Serif" font-size="10.00"> Hashes</text>
</g>
</g>
</svg>
