<?xml version="1.0" encoding="UTF-8" standalone="no"?>
<!DOCTYPE svg PUBLIC "-//W3C//DTD SVG 1.1//EN"
 "http://www.w3.org/Graphics/SVG/1.1/DTD/svg11.dtd">
<!-- Generated by graphviz version 2.43.0 (0)
 -->
<!-- Title: ARArchive Pages: 1 -->
<svg width="229pt" height="230pt"
 viewBox="0.00 0.00 228.50 230.00" xmlns="http://www.w3.org/2000/svg" xmlns:xlink="http://www.w3.org/1999/xlink">
<g id="graph0" class="graph" transform="scale(1 1) rotate(0) translate(4 226)">
<title>ARArchive</title>
<polygon fill="white" stroke="transparent" points="-4,4 -4,-226 224.5,-226 224.5,4 -4,4"/>
<!-- Node1 -->
<g id="node1" class="node">
<title>Node1</title>
<g id="a_node1"><a xlink:title=" ">
<polygon fill="#bfbfbf" stroke="black" points="52,-0.5 52,-19.5 119,-19.5 119,-0.5 52,-0.5"/>
<text text-anchor="middle" x="85.5" y="-7.5" font-family="Helvetica,sans-Serif" font-size="10.00">ARArchive</text>
</a>
</g>
</g>
<!-- Node2 -->
<g id="node2" class="node">
<title>Node2</title>
<g id="a_node2"><a xlink:href="structARArchive_1_1Member.xhtml" target="_top" xlink:title=" ">
<polygon fill="white" stroke="black" points="0,-67.5 0,-86.5 57,-86.5 57,-67.5 0,-67.5"/>
<text text-anchor="middle" x="28.5" y="-74.5" font-family="Helvetica,sans-Serif" font-size="10.00">Member</text>
</a>
</g>
</g>
<!-- Node2&#45;&gt;Node1 -->
<g id="edge1" class="edge">
<title>Node2&#45;&gt;Node1</title>
<path fill="none" stroke="#9a32cd" stroke-dasharray="5,2" d="M42.85,-59.63C54,-46.92 69.02,-29.8 77.93,-19.63"/>
<polygon fill="#9a32cd" stroke="#9a32cd" points="40.15,-57.41 36.19,-67.23 45.41,-62.02 40.15,-57.41"/>
<text text-anchor="middle" x="71" y="-41" font-family="Helvetica,sans-Serif" font-size="10.00"> List</text>
</g>
<!-- Node2&#45;&gt;Node2 -->
<g id="edge2" class="edge">
<title>Node2&#45;&gt;Node2</title>
<path fill="none" stroke="#9a32cd" stroke-dasharray="5,2" d="M67.12,-82.2C71.88,-81.27 75,-79.54 75,-77 75,-72.94 67.01,-70.94 57.11,-71"/>
<polygon fill="#9a32cd" stroke="#9a32cd" points="66.8,-78.71 57.11,-83 67.35,-85.69 66.8,-78.71"/>
<text text-anchor="middle" x="88.5" y="-74.5" font-family="Helvetica,sans-Serif" font-size="10.00"> Next</text>
</g>
<!-- Node3 -->
<g id="node3" class="node">
<title>Node3</title>
<g id="a_node3"><a xlink:title=" ">
<polygon fill="white" stroke="#bfbfbf" points="63.5,-145.5 63.5,-164.5 107.5,-164.5 107.5,-145.5 63.5,-145.5"/>
<text text-anchor="middle" x="85.5" y="-152.5" font-family="Helvetica,sans-Serif" font-size="10.00">string</text>
</a>
</g>
</g>
<!-- Node3&#45;&gt;Node2 -->
<g id="edge3" class="edge">
<title>Node3&#45;&gt;Node2</title>
<path fill="none" stroke="#9a32cd" stroke-dasharray="5,2" d="M72.75,-137.01C61.03,-121.37 44.11,-98.81 34.96,-86.62"/>
<polygon fill="#9a32cd" stroke="#9a32cd" points="70.16,-139.38 78.96,-145.28 75.76,-135.18 70.16,-139.38"/>
<text text-anchor="middle" x="81" y="-113.5" font-family="Helvetica,sans-Serif" font-size="10.00"> Name</text>
</g>
<!-- Node5 -->
<g id="node5" class="node">
<title>Node5</title>
<g id="a_node5"><a xlink:href="classFileFd.xhtml" target="_top" xlink:title=" ">
<polygon fill="white" stroke="black" points="120.5,-67.5 120.5,-86.5 166.5,-86.5 166.5,-67.5 120.5,-67.5"/>
<text text-anchor="middle" x="143.5" y="-74.5" font-family="Helvetica,sans-Serif" font-size="10.00">FileFd</text>
</a>
</g>
</g>
<!-- Node3&#45;&gt;Node5 -->
<g id="edge6" class="edge">
<title>Node3&#45;&gt;Node5</title>
<path fill="none" stroke="#9a32cd" stroke-dasharray="5,2" d="M98.47,-137.01C110.4,-121.37 127.62,-98.81 136.92,-86.62"/>
<polygon fill="#9a32cd" stroke="#9a32cd" points="95.44,-135.21 92.15,-145.28 101,-139.46 95.44,-135.21"/>
<text text-anchor="middle" x="171" y="-119" font-family="Helvetica,sans-Serif" font-size="10.00"> FileName</text>
<text text-anchor="middle" x="171" y="-108" font-family="Helvetica,sans-Serif" font-size="10.00">TemporaryFileName</text>
</g>
<!-- Node4 -->
<g id="node4" class="node">
<title>Node4</title>
<g id="a_node4"><a xlink:title=" ">
<polygon fill="white" stroke="#bfbfbf" points="25.5,-202.5 25.5,-221.5 145.5,-221.5 145.5,-202.5 25.5,-202.5"/>
<text text-anchor="middle" x="85.5" y="-209.5" font-family="Helvetica,sans-Serif" font-size="10.00">basic_string&lt; Char &gt;</text>
</a>
</g>
</g>
<!-- Node4&#45;&gt;Node3 -->
<g id="edge4" class="edge">
<title>Node4&#45;&gt;Node3</title>
<path fill="none" stroke="midnightblue" d="M85.5,-192.12C85.5,-182.82 85.5,-172.06 85.5,-164.71"/>
<polygon fill="midnightblue" stroke="midnightblue" points="82,-192.41 85.5,-202.41 89,-192.41 82,-192.41"/>
</g>
<!-- Node5&#45;&gt;Node1 -->
<g id="edge5" class="edge">
<title>Node5&#45;&gt;Node1</title>
<path fill="none" stroke="#9a32cd" stroke-dasharray="5,2" d="M128.9,-59.63C117.55,-46.92 102.27,-29.8 93.2,-19.63"/>
<polygon fill="#9a32cd" stroke="#9a32cd" points="126.41,-62.1 135.68,-67.23 131.63,-57.44 126.41,-62.1"/>
<text text-anchor="middle" x="129" y="-41" font-family="Helvetica,sans-Serif" font-size="10.00"> File</text>
</g>
</g>
</svg>
