<svg xmlns="http://www.w3.org/2000/svg" xmlns:xlink="http://www.w3.org/1999/xlink" width="544pt" height="212" viewBox="0 0 543.5 159"><g id="graph0" class="graph" transform="scale(1 1) rotate(0) translate(4 155)"><title>Graph Legend</title><polygon fill="#fff" stroke="transparent" points="-4 4 -4 -155 539.5 -155 539.5 4 -4 4"/><g id="node1" class="node"><title>Node9</title><polygon fill="#bfbfbf" stroke="#000" points="311 -19 251 -19 251 0 311 0 311 -19"/><text x="281" y="-7" font-family="Helvetica,sans-Serif" font-size="10" text-anchor="middle">Inherited</text></g><g id="node2" class="node"><title>Node10</title><polygon fill="none" stroke="#000" points="70 -85 0 -85 0 -66 70 -66 70 -85"/><text x="35" y="-73" font-family="Helvetica,sans-Serif" font-size="10" text-anchor="middle">PublicBase</text></g><g id="edge1" class="edge"><title>Node10-&gt;Node9</title><path fill="none" stroke="#191970" d="M77.7,-63.39C127.22,-50.51 207.6,-29.59 250.97,-18.31"/><polygon fill="#191970" stroke="#191970" points="76.72 -60.03 67.92 -65.94 78.48 -66.8 76.72 -60.03"/></g><g id="node3" class="node"><title>Node11</title><polygon fill="none" stroke="red" points="67 -151 3 -151 3 -132 67 -132 67 -151"/><text x="35" y="-139" font-family="Helvetica,sans-Serif" font-size="10" text-anchor="middle">Truncated</text></g><g id="edge2" class="edge"><title>Node11-&gt;Node10</title><path fill="none" stroke="#191970" d="M35,-121.58C35,-109.63 35,-94.72 35,-85.41"/><polygon fill="#191970" stroke="#191970" points="31.5 -121.87 35 -131.87 38.5 -121.87 31.5 -121.87"/></g><g id="node4" class="node"><title>Node13</title><polygon fill="none" stroke="#000" points="175.5 -85 88.5 -85 88.5 -66 175.5 -66 175.5 -85"/><text x="132" y="-73" font-family="Helvetica,sans-Serif" font-size="10" text-anchor="middle">ProtectedBase</text></g><g id="edge3" class="edge"><title>Node13-&gt;Node9</title><path fill="none" stroke="#006400" d="M161.43,-61.86C190.79,-49.25 235.12,-30.21 260.75,-19.2"/><polygon fill="#006400" stroke="#006400" points="159.9 -58.71 152.09 -65.87 162.66 -65.14 159.9 -58.71"/></g><g id="node5" class="node"><title>Node14</title><polygon fill="none" stroke="#000" points="268.5 -85 193.5 -85 193.5 -66 268.5 -66 268.5 -85"/><text x="231" y="-73" font-family="Helvetica,sans-Serif" font-size="10" text-anchor="middle">PrivateBase</text></g><g id="edge4" class="edge"><title>Node14-&gt;Node9</title><path fill="none" stroke="#8b1a1a" d="M244.07,-57.77C253.66,-45.49 266.31,-29.3 274.04,-19.41"/><polygon fill="#8b1a1a" stroke="#8b1a1a" points="241.14 -55.83 237.74 -65.87 246.66 -60.14 241.14 -55.83"/></g><g id="node6" class="node"><title>Node15</title><polygon fill="none" stroke="#bfbfbf" points="377.5 -85 286.5 -85 286.5 -66 377.5 -66 377.5 -85"/><text x="332" y="-73" font-family="Helvetica,sans-Serif" font-size="10" text-anchor="middle">Undocumented</text></g><g id="edge5" class="edge"><title>Node15-&gt;Node9</title><path fill="none" stroke="#191970" d="M318.67,-57.77C308.88,-45.49 295.98,-29.3 288.1,-19.41"/><polygon fill="#191970" stroke="#191970" points="316.15 -60.23 325.12 -65.87 321.63 -55.87 316.15 -60.23"/></g><g id="node7" class="node"><title>Node16</title><polygon fill="none" stroke="#000" points="476.5 -85 395.5 -85 395.5 -66 476.5 -66 476.5 -85"/><text x="436" y="-73" font-family="Helvetica,sans-Serif" font-size="10" text-anchor="middle">Templ&lt; int &gt;</text></g><g id="edge6" class="edge"><title>Node16-&gt;Node9</title><path fill="none" stroke="#191970" d="M405.78,-62.02C375.24,-49.41 328.84,-30.25 302.07,-19.2"/><polygon fill="#191970" stroke="#191970" points="404.52 -65.29 415.1 -65.87 407.19 -58.82 404.52 -65.29"/></g><g id="node8" class="node"><title>Node17</title><polygon fill="none" stroke="#000" points="473 -151 399 -151 399 -132 473 -132 473 -151"/><text x="436" y="-139" font-family="Helvetica,sans-Serif" font-size="10" text-anchor="middle">Templ&lt; T &gt;</text></g><g id="edge7" class="edge"><title>Node17-&gt;Node16</title><path fill="none" stroke="orange" stroke-dasharray="5 2" d="M436,-121.58C436,-109.63 436,-94.72 436,-85.41"/><polygon fill="orange" stroke="orange" points="432.5 -121.87 436 -131.87 439.5 -121.87 432.5 -121.87"/><text x="454" y="-106" font-family="Helvetica,sans-Serif" font-size="10" text-anchor="middle">&lt; int &gt;</text></g><g id="node9" class="node"><title>Node18</title><polygon fill="none" stroke="#000" points="535.5 -85 494.5 -85 494.5 -66 535.5 -66 535.5 -85"/><text x="515" y="-73" font-family="Helvetica,sans-Serif" font-size="10" text-anchor="middle">Used</text></g><g id="edge8" class="edge"><title>Node18-&gt;Node9</title><path fill="none" stroke="#9a32cd" stroke-dasharray="5 2" d="M484.52,-65.62C417.32,-46.74 349.44,-28.6 311.27,-18.49"/><polygon fill="#9a32cd" stroke="#9a32cd" points="483.85 -69.07 494.42 -68.41 485.74 -62.33 483.85 -69.07"/><text x="450.5" y="-40" font-family="Helvetica,sans-Serif" font-size="10" text-anchor="middle">m_usedClass</text></g></g></svg>