<?xml version="1.0" encoding="UTF-8" standalone="no"?>
<!DOCTYPE svg PUBLIC "-//W3C//DTD SVG 1.1//EN"
 "http://www.w3.org/Graphics/SVG/1.1/DTD/svg11.dtd">
<!-- Generated by graphviz version 2.43.0 (0)
 -->
<!-- Title: Graphical Class Hierarchy Pages: 1 -->
<svg width="447pt" height="85pt"
 viewBox="0.00 0.00 447.00 85.00" xmlns="http://www.w3.org/2000/svg" xmlns:xlink="http://www.w3.org/1999/xlink">
<g id="graph0" class="graph" transform="scale(1 1) rotate(0) translate(4 81)">
<title>Graphical Class Hierarchy</title>
<polygon fill="white" stroke="transparent" points="-4,4 -4,-81 443,-81 443,4 -4,4"/>
<!-- Node188 -->
<g id="node1" class="node">
<title>Node188</title>
<g id="a_node1"><a xlink:title=" ">
<polygon fill="white" stroke="#bfbfbf" points="0,-19.5 0,-38.5 110,-38.5 110,-19.5 0,-19.5"/>
<text text-anchor="middle" x="55" y="-26.5" font-family="Helvetica,sans-Serif" font-size="10.00">pkgRecords::Parser</text>
</a>
</g>
</g>
<!-- Node0 -->
<g id="node2" class="node">
<title>Node0</title>
<g id="a_node2"><a xlink:href="classdebRecordParserBase.xhtml" target="_top" xlink:title=" ">
<polygon fill="white" stroke="black" points="146,-38.5 146,-57.5 268,-57.5 268,-38.5 146,-38.5"/>
<text text-anchor="middle" x="207" y="-45.5" font-family="Helvetica,sans-Serif" font-size="10.00">debRecordParserBase</text>
</a>
</g>
</g>
<!-- Node188&#45;&gt;Node0 -->
<g id="edge1" class="edge">
<title>Node188&#45;&gt;Node0</title>
<path fill="none" stroke="midnightblue" d="M120.35,-37.15C128.8,-38.22 137.44,-39.32 145.83,-40.38"/>
<polygon fill="midnightblue" stroke="midnightblue" points="120.51,-33.64 110.15,-35.86 119.63,-40.59 120.51,-33.64"/>
</g>
<!-- Node192 -->
<g id="node5" class="node">
<title>Node192</title>
<g id="a_node5"><a xlink:href="classpkgRecords.xhtml" target="_top" xlink:title=" ">
<polygon fill="white" stroke="black" points="170,-0.5 170,-19.5 244,-19.5 244,-0.5 170,-0.5"/>
<text text-anchor="middle" x="207" y="-7.5" font-family="Helvetica,sans-Serif" font-size="10.00">pkgRecords</text>
</a>
</g>
</g>
<!-- Node188&#45;&gt;Node192 -->
<g id="edge4" class="edge">
<title>Node188&#45;&gt;Node192</title>
<path fill="none" stroke="#8b1a1a" d="M120.52,-20.83C137.37,-18.69 154.94,-16.47 169.74,-14.59"/>
<polygon fill="#8b1a1a" stroke="#8b1a1a" points="119.63,-17.41 110.15,-22.14 120.51,-24.36 119.63,-17.41"/>
</g>
<!-- Node1 -->
<g id="node3" class="node">
<title>Node1</title>
<g id="a_node3"><a xlink:href="classdebDebFileRecordParser.xhtml" target="_top" xlink:title=" ">
<polygon fill="white" stroke="black" points="304,-57.5 304,-76.5 439,-76.5 439,-57.5 304,-57.5"/>
<text text-anchor="middle" x="371.5" y="-64.5" font-family="Helvetica,sans-Serif" font-size="10.00">debDebFileRecordParser</text>
</a>
</g>
</g>
<!-- Node0&#45;&gt;Node1 -->
<g id="edge2" class="edge">
<title>Node0&#45;&gt;Node1</title>
<path fill="none" stroke="midnightblue" d="M278.01,-56.19C286.59,-57.19 295.34,-58.21 303.86,-59.21"/>
<polygon fill="midnightblue" stroke="midnightblue" points="278.39,-52.71 268.05,-55.02 277.57,-59.66 278.39,-52.71"/>
</g>
<!-- Node2 -->
<g id="node4" class="node">
<title>Node2</title>
<g id="a_node4"><a xlink:href="classdebRecordParser.xhtml" target="_top" xlink:title=" ">
<polygon fill="white" stroke="black" points="322.5,-19.5 322.5,-38.5 420.5,-38.5 420.5,-19.5 322.5,-19.5"/>
<text text-anchor="middle" x="371.5" y="-26.5" font-family="Helvetica,sans-Serif" font-size="10.00">debRecordParser</text>
</a>
</g>
</g>
<!-- Node0&#45;&gt;Node2 -->
<g id="edge3" class="edge">
<title>Node0&#45;&gt;Node2</title>
<path fill="none" stroke="midnightblue" d="M278.25,-39.79C293.13,-38.05 308.52,-36.25 322.36,-34.63"/>
<polygon fill="midnightblue" stroke="midnightblue" points="277.57,-36.34 268.05,-40.98 278.39,-43.29 277.57,-36.34"/>
</g>
</g>
</svg>
