<svg xmlns="http://www.w3.org/2000/svg" xmlns:xlink="http://www.w3.org/1999/xlink" width="380pt" height="104" viewBox="0 0 380 77.5"><g id="graph0" class="graph" transform="scale(1 1) rotate(0) translate(4 73.5)"><title>Graphical Class Hierarchy</title><polygon fill="#fff" stroke="transparent" points="-4 4 -4 -73.5 376 -73.5 376 4 -4 4"/><g id="node1" class="node"><title>Node0</title><g id="a_node1"><a target="_top" xlink:href="classAPT_1_1VersionContainerInterface.xhtml"><polygon fill="#fff" stroke="#000" points="0 -22.5 0 -41.5 143 -41.5 143 -22.5 0 -22.5"/><text x="71.5" y="-29.5" font-family="Helvetica,sans-Serif" font-size="10" text-anchor="middle">VersionContainerInterface</text></a></g></g><g id="node2" class="node"><title>Node1</title><g id="a_node2"><a target="_top" xlink:href="classAPT_1_1VersionContainer.xhtml"><polygon fill="#fff" stroke="#000" points="179 -39 179 -69 372 -69 372 -39 179 -39"/><text x="187" y="-57" font-family="Helvetica,sans-Serif" font-size="10" text-anchor="start">VersionContainer&lt; std</text><text x="275.5" y="-46" font-family="Helvetica,sans-Serif" font-size="10" text-anchor="middle">::vector&lt; pkgCache::VerIterator &gt; &gt;</text></a></g></g><g id="edge1" class="edge"><title>Node0-&gt;Node1</title><path fill="none" stroke="#191970" d="M153.24,-40.79C161.61,-41.71 170.17,-42.64 178.68,-43.56"/><polygon fill="#191970" stroke="#191970" points="153.47 -37.3 143.15 -39.69 152.71 -44.26 153.47 -37.3"/></g><g id="node3" class="node"><title>Node2</title><g id="a_node3"><a target="_top" xlink:href="classAPT_1_1VersionContainer.xhtml"><polygon fill="#fff" stroke="#000" points="190.5 -.5 190.5 -19.5 360.5 -19.5 360.5 -.5 190.5 -.5"/><text x="275.5" y="-7.5" font-family="Helvetica,sans-Serif" font-size="10" text-anchor="middle">VersionContainer&lt; Container &gt;</text></a></g></g><g id="edge2" class="edge"><title>Node0-&gt;Node2</title><path fill="none" stroke="#191970" d="M153.28,-23.2C165.48,-21.87 178.09,-20.5 190.36,-19.16"/><polygon fill="#191970" stroke="#191970" points="152.71 -19.74 143.15 -24.31 153.47 -26.7 152.71 -19.74"/></g></g></svg>