<svg xmlns="http://www.w3.org/2000/svg" xmlns:xlink="http://www.w3.org/1999/xlink" width="284pt" height="88pt" viewBox="0 0 284 88"><g id="graph0" class="graph" transform="scale(1 1) rotate(0) translate(4 84)"><title>Graphical Class Hierarchy</title><polygon fill="#fff" stroke="transparent" points="-4 4 -4 -84 280 -84 280 4 -4 4"/><g id="node1" class="node"><title>Node0</title><g id="a_node1"><a target="_top" xlink:href="structAPT_1_1Internal_1_1PatternTreeParser_1_1Node.xhtml"><polygon fill="#fff" stroke="#000" points="0 -30 0 -49 133 -49 133 -30 0 -30"/><text x="66.5" y="-37" font-family="Helvetica,sans-Serif" font-size="10" text-anchor="middle">PatternTreeParser::Node</text></a></g></g><g id="node2" class="node"><title>Node1</title><g id="a_node2"><a target="_top" xlink:href="structAPT_1_1Internal_1_1PatternTreeParser_1_1PatternNode.xhtml"><polygon fill="#fff" stroke="#000" points="169 -49.5 169 -79.5 276 -79.5 276 -49.5 169 -49.5"/><text x="177" y="-67.5" font-family="Helvetica,sans-Serif" font-size="10" text-anchor="start">PatternTreeParser::</text><text x="222.5" y="-56.5" font-family="Helvetica,sans-Serif" font-size="10" text-anchor="middle">PatternNode</text></a></g></g><g id="edge1" class="edge"><title>Node0-&gt;Node1</title><path fill="none" stroke="#191970" d="M136.08,-50.63C146.97,-52.4 158.1,-54.21 168.56,-55.91"/><polygon fill="#191970" stroke="#191970" points="136.59 -47.17 126.16 -49.02 135.47 -54.08 136.59 -47.17"/></g><g id="node3" class="node"><title>Node2</title><g id="a_node3"><a target="_top" xlink:href="structAPT_1_1Internal_1_1PatternTreeParser_1_1WordNode.xhtml"><polygon fill="#fff" stroke="#000" points="169 -.5 169 -30.5 276 -30.5 276 -.5 169 -.5"/><text x="177" y="-18.5" font-family="Helvetica,sans-Serif" font-size="10" text-anchor="start">PatternTreeParser::</text><text x="222.5" y="-7.5" font-family="Helvetica,sans-Serif" font-size="10" text-anchor="middle">WordNode</text></a></g></g><g id="edge2" class="edge"><title>Node0-&gt;Node2</title><path fill="none" stroke="#191970" d="M138.84,-28.38C148.95,-26.81 159.18,-25.21 168.85,-23.71"/><polygon fill="#191970" stroke="#191970" points="138.15 -24.95 128.81 -29.95 139.23 -31.86 138.15 -24.95"/></g></g></svg>