<?xml version="1.0" encoding="UTF-8" standalone="no"?>
<!DOCTYPE svg PUBLIC "-//W3C//DTD SVG 1.1//EN"
 "http://www.w3.org/Graphics/SVG/1.1/DTD/svg11.dtd">
<!-- Generated by graphviz version 2.43.0 (0)
 -->
<!-- Title: Graphical Class Hierarchy Pages: 1 -->
<svg width="286pt" height="218pt"
 viewBox="0.00 0.00 286.00 218.00" xmlns="http://www.w3.org/2000/svg" xmlns:xlink="http://www.w3.org/1999/xlink">
<g id="graph0" class="graph" transform="scale(1 1) rotate(0) translate(4 214)">
<title>Graphical Class Hierarchy</title>
<polygon fill="white" stroke="transparent" points="-4,4 -4,-214 282,-214 282,4 -4,4"/>
<!-- Node86 -->
<g id="node1" class="node">
<title>Node86</title>
<g id="a_node1"><a xlink:title=" ">
<polygon fill="white" stroke="#bfbfbf" points="12,-190.5 12,-209.5 159,-209.5 159,-190.5 12,-190.5"/>
<text text-anchor="middle" x="85.5" y="-197.5" font-family="Helvetica,sans-Serif" font-size="10.00">Item public WeakPointable</text>
</a>
</g>
</g>
<!-- Node0 -->
<g id="node2" class="node">
<title>Node0</title>
<g id="a_node2"><a xlink:href="classpkgAcquire.xhtml" target="_top" xlink:title="Represents the process by which a pkgAcquire object should retrieve a file or a collection of files.">
<polygon fill="white" stroke="black" points="207,-95.5 207,-114.5 278,-114.5 278,-95.5 207,-95.5"/>
<text text-anchor="middle" x="242.5" y="-102.5" font-family="Helvetica,sans-Serif" font-size="10.00">pkgAcquire</text>
</a>
</g>
</g>
<!-- Node86&#45;&gt;Node0 -->
<g id="edge1" class="edge">
<title>Node86&#45;&gt;Node0</title>
<path fill="none" stroke="#8b1a1a" d="M158.62,-186.99C162.92,-185.24 167.08,-183.25 171,-181 200.33,-164.13 224.6,-131.05 235.43,-114.67"/>
<polygon fill="#8b1a1a" stroke="#8b1a1a" points="157.26,-183.76 149.05,-190.46 159.64,-190.35 157.26,-183.76"/>
</g>
<!-- Node90 -->
<g id="node3" class="node">
<title>Node90</title>
<g id="a_node3"><a xlink:title=" ">
<polygon fill="white" stroke="#bfbfbf" points="0,-152.5 0,-171.5 171,-171.5 171,-152.5 0,-152.5"/>
<text text-anchor="middle" x="85.5" y="-159.5" font-family="Helvetica,sans-Serif" font-size="10.00">ItemDesc public WeakPointable</text>
</a>
</g>
</g>
<!-- Node90&#45;&gt;Node0 -->
<g id="edge2" class="edge">
<title>Node90&#45;&gt;Node0</title>
<path fill="none" stroke="midnightblue" d="M149.2,-149.93C156.63,-147.9 164.05,-145.6 171,-143 191.19,-135.45 212.77,-123.11 226.66,-114.55"/>
<polygon fill="midnightblue" stroke="midnightblue" points="148.26,-146.56 139.44,-152.43 150,-153.34 148.26,-146.56"/>
</g>
<!-- Node163 -->
<g id="node4" class="node">
<title>Node163</title>
<g id="a_node4"><a xlink:title=" ">
<polygon fill="white" stroke="#bfbfbf" points="43.5,-114.5 43.5,-133.5 127.5,-133.5 127.5,-114.5 43.5,-114.5"/>
<text text-anchor="middle" x="85.5" y="-121.5" font-family="Helvetica,sans-Serif" font-size="10.00">MethodConfig</text>
</a>
</g>
</g>
<!-- Node163&#45;&gt;Node0 -->
<g id="edge3" class="edge">
<title>Node163&#45;&gt;Node0</title>
<path fill="none" stroke="midnightblue" d="M137.76,-117.72C160.4,-114.94 186.43,-111.75 206.75,-109.26"/>
<polygon fill="midnightblue" stroke="midnightblue" points="137.13,-114.27 127.63,-118.96 137.98,-121.22 137.13,-114.27"/>
</g>
<!-- Node271 -->
<g id="node5" class="node">
<title>Node271</title>
<g id="a_node5"><a xlink:title=" ">
<polygon fill="white" stroke="#bfbfbf" points="61.5,-76.5 61.5,-95.5 109.5,-95.5 109.5,-76.5 61.5,-76.5"/>
<text text-anchor="middle" x="85.5" y="-83.5" font-family="Helvetica,sans-Serif" font-size="10.00">Queue</text>
</a>
</g>
</g>
<!-- Node271&#45;&gt;Node0 -->
<g id="edge4" class="edge">
<title>Node271&#45;&gt;Node0</title>
<path fill="none" stroke="#8b1a1a" d="M119.72,-90.07C145.42,-93.22 180.89,-97.57 206.92,-100.76"/>
<polygon fill="#8b1a1a" stroke="#8b1a1a" points="120.06,-86.59 109.71,-88.84 119.2,-93.54 120.06,-86.59"/>
</g>
<!-- Node308 -->
<g id="node6" class="node">
<title>Node308</title>
<g id="a_node6"><a xlink:title=" ">
<polygon fill="white" stroke="#bfbfbf" points="52,-38.5 52,-57.5 119,-57.5 119,-38.5 52,-38.5"/>
<text text-anchor="middle" x="85.5" y="-45.5" font-family="Helvetica,sans-Serif" font-size="10.00">UriIterator</text>
</a>
</g>
</g>
<!-- Node308&#45;&gt;Node0 -->
<g id="edge5" class="edge">
<title>Node308&#45;&gt;Node0</title>
<path fill="none" stroke="#8b1a1a" d="M129.27,-55.25C142.84,-58.17 157.76,-62.05 171,-67 191.19,-74.55 212.77,-86.89 226.66,-95.45"/>
<polygon fill="#8b1a1a" stroke="#8b1a1a" points="129.7,-51.76 119.2,-53.19 128.3,-58.62 129.7,-51.76"/>
</g>
<!-- Node317 -->
<g id="node7" class="node">
<title>Node317</title>
<g id="a_node7"><a xlink:title=" ">
<polygon fill="white" stroke="#bfbfbf" points="6.5,-0.5 6.5,-19.5 164.5,-19.5 164.5,-0.5 6.5,-0.5"/>
<text text-anchor="middle" x="85.5" y="-7.5" font-family="Helvetica,sans-Serif" font-size="10.00">Worker public WeakPointable</text>
</a>
</g>
</g>
<!-- Node317&#45;&gt;Node0 -->
<g id="edge6" class="edge">
<title>Node317&#45;&gt;Node0</title>
<path fill="none" stroke="#8b1a1a" d="M158.62,-23.01C162.92,-24.76 167.08,-26.75 171,-29 200.33,-45.87 224.6,-78.95 235.43,-95.33"/>
<polygon fill="#8b1a1a" stroke="#8b1a1a" points="159.64,-19.65 149.05,-19.54 157.26,-26.24 159.64,-19.65"/>
</g>
</g>
</svg>
