<svg xmlns="http://www.w3.org/2000/svg" xmlns:xlink="http://www.w3.org/1999/xlink" width="193pt" height="88" viewBox="0 0 193 66"><g id="graph0" class="graph" transform="scale(1 1) rotate(0) translate(4 62)"><title>Graphical Class Hierarchy</title><polygon fill="#fff" stroke="transparent" points="-4 4 -4 -62 189 -62 189 4 -4 4"/><g id="node1" class="node"><title>Node0</title><g id="a_node1"><a target="_top" xlink:href="classIndexCopy.xhtml"><polygon fill="#fff" stroke="#000" points="0 -19.5 0 -38.5 68 -38.5 68 -19.5 0 -19.5"/><text x="34" y="-26.5" font-family="Helvetica,sans-Serif" font-size="10" text-anchor="middle">IndexCopy</text></a></g></g><g id="node2" class="node"><title>Node1</title><g id="a_node2"><a target="_top" xlink:href="classPackageCopy.xhtml"><polygon fill="#fff" stroke="#000" points="104 -38.5 104 -57.5 185 -57.5 185 -38.5 104 -38.5"/><text x="144.5" y="-45.5" font-family="Helvetica,sans-Serif" font-size="10" text-anchor="middle">PackageCopy</text></a></g></g><g id="edge1" class="edge"><title>Node0-&gt;Node1</title><path fill="none" stroke="#191970" d="M78.17,-36.56C86.59,-38.03 95.38,-39.57 103.69,-41.03"/><polygon fill="#191970" stroke="#191970" points="78.6 -33.08 68.14 -34.8 77.39 -39.98 78.6 -33.08"/></g><g id="node3" class="node"><title>Node2</title><g id="a_node3"><a target="_top" xlink:href="classSourceCopy.xhtml"><polygon fill="#fff" stroke="#000" points="107.5 -.5 107.5 -19.5 181.5 -19.5 181.5 -.5 107.5 -.5"/><text x="144.5" y="-7.5" font-family="Helvetica,sans-Serif" font-size="10" text-anchor="middle">SourceCopy</text></a></g></g><g id="edge2" class="edge"><title>Node0-&gt;Node2</title><path fill="none" stroke="#191970" d="M78.28,-21.42C87.85,-19.74 97.9,-17.99 107.16,-16.36"/><polygon fill="#191970" stroke="#191970" points="77.39 -18.02 68.14 -23.2 78.6 -24.92 77.39 -18.02"/></g></g></svg>