<?xml version="1.0" encoding="UTF-8" standalone="no"?>
<!DOCTYPE svg PUBLIC "-//W3C//DTD SVG 1.1//EN"
 "http://www.w3.org/Graphics/SVG/1.1/DTD/svg11.dtd">
<!-- Generated by graphviz version 2.43.0 (0)
 -->
<!-- Title: Graphical Class Hierarchy Pages: 1 -->
<svg width="738pt" height="275pt"
 viewBox="0.00 0.00 738.00 275.00" xmlns="http://www.w3.org/2000/svg" xmlns:xlink="http://www.w3.org/1999/xlink">
<g id="graph0" class="graph" transform="scale(1 1) rotate(0) translate(4 271)">
<title>Graphical Class Hierarchy</title>
<polygon fill="white" stroke="transparent" points="-4,4 -4,-271 734,-271 734,4 -4,4"/>
<!-- Node67 -->
<g id="node1" class="node">
<title>Node67</title>
<g id="a_node1"><a xlink:title=" ">
<polygon fill="white" stroke="#bfbfbf" points="0,-171.5 0,-190.5 100,-190.5 100,-171.5 0,-171.5"/>
<text text-anchor="middle" x="50" y="-178.5" font-family="Helvetica,sans-Serif" font-size="10.00">pkgAcquire::Item</text>
</a>
</g>
</g>
<!-- Node0 -->
<g id="node2" class="node">
<title>Node0</title>
<g id="a_node2"><a xlink:href="classNoActionItem.xhtml" target="_top" xlink:title=" ">
<polygon fill="white" stroke="black" points="160,-247.5 160,-266.5 243,-266.5 243,-247.5 160,-247.5"/>
<text text-anchor="middle" x="201.5" y="-254.5" font-family="Helvetica,sans-Serif" font-size="10.00">NoActionItem</text>
</a>
</g>
</g>
<!-- Node67&#45;&gt;Node0 -->
<g id="edge1" class="edge">
<title>Node67&#45;&gt;Node0</title>
<path fill="none" stroke="midnightblue" d="M71.02,-197C87.62,-209.61 112.25,-226.86 136,-238 143.82,-241.67 152.51,-244.8 160.91,-247.41"/>
<polygon fill="midnightblue" stroke="midnightblue" points="72.74,-193.9 62.69,-190.54 68.45,-199.43 72.74,-193.9"/>
</g>
<!-- Node69 -->
<g id="node3" class="node">
<title>Node69</title>
<g id="a_node3"><a xlink:href="classpkgAcqArchive.xhtml" target="_top" xlink:title="An item that is responsible for fetching a package file. {{{.">
<polygon fill="white" stroke="black" points="157,-209.5 157,-228.5 246,-228.5 246,-209.5 157,-209.5"/>
<text text-anchor="middle" x="201.5" y="-216.5" font-family="Helvetica,sans-Serif" font-size="10.00">pkgAcqArchive</text>
</a>
</g>
</g>
<!-- Node67&#45;&gt;Node69 -->
<g id="edge2" class="edge">
<title>Node67&#45;&gt;Node69</title>
<path fill="none" stroke="midnightblue" d="M98.65,-193.11C119.47,-198.4 143.54,-204.52 163.05,-209.48"/>
<polygon fill="midnightblue" stroke="midnightblue" points="99.28,-189.66 88.73,-190.59 97.55,-196.44 99.28,-189.66"/>
</g>
<!-- Node70 -->
<g id="node4" class="node">
<title>Node70</title>
<g id="a_node4"><a xlink:href="classpkgAcqChangelog.xhtml" target="_top" xlink:title="Retrieve the changelog for the given version {{{.">
<polygon fill="white" stroke="black" points="149.5,-171.5 149.5,-190.5 253.5,-190.5 253.5,-171.5 149.5,-171.5"/>
<text text-anchor="middle" x="201.5" y="-178.5" font-family="Helvetica,sans-Serif" font-size="10.00">pkgAcqChangelog</text>
</a>
</g>
</g>
<!-- Node67&#45;&gt;Node70 -->
<g id="edge3" class="edge">
<title>Node67&#45;&gt;Node70</title>
<path fill="none" stroke="midnightblue" d="M110.52,-181C123.39,-181 136.88,-181 149.39,-181"/>
<polygon fill="midnightblue" stroke="midnightblue" points="110.37,-177.5 100.37,-181 110.37,-184.5 110.37,-177.5"/>
</g>
<!-- Node71 -->
<g id="node5" class="node">
<title>Node71</title>
<g id="a_node5"><a xlink:href="classpkgAcqFile.xhtml" target="_top" xlink:title="Retrieve an arbitrary file to the current directory. {{{.">
<polygon fill="white" stroke="black" points="166.5,-133.5 166.5,-152.5 236.5,-152.5 236.5,-133.5 166.5,-133.5"/>
<text text-anchor="middle" x="201.5" y="-140.5" font-family="Helvetica,sans-Serif" font-size="10.00">pkgAcqFile</text>
</a>
</g>
</g>
<!-- Node67&#45;&gt;Node71 -->
<g id="edge4" class="edge">
<title>Node67&#45;&gt;Node71</title>
<path fill="none" stroke="midnightblue" d="M98.56,-168.91C120.6,-163.31 146.29,-156.78 166.37,-151.68"/>
<polygon fill="midnightblue" stroke="midnightblue" points="97.55,-165.56 88.73,-171.41 99.28,-172.34 97.55,-165.56"/>
</g>
<!-- Node73 -->
<g id="node7" class="node">
<title>Node73</title>
<g id="a_node7"><a xlink:href="classpkgAcqTransactionItem.xhtml" target="_top" xlink:title="baseclass for the indexes files to manage them all together">
<polygon fill="white" stroke="black" points="136,-76.5 136,-95.5 267,-95.5 267,-76.5 136,-76.5"/>
<text text-anchor="middle" x="201.5" y="-83.5" font-family="Helvetica,sans-Serif" font-size="10.00">pkgAcqTransactionItem</text>
</a>
</g>
</g>
<!-- Node67&#45;&gt;Node73 -->
<g id="edge6" class="edge">
<title>Node67&#45;&gt;Node73</title>
<path fill="none" stroke="midnightblue" d="M73.34,-165.5C90.35,-153.83 114.43,-137.57 136,-124 151.95,-113.96 170.53,-103.11 183.63,-95.58"/>
<polygon fill="midnightblue" stroke="midnightblue" points="70.93,-162.91 64.68,-171.47 74.9,-168.68 70.93,-162.91"/>
</g>
<!-- Node72 -->
<g id="node6" class="node">
<title>Node72</title>
<g id="a_node6"><a xlink:href="classpkgAcqAuxFile.xhtml" target="_top" xlink:title=" ">
<polygon fill="white" stroke="black" points="310.5,-152.5 310.5,-171.5 399.5,-171.5 399.5,-152.5 310.5,-152.5"/>
<text text-anchor="middle" x="355" y="-159.5" font-family="Helvetica,sans-Serif" font-size="10.00">pkgAcqAuxFile</text>
</a>
</g>
</g>
<!-- Node71&#45;&gt;Node72 -->
<g id="edge5" class="edge">
<title>Node71&#45;&gt;Node72</title>
<path fill="none" stroke="midnightblue" d="M246.95,-148.58C266.91,-151.08 290.38,-154.02 310.25,-156.51"/>
<polygon fill="midnightblue" stroke="midnightblue" points="247.24,-145.08 236.88,-147.31 246.36,-152.03 247.24,-145.08"/>
</g>
<!-- Node74 -->
<g id="node8" class="node">
<title>Node74</title>
<g id="a_node8"><a xlink:href="classCleanupItem.xhtml" target="_top" xlink:title=" ">
<polygon fill="white" stroke="black" points="315.5,-114.5 315.5,-133.5 394.5,-133.5 394.5,-114.5 315.5,-114.5"/>
<text text-anchor="middle" x="355" y="-121.5" font-family="Helvetica,sans-Serif" font-size="10.00">CleanupItem</text>
</a>
</g>
</g>
<!-- Node73&#45;&gt;Node74 -->
<g id="edge7" class="edge">
<title>Node73&#45;&gt;Node74</title>
<path fill="none" stroke="midnightblue" d="M250.5,-98.04C271.67,-103.35 296.19,-109.5 316.05,-114.48"/>
<polygon fill="midnightblue" stroke="midnightblue" points="251.28,-94.63 240.73,-95.59 249.58,-101.42 251.28,-94.63"/>
</g>
<!-- Node75 -->
<g id="node9" class="node">
<title>Node75</title>
<g id="a_node9"><a xlink:href="classpkgAcqBaseIndex.xhtml" target="_top" xlink:title="Common base class for all classes that deal with fetching indexes {{{.">
<polygon fill="white" stroke="black" points="303,-76.5 303,-95.5 407,-95.5 407,-76.5 303,-76.5"/>
<text text-anchor="middle" x="355" y="-83.5" font-family="Helvetica,sans-Serif" font-size="10.00">pkgAcqBaseIndex</text>
</a>
</g>
</g>
<!-- Node73&#45;&gt;Node75 -->
<g id="edge8" class="edge">
<title>Node73&#45;&gt;Node75</title>
<path fill="none" stroke="midnightblue" d="M277.29,-86C285.93,-86 294.58,-86 302.8,-86"/>
<polygon fill="midnightblue" stroke="midnightblue" points="277.19,-82.5 267.19,-86 277.19,-89.5 277.19,-82.5"/>
</g>
<!-- Node80 -->
<g id="node14" class="node">
<title>Node80</title>
<g id="a_node14"><a xlink:href="classpkgAcqMetaBase.xhtml" target="_top" xlink:title="the manager of a transaction">
<polygon fill="white" stroke="black" points="304.5,-38.5 304.5,-57.5 405.5,-57.5 405.5,-38.5 304.5,-38.5"/>
<text text-anchor="middle" x="355" y="-45.5" font-family="Helvetica,sans-Serif" font-size="10.00">pkgAcqMetaBase</text>
</a>
</g>
</g>
<!-- Node73&#45;&gt;Node80 -->
<g id="edge13" class="edge">
<title>Node73&#45;&gt;Node80</title>
<path fill="none" stroke="midnightblue" d="M250.5,-73.96C271.67,-68.65 296.19,-62.5 316.05,-57.52"/>
<polygon fill="midnightblue" stroke="midnightblue" points="249.58,-70.58 240.73,-76.41 251.28,-77.37 249.58,-70.58"/>
</g>
<!-- Node83 -->
<g id="node17" class="node">
<title>Node83</title>
<g id="a_node17"><a xlink:href="classpkgAcqMetaSig.xhtml" target="_top" xlink:title="An acquire item that downloads the detached signature {{{ of a meta&#45;index (Release) file,...">
<polygon fill="white" stroke="black" points="309,-0.5 309,-19.5 401,-19.5 401,-0.5 309,-0.5"/>
<text text-anchor="middle" x="355" y="-7.5" font-family="Helvetica,sans-Serif" font-size="10.00">pkgAcqMetaSig</text>
</a>
</g>
</g>
<!-- Node73&#45;&gt;Node83 -->
<g id="edge16" class="edge">
<title>Node73&#45;&gt;Node83</title>
<path fill="none" stroke="midnightblue" d="M226.51,-70.94C246.52,-58.75 276.01,-41.59 303,-29 310.28,-25.61 318.35,-22.37 325.88,-19.56"/>
<polygon fill="midnightblue" stroke="midnightblue" points="224.44,-68.1 217.76,-76.33 228.11,-74.06 224.44,-68.1"/>
</g>
<!-- Node76 -->
<g id="node10" class="node">
<title>Node76</title>
<g id="a_node10"><a xlink:href="classpkgAcqIndex.xhtml" target="_top" xlink:title="An acquire item that is responsible for fetching an index {{{ file (e.g., Packages or Sources).">
<polygon fill="white" stroke="black" points="469.5,-133.5 469.5,-152.5 549.5,-152.5 549.5,-133.5 469.5,-133.5"/>
<text text-anchor="middle" x="509.5" y="-140.5" font-family="Helvetica,sans-Serif" font-size="10.00">pkgAcqIndex</text>
</a>
</g>
</g>
<!-- Node75&#45;&gt;Node76 -->
<g id="edge9" class="edge">
<title>Node75&#45;&gt;Node76</title>
<path fill="none" stroke="midnightblue" d="M393.09,-99.18C397.81,-101.04 402.55,-103 407,-105 423.51,-112.4 426.23,-117.22 443,-124 451.78,-127.55 461.47,-130.73 470.64,-133.44"/>
<polygon fill="midnightblue" stroke="midnightblue" points="394.11,-95.82 383.52,-95.51 391.61,-102.36 394.11,-95.82"/>
</g>
<!-- Node78 -->
<g id="node12" class="node">
<title>Node78</title>
<g id="a_node12"><a xlink:href="classpkgAcqIndexDiffs.xhtml" target="_top" xlink:title="An item that is responsible for fetching server&#45;merge patches {{{ that need to be applied to a given ...">
<polygon fill="white" stroke="black" points="458.5,-95.5 458.5,-114.5 560.5,-114.5 560.5,-95.5 458.5,-95.5"/>
<text text-anchor="middle" x="509.5" y="-102.5" font-family="Helvetica,sans-Serif" font-size="10.00">pkgAcqIndexDiffs</text>
</a>
</g>
</g>
<!-- Node75&#45;&gt;Node78 -->
<g id="edge11" class="edge">
<title>Node75&#45;&gt;Node78</title>
<path fill="none" stroke="midnightblue" d="M417.46,-93.66C431.09,-95.36 445.36,-97.13 458.47,-98.77"/>
<polygon fill="midnightblue" stroke="midnightblue" points="417.56,-90.14 407.2,-92.38 416.7,-97.09 417.56,-90.14"/>
</g>
<!-- Node79 -->
<g id="node13" class="node">
<title>Node79</title>
<g id="a_node13"><a xlink:href="classpkgAcqIndexMergeDiffs.xhtml" target="_top" xlink:title="An item that is responsible for fetching client&#45;merge patches {{{ that need to be applied to a given ...">
<polygon fill="white" stroke="black" points="443,-57.5 443,-76.5 576,-76.5 576,-57.5 443,-57.5"/>
<text text-anchor="middle" x="509.5" y="-64.5" font-family="Helvetica,sans-Serif" font-size="10.00">pkgAcqIndexMergeDiffs</text>
</a>
</g>
</g>
<!-- Node75&#45;&gt;Node79 -->
<g id="edge12" class="edge">
<title>Node75&#45;&gt;Node79</title>
<path fill="none" stroke="midnightblue" d="M417.29,-78.36C425.69,-77.32 434.34,-76.24 442.81,-75.18"/>
<polygon fill="midnightblue" stroke="midnightblue" points="416.7,-74.91 407.2,-79.62 417.56,-81.86 416.7,-74.91"/>
</g>
<!-- Node77 -->
<g id="node11" class="node">
<title>Node77</title>
<g id="a_node11"><a xlink:href="classpkgAcqDiffIndex.xhtml" target="_top" xlink:title="An item that is responsible for fetching an index file of {{{ package list diffs and starting the pac...">
<polygon fill="white" stroke="black" points="622.5,-133.5 622.5,-152.5 719.5,-152.5 719.5,-133.5 622.5,-133.5"/>
<text text-anchor="middle" x="671" y="-140.5" font-family="Helvetica,sans-Serif" font-size="10.00">pkgAcqDiffIndex</text>
</a>
</g>
</g>
<!-- Node76&#45;&gt;Node77 -->
<g id="edge10" class="edge">
<title>Node76&#45;&gt;Node77</title>
<path fill="none" stroke="midnightblue" d="M559.63,-143C579.56,-143 602.49,-143 622.27,-143"/>
<polygon fill="midnightblue" stroke="midnightblue" points="559.52,-139.5 549.52,-143 559.52,-146.5 559.52,-139.5"/>
</g>
<!-- Node81 -->
<g id="node15" class="node">
<title>Node81</title>
<g id="a_node15"><a xlink:href="classpkgAcqMetaIndex.xhtml" target="_top" xlink:title="An item that is responsible for downloading the meta&#45;index {{{ file (i.e., Release) itself and verify...">
<polygon fill="white" stroke="black" points="457.5,-19.5 457.5,-38.5 561.5,-38.5 561.5,-19.5 457.5,-19.5"/>
<text text-anchor="middle" x="509.5" y="-26.5" font-family="Helvetica,sans-Serif" font-size="10.00">pkgAcqMetaIndex</text>
</a>
</g>
</g>
<!-- Node80&#45;&gt;Node81 -->
<g id="edge14" class="edge">
<title>Node80&#45;&gt;Node81</title>
<path fill="none" stroke="midnightblue" d="M415.44,-40.59C429.3,-38.87 443.94,-37.04 457.4,-35.37"/>
<polygon fill="midnightblue" stroke="midnightblue" points="415,-37.12 405.51,-41.83 415.87,-44.07 415,-37.12"/>
</g>
<!-- Node82 -->
<g id="node16" class="node">
<title>Node82</title>
<g id="a_node16"><a xlink:href="classpkgAcqMetaClearSig.xhtml" target="_top" xlink:title="An item responsible for downloading clearsigned metaindexes {{{.">
<polygon fill="white" stroke="black" points="612,-19.5 612,-38.5 730,-38.5 730,-19.5 612,-19.5"/>
<text text-anchor="middle" x="671" y="-26.5" font-family="Helvetica,sans-Serif" font-size="10.00">pkgAcqMetaClearSig</text>
</a>
</g>
</g>
<!-- Node81&#45;&gt;Node82 -->
<g id="edge15" class="edge">
<title>Node81&#45;&gt;Node82</title>
<path fill="none" stroke="midnightblue" d="M572.13,-29C585.18,-29 598.91,-29 611.83,-29"/>
<polygon fill="midnightblue" stroke="midnightblue" points="571.84,-25.5 561.84,-29 571.84,-32.5 571.84,-25.5"/>
</g>
</g>
</svg>
