<svg xmlns="http://www.w3.org/2000/svg" xmlns:xlink="http://www.w3.org/1999/xlink" width="434pt" height="28pt" viewBox="0 0 434 28"><g id="graph0" class="graph" transform="scale(1 1) rotate(0) translate(4 24)"><title>Graphical Class Hierarchy</title><polygon fill="#fff" stroke="transparent" points="-4 4 -4 -24 430 -24 430 4 -4 4"/><g id="node1" class="node"><title>Node0</title><g id="a_node1"><a target="_top" xlink:href="classpkgSrcRecords_1_1Parser.xhtml"><polygon fill="#fff" stroke="#000" points="0 -.5 0 -19.5 125 -19.5 125 -.5 0 -.5"/><text x="62.5" y="-7.5" font-family="Helvetica,sans-Serif" font-size="10" text-anchor="middle">pkgSrcRecords::Parser</text></a></g></g><g id="node2" class="node"><title>Node1</title><g id="a_node2"><a target="_top" xlink:href="classdebSrcRecordParser.xhtml"><polygon fill="#fff" stroke="#000" points="161 -.5 161 -19.5 274 -19.5 274 -.5 161 -.5"/><text x="217.5" y="-7.5" font-family="Helvetica,sans-Serif" font-size="10" text-anchor="middle">debSrcRecordParser</text></a></g></g><g id="edge1" class="edge"><title>Node0-&gt;Node1</title><path fill="none" stroke="#191970" d="M135.32,-10C143.91,-10 152.58,-10 160.9,-10"/><polygon fill="#191970" stroke="#191970" points="135.29 -6.5 125.29 -10 135.29 -13.5 135.29 -6.5"/></g><g id="node3" class="node"><title>Node2</title><g id="a_node3"><a target="_top" xlink:href="classdebDscRecordParser.xhtml"><polygon fill="#fff" stroke="#000" points="310 -.5 310 -19.5 426 -19.5 426 -.5 310 -.5"/><text x="368" y="-7.5" font-family="Helvetica,sans-Serif" font-size="10" text-anchor="middle">debDscRecordParser</text></a></g></g><g id="edge2" class="edge"><title>Node1-&gt;Node2</title><path fill="none" stroke="#191970" d="M284.49,-10C292.99,-10 301.64,-10 309.98,-10"/><polygon fill="#191970" stroke="#191970" points="284.22 -6.5 274.22 -10 284.22 -13.5 284.22 -6.5"/></g></g></svg>