<svg xmlns="http://www.w3.org/2000/svg" xmlns:xlink="http://www.w3.org/1999/xlink" width="364pt" height="88" viewBox="0 0 364 66"><g id="graph0" class="graph" transform="scale(1 1) rotate(0) translate(4 62)"><title>Graphical Class Hierarchy</title><polygon fill="#fff" stroke="transparent" points="-4 4 -4 -62 360 -62 360 4 -4 4"/><g id="node1" class="node"><title>Node0</title><g id="a_node1"><a target="_top" xlink:href="classAPT_1_1PackageContainerInterface.xhtml"><polygon fill="#fff" stroke="#000" points="0 -19.5 0 -38.5 147 -38.5 147 -19.5 0 -19.5"/><text x="73.5" y="-26.5" font-family="Helvetica,sans-Serif" font-size="10" text-anchor="middle">PackageContainerInterface</text></a></g></g><g id="node2" class="node"><title>Node1</title><g id="a_node2"><a target="_top" xlink:href="classAPT_1_1PackageContainer.xhtml"><polygon fill="#fff" stroke="#000" points="183 -38.5 183 -57.5 356 -57.5 356 -38.5 183 -38.5"/><text x="269.5" y="-45.5" font-family="Helvetica,sans-Serif" font-size="10" text-anchor="middle">PackageContainer&lt; Container &gt;</text></a></g></g><g id="edge1" class="edge"><title>Node0-&gt;Node1</title><path fill="none" stroke="#191970" d="M157.02,-37.08C165.61,-37.92 174.36,-38.78 182.99,-39.63"/><polygon fill="#191970" stroke="#191970" points="157.31 -33.59 147.01 -36.1 156.63 -40.56 157.31 -33.59"/></g><g id="node3" class="node"><title>Node2</title><g id="a_node3"><a target="_top" xlink:href="classAPT_1_1PackageUniverse.xhtml"><polygon fill="#fff" stroke="#000" points="219.5 -.5 219.5 -19.5 319.5 -19.5 319.5 -.5 219.5 -.5"/><text x="269.5" y="-7.5" font-family="Helvetica,sans-Serif" font-size="10" text-anchor="middle">PackageUniverse</text></a></g></g><g id="edge2" class="edge"><title>Node0-&gt;Node2</title><path fill="none" stroke="#191970" d="M157.01,-20.92C178.22,-18.84 200.39,-16.67 219.31,-14.82"/><polygon fill="#191970" stroke="#191970" points="156.63 -17.44 147.01 -21.9 157.31 -24.41 156.63 -17.44"/></g></g></svg>