<svg xmlns="http://www.w3.org/2000/svg" xmlns:xlink="http://www.w3.org/1999/xlink" width="508" height="164" viewBox="0 0 381 123"><g id="graph0" class="graph" transform="scale(1 1) rotate(0) translate(4 119)"><title>Graphical Class Hierarchy</title><polygon fill="#fff" stroke="transparent" points="-4 4 -4 -119 377 -119 377 4 -4 4"/><g id="node1" class="node"><title>Node0</title><g id="a_node1"><a target="_top" xlink:href="classpkgCache_1_1Namespace.xhtml"><polygon fill="#fff" stroke="#000" points="0 -52 0 -82 106 -82 106 -52 0 -52"/><text x="8" y="-70" font-family="Helvetica,sans-Serif" font-size="10" text-anchor="start">pkgCache&lt; Str, Itr</text><text x="53" y="-59" font-family="Helvetica,sans-Serif" font-size="10" text-anchor="middle">&gt;::Namespace</text></a></g></g><g id="node2" class="node"><title>Node1</title><g id="a_node2"><a target="_top" xlink:href="classpkgDepCache.xhtml"><polygon fill="#fff" stroke="#000" points="158.5 -95.5 158.5 -114.5 242.5 -114.5 242.5 -95.5 158.5 -95.5"/><text x="200.5" y="-102.5" font-family="Helvetica,sans-Serif" font-size="10" text-anchor="middle">pkgDepCache</text></a></g></g><g id="edge1" class="edge"><title>Node0-&gt;Node1</title><path fill="none" stroke="#006400" d="M115.94,-83.18C131.9,-87.34 148.57,-91.7 162.79,-95.41"/><polygon fill="#006400" stroke="#006400" points="116.68 -79.75 106.12 -80.61 114.91 -86.52 116.68 -79.75"/></g><g id="node3" class="node"><title>Node2</title><g id="a_node3"><a target="_top" xlink:href="classpkgOrderList.xhtml"><polygon fill="#fff" stroke="#000" points="161 -57.5 161 -76.5 240 -76.5 240 -57.5 161 -57.5"/><text x="200.5" y="-64.5" font-family="Helvetica,sans-Serif" font-size="10" text-anchor="middle">pkgOrderList</text></a></g></g><g id="edge2" class="edge"><title>Node0-&gt;Node2</title><path fill="none" stroke="#006400" d="M116.46,-67C131.59,-67 147.33,-67 160.98,-67"/><polygon fill="#006400" stroke="#006400" points="116.12 -63.5 106.12 -67 116.12 -70.5 116.12 -63.5"/></g><g id="node4" class="node"><title>Node3</title><g id="a_node4"><a target="_top" xlink:href="classpkgPackageManager.xhtml"><polygon fill="#fff" stroke="#000" points="142 -19.5 142 -38.5 259 -38.5 259 -19.5 142 -19.5"/><text x="200.5" y="-26.5" font-family="Helvetica,sans-Serif" font-size="10" text-anchor="middle">pkgPackageManager</text></a></g></g><g id="edge3" class="edge"><title>Node0-&gt;Node3</title><path fill="none" stroke="#006400" d="M115.94,-50.82C131.9,-46.66 148.57,-42.3 162.79,-38.59"/><polygon fill="#006400" stroke="#006400" points="114.91 -47.48 106.12 -53.39 116.68 -54.25 114.91 -47.48"/></g><g id="node5" class="node"><title>Node4</title><g id="a_node5"><a target="_top" xlink:href="classpkgDPkgPM.xhtml"><polygon fill="#fff" stroke="#000" points="296.5 -38.5 296.5 -57.5 371.5 -57.5 371.5 -38.5 296.5 -38.5"/><text x="334" y="-45.5" font-family="Helvetica,sans-Serif" font-size="10" text-anchor="middle">pkgDPkgPM</text></a></g></g><g id="edge4" class="edge"><title>Node3-&gt;Node4</title><path fill="none" stroke="#191970" d="M269.24,-38.79C278.52,-40.13 287.75,-41.46 296.18,-42.68"/><polygon fill="#191970" stroke="#191970" points="269.58 -35.3 259.18 -37.33 268.57 -42.23 269.58 -35.3"/></g><g id="node6" class="node"><title>Node5</title><g id="a_node6"><a target="_top" xlink:href="classpkgSimulate.xhtml"><polygon fill="#fff" stroke="#000" points="295 -.5 295 -19.5 373 -19.5 373 -.5 295 -.5"/><text x="334" y="-7.5" font-family="Helvetica,sans-Serif" font-size="10" text-anchor="middle">pkgSimulate</text></a></g></g><g id="edge5" class="edge"><title>Node3-&gt;Node5</title><path fill="none" stroke="#191970" d="M269.08,-19.24C277.86,-17.97 286.59,-16.71 294.66,-15.54"/><polygon fill="#191970" stroke="#191970" points="268.57 -15.77 259.18 -20.67 269.58 -22.7 268.57 -15.77"/></g></g></svg>