<svg xmlns="http://www.w3.org/2000/svg" xmlns:xlink="http://www.w3.org/1999/xlink" width="508pt" height="104" viewBox="0 0 508 77.5"><g id="graph0" class="graph" transform="scale(1 1) rotate(0) translate(4 73.5)"><title>Graphical Class Hierarchy</title><polygon fill="#fff" stroke="transparent" points="-4 4 -4 -73.5 504 -73.5 504 4 -4 4"/><g id="node1" class="node"><title>Node0</title><g id="a_node1"><a target="_top" xlink:href="classpkgDepCache_1_1InRootSetFunc.xhtml" xlink:title="An arbitrary predicate on packages."><polygon fill="#fff" stroke="#000" points="0 -50 0 -69 160 -69 160 -50 0 -50"/><text x="80" y="-57" font-family="Helvetica,sans-Serif" font-size="10" text-anchor="middle">pkgDepCache::InRootSetFunc</text></a></g></g><g id="node2" class="node"><title>Node1</title><g id="a_node2"><a target="_top" xlink:href="classpkgDepCache_1_1DefaultRootSetFunc.xhtml" xlink:title="Returns true for packages matching a regular expression in APT::NeverAutoRemove."><polygon fill="#fff" stroke="#000" points="196 -22.5 196 -52.5 345 -52.5 345 -22.5 196 -22.5"/><text x="204" y="-40.5" font-family="Helvetica,sans-Serif" font-size="10" text-anchor="start">pkgDepCache::DefaultRoot</text><text x="270.5" y="-29.5" font-family="Helvetica,sans-Serif" font-size="10" text-anchor="middle">SetFunc</text></a></g></g><g id="edge1" class="edge"><title>Node0-&gt;Node1</title><path fill="none" stroke="#191970" d="M170.21,-49.09C178.85,-48.08 187.54,-47.07 195.99,-46.08"/><polygon fill="#191970" stroke="#191970" points="169.65 -45.63 160.12 -50.27 170.46 -52.58 169.65 -45.63"/></g><g id="node3" class="node"><title>Node2</title><g id="a_node3"><a target="_top" xlink:href="classDefaultRootSetFunc2.xhtml" xlink:title="Returns true for packages matching a regular expression in APT::NeverAutoRemove."><polygon fill="#fff" stroke="#000" points="381 -28 381 -47 500 -47 500 -28 381 -28"/><text x="440.5" y="-35" font-family="Helvetica,sans-Serif" font-size="10" text-anchor="middle">DefaultRootSetFunc2</text></a></g></g><g id="edge2" class="edge"><title>Node1-&gt;Node2</title><path fill="none" stroke="#191970" d="M355.27,-37.5C363.89,-37.5 372.5,-37.5 380.76,-37.5"/><polygon fill="#191970" stroke="#191970" points="355.19 -34 345.19 -37.5 355.19 -41 355.19 -34"/></g><g id="node4" class="node"><title>Node124</title><g id="a_node4"><a target="_top" xlink:href="classConfiguration_1_1MatchAgainstConfig.xhtml" xlink:title="match a string against a configurable list of patterns"><polygon fill="#fff" stroke="#000" points="2.5 -.5 2.5 -30.5 157.5 -30.5 157.5 -.5 2.5 -.5"/><text x="10.5" y="-18.5" font-family="Helvetica,sans-Serif" font-size="10" text-anchor="start">Configuration::MatchAgainst</text><text x="80" y="-7.5" font-family="Helvetica,sans-Serif" font-size="10" text-anchor="middle">Config</text></a></g></g><g id="edge3" class="edge"><title>Node124-&gt;Node1</title><path fill="none" stroke="#191970" d="M167.82,-25.63C177.22,-26.73 186.72,-27.84 195.95,-28.92"/><polygon fill="#191970" stroke="#191970" points="168.01 -22.13 157.67 -24.45 167.2 -29.08 168.01 -22.13"/></g></g></svg>