<svg xmlns="http://www.w3.org/2000/svg" xmlns:xlink="http://www.w3.org/1999/xlink" width="520pt" height="161pt" viewBox="0 0 520 161"><g id="graph0" class="graph" transform="scale(1 1) rotate(0) translate(4 157)"><title>Graphical Class Hierarchy</title><polygon fill="#fff" stroke="transparent" points="-4 4 -4 -157 516 -157 516 4 -4 4"/><g id="node1" class="node"><title>Node0</title><g id="a_node1"><a target="_top" xlink:href="classpkgCacheListParser.xhtml"><polygon fill="#fff" stroke="#000" points="0 -76.5 0 -95.5 112 -95.5 112 -76.5 0 -76.5"/><text x="56" y="-83.5" font-family="Helvetica,sans-Serif" font-size="10" text-anchor="middle">pkgCacheListParser</text></a></g></g><g id="node2" class="node"><title>Node1</title><g id="a_node2"><a target="_top" xlink:href="classdebListParser.xhtml"><polygon fill="#fff" stroke="#000" points="148 -76.5 148 -95.5 230 -95.5 230 -76.5 148 -76.5"/><text x="189" y="-83.5" font-family="Helvetica,sans-Serif" font-size="10" text-anchor="middle">debListParser</text></a></g></g><g id="edge1" class="edge"><title>Node0-&gt;Node1</title><path fill="none" stroke="#191970" d="M122.28,-86C130.92,-86 139.57,-86 147.61,-86"/><polygon fill="#191970" stroke="#191970" points="122.18 -82.5 112.18 -86 122.18 -89.5 122.18 -82.5"/></g><g id="node3" class="node"><title>Node2</title><g id="a_node3"><a target="_top" xlink:href="classdebDebFileParser.xhtml"><polygon fill="#fff" stroke="#000" points="277 -133.5 277 -152.5 378 -152.5 378 -133.5 277 -133.5"/><text x="327.5" y="-140.5" font-family="Helvetica,sans-Serif" font-size="10" text-anchor="middle">debDebFileParser</text></a></g></g><g id="edge2" class="edge"><title>Node1-&gt;Node2</title><path fill="none" stroke="#191970" d="M216.01,-100.3C230.47,-107.92 248.95,-117.11 266,-124 274.57,-127.46 284.04,-130.7 292.88,-133.49"/><polygon fill="#191970" stroke="#191970" points="217.61 -97.19 207.14 -95.56 214.31 -103.36 217.61 -97.19"/></g><g id="node4" class="node"><title>Node3</title><g id="a_node4"><a target="_top" xlink:href="classdebStatusListParser.xhtml"><polygon fill="#fff" stroke="#000" points="271 -95.5 271 -114.5 384 -114.5 384 -95.5 271 -95.5"/><text x="327.5" y="-102.5" font-family="Helvetica,sans-Serif" font-size="10" text-anchor="middle">debStatusListParser</text></a></g></g><g id="edge3" class="edge"><title>Node1-&gt;Node3</title><path fill="none" stroke="#191970" d="M240.35,-93.01C250.29,-94.39 260.78,-95.85 270.89,-97.26"/><polygon fill="#191970" stroke="#191970" points="240.6 -89.51 230.22 -91.6 239.64 -96.44 240.6 -89.51"/></g><g id="node5" class="node"><title>Node4</title><g id="a_node5"><a target="_top" xlink:href="classdebTranslationsParser.xhtml"><polygon fill="#fff" stroke="#000" points="266 -57.5 266 -76.5 389 -76.5 389 -57.5 266 -57.5"/><text x="327.5" y="-64.5" font-family="Helvetica,sans-Serif" font-size="10" text-anchor="middle">debTranslationsParser</text></a></g></g><g id="edge4" class="edge"><title>Node1-&gt;Node4</title><path fill="none" stroke="#191970" d="M240.17,-79.02C248.51,-77.86 257.25,-76.64 265.82,-75.45"/><polygon fill="#191970" stroke="#191970" points="239.64 -75.56 230.22 -80.4 240.6 -82.49 239.64 -75.56"/></g><g id="node6" class="node"><title>Node5</title><g id="a_node6"><a target="_top" xlink:href="classedspLikeListParser.xhtml"><polygon fill="#fff" stroke="#000" points="274 -19.5 274 -38.5 381 -38.5 381 -19.5 274 -19.5"/><text x="327.5" y="-26.5" font-family="Helvetica,sans-Serif" font-size="10" text-anchor="middle">edspLikeListParser</text></a></g></g><g id="edge5" class="edge"><title>Node1-&gt;Node5</title><path fill="none" stroke="#191970" d="M216.01,-71.7C230.47,-64.08 248.95,-54.89 266,-48 274.57,-44.54 284.04,-41.3 292.88,-38.51"/><polygon fill="#191970" stroke="#191970" points="214.31 -68.64 207.14 -76.44 217.61 -74.81 214.31 -68.64"/></g><g id="node7" class="node"><title>Node6</title><g id="a_node7"><a target="_top" xlink:href="classedspListParser.xhtml"><polygon fill="#fff" stroke="#000" points="425 -38.5 425 -57.5 512 -57.5 512 -38.5 425 -38.5"/><text x="468.5" y="-45.5" font-family="Helvetica,sans-Serif" font-size="10" text-anchor="middle">edspListParser</text></a></g></g><g id="edge6" class="edge"><title>Node5-&gt;Node6</title><path fill="none" stroke="#191970" d="M391,-37.54C402.44,-39.11 414.13,-40.7 424.82,-42.17"/><polygon fill="#191970" stroke="#191970" points="391.43 -34.07 381.05 -36.18 390.48 -41.01 391.43 -34.07"/></g><g id="node8" class="node"><title>Node7</title><g id="a_node8"><a target="_top" xlink:href="classeippListParser.xhtml"><polygon fill="#fff" stroke="#000" points="426 -.5 426 -19.5 511 -19.5 511 -.5 426 -.5"/><text x="468.5" y="-7.5" font-family="Helvetica,sans-Serif" font-size="10" text-anchor="middle">eippListParser</text></a></g></g><g id="edge7" class="edge"><title>Node5-&gt;Node7</title><path fill="none" stroke="#191970" d="M391.22,-20.43C402.9,-18.83 414.84,-17.2 425.7,-15.71"/><polygon fill="#191970" stroke="#191970" points="390.48 -16.99 381.05 -21.82 391.43 -23.93 390.48 -16.99"/></g></g></svg>