<svg xmlns="http://www.w3.org/2000/svg" xmlns:xlink="http://www.w3.org/1999/xlink" width="368" height="88" viewBox="0 0 276 66"><g id="graph0" class="graph" transform="scale(1 1) rotate(0) translate(4 62)"><title>Graphical Class Hierarchy</title><polygon fill="#fff" stroke="transparent" points="-4 4 -4 -62 272 -62 272 4 -4 4"/><g id="node1" class="node"><title>Node0</title><g id="a_node1"><a target="_top" xlink:href="classpkgDepCache_1_1Policy.xhtml"><polygon fill="#fff" stroke="#000" points="0 -19.5 0 -38.5 119 -38.5 119 -19.5 0 -19.5"/><text x="59.5" y="-26.5" font-family="Helvetica,sans-Serif" font-size="10" text-anchor="middle">pkgDepCache::Policy</text></a></g></g><g id="node2" class="node"><title>Node1</title><g id="a_node2"><a target="_top" xlink:href="classpkgPolicy.xhtml"><polygon fill="#fff" stroke="#000" points="179.5 -38.5 179.5 -57.5 243.5 -57.5 243.5 -38.5 179.5 -38.5"/><text x="211.5" y="-45.5" font-family="Helvetica,sans-Serif" font-size="10" text-anchor="middle">pkgPolicy</text></a></g></g><g id="edge1" class="edge"><title>Node0-&gt;Node1</title><path fill="none" stroke="#191970" d="M129.56,-37.75C147.03,-39.96 164.93,-42.23 179.44,-44.07"/><polygon fill="#191970" stroke="#191970" points="129.71 -34.24 119.35 -36.45 128.83 -41.18 129.71 -34.24"/></g><g id="node3" class="node"><title>Node2</title><g id="a_node3"><a target="_top" xlink:href="classpkgSimulate_1_1Policy.xhtml"><polygon fill="#fff" stroke="#000" points="155 -.5 155 -19.5 268 -19.5 268 -.5 155 -.5"/><text x="211.5" y="-7.5" font-family="Helvetica,sans-Serif" font-size="10" text-anchor="middle">pkgSimulate::Policy</text></a></g></g><g id="edge2" class="edge"><title>Node0-&gt;Node2</title><path fill="none" stroke="#191970" d="M129.29,-20.29C137.82,-19.21 146.46,-18.11 154.76,-17.06"/><polygon fill="#191970" stroke="#191970" points="128.83 -16.82 119.35 -21.55 129.71 -23.76 128.83 -16.82"/></g></g></svg>