<svg xmlns="http://www.w3.org/2000/svg" xmlns:xlink="http://www.w3.org/1999/xlink" width="280pt" height="163pt" viewBox="0 0 280 163"><g id="graph0" class="graph" transform="scale(1 1) rotate(0) translate(4 159)"><title>PackageReverseDepends</title><polygon fill="#fff" stroke="transparent" points="-4 4 -4 -159 276 -159 276 4 -4 4"/><g id="node1" class="node"><title>Node1</title><g id="a_node1"><a><polygon fill="#bfbfbf" stroke="#000" points="86.5 -.5 86.5 -19.5 225.5 -19.5 225.5 -.5 86.5 -.5"/><text x="156" y="-7.5" font-family="Helvetica,sans-Serif" font-size="10" text-anchor="middle">PackageReverseDepends</text></a></g></g><g id="node2" class="node"><title>Node2</title><g id="a_node2"><a target="_top" xlink:href="classAPT_1_1CacheFilter_1_1PackageMatcher.xhtml"><polygon fill="#fff" stroke="#000" points="0 -73 0 -92 96 -92 96 -73 0 -73"/><text x="48" y="-80" font-family="Helvetica,sans-Serif" font-size="10" text-anchor="middle">PackageMatcher</text></a></g></g><g id="edge1" class="edge"><title>Node2-&gt;Node1</title><path fill="none" stroke="#191970" d="M69.84,-67.24C91.64,-53.01 124.45,-31.59 142.65,-19.72"/><polygon fill="#191970" stroke="#191970" points="67.7 -64.46 61.24 -72.86 71.53 -70.32 67.7 -64.46"/></g><g id="node3" class="node"><title>Node3</title><g id="a_node3"><a target="_top" xlink:href="classAPT_1_1CacheFilter_1_1Matcher.xhtml"><polygon fill="#fff" stroke="#000" points="20 -135.5 20 -154.5 76 -154.5 76 -135.5 20 -135.5"/><text x="48" y="-142.5" font-family="Helvetica,sans-Serif" font-size="10" text-anchor="middle">Matcher</text></a></g></g><g id="edge2" class="edge"><title>Node3-&gt;Node2</title><path fill="none" stroke="#191970" d="M48,-125C48,-114 48,-100.68 48,-92.15"/><polygon fill="#191970" stroke="#191970" points="44.5 -125.33 48 -135.33 51.5 -125.33 44.5 -125.33"/></g><g id="node4" class="node"><title>Node4</title><g id="a_node4"><a><polygon fill="#fff" stroke="#bfbfbf" points="114 -67.5 114 -97.5 272 -97.5 272 -67.5 114 -67.5"/><text x="122" y="-85.5" font-family="Helvetica,sans-Serif" font-size="10" text-anchor="start">unique_ptr&lt; APT::CacheFilter</text><text x="193" y="-74.5" font-family="Helvetica,sans-Serif" font-size="10" text-anchor="middle">::Matcher &gt;</text></a></g></g><g id="edge3" class="edge"><title>Node4-&gt;Node1</title><path fill="none" stroke="#9a32cd" stroke-dasharray="5 2" d="M180.79,-58.24C173.91,-45.12 165.7,-29.48 160.67,-19.89"/><polygon fill="#9a32cd" stroke="#9a32cd" points="177.77 -60.01 185.51 -67.23 183.96 -56.75 177.77 -60.01"/><text x="188.5" y="-41" font-family="Helvetica,sans-Serif" font-size="10" text-anchor="middle">base</text></g></g></svg>