<svg xmlns="http://www.w3.org/2000/svg" xmlns:xlink="http://www.w3.org/1999/xlink" width="374pt" height="214pt" viewBox="0 0 374 213.5"><g id="graph0" class="graph" transform="scale(1 1) rotate(0) translate(4 209.5)"><title>pkgCache&lt; Str, Itr &gt;::Group</title><polygon fill="#fff" stroke="transparent" points="-4 4 -4 -209.5 370 -209.5 370 4 -4 4"/><g id="node1" class="node"><title>Node1</title><g id="a_node1"><a xlink:title="groups architecture depending packages together"><polygon fill="#bfbfbf" stroke="#000" points="260 -77 260 -107 366 -107 366 -77 260 -77"/><text x="268" y="-95" font-family="Helvetica,sans-Serif" font-size="10" text-anchor="start">pkgCache&lt; Str, Itr</text><text x="313" y="-84" font-family="Helvetica,sans-Serif" font-size="10" text-anchor="middle">&gt;::Group</text></a></g></g><g id="node2" class="node"><title>Node2</title><g id="a_node2"><a target="_top" xlink:href="classmap__pointer.xhtml"><polygon fill="#fff" stroke="#000" points="0 -175 0 -205 137 -205 137 -175 0 -175"/><text x="8" y="-193" font-family="Helvetica,sans-Serif" font-size="10" text-anchor="start">map_pointer&lt; pkgCache</text><text x="68.5" y="-182" font-family="Helvetica,sans-Serif" font-size="10" text-anchor="middle">::Version &gt;</text></a></g></g><g id="edge1" class="edge"><title>Node2-&gt;Node1</title><path fill="none" stroke="#9a32cd" stroke-dasharray="5 2" d="M147.55,-178.48C178.05,-172.09 212.67,-162.41 242,-148 263.23,-137.57 283.93,-119.78 297.24,-107.05"/><polygon fill="#9a32cd" stroke="#9a32cd" points="146.49 -175.13 137.38 -180.53 147.87 -181.99 146.49 -175.13"/><text x="198.5" y="-179" font-family="Helvetica,sans-Serif" font-size="10" text-anchor="middle">VersionsInSource</text></g><g id="node3" class="node"><title>Node3</title><g id="a_node3"><a target="_top" xlink:href="classmap__pointer.xhtml"><polygon fill="#fff" stroke="#000" points="0 -126 0 -156 137 -156 137 -126 0 -126"/><text x="8" y="-144" font-family="Helvetica,sans-Serif" font-size="10" text-anchor="start">map_pointer&lt; pkgCache</text><text x="68.5" y="-133" font-family="Helvetica,sans-Serif" font-size="10" text-anchor="middle">::Group &gt;</text></a></g></g><g id="edge2" class="edge"><title>Node3-&gt;Node1</title><path fill="none" stroke="#9a32cd" stroke-dasharray="5 2" d="M147.29,-134.36C177.18,-130.84 211.45,-125.61 242,-118 253.32,-115.18 265.33,-111.13 276.15,-107.06"/><polygon fill="#9a32cd" stroke="#9a32cd" points="146.87 -130.88 137.33 -135.49 147.66 -137.84 146.87 -130.88"/><text x="198.5" y="-136" font-family="Helvetica,sans-Serif" font-size="10" text-anchor="middle">Next</text></g><g id="node4" class="node"><title>Node4</title><g id="a_node4"><a target="_top" xlink:href="classmap__pointer.xhtml"><polygon fill="#fff" stroke="#000" points="0 -77 0 -107 137 -107 137 -77 0 -77"/><text x="8" y="-95" font-family="Helvetica,sans-Serif" font-size="10" text-anchor="start">map_pointer&lt; pkgCache</text><text x="68.5" y="-84" font-family="Helvetica,sans-Serif" font-size="10" text-anchor="middle">::Package &gt;</text></a></g></g><g id="edge3" class="edge"><title>Node4-&gt;Node1</title><path fill="none" stroke="#9a32cd" stroke-dasharray="5 2" d="M147.25,-92C184.03,-92 226.98,-92 259.8,-92"/><polygon fill="#9a32cd" stroke="#9a32cd" points="147.05 -88.5 137.05 -92 147.05 -95.5 147.05 -88.5"/><text x="198.5" y="-106" font-family="Helvetica,sans-Serif" font-size="10" text-anchor="middle">FirstPackage</text><text x="198.5" y="-95" font-family="Helvetica,sans-Serif" font-size="10" text-anchor="middle">LastPackage</text></g><g id="node5" class="node"><title>Node5</title><g id="a_node5"><a target="_top" xlink:href="classmap__pointer.xhtml"><polygon fill="#fff" stroke="#000" points="7.5 -38.5 7.5 -57.5 129.5 -57.5 129.5 -38.5 7.5 -38.5"/><text x="68.5" y="-45.5" font-family="Helvetica,sans-Serif" font-size="10" text-anchor="middle">map_pointer&lt; char &gt;</text></a></g></g><g id="edge4" class="edge"><title>Node5-&gt;Node1</title><path fill="none" stroke="#9a32cd" stroke-dasharray="5 2" d="M139.84,-59.1C171.17,-64.23 208.49,-70.6 242,-77 247.74,-78.1 253.73,-79.3 259.68,-80.52"/><polygon fill="#9a32cd" stroke="#9a32cd" points="140.32 -55.63 129.89 -57.48 139.2 -62.54 140.32 -55.63"/><text x="198.5" y="-80" font-family="Helvetica,sans-Serif" font-size="10" text-anchor="middle">Name</text></g><g id="node6" class="node"><title>Node6</title><g id="a_node6"><a target="_top" xlink:href="classmap__pointer.xhtml"><polygon fill="#fff" stroke="#000" points="7.5 -.5 7.5 -19.5 129.5 -19.5 129.5 -.5 7.5 -.5"/><text x="68.5" y="-7.5" font-family="Helvetica,sans-Serif" font-size="10" text-anchor="middle">map_pointer&lt; void &gt;</text></a></g></g><g id="edge5" class="edge"><title>Node6-&gt;Node1</title><path fill="none" stroke="#9a32cd" stroke-dasharray="5 2" d="M139.99,-18.58C171.96,-24 209.75,-32.61 242,-46 260.67,-53.75 279.7,-66.65 293.2,-76.81"/><polygon fill="#9a32cd" stroke="#9a32cd" points="140.26 -15.07 129.83 -16.92 139.14 -21.98 140.26 -15.07"/><text x="198.5" y="-49" font-family="Helvetica,sans-Serif" font-size="10" text-anchor="middle">d</text></g></g></svg>