<svg xmlns="http://www.w3.org/2000/svg" xmlns:xlink="http://www.w3.org/1999/xlink" width="152" height="140pt" viewBox="0 0 114 140"><g id="graph0" class="graph" transform="scale(1 1) rotate(0) translate(4 136)"><title>PackageIsGarbage</title><polygon fill="#fff" stroke="transparent" points="-4 4 -4 -136 110 -136 110 4 -4 4"/><g id="node1" class="node"><title>Node1</title><g id="a_node1"><a><polygon fill="#bfbfbf" stroke="#000" points="0 -.5 0 -19.5 106 -19.5 106 -.5 0 -.5"/><text x="53" y="-7.5" font-family="Helvetica,sans-Serif" font-size="10" text-anchor="middle">PackageIsGarbage</text></a></g></g><g id="node2" class="node"><title>Node2</title><g id="a_node2"><a target="_top" xlink:href="classAPT_1_1CacheFilter_1_1PackageMatcher.xhtml"><polygon fill="#fff" stroke="#000" points="5 -56.5 5 -75.5 101 -75.5 101 -56.5 5 -56.5"/><text x="53" y="-63.5" font-family="Helvetica,sans-Serif" font-size="10" text-anchor="middle">PackageMatcher</text></a></g></g><g id="edge1" class="edge"><title>Node2-&gt;Node1</title><path fill="none" stroke="#191970" d="M53,-45.8C53,-36.91 53,-26.78 53,-19.75"/><polygon fill="#191970" stroke="#191970" points="49.5 -46.08 53 -56.08 56.5 -46.08 49.5 -46.08"/></g><g id="node3" class="node"><title>Node3</title><g id="a_node3"><a target="_top" xlink:href="classAPT_1_1CacheFilter_1_1Matcher.xhtml"><polygon fill="#fff" stroke="#000" points="25 -112.5 25 -131.5 81 -131.5 81 -112.5 25 -112.5"/><text x="53" y="-119.5" font-family="Helvetica,sans-Serif" font-size="10" text-anchor="middle">Matcher</text></a></g></g><g id="edge2" class="edge"><title>Node3-&gt;Node2</title><path fill="none" stroke="#191970" d="M53,-101.8C53,-92.91 53,-82.78 53,-75.75"/><polygon fill="#191970" stroke="#191970" points="49.5 -102.08 53 -112.08 56.5 -102.08 49.5 -102.08"/></g></g></svg>