<svg xmlns="http://www.w3.org/2000/svg" xmlns:xlink="http://www.w3.org/1999/xlink" width="184" height="95pt" viewBox="0 0 137.5 95"><g id="graph0" class="graph" transform="scale(1 1) rotate(0) translate(4 91)"><title>PatternTreeParser</title><polygon fill="#fff" stroke="transparent" points="-4 4 -4 -91 133.5 -91 133.5 4 -4 4"/><g id="node1" class="node"><title>Node1</title><g id="a_node1"><a xlink:title="PatternTreeParser parses the given sentence into a parse tree."><polygon fill="#bfbfbf" stroke="#000" points="7.5 -.5 7.5 -19.5 108.5 -19.5 108.5 -.5 7.5 -.5"/><text x="58" y="-7.5" font-family="Helvetica,sans-Serif" font-size="10" text-anchor="middle">PatternTreeParser</text></a></g></g><g id="node2" class="node"><title>Node2</title><g id="a_node2"><a target="_top" xlink:href="structAPT_1_1Internal_1_1PatternTreeParser_1_1State.xhtml"><polygon fill="#fff" stroke="#000" points="0 -67.5 0 -86.5 42 -86.5 42 -67.5 0 -67.5"/><text x="21" y="-74.5" font-family="Helvetica,sans-Serif" font-size="10" text-anchor="middle">State</text></a></g></g><g id="edge1" class="edge"><title>Node2-&gt;Node1</title><path fill="none" stroke="#9a32cd" stroke-dasharray="5 2" d="M30.94,-58.53C38.11,-45.95 47.47,-29.51 53.09,-19.63"/><polygon fill="#9a32cd" stroke="#9a32cd" points="27.9 -56.81 25.99 -67.23 33.98 -60.27 27.9 -56.81"/><text x="56" y="-41" font-family="Helvetica,sans-Serif" font-size="10" text-anchor="middle">state</text></g><g id="node3" class="node"><title>Node3</title><g id="a_node3"><a target="_top" xlink:href="classAPT_1_1StringView.xhtml" xlink:title="Simple subset of std::string_view from C++17."><polygon fill="#fff" stroke="#000" points="60.5 -67.5 60.5 -86.5 129.5 -86.5 129.5 -67.5 60.5 -67.5"/><text x="95" y="-74.5" font-family="Helvetica,sans-Serif" font-size="10" text-anchor="middle">StringView</text></a></g></g><g id="edge2" class="edge"><title>Node3-&gt;Node1</title><path fill="none" stroke="#9a32cd" stroke-dasharray="5 2" d="M85.06,-58.53C77.89,-45.95 68.53,-29.51 62.91,-19.63"/><polygon fill="#9a32cd" stroke="#9a32cd" points="82.02 -60.27 90.01 -67.23 88.1 -56.81 82.02 -60.27"/><text x="102" y="-41" font-family="Helvetica,sans-Serif" font-size="10" text-anchor="middle">sentence</text></g></g></svg>