<svg xmlns="http://www.w3.org/2000/svg" xmlns:xlink="http://www.w3.org/1999/xlink" width="424" height="292" viewBox="0 0 318 219"><g id="graph0" class="graph" transform="scale(1 1) rotate(0) translate(4 215)"><title>pkgAcqMethod::FetchResult</title><polygon fill="#fff" stroke="transparent" points="-4 4 -4 -215 314 -215 314 4 -4 4"/><g id="node1" class="node"><title>Node1</title><g id="a_node1"><a><polygon fill="#bfbfbf" stroke="#000" points="47.5 -.5 47.5 -19.5 199.5 -19.5 199.5 -.5 47.5 -.5"/><text x="123.5" y="-7.5" font-family="Helvetica,sans-Serif" font-size="10" text-anchor="middle">pkgAcqMethod::FetchResult</text></a></g></g><g id="node2" class="node"><title>Node2</title><g id="a_node2"><a target="_top" xlink:href="classHashStringList.xhtml"><polygon fill="#fff" stroke="#000" points="0 -67.5 0 -86.5 87 -86.5 87 -67.5 0 -67.5"/><text x="43.5" y="-74.5" font-family="Helvetica,sans-Serif" font-size="10" text-anchor="middle">HashStringList</text></a></g></g><g id="edge1" class="edge"><title>Node2-&gt;Node1</title><path fill="none" stroke="#9a32cd" stroke-dasharray="5 2" d="M52.92,-58.39C57.28,-51.41 62.96,-43.71 69.5,-38 78.43,-30.22 89.99,-24.04 100.13,-19.57"/><polygon fill="#9a32cd" stroke="#9a32cd" points="49.8 -56.8 47.83 -67.21 55.86 -60.3 49.8 -56.8"/><text x="89.5" y="-41" font-family="Helvetica,sans-Serif" font-size="10" text-anchor="middle">Hashes</text></g><g id="node3" class="node"><title>Node3</title><g id="a_node3"><a><polygon fill="#fff" stroke="#bfbfbf" points="117.5 -134.5 117.5 -153.5 161.5 -153.5 161.5 -134.5 117.5 -134.5"/><text x="139.5" y="-141.5" font-family="Helvetica,sans-Serif" font-size="10" text-anchor="middle">string</text></a></g></g><g id="edge2" class="edge"><title>Node3-&gt;Node1</title><path fill="none" stroke="#9a32cd" stroke-dasharray="5 2" d="M137.23,-124.28C133.71,-95.25 127.08,-40.54 124.53,-19.52"/><polygon fill="#9a32cd" stroke="#9a32cd" points="133.77 -124.83 138.45 -134.34 140.72 -123.99 133.77 -124.83"/><text x="157" y="-74.5" font-family="Helvetica,sans-Serif" font-size="10" text-anchor="middle">Filename</text></g><g id="node5" class="node"><title>Node5</title><g id="a_node5"><a><polygon fill="#fff" stroke="#bfbfbf" points="191 -67.5 191 -86.5 310 -86.5 310 -67.5 191 -67.5"/><text x="250.5" y="-74.5" font-family="Helvetica,sans-Serif" font-size="10" text-anchor="middle">vector&lt; std::string &gt;</text></a></g></g><g id="edge5" class="edge"><title>Node3-&gt;Node5</title><path fill="none" stroke="#9a32cd" stroke-dasharray="5 2" d="M163.21,-129.12C185.2,-116.24 217.24,-97.48 235.77,-86.63"/><polygon fill="#9a32cd" stroke="#9a32cd" points="161.33 -126.16 154.47 -134.23 164.87 -132.2 161.33 -126.16"/><text x="226" y="-108" font-family="Helvetica,sans-Serif" font-size="10" text-anchor="middle">elements</text></g><g id="node4" class="node"><title>Node4</title><g id="a_node4"><a><polygon fill="#fff" stroke="#bfbfbf" points="79.5 -191.5 79.5 -210.5 199.5 -210.5 199.5 -191.5 79.5 -191.5"/><text x="139.5" y="-198.5" font-family="Helvetica,sans-Serif" font-size="10" text-anchor="middle">basic_string&lt; Char &gt;</text></a></g></g><g id="edge3" class="edge"><title>Node4-&gt;Node3</title><path fill="none" stroke="#191970" d="M139.5,-181.12C139.5,-171.82 139.5,-161.06 139.5,-153.71"/><polygon fill="#191970" stroke="#191970" points="136 -181.41 139.5 -191.41 143 -181.41 136 -181.41"/></g><g id="edge4" class="edge"><title>Node5-&gt;Node1</title><path fill="none" stroke="#9a32cd" stroke-dasharray="5 2" d="M224.66,-62.77C199.5,-49.9 162.01,-30.71 140.43,-19.67"/><polygon fill="#9a32cd" stroke="#9a32cd" points="223.14 -65.93 233.64 -67.37 226.33 -59.7 223.14 -65.93"/><text x="226.5" y="-41" font-family="Helvetica,sans-Serif" font-size="10" text-anchor="middle">GPGVOutput</text></g></g></svg>