<?xml version="1.0" encoding="UTF-8" standalone="no"?>
<!DOCTYPE svg PUBLIC "-//W3C//DTD SVG 1.1//EN"
 "http://www.w3.org/Graphics/SVG/1.1/DTD/svg11.dtd">
<!-- Generated by graphviz version 2.43.0 (0)
 -->
<!-- Title: pkgCache&lt; Str, Itr &gt;::Description Pages: 1 -->
<svg width="364pt" height="176pt"
 viewBox="0.00 0.00 364.00 175.50" xmlns="http://www.w3.org/2000/svg" xmlns:xlink="http://www.w3.org/1999/xlink">
<g id="graph0" class="graph" transform="scale(1 1) rotate(0) translate(4 171.5)">
<title>pkgCache&lt; Str, Itr &gt;::Description</title>
<polygon fill="white" stroke="transparent" points="-4,4 -4,-171.5 360,-171.5 360,4 -4,4"/>
<!-- Node1 -->
<g id="node1" class="node">
<title>Node1</title>
<g id="a_node1"><a xlink:title="datamember of a linked list of available description for a version">
<polygon fill="#bfbfbf" stroke="black" points="250,-64 250,-94 356,-94 356,-64 250,-64"/>
<text text-anchor="start" x="258" y="-82" font-family="Helvetica,sans-Serif" font-size="10.00">pkgCache&lt; Str, Itr</text>
<text text-anchor="middle" x="303" y="-71" font-family="Helvetica,sans-Serif" font-size="10.00"> &gt;::Description</text>
</a>
</g>
</g>
<!-- Node2 -->
<g id="node2" class="node">
<title>Node2</title>
<g id="a_node2"><a xlink:href="classmap__pointer.xhtml" target="_top" xlink:title=" ">
<polygon fill="white" stroke="black" points="0,-137 0,-167 137,-167 137,-137 0,-137"/>
<text text-anchor="start" x="8" y="-155" font-family="Helvetica,sans-Serif" font-size="10.00">map_pointer&lt; pkgCache</text>
<text text-anchor="middle" x="68.5" y="-144" font-family="Helvetica,sans-Serif" font-size="10.00">::DescFile &gt;</text>
</a>
</g>
</g>
<!-- Node2&#45;&gt;Node1 -->
<g id="edge1" class="edge">
<title>Node2&#45;&gt;Node1</title>
<path fill="none" stroke="#9a32cd" stroke-dasharray="5,2" d="M142.37,-134.4C170.61,-127.03 203.05,-117.87 232,-108 243.95,-103.92 256.78,-98.83 268.16,-94.05"/>
<polygon fill="#9a32cd" stroke="#9a32cd" points="141.38,-131.04 132.57,-136.93 143.13,-137.82 141.38,-131.04"/>
<text text-anchor="middle" x="193.5" y="-133" font-family="Helvetica,sans-Serif" font-size="10.00"> FileList</text>
</g>
<!-- Node3 -->
<g id="node3" class="node">
<title>Node3</title>
<g id="a_node3"><a xlink:href="classmap__pointer.xhtml" target="_top" xlink:title=" ">
<polygon fill="white" stroke="black" points="0,-88 0,-118 137,-118 137,-88 0,-88"/>
<text text-anchor="start" x="8" y="-106" font-family="Helvetica,sans-Serif" font-size="10.00">map_pointer&lt; pkgCache</text>
<text text-anchor="middle" x="68.5" y="-95" font-family="Helvetica,sans-Serif" font-size="10.00">::Description &gt;</text>
</a>
</g>
</g>
<!-- Node3&#45;&gt;Node1 -->
<g id="edge2" class="edge">
<title>Node3&#45;&gt;Node1</title>
<path fill="none" stroke="#9a32cd" stroke-dasharray="5,2" d="M147.35,-94.96C181.06,-91.48 219.62,-87.5 249.81,-84.39"/>
<polygon fill="#9a32cd" stroke="#9a32cd" points="146.65,-91.52 137.06,-96.03 147.37,-98.48 146.65,-91.52"/>
<text text-anchor="middle" x="193.5" y="-96" font-family="Helvetica,sans-Serif" font-size="10.00"> NextDesc</text>
</g>
<!-- Node4 -->
<g id="node4" class="node">
<title>Node4</title>
<g id="a_node4"><a xlink:href="classmap__pointer.xhtml" target="_top" xlink:title=" ">
<polygon fill="white" stroke="black" points="0,-39 0,-69 137,-69 137,-39 0,-39"/>
<text text-anchor="start" x="8" y="-57" font-family="Helvetica,sans-Serif" font-size="10.00">map_pointer&lt; pkgCache</text>
<text text-anchor="middle" x="68.5" y="-46" font-family="Helvetica,sans-Serif" font-size="10.00">::Package &gt;</text>
</a>
</g>
</g>
<!-- Node4&#45;&gt;Node1 -->
<g id="edge3" class="edge">
<title>Node4&#45;&gt;Node1</title>
<path fill="none" stroke="#9a32cd" stroke-dasharray="5,2" d="M147.23,-61.98C174.09,-64.78 204.37,-67.98 232,-71 237.71,-71.63 243.69,-72.29 249.64,-72.96"/>
<polygon fill="#9a32cd" stroke="#9a32cd" points="147.42,-58.48 137.11,-60.93 146.7,-65.44 147.42,-58.48"/>
<text text-anchor="middle" x="193.5" y="-74" font-family="Helvetica,sans-Serif" font-size="10.00"> ParentPkg</text>
</g>
<!-- Node5 -->
<g id="node5" class="node">
<title>Node5</title>
<g id="a_node5"><a xlink:href="classmap__pointer.xhtml" target="_top" xlink:title=" ">
<polygon fill="white" stroke="black" points="7.5,-0.5 7.5,-19.5 129.5,-19.5 129.5,-0.5 7.5,-0.5"/>
<text text-anchor="middle" x="68.5" y="-7.5" font-family="Helvetica,sans-Serif" font-size="10.00">map_pointer&lt; char &gt;</text>
</a>
</g>
</g>
<!-- Node5&#45;&gt;Node1 -->
<g id="edge4" class="edge">
<title>Node5&#45;&gt;Node1</title>
<path fill="none" stroke="#9a32cd" stroke-dasharray="5,2" d="M139.71,-15.16C168.92,-18.85 202.76,-25.17 232,-36 250.19,-42.74 268.81,-54.45 282.27,-63.95"/>
<polygon fill="#9a32cd" stroke="#9a32cd" points="139.93,-11.66 129.59,-13.96 139.11,-18.61 139.93,-11.66"/>
<text text-anchor="middle" x="193.5" y="-50" font-family="Helvetica,sans-Serif" font-size="10.00"> language_code</text>
<text text-anchor="middle" x="193.5" y="-39" font-family="Helvetica,sans-Serif" font-size="10.00">md5sum</text>
</g>
</g>
</svg>
