<svg xmlns="http://www.w3.org/2000/svg" xmlns:xlink="http://www.w3.org/1999/xlink" width="119pt" height="140pt" viewBox="0 0 119 140"><g id="graph0" class="graph" transform="scale(1 1) rotate(0) translate(4 136)"><title>VersionIsSection</title><polygon fill="#fff" stroke="transparent" points="-4 4 -4 -136 115 -136 115 4 -4 4"/><g id="node1" class="node"><title>Node1</title><g id="a_node1"><a><polygon fill="#bfbfbf" stroke="#000" points="7 -.5 7 -19.5 104 -19.5 104 -.5 7 -.5"/><text x="55.5" y="-7.5" font-family="Helvetica,sans-Serif" font-size="10" text-anchor="middle">VersionIsSection</text></a></g></g><g id="node2" class="node"><title>Node2</title><g id="a_node2"><a target="_top" xlink:href="structAPT_1_1Internal_1_1Patterns_1_1VersionAnyMatcher.xhtml"><polygon fill="#fff" stroke="#000" points="0 -56.5 0 -75.5 111 -75.5 111 -56.5 0 -56.5"/><text x="55.5" y="-63.5" font-family="Helvetica,sans-Serif" font-size="10" text-anchor="middle">VersionAnyMatcher</text></a></g></g><g id="edge1" class="edge"><title>Node2-&gt;Node1</title><path fill="none" stroke="#191970" d="M55.5,-45.8C55.5,-36.91 55.5,-26.78 55.5,-19.75"/><polygon fill="#191970" stroke="#191970" points="52 -46.08 55.5 -56.08 59 -46.08 52 -46.08"/></g><g id="node3" class="node"><title>Node3</title><g id="a_node3"><a target="_top" xlink:href="classAPT_1_1CacheFilter_1_1Matcher.xhtml"><polygon fill="#fff" stroke="#000" points="27.5 -112.5 27.5 -131.5 83.5 -131.5 83.5 -112.5 27.5 -112.5"/><text x="55.5" y="-119.5" font-family="Helvetica,sans-Serif" font-size="10" text-anchor="middle">Matcher</text></a></g></g><g id="edge2" class="edge"><title>Node3-&gt;Node2</title><path fill="none" stroke="#191970" d="M55.5,-101.8C55.5,-92.91 55.5,-82.78 55.5,-75.75"/><polygon fill="#191970" stroke="#191970" points="52 -102.08 55.5 -112.08 59 -102.08 52 -102.08"/></g></g></svg>