<?xml version="1.0" encoding="UTF-8" standalone="no"?>
<!DOCTYPE svg PUBLIC "-//W3C//DTD SVG 1.1//EN"
 "http://www.w3.org/Graphics/SVG/1.1/DTD/svg11.dtd">
<!-- Generated by graphviz version 2.43.0 (0)
 -->
<!-- Title: pkgCache&lt; Str, Itr &gt;::DescFile Pages: 1 -->
<svg width="300pt" height="117pt"
 viewBox="0.00 0.00 300.00 117.00" xmlns="http://www.w3.org/2000/svg" xmlns:xlink="http://www.w3.org/1999/xlink">
<g id="graph0" class="graph" transform="scale(1 1) rotate(0) translate(4 113)">
<title>pkgCache&lt; Str, Itr &gt;::DescFile</title>
<polygon fill="white" stroke="transparent" points="-4,4 -4,-113 296,-113 296,4 -4,4"/>
<!-- Node1 -->
<g id="node1" class="node">
<title>Node1</title>
<g id="a_node1"><a xlink:title="associates a description with a Translation file">
<polygon fill="#bfbfbf" stroke="black" points="92.5,-0.5 92.5,-30.5 198.5,-30.5 198.5,-0.5 92.5,-0.5"/>
<text text-anchor="start" x="100.5" y="-18.5" font-family="Helvetica,sans-Serif" font-size="10.00">pkgCache&lt; Str, Itr</text>
<text text-anchor="middle" x="145.5" y="-7.5" font-family="Helvetica,sans-Serif" font-size="10.00"> &gt;::DescFile</text>
</a>
</g>
</g>
<!-- Node2 -->
<g id="node2" class="node">
<title>Node2</title>
<g id="a_node2"><a xlink:href="classmap__pointer.xhtml" target="_top" xlink:title=" ">
<polygon fill="white" stroke="black" points="0,-78.5 0,-108.5 137,-108.5 137,-78.5 0,-78.5"/>
<text text-anchor="start" x="8" y="-96.5" font-family="Helvetica,sans-Serif" font-size="10.00">map_pointer&lt; pkgCache</text>
<text text-anchor="middle" x="68.5" y="-85.5" font-family="Helvetica,sans-Serif" font-size="10.00">::DescFile &gt;</text>
</a>
</g>
</g>
<!-- Node2&#45;&gt;Node1 -->
<g id="edge1" class="edge">
<title>Node2&#45;&gt;Node1</title>
<path fill="none" stroke="#9a32cd" stroke-dasharray="5,2" d="M90.25,-71.03C103.32,-58.13 119.59,-42.07 131.08,-30.73"/>
<polygon fill="#9a32cd" stroke="#9a32cd" points="87.64,-68.69 82.98,-78.2 92.56,-73.67 87.64,-68.69"/>
<text text-anchor="middle" x="134.5" y="-52" font-family="Helvetica,sans-Serif" font-size="10.00"> NextFile</text>
</g>
<!-- Node3 -->
<g id="node3" class="node">
<title>Node3</title>
<g id="a_node3"><a xlink:href="classmap__pointer.xhtml" target="_top" xlink:title=" ">
<polygon fill="white" stroke="black" points="155,-78.5 155,-108.5 292,-108.5 292,-78.5 155,-78.5"/>
<text text-anchor="start" x="163" y="-96.5" font-family="Helvetica,sans-Serif" font-size="10.00">map_pointer&lt; pkgCache</text>
<text text-anchor="middle" x="223.5" y="-85.5" font-family="Helvetica,sans-Serif" font-size="10.00">::PackageFile &gt;</text>
</a>
</g>
</g>
<!-- Node3&#45;&gt;Node1 -->
<g id="edge2" class="edge">
<title>Node3&#45;&gt;Node1</title>
<path fill="none" stroke="#9a32cd" stroke-dasharray="5,2" d="M201.47,-71.03C188.23,-58.13 171.74,-42.07 160.11,-30.73"/>
<polygon fill="#9a32cd" stroke="#9a32cd" points="199.22,-73.73 208.83,-78.2 204.11,-68.72 199.22,-73.73"/>
<text text-anchor="middle" x="199" y="-52" font-family="Helvetica,sans-Serif" font-size="10.00"> File</text>
</g>
</g>
</svg>
