<?xml version="1.0" encoding="UTF-8" standalone="no"?>
<!DOCTYPE svg PUBLIC "-//W3C//DTD SVG 1.1//EN"
 "http://www.w3.org/Graphics/SVG/1.1/DTD/svg11.dtd">
<!-- Generated by graphviz version 2.43.0 (0)
 -->
<!-- Title: VersionDepends Pages: 1 -->
<svg width="296pt" height="163pt"
 viewBox="0.00 0.00 295.50 163.00" xmlns="http://www.w3.org/2000/svg" xmlns:xlink="http://www.w3.org/1999/xlink">
<g id="graph0" class="graph" transform="scale(1 1) rotate(0) translate(4 159)">
<title>VersionDepends</title>
<polygon fill="white" stroke="transparent" points="-4,4 -4,-159 291.5,-159 291.5,4 -4,4"/>
<!-- Node1 -->
<g id="node1" class="node">
<title>Node1</title>
<g id="a_node1"><a xlink:title=" ">
<polygon fill="#bfbfbf" stroke="black" points="84,-0.5 84,-19.5 179,-19.5 179,-0.5 84,-0.5"/>
<text text-anchor="middle" x="131.5" y="-7.5" font-family="Helvetica,sans-Serif" font-size="10.00">VersionDepends</text>
</a>
</g>
</g>
<!-- Node2 -->
<g id="node2" class="node">
<title>Node2</title>
<g id="a_node2"><a xlink:href="structAPT_1_1Internal_1_1Patterns_1_1VersionAnyMatcher.xhtml" target="_top" xlink:title=" ">
<polygon fill="white" stroke="black" points="0,-73 0,-92 111,-92 111,-73 0,-73"/>
<text text-anchor="middle" x="55.5" y="-80" font-family="Helvetica,sans-Serif" font-size="10.00">VersionAnyMatcher</text>
</a>
</g>
</g>
<!-- Node2&#45;&gt;Node1 -->
<g id="edge1" class="edge">
<title>Node2&#45;&gt;Node1</title>
<path fill="none" stroke="midnightblue" d="M72.54,-65.69C87.85,-51.49 109.76,-31.17 122.1,-19.72"/>
<polygon fill="midnightblue" stroke="midnightblue" points="69.77,-63.49 64.82,-72.86 74.53,-68.62 69.77,-63.49"/>
</g>
<!-- Node3 -->
<g id="node3" class="node">
<title>Node3</title>
<g id="a_node3"><a xlink:href="classAPT_1_1CacheFilter_1_1Matcher.xhtml" target="_top" xlink:title=" ">
<polygon fill="white" stroke="black" points="27.5,-135.5 27.5,-154.5 83.5,-154.5 83.5,-135.5 27.5,-135.5"/>
<text text-anchor="middle" x="55.5" y="-142.5" font-family="Helvetica,sans-Serif" font-size="10.00">Matcher</text>
</a>
</g>
</g>
<!-- Node3&#45;&gt;Node2 -->
<g id="edge2" class="edge">
<title>Node3&#45;&gt;Node2</title>
<path fill="none" stroke="midnightblue" d="M55.5,-125C55.5,-114 55.5,-100.68 55.5,-92.15"/>
<polygon fill="midnightblue" stroke="midnightblue" points="52,-125.33 55.5,-135.33 59,-125.33 52,-125.33"/>
</g>
<!-- Node4 -->
<g id="node4" class="node">
<title>Node4</title>
<g id="a_node4"><a xlink:title=" ">
<polygon fill="white" stroke="#bfbfbf" points="129.5,-67.5 129.5,-97.5 287.5,-97.5 287.5,-67.5 129.5,-67.5"/>
<text text-anchor="start" x="137.5" y="-85.5" font-family="Helvetica,sans-Serif" font-size="10.00">unique_ptr&lt; APT::CacheFilter</text>
<text text-anchor="middle" x="208.5" y="-74.5" font-family="Helvetica,sans-Serif" font-size="10.00">::Matcher &gt;</text>
</a>
</g>
</g>
<!-- Node4&#45;&gt;Node1 -->
<g id="edge3" class="edge">
<title>Node4&#45;&gt;Node1</title>
<path fill="none" stroke="#9a32cd" stroke-dasharray="5,2" d="M185.17,-60.14C170.44,-46.65 152.19,-29.94 141.21,-19.89"/>
<polygon fill="#9a32cd" stroke="#9a32cd" points="183.18,-63.06 192.92,-67.23 187.91,-57.9 183.18,-63.06"/>
<text text-anchor="middle" x="186" y="-41" font-family="Helvetica,sans-Serif" font-size="10.00"> base</text>
</g>
</g>
</svg>
