<?xml version="1.0" encoding="UTF-8" standalone="no"?>
<!DOCTYPE svg PUBLIC "-//W3C//DTD SVG 1.1//EN"
 "http://www.w3.org/Graphics/SVG/1.1/DTD/svg11.dtd">
<!-- Generated by graphviz version 2.43.0 (0)
 -->
<!-- Title: VersionIsSourcePackage Pages: 1 -->
<svg width="248pt" height="152pt"
 viewBox="0.00 0.00 248.00 152.00" xmlns="http://www.w3.org/2000/svg" xmlns:xlink="http://www.w3.org/1999/xlink">
<g id="graph0" class="graph" transform="scale(1 1) rotate(0) translate(4 148)">
<title>VersionIsSourcePackage</title>
<polygon fill="white" stroke="transparent" points="-4,4 -4,-148 244,-148 244,4 -4,4"/>
<!-- Node1 -->
<g id="node1" class="node">
<title>Node1</title>
<g id="a_node1"><a xlink:title=" ">
<polygon fill="#bfbfbf" stroke="black" points="84.5,-0.5 84.5,-19.5 218.5,-19.5 218.5,-0.5 84.5,-0.5"/>
<text text-anchor="middle" x="151.5" y="-7.5" font-family="Helvetica,sans-Serif" font-size="10.00">VersionIsSourcePackage</text>
</a>
</g>
</g>
<!-- Node2 -->
<g id="node2" class="node">
<title>Node2</title>
<g id="a_node2"><a xlink:href="structAPT_1_1Internal_1_1Patterns_1_1VersionAnyMatcher.xhtml" target="_top" xlink:title=" ">
<polygon fill="white" stroke="black" points="0,-67.5 0,-86.5 111,-86.5 111,-67.5 0,-67.5"/>
<text text-anchor="middle" x="55.5" y="-74.5" font-family="Helvetica,sans-Serif" font-size="10.00">VersionAnyMatcher</text>
</a>
</g>
</g>
<!-- Node2&#45;&gt;Node1 -->
<g id="edge1" class="edge">
<title>Node2&#45;&gt;Node1</title>
<path fill="none" stroke="midnightblue" d="M76.78,-61.59C95.77,-48.74 122.95,-30.33 138.76,-19.63"/>
<polygon fill="midnightblue" stroke="midnightblue" points="74.77,-58.73 68.45,-67.23 78.69,-64.53 74.77,-58.73"/>
</g>
<!-- Node3 -->
<g id="node3" class="node">
<title>Node3</title>
<g id="a_node3"><a xlink:href="classAPT_1_1CacheFilter_1_1Matcher.xhtml" target="_top" xlink:title=" ">
<polygon fill="white" stroke="black" points="27.5,-124.5 27.5,-143.5 83.5,-143.5 83.5,-124.5 27.5,-124.5"/>
<text text-anchor="middle" x="55.5" y="-131.5" font-family="Helvetica,sans-Serif" font-size="10.00">Matcher</text>
</a>
</g>
</g>
<!-- Node3&#45;&gt;Node2 -->
<g id="edge2" class="edge">
<title>Node3&#45;&gt;Node2</title>
<path fill="none" stroke="midnightblue" d="M55.5,-114.12C55.5,-104.82 55.5,-94.06 55.5,-86.71"/>
<polygon fill="midnightblue" stroke="midnightblue" points="52,-114.41 55.5,-124.41 59,-114.41 52,-114.41"/>
</g>
<!-- Node4 -->
<g id="node4" class="node">
<title>Node4</title>
<g id="a_node4"><a xlink:href="classAPT_1_1Internal_1_1Patterns_1_1BaseRegexMatcher.xhtml" target="_top" xlink:title="Basic helper class for matching regex.">
<polygon fill="white" stroke="black" points="129,-67.5 129,-86.5 240,-86.5 240,-67.5 129,-67.5"/>
<text text-anchor="middle" x="184.5" y="-74.5" font-family="Helvetica,sans-Serif" font-size="10.00">BaseRegexMatcher</text>
</a>
</g>
</g>
<!-- Node4&#45;&gt;Node1 -->
<g id="edge3" class="edge">
<title>Node4&#45;&gt;Node1</title>
<path fill="none" stroke="#9a32cd" stroke-dasharray="5,2" d="M175.44,-58.16C169.08,-45.63 160.85,-29.41 155.88,-19.63"/>
<polygon fill="#9a32cd" stroke="#9a32cd" points="172.4,-59.9 180.05,-67.23 178.64,-56.73 172.4,-59.9"/>
<text text-anchor="middle" x="191.5" y="-41" font-family="Helvetica,sans-Serif" font-size="10.00"> matcher</text>
</g>
</g>
</svg>
