<svg xmlns="http://www.w3.org/2000/svg" xmlns:xlink="http://www.w3.org/1999/xlink" width="239pt" height="324" viewBox="0 0 238.5 243"><g id="graph0" class="graph" transform="scale(1 1) rotate(0) translate(4 239)"><title>Compressor</title><polygon fill="#fff" stroke="transparent" points="-4 4 -4 -239 234.5 -239 234.5 4 -4 4"/><g id="node1" class="node"><title>Node1</title><g id="a_node1"><a xlink:title="Representation of supported compressors."><polygon fill="#bfbfbf" stroke="#000" points="22.5 -.5 22.5 -19.5 97.5 -19.5 97.5 -.5 22.5 -.5"/><text x="60" y="-7.5" font-family="Helvetica,sans-Serif" font-size="10" text-anchor="middle">Compressor</text></a></g></g><g id="node2" class="node"><title>Node2</title><g id="a_node2"><a><polygon fill="#fff" stroke="#bfbfbf" points="38 -158.5 38 -177.5 82 -177.5 82 -158.5 38 -158.5"/><text x="60" y="-165.5" font-family="Helvetica,sans-Serif" font-size="10" text-anchor="middle">string</text></a></g></g><g id="edge1" class="edge"><title>Node2-&gt;Node1</title><path fill="none" stroke="#9a32cd" stroke-dasharray="5 2" d="M57.49,-148.29C56.16,-137.42 54.67,-123.46 54,-111 52.19,-77.13 56.62,-36.84 58.83,-19.56"/><polygon fill="#9a32cd" stroke="#9a32cd" points="54.03 -148.82 58.78 -158.29 60.97 -147.93 54.03 -148.82"/><text x="78.5" y="-103" font-family="Helvetica,sans-Serif" font-size="10" text-anchor="middle">Binary</text><text x="78.5" y="-92" font-family="Helvetica,sans-Serif" font-size="10" text-anchor="middle">Extension</text><text x="78.5" y="-81" font-family="Helvetica,sans-Serif" font-size="10" text-anchor="middle">Name</text></g><g id="node4" class="node"><title>Node4</title><g id="a_node4"><a><polygon fill="#fff" stroke="#bfbfbf" points="111.5 -85 111.5 -104 230.5 -104 230.5 -85 111.5 -85"/><text x="171" y="-92" font-family="Helvetica,sans-Serif" font-size="10" text-anchor="middle">vector&lt; std::string &gt;</text></a></g></g><g id="edge4" class="edge"><title>Node2-&gt;Node4</title><path fill="none" stroke="#9a32cd" stroke-dasharray="5 2" d="M82.2,-152.7C104.74,-138.18 138.93,-116.16 157.62,-104.12"/><polygon fill="#9a32cd" stroke="#9a32cd" points="80.12 -149.88 73.61 -158.23 83.91 -155.76 80.12 -149.88"/><text x="142.5" y="-132" font-family="Helvetica,sans-Serif" font-size="10" text-anchor="middle">elements</text></g><g id="node3" class="node"><title>Node3</title><g id="a_node3"><a><polygon fill="#fff" stroke="#bfbfbf" points="0 -215.5 0 -234.5 120 -234.5 120 -215.5 0 -215.5"/><text x="60" y="-222.5" font-family="Helvetica,sans-Serif" font-size="10" text-anchor="middle">basic_string&lt; Char &gt;</text></a></g></g><g id="edge2" class="edge"><title>Node3-&gt;Node2</title><path fill="none" stroke="#191970" d="M60,-205.12C60,-195.82 60,-185.06 60,-177.71"/><polygon fill="#191970" stroke="#191970" points="56.5 -205.41 60 -215.41 63.5 -205.41 56.5 -205.41"/></g><g id="edge3" class="edge"><title>Node4-&gt;Node1</title><path fill="none" stroke="#9a32cd" stroke-dasharray="5 2" d="M151.45,-78.97C128.3,-61.76 90.49,-33.67 71.56,-19.6"/><polygon fill="#9a32cd" stroke="#9a32cd" points="149.43 -81.83 159.54 -84.98 153.6 -76.21 149.43 -81.83"/><text x="166.5" y="-52" font-family="Helvetica,sans-Serif" font-size="10" text-anchor="middle">CompressArgs</text><text x="166.5" y="-41" font-family="Helvetica,sans-Serif" font-size="10" text-anchor="middle">UncompressArgs</text></g></g></svg>