<svg xmlns="http://www.w3.org/2000/svg" xmlns:xlink="http://www.w3.org/1999/xlink" width="352pt" height="178pt" viewBox="0 0 352 177.5"><g id="graph0" class="graph" transform="scale(1 1) rotate(0) translate(4 173.5)"><title>pkgCache&lt; Str, Itr &gt;::Header</title><polygon fill="#fff" stroke="transparent" points="-4 4 -4 -173.5 348 -173.5 348 4 -4 4"/><g id="node1" class="node"><title>Node1</title><g id="a_node1"><a><polygon fill="#bfbfbf" stroke="#000" points="238 -72.5 238 -102.5 344 -102.5 344 -72.5 238 -72.5"/><text x="246" y="-90.5" font-family="Helvetica,sans-Serif" font-size="10" text-anchor="start">pkgCache&lt; Str, Itr</text><text x="291" y="-79.5" font-family="Helvetica,sans-Serif" font-size="10" text-anchor="middle">&gt;::Header</text></a></g></g><g id="node2" class="node"><title>Node2</title><g id="a_node2"><a target="_top" xlink:href="structDynamicMMap_1_1Pool.xhtml"><polygon fill="#fff" stroke="#000" points="49.5 -150 49.5 -169 87.5 -169 87.5 -150 49.5 -150"/><text x="68.5" y="-157" font-family="Helvetica,sans-Serif" font-size="10" text-anchor="middle">Pool</text></a></g></g><g id="edge1" class="edge"><title>Node2-&gt;Node1</title><path fill="none" stroke="#9a32cd" stroke-dasharray="5 2" d="M97.79,-153.14C128.34,-145.97 178.23,-133.34 220,-118.5 232.9,-113.92 246.75,-108 258.7,-102.57"/><polygon fill="#9a32cd" stroke="#9a32cd" points="96.79 -149.78 87.84 -155.45 98.37 -156.6 96.79 -149.78"/><text x="187.5" y="-140.5" font-family="Helvetica,sans-Serif" font-size="10" text-anchor="middle">Pools</text></g><g id="node3" class="node"><title>Node3</title><g id="a_node3"><a target="_top" xlink:href="classmap__pointer.xhtml"><polygon fill="#fff" stroke="#000" points="0 -100.5 0 -130.5 137 -130.5 137 -100.5 0 -100.5"/><text x="8" y="-118.5" font-family="Helvetica,sans-Serif" font-size="10" text-anchor="start">map_pointer&lt; pkgCache</text><text x="68.5" y="-107.5" font-family="Helvetica,sans-Serif" font-size="10" text-anchor="middle">::PackageFile &gt;</text></a></g></g><g id="edge2" class="edge"><title>Node3-&gt;Node1</title><path fill="none" stroke="#9a32cd" stroke-dasharray="5 2" d="M147.2,-105.63C177.24,-101.82 210.83,-97.55 237.88,-94.12"/><polygon fill="#9a32cd" stroke="#9a32cd" points="146.64 -102.18 137.16 -106.91 147.52 -109.12 146.64 -102.18"/><text x="187.5" y="-106.5" font-family="Helvetica,sans-Serif" font-size="10" text-anchor="middle">FileList</text></g><g id="node4" class="node"><title>Node4</title><g id="a_node4"><a target="_top" xlink:href="classmap__pointer.xhtml"><polygon fill="#fff" stroke="#000" points="7.5 -50 7.5 -69 129.5 -69 129.5 -50 7.5 -50"/><text x="68.5" y="-57" font-family="Helvetica,sans-Serif" font-size="10" text-anchor="middle">map_pointer&lt; char &gt;</text></a></g></g><g id="edge3" class="edge"><title>Node4-&gt;Node1</title><path fill="none" stroke="#9a32cd" stroke-dasharray="5 2" d="M139.98,-54.01C165.4,-53.46 194.18,-54.53 220,-59.5 233.5,-62.1 247.7,-67.28 259.75,-72.48"/><polygon fill="#9a32cd" stroke="#9a32cd" points="139.58 -50.52 129.69 -54.31 139.79 -57.51 139.58 -50.52"/><text x="187.5" y="-84.5" font-family="Helvetica,sans-Serif" font-size="10" text-anchor="middle">Architecture</text><text x="187.5" y="-73.5" font-family="Helvetica,sans-Serif" font-size="10" text-anchor="middle">Architectures</text><text x="187.5" y="-62.5" font-family="Helvetica,sans-Serif" font-size="10" text-anchor="middle">VerSysName</text></g><g id="node5" class="node"><title>Node5</title><g id="a_node5"><a target="_top" xlink:href="classmap__pointer.xhtml"><polygon fill="#fff" stroke="#000" points="0 -.5 0 -30.5 137 -30.5 137 -.5 0 -.5"/><text x="8" y="-18.5" font-family="Helvetica,sans-Serif" font-size="10" text-anchor="start">map_pointer&lt; pkgCache</text><text x="68.5" y="-7.5" font-family="Helvetica,sans-Serif" font-size="10" text-anchor="middle">::ReleaseFile &gt;</text></a></g></g><g id="edge4" class="edge"><title>Node5-&gt;Node1</title><path fill="none" stroke="#9a32cd" stroke-dasharray="5 2" d="M147.29,-20.5C171.22,-23.85 197.24,-29.38 220,-38.5 239.97,-46.5 259.77,-61.16 273.19,-72.37"/><polygon fill="#9a32cd" stroke="#9a32cd" points="147.54 -17.01 137.17 -19.2 146.64 -23.95 147.54 -17.01"/><text x="187.5" y="-41.5" font-family="Helvetica,sans-Serif" font-size="10" text-anchor="middle">RlsFileList</text></g></g></svg>