<?xml version="1.0" encoding="UTF-8" standalone="no"?>
<!DOCTYPE svg PUBLIC "-//W3C//DTD SVG 1.1//EN"
 "http://www.w3.org/Graphics/SVG/1.1/DTD/svg11.dtd">
<!-- Generated by graphviz version 2.43.0 (0)
 -->
<!-- Title: PatternTreeParser::WordNode Pages: 1 -->
<svg width="138pt" height="106pt"
 viewBox="0.00 0.00 137.50 106.00" xmlns="http://www.w3.org/2000/svg" xmlns:xlink="http://www.w3.org/1999/xlink">
<g id="graph0" class="graph" transform="scale(1 1) rotate(0) translate(4 102)">
<title>PatternTreeParser::WordNode</title>
<polygon fill="white" stroke="transparent" points="-4,4 -4,-102 133.5,-102 133.5,4 -4,4"/>
<!-- Node1 -->
<g id="node1" class="node">
<title>Node1</title>
<g id="a_node1"><a xlink:title=" ">
<polygon fill="#bfbfbf" stroke="black" points="4.5,-0.5 4.5,-30.5 111.5,-30.5 111.5,-0.5 4.5,-0.5"/>
<text text-anchor="start" x="12.5" y="-18.5" font-family="Helvetica,sans-Serif" font-size="10.00">PatternTreeParser::</text>
<text text-anchor="middle" x="58" y="-7.5" font-family="Helvetica,sans-Serif" font-size="10.00">WordNode</text>
</a>
</g>
</g>
<!-- Node2 -->
<g id="node2" class="node">
<title>Node2</title>
<g id="a_node2"><a xlink:href="structAPT_1_1Internal_1_1PatternTreeParser_1_1Node.xhtml" target="_top" xlink:title=" ">
<polygon fill="white" stroke="black" points="0,-78.5 0,-97.5 42,-97.5 42,-78.5 0,-78.5"/>
<text text-anchor="middle" x="21" y="-85.5" font-family="Helvetica,sans-Serif" font-size="10.00">Node</text>
</a>
</g>
</g>
<!-- Node2&#45;&gt;Node1 -->
<g id="edge1" class="edge">
<title>Node2&#45;&gt;Node1</title>
<path fill="none" stroke="midnightblue" d="M30.28,-69.32C36.57,-57.34 44.77,-41.72 50.61,-30.58"/>
<polygon fill="midnightblue" stroke="midnightblue" points="27.08,-67.87 25.54,-78.36 33.28,-71.13 27.08,-67.87"/>
</g>
<!-- Node3 -->
<g id="node3" class="node">
<title>Node3</title>
<g id="a_node3"><a xlink:href="classAPT_1_1StringView.xhtml" target="_top" xlink:title="Simple subset of std::string_view from C++17.">
<polygon fill="white" stroke="black" points="60.5,-78.5 60.5,-97.5 129.5,-97.5 129.5,-78.5 60.5,-78.5"/>
<text text-anchor="middle" x="95" y="-85.5" font-family="Helvetica,sans-Serif" font-size="10.00">StringView</text>
</a>
</g>
</g>
<!-- Node3&#45;&gt;Node1 -->
<g id="edge2" class="edge">
<title>Node3&#45;&gt;Node1</title>
<path fill="none" stroke="#9a32cd" stroke-dasharray="5,2" d="M85.72,-69.32C79.43,-57.34 71.23,-41.72 65.39,-30.58"/>
<polygon fill="#9a32cd" stroke="#9a32cd" points="82.72,-71.13 90.46,-78.36 88.92,-67.87 82.72,-71.13"/>
<text text-anchor="middle" x="93" y="-52" font-family="Helvetica,sans-Serif" font-size="10.00"> word</text>
</g>
</g>
</svg>
