<svg xmlns="http://www.w3.org/2000/svg" xmlns:xlink="http://www.w3.org/1999/xlink" width="196pt" height="163pt" viewBox="0 0 195.5 163"><g id="graph0" class="graph" transform="scale(1 1) rotate(0) translate(4 159)"><title>pkgSrcRecords::File</title><polygon fill="#fff" stroke="transparent" points="-4 4 -4 -159 191.5 -159 191.5 4 -4 4"/><g id="node1" class="node"><title>Node1</title><g id="a_node1"><a><polygon fill="#bfbfbf" stroke="#000" points="18.5 -.5 18.5 -19.5 130.5 -19.5 130.5 -.5 18.5 -.5"/><text x="74.5" y="-7.5" font-family="Helvetica,sans-Serif" font-size="10" text-anchor="middle">pkgSrcRecords::File</text></a></g></g><g id="node2" class="node"><title>Node2</title><g id="a_node2"><a target="_top" xlink:href="classHashStringList.xhtml"><polygon fill="#fff" stroke="#000" points="0 -78.5 0 -97.5 87 -97.5 87 -78.5 0 -78.5"/><text x="43.5" y="-85.5" font-family="Helvetica,sans-Serif" font-size="10" text-anchor="middle">HashStringList</text></a></g></g><g id="edge1" class="edge"><title>Node2-&gt;Node1</title><path fill="none" stroke="#9a32cd" stroke-dasharray="5 2" d="M45.8,-68.44C47.42,-59.02 50.12,-47.57 54.5,-38 57.51,-31.42 62.3,-24.88 66.43,-19.89"/><polygon fill="#9a32cd" stroke="#9a32cd" points="42.34 -67.93 44.35 -78.33 49.26 -68.95 42.34 -67.93"/><text x="74.5" y="-46.5" font-family="Helvetica,sans-Serif" font-size="10" text-anchor="middle">Hashes</text></g><g id="node3" class="node"><title>Node3</title><g id="a_node3"><a><polygon fill="#fff" stroke="#bfbfbf" points="105.5 -78.5 105.5 -97.5 149.5 -97.5 149.5 -78.5 105.5 -78.5"/><text x="127.5" y="-85.5" font-family="Helvetica,sans-Serif" font-size="10" text-anchor="middle">string</text></a></g></g><g id="edge2" class="edge"><title>Node3-&gt;Node1</title><path fill="none" stroke="#9a32cd" stroke-dasharray="5 2" d="M116.16,-69.75C109.87,-60.3 101.87,-48.43 94.5,-38 90.19,-31.9 85.19,-25.15 81.27,-19.93"/><polygon fill="#9a32cd" stroke="#9a32cd" points="113.34 -71.84 121.77 -78.25 119.18 -67.97 113.34 -71.84"/><text x="121" y="-52" font-family="Helvetica,sans-Serif" font-size="10" text-anchor="middle">Path</text><text x="121" y="-41" font-family="Helvetica,sans-Serif" font-size="10" text-anchor="middle">Type</text></g><g id="node4" class="node"><title>Node4</title><g id="a_node4"><a><polygon fill="#fff" stroke="#bfbfbf" points="67.5 -135.5 67.5 -154.5 187.5 -154.5 187.5 -135.5 67.5 -135.5"/><text x="127.5" y="-142.5" font-family="Helvetica,sans-Serif" font-size="10" text-anchor="middle">basic_string&lt; Char &gt;</text></a></g></g><g id="edge3" class="edge"><title>Node4-&gt;Node3</title><path fill="none" stroke="#191970" d="M127.5,-125.12C127.5,-115.82 127.5,-105.06 127.5,-97.71"/><polygon fill="#191970" stroke="#191970" points="124 -125.41 127.5 -135.41 131 -125.41 124 -125.41"/></g></g></svg>