<svg xmlns="http://www.w3.org/2000/svg" xmlns:xlink="http://www.w3.org/1999/xlink" width="115pt" height="140pt" viewBox="0 0 115 140"><g id="graph0" class="graph" transform="scale(1 1) rotate(0) translate(4 136)"><title>PackageIsInstalled</title><polygon fill="#fff" stroke="transparent" points="-4 4 -4 -136 111 -136 111 4 -4 4"/><g id="node1" class="node"><title>Node1</title><g id="a_node1"><a><polygon fill="#bfbfbf" stroke="#000" points="0 -.5 0 -19.5 107 -19.5 107 -.5 0 -.5"/><text x="53.5" y="-7.5" font-family="Helvetica,sans-Serif" font-size="10" text-anchor="middle">PackageIsInstalled</text></a></g></g><g id="node2" class="node"><title>Node2</title><g id="a_node2"><a target="_top" xlink:href="classAPT_1_1CacheFilter_1_1PackageMatcher.xhtml"><polygon fill="#fff" stroke="#000" points="5.5 -56.5 5.5 -75.5 101.5 -75.5 101.5 -56.5 5.5 -56.5"/><text x="53.5" y="-63.5" font-family="Helvetica,sans-Serif" font-size="10" text-anchor="middle">PackageMatcher</text></a></g></g><g id="edge1" class="edge"><title>Node2-&gt;Node1</title><path fill="none" stroke="#191970" d="M53.5,-45.8C53.5,-36.91 53.5,-26.78 53.5,-19.75"/><polygon fill="#191970" stroke="#191970" points="50 -46.08 53.5 -56.08 57 -46.08 50 -46.08"/></g><g id="node3" class="node"><title>Node3</title><g id="a_node3"><a target="_top" xlink:href="classAPT_1_1CacheFilter_1_1Matcher.xhtml"><polygon fill="#fff" stroke="#000" points="25.5 -112.5 25.5 -131.5 81.5 -131.5 81.5 -112.5 25.5 -112.5"/><text x="53.5" y="-119.5" font-family="Helvetica,sans-Serif" font-size="10" text-anchor="middle">Matcher</text></a></g></g><g id="edge2" class="edge"><title>Node3-&gt;Node2</title><path fill="none" stroke="#191970" d="M53.5,-101.8C53.5,-92.91 53.5,-82.78 53.5,-75.75"/><polygon fill="#191970" stroke="#191970" points="50 -102.08 53.5 -112.08 57 -102.08 50 -102.08"/></g></g></svg>