<svg xmlns="http://www.w3.org/2000/svg" xmlns:xlink="http://www.w3.org/1999/xlink" width="296pt" height="163pt" viewBox="0 0 295.5 163"><g id="graph0" class="graph" transform="scale(1 1) rotate(0) translate(4 159)"><title>VersionDepends</title><polygon fill="#fff" stroke="transparent" points="-4 4 -4 -159 291.5 -159 291.5 4 -4 4"/><g id="node1" class="node"><title>Node1</title><g id="a_node1"><a><polygon fill="#bfbfbf" stroke="#000" points="84 -.5 84 -19.5 179 -19.5 179 -.5 84 -.5"/><text x="131.5" y="-7.5" font-family="Helvetica,sans-Serif" font-size="10" text-anchor="middle">VersionDepends</text></a></g></g><g id="node2" class="node"><title>Node2</title><g id="a_node2"><a target="_top" xlink:href="structAPT_1_1Internal_1_1Patterns_1_1VersionAnyMatcher.xhtml"><polygon fill="#fff" stroke="#000" points="0 -73 0 -92 111 -92 111 -73 0 -73"/><text x="55.5" y="-80" font-family="Helvetica,sans-Serif" font-size="10" text-anchor="middle">VersionAnyMatcher</text></a></g></g><g id="edge1" class="edge"><title>Node2-&gt;Node1</title><path fill="none" stroke="#191970" d="M72.54,-65.69C87.85,-51.49 109.76,-31.17 122.1,-19.72"/><polygon fill="#191970" stroke="#191970" points="69.77 -63.49 64.82 -72.86 74.53 -68.62 69.77 -63.49"/></g><g id="node3" class="node"><title>Node3</title><g id="a_node3"><a target="_top" xlink:href="classAPT_1_1CacheFilter_1_1Matcher.xhtml"><polygon fill="#fff" stroke="#000" points="27.5 -135.5 27.5 -154.5 83.5 -154.5 83.5 -135.5 27.5 -135.5"/><text x="55.5" y="-142.5" font-family="Helvetica,sans-Serif" font-size="10" text-anchor="middle">Matcher</text></a></g></g><g id="edge2" class="edge"><title>Node3-&gt;Node2</title><path fill="none" stroke="#191970" d="M55.5,-125C55.5,-114 55.5,-100.68 55.5,-92.15"/><polygon fill="#191970" stroke="#191970" points="52 -125.33 55.5 -135.33 59 -125.33 52 -125.33"/></g><g id="node4" class="node"><title>Node4</title><g id="a_node4"><a><polygon fill="#fff" stroke="#bfbfbf" points="129.5 -67.5 129.5 -97.5 287.5 -97.5 287.5 -67.5 129.5 -67.5"/><text x="137.5" y="-85.5" font-family="Helvetica,sans-Serif" font-size="10" text-anchor="start">unique_ptr&lt; APT::CacheFilter</text><text x="208.5" y="-74.5" font-family="Helvetica,sans-Serif" font-size="10" text-anchor="middle">::Matcher &gt;</text></a></g></g><g id="edge3" class="edge"><title>Node4-&gt;Node1</title><path fill="none" stroke="#9a32cd" stroke-dasharray="5 2" d="M185.17,-60.14C170.44,-46.65 152.19,-29.94 141.21,-19.89"/><polygon fill="#9a32cd" stroke="#9a32cd" points="183.18 -63.06 192.92 -67.23 187.91 -57.9 183.18 -63.06"/><text x="186" y="-41" font-family="Helvetica,sans-Serif" font-size="10" text-anchor="middle">base</text></g></g></svg>