<svg xmlns="http://www.w3.org/2000/svg" xmlns:xlink="http://www.w3.org/1999/xlink" width="320" height="106pt" viewBox="0 0 240 106"><g id="graph0" class="graph" transform="scale(1 1) rotate(0) translate(4 102)"><title>VersionIsAllVersions</title><polygon fill="#fff" stroke="transparent" points="-4 4 -4 -102 236 -102 236 4 -4 4"/><g id="node1" class="node"><title>Node1</title><g id="a_node1"><a><polygon fill="#bfbfbf" stroke="#000" points="32.5 -.5 32.5 -19.5 147.5 -19.5 147.5 -.5 32.5 -.5"/><text x="90" y="-7.5" font-family="Helvetica,sans-Serif" font-size="10" text-anchor="middle">VersionIsAllVersions</text></a></g></g><g id="node2" class="node"><title>Node2</title><g id="a_node2"><a target="_top" xlink:href="classAPT_1_1CacheFilter_1_1Matcher.xhtml"><polygon fill="#fff" stroke="#000" points="0 -73 0 -92 56 -92 56 -73 0 -73"/><text x="28" y="-80" font-family="Helvetica,sans-Serif" font-size="10" text-anchor="middle">Matcher</text></a></g></g><g id="edge1" class="edge"><title>Node2-&gt;Node1</title><path fill="none" stroke="#191970" d="M42.25,-65.3C54.72,-51.12 72.36,-31.06 82.34,-19.72"/><polygon fill="#191970" stroke="#191970" points="39.58 -63.03 35.6 -72.86 44.83 -67.66 39.58 -63.03"/></g><g id="node3" class="node"><title>Node3</title><g id="a_node3"><a><polygon fill="#fff" stroke="#bfbfbf" points="74 -67.5 74 -97.5 232 -97.5 232 -67.5 74 -67.5"/><text x="82" y="-85.5" font-family="Helvetica,sans-Serif" font-size="10" text-anchor="start">unique_ptr&lt; APT::CacheFilter</text><text x="153" y="-74.5" font-family="Helvetica,sans-Serif" font-size="10" text-anchor="middle">::Matcher &gt;</text></a></g></g><g id="edge2" class="edge"><title>Node3-&gt;Node1</title><path fill="none" stroke="#9a32cd" stroke-dasharray="5 2" d="M133.57,-59.76C121.58,-46.34 106.84,-29.85 97.95,-19.89"/><polygon fill="#9a32cd" stroke="#9a32cd" points="130.98 -62.11 140.25 -67.23 136.2 -57.44 130.98 -62.11"/><text x="136.5" y="-41" font-family="Helvetica,sans-Serif" font-size="10" text-anchor="middle">base</text></g></g></svg>