<svg xmlns="http://www.w3.org/2000/svg" xmlns:xlink="http://www.w3.org/1999/xlink" width="248pt" height="152pt" viewBox="0 0 248 152"><g id="graph0" class="graph" transform="scale(1 1) rotate(0) translate(4 148)"><title>VersionIsSection</title><polygon fill="#fff" stroke="transparent" points="-4 4 -4 -148 244 -148 244 4 -4 4"/><g id="node1" class="node"><title>Node1</title><g id="a_node1"><a><polygon fill="#bfbfbf" stroke="#000" points="103 -.5 103 -19.5 200 -19.5 200 -.5 103 -.5"/><text x="151.5" y="-7.5" font-family="Helvetica,sans-Serif" font-size="10" text-anchor="middle">VersionIsSection</text></a></g></g><g id="node2" class="node"><title>Node2</title><g id="a_node2"><a target="_top" xlink:href="structAPT_1_1Internal_1_1Patterns_1_1VersionAnyMatcher.xhtml"><polygon fill="#fff" stroke="#000" points="0 -67.5 0 -86.5 111 -86.5 111 -67.5 0 -67.5"/><text x="55.5" y="-74.5" font-family="Helvetica,sans-Serif" font-size="10" text-anchor="middle">VersionAnyMatcher</text></a></g></g><g id="edge1" class="edge"><title>Node2-&gt;Node1</title><path fill="none" stroke="#191970" d="M76.78,-61.59C95.77,-48.74 122.95,-30.33 138.76,-19.63"/><polygon fill="#191970" stroke="#191970" points="74.77 -58.73 68.45 -67.23 78.69 -64.53 74.77 -58.73"/></g><g id="node3" class="node"><title>Node3</title><g id="a_node3"><a target="_top" xlink:href="classAPT_1_1CacheFilter_1_1Matcher.xhtml"><polygon fill="#fff" stroke="#000" points="27.5 -124.5 27.5 -143.5 83.5 -143.5 83.5 -124.5 27.5 -124.5"/><text x="55.5" y="-131.5" font-family="Helvetica,sans-Serif" font-size="10" text-anchor="middle">Matcher</text></a></g></g><g id="edge2" class="edge"><title>Node3-&gt;Node2</title><path fill="none" stroke="#191970" d="M55.5,-114.12C55.5,-104.82 55.5,-94.06 55.5,-86.71"/><polygon fill="#191970" stroke="#191970" points="52 -114.41 55.5 -124.41 59 -114.41 52 -114.41"/></g><g id="node4" class="node"><title>Node4</title><g id="a_node4"><a target="_top" xlink:href="classAPT_1_1Internal_1_1Patterns_1_1BaseRegexMatcher.xhtml" xlink:title="Basic helper class for matching regex."><polygon fill="#fff" stroke="#000" points="129 -67.5 129 -86.5 240 -86.5 240 -67.5 129 -67.5"/><text x="184.5" y="-74.5" font-family="Helvetica,sans-Serif" font-size="10" text-anchor="middle">BaseRegexMatcher</text></a></g></g><g id="edge3" class="edge"><title>Node4-&gt;Node1</title><path fill="none" stroke="#9a32cd" stroke-dasharray="5 2" d="M175.44,-58.16C169.08,-45.63 160.85,-29.41 155.88,-19.63"/><polygon fill="#9a32cd" stroke="#9a32cd" points="172.4 -59.9 180.05 -67.23 178.64 -56.73 172.4 -59.9"/><text x="191.5" y="-41" font-family="Helvetica,sans-Serif" font-size="10" text-anchor="middle">matcher</text></g></g></svg>