<?xml version="1.0" encoding="UTF-8" standalone="no"?>
<!DOCTYPE svg PUBLIC "-//W3C//DTD SVG 1.1//EN"
 "http://www.w3.org/Graphics/SVG/1.1/DTD/svg11.dtd">
<!-- Generated by graphviz version 2.43.0 (0)
 -->
<!-- Title: pkgAcquire::QItem Pages: 1 -->
<svg width="190pt" height="95pt"
 viewBox="0.00 0.00 190.00 95.00" xmlns="http://www.w3.org/2000/svg" xmlns:xlink="http://www.w3.org/1999/xlink">
<g id="graph0" class="graph" transform="scale(1 1) rotate(0) translate(4 91)">
<title>pkgAcquire::QItem</title>
<polygon fill="white" stroke="transparent" points="-4,4 -4,-91 186,-91 186,4 -4,4"/>
<!-- Node1 -->
<g id="node1" class="node">
<title>Node1</title>
<g id="a_node1"><a xlink:title="A single item placed in this queue.">
<polygon fill="#bfbfbf" stroke="black" points="28,-0.5 28,-19.5 135,-19.5 135,-0.5 28,-0.5"/>
<text text-anchor="middle" x="81.5" y="-7.5" font-family="Helvetica,sans-Serif" font-size="10.00">pkgAcquire::QItem</text>
</a>
</g>
</g>
<!-- Node1&#45;&gt;Node1 -->
<g id="edge3" class="edge">
<title>Node1&#45;&gt;Node1</title>
<path fill="none" stroke="#9a32cd" stroke-dasharray="5,2" d="M145.38,-14.46C150.1,-13.46 153,-11.97 153,-10 153,-6.84 145.58,-4.93 135.13,-4.27"/>
<polygon fill="#9a32cd" stroke="#9a32cd" points="144.62,-11.03 135.13,-15.73 145.49,-17.97 144.62,-11.03"/>
<text text-anchor="middle" x="166.5" y="-7.5" font-family="Helvetica,sans-Serif" font-size="10.00"> Next</text>
</g>
<!-- Node2 -->
<g id="node2" class="node">
<title>Node2</title>
<g id="a_node2"><a xlink:title=" ">
<polygon fill="white" stroke="#bfbfbf" points="0,-67.5 0,-86.5 63,-86.5 63,-67.5 0,-67.5"/>
<text text-anchor="middle" x="31.5" y="-74.5" font-family="Helvetica,sans-Serif" font-size="10.00">ItemDesc</text>
</a>
</g>
</g>
<!-- Node2&#45;&gt;Node1 -->
<g id="edge1" class="edge">
<title>Node2&#45;&gt;Node1</title>
<path fill="none" stroke="midnightblue" d="M44.37,-59.27C54.12,-46.6 67.11,-29.7 74.86,-19.63"/>
<polygon fill="midnightblue" stroke="midnightblue" points="41.57,-57.17 38.24,-67.23 47.11,-61.44 41.57,-57.17"/>
</g>
<!-- Node3 -->
<g id="node3" class="node">
<title>Node3</title>
<g id="a_node3"><a xlink:title=" ">
<polygon fill="white" stroke="#bfbfbf" points="81,-67.5 81,-86.5 182,-86.5 182,-67.5 81,-67.5"/>
<text text-anchor="middle" x="131.5" y="-74.5" font-family="Helvetica,sans-Serif" font-size="10.00">vector&lt; Item * &gt;</text>
</a>
</g>
</g>
<!-- Node3&#45;&gt;Node1 -->
<g id="edge2" class="edge">
<title>Node3&#45;&gt;Node1</title>
<path fill="none" stroke="#9a32cd" stroke-dasharray="5,2" d="M118.63,-59.27C108.88,-46.6 95.89,-29.7 88.14,-19.63"/>
<polygon fill="#9a32cd" stroke="#9a32cd" points="115.89,-61.44 124.76,-67.23 121.43,-57.17 115.89,-61.44"/>
<text text-anchor="middle" x="128.5" y="-41" font-family="Helvetica,sans-Serif" font-size="10.00"> Owners</text>
</g>
</g>
</svg>
