<svg xmlns="http://www.w3.org/2000/svg" xmlns:xlink="http://www.w3.org/1999/xlink" width="348" height="265pt" viewBox="0 0 261 265"><g id="graph0" class="graph" transform="scale(1 1) rotate(0) translate(4 261)"><title>debReleaseIndexPrivate::debSectionEntry</title><polygon fill="#fff" stroke="transparent" points="-4 4 -4 -261 257 -261 257 4 -4 4"/><g id="node1" class="node"><title>Node1</title><g id="a_node1"><a><polygon fill="#bfbfbf" stroke="#000" points="0 -.5 0 -30.5 135 -30.5 135 -.5 0 -.5"/><text x="8" y="-18.5" font-family="Helvetica,sans-Serif" font-size="10" text-anchor="start">debReleaseIndexPrivate</text><text x="67.5" y="-7.5" font-family="Helvetica,sans-Serif" font-size="10" text-anchor="middle">::debSectionEntry</text></a></g></g><g id="node2" class="node"><title>Node2</title><g id="a_node2"><a><polygon fill="#fff" stroke="#bfbfbf" points="45.5 -180.5 45.5 -199.5 89.5 -199.5 89.5 -180.5 45.5 -180.5"/><text x="67.5" y="-187.5" font-family="Helvetica,sans-Serif" font-size="10" text-anchor="middle">string</text></a></g></g><g id="edge1" class="edge"><title>Node2-&gt;Node1</title><path fill="none" stroke="#9a32cd" stroke-dasharray="5 2" d="M64.99,-170.29C63.66,-159.42 62.17,-145.46 61.5,-133 59.53,-96.19 63.4,-52.84 65.79,-30.85"/><polygon fill="#9a32cd" stroke="#9a32cd" points="61.53 -170.82 66.28 -180.29 68.47 -169.93 61.53 -170.82"/><text x="93.5" y="-125" font-family="Helvetica,sans-Serif" font-size="10" text-anchor="middle">Name</text><text x="93.5" y="-114" font-family="Helvetica,sans-Serif" font-size="10" text-anchor="middle">UseByHash</text><text x="93.5" y="-103" font-family="Helvetica,sans-Serif" font-size="10" text-anchor="middle">sourcesEntry</text></g><g id="node4" class="node"><title>Node4</title><g id="a_node4"><a><polygon fill="#fff" stroke="#bfbfbf" points="134 -107 134 -126 253 -126 253 -107 134 -107"/><text x="193.5" y="-114" font-family="Helvetica,sans-Serif" font-size="10" text-anchor="middle">vector&lt; std::string &gt;</text></a></g></g><g id="edge4" class="edge"><title>Node2-&gt;Node4</title><path fill="none" stroke="#9a32cd" stroke-dasharray="5 2" d="M91.68,-175.28C117.25,-160.77 156.81,-138.32 178.32,-126.12"/><polygon fill="#9a32cd" stroke="#9a32cd" points="89.92 -172.25 82.95 -180.23 93.37 -178.34 89.92 -172.25"/><text x="158" y="-154" font-family="Helvetica,sans-Serif" font-size="10" text-anchor="middle">elements</text></g><g id="node3" class="node"><title>Node3</title><g id="a_node3"><a><polygon fill="#fff" stroke="#bfbfbf" points="7.5 -237.5 7.5 -256.5 127.5 -256.5 127.5 -237.5 7.5 -237.5"/><text x="67.5" y="-244.5" font-family="Helvetica,sans-Serif" font-size="10" text-anchor="middle">basic_string&lt; Char &gt;</text></a></g></g><g id="edge2" class="edge"><title>Node3-&gt;Node2</title><path fill="none" stroke="#191970" d="M67.5,-227.12C67.5,-217.82 67.5,-207.06 67.5,-199.71"/><polygon fill="#191970" stroke="#191970" points="64 -227.41 67.5 -237.41 71 -227.41 64 -227.41"/></g><g id="edge3" class="edge"><title>Node4-&gt;Node1</title><path fill="none" stroke="#9a32cd" stroke-dasharray="5 2" d="M174.27,-100.39C150.2,-81.48 109.25,-49.3 85.68,-30.78"/><polygon fill="#9a32cd" stroke="#9a32cd" points="172.29 -103.29 182.32 -106.71 176.62 -97.78 172.29 -103.29"/><text x="182.5" y="-74" font-family="Helvetica,sans-Serif" font-size="10" text-anchor="middle">Architectures</text><text x="182.5" y="-63" font-family="Helvetica,sans-Serif" font-size="10" text-anchor="middle">Languages</text><text x="182.5" y="-52" font-family="Helvetica,sans-Serif" font-size="10" text-anchor="middle">Targets</text></g></g></svg>