<?xml version="1.0" encoding="UTF-8" standalone="no"?>
<!DOCTYPE svg PUBLIC "-//W3C//DTD SVG 1.1//EN"
 "http://www.w3.org/Graphics/SVG/1.1/DTD/svg11.dtd">
<!-- Generated by graphviz version 2.43.0 (0)
 -->
<!-- Title: pkgSrcRecords::File Pages: 1 -->
<svg width="196pt" height="163pt"
 viewBox="0.00 0.00 195.50 163.00" xmlns="http://www.w3.org/2000/svg" xmlns:xlink="http://www.w3.org/1999/xlink">
<g id="graph0" class="graph" transform="scale(1 1) rotate(0) translate(4 159)">
<title>pkgSrcRecords::File</title>
<polygon fill="white" stroke="transparent" points="-4,4 -4,-159 191.5,-159 191.5,4 -4,4"/>
<!-- Node1 -->
<g id="node1" class="node">
<title>Node1</title>
<g id="a_node1"><a xlink:title=" ">
<polygon fill="#bfbfbf" stroke="black" points="18.5,-0.5 18.5,-19.5 130.5,-19.5 130.5,-0.5 18.5,-0.5"/>
<text text-anchor="middle" x="74.5" y="-7.5" font-family="Helvetica,sans-Serif" font-size="10.00">pkgSrcRecords::File</text>
</a>
</g>
</g>
<!-- Node2 -->
<g id="node2" class="node">
<title>Node2</title>
<g id="a_node2"><a xlink:href="classHashStringList.xhtml" target="_top" xlink:title=" ">
<polygon fill="white" stroke="black" points="0,-78.5 0,-97.5 87,-97.5 87,-78.5 0,-78.5"/>
<text text-anchor="middle" x="43.5" y="-85.5" font-family="Helvetica,sans-Serif" font-size="10.00">HashStringList</text>
</a>
</g>
</g>
<!-- Node2&#45;&gt;Node1 -->
<g id="edge1" class="edge">
<title>Node2&#45;&gt;Node1</title>
<path fill="none" stroke="#9a32cd" stroke-dasharray="5,2" d="M45.8,-68.44C47.42,-59.02 50.12,-47.57 54.5,-38 57.51,-31.42 62.3,-24.88 66.43,-19.89"/>
<polygon fill="#9a32cd" stroke="#9a32cd" points="42.34,-67.93 44.35,-78.33 49.26,-68.95 42.34,-67.93"/>
<text text-anchor="middle" x="74.5" y="-46.5" font-family="Helvetica,sans-Serif" font-size="10.00"> Hashes</text>
</g>
<!-- Node3 -->
<g id="node3" class="node">
<title>Node3</title>
<g id="a_node3"><a xlink:title=" ">
<polygon fill="white" stroke="#bfbfbf" points="105.5,-78.5 105.5,-97.5 149.5,-97.5 149.5,-78.5 105.5,-78.5"/>
<text text-anchor="middle" x="127.5" y="-85.5" font-family="Helvetica,sans-Serif" font-size="10.00">string</text>
</a>
</g>
</g>
<!-- Node3&#45;&gt;Node1 -->
<g id="edge2" class="edge">
<title>Node3&#45;&gt;Node1</title>
<path fill="none" stroke="#9a32cd" stroke-dasharray="5,2" d="M116.16,-69.75C109.87,-60.3 101.87,-48.43 94.5,-38 90.19,-31.9 85.19,-25.15 81.27,-19.93"/>
<polygon fill="#9a32cd" stroke="#9a32cd" points="113.34,-71.84 121.77,-78.25 119.18,-67.97 113.34,-71.84"/>
<text text-anchor="middle" x="121" y="-52" font-family="Helvetica,sans-Serif" font-size="10.00"> Path</text>
<text text-anchor="middle" x="121" y="-41" font-family="Helvetica,sans-Serif" font-size="10.00">Type</text>
</g>
<!-- Node4 -->
<g id="node4" class="node">
<title>Node4</title>
<g id="a_node4"><a xlink:title=" ">
<polygon fill="white" stroke="#bfbfbf" points="67.5,-135.5 67.5,-154.5 187.5,-154.5 187.5,-135.5 67.5,-135.5"/>
<text text-anchor="middle" x="127.5" y="-142.5" font-family="Helvetica,sans-Serif" font-size="10.00">basic_string&lt; Char &gt;</text>
</a>
</g>
</g>
<!-- Node4&#45;&gt;Node3 -->
<g id="edge3" class="edge">
<title>Node4&#45;&gt;Node3</title>
<path fill="none" stroke="midnightblue" d="M127.5,-125.12C127.5,-115.82 127.5,-105.06 127.5,-97.71"/>
<polygon fill="midnightblue" stroke="midnightblue" points="124,-125.41 127.5,-135.41 131,-125.41 124,-125.41"/>
</g>
</g>
</svg>
