<?xml version="1.0" encoding="UTF-8" standalone="no"?>
<!DOCTYPE svg PUBLIC "-//W3C//DTD SVG 1.1//EN"
 "http://www.w3.org/Graphics/SVG/1.1/DTD/svg11.dtd">
<!-- Generated by graphviz version 2.43.0 (0)
 -->
<!-- Title: pkgAcqMethod::FetchResult Pages: 1 -->
<svg width="318pt" height="219pt"
 viewBox="0.00 0.00 318.00 219.00" xmlns="http://www.w3.org/2000/svg" xmlns:xlink="http://www.w3.org/1999/xlink">
<g id="graph0" class="graph" transform="scale(1 1) rotate(0) translate(4 215)">
<title>pkgAcqMethod::FetchResult</title>
<polygon fill="white" stroke="transparent" points="-4,4 -4,-215 314,-215 314,4 -4,4"/>
<!-- Node1 -->
<g id="node1" class="node">
<title>Node1</title>
<g id="a_node1"><a xlink:title=" ">
<polygon fill="#bfbfbf" stroke="black" points="47.5,-0.5 47.5,-19.5 199.5,-19.5 199.5,-0.5 47.5,-0.5"/>
<text text-anchor="middle" x="123.5" y="-7.5" font-family="Helvetica,sans-Serif" font-size="10.00">pkgAcqMethod::FetchResult</text>
</a>
</g>
</g>
<!-- Node2 -->
<g id="node2" class="node">
<title>Node2</title>
<g id="a_node2"><a xlink:href="classHashStringList.xhtml" target="_top" xlink:title=" ">
<polygon fill="white" stroke="black" points="0,-67.5 0,-86.5 87,-86.5 87,-67.5 0,-67.5"/>
<text text-anchor="middle" x="43.5" y="-74.5" font-family="Helvetica,sans-Serif" font-size="10.00">HashStringList</text>
</a>
</g>
</g>
<!-- Node2&#45;&gt;Node1 -->
<g id="edge1" class="edge">
<title>Node2&#45;&gt;Node1</title>
<path fill="none" stroke="#9a32cd" stroke-dasharray="5,2" d="M52.92,-58.39C57.28,-51.41 62.96,-43.71 69.5,-38 78.43,-30.22 89.99,-24.04 100.13,-19.57"/>
<polygon fill="#9a32cd" stroke="#9a32cd" points="49.8,-56.8 47.83,-67.21 55.86,-60.3 49.8,-56.8"/>
<text text-anchor="middle" x="89.5" y="-41" font-family="Helvetica,sans-Serif" font-size="10.00"> Hashes</text>
</g>
<!-- Node3 -->
<g id="node3" class="node">
<title>Node3</title>
<g id="a_node3"><a xlink:title=" ">
<polygon fill="white" stroke="#bfbfbf" points="117.5,-134.5 117.5,-153.5 161.5,-153.5 161.5,-134.5 117.5,-134.5"/>
<text text-anchor="middle" x="139.5" y="-141.5" font-family="Helvetica,sans-Serif" font-size="10.00">string</text>
</a>
</g>
</g>
<!-- Node3&#45;&gt;Node1 -->
<g id="edge2" class="edge">
<title>Node3&#45;&gt;Node1</title>
<path fill="none" stroke="#9a32cd" stroke-dasharray="5,2" d="M137.23,-124.28C133.71,-95.25 127.08,-40.54 124.53,-19.52"/>
<polygon fill="#9a32cd" stroke="#9a32cd" points="133.77,-124.83 138.45,-134.34 140.72,-123.99 133.77,-124.83"/>
<text text-anchor="middle" x="157" y="-74.5" font-family="Helvetica,sans-Serif" font-size="10.00"> Filename</text>
</g>
<!-- Node5 -->
<g id="node5" class="node">
<title>Node5</title>
<g id="a_node5"><a xlink:title=" ">
<polygon fill="white" stroke="#bfbfbf" points="191,-67.5 191,-86.5 310,-86.5 310,-67.5 191,-67.5"/>
<text text-anchor="middle" x="250.5" y="-74.5" font-family="Helvetica,sans-Serif" font-size="10.00">vector&lt; std::string &gt;</text>
</a>
</g>
</g>
<!-- Node3&#45;&gt;Node5 -->
<g id="edge5" class="edge">
<title>Node3&#45;&gt;Node5</title>
<path fill="none" stroke="#9a32cd" stroke-dasharray="5,2" d="M163.21,-129.12C185.2,-116.24 217.24,-97.48 235.77,-86.63"/>
<polygon fill="#9a32cd" stroke="#9a32cd" points="161.33,-126.16 154.47,-134.23 164.87,-132.2 161.33,-126.16"/>
<text text-anchor="middle" x="226" y="-108" font-family="Helvetica,sans-Serif" font-size="10.00"> elements</text>
</g>
<!-- Node4 -->
<g id="node4" class="node">
<title>Node4</title>
<g id="a_node4"><a xlink:title=" ">
<polygon fill="white" stroke="#bfbfbf" points="79.5,-191.5 79.5,-210.5 199.5,-210.5 199.5,-191.5 79.5,-191.5"/>
<text text-anchor="middle" x="139.5" y="-198.5" font-family="Helvetica,sans-Serif" font-size="10.00">basic_string&lt; Char &gt;</text>
</a>
</g>
</g>
<!-- Node4&#45;&gt;Node3 -->
<g id="edge3" class="edge">
<title>Node4&#45;&gt;Node3</title>
<path fill="none" stroke="midnightblue" d="M139.5,-181.12C139.5,-171.82 139.5,-161.06 139.5,-153.71"/>
<polygon fill="midnightblue" stroke="midnightblue" points="136,-181.41 139.5,-191.41 143,-181.41 136,-181.41"/>
</g>
<!-- Node5&#45;&gt;Node1 -->
<g id="edge4" class="edge">
<title>Node5&#45;&gt;Node1</title>
<path fill="none" stroke="#9a32cd" stroke-dasharray="5,2" d="M224.66,-62.77C199.5,-49.9 162.01,-30.71 140.43,-19.67"/>
<polygon fill="#9a32cd" stroke="#9a32cd" points="223.14,-65.93 233.64,-67.37 226.33,-59.7 223.14,-65.93"/>
<text text-anchor="middle" x="226.5" y="-41" font-family="Helvetica,sans-Serif" font-size="10.00"> GPGVOutput</text>
</g>
</g>
</svg>
