<svg xmlns="http://www.w3.org/2000/svg" xmlns:xlink="http://www.w3.org/1999/xlink" width="116pt" height="140pt" viewBox="0 0 116 140"><g id="graph0" class="graph" transform="scale(1 1) rotate(0) translate(4 136)"><title>PackageIsObsolete</title><polygon fill="#fff" stroke="transparent" points="-4 4 -4 -136 112 -136 112 4 -4 4"/><g id="node1" class="node"><title>Node1</title><g id="a_node1"><a><polygon fill="#bfbfbf" stroke="#000" points="0 -.5 0 -19.5 108 -19.5 108 -.5 0 -.5"/><text x="54" y="-7.5" font-family="Helvetica,sans-Serif" font-size="10" text-anchor="middle">PackageIsObsolete</text></a></g></g><g id="node2" class="node"><title>Node2</title><g id="a_node2"><a target="_top" xlink:href="classAPT_1_1CacheFilter_1_1PackageMatcher.xhtml"><polygon fill="#fff" stroke="#000" points="6 -56.5 6 -75.5 102 -75.5 102 -56.5 6 -56.5"/><text x="54" y="-63.5" font-family="Helvetica,sans-Serif" font-size="10" text-anchor="middle">PackageMatcher</text></a></g></g><g id="edge1" class="edge"><title>Node2-&gt;Node1</title><path fill="none" stroke="#191970" d="M54,-45.8C54,-36.91 54,-26.78 54,-19.75"/><polygon fill="#191970" stroke="#191970" points="50.5 -46.08 54 -56.08 57.5 -46.08 50.5 -46.08"/></g><g id="node3" class="node"><title>Node3</title><g id="a_node3"><a target="_top" xlink:href="classAPT_1_1CacheFilter_1_1Matcher.xhtml"><polygon fill="#fff" stroke="#000" points="26 -112.5 26 -131.5 82 -131.5 82 -112.5 26 -112.5"/><text x="54" y="-119.5" font-family="Helvetica,sans-Serif" font-size="10" text-anchor="middle">Matcher</text></a></g></g><g id="edge2" class="edge"><title>Node3-&gt;Node2</title><path fill="none" stroke="#191970" d="M54,-101.8C54,-92.91 54,-82.78 54,-75.75"/><polygon fill="#191970" stroke="#191970" points="50.5 -102.08 54 -112.08 57.5 -102.08 50.5 -102.08"/></g></g></svg>