<svg xmlns="http://www.w3.org/2000/svg" xmlns:xlink="http://www.w3.org/1999/xlink" width="128pt" height="209pt" viewBox="0 0 128 209"><g id="graph0" class="graph" transform="scale(1 1) rotate(0) translate(4 205)"><title>pkgPolicy::PkgPin</title><polygon fill="#fff" stroke="transparent" points="-4 4 -4 -205 124 -205 124 4 -4 4"/><g id="node1" class="node"><title>Node1</title><g id="a_node1"><a><polygon fill="#bfbfbf" stroke="#000" points="5 -.5 5 -19.5 107 -19.5 107 -.5 5 -.5"/><text x="56" y="-7.5" font-family="Helvetica,sans-Serif" font-size="10" text-anchor="middle">pkgPolicy::PkgPin</text></a></g></g><g id="node2" class="node"><title>Node2</title><g id="a_node2"><a target="_top" xlink:href="structpkgPolicy_1_1Pin.xhtml"><polygon fill="#fff" stroke="#000" points="84 -57.5 84 -76.5 116 -76.5 116 -57.5 84 -57.5"/><text x="100" y="-64.5" font-family="Helvetica,sans-Serif" font-size="10" text-anchor="middle">Pin</text></a></g></g><g id="edge1" class="edge"><title>Node2-&gt;Node1</title><path fill="none" stroke="#191970" d="M86.83,-49.53C78.99,-39.74 69.36,-27.7 62.97,-19.71"/><polygon fill="#191970" stroke="#191970" points="84.14 -51.78 93.12 -57.41 89.61 -47.41 84.14 -51.78"/></g><g id="node3" class="node"><title>Node3</title><g id="a_node3"><a><polygon fill="#fff" stroke="#bfbfbf" points="38 -124.5 38 -143.5 82 -143.5 82 -124.5 38 -124.5"/><text x="60" y="-131.5" font-family="Helvetica,sans-Serif" font-size="10" text-anchor="middle">string</text></a></g></g><g id="edge4" class="edge"><title>Node3-&gt;Node1</title><path fill="none" stroke="#9a32cd" stroke-dasharray="5 2" d="M57.07,-114.3C55.52,-103.44 53.78,-89.48 53,-77 52.45,-68.13 52.71,-65.88 53,-57 53.42,-44.04 54.51,-29.06 55.25,-19.81"/><polygon fill="#9a32cd" stroke="#9a32cd" points="53.63 -114.93 58.57 -124.3 60.55 -113.89 53.63 -114.93"/><text x="64" y="-64.5" font-family="Helvetica,sans-Serif" font-size="10" text-anchor="middle">Pkg</text></g><g id="edge2" class="edge"><title>Node3-&gt;Node2</title><path fill="none" stroke="#9a32cd" stroke-dasharray="5 2" d="M70.75,-115.53C78.49,-102.95 88.61,-86.51 94.69,-76.63"/><polygon fill="#9a32cd" stroke="#9a32cd" points="67.65 -113.88 65.39 -124.23 73.62 -117.55 67.65 -113.88"/><text x="95.5" y="-98" font-family="Helvetica,sans-Serif" font-size="10" text-anchor="middle">Data</text></g><g id="node4" class="node"><title>Node4</title><g id="a_node4"><a><polygon fill="#fff" stroke="#bfbfbf" points="0 -181.5 0 -200.5 120 -200.5 120 -181.5 0 -181.5"/><text x="60" y="-188.5" font-family="Helvetica,sans-Serif" font-size="10" text-anchor="middle">basic_string&lt; Char &gt;</text></a></g></g><g id="edge3" class="edge"><title>Node4-&gt;Node3</title><path fill="none" stroke="#191970" d="M60,-171.12C60,-161.82 60,-151.06 60,-143.71"/><polygon fill="#191970" stroke="#191970" points="56.5 -171.41 60 -181.41 63.5 -171.41 56.5 -171.41"/></g></g></svg>