<?xml version="1.0" encoding="UTF-8" standalone="no"?>
<!DOCTYPE svg PUBLIC "-//W3C//DTD SVG 1.1//EN"
 "http://www.w3.org/Graphics/SVG/1.1/DTD/svg11.dtd">
<!-- Generated by graphviz version 2.43.0 (0)
 -->
<!-- Title: DiffInfo Pages: 1 -->
<svg width="226pt" height="174pt"
 viewBox="0.00 0.00 225.50 174.00" xmlns="http://www.w3.org/2000/svg" xmlns:xlink="http://www.w3.org/1999/xlink">
<g id="graph0" class="graph" transform="scale(1 1) rotate(0) translate(4 170)">
<title>DiffInfo</title>
<polygon fill="white" stroke="transparent" points="-4,4 -4,-170 221.5,-170 221.5,4 -4,4"/>
<!-- Node1 -->
<g id="node1" class="node">
<title>Node1</title>
<g id="a_node1"><a xlink:title=" ">
<polygon fill="#bfbfbf" stroke="black" points="74,-0.5 74,-19.5 127,-19.5 127,-0.5 74,-0.5"/>
<text text-anchor="middle" x="100.5" y="-7.5" font-family="Helvetica,sans-Serif" font-size="10.00">DiffInfo</text>
</a>
</g>
</g>
<!-- Node2 -->
<g id="node2" class="node">
<title>Node2</title>
<g id="a_node2"><a xlink:href="classHashStringList.xhtml" target="_top" xlink:title=" ">
<polygon fill="white" stroke="black" points="0,-89.5 0,-108.5 87,-108.5 87,-89.5 0,-89.5"/>
<text text-anchor="middle" x="43.5" y="-96.5" font-family="Helvetica,sans-Serif" font-size="10.00">HashStringList</text>
</a>
</g>
</g>
<!-- Node2&#45;&gt;Node1 -->
<g id="edge1" class="edge">
<title>Node2&#45;&gt;Node1</title>
<path fill="none" stroke="#9a32cd" stroke-dasharray="5,2" d="M39.06,-79.56C37.07,-66.89 36.68,-50.22 44.5,-38 51.07,-27.73 62.75,-21.26 73.75,-17.24"/>
<polygon fill="#9a32cd" stroke="#9a32cd" points="35.64,-80.34 41.04,-89.45 42.5,-78.96 35.64,-80.34"/>
<text text-anchor="middle" x="90" y="-63" font-family="Helvetica,sans-Serif" font-size="10.00"> download_hashes</text>
<text text-anchor="middle" x="90" y="-52" font-family="Helvetica,sans-Serif" font-size="10.00">patch_hashes</text>
<text text-anchor="middle" x="90" y="-41" font-family="Helvetica,sans-Serif" font-size="10.00">result_hashes</text>
</g>
<!-- Node3 -->
<g id="node3" class="node">
<title>Node3</title>
<g id="a_node3"><a xlink:title=" ">
<polygon fill="white" stroke="#bfbfbf" points="135.5,-89.5 135.5,-108.5 179.5,-108.5 179.5,-89.5 135.5,-89.5"/>
<text text-anchor="middle" x="157.5" y="-96.5" font-family="Helvetica,sans-Serif" font-size="10.00">string</text>
</a>
</g>
</g>
<!-- Node3&#45;&gt;Node1 -->
<g id="edge2" class="edge">
<title>Node3&#45;&gt;Node1</title>
<path fill="none" stroke="#9a32cd" stroke-dasharray="5,2" d="M153.53,-79.29C150.21,-66.74 144.53,-50.32 135.5,-38 130.15,-30.7 122.29,-24.39 115.38,-19.71"/>
<polygon fill="#9a32cd" stroke="#9a32cd" points="150.15,-80.2 155.87,-89.12 156.96,-78.58 150.15,-80.2"/>
<text text-anchor="middle" x="161" y="-52" font-family="Helvetica,sans-Serif" font-size="10.00"> file</text>
</g>
<!-- Node4 -->
<g id="node4" class="node">
<title>Node4</title>
<g id="a_node4"><a xlink:title=" ">
<polygon fill="white" stroke="#bfbfbf" points="97.5,-146.5 97.5,-165.5 217.5,-165.5 217.5,-146.5 97.5,-146.5"/>
<text text-anchor="middle" x="157.5" y="-153.5" font-family="Helvetica,sans-Serif" font-size="10.00">basic_string&lt; Char &gt;</text>
</a>
</g>
</g>
<!-- Node4&#45;&gt;Node3 -->
<g id="edge3" class="edge">
<title>Node4&#45;&gt;Node3</title>
<path fill="none" stroke="midnightblue" d="M157.5,-136.12C157.5,-126.82 157.5,-116.06 157.5,-108.71"/>
<polygon fill="midnightblue" stroke="midnightblue" points="154,-136.41 157.5,-146.41 161,-136.41 154,-136.41"/>
</g>
</g>
</svg>
