<svg xmlns="http://www.w3.org/2000/svg" xmlns:xlink="http://www.w3.org/1999/xlink" width="172" height="140pt" viewBox="0 0 129 140"><g id="graph0" class="graph" transform="scale(1 1) rotate(0) translate(4 136)"><title>PackageIsUpgradable</title><polygon fill="#fff" stroke="transparent" points="-4 4 -4 -136 125 -136 125 4 -4 4"/><g id="node1" class="node"><title>Node1</title><g id="a_node1"><a><polygon fill="#bfbfbf" stroke="#000" points="0 -.5 0 -19.5 121 -19.5 121 -.5 0 -.5"/><text x="60.5" y="-7.5" font-family="Helvetica,sans-Serif" font-size="10" text-anchor="middle">PackageIsUpgradable</text></a></g></g><g id="node2" class="node"><title>Node2</title><g id="a_node2"><a target="_top" xlink:href="classAPT_1_1CacheFilter_1_1PackageMatcher.xhtml"><polygon fill="#fff" stroke="#000" points="12.5 -56.5 12.5 -75.5 108.5 -75.5 108.5 -56.5 12.5 -56.5"/><text x="60.5" y="-63.5" font-family="Helvetica,sans-Serif" font-size="10" text-anchor="middle">PackageMatcher</text></a></g></g><g id="edge1" class="edge"><title>Node2-&gt;Node1</title><path fill="none" stroke="#191970" d="M60.5,-45.8C60.5,-36.91 60.5,-26.78 60.5,-19.75"/><polygon fill="#191970" stroke="#191970" points="57 -46.08 60.5 -56.08 64 -46.08 57 -46.08"/></g><g id="node3" class="node"><title>Node3</title><g id="a_node3"><a target="_top" xlink:href="classAPT_1_1CacheFilter_1_1Matcher.xhtml"><polygon fill="#fff" stroke="#000" points="32.5 -112.5 32.5 -131.5 88.5 -131.5 88.5 -112.5 32.5 -112.5"/><text x="60.5" y="-119.5" font-family="Helvetica,sans-Serif" font-size="10" text-anchor="middle">Matcher</text></a></g></g><g id="edge2" class="edge"><title>Node3-&gt;Node2</title><path fill="none" stroke="#191970" d="M60.5,-101.8C60.5,-92.91 60.5,-82.78 60.5,-75.75"/><polygon fill="#191970" stroke="#191970" points="57 -102.08 60.5 -112.08 64 -102.08 57 -102.08"/></g></g></svg>