<svg xmlns="http://www.w3.org/2000/svg" xmlns:xlink="http://www.w3.org/1999/xlink" width="168" height="140pt" viewBox="0 0 126 140"><g id="graph0" class="graph" transform="scale(1 1) rotate(0) translate(4 136)"><title>PackageIsConfigFiles</title><polygon fill="#fff" stroke="transparent" points="-4 4 -4 -136 122 -136 122 4 -4 4"/><g id="node1" class="node"><title>Node1</title><g id="a_node1"><a><polygon fill="#bfbfbf" stroke="#000" points="0 -.5 0 -19.5 118 -19.5 118 -.5 0 -.5"/><text x="59" y="-7.5" font-family="Helvetica,sans-Serif" font-size="10" text-anchor="middle">PackageIsConfigFiles</text></a></g></g><g id="node2" class="node"><title>Node2</title><g id="a_node2"><a target="_top" xlink:href="classAPT_1_1CacheFilter_1_1PackageMatcher.xhtml"><polygon fill="#fff" stroke="#000" points="11 -56.5 11 -75.5 107 -75.5 107 -56.5 11 -56.5"/><text x="59" y="-63.5" font-family="Helvetica,sans-Serif" font-size="10" text-anchor="middle">PackageMatcher</text></a></g></g><g id="edge1" class="edge"><title>Node2-&gt;Node1</title><path fill="none" stroke="#191970" d="M59,-45.8C59,-36.91 59,-26.78 59,-19.75"/><polygon fill="#191970" stroke="#191970" points="55.5 -46.08 59 -56.08 62.5 -46.08 55.5 -46.08"/></g><g id="node3" class="node"><title>Node3</title><g id="a_node3"><a target="_top" xlink:href="classAPT_1_1CacheFilter_1_1Matcher.xhtml"><polygon fill="#fff" stroke="#000" points="31 -112.5 31 -131.5 87 -131.5 87 -112.5 31 -112.5"/><text x="59" y="-119.5" font-family="Helvetica,sans-Serif" font-size="10" text-anchor="middle">Matcher</text></a></g></g><g id="edge2" class="edge"><title>Node3-&gt;Node2</title><path fill="none" stroke="#191970" d="M59,-101.8C59,-92.91 59,-82.78 59,-75.75"/><polygon fill="#191970" stroke="#191970" points="55.5 -102.08 59 -112.08 62.5 -102.08 55.5 -102.08"/></g></g></svg>