<?xml version="1.0" encoding="UTF-8" standalone="no"?>
<!DOCTYPE svg PUBLIC "-//W3C//DTD SVG 1.1//EN"
 "http://www.w3.org/Graphics/SVG/1.1/DTD/svg11.dtd">
<!-- Generated by graphviz version 2.43.0 (0)
 -->
<!-- Title: debReleaseIndexPrivate::debSectionEntry Pages: 1 -->
<svg width="261pt" height="265pt"
 viewBox="0.00 0.00 261.00 265.00" xmlns="http://www.w3.org/2000/svg" xmlns:xlink="http://www.w3.org/1999/xlink">
<g id="graph0" class="graph" transform="scale(1 1) rotate(0) translate(4 261)">
<title>debReleaseIndexPrivate::debSectionEntry</title>
<polygon fill="white" stroke="transparent" points="-4,4 -4,-261 257,-261 257,4 -4,4"/>
<!-- Node1 -->
<g id="node1" class="node">
<title>Node1</title>
<g id="a_node1"><a xlink:title=" ">
<polygon fill="#bfbfbf" stroke="black" points="0,-0.5 0,-30.5 135,-30.5 135,-0.5 0,-0.5"/>
<text text-anchor="start" x="8" y="-18.5" font-family="Helvetica,sans-Serif" font-size="10.00">debReleaseIndexPrivate</text>
<text text-anchor="middle" x="67.5" y="-7.5" font-family="Helvetica,sans-Serif" font-size="10.00">::debSectionEntry</text>
</a>
</g>
</g>
<!-- Node2 -->
<g id="node2" class="node">
<title>Node2</title>
<g id="a_node2"><a xlink:title=" ">
<polygon fill="white" stroke="#bfbfbf" points="45.5,-180.5 45.5,-199.5 89.5,-199.5 89.5,-180.5 45.5,-180.5"/>
<text text-anchor="middle" x="67.5" y="-187.5" font-family="Helvetica,sans-Serif" font-size="10.00">string</text>
</a>
</g>
</g>
<!-- Node2&#45;&gt;Node1 -->
<g id="edge1" class="edge">
<title>Node2&#45;&gt;Node1</title>
<path fill="none" stroke="#9a32cd" stroke-dasharray="5,2" d="M64.99,-170.29C63.66,-159.42 62.17,-145.46 61.5,-133 59.53,-96.19 63.4,-52.84 65.79,-30.85"/>
<polygon fill="#9a32cd" stroke="#9a32cd" points="61.53,-170.82 66.28,-180.29 68.47,-169.93 61.53,-170.82"/>
<text text-anchor="middle" x="93.5" y="-125" font-family="Helvetica,sans-Serif" font-size="10.00"> Name</text>
<text text-anchor="middle" x="93.5" y="-114" font-family="Helvetica,sans-Serif" font-size="10.00">UseByHash</text>
<text text-anchor="middle" x="93.5" y="-103" font-family="Helvetica,sans-Serif" font-size="10.00">sourcesEntry</text>
</g>
<!-- Node4 -->
<g id="node4" class="node">
<title>Node4</title>
<g id="a_node4"><a xlink:title=" ">
<polygon fill="white" stroke="#bfbfbf" points="134,-107 134,-126 253,-126 253,-107 134,-107"/>
<text text-anchor="middle" x="193.5" y="-114" font-family="Helvetica,sans-Serif" font-size="10.00">vector&lt; std::string &gt;</text>
</a>
</g>
</g>
<!-- Node2&#45;&gt;Node4 -->
<g id="edge4" class="edge">
<title>Node2&#45;&gt;Node4</title>
<path fill="none" stroke="#9a32cd" stroke-dasharray="5,2" d="M91.68,-175.28C117.25,-160.77 156.81,-138.32 178.32,-126.12"/>
<polygon fill="#9a32cd" stroke="#9a32cd" points="89.92,-172.25 82.95,-180.23 93.37,-178.34 89.92,-172.25"/>
<text text-anchor="middle" x="158" y="-154" font-family="Helvetica,sans-Serif" font-size="10.00"> elements</text>
</g>
<!-- Node3 -->
<g id="node3" class="node">
<title>Node3</title>
<g id="a_node3"><a xlink:title=" ">
<polygon fill="white" stroke="#bfbfbf" points="7.5,-237.5 7.5,-256.5 127.5,-256.5 127.5,-237.5 7.5,-237.5"/>
<text text-anchor="middle" x="67.5" y="-244.5" font-family="Helvetica,sans-Serif" font-size="10.00">basic_string&lt; Char &gt;</text>
</a>
</g>
</g>
<!-- Node3&#45;&gt;Node2 -->
<g id="edge2" class="edge">
<title>Node3&#45;&gt;Node2</title>
<path fill="none" stroke="midnightblue" d="M67.5,-227.12C67.5,-217.82 67.5,-207.06 67.5,-199.71"/>
<polygon fill="midnightblue" stroke="midnightblue" points="64,-227.41 67.5,-237.41 71,-227.41 64,-227.41"/>
</g>
<!-- Node4&#45;&gt;Node1 -->
<g id="edge3" class="edge">
<title>Node4&#45;&gt;Node1</title>
<path fill="none" stroke="#9a32cd" stroke-dasharray="5,2" d="M174.27,-100.39C150.2,-81.48 109.25,-49.3 85.68,-30.78"/>
<polygon fill="#9a32cd" stroke="#9a32cd" points="172.29,-103.29 182.32,-106.71 176.62,-97.78 172.29,-103.29"/>
<text text-anchor="middle" x="182.5" y="-74" font-family="Helvetica,sans-Serif" font-size="10.00"> Architectures</text>
<text text-anchor="middle" x="182.5" y="-63" font-family="Helvetica,sans-Serif" font-size="10.00">Languages</text>
<text text-anchor="middle" x="182.5" y="-52" font-family="Helvetica,sans-Serif" font-size="10.00">Targets</text>
</g>
</g>
</svg>
