<svg xmlns="http://www.w3.org/2000/svg" xmlns:xlink="http://www.w3.org/1999/xlink" width="272" height="152pt" viewBox="0 0 203.5 152"><g id="graph0" class="graph" transform="scale(1 1) rotate(0) translate(4 148)"><title>metaIndex::checkSum</title><polygon fill="#fff" stroke="transparent" points="-4 4 -4 -148 199.5 -148 199.5 4 -4 4"/><g id="node1" class="node"><title>Node1</title><g id="a_node1"><a><polygon fill="#bfbfbf" stroke="#000" points="12 -.5 12 -19.5 137 -19.5 137 -.5 12 -.5"/><text x="74.5" y="-7.5" font-family="Helvetica,sans-Serif" font-size="10" text-anchor="middle">metaIndex::checkSum</text></a></g></g><g id="node2" class="node"><title>Node2</title><g id="a_node2"><a target="_top" xlink:href="classHashStringList.xhtml"><polygon fill="#fff" stroke="#000" points="0 -67.5 0 -86.5 87 -86.5 87 -67.5 0 -67.5"/><text x="43.5" y="-74.5" font-family="Helvetica,sans-Serif" font-size="10" text-anchor="middle">HashStringList</text></a></g></g><g id="edge1" class="edge"><title>Node2-&gt;Node1</title><path fill="none" stroke="#9a32cd" stroke-dasharray="5 2" d="M47.45,-57.46C49.17,-51.11 51.49,-44.07 54.5,-38 57.71,-31.52 62.5,-24.98 66.59,-19.96"/><polygon fill="#9a32cd" stroke="#9a32cd" points="44.04 -56.68 45.11 -67.22 50.85 -58.31 44.04 -56.68"/><text x="74.5" y="-41" font-family="Helvetica,sans-Serif" font-size="10" text-anchor="middle">Hashes</text></g><g id="node3" class="node"><title>Node3</title><g id="a_node3"><a><polygon fill="#fff" stroke="#bfbfbf" points="105.5 -67.5 105.5 -86.5 149.5 -86.5 149.5 -67.5 105.5 -67.5"/><text x="127.5" y="-74.5" font-family="Helvetica,sans-Serif" font-size="10" text-anchor="middle">string</text></a></g></g><g id="edge2" class="edge"><title>Node3-&gt;Node1</title><path fill="none" stroke="#9a32cd" stroke-dasharray="5 2" d="M113.86,-59.27C103.53,-46.6 89.75,-29.7 81.53,-19.63"/><polygon fill="#9a32cd" stroke="#9a32cd" points="111.32 -61.7 120.35 -67.23 116.75 -57.27 111.32 -61.7"/><text x="150" y="-41" font-family="Helvetica,sans-Serif" font-size="10" text-anchor="middle">MetaKeyFilename</text></g><g id="node4" class="node"><title>Node4</title><g id="a_node4"><a><polygon fill="#fff" stroke="#bfbfbf" points="67.5 -124.5 67.5 -143.5 187.5 -143.5 187.5 -124.5 67.5 -124.5"/><text x="127.5" y="-131.5" font-family="Helvetica,sans-Serif" font-size="10" text-anchor="middle">basic_string&lt; Char &gt;</text></a></g></g><g id="edge3" class="edge"><title>Node4-&gt;Node3</title><path fill="none" stroke="#191970" d="M127.5,-114.12C127.5,-104.82 127.5,-94.06 127.5,-86.71"/><polygon fill="#191970" stroke="#191970" points="124 -114.41 127.5 -124.41 131 -114.41 124 -114.41"/></g></g></svg>