<?xml version="1.0" encoding="UTF-8" standalone="no"?>
<!DOCTYPE svg PUBLIC "-//W3C//DTD SVG 1.1//EN"
 "http://www.w3.org/Graphics/SVG/1.1/DTD/svg11.dtd">
<!-- Generated by graphviz version 2.43.0 (0)
 -->
<!-- Title: PackageReverseDepends Pages: 1 -->
<svg width="280pt" height="163pt"
 viewBox="0.00 0.00 280.00 163.00" xmlns="http://www.w3.org/2000/svg" xmlns:xlink="http://www.w3.org/1999/xlink">
<g id="graph0" class="graph" transform="scale(1 1) rotate(0) translate(4 159)">
<title>PackageReverseDepends</title>
<polygon fill="white" stroke="transparent" points="-4,4 -4,-159 276,-159 276,4 -4,4"/>
<!-- Node1 -->
<g id="node1" class="node">
<title>Node1</title>
<g id="a_node1"><a xlink:title=" ">
<polygon fill="#bfbfbf" stroke="black" points="86.5,-0.5 86.5,-19.5 225.5,-19.5 225.5,-0.5 86.5,-0.5"/>
<text text-anchor="middle" x="156" y="-7.5" font-family="Helvetica,sans-Serif" font-size="10.00">PackageReverseDepends</text>
</a>
</g>
</g>
<!-- Node2 -->
<g id="node2" class="node">
<title>Node2</title>
<g id="a_node2"><a xlink:href="classAPT_1_1CacheFilter_1_1PackageMatcher.xhtml" target="_top" xlink:title=" ">
<polygon fill="white" stroke="black" points="0,-73 0,-92 96,-92 96,-73 0,-73"/>
<text text-anchor="middle" x="48" y="-80" font-family="Helvetica,sans-Serif" font-size="10.00">PackageMatcher</text>
</a>
</g>
</g>
<!-- Node2&#45;&gt;Node1 -->
<g id="edge1" class="edge">
<title>Node2&#45;&gt;Node1</title>
<path fill="none" stroke="midnightblue" d="M69.84,-67.24C91.64,-53.01 124.45,-31.59 142.65,-19.72"/>
<polygon fill="midnightblue" stroke="midnightblue" points="67.7,-64.46 61.24,-72.86 71.53,-70.32 67.7,-64.46"/>
</g>
<!-- Node3 -->
<g id="node3" class="node">
<title>Node3</title>
<g id="a_node3"><a xlink:href="classAPT_1_1CacheFilter_1_1Matcher.xhtml" target="_top" xlink:title=" ">
<polygon fill="white" stroke="black" points="20,-135.5 20,-154.5 76,-154.5 76,-135.5 20,-135.5"/>
<text text-anchor="middle" x="48" y="-142.5" font-family="Helvetica,sans-Serif" font-size="10.00">Matcher</text>
</a>
</g>
</g>
<!-- Node3&#45;&gt;Node2 -->
<g id="edge2" class="edge">
<title>Node3&#45;&gt;Node2</title>
<path fill="none" stroke="midnightblue" d="M48,-125C48,-114 48,-100.68 48,-92.15"/>
<polygon fill="midnightblue" stroke="midnightblue" points="44.5,-125.33 48,-135.33 51.5,-125.33 44.5,-125.33"/>
</g>
<!-- Node4 -->
<g id="node4" class="node">
<title>Node4</title>
<g id="a_node4"><a xlink:title=" ">
<polygon fill="white" stroke="#bfbfbf" points="114,-67.5 114,-97.5 272,-97.5 272,-67.5 114,-67.5"/>
<text text-anchor="start" x="122" y="-85.5" font-family="Helvetica,sans-Serif" font-size="10.00">unique_ptr&lt; APT::CacheFilter</text>
<text text-anchor="middle" x="193" y="-74.5" font-family="Helvetica,sans-Serif" font-size="10.00">::Matcher &gt;</text>
</a>
</g>
</g>
<!-- Node4&#45;&gt;Node1 -->
<g id="edge3" class="edge">
<title>Node4&#45;&gt;Node1</title>
<path fill="none" stroke="#9a32cd" stroke-dasharray="5,2" d="M180.79,-58.24C173.91,-45.12 165.7,-29.48 160.67,-19.89"/>
<polygon fill="#9a32cd" stroke="#9a32cd" points="177.77,-60.01 185.51,-67.23 183.96,-56.75 177.77,-60.01"/>
<text text-anchor="middle" x="188.5" y="-41" font-family="Helvetica,sans-Serif" font-size="10.00"> base</text>
</g>
</g>
</svg>
