<svg xmlns="http://www.w3.org/2000/svg" xmlns:xlink="http://www.w3.org/1999/xlink" width="190pt" height="95pt" viewBox="0 0 190 95"><g id="graph0" class="graph" transform="scale(1 1) rotate(0) translate(4 91)"><title>pkgAcquire::QItem</title><polygon fill="#fff" stroke="transparent" points="-4 4 -4 -91 186 -91 186 4 -4 4"/><g id="node1" class="node"><title>Node1</title><g id="a_node1"><a xlink:title="A single item placed in this queue."><polygon fill="#bfbfbf" stroke="#000" points="28 -.5 28 -19.5 135 -19.5 135 -.5 28 -.5"/><text x="81.5" y="-7.5" font-family="Helvetica,sans-Serif" font-size="10" text-anchor="middle">pkgAcquire::QItem</text></a></g></g><g id="edge3" class="edge"><title>Node1-&gt;Node1</title><path fill="none" stroke="#9a32cd" stroke-dasharray="5 2" d="M145.38,-14.46C150.1,-13.46 153,-11.97 153,-10 153,-6.84 145.58,-4.93 135.13,-4.27"/><polygon fill="#9a32cd" stroke="#9a32cd" points="144.62 -11.03 135.13 -15.73 145.49 -17.97 144.62 -11.03"/><text x="166.5" y="-7.5" font-family="Helvetica,sans-Serif" font-size="10" text-anchor="middle">Next</text></g><g id="node2" class="node"><title>Node2</title><g id="a_node2"><a><polygon fill="#fff" stroke="#bfbfbf" points="0 -67.5 0 -86.5 63 -86.5 63 -67.5 0 -67.5"/><text x="31.5" y="-74.5" font-family="Helvetica,sans-Serif" font-size="10" text-anchor="middle">ItemDesc</text></a></g></g><g id="edge1" class="edge"><title>Node2-&gt;Node1</title><path fill="none" stroke="#191970" d="M44.37,-59.27C54.12,-46.6 67.11,-29.7 74.86,-19.63"/><polygon fill="#191970" stroke="#191970" points="41.57 -57.17 38.24 -67.23 47.11 -61.44 41.57 -57.17"/></g><g id="node3" class="node"><title>Node3</title><g id="a_node3"><a><polygon fill="#fff" stroke="#bfbfbf" points="81 -67.5 81 -86.5 182 -86.5 182 -67.5 81 -67.5"/><text x="131.5" y="-74.5" font-family="Helvetica,sans-Serif" font-size="10" text-anchor="middle">vector&lt; Item * &gt;</text></a></g></g><g id="edge2" class="edge"><title>Node3-&gt;Node1</title><path fill="none" stroke="#9a32cd" stroke-dasharray="5 2" d="M118.63,-59.27C108.88,-46.6 95.89,-29.7 88.14,-19.63"/><polygon fill="#9a32cd" stroke="#9a32cd" points="115.89 -61.44 124.76 -67.23 121.43 -57.17 115.89 -61.44"/><text x="128.5" y="-41" font-family="Helvetica,sans-Serif" font-size="10" text-anchor="middle">Owners</text></g></g></svg>