<?xml version="1.0" encoding="UTF-8" standalone="no"?>
<!DOCTYPE svg PUBLIC "-//W3C//DTD SVG 1.1//EN"
 "http://www.w3.org/Graphics/SVG/1.1/DTD/svg11.dtd">
<!-- Generated by graphviz version 2.43.0 (0)
 -->
<!-- Title: Compressor Pages: 1 -->
<svg width="239pt" height="243pt"
 viewBox="0.00 0.00 238.50 243.00" xmlns="http://www.w3.org/2000/svg" xmlns:xlink="http://www.w3.org/1999/xlink">
<g id="graph0" class="graph" transform="scale(1 1) rotate(0) translate(4 239)">
<title>Compressor</title>
<polygon fill="white" stroke="transparent" points="-4,4 -4,-239 234.5,-239 234.5,4 -4,4"/>
<!-- Node1 -->
<g id="node1" class="node">
<title>Node1</title>
<g id="a_node1"><a xlink:title="Representation of supported compressors.">
<polygon fill="#bfbfbf" stroke="black" points="22.5,-0.5 22.5,-19.5 97.5,-19.5 97.5,-0.5 22.5,-0.5"/>
<text text-anchor="middle" x="60" y="-7.5" font-family="Helvetica,sans-Serif" font-size="10.00">Compressor</text>
</a>
</g>
</g>
<!-- Node2 -->
<g id="node2" class="node">
<title>Node2</title>
<g id="a_node2"><a xlink:title=" ">
<polygon fill="white" stroke="#bfbfbf" points="38,-158.5 38,-177.5 82,-177.5 82,-158.5 38,-158.5"/>
<text text-anchor="middle" x="60" y="-165.5" font-family="Helvetica,sans-Serif" font-size="10.00">string</text>
</a>
</g>
</g>
<!-- Node2&#45;&gt;Node1 -->
<g id="edge1" class="edge">
<title>Node2&#45;&gt;Node1</title>
<path fill="none" stroke="#9a32cd" stroke-dasharray="5,2" d="M57.49,-148.29C56.16,-137.42 54.67,-123.46 54,-111 52.19,-77.13 56.62,-36.84 58.83,-19.56"/>
<polygon fill="#9a32cd" stroke="#9a32cd" points="54.03,-148.82 58.78,-158.29 60.97,-147.93 54.03,-148.82"/>
<text text-anchor="middle" x="78.5" y="-103" font-family="Helvetica,sans-Serif" font-size="10.00"> Binary</text>
<text text-anchor="middle" x="78.5" y="-92" font-family="Helvetica,sans-Serif" font-size="10.00">Extension</text>
<text text-anchor="middle" x="78.5" y="-81" font-family="Helvetica,sans-Serif" font-size="10.00">Name</text>
</g>
<!-- Node4 -->
<g id="node4" class="node">
<title>Node4</title>
<g id="a_node4"><a xlink:title=" ">
<polygon fill="white" stroke="#bfbfbf" points="111.5,-85 111.5,-104 230.5,-104 230.5,-85 111.5,-85"/>
<text text-anchor="middle" x="171" y="-92" font-family="Helvetica,sans-Serif" font-size="10.00">vector&lt; std::string &gt;</text>
</a>
</g>
</g>
<!-- Node2&#45;&gt;Node4 -->
<g id="edge4" class="edge">
<title>Node2&#45;&gt;Node4</title>
<path fill="none" stroke="#9a32cd" stroke-dasharray="5,2" d="M82.2,-152.7C104.74,-138.18 138.93,-116.16 157.62,-104.12"/>
<polygon fill="#9a32cd" stroke="#9a32cd" points="80.12,-149.88 73.61,-158.23 83.91,-155.76 80.12,-149.88"/>
<text text-anchor="middle" x="142.5" y="-132" font-family="Helvetica,sans-Serif" font-size="10.00"> elements</text>
</g>
<!-- Node3 -->
<g id="node3" class="node">
<title>Node3</title>
<g id="a_node3"><a xlink:title=" ">
<polygon fill="white" stroke="#bfbfbf" points="0,-215.5 0,-234.5 120,-234.5 120,-215.5 0,-215.5"/>
<text text-anchor="middle" x="60" y="-222.5" font-family="Helvetica,sans-Serif" font-size="10.00">basic_string&lt; Char &gt;</text>
</a>
</g>
</g>
<!-- Node3&#45;&gt;Node2 -->
<g id="edge2" class="edge">
<title>Node3&#45;&gt;Node2</title>
<path fill="none" stroke="midnightblue" d="M60,-205.12C60,-195.82 60,-185.06 60,-177.71"/>
<polygon fill="midnightblue" stroke="midnightblue" points="56.5,-205.41 60,-215.41 63.5,-205.41 56.5,-205.41"/>
</g>
<!-- Node4&#45;&gt;Node1 -->
<g id="edge3" class="edge">
<title>Node4&#45;&gt;Node1</title>
<path fill="none" stroke="#9a32cd" stroke-dasharray="5,2" d="M151.45,-78.97C128.3,-61.76 90.49,-33.67 71.56,-19.6"/>
<polygon fill="#9a32cd" stroke="#9a32cd" points="149.43,-81.83 159.54,-84.98 153.6,-76.21 149.43,-81.83"/>
<text text-anchor="middle" x="166.5" y="-52" font-family="Helvetica,sans-Serif" font-size="10.00"> CompressArgs</text>
<text text-anchor="middle" x="166.5" y="-41" font-family="Helvetica,sans-Serif" font-size="10.00">UncompressArgs</text>
</g>
</g>
</svg>
