<?xml version="1.0" encoding="UTF-8" standalone="no"?>
<!DOCTYPE svg PUBLIC "-//W3C//DTD SVG 1.1//EN"
 "http://www.w3.org/Graphics/SVG/1.1/DTD/svg11.dtd">
<!-- Generated by graphviz version 2.43.0 (0)
 -->
<!-- Title: Configuration::Item Pages: 1 -->
<svg width="172pt" height="176pt"
 viewBox="0.00 0.00 172.00 176.00" xmlns="http://www.w3.org/2000/svg" xmlns:xlink="http://www.w3.org/1999/xlink">
<g id="graph0" class="graph" transform="scale(1 1) rotate(0) translate(4 172)">
<title>Configuration::Item</title>
<polygon fill="white" stroke="transparent" points="-4,4 -4,-172 168,-172 168,4 -4,4"/>
<!-- Node1 -->
<g id="node1" class="node">
<title>Node1</title>
<g id="a_node1"><a xlink:title=" ">
<polygon fill="#bfbfbf" stroke="black" points="5,-7 5,-26 115,-26 115,-7 5,-7"/>
<text text-anchor="middle" x="60" y="-14" font-family="Helvetica,sans-Serif" font-size="10.00">Configuration::Item</text>
</a>
</g>
</g>
<!-- Node1&#45;&gt;Node1 -->
<g id="edge3" class="edge">
<title>Node1&#45;&gt;Node1</title>
<path fill="none" stroke="#9a32cd" stroke-dasharray="5,2" d="M125,-22.69C129.95,-21.32 133,-19.25 133,-16.5 133,-12.2 125.57,-9.58 115.07,-8.64"/>
<polygon fill="#9a32cd" stroke="#9a32cd" points="124.36,-19.25 115.07,-24.36 125.51,-26.15 124.36,-19.25"/>
<text text-anchor="middle" x="148.5" y="-25" font-family="Helvetica,sans-Serif" font-size="10.00"> Child</text>
<text text-anchor="middle" x="148.5" y="-14" font-family="Helvetica,sans-Serif" font-size="10.00">Next</text>
<text text-anchor="middle" x="148.5" y="-3" font-family="Helvetica,sans-Serif" font-size="10.00">Parent</text>
</g>
<!-- Node2 -->
<g id="node2" class="node">
<title>Node2</title>
<g id="a_node2"><a xlink:title=" ">
<polygon fill="white" stroke="#bfbfbf" points="38,-91.5 38,-110.5 82,-110.5 82,-91.5 38,-91.5"/>
<text text-anchor="middle" x="60" y="-98.5" font-family="Helvetica,sans-Serif" font-size="10.00">string</text>
</a>
</g>
</g>
<!-- Node2&#45;&gt;Node1 -->
<g id="edge1" class="edge">
<title>Node2&#45;&gt;Node1</title>
<path fill="none" stroke="#9a32cd" stroke-dasharray="5,2" d="M60,-81.43C60,-64.13 60,-39.11 60,-26.1"/>
<polygon fill="#9a32cd" stroke="#9a32cd" points="56.5,-81.48 60,-91.48 63.5,-81.48 56.5,-81.48"/>
<text text-anchor="middle" x="74" y="-65" font-family="Helvetica,sans-Serif" font-size="10.00"> Tag</text>
<text text-anchor="middle" x="74" y="-54" font-family="Helvetica,sans-Serif" font-size="10.00">Value</text>
</g>
<!-- Node3 -->
<g id="node3" class="node">
<title>Node3</title>
<g id="a_node3"><a xlink:title=" ">
<polygon fill="white" stroke="#bfbfbf" points="0,-148.5 0,-167.5 120,-167.5 120,-148.5 0,-148.5"/>
<text text-anchor="middle" x="60" y="-155.5" font-family="Helvetica,sans-Serif" font-size="10.00">basic_string&lt; Char &gt;</text>
</a>
</g>
</g>
<!-- Node3&#45;&gt;Node2 -->
<g id="edge2" class="edge">
<title>Node3&#45;&gt;Node2</title>
<path fill="none" stroke="midnightblue" d="M60,-138.12C60,-128.82 60,-118.06 60,-110.71"/>
<polygon fill="midnightblue" stroke="midnightblue" points="56.5,-138.41 60,-148.41 63.5,-138.41 56.5,-138.41"/>
</g>
</g>
</svg>
