<svg xmlns="http://www.w3.org/2000/svg" xmlns:xlink="http://www.w3.org/1999/xlink" width="568" height="244" viewBox="0 0 425.5 183"><g id="graph0" class="graph" transform="scale(1 1) rotate(0) translate(4 179)"><title>pkgCache&lt; Str, Itr &gt;::ReleaseFile</title><polygon fill="#fff" stroke="transparent" points="-4 4 -4 -179 421.5 -179 421.5 4 -4 4"/><g id="node1" class="node"><title>Node1</title><g id="a_node1"><a xlink:title="stores information about the release files used to generate the cache"><polygon fill="#bfbfbf" stroke="#000" points="163.5 -.5 163.5 -30.5 269.5 -30.5 269.5 -.5 163.5 -.5"/><text x="171.5" y="-18.5" font-family="Helvetica,sans-Serif" font-size="10" text-anchor="start">pkgCache&lt; Str, Itr</text><text x="216.5" y="-7.5" font-family="Helvetica,sans-Serif" font-size="10" text-anchor="middle">&gt;::ReleaseFile</text></a></g></g><g id="node2" class="node"><title>Node2</title><g id="a_node2"><a target="_top" xlink:href="classmap__pointer.xhtml"><polygon fill="#fff" stroke="#000" points="0 -144.5 0 -174.5 137 -174.5 137 -144.5 0 -144.5"/><text x="8" y="-162.5" font-family="Helvetica,sans-Serif" font-size="10" text-anchor="start">map_pointer&lt; pkgCache</text><text x="68.5" y="-151.5" font-family="Helvetica,sans-Serif" font-size="10" text-anchor="middle">::ReleaseFile &gt;</text></a></g></g><g id="edge1" class="edge"><title>Node2-&gt;Node1</title><path fill="none" stroke="#9a32cd" stroke-dasharray="5 2" d="M85.94,-136.51C104.9,-113.33 136.76,-76.44 168.5,-49 176.11,-42.42 185.1,-36.02 193.23,-30.66"/><polygon fill="#9a32cd" stroke="#9a32cd" points="83.14 -134.41 79.56 -144.38 88.58 -138.81 83.14 -134.41"/><text x="190.5" y="-85" font-family="Helvetica,sans-Serif" font-size="10" text-anchor="middle">NextFile</text></g><g id="node3" class="node"><title>Node3</title><g id="a_node3"><a target="_top" xlink:href="classmap__pointer.xhtml"><polygon fill="#fff" stroke="#000" points="155.5 -150 155.5 -169 277.5 -169 277.5 -150 155.5 -150"/><text x="216.5" y="-157" font-family="Helvetica,sans-Serif" font-size="10" text-anchor="middle">map_pointer&lt; char &gt;</text></a></g></g><g id="edge2" class="edge"><title>Node3-&gt;Node1</title><path fill="none" stroke="#9a32cd" stroke-dasharray="5 2" d="M216.5,-139.6C216.5,-110.75 216.5,-56.35 216.5,-30.64"/><polygon fill="#9a32cd" stroke="#9a32cd" points="213 -139.62 216.5 -149.62 220 -139.62 213 -139.62"/><text x="243" y="-118" font-family="Helvetica,sans-Serif" font-size="10" text-anchor="middle">Archive</text><text x="243" y="-107" font-family="Helvetica,sans-Serif" font-size="10" text-anchor="middle">Codename</text><text x="243" y="-96" font-family="Helvetica,sans-Serif" font-size="10" text-anchor="middle">FileName</text><text x="243" y="-85" font-family="Helvetica,sans-Serif" font-size="10" text-anchor="middle">Label</text><text x="243" y="-74" font-family="Helvetica,sans-Serif" font-size="10" text-anchor="middle">Origin</text><text x="243" y="-63" font-family="Helvetica,sans-Serif" font-size="10" text-anchor="middle">Site</text><text x="243" y="-52" font-family="Helvetica,sans-Serif" font-size="10" text-anchor="middle">Version</text></g><g id="node4" class="node"><title>Node4</title><g id="a_node4"><a target="_top" xlink:href="classmap__pointer.xhtml"><polygon fill="#fff" stroke="#000" points="295.5 -150 295.5 -169 417.5 -169 417.5 -150 295.5 -150"/><text x="356.5" y="-157" font-family="Helvetica,sans-Serif" font-size="10" text-anchor="middle">map_pointer&lt; void &gt;</text></a></g></g><g id="edge3" class="edge"><title>Node4-&gt;Node1</title><path fill="none" stroke="#9a32cd" stroke-dasharray="5 2" d="M346.47,-141.17C332.42,-118 305.04,-76.67 273.5,-49 265.45,-41.94 255.63,-35.68 246.42,-30.59"/><polygon fill="#9a32cd" stroke="#9a32cd" points="343.53 -143.08 351.64 -149.89 349.55 -139.5 343.53 -143.08"/><text x="340.5" y="-85" font-family="Helvetica,sans-Serif" font-size="10" text-anchor="middle">d</text></g></g></svg>