<?xml version="1.0" encoding="UTF-8" standalone="no"?>
<!DOCTYPE svg PUBLIC "-//W3C//DTD SVG 1.1//EN"
 "http://www.w3.org/Graphics/SVG/1.1/DTD/svg11.dtd">
<!-- Generated by graphviz version 2.43.0 (0)
 -->
<!-- Title: PatternTreeParser Pages: 1 -->
<svg width="138pt" height="95pt"
 viewBox="0.00 0.00 137.50 95.00" xmlns="http://www.w3.org/2000/svg" xmlns:xlink="http://www.w3.org/1999/xlink">
<g id="graph0" class="graph" transform="scale(1 1) rotate(0) translate(4 91)">
<title>PatternTreeParser</title>
<polygon fill="white" stroke="transparent" points="-4,4 -4,-91 133.5,-91 133.5,4 -4,4"/>
<!-- Node1 -->
<g id="node1" class="node">
<title>Node1</title>
<g id="a_node1"><a xlink:title="PatternTreeParser parses the given sentence into a parse tree.">
<polygon fill="#bfbfbf" stroke="black" points="7.5,-0.5 7.5,-19.5 108.5,-19.5 108.5,-0.5 7.5,-0.5"/>
<text text-anchor="middle" x="58" y="-7.5" font-family="Helvetica,sans-Serif" font-size="10.00">PatternTreeParser</text>
</a>
</g>
</g>
<!-- Node2 -->
<g id="node2" class="node">
<title>Node2</title>
<g id="a_node2"><a xlink:href="structAPT_1_1Internal_1_1PatternTreeParser_1_1State.xhtml" target="_top" xlink:title=" ">
<polygon fill="white" stroke="black" points="0,-67.5 0,-86.5 42,-86.5 42,-67.5 0,-67.5"/>
<text text-anchor="middle" x="21" y="-74.5" font-family="Helvetica,sans-Serif" font-size="10.00">State</text>
</a>
</g>
</g>
<!-- Node2&#45;&gt;Node1 -->
<g id="edge1" class="edge">
<title>Node2&#45;&gt;Node1</title>
<path fill="none" stroke="#9a32cd" stroke-dasharray="5,2" d="M30.94,-58.53C38.11,-45.95 47.47,-29.51 53.09,-19.63"/>
<polygon fill="#9a32cd" stroke="#9a32cd" points="27.9,-56.81 25.99,-67.23 33.98,-60.27 27.9,-56.81"/>
<text text-anchor="middle" x="56" y="-41" font-family="Helvetica,sans-Serif" font-size="10.00"> state</text>
</g>
<!-- Node3 -->
<g id="node3" class="node">
<title>Node3</title>
<g id="a_node3"><a xlink:href="classAPT_1_1StringView.xhtml" target="_top" xlink:title="Simple subset of std::string_view from C++17.">
<polygon fill="white" stroke="black" points="60.5,-67.5 60.5,-86.5 129.5,-86.5 129.5,-67.5 60.5,-67.5"/>
<text text-anchor="middle" x="95" y="-74.5" font-family="Helvetica,sans-Serif" font-size="10.00">StringView</text>
</a>
</g>
</g>
<!-- Node3&#45;&gt;Node1 -->
<g id="edge2" class="edge">
<title>Node3&#45;&gt;Node1</title>
<path fill="none" stroke="#9a32cd" stroke-dasharray="5,2" d="M85.06,-58.53C77.89,-45.95 68.53,-29.51 62.91,-19.63"/>
<polygon fill="#9a32cd" stroke="#9a32cd" points="82.02,-60.27 90.01,-67.23 88.1,-56.81 82.02,-60.27"/>
<text text-anchor="middle" x="102" y="-41" font-family="Helvetica,sans-Serif" font-size="10.00"> sentence</text>
</g>
</g>
</svg>
