<?xml version="1.0" encoding="UTF-8" standalone="no"?>
<!DOCTYPE svg PUBLIC "-//W3C//DTD SVG 1.1//EN"
 "http://www.w3.org/Graphics/SVG/1.1/DTD/svg11.dtd">
<!-- Generated by graphviz version 2.43.0 (0)
 -->
<!-- Title: PatternTreeParser::Error Pages: 1 -->
<svg width="209pt" height="163pt"
 viewBox="0.00 0.00 208.50 163.00" xmlns="http://www.w3.org/2000/svg" xmlns:xlink="http://www.w3.org/1999/xlink">
<g id="graph0" class="graph" transform="scale(1 1) rotate(0) translate(4 159)">
<title>PatternTreeParser::Error</title>
<polygon fill="white" stroke="transparent" points="-4,4 -4,-159 204.5,-159 204.5,4 -4,4"/>
<!-- Node1 -->
<g id="node1" class="node">
<title>Node1</title>
<g id="a_node1"><a xlink:title=" ">
<polygon fill="#bfbfbf" stroke="black" points="47,-0.5 47,-30.5 154,-30.5 154,-0.5 47,-0.5"/>
<text text-anchor="start" x="55" y="-18.5" font-family="Helvetica,sans-Serif" font-size="10.00">PatternTreeParser::</text>
<text text-anchor="middle" x="100.5" y="-7.5" font-family="Helvetica,sans-Serif" font-size="10.00">Error</text>
</a>
</g>
</g>
<!-- Node2 -->
<g id="node2" class="node">
<title>Node2</title>
<g id="a_node2"><a xlink:title=" ">
<polygon fill="white" stroke="#bfbfbf" points="0,-78.5 0,-97.5 65,-97.5 65,-78.5 0,-78.5"/>
<text text-anchor="middle" x="32.5" y="-85.5" font-family="Helvetica,sans-Serif" font-size="10.00">exception</text>
</a>
</g>
</g>
<!-- Node2&#45;&gt;Node1 -->
<g id="edge1" class="edge">
<title>Node2&#45;&gt;Node1</title>
<path fill="none" stroke="midnightblue" d="M47.84,-71.09C59.59,-58.91 75.64,-42.27 86.92,-30.58"/>
<polygon fill="midnightblue" stroke="midnightblue" points="45.26,-68.73 40.84,-78.36 50.3,-73.59 45.26,-68.73"/>
</g>
<!-- Node3 -->
<g id="node3" class="node">
<title>Node3</title>
<g id="a_node3"><a xlink:title=" ">
<polygon fill="white" stroke="#bfbfbf" points="83.5,-78.5 83.5,-97.5 127.5,-97.5 127.5,-78.5 83.5,-78.5"/>
<text text-anchor="middle" x="105.5" y="-85.5" font-family="Helvetica,sans-Serif" font-size="10.00">string</text>
</a>
</g>
</g>
<!-- Node3&#45;&gt;Node1 -->
<g id="edge2" class="edge">
<title>Node3&#45;&gt;Node1</title>
<path fill="none" stroke="#9a32cd" stroke-dasharray="5,2" d="M102.36,-67.86C102.02,-65.22 101.72,-62.55 101.5,-60 100.67,-50.22 100.42,-39.15 100.38,-30.63"/>
<polygon fill="#9a32cd" stroke="#9a32cd" points="98.95,-68.66 103.89,-78.03 105.87,-67.62 98.95,-68.66"/>
<text text-anchor="middle" x="125.5" y="-52" font-family="Helvetica,sans-Serif" font-size="10.00"> message</text>
</g>
<!-- Node4 -->
<g id="node4" class="node">
<title>Node4</title>
<g id="a_node4"><a xlink:title=" ">
<polygon fill="white" stroke="#bfbfbf" points="45.5,-135.5 45.5,-154.5 165.5,-154.5 165.5,-135.5 45.5,-135.5"/>
<text text-anchor="middle" x="105.5" y="-142.5" font-family="Helvetica,sans-Serif" font-size="10.00">basic_string&lt; Char &gt;</text>
</a>
</g>
</g>
<!-- Node4&#45;&gt;Node3 -->
<g id="edge3" class="edge">
<title>Node4&#45;&gt;Node3</title>
<path fill="none" stroke="midnightblue" d="M105.5,-125.12C105.5,-115.82 105.5,-105.06 105.5,-97.71"/>
<polygon fill="midnightblue" stroke="midnightblue" points="102,-125.41 105.5,-135.41 109,-125.41 102,-125.41"/>
</g>
<!-- Node5 -->
<g id="node5" class="node">
<title>Node5</title>
<g id="a_node5"><a xlink:href="structAPT_1_1Internal_1_1PatternTreeParser_1_1Node.xhtml" target="_top" xlink:title=" ">
<polygon fill="white" stroke="black" points="150.5,-78.5 150.5,-97.5 192.5,-97.5 192.5,-78.5 150.5,-78.5"/>
<text text-anchor="middle" x="171.5" y="-85.5" font-family="Helvetica,sans-Serif" font-size="10.00">Node</text>
</a>
</g>
</g>
<!-- Node5&#45;&gt;Node1 -->
<g id="edge4" class="edge">
<title>Node5&#45;&gt;Node1</title>
<path fill="none" stroke="#9a32cd" stroke-dasharray="5,2" d="M163.41,-69.24C159.77,-62.43 155.05,-54.89 149.5,-49 142.85,-41.94 134.39,-35.64 126.38,-30.51"/>
<polygon fill="#9a32cd" stroke="#9a32cd" points="160.37,-70.99 167.93,-78.41 166.65,-67.9 160.37,-70.99"/>
<text text-anchor="middle" x="179" y="-52" font-family="Helvetica,sans-Serif" font-size="10.00"> location</text>
</g>
</g>
</svg>
