<svg xmlns="http://www.w3.org/2000/svg" xmlns:xlink="http://www.w3.org/1999/xlink" width="184" height="106pt" viewBox="0 0 137.5 106"><g id="graph0" class="graph" transform="scale(1 1) rotate(0) translate(4 102)"><title>PatternTreeParser::WordNode</title><polygon fill="#fff" stroke="transparent" points="-4 4 -4 -102 133.5 -102 133.5 4 -4 4"/><g id="node1" class="node"><title>Node1</title><g id="a_node1"><a><polygon fill="#bfbfbf" stroke="#000" points="4.5 -.5 4.5 -30.5 111.5 -30.5 111.5 -.5 4.5 -.5"/><text x="12.5" y="-18.5" font-family="Helvetica,sans-Serif" font-size="10" text-anchor="start">PatternTreeParser::</text><text x="58" y="-7.5" font-family="Helvetica,sans-Serif" font-size="10" text-anchor="middle">WordNode</text></a></g></g><g id="node2" class="node"><title>Node2</title><g id="a_node2"><a target="_top" xlink:href="structAPT_1_1Internal_1_1PatternTreeParser_1_1Node.xhtml"><polygon fill="#fff" stroke="#000" points="0 -78.5 0 -97.5 42 -97.5 42 -78.5 0 -78.5"/><text x="21" y="-85.5" font-family="Helvetica,sans-Serif" font-size="10" text-anchor="middle">Node</text></a></g></g><g id="edge1" class="edge"><title>Node2-&gt;Node1</title><path fill="none" stroke="#191970" d="M30.28,-69.32C36.57,-57.34 44.77,-41.72 50.61,-30.58"/><polygon fill="#191970" stroke="#191970" points="27.08 -67.87 25.54 -78.36 33.28 -71.13 27.08 -67.87"/></g><g id="node3" class="node"><title>Node3</title><g id="a_node3"><a target="_top" xlink:href="classAPT_1_1StringView.xhtml" xlink:title="Simple subset of std::string_view from C++17."><polygon fill="#fff" stroke="#000" points="60.5 -78.5 60.5 -97.5 129.5 -97.5 129.5 -78.5 60.5 -78.5"/><text x="95" y="-85.5" font-family="Helvetica,sans-Serif" font-size="10" text-anchor="middle">StringView</text></a></g></g><g id="edge2" class="edge"><title>Node3-&gt;Node1</title><path fill="none" stroke="#9a32cd" stroke-dasharray="5 2" d="M85.72,-69.32C79.43,-57.34 71.23,-41.72 65.39,-30.58"/><polygon fill="#9a32cd" stroke="#9a32cd" points="82.72 -71.13 90.46 -78.36 88.92 -67.87 82.72 -71.13"/><text x="93" y="-52" font-family="Helvetica,sans-Serif" font-size="10" text-anchor="middle">word</text></g></g></svg>