<svg xmlns="http://www.w3.org/2000/svg" xmlns:xlink="http://www.w3.org/1999/xlink" width="172pt" height="176pt" viewBox="0 0 172 176"><g id="graph0" class="graph" transform="scale(1 1) rotate(0) translate(4 172)"><title>Configuration::Item</title><polygon fill="#fff" stroke="transparent" points="-4 4 -4 -172 168 -172 168 4 -4 4"/><g id="node1" class="node"><title>Node1</title><g id="a_node1"><a><polygon fill="#bfbfbf" stroke="#000" points="5 -7 5 -26 115 -26 115 -7 5 -7"/><text x="60" y="-14" font-family="Helvetica,sans-Serif" font-size="10" text-anchor="middle">Configuration::Item</text></a></g></g><g id="edge3" class="edge"><title>Node1-&gt;Node1</title><path fill="none" stroke="#9a32cd" stroke-dasharray="5 2" d="M125,-22.69C129.95,-21.32 133,-19.25 133,-16.5 133,-12.2 125.57,-9.58 115.07,-8.64"/><polygon fill="#9a32cd" stroke="#9a32cd" points="124.36 -19.25 115.07 -24.36 125.51 -26.15 124.36 -19.25"/><text x="148.5" y="-25" font-family="Helvetica,sans-Serif" font-size="10" text-anchor="middle">Child</text><text x="148.5" y="-14" font-family="Helvetica,sans-Serif" font-size="10" text-anchor="middle">Next</text><text x="148.5" y="-3" font-family="Helvetica,sans-Serif" font-size="10" text-anchor="middle">Parent</text></g><g id="node2" class="node"><title>Node2</title><g id="a_node2"><a><polygon fill="#fff" stroke="#bfbfbf" points="38 -91.5 38 -110.5 82 -110.5 82 -91.5 38 -91.5"/><text x="60" y="-98.5" font-family="Helvetica,sans-Serif" font-size="10" text-anchor="middle">string</text></a></g></g><g id="edge1" class="edge"><title>Node2-&gt;Node1</title><path fill="none" stroke="#9a32cd" stroke-dasharray="5 2" d="M60,-81.43C60,-64.13 60,-39.11 60,-26.1"/><polygon fill="#9a32cd" stroke="#9a32cd" points="56.5 -81.48 60 -91.48 63.5 -81.48 56.5 -81.48"/><text x="74" y="-65" font-family="Helvetica,sans-Serif" font-size="10" text-anchor="middle">Tag</text><text x="74" y="-54" font-family="Helvetica,sans-Serif" font-size="10" text-anchor="middle">Value</text></g><g id="node3" class="node"><title>Node3</title><g id="a_node3"><a><polygon fill="#fff" stroke="#bfbfbf" points="0 -148.5 0 -167.5 120 -167.5 120 -148.5 0 -148.5"/><text x="60" y="-155.5" font-family="Helvetica,sans-Serif" font-size="10" text-anchor="middle">basic_string&lt; Char &gt;</text></a></g></g><g id="edge2" class="edge"><title>Node3-&gt;Node2</title><path fill="none" stroke="#191970" d="M60,-138.12C60,-128.82 60,-118.06 60,-110.71"/><polygon fill="#191970" stroke="#191970" points="56.5 -138.41 60 -148.41 63.5 -138.41 56.5 -138.41"/></g></g></svg>