<?xml version="1.0" encoding="UTF-8" standalone="no"?>
<!DOCTYPE svg PUBLIC "-//W3C//DTD SVG 1.1//EN"
 "http://www.w3.org/Graphics/SVG/1.1/DTD/svg11.dtd">
<!-- Generated by graphviz version 2.43.0 (0)
 -->
<!-- Title: VersionDepends Pages: 1 -->
<svg width="119pt" height="140pt"
 viewBox="0.00 0.00 119.00 140.00" xmlns="http://www.w3.org/2000/svg" xmlns:xlink="http://www.w3.org/1999/xlink">
<g id="graph0" class="graph" transform="scale(1 1) rotate(0) translate(4 136)">
<title>VersionDepends</title>
<polygon fill="white" stroke="transparent" points="-4,4 -4,-136 115,-136 115,4 -4,4"/>
<!-- Node1 -->
<g id="node1" class="node">
<title>Node1</title>
<g id="a_node1"><a xlink:title=" ">
<polygon fill="#bfbfbf" stroke="black" points="8,-0.5 8,-19.5 103,-19.5 103,-0.5 8,-0.5"/>
<text text-anchor="middle" x="55.5" y="-7.5" font-family="Helvetica,sans-Serif" font-size="10.00">VersionDepends</text>
</a>
</g>
</g>
<!-- Node2 -->
<g id="node2" class="node">
<title>Node2</title>
<g id="a_node2"><a xlink:href="structAPT_1_1Internal_1_1Patterns_1_1VersionAnyMatcher.xhtml" target="_top" xlink:title=" ">
<polygon fill="white" stroke="black" points="0,-56.5 0,-75.5 111,-75.5 111,-56.5 0,-56.5"/>
<text text-anchor="middle" x="55.5" y="-63.5" font-family="Helvetica,sans-Serif" font-size="10.00">VersionAnyMatcher</text>
</a>
</g>
</g>
<!-- Node2&#45;&gt;Node1 -->
<g id="edge1" class="edge">
<title>Node2&#45;&gt;Node1</title>
<path fill="none" stroke="midnightblue" d="M55.5,-45.8C55.5,-36.91 55.5,-26.78 55.5,-19.75"/>
<polygon fill="midnightblue" stroke="midnightblue" points="52,-46.08 55.5,-56.08 59,-46.08 52,-46.08"/>
</g>
<!-- Node3 -->
<g id="node3" class="node">
<title>Node3</title>
<g id="a_node3"><a xlink:href="classAPT_1_1CacheFilter_1_1Matcher.xhtml" target="_top" xlink:title=" ">
<polygon fill="white" stroke="black" points="27.5,-112.5 27.5,-131.5 83.5,-131.5 83.5,-112.5 27.5,-112.5"/>
<text text-anchor="middle" x="55.5" y="-119.5" font-family="Helvetica,sans-Serif" font-size="10.00">Matcher</text>
</a>
</g>
</g>
<!-- Node3&#45;&gt;Node2 -->
<g id="edge2" class="edge">
<title>Node3&#45;&gt;Node2</title>
<path fill="none" stroke="midnightblue" d="M55.5,-101.8C55.5,-92.91 55.5,-82.78 55.5,-75.75"/>
<polygon fill="midnightblue" stroke="midnightblue" points="52,-102.08 55.5,-112.08 59,-102.08 52,-102.08"/>
</g>
</g>
</svg>
