<svg xmlns="http://www.w3.org/2000/svg" xmlns:xlink="http://www.w3.org/1999/xlink" width="364pt" height="176pt" viewBox="0 0 364 175.5"><g id="graph0" class="graph" transform="scale(1 1) rotate(0) translate(4 171.5)"><title>pkgCache&lt; Str, Itr &gt;::Description</title><polygon fill="#fff" stroke="transparent" points="-4 4 -4 -171.5 360 -171.5 360 4 -4 4"/><g id="node1" class="node"><title>Node1</title><g id="a_node1"><a xlink:title="datamember of a linked list of available description for a version"><polygon fill="#bfbfbf" stroke="#000" points="250 -64 250 -94 356 -94 356 -64 250 -64"/><text x="258" y="-82" font-family="Helvetica,sans-Serif" font-size="10" text-anchor="start">pkgCache&lt; Str, Itr</text><text x="303" y="-71" font-family="Helvetica,sans-Serif" font-size="10" text-anchor="middle">&gt;::Description</text></a></g></g><g id="node2" class="node"><title>Node2</title><g id="a_node2"><a target="_top" xlink:href="classmap__pointer.xhtml"><polygon fill="#fff" stroke="#000" points="0 -137 0 -167 137 -167 137 -137 0 -137"/><text x="8" y="-155" font-family="Helvetica,sans-Serif" font-size="10" text-anchor="start">map_pointer&lt; pkgCache</text><text x="68.5" y="-144" font-family="Helvetica,sans-Serif" font-size="10" text-anchor="middle">::DescFile &gt;</text></a></g></g><g id="edge1" class="edge"><title>Node2-&gt;Node1</title><path fill="none" stroke="#9a32cd" stroke-dasharray="5 2" d="M142.37,-134.4C170.61,-127.03 203.05,-117.87 232,-108 243.95,-103.92 256.78,-98.83 268.16,-94.05"/><polygon fill="#9a32cd" stroke="#9a32cd" points="141.38 -131.04 132.57 -136.93 143.13 -137.82 141.38 -131.04"/><text x="193.5" y="-133" font-family="Helvetica,sans-Serif" font-size="10" text-anchor="middle">FileList</text></g><g id="node3" class="node"><title>Node3</title><g id="a_node3"><a target="_top" xlink:href="classmap__pointer.xhtml"><polygon fill="#fff" stroke="#000" points="0 -88 0 -118 137 -118 137 -88 0 -88"/><text x="8" y="-106" font-family="Helvetica,sans-Serif" font-size="10" text-anchor="start">map_pointer&lt; pkgCache</text><text x="68.5" y="-95" font-family="Helvetica,sans-Serif" font-size="10" text-anchor="middle">::Description &gt;</text></a></g></g><g id="edge2" class="edge"><title>Node3-&gt;Node1</title><path fill="none" stroke="#9a32cd" stroke-dasharray="5 2" d="M147.35,-94.96C181.06,-91.48 219.62,-87.5 249.81,-84.39"/><polygon fill="#9a32cd" stroke="#9a32cd" points="146.65 -91.52 137.06 -96.03 147.37 -98.48 146.65 -91.52"/><text x="193.5" y="-96" font-family="Helvetica,sans-Serif" font-size="10" text-anchor="middle">NextDesc</text></g><g id="node4" class="node"><title>Node4</title><g id="a_node4"><a target="_top" xlink:href="classmap__pointer.xhtml"><polygon fill="#fff" stroke="#000" points="0 -39 0 -69 137 -69 137 -39 0 -39"/><text x="8" y="-57" font-family="Helvetica,sans-Serif" font-size="10" text-anchor="start">map_pointer&lt; pkgCache</text><text x="68.5" y="-46" font-family="Helvetica,sans-Serif" font-size="10" text-anchor="middle">::Package &gt;</text></a></g></g><g id="edge3" class="edge"><title>Node4-&gt;Node1</title><path fill="none" stroke="#9a32cd" stroke-dasharray="5 2" d="M147.23,-61.98C174.09,-64.78 204.37,-67.98 232,-71 237.71,-71.63 243.69,-72.29 249.64,-72.96"/><polygon fill="#9a32cd" stroke="#9a32cd" points="147.42 -58.48 137.11 -60.93 146.7 -65.44 147.42 -58.48"/><text x="193.5" y="-74" font-family="Helvetica,sans-Serif" font-size="10" text-anchor="middle">ParentPkg</text></g><g id="node5" class="node"><title>Node5</title><g id="a_node5"><a target="_top" xlink:href="classmap__pointer.xhtml"><polygon fill="#fff" stroke="#000" points="7.5 -.5 7.5 -19.5 129.5 -19.5 129.5 -.5 7.5 -.5"/><text x="68.5" y="-7.5" font-family="Helvetica,sans-Serif" font-size="10" text-anchor="middle">map_pointer&lt; char &gt;</text></a></g></g><g id="edge4" class="edge"><title>Node5-&gt;Node1</title><path fill="none" stroke="#9a32cd" stroke-dasharray="5 2" d="M139.71,-15.16C168.92,-18.85 202.76,-25.17 232,-36 250.19,-42.74 268.81,-54.45 282.27,-63.95"/><polygon fill="#9a32cd" stroke="#9a32cd" points="139.93 -11.66 129.59 -13.96 139.11 -18.61 139.93 -11.66"/><text x="193.5" y="-50" font-family="Helvetica,sans-Serif" font-size="10" text-anchor="middle">language_code</text><text x="193.5" y="-39" font-family="Helvetica,sans-Serif" font-size="10" text-anchor="middle">md5sum</text></g></g></svg>