<svg xmlns="http://www.w3.org/2000/svg" xmlns:xlink="http://www.w3.org/1999/xlink" width="170pt" height="112" viewBox="0 0 170 84"><g id="graph0" class="graph" transform="scale(1 1) rotate(0) translate(4 80)"><title>PatternTreeParser::Node</title><polygon fill="#fff" stroke="transparent" points="-4 4 -4 -80 166 -80 166 4 -4 4"/><g id="node1" class="node"><title>Node1</title><g id="a_node1"><a><polygon fill="#bfbfbf" stroke="#000" points="17 -56.5 17 -75.5 150 -75.5 150 -56.5 17 -56.5"/><text x="83.5" y="-63.5" font-family="Helvetica,sans-Serif" font-size="10" text-anchor="middle">PatternTreeParser::Node</text></a></g></g><g id="node2" class="node"><title>Node2</title><g id="a_node2"><a target="_top" xlink:href="structAPT_1_1Internal_1_1PatternTreeParser_1_1PatternNode.xhtml"><polygon fill="#fff" stroke="#000" points="0 -.5 0 -19.5 77 -19.5 77 -.5 0 -.5"/><text x="38.5" y="-7.5" font-family="Helvetica,sans-Serif" font-size="10" text-anchor="middle">PatternNode</text></a></g></g><g id="edge1" class="edge"><title>Node1-&gt;Node2</title><path fill="none" stroke="#191970" d="M69.45,-48.14C61.61,-38.74 52.17,-27.4 45.79,-19.75"/><polygon fill="#191970" stroke="#191970" points="66.98 -50.64 76.07 -56.08 72.36 -46.16 66.98 -50.64"/></g><g id="node3" class="node"><title>Node3</title><g id="a_node3"><a target="_top" xlink:href="structAPT_1_1Internal_1_1PatternTreeParser_1_1WordNode.xhtml"><polygon fill="#fff" stroke="#000" points="95 -.5 95 -19.5 162 -19.5 162 -.5 95 -.5"/><text x="128.5" y="-7.5" font-family="Helvetica,sans-Serif" font-size="10" text-anchor="middle">WordNode</text></a></g></g><g id="edge2" class="edge"><title>Node1-&gt;Node3</title><path fill="none" stroke="#191970" d="M97.55,-48.14C105.39,-38.74 114.83,-27.4 121.21,-19.75"/><polygon fill="#191970" stroke="#191970" points="94.64 -46.16 90.93 -56.08 100.02 -50.64 94.64 -46.16"/></g></g></svg>