<svg xmlns="http://www.w3.org/2000/svg" xmlns:xlink="http://www.w3.org/1999/xlink" id="main" onload="init(evt)" version="1.1" xml:space="preserve"><style type="text/css">.edge:hover path{stroke:red}.edge:hover polygon{stroke:red;fill:red}</style><script type="text/javascript"><![CDATA[
var edges = document.getElementsByTagName('g');
if (edges && edges.length) {
  for (var i=0;i<edges.length;i++) {
    if (edges[i].id.substr(0,4)=='edge') {
      edges[i].setAttribute('class','edge');
    }
  }
}
]]></script><defs><circle id="rim" cx="0" cy="0" r="7"/><circle id="rim2" cx="0" cy="0" r="3.5"/><g id="zoomPlus"><use fill="#404040" xlink:href="#rim"><set attributeName="fill" begin="zoomplus.mouseover" end="zoomplus.mouseout" to="#808080"/></use><path fill="none" stroke="#fff" stroke-width="1.5" d="M-4,0h8M0,-4v8" pointer-events="none"/></g><g id="zoomMin"><use fill="#404040" xlink:href="#rim"><set attributeName="fill" begin="zoomminus.mouseover" end="zoomminus.mouseout" to="#808080"/></use><path fill="none" stroke="#fff" stroke-width="1.5" d="M-4,0h8" pointer-events="none"/></g><g id="dirArrow"><path fill="none" stroke="#fff" stroke-width="1.5" d="M0,-3.0v7 M-2.5,-0.5L0,-3.0L2.5,-0.5"/></g><g id="resetDef"><use fill="#404040" xlink:href="#rim2"><set attributeName="fill" begin="reset.mouseover" end="reset.mouseout" to="#808080"/></use></g></defs><script type="text/javascript">var viewWidth = 733; var viewHeight = 140; var sectionId = &apos;dynsection-0&apos;;</script><script xlink:href="svgpan.js"/><svg id="graph" class="graph"><g id="viewport"><title>apt-pkg/acquire-worker.h</title><polygon fill="#fff" stroke="transparent" points="-4 4 -4 -136 729 -136 729 4 -4 4"/><g id="node1" class="node"><title>Node1</title><g id="a_node1"><a><polygon fill="#bfbfbf" stroke="#000" points="253.5 -112.5 253.5 -131.5 391.5 -131.5 391.5 -112.5 253.5 -112.5"/><text x="322.5" y="-119.5" font-family="Helvetica,sans-Serif" font-size="10" text-anchor="middle">apt-pkg/acquire-worker.h</text></a></g></g><g id="node2" class="node"><title>Node2</title><g id="a_node2"><a target="_top" xlink:href="acquire_8h.xhtml"><polygon fill="#fff" stroke="#000" points="271.5 -56.5 271.5 -75.5 373.5 -75.5 373.5 -56.5 271.5 -56.5"/><text x="322.5" y="-63.5" font-family="Helvetica,sans-Serif" font-size="10" text-anchor="middle">apt-pkg/acquire.h</text></a></g></g><g id="edge1" class="edge"><title>Node1-&gt;Node2</title><path fill="none" stroke="#191970" d="M322.5,-112.08C322.5,-105.01 322.5,-94.86 322.5,-85.99"/><polygon fill="#191970" stroke="#191970" points="326 -85.75 322.5 -75.75 319 -85.75 326 -85.75"/></g><g id="node5" class="node"><title>Node5</title><g id="a_node5"><a><polygon fill="#fff" stroke="#bfbfbf" points="0 -.5 0 -19.5 105 -19.5 105 -.5 0 -.5"/><text x="52.5" y="-7.5" font-family="Helvetica,sans-Serif" font-size="10" text-anchor="middle">apt-pkg/weakptr.h</text></a></g></g><g id="edge10" class="edge"><title>Node1-&gt;Node5</title><path fill="none" stroke="#191970" d="M301.31,-112.37C253.7,-92.97 138.09,-45.87 82.86,-23.37"/><polygon fill="#191970" stroke="#191970" points="84.17 -20.12 73.59 -19.59 81.53 -26.61 84.17 -20.12"/></g><g id="node6" class="node"><title>Node6</title><g id="a_node6"><a><polygon fill="#fff" stroke="#bfbfbf" points="123.5 -.5 123.5 -19.5 167.5 -19.5 167.5 -.5 123.5 -.5"/><text x="145.5" y="-7.5" font-family="Helvetica,sans-Serif" font-size="10" text-anchor="middle">string</text></a></g></g><g id="edge11" class="edge"><title>Node1-&gt;Node6</title><path fill="none" stroke="#191970" d="M308.61,-112.37C278.11,-93.41 205.04,-48 167.93,-24.94"/><polygon fill="#191970" stroke="#191970" points="169.67 -21.9 159.32 -19.59 165.97 -27.84 169.67 -21.9"/></g><g id="node7" class="node"><title>Node7</title><g id="a_node7"><a><polygon fill="#fff" stroke="#bfbfbf" points="678 -.5 678 -19.5 725 -19.5 725 -.5 678 -.5"/><text x="701.5" y="-7.5" font-family="Helvetica,sans-Serif" font-size="10" text-anchor="middle">vector</text></a></g></g><g id="edge12" class="edge"><title>Node1-&gt;Node7</title><path fill="none" stroke="#191970" d="M334.04,-112.41C355.74,-96.4 402.1,-63.03 420.5,-56 521.6,-17.38 557.43,-41.25 667.93,-19.83"/><polygon fill="#191970" stroke="#191970" points="668.68 -23.25 677.79 -17.84 667.3 -16.39 668.68 -23.25"/></g><g id="node11" class="node"><title>Node11</title><g id="a_node11"><a><polygon fill="#fff" stroke="#bfbfbf" points="429.5 -56.5 429.5 -75.5 501.5 -75.5 501.5 -56.5 429.5 -56.5"/><text x="465.5" y="-63.5" font-family="Helvetica,sans-Serif" font-size="10" text-anchor="middle">sys/types.h</text></a></g></g><g id="edge13" class="edge"><title>Node1-&gt;Node11</title><path fill="none" stroke="#191970" d="M345.16,-112.44C368.9,-103.48 406.41,-89.31 433.24,-79.18"/><polygon fill="#191970" stroke="#191970" points="434.83 -82.32 442.95 -75.52 432.36 -75.77 434.83 -82.32"/></g><g id="node3" class="node"><title>Node3</title><g id="a_node3"><a><polygon fill="#fff" stroke="#bfbfbf" points="272 -.5 272 -19.5 373 -19.5 373 -.5 272 -.5"/><text x="322.5" y="-7.5" font-family="Helvetica,sans-Serif" font-size="10" text-anchor="middle">apt-pkg/hashes.h</text></a></g></g><g id="edge2" class="edge"><title>Node2-&gt;Node3</title><path fill="none" stroke="#191970" d="M322.5,-56.08C322.5,-49.01 322.5,-38.86 322.5,-29.99"/><polygon fill="#191970" stroke="#191970" points="326 -29.75 322.5 -19.75 319 -29.75 326 -29.75"/></g><g id="node4" class="node"><title>Node4</title><g id="a_node4"><a><polygon fill="#fff" stroke="#bfbfbf" points="391.5 -.5 391.5 -19.5 493.5 -19.5 493.5 -.5 391.5 -.5"/><text x="442.5" y="-7.5" font-family="Helvetica,sans-Serif" font-size="10" text-anchor="middle">apt-pkg/macros.h</text></a></g></g><g id="edge3" class="edge"><title>Node2-&gt;Node4</title><path fill="none" stroke="#191970" d="M341.51,-56.44C361.09,-47.64 391.81,-33.81 414.23,-23.72"/><polygon fill="#191970" stroke="#191970" points="415.89 -26.81 423.57 -19.52 413.02 -20.43 415.89 -26.81"/></g><g id="edge4" class="edge"><title>Node2-&gt;Node5</title><path fill="none" stroke="#191970" d="M279.72,-56.44C232.32,-46.96 155.87,-31.67 104.92,-21.48"/><polygon fill="#191970" stroke="#191970" points="105.57 -18.05 95.08 -19.52 104.2 -24.91 105.57 -18.05"/></g><g id="edge5" class="edge"><title>Node2-&gt;Node6</title><path fill="none" stroke="#191970" d="M294.45,-56.44C262.56,-46.71 210.61,-30.86 177.26,-20.69"/><polygon fill="#191970" stroke="#191970" points="178.13 -17.3 167.54 -17.73 176.09 -23.99 178.13 -17.3"/></g><g id="edge6" class="edge"><title>Node2-&gt;Node7</title><path fill="none" stroke="#191970" d="M373.59,-57.88C378.29,-57.24 382.98,-56.6 387.5,-56 509.14,-39.79 543.3,-44.37 667.88,-19.86"/><polygon fill="#191970" stroke="#191970" points="668.68 -23.27 677.8 -17.89 667.31 -16.41 668.68 -23.27"/></g><g id="node8" class="node"><title>Node8</title><g id="a_node8"><a><polygon fill="#fff" stroke="#bfbfbf" points="511.5 -.5 511.5 -19.5 567.5 -19.5 567.5 -.5 511.5 -.5"/><text x="539.5" y="-7.5" font-family="Helvetica,sans-Serif" font-size="10" text-anchor="middle">stddef.h</text></a></g></g><g id="edge7" class="edge"><title>Node2-&gt;Node8</title><path fill="none" stroke="#191970" d="M356.88,-56.44C396.33,-46.63 460.8,-30.59 501.64,-20.42"/><polygon fill="#191970" stroke="#191970" points="502.63 -23.78 511.49 -17.97 500.94 -16.99 502.63 -23.78"/></g><g id="node9" class="node"><title>Node9</title><g id="a_node9"><a><polygon fill="#fff" stroke="#bfbfbf" points="585.5 -.5 585.5 -19.5 659.5 -19.5 659.5 -.5 585.5 -.5"/><text x="622.5" y="-7.5" font-family="Helvetica,sans-Serif" font-size="10" text-anchor="middle">sys/select.h</text></a></g></g><g id="edge8" class="edge"><title>Node2-&gt;Node9</title><path fill="none" stroke="#191970" d="M372.19,-56.47C421.23,-47.98 498.61,-34.44 575.06,-20.24"/><polygon fill="#191970" stroke="#191970" points="576.16 -23.6 585.35 -18.33 574.88 -16.72 576.16 -23.6"/></g><g id="node10" class="node"><title>Node10</title><g id="a_node10"><a><polygon fill="#fff" stroke="#bfbfbf" points="185.5 -.5 185.5 -19.5 253.5 -19.5 253.5 -.5 185.5 -.5"/><text x="219.5" y="-7.5" font-family="Helvetica,sans-Serif" font-size="10" text-anchor="middle">sys/time.h</text></a></g></g><g id="edge9" class="edge"><title>Node2-&gt;Node10</title><path fill="none" stroke="#191970" d="M305.95,-56.32C289.51,-47.7 264.07,-34.36 245.03,-24.39"/><polygon fill="#191970" stroke="#191970" points="246.49 -21.2 236.01 -19.65 243.24 -27.4 246.49 -21.2"/></g></g></svg><g id="navigator" fill="#404254" transform="translate(0 0)"><rect width="60" height="60" x="0" y="0" fill="#f2f5e9" fill-opacity=".5" stroke="#606060" stroke-width=".5"/><use id="zoomplus" x="17" y="9" onmousedown="handleZoom(evt,'in')" xlink:href="#zoomPlus"/><use id="zoomminus" x="42" y="9" onmousedown="handleZoom(evt,'out')" xlink:href="#zoomMin"/><use id="reset" x="30" y="36" onmousedown="handleReset()" xlink:href="#resetDef"/><g id="arrowUp" onmousedown="handlePan(0,-1)" transform="translate(30 24)" xlink:href="#dirArrow"><use fill="#404040" xlink:href="#rim"><set attributeName="fill" begin="arrowUp.mouseover" end="arrowUp.mouseout" to="#808080"/></use><path fill="none" stroke="#fff" stroke-width="1.5" d="M0,-3.0v7 M-2.5,-0.5L0,-3.0L2.5,-0.5"/></g><g id="arrowRight" onmousedown="handlePan(1,0)" transform="rotate(90) translate(36 -43)" xlink:href="#dirArrow"><use fill="#404040" xlink:href="#rim"><set attributeName="fill" begin="arrowRight.mouseover" end="arrowRight.mouseout" to="#808080"/></use><path fill="none" stroke="#fff" stroke-width="1.5" d="M0,-3.0v7 M-2.5,-0.5L0,-3.0L2.5,-0.5"/></g><g id="arrowDown" onmousedown="handlePan(0,1)" transform="rotate(180) translate(-30 -48)" xlink:href="#dirArrow"><use fill="#404040" xlink:href="#rim"><set attributeName="fill" begin="arrowDown.mouseover" end="arrowDown.mouseout" to="#808080"/></use><path fill="none" stroke="#fff" stroke-width="1.5" d="M0,-3.0v7 M-2.5,-0.5L0,-3.0L2.5,-0.5"/></g><g id="arrowLeft" onmousedown="handlePan(-1,0)" transform="rotate(270) translate(-36 17)" xlink:href="#dirArrow"><use fill="#404040" xlink:href="#rim"><set attributeName="fill" begin="arrowLeft.mouseover" end="arrowLeft.mouseout" to="#808080"/></use><path fill="none" stroke="#fff" stroke-width="1.5" d="M0,-3.0v7 M-2.5,-0.5L0,-3.0L2.5,-0.5"/></g></g><svg width="100%" height="30" preserveAspectRatio="xMaxYMin meet" viewBox="0 0 15 15"><g id="arrow_out" transform="scale(0.3 0.3)"><a target="_base" xlink:href="acquire-worker_8h__incl_org.svg"><rect id="button" width="38" height="38" x="6" y="6" fill="#f2f5e9" fill-opacity=".5" stroke="#606060" stroke-width="1" rx="5" ry="5"/><path id="arrow" d="M 11.500037,31.436501 C 11.940474,20.09759 22.043105,11.32322 32.158766,21.979434 L 37.068811,17.246167 C 37.068811,17.246167 37.088388,32 37.088388,32 L 22.160133,31.978069 C 22.160133,31.978069 26.997745,27.140456 26.997745,27.140456 C 18.528582,18.264221 13.291696,25.230495 11.500037,31.436501 z" style="fill:#404040"/></a></g></svg></svg>