<svg xmlns="http://www.w3.org/2000/svg" xmlns:xlink="http://www.w3.org/1999/xlink" id="main" onload="init(evt)" version="1.1" xml:space="preserve"><style type="text/css">.edge:hover path{stroke:red}.edge:hover polygon{stroke:red;fill:red}</style><script type="text/javascript"><![CDATA[
var edges = document.getElementsByTagName('g');
if (edges && edges.length) {
  for (var i=0;i<edges.length;i++) {
    if (edges[i].id.substr(0,4)=='edge') {
      edges[i].setAttribute('class','edge');
    }
  }
}
]]></script><defs><circle id="rim" cx="0" cy="0" r="7"/><circle id="rim2" cx="0" cy="0" r="3.5"/><g id="zoomPlus"><use fill="#404040" xlink:href="#rim"><set attributeName="fill" begin="zoomplus.mouseover" end="zoomplus.mouseout" to="#808080"/></use><path fill="none" stroke="#fff" stroke-width="1.5" d="M-4,0h8M0,-4v8" pointer-events="none"/></g><g id="zoomMin"><use fill="#404040" xlink:href="#rim"><set attributeName="fill" begin="zoomminus.mouseover" end="zoomminus.mouseout" to="#808080"/></use><path fill="none" stroke="#fff" stroke-width="1.5" d="M-4,0h8" pointer-events="none"/></g><g id="dirArrow"><path fill="none" stroke="#fff" stroke-width="1.5" d="M0,-3.0v7 M-2.5,-0.5L0,-3.0L2.5,-0.5"/></g><g id="resetDef"><use fill="#404040" xlink:href="#rim2"><set attributeName="fill" begin="reset.mouseover" end="reset.mouseout" to="#808080"/></use></g></defs><script type="text/javascript">var viewWidth = 608; var viewHeight = 84; var sectionId = &apos;dynsection-0&apos;;</script><script xlink:href="svgpan.js"/><svg id="graph" class="graph"><g id="viewport"><title>apt-pkg/acquire-method.h</title><polygon fill="#fff" stroke="transparent" points="-4 4 -4 -80 604 -80 604 4 -4 4"/><g id="node1" class="node"><title>Node1</title><g id="a_node1"><a><polygon fill="#bfbfbf" stroke="#000" points="266 -56.5 266 -75.5 409 -75.5 409 -56.5 266 -56.5"/><text x="337.5" y="-63.5" font-family="Helvetica,sans-Serif" font-size="10" text-anchor="middle">apt-pkg/acquire-method.h</text></a></g></g><g id="node2" class="node"><title>Node2</title><g id="a_node2"><a><polygon fill="#fff" stroke="#bfbfbf" points="0 -.5 0 -19.5 101 -19.5 101 -.5 0 -.5"/><text x="50.5" y="-7.5" font-family="Helvetica,sans-Serif" font-size="10" text-anchor="middle">apt-pkg/hashes.h</text></a></g></g><g id="edge1" class="edge"><title>Node1-&gt;Node2</title><path fill="none" stroke="#191970" d="M292.02,-56.44C241.54,-46.94 160.04,-31.61 105.88,-21.42"/><polygon fill="#191970" stroke="#191970" points="106.24 -17.93 95.76 -19.52 104.94 -24.81 106.24 -17.93"/></g><g id="node3" class="node"><title>Node3</title><g id="a_node3"><a><polygon fill="#fff" stroke="#bfbfbf" points="119.5 -.5 119.5 -19.5 221.5 -19.5 221.5 -.5 119.5 -.5"/><text x="170.5" y="-7.5" font-family="Helvetica,sans-Serif" font-size="10" text-anchor="middle">apt-pkg/macros.h</text></a></g></g><g id="edge2" class="edge"><title>Node1-&gt;Node3</title><path fill="none" stroke="#191970" d="M311.04,-56.44C282.82,-47.32 237.96,-32.81 206.53,-22.65"/><polygon fill="#191970" stroke="#191970" points="207.43 -19.26 196.84 -19.52 205.28 -25.92 207.43 -19.26"/></g><g id="node4" class="node"><title>Node4</title><g id="a_node4"><a><polygon fill="#fff" stroke="#bfbfbf" points="239.5 -.5 239.5 -19.5 295.5 -19.5 295.5 -.5 239.5 -.5"/><text x="267.5" y="-7.5" font-family="Helvetica,sans-Serif" font-size="10" text-anchor="middle">stdarg.h</text></a></g></g><g id="edge3" class="edge"><title>Node1-&gt;Node4</title><path fill="none" stroke="#191970" d="M326.25,-56.32C315.7,-48.18 299.7,-35.84 287.06,-26.09"/><polygon fill="#191970" stroke="#191970" points="289.01 -23.17 278.95 -19.83 284.73 -28.71 289.01 -23.17"/></g><g id="node5" class="node"><title>Node5</title><g id="a_node5"><a><polygon fill="#fff" stroke="#bfbfbf" points="313.5 -.5 313.5 -19.5 361.5 -19.5 361.5 -.5 313.5 -.5"/><text x="337.5" y="-7.5" font-family="Helvetica,sans-Serif" font-size="10" text-anchor="middle">time.h</text></a></g></g><g id="edge4" class="edge"><title>Node1-&gt;Node5</title><path fill="none" stroke="#191970" d="M337.5,-56.08C337.5,-49.01 337.5,-38.86 337.5,-29.99"/><polygon fill="#191970" stroke="#191970" points="341 -29.75 337.5 -19.75 334 -29.75 341 -29.75"/></g><g id="node6" class="node"><title>Node6</title><g id="a_node6"><a><polygon fill="#fff" stroke="#bfbfbf" points="379.5 -.5 379.5 -19.5 423.5 -19.5 423.5 -.5 379.5 -.5"/><text x="401.5" y="-7.5" font-family="Helvetica,sans-Serif" font-size="10" text-anchor="middle">string</text></a></g></g><g id="edge5" class="edge"><title>Node1-&gt;Node6</title><path fill="none" stroke="#191970" d="M347.78,-56.32C357.34,-48.26 371.78,-36.08 383.28,-26.37"/><polygon fill="#191970" stroke="#191970" points="385.64 -28.96 391.03 -19.83 381.13 -23.61 385.64 -28.96"/></g><g id="node7" class="node"><title>Node7</title><g id="a_node7"><a><polygon fill="#fff" stroke="#bfbfbf" points="442 -.5 442 -19.5 535 -19.5 535 -.5 442 -.5"/><text x="488.5" y="-7.5" font-family="Helvetica,sans-Serif" font-size="10" text-anchor="middle">unordered_map</text></a></g></g><g id="edge6" class="edge"><title>Node1-&gt;Node7</title><path fill="none" stroke="#191970" d="M361.43,-56.44C386.72,-47.4 426.8,-33.06 455.18,-22.92"/><polygon fill="#191970" stroke="#191970" points="456.45 -26.18 464.69 -19.52 454.09 -19.59 456.45 -26.18"/></g><g id="node8" class="node"><title>Node8</title><g id="a_node8"><a><polygon fill="#fff" stroke="#bfbfbf" points="553 -.5 553 -19.5 600 -19.5 600 -.5 553 -.5"/><text x="576.5" y="-7.5" font-family="Helvetica,sans-Serif" font-size="10" text-anchor="middle">vector</text></a></g></g><g id="edge7" class="edge"><title>Node1-&gt;Node8</title><path fill="none" stroke="#191970" d="M380.49,-56.44C420.35,-48.33 481.51,-35.44 542.92,-20.29"/><polygon fill="#191970" stroke="#191970" points="543.92 -23.65 552.78 -17.84 542.23 -16.86 543.92 -23.65"/></g></g></svg><g id="navigator" fill="#404254" transform="translate(0 0)"><rect width="60" height="60" x="0" y="0" fill="#f2f5e9" fill-opacity=".5" stroke="#606060" stroke-width=".5"/><use id="zoomplus" x="17" y="9" onmousedown="handleZoom(evt,'in')" xlink:href="#zoomPlus"/><use id="zoomminus" x="42" y="9" onmousedown="handleZoom(evt,'out')" xlink:href="#zoomMin"/><use id="reset" x="30" y="36" onmousedown="handleReset()" xlink:href="#resetDef"/><g id="arrowUp" onmousedown="handlePan(0,-1)" transform="translate(30 24)" xlink:href="#dirArrow"><use fill="#404040" xlink:href="#rim"><set attributeName="fill" begin="arrowUp.mouseover" end="arrowUp.mouseout" to="#808080"/></use><path fill="none" stroke="#fff" stroke-width="1.5" d="M0,-3.0v7 M-2.5,-0.5L0,-3.0L2.5,-0.5"/></g><g id="arrowRight" onmousedown="handlePan(1,0)" transform="rotate(90) translate(36 -43)" xlink:href="#dirArrow"><use fill="#404040" xlink:href="#rim"><set attributeName="fill" begin="arrowRight.mouseover" end="arrowRight.mouseout" to="#808080"/></use><path fill="none" stroke="#fff" stroke-width="1.5" d="M0,-3.0v7 M-2.5,-0.5L0,-3.0L2.5,-0.5"/></g><g id="arrowDown" onmousedown="handlePan(0,1)" transform="rotate(180) translate(-30 -48)" xlink:href="#dirArrow"><use fill="#404040" xlink:href="#rim"><set attributeName="fill" begin="arrowDown.mouseover" end="arrowDown.mouseout" to="#808080"/></use><path fill="none" stroke="#fff" stroke-width="1.5" d="M0,-3.0v7 M-2.5,-0.5L0,-3.0L2.5,-0.5"/></g><g id="arrowLeft" onmousedown="handlePan(-1,0)" transform="rotate(270) translate(-36 17)" xlink:href="#dirArrow"><use fill="#404040" xlink:href="#rim"><set attributeName="fill" begin="arrowLeft.mouseover" end="arrowLeft.mouseout" to="#808080"/></use><path fill="none" stroke="#fff" stroke-width="1.5" d="M0,-3.0v7 M-2.5,-0.5L0,-3.0L2.5,-0.5"/></g></g><svg width="100%" height="30" preserveAspectRatio="xMaxYMin meet" viewBox="0 0 15 15"><g id="arrow_out" transform="scale(0.3 0.3)"><a target="_base" xlink:href="acquire-method_8h__incl_org.svg"><rect id="button" width="38" height="38" x="6" y="6" fill="#f2f5e9" fill-opacity=".5" stroke="#606060" stroke-width="1" rx="5" ry="5"/><path id="arrow" d="M 11.500037,31.436501 C 11.940474,20.09759 22.043105,11.32322 32.158766,21.979434 L 37.068811,17.246167 C 37.068811,17.246167 37.088388,32 37.088388,32 L 22.160133,31.978069 C 22.160133,31.978069 26.997745,27.140456 26.997745,27.140456 C 18.528582,18.264221 13.291696,25.230495 11.500037,31.436501 z" style="fill:#404040"/></a></g></svg></svg>