<?xml version="1.0" encoding="UTF-8" standalone="no"?>
<!DOCTYPE svg PUBLIC "-//W3C//DTD SVG 1.1//EN"
 "http://www.w3.org/Graphics/SVG/1.1/DTD/svg11.dtd">
<!-- Generated by graphviz version 2.43.0 (0)
 -->
<!-- Title: apt&#45;pkg/acquire&#45;item.h Pages: 1 -->
<!--zoomable 308 -->
<svg id="main" version="1.1" xmlns="http://www.w3.org/2000/svg" xmlns:xlink="http://www.w3.org/1999/xlink" xml:space="preserve" onload="init(evt)">
<style type="text/css"><![CDATA[
.edge:hover path { stroke: red; }
.edge:hover polygon { stroke: red; fill: red; }
]]></style>
<script type="text/javascript"><![CDATA[
var edges = document.getElementsByTagName('g');
if (edges && edges.length) {
  for (var i=0;i<edges.length;i++) {
    if (edges[i].id.substr(0,4)=='edge') {
      edges[i].setAttribute('class','edge');
    }
  }
}
]]></script>
        <defs>
                <circle id="rim" cx="0" cy="0" r="7"/>
                <circle id="rim2" cx="0" cy="0" r="3.5"/>
                <g id="zoomPlus">
                        <use xlink:href="#rim" fill="#404040">
                                <set attributeName="fill" to="#808080" begin="zoomplus.mouseover" end="zoomplus.mouseout"/>
                        </use>
                        <path d="M-4,0h8M0,-4v8" fill="none" stroke="white" stroke-width="1.5" pointer-events="none"/>
                </g>
                <g id="zoomMin">
                        <use xlink:href="#rim" fill="#404040">
                                <set attributeName="fill" to="#808080" begin="zoomminus.mouseover" end="zoomminus.mouseout"/>
                        </use>
                        <path d="M-4,0h8" fill="none" stroke="white" stroke-width="1.5" pointer-events="none"/>
                </g>
                <g id="dirArrow">
                        <path fill="none" stroke="white" stroke-width="1.5" d="M0,-3.0v7 M-2.5,-0.5L0,-3.0L2.5,-0.5"/>
                </g>
               <g id="resetDef">
                       <use xlink:href="#rim2" fill="#404040">
                               <set attributeName="fill" to="#808080" begin="reset.mouseover" end="reset.mouseout"/>
                       </use>
               </g>
        </defs>

<script type="text/javascript">
var viewWidth = 1496;
var viewHeight = 308;
var sectionId = 'dynsection-0';
</script>
<script xlink:href="svgpan.js"/>
<svg id="graph" class="graph">
<g id="viewport">
<title>apt&#45;pkg/acquire&#45;item.h</title>
<polygon fill="white" stroke="transparent" points="-4,4 -4,-304 1492,-304 1492,4 -4,4"/>
<!-- Node1 -->
<g id="node1" class="node">
<title>Node1</title>
<g id="a_node1"><a xlink:title=" ">
<polygon fill="#bfbfbf" stroke="black" points="559,-280.5 559,-299.5 687,-299.5 687,-280.5 559,-280.5"/>
<text text-anchor="middle" x="623" y="-287.5" font-family="Helvetica,sans-Serif" font-size="10.00">apt&#45;pkg/acquire&#45;item.h</text>
</a>
</g>
</g>
<!-- Node2 -->
<g id="node2" class="node">
<title>Node2</title>
<g id="a_node2"><a xlink:href="acquire_8h.xhtml" target="_top" xlink:title=" ">
<polygon fill="white" stroke="black" points="363,-168.5 363,-187.5 465,-187.5 465,-168.5 363,-168.5"/>
<text text-anchor="middle" x="414" y="-175.5" font-family="Helvetica,sans-Serif" font-size="10.00">apt&#45;pkg/acquire.h</text>
</a>
</g>
</g>
<!-- Node1&#45;&gt;Node2 -->
<g id="edge1" class="edge">
<title>Node1&#45;&gt;Node2</title>
<path fill="none" stroke="midnightblue" d="M606.6,-280.37C570.28,-261.25 482.84,-215.23 439.39,-192.36"/>
<polygon fill="midnightblue" stroke="midnightblue" points="440.8,-189.15 430.32,-187.59 437.54,-195.35 440.8,-189.15"/>
</g>
<!-- Node3 -->
<g id="node3" class="node">
<title>Node3</title>
<g id="a_node3"><a xlink:title=" ">
<polygon fill="white" stroke="#bfbfbf" points="480.5,-112.5 480.5,-131.5 581.5,-131.5 581.5,-112.5 480.5,-112.5"/>
<text text-anchor="middle" x="531" y="-119.5" font-family="Helvetica,sans-Serif" font-size="10.00">apt&#45;pkg/hashes.h</text>
</a>
</g>
</g>
<!-- Node1&#45;&gt;Node3 -->
<g id="edge10" class="edge">
<title>Node1&#45;&gt;Node3</title>
<path fill="none" stroke="midnightblue" d="M618.05,-280.08C603.45,-253.72 560.31,-175.88 540.79,-140.66"/>
<polygon fill="midnightblue" stroke="midnightblue" points="543.66,-138.62 535.75,-131.57 537.53,-142.01 543.66,-138.62"/>
</g>
<!-- Node5 -->
<g id="node5" class="node">
<title>Node5</title>
<g id="a_node5"><a xlink:title=" ">
<polygon fill="white" stroke="#bfbfbf" points="28.5,-112.5 28.5,-131.5 133.5,-131.5 133.5,-112.5 28.5,-112.5"/>
<text text-anchor="middle" x="81" y="-119.5" font-family="Helvetica,sans-Serif" font-size="10.00">apt&#45;pkg/weakptr.h</text>
</a>
</g>
</g>
<!-- Node1&#45;&gt;Node5 -->
<g id="edge42" class="edge">
<title>Node1&#45;&gt;Node5</title>
<path fill="none" stroke="midnightblue" d="M595,-280.42C504.69,-252.76 221.01,-165.88 118.46,-134.47"/>
<polygon fill="midnightblue" stroke="midnightblue" points="119.42,-131.11 108.83,-131.52 117.37,-137.8 119.42,-131.11"/>
</g>
<!-- Node6 -->
<g id="node6" class="node">
<title>Node6</title>
<g id="a_node6"><a xlink:title=" ">
<polygon fill="white" stroke="#bfbfbf" points="577,-0.5 577,-19.5 621,-19.5 621,-0.5 577,-0.5"/>
<text text-anchor="middle" x="599" y="-7.5" font-family="Helvetica,sans-Serif" font-size="10.00">string</text>
</a>
</g>
</g>
<!-- Node1&#45;&gt;Node6 -->
<g id="edge44" class="edge">
<title>Node1&#45;&gt;Node6</title>
<path fill="none" stroke="midnightblue" d="M558.97,-284.37C399.99,-272.01 0,-235.32 0,-179 0,-179 0,-179 0,-121 0,-62.82 442.72,-23.38 566.94,-13.45"/>
<polygon fill="midnightblue" stroke="midnightblue" points="567.28,-16.94 576.97,-12.66 566.73,-9.96 567.28,-16.94"/>
</g>
<!-- Node7 -->
<g id="node7" class="node">
<title>Node7</title>
<g id="a_node7"><a xlink:title=" ">
<polygon fill="white" stroke="#bfbfbf" points="599.5,-112.5 599.5,-131.5 646.5,-131.5 646.5,-112.5 599.5,-112.5"/>
<text text-anchor="middle" x="623" y="-119.5" font-family="Helvetica,sans-Serif" font-size="10.00">vector</text>
</a>
</g>
</g>
<!-- Node1&#45;&gt;Node7 -->
<g id="edge46" class="edge">
<title>Node1&#45;&gt;Node7</title>
<path fill="none" stroke="midnightblue" d="M623,-280.08C623,-253.95 623,-177.21 623,-141.58"/>
<polygon fill="midnightblue" stroke="midnightblue" points="626.5,-141.57 623,-131.57 619.5,-141.57 626.5,-141.57"/>
</g>
<!-- Node11 -->
<g id="node11" class="node">
<title>Node11</title>
<g id="a_node11"><a xlink:href="indexfile_8h_source.xhtml" target="_top" xlink:title=" ">
<polygon fill="white" stroke="black" points="833,-224.5 833,-243.5 941,-243.5 941,-224.5 833,-224.5"/>
<text text-anchor="middle" x="887" y="-231.5" font-family="Helvetica,sans-Serif" font-size="10.00">apt&#45;pkg/indexfile.h</text>
</a>
</g>
</g>
<!-- Node1&#45;&gt;Node11 -->
<g id="edge11" class="edge">
<title>Node1&#45;&gt;Node11</title>
<path fill="none" stroke="midnightblue" d="M664.83,-280.44C711.08,-270.98 785.61,-255.74 835.44,-245.55"/>
<polygon fill="midnightblue" stroke="midnightblue" points="836.27,-248.95 845.36,-243.52 834.87,-242.09 836.27,-248.95"/>
</g>
<!-- Node12 -->
<g id="node12" class="node">
<title>Node12</title>
<g id="a_node12"><a xlink:href="pkgcache_8h.xhtml" target="_top" xlink:title="pkgCache &#45; Structure definitions for the cache file">
<polygon fill="white" stroke="black" points="936.5,-112.5 936.5,-131.5 1049.5,-131.5 1049.5,-112.5 936.5,-112.5"/>
<text text-anchor="middle" x="993" y="-119.5" font-family="Helvetica,sans-Serif" font-size="10.00">apt&#45;pkg/pkgcache.h</text>
</a>
</g>
</g>
<!-- Node1&#45;&gt;Node12 -->
<g id="edge41" class="edge">
<title>Node1&#45;&gt;Node12</title>
<path fill="none" stroke="midnightblue" d="M687.11,-286.04C804.85,-278.97 1047.23,-256.26 1088,-188 1103.09,-162.73 1069.38,-145.03 1038.02,-134.54"/>
<polygon fill="midnightblue" stroke="midnightblue" points="1039.01,-131.19 1028.43,-131.52 1036.91,-137.86 1039.01,-131.19"/>
</g>
<!-- Node24 -->
<g id="node24" class="node">
<title>Node24</title>
<g id="a_node24"><a xlink:title=" ">
<polygon fill="white" stroke="#bfbfbf" points="1041,-168.5 1041,-187.5 1079,-187.5 1079,-168.5 1041,-168.5"/>
<text text-anchor="middle" x="1060" y="-175.5" font-family="Helvetica,sans-Serif" font-size="10.00">map</text>
</a>
</g>
</g>
<!-- Node1&#45;&gt;Node24 -->
<g id="edge43" class="edge">
<title>Node1&#45;&gt;Node24</title>
<path fill="none" stroke="midnightblue" d="M687.12,-287.62C754.34,-284.48 862.2,-274.59 950,-244 984.28,-232.06 1019.67,-208.83 1040.76,-193.62"/>
<polygon fill="midnightblue" stroke="midnightblue" points="1042.89,-196.39 1048.87,-187.65 1038.74,-190.75 1042.89,-196.39"/>
</g>
<!-- Node25 -->
<g id="node25" class="node">
<title>Node25</title>
<g id="a_node25"><a xlink:title=" ">
<polygon fill="white" stroke="#bfbfbf" points="1135.5,-224.5 1135.5,-243.5 1228.5,-243.5 1228.5,-224.5 1135.5,-224.5"/>
<text text-anchor="middle" x="1182" y="-231.5" font-family="Helvetica,sans-Serif" font-size="10.00">unordered_map</text>
</a>
</g>
</g>
<!-- Node1&#45;&gt;Node25 -->
<g id="edge45" class="edge">
<title>Node1&#45;&gt;Node25</title>
<path fill="none" stroke="midnightblue" d="M687.19,-284.36C782.16,-277.24 965.62,-262.47 1121,-244 1122.46,-243.83 1123.94,-243.65 1125.44,-243.46"/>
<polygon fill="midnightblue" stroke="midnightblue" points="1125.95,-246.92 1135.41,-242.15 1125.04,-239.98 1125.95,-246.92"/>
</g>
<!-- Node2&#45;&gt;Node3 -->
<g id="edge2" class="edge">
<title>Node2&#45;&gt;Node3</title>
<path fill="none" stroke="midnightblue" d="M432.54,-168.44C451.62,-159.64 481.57,-145.81 503.44,-135.72"/>
<polygon fill="midnightblue" stroke="midnightblue" points="504.93,-138.88 512.55,-131.52 502,-132.53 504.93,-138.88"/>
</g>
<!-- Node4 -->
<g id="node4" class="node">
<title>Node4</title>
<g id="a_node4"><a xlink:title=" ">
<polygon fill="white" stroke="#bfbfbf" points="1037,-0.5 1037,-19.5 1139,-19.5 1139,-0.5 1037,-0.5"/>
<text text-anchor="middle" x="1088" y="-7.5" font-family="Helvetica,sans-Serif" font-size="10.00">apt&#45;pkg/macros.h</text>
</a>
</g>
</g>
<!-- Node2&#45;&gt;Node4 -->
<g id="edge3" class="edge">
<title>Node2&#45;&gt;Node4</title>
<path fill="none" stroke="midnightblue" d="M419.16,-168.21C428.03,-153.95 447.59,-125.97 472,-112 566.19,-58.09 890.04,-26.71 1026.55,-15.61"/>
<polygon fill="midnightblue" stroke="midnightblue" points="1027.14,-19.07 1036.83,-14.78 1026.58,-12.1 1027.14,-19.07"/>
</g>
<!-- Node2&#45;&gt;Node5 -->
<g id="edge4" class="edge">
<title>Node2&#45;&gt;Node5</title>
<path fill="none" stroke="midnightblue" d="M362.7,-168.68C303.77,-159.12 207.07,-143.44 143.72,-133.17"/>
<polygon fill="midnightblue" stroke="midnightblue" points="143.89,-129.65 133.46,-131.51 142.77,-136.56 143.89,-129.65"/>
</g>
<!-- Node2&#45;&gt;Node6 -->
<g id="edge5" class="edge">
<title>Node2&#45;&gt;Node6</title>
<path fill="none" stroke="midnightblue" d="M415.4,-168.11C417.89,-154.68 424.2,-128.99 438,-112 472.89,-69.04 531.18,-39.02 567.22,-23.42"/>
<polygon fill="midnightblue" stroke="midnightblue" points="568.9,-26.51 576.76,-19.4 566.19,-20.06 568.9,-26.51"/>
</g>
<!-- Node2&#45;&gt;Node7 -->
<g id="edge6" class="edge">
<title>Node2&#45;&gt;Node7</title>
<path fill="none" stroke="midnightblue" d="M448.66,-168.46C482.37,-160.1 535.27,-146.81 589.48,-132.37"/>
<polygon fill="midnightblue" stroke="midnightblue" points="590.5,-135.72 599.25,-129.75 588.69,-128.95 590.5,-135.72"/>
</g>
<!-- Node8 -->
<g id="node8" class="node">
<title>Node8</title>
<g id="a_node8"><a xlink:title=" ">
<polygon fill="white" stroke="#bfbfbf" points="330,-112.5 330,-131.5 386,-131.5 386,-112.5 330,-112.5"/>
<text text-anchor="middle" x="358" y="-119.5" font-family="Helvetica,sans-Serif" font-size="10.00">stddef.h</text>
</a>
</g>
</g>
<!-- Node2&#45;&gt;Node8 -->
<g id="edge7" class="edge">
<title>Node2&#45;&gt;Node8</title>
<path fill="none" stroke="midnightblue" d="M405,-168.32C396.81,-160.42 384.49,-148.55 374.53,-138.94"/>
<polygon fill="midnightblue" stroke="midnightblue" points="376.79,-136.26 367.16,-131.83 371.93,-141.29 376.79,-136.26"/>
</g>
<!-- Node9 -->
<g id="node9" class="node">
<title>Node9</title>
<g id="a_node9"><a xlink:title=" ">
<polygon fill="white" stroke="#bfbfbf" points="152,-112.5 152,-131.5 226,-131.5 226,-112.5 152,-112.5"/>
<text text-anchor="middle" x="189" y="-119.5" font-family="Helvetica,sans-Serif" font-size="10.00">sys/select.h</text>
</a>
</g>
</g>
<!-- Node2&#45;&gt;Node9 -->
<g id="edge8" class="edge">
<title>Node2&#45;&gt;Node9</title>
<path fill="none" stroke="midnightblue" d="M378.35,-168.44C339.34,-159.08 276.73,-144.06 234.28,-133.87"/>
<polygon fill="midnightblue" stroke="midnightblue" points="235.03,-130.45 224.49,-131.52 233.39,-137.25 235.03,-130.45"/>
</g>
<!-- Node10 -->
<g id="node10" class="node">
<title>Node10</title>
<g id="a_node10"><a xlink:title=" ">
<polygon fill="white" stroke="#bfbfbf" points="244,-112.5 244,-131.5 312,-131.5 312,-112.5 244,-112.5"/>
<text text-anchor="middle" x="278" y="-119.5" font-family="Helvetica,sans-Serif" font-size="10.00">sys/time.h</text>
</a>
</g>
</g>
<!-- Node2&#45;&gt;Node10 -->
<g id="edge9" class="edge">
<title>Node2&#45;&gt;Node10</title>
<path fill="none" stroke="midnightblue" d="M392.45,-168.44C369.97,-159.52 334.51,-145.44 309.02,-135.32"/>
<polygon fill="midnightblue" stroke="midnightblue" points="310.03,-131.95 299.45,-131.52 307.45,-138.46 310.03,-131.95"/>
</g>
<!-- Node11&#45;&gt;Node4 -->
<g id="edge12" class="edge">
<title>Node11&#45;&gt;Node4</title>
<path fill="none" stroke="midnightblue" d="M906.98,-224.43C951.57,-205.06 1057.6,-157.62 1087,-132 1115.63,-107.06 1139.04,-91.66 1126,-56 1121.94,-44.91 1113.81,-34.67 1106.11,-26.76"/>
<polygon fill="midnightblue" stroke="midnightblue" points="1108.36,-24.07 1098.71,-19.7 1103.53,-29.14 1108.36,-24.07"/>
</g>
<!-- Node11&#45;&gt;Node6 -->
<g id="edge40" class="edge">
<title>Node11&#45;&gt;Node6</title>
<path fill="none" stroke="midnightblue" d="M832.92,-226.91C780.53,-219.99 705.89,-207.12 684,-188 656.89,-164.32 671.12,-144.67 656,-112 654.03,-107.75 624.82,-56.32 609,-28.54"/>
<polygon fill="midnightblue" stroke="midnightblue" points="612.02,-26.78 604.03,-19.82 605.94,-30.24 612.02,-26.78"/>
</g>
<!-- Node11&#45;&gt;Node12 -->
<g id="edge13" class="edge">
<title>Node11&#45;&gt;Node12</title>
<path fill="none" stroke="midnightblue" d="M904.83,-224.44C919.85,-216.56 941.2,-203.72 956,-188 968.91,-174.29 979.07,-155.25 985.45,-141.32"/>
<polygon fill="midnightblue" stroke="midnightblue" points="988.79,-142.41 989.57,-131.84 982.37,-139.61 988.79,-142.41"/>
</g>
<!-- Node22 -->
<g id="node22" class="node">
<title>Node22</title>
<g id="a_node22"><a xlink:href="pkgrecords_8h_source.xhtml" target="_top" xlink:title=" ">
<polygon fill="white" stroke="black" points="827,-168.5 827,-187.5 947,-187.5 947,-168.5 827,-168.5"/>
<text text-anchor="middle" x="887" y="-175.5" font-family="Helvetica,sans-Serif" font-size="10.00">apt&#45;pkg/pkgrecords.h</text>
</a>
</g>
</g>
<!-- Node11&#45;&gt;Node22 -->
<g id="edge28" class="edge">
<title>Node11&#45;&gt;Node22</title>
<path fill="none" stroke="midnightblue" d="M887,-224.08C887,-217.01 887,-206.86 887,-197.99"/>
<polygon fill="midnightblue" stroke="midnightblue" points="890.5,-197.75 887,-187.75 883.5,-197.75 890.5,-197.75"/>
</g>
<!-- Node23 -->
<g id="node23" class="node">
<title>Node23</title>
<g id="a_node23"><a xlink:href="srcrecords_8h_source.xhtml" target="_top" xlink:title=" ">
<polygon fill="white" stroke="black" points="693,-168.5 693,-187.5 809,-187.5 809,-168.5 693,-168.5"/>
<text text-anchor="middle" x="751" y="-175.5" font-family="Helvetica,sans-Serif" font-size="10.00">apt&#45;pkg/srcrecords.h</text>
</a>
</g>
</g>
<!-- Node11&#45;&gt;Node23 -->
<g id="edge34" class="edge">
<title>Node11&#45;&gt;Node23</title>
<path fill="none" stroke="midnightblue" d="M865.45,-224.44C842.97,-215.52 807.51,-201.44 782.02,-191.32"/>
<polygon fill="midnightblue" stroke="midnightblue" points="783.03,-187.95 772.45,-187.52 780.45,-194.46 783.03,-187.95"/>
</g>
<!-- Node11&#45;&gt;Node24 -->
<g id="edge39" class="edge">
<title>Node11&#45;&gt;Node24</title>
<path fill="none" stroke="midnightblue" d="M914.41,-224.44C946.22,-214.51 998.45,-198.21 1030.95,-188.07"/>
<polygon fill="midnightblue" stroke="midnightblue" points="1032.25,-191.33 1040.75,-185.01 1030.16,-184.65 1032.25,-191.33"/>
</g>
<!-- Node12&#45;&gt;Node4 -->
<g id="edge14" class="edge">
<title>Node12&#45;&gt;Node4</title>
<path fill="none" stroke="midnightblue" d="M1039.36,-112.47C1060.07,-106.1 1082.58,-95.05 1095,-76 1103.99,-62.21 1100.55,-43.18 1095.87,-29.28"/>
<polygon fill="midnightblue" stroke="midnightblue" points="1099.09,-27.9 1092.24,-19.82 1092.56,-30.41 1099.09,-27.9"/>
</g>
<!-- Node12&#45;&gt;Node6 -->
<g id="edge17" class="edge">
<title>Node12&#45;&gt;Node6</title>
<path fill="none" stroke="midnightblue" d="M937.87,-112.47C892.36,-104.81 826.35,-92.28 770,-76 718.76,-61.2 661.17,-37.85 627.6,-23.53"/>
<polygon fill="midnightblue" stroke="midnightblue" points="628.96,-20.31 618.39,-19.57 626.2,-26.74 628.96,-20.31"/>
</g>
<!-- Node13 -->
<g id="node13" class="node">
<title>Node13</title>
<g id="a_node13"><a xlink:title=" ">
<polygon fill="white" stroke="#bfbfbf" points="779,-56.5 779,-75.5 877,-75.5 877,-56.5 779,-56.5"/>
<text text-anchor="middle" x="828" y="-63.5" font-family="Helvetica,sans-Serif" font-size="10.00">apt&#45;pkg/mmap.h</text>
</a>
</g>
</g>
<!-- Node12&#45;&gt;Node13 -->
<g id="edge15" class="edge">
<title>Node12&#45;&gt;Node13</title>
<path fill="none" stroke="midnightblue" d="M966.86,-112.44C938.98,-103.32 894.65,-88.81 863.6,-78.65"/>
<polygon fill="midnightblue" stroke="midnightblue" points="864.62,-75.3 854.02,-75.52 862.44,-81.95 864.62,-75.3"/>
</g>
<!-- Node14 -->
<g id="node14" class="node">
<title>Node14</title>
<g id="a_node14"><a xlink:title=" ">
<polygon fill="white" stroke="#bfbfbf" points="895.5,-56.5 895.5,-75.5 948.5,-75.5 948.5,-56.5 895.5,-56.5"/>
<text text-anchor="middle" x="922" y="-63.5" font-family="Helvetica,sans-Serif" font-size="10.00">cstddef</text>
</a>
</g>
</g>
<!-- Node12&#45;&gt;Node14 -->
<g id="edge16" class="edge">
<title>Node12&#45;&gt;Node14</title>
<path fill="none" stroke="midnightblue" d="M981.59,-112.32C970.89,-104.18 954.66,-91.84 941.84,-82.09"/>
<polygon fill="midnightblue" stroke="midnightblue" points="943.69,-79.1 933.61,-75.83 939.46,-84.67 943.69,-79.1"/>
</g>
<!-- Node15 -->
<g id="node15" class="node">
<title>Node15</title>
<g id="a_node15"><a xlink:title=" ">
<polygon fill="white" stroke="#bfbfbf" points="966.5,-56.5 966.5,-75.5 1019.5,-75.5 1019.5,-56.5 966.5,-56.5"/>
<text text-anchor="middle" x="993" y="-63.5" font-family="Helvetica,sans-Serif" font-size="10.00">stdint.h</text>
</a>
</g>
</g>
<!-- Node12&#45;&gt;Node15 -->
<g id="edge18" class="edge">
<title>Node12&#45;&gt;Node15</title>
<path fill="none" stroke="midnightblue" d="M993,-112.08C993,-105.01 993,-94.86 993,-85.99"/>
<polygon fill="midnightblue" stroke="midnightblue" points="996.5,-85.75 993,-75.75 989.5,-85.75 996.5,-85.75"/>
</g>
<!-- Node16 -->
<g id="node16" class="node">
<title>Node16</title>
<g id="a_node16"><a xlink:title=" ">
<polygon fill="white" stroke="#bfbfbf" points="1038,-56.5 1038,-75.5 1086,-75.5 1086,-56.5 1038,-56.5"/>
<text text-anchor="middle" x="1062" y="-63.5" font-family="Helvetica,sans-Serif" font-size="10.00">time.h</text>
</a>
</g>
</g>
<!-- Node12&#45;&gt;Node16 -->
<g id="edge19" class="edge">
<title>Node12&#45;&gt;Node16</title>
<path fill="none" stroke="midnightblue" d="M1004.09,-112.32C1014.49,-104.18 1030.26,-91.84 1042.72,-82.09"/>
<polygon fill="midnightblue" stroke="midnightblue" points="1044.99,-84.75 1050.71,-75.83 1040.68,-79.24 1044.99,-84.75"/>
</g>
<!-- Node17 -->
<g id="node17" class="node">
<title>Node17</title>
<g id="a_node17"><a xlink:title=" ">
<polygon fill="white" stroke="#bfbfbf" points="1157,-0.5 1157,-19.5 1279,-19.5 1279,-0.5 1157,-0.5"/>
<text text-anchor="middle" x="1218" y="-7.5" font-family="Helvetica,sans-Serif" font-size="10.00">apt&#45;pkg/string_view.h</text>
</a>
</g>
</g>
<!-- Node12&#45;&gt;Node17 -->
<g id="edge20" class="edge">
<title>Node12&#45;&gt;Node17</title>
<path fill="none" stroke="midnightblue" d="M1019.35,-112.49C1043.66,-104.28 1080.48,-90.94 1111,-76 1142.12,-60.77 1175.97,-39.3 1197.09,-25.27"/>
<polygon fill="midnightblue" stroke="midnightblue" points="1199.22,-28.06 1205.58,-19.58 1195.32,-22.24 1199.22,-28.06"/>
</g>
<!-- Node18 -->
<g id="node18" class="node">
<title>Node18</title>
<g id="a_node18"><a xlink:href="cacheiterators_8h_source.xhtml" target="_top" xlink:title=" ">
<polygon fill="white" stroke="black" points="1256,-56.5 1256,-75.5 1392,-75.5 1392,-56.5 1256,-56.5"/>
<text text-anchor="middle" x="1324" y="-63.5" font-family="Helvetica,sans-Serif" font-size="10.00">apt&#45;pkg/cacheiterators.h</text>
</a>
</g>
</g>
<!-- Node12&#45;&gt;Node18 -->
<g id="edge21" class="edge">
<title>Node12&#45;&gt;Node18</title>
<path fill="none" stroke="midnightblue" d="M1045.45,-112.44C1104.16,-102.87 1199.23,-87.36 1261.68,-77.17"/>
<polygon fill="midnightblue" stroke="midnightblue" points="1262.49,-80.58 1271.8,-75.52 1261.36,-73.67 1262.49,-80.58"/>
</g>
<!-- Node18&#45;&gt;Node4 -->
<g id="edge22" class="edge">
<title>Node18&#45;&gt;Node4</title>
<path fill="none" stroke="midnightblue" d="M1286.61,-56.44C1245.61,-47.06 1179.75,-31.99 1135.22,-21.8"/>
<polygon fill="midnightblue" stroke="midnightblue" points="1135.75,-18.34 1125.22,-19.52 1134.19,-25.16 1135.75,-18.34"/>
</g>
<!-- Node18&#45;&gt;Node6 -->
<g id="edge25" class="edge">
<title>Node18&#45;&gt;Node6</title>
<path fill="none" stroke="midnightblue" d="M1255.79,-59.92C1103.65,-48.59 741.25,-21.6 631.23,-13.4"/>
<polygon fill="midnightblue" stroke="midnightblue" points="631.32,-9.9 621.09,-12.65 630.8,-16.88 631.32,-9.9"/>
</g>
<!-- Node18&#45;&gt;Node17 -->
<g id="edge26" class="edge">
<title>Node18&#45;&gt;Node17</title>
<path fill="none" stroke="midnightblue" d="M1306.97,-56.32C1289.97,-47.66 1263.62,-34.24 1244.01,-24.25"/>
<polygon fill="midnightblue" stroke="midnightblue" points="1245.49,-21.08 1234.99,-19.65 1242.31,-27.31 1245.49,-21.08"/>
</g>
<!-- Node19 -->
<g id="node19" class="node">
<title>Node19</title>
<g id="a_node19"><a xlink:title=" ">
<polygon fill="white" stroke="#bfbfbf" points="1440,-0.5 1440,-19.5 1488,-19.5 1488,-0.5 1440,-0.5"/>
<text text-anchor="middle" x="1464" y="-7.5" font-family="Helvetica,sans-Serif" font-size="10.00">iosfwd</text>
</a>
</g>
</g>
<!-- Node18&#45;&gt;Node19 -->
<g id="edge23" class="edge">
<title>Node18&#45;&gt;Node19</title>
<path fill="none" stroke="midnightblue" d="M1346.18,-56.44C1369.43,-47.48 1406.15,-33.31 1432.42,-23.18"/>
<polygon fill="midnightblue" stroke="midnightblue" points="1433.85,-26.38 1441.92,-19.52 1431.33,-19.85 1433.85,-26.38"/>
</g>
<!-- Node20 -->
<g id="node20" class="node">
<title>Node20</title>
<g id="a_node20"><a xlink:title=" ">
<polygon fill="white" stroke="#bfbfbf" points="1297.5,-0.5 1297.5,-19.5 1350.5,-19.5 1350.5,-0.5 1297.5,-0.5"/>
<text text-anchor="middle" x="1324" y="-7.5" font-family="Helvetica,sans-Serif" font-size="10.00">iterator</text>
</a>
</g>
</g>
<!-- Node18&#45;&gt;Node20 -->
<g id="edge24" class="edge">
<title>Node18&#45;&gt;Node20</title>
<path fill="none" stroke="midnightblue" d="M1324,-56.08C1324,-49.01 1324,-38.86 1324,-29.99"/>
<polygon fill="midnightblue" stroke="midnightblue" points="1327.5,-29.75 1324,-19.75 1320.5,-29.75 1327.5,-29.75"/>
</g>
<!-- Node21 -->
<g id="node21" class="node">
<title>Node21</title>
<g id="a_node21"><a xlink:title=" ">
<polygon fill="white" stroke="#bfbfbf" points="1368.5,-0.5 1368.5,-19.5 1421.5,-19.5 1421.5,-0.5 1368.5,-0.5"/>
<text text-anchor="middle" x="1395" y="-7.5" font-family="Helvetica,sans-Serif" font-size="10.00">string.h</text>
</a>
</g>
</g>
<!-- Node18&#45;&gt;Node21 -->
<g id="edge27" class="edge">
<title>Node18&#45;&gt;Node21</title>
<path fill="none" stroke="midnightblue" d="M1335.41,-56.32C1346.11,-48.18 1362.34,-35.84 1375.16,-26.09"/>
<polygon fill="midnightblue" stroke="midnightblue" points="1377.54,-28.67 1383.39,-19.83 1373.31,-23.1 1377.54,-28.67"/>
</g>
<!-- Node22&#45;&gt;Node3 -->
<g id="edge29" class="edge">
<title>Node22&#45;&gt;Node3</title>
<path fill="none" stroke="midnightblue" d="M830.59,-168.44C765.41,-158.56 658.57,-142.35 591.65,-132.2"/>
<polygon fill="midnightblue" stroke="midnightblue" points="592.08,-128.73 581.67,-130.69 591.03,-135.65 592.08,-128.73"/>
</g>
<!-- Node22&#45;&gt;Node4 -->
<g id="edge30" class="edge">
<title>Node22&#45;&gt;Node4</title>
<path fill="none" stroke="midnightblue" d="M947.17,-169.79C981.76,-163.62 1024.96,-152.36 1059,-132 1088.15,-114.56 1098.59,-107.61 1111,-76 1117.27,-60.04 1109.32,-41.59 1101.1,-28.44"/>
<polygon fill="midnightblue" stroke="midnightblue" points="1103.81,-26.18 1095.27,-19.9 1098.03,-30.13 1103.81,-26.18"/>
</g>
<!-- Node22&#45;&gt;Node6 -->
<g id="edge32" class="edge">
<title>Node22&#45;&gt;Node6</title>
<path fill="none" stroke="midnightblue" d="M871.61,-168.48C840.54,-151.24 768.18,-110.92 708,-76 677.98,-58.59 643.64,-38 621.66,-24.73"/>
<polygon fill="midnightblue" stroke="midnightblue" points="623.41,-21.7 613.05,-19.52 619.79,-27.69 623.41,-21.7"/>
</g>
<!-- Node22&#45;&gt;Node7 -->
<g id="edge33" class="edge">
<title>Node22&#45;&gt;Node7</title>
<path fill="none" stroke="midnightblue" d="M845.17,-168.44C792.88,-157.75 704.44,-139.66 656.43,-129.84"/>
<polygon fill="midnightblue" stroke="midnightblue" points="657.04,-126.39 646.55,-127.82 655.64,-133.25 657.04,-126.39"/>
</g>
<!-- Node22&#45;&gt;Node12 -->
<g id="edge31" class="edge">
<title>Node22&#45;&gt;Node12</title>
<path fill="none" stroke="midnightblue" d="M904.03,-168.32C921.03,-159.66 947.38,-146.24 966.99,-136.25"/>
<polygon fill="midnightblue" stroke="midnightblue" points="968.69,-139.31 976.01,-131.65 965.51,-133.08 968.69,-139.31"/>
</g>
<!-- Node23&#45;&gt;Node3 -->
<g id="edge35" class="edge">
<title>Node23&#45;&gt;Node3</title>
<path fill="none" stroke="midnightblue" d="M716.14,-168.44C678.08,-159.1 617.04,-144.12 575.54,-133.93"/>
<polygon fill="midnightblue" stroke="midnightblue" points="576.24,-130.5 565.7,-131.52 574.57,-137.3 576.24,-130.5"/>
</g>
<!-- Node23&#45;&gt;Node4 -->
<g id="edge36" class="edge">
<title>Node23&#45;&gt;Node4</title>
<path fill="none" stroke="midnightblue" d="M749.32,-168.47C745.51,-146.36 738.79,-86.74 770,-56 805.29,-21.25 944.74,-13.06 1026.79,-11.3"/>
<polygon fill="midnightblue" stroke="midnightblue" points="1027.06,-14.79 1036.99,-11.11 1026.93,-7.8 1027.06,-14.79"/>
</g>
<!-- Node23&#45;&gt;Node6 -->
<g id="edge37" class="edge">
<title>Node23&#45;&gt;Node6</title>
<path fill="none" stroke="midnightblue" d="M742.83,-168.08C718.38,-141.38 645.58,-61.87 613.95,-27.32"/>
<polygon fill="midnightblue" stroke="midnightblue" points="616.18,-24.58 606.85,-19.57 611.02,-29.31 616.18,-24.58"/>
</g>
<!-- Node23&#45;&gt;Node7 -->
<g id="edge38" class="edge">
<title>Node23&#45;&gt;Node7</title>
<path fill="none" stroke="midnightblue" d="M730.72,-168.44C709.65,-159.56 676.48,-145.56 652.51,-135.45"/>
<polygon fill="midnightblue" stroke="midnightblue" points="653.76,-132.18 643.19,-131.52 651.04,-138.63 653.76,-132.18"/>
</g>
</g>
</svg>
        <g id="navigator" transform="translate(0 0)" fill="#404254">
                <rect fill="#f2f5e9" fill-opacity="0.5" stroke="#606060" stroke-width=".5" x="0" y="0" width="60" height="60"/>
                <use id="zoomplus" xlink:href="#zoomPlus" x="17" y="9" onmousedown="handleZoom(evt,'in')"/>
                <use id="zoomminus" xlink:href="#zoomMin" x="42" y="9" onmousedown="handleZoom(evt,'out')"/>
                <use id="reset" xlink:href="#resetDef" x="30" y="36" onmousedown="handleReset()"/>
                <g id="arrowUp" xlink:href="#dirArrow" transform="translate(30 24)" onmousedown="handlePan(0,-1)">
                  <use xlink:href="#rim" fill="#404040">
                        <set attributeName="fill" to="#808080" begin="arrowUp.mouseover" end="arrowUp.mouseout"/>
                  </use>
                  <path fill="none" stroke="white" stroke-width="1.5" d="M0,-3.0v7 M-2.5,-0.5L0,-3.0L2.5,-0.5"/>
                </g>
                <g id="arrowRight" xlink:href="#dirArrow" transform="rotate(90) translate(36 -43)" onmousedown="handlePan(1,0)">
                  <use xlink:href="#rim" fill="#404040">
                        <set attributeName="fill" to="#808080" begin="arrowRight.mouseover" end="arrowRight.mouseout"/>
                  </use>
                  <path fill="none" stroke="white" stroke-width="1.5" d="M0,-3.0v7 M-2.5,-0.5L0,-3.0L2.5,-0.5"/>
                </g>
                <g id="arrowDown" xlink:href="#dirArrow" transform="rotate(180) translate(-30 -48)" onmousedown="handlePan(0,1)">
                  <use xlink:href="#rim" fill="#404040">
                        <set attributeName="fill" to="#808080" begin="arrowDown.mouseover" end="arrowDown.mouseout"/>
                  </use>
                  <path fill="none" stroke="white" stroke-width="1.5" d="M0,-3.0v7 M-2.5,-0.5L0,-3.0L2.5,-0.5"/>
                </g>
                <g id="arrowLeft" xlink:href="#dirArrow" transform="rotate(270) translate(-36 17)" onmousedown="handlePan(-1,0)">
                  <use xlink:href="#rim" fill="#404040">
                        <set attributeName="fill" to="#808080" begin="arrowLeft.mouseover" end="arrowLeft.mouseout"/>
                  </use>
                  <path fill="none" stroke="white" stroke-width="1.5" d="M0,-3.0v7 M-2.5,-0.5L0,-3.0L2.5,-0.5"/>
                </g>
        </g>
        <svg viewBox="0 0 15 15" width="100%" height="30px" preserveAspectRatio="xMaxYMin meet">
         <g id="arrow_out" transform="scale(0.3 0.3)">
          <a xlink:href="acquire-item_8h__incl_org.svg" target="_base">
           <rect id="button" ry="5" rx="5" y="6" x="6" height="38" width="38"
                fill="#f2f5e9" fill-opacity="0.5" stroke="#606060" stroke-width="1.0"/>
           <path id="arrow"
             d="M 11.500037,31.436501 C 11.940474,20.09759 22.043105,11.32322 32.158766,21.979434 L 37.068811,17.246167 C 37.068811,17.246167 37.088388,32 37.088388,32 L 22.160133,31.978069 C 22.160133,31.978069 26.997745,27.140456 26.997745,27.140456 C 18.528582,18.264221 13.291696,25.230495 11.500037,31.436501 z"
             style="fill:#404040;"/>
          </a>
         </g>
        </svg>
</svg>
