<svg xmlns="http://www.w3.org/2000/svg" xmlns:xlink="http://www.w3.org/1999/xlink" width="733pt" height="140pt" viewBox="0 0 733 140"><g id="graph0" class="graph" transform="scale(1 1) rotate(0) translate(4 136)"><title>apt-pkg/acquire-worker.h</title><polygon fill="#fff" stroke="transparent" points="-4 4 -4 -136 729 -136 729 4 -4 4"/><g id="node1" class="node"><title>Node1</title><g id="a_node1"><a><polygon fill="#bfbfbf" stroke="#000" points="253.5 -112.5 253.5 -131.5 391.5 -131.5 391.5 -112.5 253.5 -112.5"/><text x="322.5" y="-119.5" font-family="Helvetica,sans-Serif" font-size="10" text-anchor="middle">apt-pkg/acquire-worker.h</text></a></g></g><g id="node2" class="node"><title>Node2</title><g id="a_node2"><a target="_top" xlink:href="acquire_8h.xhtml"><polygon fill="#fff" stroke="#000" points="271.5 -56.5 271.5 -75.5 373.5 -75.5 373.5 -56.5 271.5 -56.5"/><text x="322.5" y="-63.5" font-family="Helvetica,sans-Serif" font-size="10" text-anchor="middle">apt-pkg/acquire.h</text></a></g></g><g id="edge1" class="edge"><title>Node1-&gt;Node2</title><path fill="none" stroke="#191970" d="M322.5,-112.08C322.5,-105.01 322.5,-94.86 322.5,-85.99"/><polygon fill="#191970" stroke="#191970" points="326 -85.75 322.5 -75.75 319 -85.75 326 -85.75"/></g><g id="node5" class="node"><title>Node5</title><g id="a_node5"><a><polygon fill="#fff" stroke="#bfbfbf" points="0 -.5 0 -19.5 105 -19.5 105 -.5 0 -.5"/><text x="52.5" y="-7.5" font-family="Helvetica,sans-Serif" font-size="10" text-anchor="middle">apt-pkg/weakptr.h</text></a></g></g><g id="edge10" class="edge"><title>Node1-&gt;Node5</title><path fill="none" stroke="#191970" d="M301.31,-112.37C253.7,-92.97 138.09,-45.87 82.86,-23.37"/><polygon fill="#191970" stroke="#191970" points="84.17 -20.12 73.59 -19.59 81.53 -26.61 84.17 -20.12"/></g><g id="node6" class="node"><title>Node6</title><g id="a_node6"><a><polygon fill="#fff" stroke="#bfbfbf" points="123.5 -.5 123.5 -19.5 167.5 -19.5 167.5 -.5 123.5 -.5"/><text x="145.5" y="-7.5" font-family="Helvetica,sans-Serif" font-size="10" text-anchor="middle">string</text></a></g></g><g id="edge11" class="edge"><title>Node1-&gt;Node6</title><path fill="none" stroke="#191970" d="M308.61,-112.37C278.11,-93.41 205.04,-48 167.93,-24.94"/><polygon fill="#191970" stroke="#191970" points="169.67 -21.9 159.32 -19.59 165.97 -27.84 169.67 -21.9"/></g><g id="node7" class="node"><title>Node7</title><g id="a_node7"><a><polygon fill="#fff" stroke="#bfbfbf" points="678 -.5 678 -19.5 725 -19.5 725 -.5 678 -.5"/><text x="701.5" y="-7.5" font-family="Helvetica,sans-Serif" font-size="10" text-anchor="middle">vector</text></a></g></g><g id="edge12" class="edge"><title>Node1-&gt;Node7</title><path fill="none" stroke="#191970" d="M334.04,-112.41C355.74,-96.4 402.1,-63.03 420.5,-56 521.6,-17.38 557.43,-41.25 667.93,-19.83"/><polygon fill="#191970" stroke="#191970" points="668.68 -23.25 677.79 -17.84 667.3 -16.39 668.68 -23.25"/></g><g id="node11" class="node"><title>Node11</title><g id="a_node11"><a><polygon fill="#fff" stroke="#bfbfbf" points="429.5 -56.5 429.5 -75.5 501.5 -75.5 501.5 -56.5 429.5 -56.5"/><text x="465.5" y="-63.5" font-family="Helvetica,sans-Serif" font-size="10" text-anchor="middle">sys/types.h</text></a></g></g><g id="edge13" class="edge"><title>Node1-&gt;Node11</title><path fill="none" stroke="#191970" d="M345.16,-112.44C368.9,-103.48 406.41,-89.31 433.24,-79.18"/><polygon fill="#191970" stroke="#191970" points="434.83 -82.32 442.95 -75.52 432.36 -75.77 434.83 -82.32"/></g><g id="node3" class="node"><title>Node3</title><g id="a_node3"><a><polygon fill="#fff" stroke="#bfbfbf" points="272 -.5 272 -19.5 373 -19.5 373 -.5 272 -.5"/><text x="322.5" y="-7.5" font-family="Helvetica,sans-Serif" font-size="10" text-anchor="middle">apt-pkg/hashes.h</text></a></g></g><g id="edge2" class="edge"><title>Node2-&gt;Node3</title><path fill="none" stroke="#191970" d="M322.5,-56.08C322.5,-49.01 322.5,-38.86 322.5,-29.99"/><polygon fill="#191970" stroke="#191970" points="326 -29.75 322.5 -19.75 319 -29.75 326 -29.75"/></g><g id="node4" class="node"><title>Node4</title><g id="a_node4"><a><polygon fill="#fff" stroke="#bfbfbf" points="391.5 -.5 391.5 -19.5 493.5 -19.5 493.5 -.5 391.5 -.5"/><text x="442.5" y="-7.5" font-family="Helvetica,sans-Serif" font-size="10" text-anchor="middle">apt-pkg/macros.h</text></a></g></g><g id="edge3" class="edge"><title>Node2-&gt;Node4</title><path fill="none" stroke="#191970" d="M341.51,-56.44C361.09,-47.64 391.81,-33.81 414.23,-23.72"/><polygon fill="#191970" stroke="#191970" points="415.89 -26.81 423.57 -19.52 413.02 -20.43 415.89 -26.81"/></g><g id="edge4" class="edge"><title>Node2-&gt;Node5</title><path fill="none" stroke="#191970" d="M279.72,-56.44C232.32,-46.96 155.87,-31.67 104.92,-21.48"/><polygon fill="#191970" stroke="#191970" points="105.57 -18.05 95.08 -19.52 104.2 -24.91 105.57 -18.05"/></g><g id="edge5" class="edge"><title>Node2-&gt;Node6</title><path fill="none" stroke="#191970" d="M294.45,-56.44C262.56,-46.71 210.61,-30.86 177.26,-20.69"/><polygon fill="#191970" stroke="#191970" points="178.13 -17.3 167.54 -17.73 176.09 -23.99 178.13 -17.3"/></g><g id="edge6" class="edge"><title>Node2-&gt;Node7</title><path fill="none" stroke="#191970" d="M373.59,-57.88C378.29,-57.24 382.98,-56.6 387.5,-56 509.14,-39.79 543.3,-44.37 667.88,-19.86"/><polygon fill="#191970" stroke="#191970" points="668.68 -23.27 677.8 -17.89 667.31 -16.41 668.68 -23.27"/></g><g id="node8" class="node"><title>Node8</title><g id="a_node8"><a><polygon fill="#fff" stroke="#bfbfbf" points="511.5 -.5 511.5 -19.5 567.5 -19.5 567.5 -.5 511.5 -.5"/><text x="539.5" y="-7.5" font-family="Helvetica,sans-Serif" font-size="10" text-anchor="middle">stddef.h</text></a></g></g><g id="edge7" class="edge"><title>Node2-&gt;Node8</title><path fill="none" stroke="#191970" d="M356.88,-56.44C396.33,-46.63 460.8,-30.59 501.64,-20.42"/><polygon fill="#191970" stroke="#191970" points="502.63 -23.78 511.49 -17.97 500.94 -16.99 502.63 -23.78"/></g><g id="node9" class="node"><title>Node9</title><g id="a_node9"><a><polygon fill="#fff" stroke="#bfbfbf" points="585.5 -.5 585.5 -19.5 659.5 -19.5 659.5 -.5 585.5 -.5"/><text x="622.5" y="-7.5" font-family="Helvetica,sans-Serif" font-size="10" text-anchor="middle">sys/select.h</text></a></g></g><g id="edge8" class="edge"><title>Node2-&gt;Node9</title><path fill="none" stroke="#191970" d="M372.19,-56.47C421.23,-47.98 498.61,-34.44 575.06,-20.24"/><polygon fill="#191970" stroke="#191970" points="576.16 -23.6 585.35 -18.33 574.88 -16.72 576.16 -23.6"/></g><g id="node10" class="node"><title>Node10</title><g id="a_node10"><a><polygon fill="#fff" stroke="#bfbfbf" points="185.5 -.5 185.5 -19.5 253.5 -19.5 253.5 -.5 185.5 -.5"/><text x="219.5" y="-7.5" font-family="Helvetica,sans-Serif" font-size="10" text-anchor="middle">sys/time.h</text></a></g></g><g id="edge9" class="edge"><title>Node2-&gt;Node10</title><path fill="none" stroke="#191970" d="M305.95,-56.32C289.51,-47.7 264.07,-34.36 245.03,-24.39"/><polygon fill="#191970" stroke="#191970" points="246.49 -21.2 236.01 -19.65 243.24 -27.4 246.49 -21.2"/></g></g></svg>