<svg xmlns="http://www.w3.org/2000/svg" xmlns:xlink="http://www.w3.org/1999/xlink" width="734pt" height="112" viewBox="0 0 733.5 84"><g id="graph0" class="graph" transform="scale(1 1) rotate(0) translate(4 80)"><title>apt-pkg/acquire.h</title><polygon fill="#fff" stroke="transparent" points="-4 4 -4 -80 729.5 -80 729.5 4 -4 4"/><g id="node1" class="node"><title>Node1</title><g id="a_node1"><a><polygon fill="#bfbfbf" stroke="#000" points="366.5 -56.5 366.5 -75.5 468.5 -75.5 468.5 -56.5 366.5 -56.5"/><text x="417.5" y="-63.5" font-family="Helvetica,sans-Serif" font-size="10" text-anchor="middle">apt-pkg/acquire.h</text></a></g></g><g id="node2" class="node"><title>Node2</title><g id="a_node2"><a><polygon fill="#fff" stroke="#bfbfbf" points="0 -.5 0 -19.5 101 -19.5 101 -.5 0 -.5"/><text x="50.5" y="-7.5" font-family="Helvetica,sans-Serif" font-size="10" text-anchor="middle">apt-pkg/hashes.h</text></a></g></g><g id="edge1" class="edge"><title>Node1-&gt;Node2</title><path fill="none" stroke="#191970" d="M366.43,-57.57C307.52,-48.98 207.47,-34.36 111.15,-20.09"/><polygon fill="#191970" stroke="#191970" points="111.64 -16.63 101.24 -18.62 110.62 -23.55 111.64 -16.63"/></g><g id="node3" class="node"><title>Node3</title><g id="a_node3"><a><polygon fill="#fff" stroke="#bfbfbf" points="119.5 -.5 119.5 -19.5 221.5 -19.5 221.5 -.5 119.5 -.5"/><text x="170.5" y="-7.5" font-family="Helvetica,sans-Serif" font-size="10" text-anchor="middle">apt-pkg/macros.h</text></a></g></g><g id="edge2" class="edge"><title>Node1-&gt;Node3</title><path fill="none" stroke="#191970" d="M378.36,-56.44C335.27,-47.02 265.94,-31.87 219.33,-21.68"/><polygon fill="#191970" stroke="#191970" points="219.97 -18.23 209.45 -19.52 218.48 -25.07 219.97 -18.23"/></g><g id="node4" class="node"><title>Node4</title><g id="a_node4"><a><polygon fill="#fff" stroke="#bfbfbf" points="240 -.5 240 -19.5 345 -19.5 345 -.5 240 -.5"/><text x="292.5" y="-7.5" font-family="Helvetica,sans-Serif" font-size="10" text-anchor="middle">apt-pkg/weakptr.h</text></a></g></g><g id="edge3" class="edge"><title>Node1-&gt;Node4</title><path fill="none" stroke="#191970" d="M397.69,-56.44C377.21,-47.6 345.02,-33.69 321.64,-23.59"/><polygon fill="#191970" stroke="#191970" points="322.78 -20.27 312.21 -19.52 320.01 -26.7 322.78 -20.27"/></g><g id="node5" class="node"><title>Node5</title><g id="a_node5"><a><polygon fill="#fff" stroke="#bfbfbf" points="363.5 -.5 363.5 -19.5 407.5 -19.5 407.5 -.5 363.5 -.5"/><text x="385.5" y="-7.5" font-family="Helvetica,sans-Serif" font-size="10" text-anchor="middle">string</text></a></g></g><g id="edge4" class="edge"><title>Node1-&gt;Node5</title><path fill="none" stroke="#191970" d="M412.22,-56.08C407.79,-48.61 401.34,-37.72 395.88,-28.52"/><polygon fill="#191970" stroke="#191970" points="398.79 -26.57 390.69 -19.75 392.77 -30.14 398.79 -26.57"/></g><g id="node6" class="node"><title>Node6</title><g id="a_node6"><a><polygon fill="#fff" stroke="#bfbfbf" points="426 -.5 426 -19.5 473 -19.5 473 -.5 426 -.5"/><text x="449.5" y="-7.5" font-family="Helvetica,sans-Serif" font-size="10" text-anchor="middle">vector</text></a></g></g><g id="edge5" class="edge"><title>Node1-&gt;Node6</title><path fill="none" stroke="#191970" d="M422.78,-56.08C427.21,-48.61 433.66,-37.72 439.12,-28.52"/><polygon fill="#191970" stroke="#191970" points="442.23 -30.14 444.31 -19.75 436.21 -26.57 442.23 -30.14"/></g><g id="node7" class="node"><title>Node7</title><g id="a_node7"><a><polygon fill="#fff" stroke="#bfbfbf" points="491.5 -.5 491.5 -19.5 547.5 -19.5 547.5 -.5 491.5 -.5"/><text x="519.5" y="-7.5" font-family="Helvetica,sans-Serif" font-size="10" text-anchor="middle">stddef.h</text></a></g></g><g id="edge6" class="edge"><title>Node1-&gt;Node7</title><path fill="none" stroke="#191970" d="M433.89,-56.32C450.17,-47.7 475.37,-34.36 494.22,-24.39"/><polygon fill="#191970" stroke="#191970" points="495.95 -27.43 503.15 -19.65 492.68 -21.24 495.95 -27.43"/></g><g id="node8" class="node"><title>Node8</title><g id="a_node8"><a><polygon fill="#fff" stroke="#bfbfbf" points="565.5 -.5 565.5 -19.5 639.5 -19.5 639.5 -.5 565.5 -.5"/><text x="602.5" y="-7.5" font-family="Helvetica,sans-Serif" font-size="10" text-anchor="middle">sys/select.h</text></a></g></g><g id="edge7" class="edge"><title>Node1-&gt;Node8</title><path fill="none" stroke="#191970" d="M446.81,-56.44C478.34,-47.24 528.63,-32.56 563.49,-22.39"/><polygon fill="#191970" stroke="#191970" points="564.7 -25.68 573.32 -19.52 562.74 -18.96 564.7 -25.68"/></g><g id="node9" class="node"><title>Node9</title><g id="a_node9"><a><polygon fill="#fff" stroke="#bfbfbf" points="657.5 -.5 657.5 -19.5 725.5 -19.5 725.5 -.5 657.5 -.5"/><text x="691.5" y="-7.5" font-family="Helvetica,sans-Serif" font-size="10" text-anchor="middle">sys/time.h</text></a></g></g><g id="edge8" class="edge"><title>Node1-&gt;Node9</title><path fill="none" stroke="#191970" d="M462.25,-56.47C506.72,-47.96 577.14,-34.36 647.34,-20.21"/><polygon fill="#191970" stroke="#191970" points="648.13 -23.63 657.24 -18.22 646.75 -16.76 648.13 -23.63"/></g></g></svg>