<svg xmlns="http://www.w3.org/2000/svg" xmlns:xlink="http://www.w3.org/1999/xlink" width="254pt" height="95pt" viewBox="0 0 253.5 95"><g id="graph0" class="graph" transform="scale(1 1) rotate(0) translate(4 91)"><title>apt-pkg/cachefilter.h</title><polygon fill="#fff" stroke="transparent" points="-4 4 -4 -91 249.5 -91 249.5 4 -4 4"/><g id="node1" class="node"><title>Node1</title><g id="a_node1"><a><polygon fill="#bfbfbf" stroke="#000" points="67.5 -67.5 67.5 -86.5 183.5 -86.5 183.5 -67.5 67.5 -67.5"/><text x="125.5" y="-74.5" font-family="Helvetica,sans-Serif" font-size="10" text-anchor="middle">apt-pkg/cachefilter.h</text></a></g></g><g id="node2" class="node"><title>Node2</title><g id="a_node2"><a target="_top" xlink:href="algorithms_8h_source.xhtml"><polygon fill="#fff" stroke="#000" points="0 -6 0 -25 119 -25 119 -6 0 -6"/><text x="59.5" y="-13" font-family="Helvetica,sans-Serif" font-size="10" text-anchor="middle">apt-pkg/algorithms.h</text></a></g></g><g id="edge1" class="edge"><title>Node1-&gt;Node2</title><path fill="none" stroke="#191970" d="M108.47,-60.65C95.89,-49.31 79.22,-34.28 68.94,-25.01"/><polygon fill="#191970" stroke="#191970" points="106.27 -63.38 116.04 -67.48 110.96 -58.18 106.27 -63.38"/></g><g id="node3" class="node"><title>Node3</title><g id="a_node3"><a target="_top" xlink:href="cachefilter-patterns_8h_source.xhtml"><polygon fill="#fff" stroke="#000" points="137.5 -.5 137.5 -30.5 245.5 -30.5 245.5 -.5 137.5 -.5"/><text x="145.5" y="-18.5" font-family="Helvetica,sans-Serif" font-size="10" text-anchor="start">apt-pkg/cachefilter</text><text x="191.5" y="-7.5" font-family="Helvetica,sans-Serif" font-size="10" text-anchor="middle">-patterns.h</text></a></g></g><g id="edge2" class="edge"><title>Node1-&gt;Node3</title><path fill="none" stroke="#191970" d="M142.53,-60.65C152.85,-51.35 165.91,-39.57 175.95,-30.52"/><polygon fill="#191970" stroke="#191970" points="140.04 -58.18 134.96 -67.48 144.73 -63.38 140.04 -58.18"/></g></g></svg>