<svg xmlns="http://www.w3.org/2000/svg" xmlns:xlink="http://www.w3.org/1999/xlink" width="1284" height="713pt" viewBox="0 0 963 713"><g id="graph0" class="graph" transform="scale(1 1) rotate(0) translate(4 709)"><title>pkgAcqIndexMergeDiffs</title><polygon fill="#fff" stroke="transparent" points="-4 4 -4 -709 959 -709 959 4 -4 4"/><g id="node1" class="node"><title>Node1</title><g id="a_node1"><a xlink:title="An item that is responsible for fetching client-merge patches {{{ that need to be applied to a given ..."><polygon fill="#bfbfbf" stroke="#000" points="427.5 -136.5 427.5 -155.5 560.5 -155.5 560.5 -136.5 427.5 -136.5"/><text x="494" y="-143.5" font-family="Helvetica,sans-Serif" font-size="10" text-anchor="middle">pkgAcqIndexMergeDiffs</text></a></g></g><g id="node20" class="node"><title>Node20</title><g id="a_node20"><a><polygon fill="#fff" stroke="#bfbfbf" points="380 -57.5 380 -87.5 532 -87.5 532 -57.5 380 -57.5"/><text x="388" y="-75.5" font-family="Helvetica,sans-Serif" font-size="10" text-anchor="start">vector&lt; pkgAcqIndexMerge</text><text x="456" y="-64.5" font-family="Helvetica,sans-Serif" font-size="10" text-anchor="middle">Diffs * &gt;</text></a></g></g><g id="edge31" class="edge"><title>Node1-&gt;Node20</title><path fill="none" stroke="#9a32cd" stroke-dasharray="5 2" d="M495.31,-126.26C495.08,-119.58 493.99,-112.19 491,-106 487.61,-98.98 481.99,-92.73 476.24,-87.64"/><polygon fill="#9a32cd" stroke="#9a32cd" points="491.81 -126.4 495.07 -136.48 498.81 -126.56 491.81 -126.4"/><text x="518.5" y="-109" font-family="Helvetica,sans-Serif" font-size="10" text-anchor="middle">elements</text></g><g id="node2" class="node"><title>Node2</title><g id="a_node2"><a target="_top" xlink:href="classpkgAcqBaseIndex.xhtml" xlink:title="Common base class for all classes that deal with fetching indexes {{{."><polygon fill="#fff" stroke="#000" points="357 -210 357 -229 461 -229 461 -210 357 -210"/><text x="409" y="-217" font-family="Helvetica,sans-Serif" font-size="10" text-anchor="middle">pkgAcqBaseIndex</text></a></g></g><g id="edge1" class="edge"><title>Node2-&gt;Node1</title><path fill="none" stroke="#191970" d="M427.16,-203.22C444.42,-188.7 469.76,-167.39 483.76,-155.62"/><polygon fill="#191970" stroke="#191970" points="424.82 -200.62 419.42 -209.73 429.33 -205.97 424.82 -200.62"/></g><g id="node3" class="node"><title>Node3</title><g id="a_node3"><a target="_top" xlink:href="classpkgAcqTransactionItem.xhtml" xlink:title="baseclass for the indexes files to manage them all together"><polygon fill="#fff" stroke="#000" points="129.5 -282.5 129.5 -301.5 260.5 -301.5 260.5 -282.5 129.5 -282.5"/><text x="195" y="-289.5" font-family="Helvetica,sans-Serif" font-size="10" text-anchor="middle">pkgAcqTransactionItem</text></a></g></g><g id="edge2" class="edge"><title>Node3-&gt;Node2</title><path fill="none" stroke="#191970" d="M234.63,-279.54C250.36,-274.88 268.58,-269.34 285,-264 320.15,-252.57 360.47,-238.19 385.34,-229.16"/><polygon fill="#191970" stroke="#191970" points="233.3 -276.28 224.7 -282.46 235.28 -283 233.3 -276.28"/></g><g id="node11" class="node"><title>Node11</title><g id="a_node11"><a target="_top" xlink:href="classpkgAcqMetaBase.xhtml" xlink:title="the manager of a transaction"><polygon fill="#fff" stroke="#000" points="243.5 -136.5 243.5 -155.5 344.5 -155.5 344.5 -136.5 243.5 -136.5"/><text x="294" y="-143.5" font-family="Helvetica,sans-Serif" font-size="10" text-anchor="middle">pkgAcqMetaBase</text></a></g></g><g id="edge12" class="edge"><title>Node3-&gt;Node11</title><path fill="none" stroke="#191970" d="M185.27,-273.26C176.52,-254.66 166.88,-225.23 180,-204 196.11,-177.93 228.16,-163.38 254.18,-155.52"/><polygon fill="#191970" stroke="#191970" points="182.25 -275.03 189.9 -282.36 188.49 -271.86 182.25 -275.03"/></g><g id="node12" class="node"><title>Node12</title><g id="a_node12"><a><polygon fill="#fff" stroke="#bfbfbf" points="189 -204.5 189 -234.5 339 -234.5 339 -204.5 189 -204.5"/><text x="197" y="-222.5" font-family="Helvetica,sans-Serif" font-size="10" text-anchor="start">vector&lt; pkgAcqTransaction</text><text x="264" y="-211.5" font-family="Helvetica,sans-Serif" font-size="10" text-anchor="middle">Item * &gt;</text></a></g></g><g id="edge14" class="edge"><title>Node3-&gt;Node12</title><path fill="none" stroke="#9a32cd" stroke-dasharray="5 2" d="M210.57,-275.09C222.49,-262.91 238.77,-246.27 250.22,-234.58"/><polygon fill="#9a32cd" stroke="#9a32cd" points="207.95 -272.76 203.46 -282.36 212.96 -277.66 207.95 -272.76"/><text x="256.5" y="-256" font-family="Helvetica,sans-Serif" font-size="10" text-anchor="middle">elements</text></g><g id="node4" class="node"><title>Node4</title><g id="a_node4"><a><polygon fill="#fff" stroke="#bfbfbf" points="250.5 -355 250.5 -374 289.5 -374 289.5 -355 250.5 -355"/><text x="270" y="-362" font-family="Helvetica,sans-Serif" font-size="10" text-anchor="middle">Item</text></a></g></g><g id="edge3" class="edge"><title>Node4-&gt;Node3</title><path fill="none" stroke="#191970" d="M257.48,-346.88C250.7,-338.39 241.9,-328.15 233,-320 225.6,-313.22 216.46,-306.67 208.99,-301.72"/><polygon fill="#191970" stroke="#191970" points="254.84 -349.19 263.74 -354.94 260.37 -344.9 254.84 -349.19"/></g><g id="node5" class="node"><title>Node5</title><g id="a_node5"><a target="_top" xlink:href="classIndexTarget.xhtml" xlink:title="Information about an index file."><polygon fill="#fff" stroke="#000" points="158 -355 158 -374 232 -374 232 -355 158 -355"/><text x="195" y="-362" font-family="Helvetica,sans-Serif" font-size="10" text-anchor="middle">IndexTarget</text></a></g></g><g id="edge4" class="edge"><title>Node5-&gt;Node3</title><path fill="none" stroke="#9a32cd" stroke-dasharray="5 2" d="M195,-344.44C195,-330.53 195,-312.32 195,-301.72"/><polygon fill="#9a32cd" stroke="#9a32cd" points="191.5 -344.86 195 -354.86 198.5 -344.86 191.5 -344.86"/><text x="212" y="-323" font-family="Helvetica,sans-Serif" font-size="10" text-anchor="middle">Target</text></g><g id="node10" class="node"><title>Node10</title><g id="a_node10"><a target="_top" xlink:href="classpkgAcqMetaIndex.xhtml" xlink:title="An item that is responsible for downloading the meta-index {{{ file (i.e., Release) itself and verify..."><polygon fill="#fff" stroke="#000" points="196 -63 196 -82 300 -82 300 -63 196 -63"/><text x="248" y="-70" font-family="Helvetica,sans-Serif" font-size="10" text-anchor="middle">pkgAcqMetaIndex</text></a></g></g><g id="edge16" class="edge"><title>Node5-&gt;Node10</title><path fill="none" stroke="#9a32cd" stroke-dasharray="5 2" d="M147.85,-356.08C90.14,-345.65 0,-324.33 0,-293 0,-293 0,-293 0,-145 0,-104.62 122.95,-85.65 195.71,-77.97"/><polygon fill="#9a32cd" stroke="#9a32cd" points="147.41 -359.56 157.86 -357.85 148.62 -352.67 147.41 -359.56"/><text x="47.5" y="-217" font-family="Helvetica,sans-Serif" font-size="10" text-anchor="middle">DetachedSigTarget</text></g><g id="node6" class="node"><title>Node6</title><g id="a_node6"><a><polygon fill="#fff" stroke="#bfbfbf" points="150.5 -522 150.5 -552 269.5 -552 269.5 -522 150.5 -522"/><text x="158.5" y="-540" font-family="Helvetica,sans-Serif" font-size="10" text-anchor="start">map&lt; std::string, std</text><text x="210" y="-529" font-family="Helvetica,sans-Serif" font-size="10" text-anchor="middle">::string &gt;</text></a></g></g><g id="edge5" class="edge"><title>Node6-&gt;Node5</title><path fill="none" stroke="#9a32cd" stroke-dasharray="5 2" d="M207.84,-511.4C204.44,-472.76 198,-399.64 195.78,-374.36"/><polygon fill="#9a32cd" stroke="#9a32cd" points="204.38 -512.1 208.75 -521.76 211.36 -511.49 204.38 -512.1"/><text x="227.5" y="-445" font-family="Helvetica,sans-Serif" font-size="10" text-anchor="middle">Options</text></g><g id="node7" class="node"><title>Node7</title><g id="a_node7"><a><polygon fill="#fff" stroke="#bfbfbf" points="462 -628.5 462 -647.5 506 -647.5 506 -628.5 462 -628.5"/><text x="484" y="-635.5" font-family="Helvetica,sans-Serif" font-size="10" text-anchor="middle">string</text></a></g></g><g id="edge26" class="edge"><title>Node7-&gt;Node3</title><path fill="none" stroke="#9a32cd" stroke-dasharray="5 2" d="M451.5,-635.69C390.1,-632.88 259.38,-625.27 217,-610 178.73,-596.21 160.14,-594.89 141,-559 97.05,-476.58 111.36,-434.48 149,-349 157.42,-329.89 174.26,-312.01 185.06,-301.81"/><polygon fill="#9a32cd" stroke="#9a32cd" points="451.64 -639.19 461.78 -636.14 451.95 -632.2 451.64 -639.19"/><text x="155" y="-445" font-family="Helvetica,sans-Serif" font-size="10" text-anchor="middle">PartialFile</text></g><g id="edge8" class="edge"><title>Node7-&gt;Node5</title><path fill="none" stroke="#9a32cd" stroke-dasharray="5 2" d="M465.28,-622.02C446.62,-606.8 417.43,-582.23 394,-559 326.24,-491.83 326,-458.22 252,-398 240.16,-388.36 225.1,-379.91 213.43,-374.04"/><polygon fill="#9a32cd" stroke="#9a32cd" points="463.08 -624.75 473.06 -628.32 467.49 -619.3 463.08 -624.75"/><text x="423.5" y="-551" font-family="Helvetica,sans-Serif" font-size="10" text-anchor="middle">Description</text><text x="423.5" y="-540" font-family="Helvetica,sans-Serif" font-size="10" text-anchor="middle">MetaKey</text><text x="423.5" y="-529" font-family="Helvetica,sans-Serif" font-size="10" text-anchor="middle">ShortDesc</text><text x="423.5" y="-518" font-family="Helvetica,sans-Serif" font-size="10" text-anchor="middle">URI</text></g><g id="edge6" class="edge"><title>Node7-&gt;Node6</title><path fill="none" stroke="#9a32cd" stroke-dasharray="5 2" d="M451.64,-637.11C394.22,-636.71 277.51,-632.99 245,-610 225.59,-596.28 216.5,-568.76 212.6,-552"/><polygon fill="#9a32cd" stroke="#9a32cd" points="451.95 -640.61 461.96 -637.15 451.97 -633.61 451.95 -640.61"/><text x="269.5" y="-596.5" font-family="Helvetica,sans-Serif" font-size="10" text-anchor="middle">elements</text><text x="269.5" y="-585.5" font-family="Helvetica,sans-Serif" font-size="10" text-anchor="middle">keys</text></g><g id="edge15" class="edge"><title>Node7-&gt;Node11</title><path fill="none" stroke="#9a32cd" stroke-dasharray="5 2" d="M482.22,-618.1C477.79,-568.97 466.67,-433.25 468,-320 468.61,-268.44 500.33,-245.7 470,-204 441.57,-164.91 385.74,-152.08 344.55,-148.15"/><polygon fill="#9a32cd" stroke="#9a32cd" points="478.75 -618.55 483.15 -628.18 485.72 -617.9 478.75 -618.55"/><text x="490.5" y="-323" font-family="Helvetica,sans-Serif" font-size="10" text-anchor="middle">BaseURI</text></g><g id="node13" class="node"><title>Node13</title><g id="a_node13"><a target="_top" xlink:href="classmetaIndex.xhtml"><polygon fill="#fff" stroke="#000" points="695.5 -282.5 695.5 -301.5 764.5 -301.5 764.5 -282.5 695.5 -282.5"/><text x="730" y="-289.5" font-family="Helvetica,sans-Serif" font-size="10" text-anchor="middle">metaIndex</text></a></g></g><g id="edge20" class="edge"><title>Node7-&gt;Node13</title><path fill="none" stroke="#9a32cd" stroke-dasharray="5 2" d="M516.76,-636.37C588.82,-634.64 756.01,-628.65 773,-610 783.6,-598.36 824.28,-612.59 760,-349 755.56,-330.78 743.79,-312.07 736.38,-301.55"/><polygon fill="#9a32cd" stroke="#9a32cd" points="516.37 -632.88 506.45 -636.6 516.53 -639.88 516.37 -632.88"/><text x="823" y="-489" font-family="Helvetica,sans-Serif" font-size="10" text-anchor="middle">Codename</text><text x="823" y="-478" font-family="Helvetica,sans-Serif" font-size="10" text-anchor="middle">Dist</text><text x="823" y="-467" font-family="Helvetica,sans-Serif" font-size="10" text-anchor="middle">Label</text><text x="823" y="-456" font-family="Helvetica,sans-Serif" font-size="10" text-anchor="middle">Origin</text><text x="823" y="-445" font-family="Helvetica,sans-Serif" font-size="10" text-anchor="middle">ReleaseNotes</text><text x="823" y="-434" font-family="Helvetica,sans-Serif" font-size="10" text-anchor="middle">SignedBy</text><text x="823" y="-423" font-family="Helvetica,sans-Serif" font-size="10" text-anchor="middle">Suite</text><text x="823" y="-412" font-family="Helvetica,sans-Serif" font-size="10" text-anchor="middle">URI</text><text x="823" y="-401" font-family="Helvetica,sans-Serif" font-size="10" text-anchor="middle">Version</text></g><g id="node16" class="node"><title>Node16</title><g id="a_node16"><a><polygon fill="#fff" stroke="#bfbfbf" points="593.5 -349.5 593.5 -379.5 750.5 -379.5 750.5 -349.5 593.5 -349.5"/><text x="601.5" y="-367.5" font-family="Helvetica,sans-Serif" font-size="10" text-anchor="start">map&lt; std::string, metaIndex</text><text x="672" y="-356.5" font-family="Helvetica,sans-Serif" font-size="10" text-anchor="middle">::checkSum * &gt;</text></a></g></g><g id="edge22" class="edge"><title>Node7-&gt;Node16</title><path fill="none" stroke="#9a32cd" stroke-dasharray="5 2" d="M505.5,-622.46C510.49,-618.66 515.62,-614.4 520,-610 557.85,-572.04 638.98,-426.04 664.3,-379.7"/><polygon fill="#9a32cd" stroke="#9a32cd" points="503.43 -619.64 497.39 -628.34 507.54 -625.3 503.43 -619.64"/><text x="599" y="-534.5" font-family="Helvetica,sans-Serif" font-size="10" text-anchor="middle">keys</text></g><g id="node17" class="node"><title>Node17</title><g id="a_node17"><a target="_top" xlink:href="structmetaIndex_1_1checkSum.xhtml"><polygon fill="#fff" stroke="#000" points="638.5 -527.5 638.5 -546.5 705.5 -546.5 705.5 -527.5 638.5 -527.5"/><text x="672" y="-534.5" font-family="Helvetica,sans-Serif" font-size="10" text-anchor="middle">checkSum</text></a></g></g><g id="edge25" class="edge"><title>Node7-&gt;Node17</title><path fill="none" stroke="#9a32cd" stroke-dasharray="5 2" d="M515.57,-626.86C525.64,-622.66 536.4,-617.09 545,-610 558.79,-598.63 553.88,-587.97 568,-577 568.84,-576.34 618.52,-557.85 648.9,-546.57"/><polygon fill="#9a32cd" stroke="#9a32cd" points="514.28 -623.61 506.21 -630.47 516.8 -630.14 514.28 -623.61"/><text x="613.5" y="-591" font-family="Helvetica,sans-Serif" font-size="10" text-anchor="middle">MetaKeyFilename</text></g><g id="node19" class="node"><title>Node19</title><g id="a_node19"><a target="_top" xlink:href="structDiffInfo.xhtml"><polygon fill="#fff" stroke="#000" points="495.5 -527.5 495.5 -546.5 548.5 -546.5 548.5 -527.5 495.5 -527.5"/><text x="522" y="-534.5" font-family="Helvetica,sans-Serif" font-size="10" text-anchor="middle">DiffInfo</text></a></g></g><g id="edge29" class="edge"><title>Node7-&gt;Node19</title><path fill="none" stroke="#9a32cd" stroke-dasharray="5 2" d="M488.14,-618.47C491.1,-606.43 495.52,-590.52 501,-577 505.39,-566.17 511.97,-554.45 516.59,-546.72"/><polygon fill="#9a32cd" stroke="#9a32cd" points="484.72 -617.72 485.85 -628.26 491.54 -619.32 484.72 -617.72"/><text x="510.5" y="-591" font-family="Helvetica,sans-Serif" font-size="10" text-anchor="middle">file</text></g><g id="node8" class="node"><title>Node8</title><g id="a_node8"><a><polygon fill="#fff" stroke="#bfbfbf" points="424 -685.5 424 -704.5 544 -704.5 544 -685.5 424 -685.5"/><text x="484" y="-692.5" font-family="Helvetica,sans-Serif" font-size="10" text-anchor="middle">basic_string&lt; Char &gt;</text></a></g></g><g id="edge7" class="edge"><title>Node8-&gt;Node7</title><path fill="none" stroke="#191970" d="M484,-675.12C484,-665.82 484,-655.06 484,-647.71"/><polygon fill="#191970" stroke="#191970" points="480.5 -675.41 484 -685.41 487.5 -675.41 480.5 -675.41"/></g><g id="node9" class="node"><title>Node9</title><g id="a_node9"><a target="_top" xlink:href="classpkgAcqMetaClearSig.xhtml" xlink:title="An item responsible for downloading clearsigned metaindexes {{{."><polygon fill="#fff" stroke="#000" points="189 -.5 189 -19.5 307 -19.5 307 -.5 189 -.5"/><text x="248" y="-7.5" font-family="Helvetica,sans-Serif" font-size="10" text-anchor="middle">pkgAcqMetaClearSig</text></a></g></g><g id="edge9" class="edge"><title>Node9-&gt;Node3</title><path fill="none" stroke="#9a32cd" stroke-dasharray="5 2" d="M178.95,-19.78C150.03,-27.71 123,-42.8 123,-71.5 123,-220.5 123,-220.5 123,-220.5 123,-250.07 154.38,-271.32 175.71,-282.35"/><polygon fill="#9a32cd" stroke="#9a32cd" points="179.92 -23.14 188.79 -17.35 178.25 -16.34 179.92 -23.14"/><text x="174" y="-143.5" font-family="Helvetica,sans-Serif" font-size="10" text-anchor="middle">TransactionManager</text></g><g id="edge10" class="edge"><title>Node10-&gt;Node9</title><path fill="none" stroke="#191970" d="M248,-52.5C248,-41.5 248,-28.18 248,-19.65"/><polygon fill="#191970" stroke="#191970" points="244.5 -52.83 248 -62.83 251.5 -52.83 244.5 -52.83"/></g><g id="edge11" class="edge"><title>Node11-&gt;Node10</title><path fill="none" stroke="#191970" d="M282.9,-127.75C273.69,-113.43 260.95,-93.63 253.69,-82.34"/><polygon fill="#191970" stroke="#191970" points="280.01 -129.72 288.36 -136.23 285.89 -125.93 280.01 -129.72"/></g><g id="edge13" class="edge"><title>Node12-&gt;Node11</title><path fill="none" stroke="#9a32cd" stroke-dasharray="5 2" d="M273.8,-195.15C279.47,-181.64 286.26,-165.44 290.35,-155.7"/><polygon fill="#9a32cd" stroke="#9a32cd" points="270.57 -193.8 269.93 -204.37 277.02 -196.51 270.57 -193.8"/><text x="310.5" y="-178" font-family="Helvetica,sans-Serif" font-size="10" text-anchor="middle">Transaction</text></g><g id="edge17" class="edge"><title>Node13-&gt;Node9</title><path fill="none" stroke="#9a32cd" stroke-dasharray="5 2" d="M685.35,-285.87C646.71,-278.64 597,-261.4 597,-220.5 597,-220.5 597,-220.5 597,-71.5 597,-42.44 406.77,-23.31 307.2,-15.29"/><polygon fill="#9a32cd" stroke="#9a32cd" points="684.96 -289.35 695.4 -287.57 686.13 -282.45 684.96 -289.35"/><text x="650" y="-149" font-family="Helvetica,sans-Serif" font-size="10" text-anchor="middle">LastMetaIndexParser</text><text x="650" y="-138" font-family="Helvetica,sans-Serif" font-size="10" text-anchor="middle">MetaIndexParser</text></g><g id="node14" class="node"><title>Node14</title><g id="a_node14"><a><polygon fill="#fff" stroke="#bfbfbf" points="815 -355 815 -374 955 -374 955 -355 815 -355"/><text x="885" y="-362" font-family="Helvetica,sans-Serif" font-size="10" text-anchor="middle">vector&lt; pkgIndexFile * &gt;</text></a></g></g><g id="edge18" class="edge"><title>Node14-&gt;Node13</title><path fill="none" stroke="#9a32cd" stroke-dasharray="5 2" d="M860.77,-350.01C844.18,-341.02 821.55,-329.19 801,-320 785.83,-313.22 768.4,-306.57 754.6,-301.57"/><polygon fill="#9a32cd" stroke="#9a32cd" points="859.33 -353.21 869.78 -354.94 862.69 -347.07 859.33 -353.21"/><text x="842.5" y="-323" font-family="Helvetica,sans-Serif" font-size="10" text-anchor="middle">Indexes</text></g><g id="node15" class="node"><title>Node15</title><g id="a_node15"><a target="_top" xlink:href="classpkgIndexFile.xhtml"><polygon fill="#fff" stroke="#000" points="845.5 -527.5 845.5 -546.5 924.5 -546.5 924.5 -527.5 845.5 -527.5"/><text x="885" y="-534.5" font-family="Helvetica,sans-Serif" font-size="10" text-anchor="middle">pkgIndexFile</text></a></g></g><g id="edge19" class="edge"><title>Node15-&gt;Node14</title><path fill="none" stroke="#9a32cd" stroke-dasharray="5 2" d="M885,-517.02C885,-480.33 885,-400.96 885,-374.38"/><polygon fill="#9a32cd" stroke="#9a32cd" points="881.5 -517.31 885 -527.31 888.5 -517.31 881.5 -517.31"/><text x="909.5" y="-445" font-family="Helvetica,sans-Serif" font-size="10" text-anchor="middle">elements</text></g><g id="edge21" class="edge"><title>Node16-&gt;Node13</title><path fill="none" stroke="#9a32cd" stroke-dasharray="5 2" d="M690.19,-341.38C701.18,-328.04 714.57,-311.76 722.68,-301.89"/><polygon fill="#9a32cd" stroke="#9a32cd" points="687.39 -339.29 683.74 -349.23 692.79 -343.73 687.39 -339.29"/><text x="724.5" y="-323" font-family="Helvetica,sans-Serif" font-size="10" text-anchor="middle">Entries</text></g><g id="edge23" class="edge"><title>Node17-&gt;Node16</title><path fill="none" stroke="#9a32cd" stroke-dasharray="5 2" d="M672,-517.21C672,-482.77 672,-410.27 672,-379.64"/><polygon fill="#9a32cd" stroke="#9a32cd" points="668.5 -517.31 672 -527.31 675.5 -517.31 668.5 -517.31"/><text x="696.5" y="-445" font-family="Helvetica,sans-Serif" font-size="10" text-anchor="middle">elements</text></g><g id="node18" class="node"><title>Node18</title><g id="a_node18"><a target="_top" xlink:href="classHashStringList.xhtml"><polygon fill="#fff" stroke="#000" points="706.5 -628.5 706.5 -647.5 793.5 -647.5 793.5 -628.5 706.5 -628.5"/><text x="750" y="-635.5" font-family="Helvetica,sans-Serif" font-size="10" text-anchor="middle">HashStringList</text></a></g></g><g id="edge24" class="edge"><title>Node18-&gt;Node17</title><path fill="none" stroke="#9a32cd" stroke-dasharray="5 2" d="M768.86,-621.27C771.77,-617.88 774.36,-614.07 776,-610 781.48,-596.4 784.35,-589.05 776,-577 760.29,-554.34 729.68,-544.82 705.72,-540.84"/><polygon fill="#9a32cd" stroke="#9a32cd" points="766.35 -618.83 761.74 -628.37 771.3 -623.78 766.35 -618.83"/><text x="801" y="-591" font-family="Helvetica,sans-Serif" font-size="10" text-anchor="middle">Hashes</text></g><g id="edge28" class="edge"><title>Node18-&gt;Node19</title><path fill="none" stroke="#9a32cd" stroke-dasharray="5 2" d="M707.09,-624.89C697.9,-621.06 688.66,-616.17 681,-610 667.27,-598.95 673.7,-586.72 659,-577 622.79,-553.06 604.08,-573.04 563,-559 553.77,-555.84 544.02,-550.93 536.35,-546.64"/><polygon fill="#9a32cd" stroke="#9a32cd" points="705.99 -628.21 716.58 -628.5 708.48 -621.67 705.99 -628.21"/><text x="726.5" y="-602" font-family="Helvetica,sans-Serif" font-size="10" text-anchor="middle">download_hashes</text><text x="726.5" y="-591" font-family="Helvetica,sans-Serif" font-size="10" text-anchor="middle">patch_hashes</text><text x="726.5" y="-580" font-family="Helvetica,sans-Serif" font-size="10" text-anchor="middle">result_hashes</text></g><g id="edge27" class="edge"><title>Node19-&gt;Node1</title><path fill="none" stroke="#9a32cd" stroke-dasharray="5 2" d="M522.91,-517.19C524.35,-485.78 527,-420.64 527,-365.5 527,-365.5 527,-365.5 527,-218.5 527,-193.89 510.69,-168.54 501,-155.66"/><polygon fill="#9a32cd" stroke="#9a32cd" points="519.4 -517.33 522.43 -527.49 526.39 -517.66 519.4 -517.33"/><text x="542.5" y="-289.5" font-family="Helvetica,sans-Serif" font-size="10" text-anchor="middle">patch</text></g><g id="edge30" class="edge"><title>Node20-&gt;Node1</title><path fill="none" stroke="#9a32cd" stroke-dasharray="5 2" d="M438.31,-96.59C435.23,-103.39 434.1,-110.69 438,-117 443.54,-125.97 452.93,-132.16 462.44,-136.39"/><polygon fill="#9a32cd" stroke="#9a32cd" points="441.43 -98.18 443.43 -87.77 435.38 -94.66 441.43 -98.18"/><text x="464.5" y="-109" font-family="Helvetica,sans-Serif" font-size="10" text-anchor="middle">allPatches</text></g></g></svg>