<svg xmlns="http://www.w3.org/2000/svg" xmlns:xlink="http://www.w3.org/1999/xlink" width="128pt" height="196pt" viewBox="0 0 128 196"><g id="graph0" class="graph" transform="scale(1 1) rotate(0) translate(4 192)"><title>URI</title><polygon fill="#fff" stroke="transparent" points="-4 4 -4 -192 124 -192 124 4 -4 4"/><g id="node1" class="node"><title>Node1</title><g id="a_node1"><a><polygon fill="#bfbfbf" stroke="#000" points="43 -.5 43 -19.5 77 -19.5 77 -.5 43 -.5"/><text x="60" y="-7.5" font-family="Helvetica,sans-Serif" font-size="10" text-anchor="middle">URI</text></a></g></g><g id="node2" class="node"><title>Node2</title><g id="a_node2"><a><polygon fill="#fff" stroke="#bfbfbf" points="38 -111.5 38 -130.5 82 -130.5 82 -111.5 38 -111.5"/><text x="60" y="-118.5" font-family="Helvetica,sans-Serif" font-size="10" text-anchor="middle">string</text></a></g></g><g id="edge1" class="edge"><title>Node2-&gt;Node1</title><path fill="none" stroke="#9a32cd" stroke-dasharray="5 2" d="M60,-101.19C60,-77.28 60,-36.99 60,-19.51"/><polygon fill="#9a32cd" stroke="#9a32cd" points="56.5 -101.45 60 -111.45 63.5 -101.45 56.5 -101.45"/><text x="83" y="-85" font-family="Helvetica,sans-Serif" font-size="10" text-anchor="middle">Access</text><text x="83" y="-74" font-family="Helvetica,sans-Serif" font-size="10" text-anchor="middle">Host</text><text x="83" y="-63" font-family="Helvetica,sans-Serif" font-size="10" text-anchor="middle">Password</text><text x="83" y="-52" font-family="Helvetica,sans-Serif" font-size="10" text-anchor="middle">Path</text><text x="83" y="-41" font-family="Helvetica,sans-Serif" font-size="10" text-anchor="middle">User</text></g><g id="node3" class="node"><title>Node3</title><g id="a_node3"><a><polygon fill="#fff" stroke="#bfbfbf" points="0 -168.5 0 -187.5 120 -187.5 120 -168.5 0 -168.5"/><text x="60" y="-175.5" font-family="Helvetica,sans-Serif" font-size="10" text-anchor="middle">basic_string&lt; Char &gt;</text></a></g></g><g id="edge2" class="edge"><title>Node3-&gt;Node2</title><path fill="none" stroke="#191970" d="M60,-158.12C60,-148.82 60,-138.06 60,-130.71"/><polygon fill="#191970" stroke="#191970" points="56.5 -158.41 60 -168.41 63.5 -158.41 56.5 -158.41"/></g></g></svg>