<svg xmlns="http://www.w3.org/2000/svg" xmlns:xlink="http://www.w3.org/1999/xlink" width="143pt" height="336" viewBox="0 0 143 252"><g id="graph0" class="graph" transform="scale(1 1) rotate(0) translate(4 248)"><title>eippIndex</title><polygon fill="#fff" stroke="transparent" points="-4 4 -4 -248 139 -248 139 4 -4 4"/><g id="node1" class="node"><title>Node1</title><g id="a_node1"><a><polygon fill="#bfbfbf" stroke="#000" points="35 -.5 35 -19.5 100 -19.5 100 -.5 35 -.5"/><text x="67.5" y="-7.5" font-family="Helvetica,sans-Serif" font-size="10" text-anchor="middle">eippIndex</text></a></g></g><g id="node2" class="node"><title>Node2</title><g id="a_node2"><a target="_top" xlink:href="classedspLikeIndex.xhtml"><polygon fill="#fff" stroke="#000" points="24.5 -56.5 24.5 -75.5 110.5 -75.5 110.5 -56.5 24.5 -56.5"/><text x="67.5" y="-63.5" font-family="Helvetica,sans-Serif" font-size="10" text-anchor="middle">edspLikeIndex</text></a></g></g><g id="edge1" class="edge"><title>Node2-&gt;Node1</title><path fill="none" stroke="#191970" d="M67.5,-45.8C67.5,-36.91 67.5,-26.78 67.5,-19.75"/><polygon fill="#191970" stroke="#191970" points="64 -46.08 67.5 -56.08 71 -46.08 64 -46.08"/></g><g id="node3" class="node"><title>Node3</title><g id="a_node3"><a target="_top" xlink:href="classpkgDebianIndexRealFile.xhtml"><polygon fill="#fff" stroke="#000" points="0 -112.5 0 -131.5 135 -131.5 135 -112.5 0 -112.5"/><text x="67.5" y="-119.5" font-family="Helvetica,sans-Serif" font-size="10" text-anchor="middle">pkgDebianIndexRealFile</text></a></g></g><g id="edge2" class="edge"><title>Node3-&gt;Node2</title><path fill="none" stroke="#191970" d="M67.5,-101.8C67.5,-92.91 67.5,-82.78 67.5,-75.75"/><polygon fill="#191970" stroke="#191970" points="64 -102.08 67.5 -112.08 71 -102.08 64 -102.08"/></g><g id="node4" class="node"><title>Node4</title><g id="a_node4"><a target="_top" xlink:href="classpkgDebianIndexFile.xhtml"><polygon fill="#fff" stroke="#000" points="11 -168.5 11 -187.5 124 -187.5 124 -168.5 11 -168.5"/><text x="67.5" y="-175.5" font-family="Helvetica,sans-Serif" font-size="10" text-anchor="middle">pkgDebianIndexFile</text></a></g></g><g id="edge3" class="edge"><title>Node4-&gt;Node3</title><path fill="none" stroke="#191970" d="M67.5,-157.8C67.5,-148.91 67.5,-138.78 67.5,-131.75"/><polygon fill="#191970" stroke="#191970" points="64 -158.08 67.5 -168.08 71 -158.08 64 -158.08"/></g><g id="node5" class="node"><title>Node5</title><g id="a_node5"><a target="_top" xlink:href="classpkgIndexFile.xhtml"><polygon fill="#fff" stroke="#000" points="28 -224.5 28 -243.5 107 -243.5 107 -224.5 28 -224.5"/><text x="67.5" y="-231.5" font-family="Helvetica,sans-Serif" font-size="10" text-anchor="middle">pkgIndexFile</text></a></g></g><g id="edge4" class="edge"><title>Node5-&gt;Node4</title><path fill="none" stroke="#191970" d="M67.5,-213.8C67.5,-204.91 67.5,-194.78 67.5,-187.75"/><polygon fill="#191970" stroke="#191970" points="64 -214.08 67.5 -224.08 71 -214.08 64 -214.08"/></g></g></svg>