<svg xmlns="http://www.w3.org/2000/svg" xmlns:xlink="http://www.w3.org/1999/xlink" width="316" height="152pt" viewBox="0 0 236.5 152"><g id="graph0" class="graph" transform="scale(1 1) rotate(0) translate(4 148)"><title>pkgDebianIndexRealFile</title><polygon fill="#fff" stroke="transparent" points="-4 4 -4 -148 232.5 -148 232.5 4 -4 4"/><g id="node1" class="node"><title>Node1</title><g id="a_node1"><a><polygon fill="#bfbfbf" stroke="#000" points="37 -.5 37 -19.5 172 -19.5 172 -.5 37 -.5"/><text x="104.5" y="-7.5" font-family="Helvetica,sans-Serif" font-size="10" text-anchor="middle">pkgDebianIndexRealFile</text></a></g></g><g id="node2" class="node"><title>Node2</title><g id="a_node2"><a target="_top" xlink:href="classpkgDebianIndexFile.xhtml"><polygon fill="#fff" stroke="#000" points="0 -67.5 0 -86.5 113 -86.5 113 -67.5 0 -67.5"/><text x="56.5" y="-74.5" font-family="Helvetica,sans-Serif" font-size="10" text-anchor="middle">pkgDebianIndexFile</text></a></g></g><g id="edge1" class="edge"><title>Node2-&gt;Node1</title><path fill="none" stroke="#191970" d="M69.12,-58.9C78.45,-46.27 90.76,-29.6 98.13,-19.63"/><polygon fill="#191970" stroke="#191970" points="66.1 -57.11 62.97 -67.23 71.73 -61.27 66.1 -57.11"/></g><g id="node3" class="node"><title>Node3</title><g id="a_node3"><a target="_top" xlink:href="classpkgIndexFile.xhtml"><polygon fill="#fff" stroke="#000" points="12 -124.5 12 -143.5 91 -143.5 91 -124.5 12 -124.5"/><text x="51.5" y="-131.5" font-family="Helvetica,sans-Serif" font-size="10" text-anchor="middle">pkgIndexFile</text></a></g></g><g id="edge2" class="edge"><title>Node3-&gt;Node2</title><path fill="none" stroke="#191970" d="M53.19,-114.42C54.04,-105.05 55.03,-94.14 55.71,-86.71"/><polygon fill="#191970" stroke="#191970" points="49.7 -114.13 52.28 -124.41 56.67 -114.76 49.7 -114.13"/></g><g id="node4" class="node"><title>Node4</title><g id="a_node4"><a><polygon fill="#fff" stroke="#bfbfbf" points="141.5 -67.5 141.5 -86.5 185.5 -86.5 185.5 -67.5 141.5 -67.5"/><text x="163.5" y="-74.5" font-family="Helvetica,sans-Serif" font-size="10" text-anchor="middle">string</text></a></g></g><g id="edge3" class="edge"><title>Node4-&gt;Node1</title><path fill="none" stroke="#9a32cd" stroke-dasharray="5 2" d="M148.65,-59.63C137.11,-46.92 121.56,-29.8 112.33,-19.63"/><polygon fill="#9a32cd" stroke="#9a32cd" points="146.23 -62.18 155.54 -67.23 151.41 -57.48 146.23 -62.18"/><text x="149" y="-41" font-family="Helvetica,sans-Serif" font-size="10" text-anchor="middle">File</text></g><g id="node5" class="node"><title>Node5</title><g id="a_node5"><a><polygon fill="#fff" stroke="#bfbfbf" points="108.5 -124.5 108.5 -143.5 228.5 -143.5 228.5 -124.5 108.5 -124.5"/><text x="168.5" y="-131.5" font-family="Helvetica,sans-Serif" font-size="10" text-anchor="middle">basic_string&lt; Char &gt;</text></a></g></g><g id="edge4" class="edge"><title>Node5-&gt;Node4</title><path fill="none" stroke="#191970" d="M166.81,-114.42C165.96,-105.05 164.97,-94.14 164.29,-86.71"/><polygon fill="#191970" stroke="#191970" points="163.33 -114.76 167.72 -124.41 170.3 -114.13 163.33 -114.76"/></g></g></svg>