<svg xmlns="http://www.w3.org/2000/svg" xmlns:xlink="http://www.w3.org/1999/xlink" width="346pt" height="216" viewBox="0 0 345.5 162"><g id="graph0" class="graph" transform="scale(1 1) rotate(0) translate(4 158)"><title>edspLikeSystem</title><polygon fill="#fff" stroke="transparent" points="-4 4 -4 -158 341.5 -158 341.5 4 -4 4"/><g id="node1" class="node"><title>Node1</title><g id="a_node1"><a><polygon fill="#bfbfbf" stroke="#000" points="163 -.5 163 -19.5 259 -19.5 259 -.5 163 -.5"/><text x="211" y="-7.5" font-family="Helvetica,sans-Serif" font-size="10" text-anchor="middle">edspLikeSystem</text></a></g></g><g id="node2" class="node"><title>Node2</title><g id="a_node2"><a target="_top" xlink:href="classpkgSystem.xhtml"><polygon fill="#fff" stroke="#000" points="25.5 -67.5 25.5 -86.5 96.5 -86.5 96.5 -67.5 25.5 -67.5"/><text x="61" y="-74.5" font-family="Helvetica,sans-Serif" font-size="10" text-anchor="middle">pkgSystem</text></a></g></g><g id="edge1" class="edge"><title>Node2-&gt;Node1</title><path fill="none" stroke="#191970" d="M90.35,-63.28C120.06,-50.41 165.18,-30.85 191,-19.67"/><polygon fill="#191970" stroke="#191970" points="88.7 -60.18 80.92 -67.37 91.49 -66.6 88.7 -60.18"/></g><g id="edge2" class="edge"><title>Node2-&gt;Node2</title><path fill="none" stroke="#9a32cd" stroke-dasharray="5 2" d="M106.78,-81.95C111.49,-80.97 114.5,-79.32 114.5,-77 114.5,-73.28 106.79,-71.29 96.75,-71.03"/><polygon fill="#9a32cd" stroke="#9a32cd" points="106.35 -78.47 96.75 -82.97 107.06 -85.44 106.35 -78.47"/><text x="140.5" y="-74.5" font-family="Helvetica,sans-Serif" font-size="10" text-anchor="middle">GlobalList</text></g><g id="node3" class="node"><title>Node3</title><g id="a_node3"><a target="_top" xlink:href="classpkgVersioningSystem.xhtml"><polygon fill="#fff" stroke="#000" points="0 -134.5 0 -153.5 122 -153.5 122 -134.5 0 -134.5"/><text x="61" y="-141.5" font-family="Helvetica,sans-Serif" font-size="10" text-anchor="middle">pkgVersioningSystem</text></a></g></g><g id="edge3" class="edge"><title>Node3-&gt;Node2</title><path fill="none" stroke="#9a32cd" stroke-dasharray="5 2" d="M61,-124.04C61,-111.67 61,-96.12 61,-86.63"/><polygon fill="#9a32cd" stroke="#9a32cd" points="57.5 -124.23 61 -134.23 64.5 -124.23 57.5 -124.23"/><text x="69" y="-108" font-family="Helvetica,sans-Serif" font-size="10" text-anchor="middle">VS</text></g><g id="edge4" class="edge"><title>Node3-&gt;Node3</title><path fill="none" stroke="#9a32cd" stroke-dasharray="5 2" d="M132.49,-148.28C137.17,-147.28 140,-145.86 140,-144 140,-141.03 132.75,-139.16 122.28,-138.4"/><polygon fill="#9a32cd" stroke="#9a32cd" points="131.74 -144.84 122.28 -149.6 132.65 -151.78 131.74 -144.84"/><text x="166" y="-141.5" font-family="Helvetica,sans-Serif" font-size="10" text-anchor="middle">GlobalList</text></g><g id="node4" class="node"><title>Node4</title><g id="a_node4"><a><polygon fill="#fff" stroke="#bfbfbf" points="184.5 -67.5 184.5 -86.5 337.5 -86.5 337.5 -67.5 184.5 -67.5"/><text x="261" y="-74.5" font-family="Helvetica,sans-Serif" font-size="10" text-anchor="middle">unique_ptr&lt; pkgIndexFile &gt;</text></a></g></g><g id="edge5" class="edge"><title>Node4-&gt;Node1</title><path fill="none" stroke="#9a32cd" stroke-dasharray="5 2" d="M248.13,-59.27C238.38,-46.6 225.39,-29.7 217.64,-19.63"/><polygon fill="#9a32cd" stroke="#9a32cd" points="245.39 -61.44 254.26 -67.23 250.93 -57.17 245.39 -61.44"/><text x="264" y="-41" font-family="Helvetica,sans-Serif" font-size="10" text-anchor="middle">StatusFile</text></g></g></svg>