<svg xmlns="http://www.w3.org/2000/svg" xmlns:xlink="http://www.w3.org/1999/xlink" width="814pt" height="643pt" viewBox="0 0 813.5 643"><g id="graph0" class="graph" transform="scale(1 1) rotate(0) translate(4 639)"><title>pkgAcqMetaBase</title><polygon fill="#fff" stroke="transparent" points="-4 4 -4 -639 809.5 -639 809.5 4 -4 4"/><g id="node1" class="node"><title>Node1</title><g id="a_node1"><a xlink:title="the manager of a transaction"><polygon fill="#bfbfbf" stroke="#000" points="624 -468.5 624 -487.5 725 -487.5 725 -468.5 624 -468.5"/><text x="674.5" y="-475.5" font-family="Helvetica,sans-Serif" font-size="10" text-anchor="middle">pkgAcqMetaBase</text></a></g></g><g id="node9" class="node"><title>Node9</title><g id="a_node9"><a target="_top" xlink:href="classpkgAcqMetaIndex.xhtml" xlink:title="An item that is responsible for downloading the meta-index {{{ file (i.e., Release) itself and verify..."><polygon fill="#fff" stroke="#000" points="383.5 -223.5 383.5 -242.5 487.5 -242.5 487.5 -223.5 383.5 -223.5"/><text x="435.5" y="-230.5" font-family="Helvetica,sans-Serif" font-size="10" text-anchor="middle">pkgAcqMetaIndex</text></a></g></g><g id="edge10" class="edge"><title>Node1-&gt;Node9</title><path fill="none" stroke="#191970" d="M653.1,-462.18C644.44,-455.48 634.79,-447.04 627.5,-438 571.84,-368.99 604.57,-316.58 535.5,-261 521.91,-250.06 504.26,-243.54 487.58,-239.65"/><polygon fill="#191970" stroke="#191970" points="651.19 -465.12 661.31 -468.26 655.36 -459.49 651.19 -465.12"/></g><g id="node2" class="node"><title>Node2</title><g id="a_node2"><a target="_top" xlink:href="classpkgAcqTransactionItem.xhtml" xlink:title="baseclass for the indexes files to manage them all together"><polygon fill="#fff" stroke="#000" points="520 -78.5 520 -97.5 651 -97.5 651 -78.5 520 -78.5"/><text x="585.5" y="-85.5" font-family="Helvetica,sans-Serif" font-size="10" text-anchor="middle">pkgAcqTransactionItem</text></a></g></g><g id="edge1" class="edge"><title>Node2-&gt;Node1</title><path fill="none" stroke="#191970" d="M608.46,-103.26C623.92,-114.81 641.5,-132.63 641.5,-154 641.5,-306.5 641.5,-306.5 641.5,-306.5 641.5,-369.51 663.5,-443.28 671.57,-468.24"/><polygon fill="#191970" stroke="#191970" points="610.42 -100.36 600.21 -97.5 606.41 -106.1 610.42 -100.36"/></g><g id="node16" class="node"><title>Node16</title><g id="a_node16"><a><polygon fill="#fff" stroke="#bfbfbf" points="557.5 -.5 557.5 -30.5 707.5 -30.5 707.5 -.5 557.5 -.5"/><text x="565.5" y="-18.5" font-family="Helvetica,sans-Serif" font-size="10" text-anchor="start">vector&lt; pkgAcqTransaction</text><text x="632.5" y="-7.5" font-family="Helvetica,sans-Serif" font-size="10" text-anchor="middle">Item * &gt;</text></a></g></g><g id="edge23" class="edge"><title>Node2-&gt;Node16</title><path fill="none" stroke="#9a32cd" stroke-dasharray="5 2" d="M597.04,-69.68C605.06,-57.65 615.61,-41.83 623.12,-30.58"/><polygon fill="#9a32cd" stroke="#9a32cd" points="593.9 -68.09 591.26 -78.36 599.72 -71.98 593.9 -68.09"/><text x="634" y="-52" font-family="Helvetica,sans-Serif" font-size="10" text-anchor="middle">elements</text></g><g id="node3" class="node"><title>Node3</title><g id="a_node3"><a><polygon fill="#fff" stroke="#bfbfbf" points="574 -145.5 574 -164.5 613 -164.5 613 -145.5 574 -145.5"/><text x="593.5" y="-152.5" font-family="Helvetica,sans-Serif" font-size="10" text-anchor="middle">Item</text></a></g></g><g id="edge2" class="edge"><title>Node3-&gt;Node2</title><path fill="none" stroke="#191970" d="M591.17,-135.04C589.64,-122.67 587.73,-107.12 586.56,-97.63"/><polygon fill="#191970" stroke="#191970" points="587.73 -135.74 592.42 -145.23 594.67 -134.88 587.73 -135.74"/></g><g id="node4" class="node"><title>Node4</title><g id="a_node4"><a target="_top" xlink:href="classIndexTarget.xhtml" xlink:title="Information about an index file."><polygon fill="#fff" stroke="#000" points="457.5 -296 457.5 -315 531.5 -315 531.5 -296 457.5 -296"/><text x="494.5" y="-303" font-family="Helvetica,sans-Serif" font-size="10" text-anchor="middle">IndexTarget</text></a></g></g><g id="edge3" class="edge"><title>Node4-&gt;Node2</title><path fill="none" stroke="#9a32cd" stroke-dasharray="5 2" d="M516.13,-289.25C521.83,-284.32 527.5,-278.44 531.5,-272 562.33,-222.36 548.1,-200.78 565.5,-145 570.79,-128.05 578,-108.6 582.16,-97.66"/><polygon fill="#9a32cd" stroke="#9a32cd" points="513.59 -286.8 507.94 -295.76 517.95 -292.28 513.59 -286.8"/><text x="573.5" y="-191.5" font-family="Helvetica,sans-Serif" font-size="10" text-anchor="middle">Target</text></g><g id="edge11" class="edge"><title>Node4-&gt;Node9</title><path fill="none" stroke="#9a32cd" stroke-dasharray="5 2" d="M457.84,-291.39C449.43,-286.61 441.49,-280.27 436.5,-272 431.11,-263.07 431.99,-250.69 433.46,-242.52"/><polygon fill="#9a32cd" stroke="#9a32cd" points="456.53 -294.65 467.04 -295.99 459.66 -288.39 456.53 -294.65"/><text x="484" y="-264" font-family="Helvetica,sans-Serif" font-size="10" text-anchor="middle">DetachedSigTarget</text></g><g id="node5" class="node"><title>Node5</title><g id="a_node5"><a><polygon fill="#fff" stroke="#bfbfbf" points="487 -463 487 -493 606 -493 606 -463 487 -463"/><text x="495" y="-481" font-family="Helvetica,sans-Serif" font-size="10" text-anchor="start">map&lt; std::string, std</text><text x="546.5" y="-470" font-family="Helvetica,sans-Serif" font-size="10" text-anchor="middle">::string &gt;</text></a></g></g><g id="edge4" class="edge"><title>Node5-&gt;Node4</title><path fill="none" stroke="#9a32cd" stroke-dasharray="5 2" d="M538.43,-453.21C536.77,-448.19 535.05,-442.93 533.5,-438 518.98,-391.89 502.97,-336.22 496.96,-315.15"/><polygon fill="#9a32cd" stroke="#9a32cd" points="535.2 -454.59 541.69 -462.96 541.84 -452.36 535.2 -454.59"/><text x="554" y="-386" font-family="Helvetica,sans-Serif" font-size="10" text-anchor="middle">Options</text></g><g id="node6" class="node"><title>Node6</title><g id="a_node6"><a><polygon fill="#fff" stroke="#bfbfbf" points="387.5 -558.5 387.5 -577.5 431.5 -577.5 431.5 -558.5 387.5 -558.5"/><text x="409.5" y="-565.5" font-family="Helvetica,sans-Serif" font-size="10" text-anchor="middle">string</text></a></g></g><g id="edge24" class="edge"><title>Node6-&gt;Node1</title><path fill="none" stroke="#9a32cd" stroke-dasharray="5 2" d="M441.41,-561.91C466.94,-557.41 503.48,-550 534.5,-540 580.43,-525.2 631.81,-500.61 657.68,-487.63"/><polygon fill="#9a32cd" stroke="#9a32cd" points="440.79 -558.46 431.52 -563.6 441.97 -565.36 440.79 -558.46"/><text x="611" y="-526.5" font-family="Helvetica,sans-Serif" font-size="10" text-anchor="middle">BaseURI</text></g><g id="edge21" class="edge"><title>Node6-&gt;Node2</title><path fill="none" stroke="#9a32cd" stroke-dasharray="5 2" d="M441.71,-565.62C527.24,-561.07 753.5,-542.99 753.5,-479 753.5,-479 753.5,-479 753.5,-154 753.5,-127.81 681.58,-108.06 631.85,-97.54"/><polygon fill="#9a32cd" stroke="#9a32cd" points="441.35 -562.13 431.54 -566.13 441.71 -569.12 441.35 -562.13"/><text x="779.5" y="-264" font-family="Helvetica,sans-Serif" font-size="10" text-anchor="middle">PartialFile</text></g><g id="edge7" class="edge"><title>Node6-&gt;Node4</title><path fill="none" stroke="#9a32cd" stroke-dasharray="5 2" d="M408.22,-548.05C407.36,-525.4 408.02,-486.71 419.5,-456 422.95,-446.76 427.49,-446.5 432.5,-438 458.66,-393.65 482.5,-336.48 491.1,-315.08"/><polygon fill="#9a32cd" stroke="#9a32cd" points="404.74 -548.5 408.76 -558.31 411.73 -548.14 404.74 -548.5"/><text x="449" y="-492" font-family="Helvetica,sans-Serif" font-size="10" text-anchor="middle">Description</text><text x="449" y="-481" font-family="Helvetica,sans-Serif" font-size="10" text-anchor="middle">MetaKey</text><text x="449" y="-470" font-family="Helvetica,sans-Serif" font-size="10" text-anchor="middle">ShortDesc</text><text x="449" y="-459" font-family="Helvetica,sans-Serif" font-size="10" text-anchor="middle">URI</text></g><g id="edge5" class="edge"><title>Node6-&gt;Node5</title><path fill="none" stroke="#9a32cd" stroke-dasharray="5 2" d="M431.47,-552.88C456.95,-536.52 498.7,-509.7 524.28,-493.27"/><polygon fill="#9a32cd" stroke="#9a32cd" points="429.41 -550.05 422.89 -558.4 433.19 -555.94 429.41 -550.05"/><text x="506" y="-532" font-family="Helvetica,sans-Serif" font-size="10" text-anchor="middle">elements</text><text x="506" y="-521" font-family="Helvetica,sans-Serif" font-size="10" text-anchor="middle">keys</text></g><g id="node10" class="node"><title>Node10</title><g id="a_node10"><a target="_top" xlink:href="classmetaIndex.xhtml"><polygon fill="#fff" stroke="#000" points="254 -223.5 254 -242.5 323 -242.5 323 -223.5 254 -223.5"/><text x="288.5" y="-230.5" font-family="Helvetica,sans-Serif" font-size="10" text-anchor="middle">metaIndex</text></a></g></g><g id="edge15" class="edge"><title>Node6-&gt;Node10</title><path fill="none" stroke="#9a32cd" stroke-dasharray="5 2" d="M401.16,-549.4C389.97,-524.99 370.37,-479.18 360.5,-438 345.07,-373.66 367.54,-352.02 344.5,-290 336.74,-269.12 316.38,-252.24 302.47,-242.66"/><polygon fill="#9a32cd" stroke="#9a32cd" points="397.99 -550.9 405.39 -558.48 404.34 -547.94 397.99 -550.9"/><text x="394.5" y="-430" font-family="Helvetica,sans-Serif" font-size="10" text-anchor="middle">Codename</text><text x="394.5" y="-419" font-family="Helvetica,sans-Serif" font-size="10" text-anchor="middle">Dist</text><text x="394.5" y="-408" font-family="Helvetica,sans-Serif" font-size="10" text-anchor="middle">Label</text><text x="394.5" y="-397" font-family="Helvetica,sans-Serif" font-size="10" text-anchor="middle">Origin</text><text x="394.5" y="-386" font-family="Helvetica,sans-Serif" font-size="10" text-anchor="middle">ReleaseNotes</text><text x="394.5" y="-375" font-family="Helvetica,sans-Serif" font-size="10" text-anchor="middle">SignedBy</text><text x="394.5" y="-364" font-family="Helvetica,sans-Serif" font-size="10" text-anchor="middle">Suite</text><text x="394.5" y="-353" font-family="Helvetica,sans-Serif" font-size="10" text-anchor="middle">URI</text><text x="394.5" y="-342" font-family="Helvetica,sans-Serif" font-size="10" text-anchor="middle">Version</text></g><g id="node13" class="node"><title>Node13</title><g id="a_node13"><a><polygon fill="#fff" stroke="#bfbfbf" points="20 -290.5 20 -320.5 177 -320.5 177 -290.5 20 -290.5"/><text x="28" y="-308.5" font-family="Helvetica,sans-Serif" font-size="10" text-anchor="start">map&lt; std::string, metaIndex</text><text x="98.5" y="-297.5" font-family="Helvetica,sans-Serif" font-size="10" text-anchor="middle">::checkSum * &gt;</text></a></g></g><g id="edge17" class="edge"><title>Node6-&gt;Node13</title><path fill="none" stroke="#9a32cd" stroke-dasharray="5 2" d="M377.28,-565.01C306.15,-559.84 139.42,-543.26 107.5,-500 66.87,-444.93 85.15,-355.14 94.35,-320.63"/><polygon fill="#9a32cd" stroke="#9a32cd" points="377.23 -568.51 387.45 -565.71 377.72 -561.53 377.23 -568.51"/><text x="120.5" y="-475.5" font-family="Helvetica,sans-Serif" font-size="10" text-anchor="middle">keys</text></g><g id="node14" class="node"><title>Node14</title><g id="a_node14"><a target="_top" xlink:href="structmetaIndex_1_1checkSum.xhtml"><polygon fill="#fff" stroke="#000" points="143 -468.5 143 -487.5 210 -487.5 210 -468.5 143 -468.5"/><text x="176.5" y="-475.5" font-family="Helvetica,sans-Serif" font-size="10" text-anchor="middle">checkSum</text></a></g></g><g id="edge20" class="edge"><title>Node6-&gt;Node14</title><path fill="none" stroke="#9a32cd" stroke-dasharray="5 2" d="M376.97,-565.5C345.52,-563.07 297.09,-556.69 258.5,-540 228.54,-527.04 199.28,-501.2 185.2,-487.69"/><polygon fill="#9a32cd" stroke="#9a32cd" points="377.12 -569.02 387.34 -566.2 377.6 -562.03 377.12 -569.02"/><text x="304" y="-526.5" font-family="Helvetica,sans-Serif" font-size="10" text-anchor="middle">MetaKeyFilename</text></g><g id="node7" class="node"><title>Node7</title><g id="a_node7"><a><polygon fill="#fff" stroke="#bfbfbf" points="349.5 -615.5 349.5 -634.5 469.5 -634.5 469.5 -615.5 349.5 -615.5"/><text x="409.5" y="-622.5" font-family="Helvetica,sans-Serif" font-size="10" text-anchor="middle">basic_string&lt; Char &gt;</text></a></g></g><g id="edge6" class="edge"><title>Node7-&gt;Node6</title><path fill="none" stroke="#191970" d="M409.5,-605.12C409.5,-595.82 409.5,-585.06 409.5,-577.71"/><polygon fill="#191970" stroke="#191970" points="406 -605.41 409.5 -615.41 413 -605.41 406 -605.41"/></g><g id="node8" class="node"><title>Node8</title><g id="a_node8"><a target="_top" xlink:href="classpkgAcqMetaClearSig.xhtml" xlink:title="An item responsible for downloading clearsigned metaindexes {{{."><polygon fill="#fff" stroke="#000" points="369.5 -145.5 369.5 -164.5 487.5 -164.5 487.5 -145.5 369.5 -145.5"/><text x="428.5" y="-152.5" font-family="Helvetica,sans-Serif" font-size="10" text-anchor="middle">pkgAcqMetaClearSig</text></a></g></g><g id="edge8" class="edge"><title>Node8-&gt;Node2</title><path fill="none" stroke="#9a32cd" stroke-dasharray="5 2" d="M424.4,-135.41C423.99,-128.58 424.97,-121.24 429.5,-116 441.41,-102.22 482.78,-95.48 519.93,-92.17"/><polygon fill="#9a32cd" stroke="#9a32cd" points="420.95 -135.98 425.9 -145.35 427.87 -134.94 420.95 -135.98"/><text x="480.5" y="-119" font-family="Helvetica,sans-Serif" font-size="10" text-anchor="middle">TransactionManager</text></g><g id="edge9" class="edge"><title>Node9-&gt;Node8</title><path fill="none" stroke="#191970" d="M433.77,-213.22C432.34,-197.7 430.38,-176.36 429.29,-164.62"/><polygon fill="#191970" stroke="#191970" points="430.29 -213.65 434.7 -223.28 437.26 -213 430.29 -213.65"/></g><g id="edge12" class="edge"><title>Node10-&gt;Node8</title><path fill="none" stroke="#9a32cd" stroke-dasharray="5 2" d="M296.08,-214.09C301.42,-203.53 309.59,-190.77 320.5,-183 334.75,-172.86 352.42,-166.51 369.31,-162.54"/><polygon fill="#9a32cd" stroke="#9a32cd" points="292.84 -212.75 291.81 -223.29 299.19 -215.69 292.84 -212.75"/><text x="373.5" y="-197" font-family="Helvetica,sans-Serif" font-size="10" text-anchor="middle">LastMetaIndexParser</text><text x="373.5" y="-186" font-family="Helvetica,sans-Serif" font-size="10" text-anchor="middle">MetaIndexParser</text></g><g id="node11" class="node"><title>Node11</title><g id="a_node11"><a><polygon fill="#fff" stroke="#bfbfbf" points="195.5 -296 195.5 -315 335.5 -315 335.5 -296 195.5 -296"/><text x="265.5" y="-303" font-family="Helvetica,sans-Serif" font-size="10" text-anchor="middle">vector&lt; pkgIndexFile * &gt;</text></a></g></g><g id="edge13" class="edge"><title>Node11-&gt;Node10</title><path fill="none" stroke="#9a32cd" stroke-dasharray="5 2" d="M271.45,-286.27C276.02,-272.26 282.13,-253.53 285.66,-242.72"/><polygon fill="#9a32cd" stroke="#9a32cd" points="268.09 -285.26 268.32 -295.86 274.75 -287.43 268.09 -285.26"/><text x="300" y="-264" font-family="Helvetica,sans-Serif" font-size="10" text-anchor="middle">Indexes</text></g><g id="node12" class="node"><title>Node12</title><g id="a_node12"><a target="_top" xlink:href="classpkgIndexFile.xhtml"><polygon fill="#fff" stroke="#000" points="228 -468.5 228 -487.5 307 -487.5 307 -468.5 228 -468.5"/><text x="267.5" y="-475.5" font-family="Helvetica,sans-Serif" font-size="10" text-anchor="middle">pkgIndexFile</text></a></g></g><g id="edge14" class="edge"><title>Node12-&gt;Node11</title><path fill="none" stroke="#9a32cd" stroke-dasharray="5 2" d="M267.28,-458.02C266.85,-421.33 265.92,-341.96 265.6,-315.38"/><polygon fill="#9a32cd" stroke="#9a32cd" points="263.78 -458.35 267.4 -468.31 270.78 -458.27 263.78 -458.35"/><text x="292" y="-386" font-family="Helvetica,sans-Serif" font-size="10" text-anchor="middle">elements</text></g><g id="edge16" class="edge"><title>Node13-&gt;Node10</title><path fill="none" stroke="#9a32cd" stroke-dasharray="5 2" d="M145.87,-286.92C184.01,-272.77 235.98,-253.49 265.5,-242.53"/><polygon fill="#9a32cd" stroke="#9a32cd" points="144.65 -283.64 136.49 -290.4 147.09 -290.21 144.65 -283.64"/><text x="230" y="-264" font-family="Helvetica,sans-Serif" font-size="10" text-anchor="middle">Entries</text></g><g id="edge18" class="edge"><title>Node14-&gt;Node13</title><path fill="none" stroke="#9a32cd" stroke-dasharray="5 2" d="M168.31,-459.1C152.72,-425.03 119.1,-351.54 104.97,-320.64"/><polygon fill="#9a32cd" stroke="#9a32cd" points="165.18 -460.67 172.52 -468.31 171.55 -457.76 165.18 -460.67"/><text x="183" y="-386" font-family="Helvetica,sans-Serif" font-size="10" text-anchor="middle">elements</text></g><g id="node15" class="node"><title>Node15</title><g id="a_node15"><a target="_top" xlink:href="classHashStringList.xhtml"><polygon fill="#fff" stroke="#000" points="0 -558.5 0 -577.5 87 -577.5 87 -558.5 0 -558.5"/><text x="43.5" y="-565.5" font-family="Helvetica,sans-Serif" font-size="10" text-anchor="middle">HashStringList</text></a></g></g><g id="edge19" class="edge"><title>Node15-&gt;Node14</title><path fill="none" stroke="#9a32cd" stroke-dasharray="5 2" d="M65.38,-552.53C93.22,-534.1 140.45,-502.85 163.31,-487.72"/><polygon fill="#9a32cd" stroke="#9a32cd" points="63.15 -549.8 56.74 -558.24 67.01 -555.64 63.15 -549.8"/><text x="134.5" y="-526.5" font-family="Helvetica,sans-Serif" font-size="10" text-anchor="middle">Hashes</text></g><g id="edge22" class="edge"><title>Node16-&gt;Node1</title><path fill="none" stroke="#9a32cd" stroke-dasharray="5 2" d="M656.36,-38.02C667.99,-50.9 679.5,-68.36 679.5,-87 679.5,-306.5 679.5,-306.5 679.5,-306.5 679.5,-368.69 676.14,-443.58 674.93,-468.49"/><polygon fill="#9a32cd" stroke="#9a32cd" points="658.67 -35.38 649.2 -30.62 653.64 -40.25 658.67 -35.38"/><text x="709" y="-191.5" font-family="Helvetica,sans-Serif" font-size="10" text-anchor="middle">Transaction</text></g></g></svg>