<?xml version="1.0" encoding="UTF-8" standalone="no"?>
<!DOCTYPE svg PUBLIC "-//W3C//DTD SVG 1.1//EN"
 "http://www.w3.org/Graphics/SVG/1.1/DTD/svg11.dtd">
<!-- Generated by graphviz version 2.43.0 (0)
 -->
<!-- Title: pkgIndexFile Pages: 1 -->
<!--zoomable 294 -->
<svg id="main" version="1.1" xmlns="http://www.w3.org/2000/svg" xmlns:xlink="http://www.w3.org/1999/xlink" xml:space="preserve" onload="init(evt)">
<style type="text/css"><![CDATA[
.edge:hover path { stroke: red; }
.edge:hover polygon { stroke: red; fill: red; }
]]></style>
<script type="text/javascript"><![CDATA[
var edges = document.getElementsByTagName('g');
if (edges && edges.length) {
  for (var i=0;i<edges.length;i++) {
    if (edges[i].id.substr(0,4)=='edge') {
      edges[i].setAttribute('class','edge');
    }
  }
}
]]></script>
        <defs>
                <circle id="rim" cx="0" cy="0" r="7"/>
                <circle id="rim2" cx="0" cy="0" r="3.5"/>
                <g id="zoomPlus">
                        <use xlink:href="#rim" fill="#404040">
                                <set attributeName="fill" to="#808080" begin="zoomplus.mouseover" end="zoomplus.mouseout"/>
                        </use>
                        <path d="M-4,0h8M0,-4v8" fill="none" stroke="white" stroke-width="1.5" pointer-events="none"/>
                </g>
                <g id="zoomMin">
                        <use xlink:href="#rim" fill="#404040">
                                <set attributeName="fill" to="#808080" begin="zoomminus.mouseover" end="zoomminus.mouseout"/>
                        </use>
                        <path d="M-4,0h8" fill="none" stroke="white" stroke-width="1.5" pointer-events="none"/>
                </g>
                <g id="dirArrow">
                        <path fill="none" stroke="white" stroke-width="1.5" d="M0,-3.0v7 M-2.5,-0.5L0,-3.0L2.5,-0.5"/>
                </g>
               <g id="resetDef">
                       <use xlink:href="#rim2" fill="#404040">
                               <set attributeName="fill" to="#808080" begin="reset.mouseover" end="reset.mouseout"/>
                       </use>
               </g>
        </defs>

<script type="text/javascript">
var viewWidth = 760;
var viewHeight = 294;
var sectionId = 'dynsection-0';
</script>
<script xlink:href="svgpan.js"/>
<svg id="graph" class="graph">
<g id="viewport">
<title>pkgIndexFile</title>
<polygon fill="white" stroke="transparent" points="-4,4 -4,-290 756,-290 756,4 -4,4"/>
<!-- Node1 -->
<g id="node1" class="node">
<title>Node1</title>
<g id="a_node1"><a xlink:title=" ">
<polygon fill="#bfbfbf" stroke="black" points="0,-95.5 0,-114.5 79,-114.5 79,-95.5 0,-95.5"/>
<text text-anchor="middle" x="39.5" y="-102.5" font-family="Helvetica,sans-Serif" font-size="10.00">pkgIndexFile</text>
</a>
</g>
</g>
<!-- Node2 -->
<g id="node2" class="node">
<title>Node2</title>
<g id="a_node2"><a xlink:href="classpkgDebianIndexFile.xhtml" target="_top" xlink:title=" ">
<polygon fill="white" stroke="black" points="115,-95.5 115,-114.5 228,-114.5 228,-95.5 115,-95.5"/>
<text text-anchor="middle" x="171.5" y="-102.5" font-family="Helvetica,sans-Serif" font-size="10.00">pkgDebianIndexFile</text>
</a>
</g>
</g>
<!-- Node1&#45;&gt;Node2 -->
<g id="edge1" class="edge">
<title>Node1&#45;&gt;Node2</title>
<path fill="none" stroke="midnightblue" d="M89.16,-105C97.56,-105 106.35,-105 114.92,-105"/>
<polygon fill="midnightblue" stroke="midnightblue" points="89.15,-101.5 79.15,-105 89.15,-108.5 89.15,-101.5"/>
</g>
<!-- Node3 -->
<g id="node3" class="node">
<title>Node3</title>
<g id="a_node3"><a xlink:href="classpkgDebianIndexRealFile.xhtml" target="_top" xlink:title=" ">
<polygon fill="white" stroke="black" points="268,-171.5 268,-190.5 403,-190.5 403,-171.5 268,-171.5"/>
<text text-anchor="middle" x="335.5" y="-178.5" font-family="Helvetica,sans-Serif" font-size="10.00">pkgDebianIndexRealFile</text>
</a>
</g>
</g>
<!-- Node2&#45;&gt;Node3 -->
<g id="edge2" class="edge">
<title>Node2&#45;&gt;Node3</title>
<path fill="none" stroke="midnightblue" d="M202.47,-119.06C234.98,-134.31 286,-158.25 314.15,-171.45"/>
<polygon fill="midnightblue" stroke="midnightblue" points="203.56,-115.7 193.02,-114.63 200.58,-122.04 203.56,-115.7"/>
</g>
<!-- Node12 -->
<g id="node12" class="node">
<title>Node12</title>
<g id="a_node12"><a xlink:href="classpkgDebianIndexTargetFile.xhtml" target="_top" xlink:title=" ">
<polygon fill="white" stroke="black" points="264,-57.5 264,-76.5 407,-76.5 407,-57.5 264,-57.5"/>
<text text-anchor="middle" x="335.5" y="-64.5" font-family="Helvetica,sans-Serif" font-size="10.00">pkgDebianIndexTargetFile</text>
</a>
</g>
</g>
<!-- Node2&#45;&gt;Node12 -->
<g id="edge11" class="edge">
<title>Node2&#45;&gt;Node12</title>
<path fill="none" stroke="midnightblue" d="M223.21,-93.1C245.99,-87.76 272.49,-81.55 293.91,-76.52"/>
<polygon fill="midnightblue" stroke="midnightblue" points="222.32,-89.72 213.38,-95.41 223.91,-96.53 222.32,-89.72"/>
</g>
<!-- Node4 -->
<g id="node4" class="node">
<title>Node4</title>
<g id="a_node4"><a xlink:href="classdebDebPkgFileIndex.xhtml" target="_top" xlink:title=" ">
<polygon fill="white" stroke="black" points="450,-266.5 450,-285.5 566,-285.5 566,-266.5 450,-266.5"/>
<text text-anchor="middle" x="508" y="-273.5" font-family="Helvetica,sans-Serif" font-size="10.00">debDebPkgFileIndex</text>
</a>
</g>
</g>
<!-- Node3&#45;&gt;Node4 -->
<g id="edge3" class="edge">
<title>Node3&#45;&gt;Node4</title>
<path fill="none" stroke="midnightblue" d="M355.05,-197.18C375.39,-214.18 409.6,-240.69 443,-257 450.6,-260.71 459.07,-263.85 467.3,-266.44"/>
<polygon fill="midnightblue" stroke="midnightblue" points="357.11,-194.33 347.22,-190.53 352.58,-199.67 357.11,-194.33"/>
</g>
<!-- Node5 -->
<g id="node5" class="node">
<title>Node5</title>
<g id="a_node5"><a xlink:href="classdebDscFileIndex.xhtml" target="_top" xlink:title=" ">
<polygon fill="white" stroke="black" points="459.5,-228.5 459.5,-247.5 556.5,-247.5 556.5,-228.5 459.5,-228.5"/>
<text text-anchor="middle" x="508" y="-235.5" font-family="Helvetica,sans-Serif" font-size="10.00">debDscFileIndex</text>
</a>
</g>
</g>
<!-- Node3&#45;&gt;Node5 -->
<g id="edge4" class="edge">
<title>Node3&#45;&gt;Node5</title>
<path fill="none" stroke="midnightblue" d="M371.81,-194.14C392.47,-201.69 419.1,-211.2 443,-219 452.92,-222.24 463.77,-225.55 473.68,-228.48"/>
<polygon fill="midnightblue" stroke="midnightblue" points="372.78,-190.77 362.19,-190.61 370.37,-197.34 372.78,-190.77"/>
</g>
<!-- Node7 -->
<g id="node7" class="node">
<title>Node7</title>
<g id="a_node7"><a xlink:href="classdebStatusIndex.xhtml" target="_top" xlink:title=" ">
<polygon fill="white" stroke="black" points="462,-190.5 462,-209.5 554,-209.5 554,-190.5 462,-190.5"/>
<text text-anchor="middle" x="508" y="-197.5" font-family="Helvetica,sans-Serif" font-size="10.00">debStatusIndex</text>
</a>
</g>
</g>
<!-- Node3&#45;&gt;Node7 -->
<g id="edge6" class="edge">
<title>Node3&#45;&gt;Node7</title>
<path fill="none" stroke="midnightblue" d="M413.6,-189.59C430.1,-191.43 447.01,-193.32 461.84,-194.97"/>
<polygon fill="midnightblue" stroke="midnightblue" points="413.72,-186.08 403.4,-188.45 412.95,-193.04 413.72,-186.08"/>
</g>
<!-- Node8 -->
<g id="node8" class="node">
<title>Node8</title>
<g id="a_node8"><a xlink:href="classdebStringPackageIndex.xhtml" target="_top" xlink:title=" ">
<polygon fill="white" stroke="black" points="443,-152.5 443,-171.5 573,-171.5 573,-152.5 443,-152.5"/>
<text text-anchor="middle" x="508" y="-159.5" font-family="Helvetica,sans-Serif" font-size="10.00">debStringPackageIndex</text>
</a>
</g>
</g>
<!-- Node3&#45;&gt;Node8 -->
<g id="edge7" class="edge">
<title>Node3&#45;&gt;Node8</title>
<path fill="none" stroke="midnightblue" d="M413.52,-172.42C423.31,-171.33 433.25,-170.22 442.81,-169.15"/>
<polygon fill="midnightblue" stroke="midnightblue" points="412.95,-168.96 403.4,-173.55 413.72,-175.92 412.95,-168.96"/>
</g>
<!-- Node9 -->
<g id="node9" class="node">
<title>Node9</title>
<g id="a_node9"><a xlink:href="classedspLikeIndex.xhtml" target="_top" xlink:title=" ">
<polygon fill="white" stroke="black" points="465,-114.5 465,-133.5 551,-133.5 551,-114.5 465,-114.5"/>
<text text-anchor="middle" x="508" y="-121.5" font-family="Helvetica,sans-Serif" font-size="10.00">edspLikeIndex</text>
</a>
</g>
</g>
<!-- Node3&#45;&gt;Node9 -->
<g id="edge8" class="edge">
<title>Node3&#45;&gt;Node9</title>
<path fill="none" stroke="midnightblue" d="M371.81,-167.86C392.47,-160.31 419.1,-150.8 443,-143 452.92,-139.76 463.77,-136.45 473.68,-133.52"/>
<polygon fill="midnightblue" stroke="midnightblue" points="370.37,-164.66 362.19,-171.39 372.78,-171.23 370.37,-164.66"/>
</g>
<!-- Node6 -->
<g id="node6" class="node">
<title>Node6</title>
<g id="a_node6"><a xlink:href="classdebDebianSourceDirIndex.xhtml" target="_top" xlink:title=" ">
<polygon fill="white" stroke="black" points="609,-228.5 609,-247.5 752,-247.5 752,-228.5 609,-228.5"/>
<text text-anchor="middle" x="680.5" y="-235.5" font-family="Helvetica,sans-Serif" font-size="10.00">debDebianSourceDirIndex</text>
</a>
</g>
</g>
<!-- Node5&#45;&gt;Node6 -->
<g id="edge5" class="edge">
<title>Node5&#45;&gt;Node6</title>
<path fill="none" stroke="midnightblue" d="M566.98,-238C580.38,-238 594.8,-238 608.68,-238"/>
<polygon fill="midnightblue" stroke="midnightblue" points="566.95,-234.5 556.95,-238 566.95,-241.5 566.95,-234.5"/>
</g>
<!-- Node10 -->
<g id="node10" class="node">
<title>Node10</title>
<g id="a_node10"><a xlink:href="classedspIndex.xhtml" target="_top" xlink:title=" ">
<polygon fill="white" stroke="black" points="647,-133.5 647,-152.5 714,-152.5 714,-133.5 647,-133.5"/>
<text text-anchor="middle" x="680.5" y="-140.5" font-family="Helvetica,sans-Serif" font-size="10.00">edspIndex</text>
</a>
</g>
</g>
<!-- Node9&#45;&gt;Node10 -->
<g id="edge9" class="edge">
<title>Node9&#45;&gt;Node10</title>
<path fill="none" stroke="midnightblue" d="M561.16,-129.81C589.12,-132.93 622.69,-136.67 646.92,-139.37"/>
<polygon fill="midnightblue" stroke="midnightblue" points="561.47,-126.33 551.15,-128.7 560.7,-133.28 561.47,-126.33"/>
</g>
<!-- Node11 -->
<g id="node11" class="node">
<title>Node11</title>
<g id="a_node11"><a xlink:href="classeippIndex.xhtml" target="_top" xlink:title=" ">
<polygon fill="white" stroke="black" points="648,-95.5 648,-114.5 713,-114.5 713,-95.5 648,-95.5"/>
<text text-anchor="middle" x="680.5" y="-102.5" font-family="Helvetica,sans-Serif" font-size="10.00">eippIndex</text>
</a>
</g>
</g>
<!-- Node9&#45;&gt;Node11 -->
<g id="edge10" class="edge">
<title>Node9&#45;&gt;Node11</title>
<path fill="none" stroke="midnightblue" d="M561.27,-118.18C589.51,-115.03 623.47,-111.24 647.73,-108.54"/>
<polygon fill="midnightblue" stroke="midnightblue" points="560.7,-114.72 551.15,-119.3 561.47,-121.67 560.7,-114.72"/>
</g>
<!-- Node13 -->
<g id="node13" class="node">
<title>Node13</title>
<g id="a_node13"><a xlink:href="classdebPackagesIndex.xhtml" target="_top" xlink:title=" ">
<polygon fill="white" stroke="black" points="454.5,-76.5 454.5,-95.5 561.5,-95.5 561.5,-76.5 454.5,-76.5"/>
<text text-anchor="middle" x="508" y="-83.5" font-family="Helvetica,sans-Serif" font-size="10.00">debPackagesIndex</text>
</a>
</g>
</g>
<!-- Node12&#45;&gt;Node13 -->
<g id="edge12" class="edge">
<title>Node12&#45;&gt;Node13</title>
<path fill="none" stroke="midnightblue" d="M417.35,-76.01C429.92,-77.41 442.61,-78.82 454.33,-80.13"/>
<polygon fill="midnightblue" stroke="midnightblue" points="417.65,-72.52 407.33,-74.89 416.88,-79.48 417.65,-72.52"/>
</g>
<!-- Node14 -->
<g id="node14" class="node">
<title>Node14</title>
<g id="a_node14"><a xlink:href="classdebSourcesIndex.xhtml" target="_top" xlink:title=" ">
<polygon fill="white" stroke="black" points="458,-38.5 458,-57.5 558,-57.5 558,-38.5 458,-38.5"/>
<text text-anchor="middle" x="508" y="-45.5" font-family="Helvetica,sans-Serif" font-size="10.00">debSourcesIndex</text>
</a>
</g>
</g>
<!-- Node12&#45;&gt;Node14 -->
<g id="edge13" class="edge">
<title>Node12&#45;&gt;Node14</title>
<path fill="none" stroke="midnightblue" d="M417.37,-57.99C431.22,-56.44 445.23,-54.88 457.93,-53.47"/>
<polygon fill="midnightblue" stroke="midnightblue" points="416.88,-54.52 407.33,-59.11 417.65,-61.48 416.88,-54.52"/>
</g>
<!-- Node15 -->
<g id="node15" class="node">
<title>Node15</title>
<g id="a_node15"><a xlink:href="classdebTranslationsIndex.xhtml" target="_top" xlink:title=" ">
<polygon fill="white" stroke="black" points="448,-0.5 448,-19.5 568,-19.5 568,-0.5 448,-0.5"/>
<text text-anchor="middle" x="508" y="-7.5" font-family="Helvetica,sans-Serif" font-size="10.00">debTranslationsIndex</text>
</a>
</g>
</g>
<!-- Node12&#45;&gt;Node15 -->
<g id="edge14" class="edge">
<title>Node12&#45;&gt;Node15</title>
<path fill="none" stroke="midnightblue" d="M371.81,-53.86C392.47,-46.31 419.1,-36.8 443,-29 452.92,-25.76 463.77,-22.45 473.68,-19.52"/>
<polygon fill="midnightblue" stroke="midnightblue" points="370.37,-50.66 362.19,-57.39 372.78,-57.23 370.37,-50.66"/>
</g>
</g>
</svg>
        <g id="navigator" transform="translate(0 0)" fill="#404254">
                <rect fill="#f2f5e9" fill-opacity="0.5" stroke="#606060" stroke-width=".5" x="0" y="0" width="60" height="60"/>
                <use id="zoomplus" xlink:href="#zoomPlus" x="17" y="9" onmousedown="handleZoom(evt,'in')"/>
                <use id="zoomminus" xlink:href="#zoomMin" x="42" y="9" onmousedown="handleZoom(evt,'out')"/>
                <use id="reset" xlink:href="#resetDef" x="30" y="36" onmousedown="handleReset()"/>
                <g id="arrowUp" xlink:href="#dirArrow" transform="translate(30 24)" onmousedown="handlePan(0,-1)">
                  <use xlink:href="#rim" fill="#404040">
                        <set attributeName="fill" to="#808080" begin="arrowUp.mouseover" end="arrowUp.mouseout"/>
                  </use>
                  <path fill="none" stroke="white" stroke-width="1.5" d="M0,-3.0v7 M-2.5,-0.5L0,-3.0L2.5,-0.5"/>
                </g>
                <g id="arrowRight" xlink:href="#dirArrow" transform="rotate(90) translate(36 -43)" onmousedown="handlePan(1,0)">
                  <use xlink:href="#rim" fill="#404040">
                        <set attributeName="fill" to="#808080" begin="arrowRight.mouseover" end="arrowRight.mouseout"/>
                  </use>
                  <path fill="none" stroke="white" stroke-width="1.5" d="M0,-3.0v7 M-2.5,-0.5L0,-3.0L2.5,-0.5"/>
                </g>
                <g id="arrowDown" xlink:href="#dirArrow" transform="rotate(180) translate(-30 -48)" onmousedown="handlePan(0,1)">
                  <use xlink:href="#rim" fill="#404040">
                        <set attributeName="fill" to="#808080" begin="arrowDown.mouseover" end="arrowDown.mouseout"/>
                  </use>
                  <path fill="none" stroke="white" stroke-width="1.5" d="M0,-3.0v7 M-2.5,-0.5L0,-3.0L2.5,-0.5"/>
                </g>
                <g id="arrowLeft" xlink:href="#dirArrow" transform="rotate(270) translate(-36 17)" onmousedown="handlePan(-1,0)">
                  <use xlink:href="#rim" fill="#404040">
                        <set attributeName="fill" to="#808080" begin="arrowLeft.mouseover" end="arrowLeft.mouseout"/>
                  </use>
                  <path fill="none" stroke="white" stroke-width="1.5" d="M0,-3.0v7 M-2.5,-0.5L0,-3.0L2.5,-0.5"/>
                </g>
        </g>
        <svg viewBox="0 0 15 15" width="100%" height="30px" preserveAspectRatio="xMaxYMin meet">
         <g id="arrow_out" transform="scale(0.3 0.3)">
          <a xlink:href="classpkgIndexFile__inherit__graph_org.svg" target="_base">
           <rect id="button" ry="5" rx="5" y="6" x="6" height="38" width="38"
                fill="#f2f5e9" fill-opacity="0.5" stroke="#606060" stroke-width="1.0"/>
           <path id="arrow"
             d="M 11.500037,31.436501 C 11.940474,20.09759 22.043105,11.32322 32.158766,21.979434 L 37.068811,17.246167 C 37.068811,17.246167 37.088388,32 37.088388,32 L 22.160133,31.978069 C 22.160133,31.978069 26.997745,27.140456 26.997745,27.140456 C 18.528582,18.264221 13.291696,25.230495 11.500037,31.436501 z"
             style="fill:#404040;"/>
          </a>
         </g>
        </svg>
</svg>
