<svg xmlns="http://www.w3.org/2000/svg" xmlns:xlink="http://www.w3.org/1999/xlink" width="188" height="196pt" viewBox="0 0 141 196"><g id="graph0" class="graph" transform="scale(1 1) rotate(0) translate(4 192)"><title>pkgAcqIndexMergeDiffs</title><polygon fill="#fff" stroke="transparent" points="-4 4 -4 -192 137 -192 137 4 -4 4"/><g id="node1" class="node"><title>Node1</title><g id="a_node1"><a xlink:title="An item that is responsible for fetching client-merge patches {{{ that need to be applied to a given ..."><polygon fill="#bfbfbf" stroke="#000" points="0 -.5 0 -19.5 133 -19.5 133 -.5 0 -.5"/><text x="66.5" y="-7.5" font-family="Helvetica,sans-Serif" font-size="10" text-anchor="middle">pkgAcqIndexMergeDiffs</text></a></g></g><g id="node2" class="node"><title>Node2</title><g id="a_node2"><a target="_top" xlink:href="classpkgAcqBaseIndex.xhtml" xlink:title="Common base class for all classes that deal with fetching indexes {{{."><polygon fill="#fff" stroke="#000" points="14.5 -56.5 14.5 -75.5 118.5 -75.5 118.5 -56.5 14.5 -56.5"/><text x="66.5" y="-63.5" font-family="Helvetica,sans-Serif" font-size="10" text-anchor="middle">pkgAcqBaseIndex</text></a></g></g><g id="edge1" class="edge"><title>Node2-&gt;Node1</title><path fill="none" stroke="#191970" d="M66.5,-45.8C66.5,-36.91 66.5,-26.78 66.5,-19.75"/><polygon fill="#191970" stroke="#191970" points="63 -46.08 66.5 -56.08 70 -46.08 63 -46.08"/></g><g id="node3" class="node"><title>Node3</title><g id="a_node3"><a target="_top" xlink:href="classpkgAcqTransactionItem.xhtml" xlink:title="baseclass for the indexes files to manage them all together"><polygon fill="#fff" stroke="#000" points="1 -112.5 1 -131.5 132 -131.5 132 -112.5 1 -112.5"/><text x="66.5" y="-119.5" font-family="Helvetica,sans-Serif" font-size="10" text-anchor="middle">pkgAcqTransactionItem</text></a></g></g><g id="edge2" class="edge"><title>Node3-&gt;Node2</title><path fill="none" stroke="#191970" d="M66.5,-101.8C66.5,-92.91 66.5,-82.78 66.5,-75.75"/><polygon fill="#191970" stroke="#191970" points="63 -102.08 66.5 -112.08 70 -102.08 63 -102.08"/></g><g id="node4" class="node"><title>Node4</title><g id="a_node4"><a><polygon fill="#fff" stroke="#bfbfbf" points="47 -168.5 47 -187.5 86 -187.5 86 -168.5 47 -168.5"/><text x="66.5" y="-175.5" font-family="Helvetica,sans-Serif" font-size="10" text-anchor="middle">Item</text></a></g></g><g id="edge3" class="edge"><title>Node4-&gt;Node3</title><path fill="none" stroke="#191970" d="M66.5,-157.8C66.5,-148.91 66.5,-138.78 66.5,-131.75"/><polygon fill="#191970" stroke="#191970" points="63 -158.08 66.5 -168.08 70 -158.08 63 -158.08"/></g></g></svg>