<?xml version="1.0" encoding="UTF-8" standalone="no"?>
<!DOCTYPE svg PUBLIC "-//W3C//DTD SVG 1.1//EN"
 "http://www.w3.org/Graphics/SVG/1.1/DTD/svg11.dtd">
<!-- Generated by graphviz version 2.43.0 (0)
 -->
<!-- Title: edspSystem Pages: 1 -->
<svg width="346pt" height="219pt"
 viewBox="0.00 0.00 345.50 219.00" xmlns="http://www.w3.org/2000/svg" xmlns:xlink="http://www.w3.org/1999/xlink">
<g id="graph0" class="graph" transform="scale(1 1) rotate(0) translate(4 215)">
<title>edspSystem</title>
<polygon fill="white" stroke="transparent" points="-4,4 -4,-215 341.5,-215 341.5,4 -4,4"/>
<!-- Node1 -->
<g id="node1" class="node">
<title>Node1</title>
<g id="a_node1"><a xlink:title=" ">
<polygon fill="#bfbfbf" stroke="black" points="172.5,-0.5 172.5,-19.5 249.5,-19.5 249.5,-0.5 172.5,-0.5"/>
<text text-anchor="middle" x="211" y="-7.5" font-family="Helvetica,sans-Serif" font-size="10.00">edspSystem</text>
</a>
</g>
</g>
<!-- Node2 -->
<g id="node2" class="node">
<title>Node2</title>
<g id="a_node2"><a xlink:href="classedspLikeSystem.xhtml" target="_top" xlink:title=" ">
<polygon fill="white" stroke="black" points="163,-57.5 163,-76.5 259,-76.5 259,-57.5 163,-57.5"/>
<text text-anchor="middle" x="211" y="-64.5" font-family="Helvetica,sans-Serif" font-size="10.00">edspLikeSystem</text>
</a>
</g>
</g>
<!-- Node2&#45;&gt;Node1 -->
<g id="edge1" class="edge">
<title>Node2&#45;&gt;Node1</title>
<path fill="none" stroke="midnightblue" d="M211,-47.12C211,-37.82 211,-27.06 211,-19.71"/>
<polygon fill="midnightblue" stroke="midnightblue" points="207.5,-47.41 211,-57.41 214.5,-47.41 207.5,-47.41"/>
</g>
<!-- Node3 -->
<g id="node3" class="node">
<title>Node3</title>
<g id="a_node3"><a xlink:href="classpkgSystem.xhtml" target="_top" xlink:title=" ">
<polygon fill="white" stroke="black" points="25.5,-124.5 25.5,-143.5 96.5,-143.5 96.5,-124.5 25.5,-124.5"/>
<text text-anchor="middle" x="61" y="-131.5" font-family="Helvetica,sans-Serif" font-size="10.00">pkgSystem</text>
</a>
</g>
</g>
<!-- Node3&#45;&gt;Node2 -->
<g id="edge2" class="edge">
<title>Node3&#45;&gt;Node2</title>
<path fill="none" stroke="midnightblue" d="M90.35,-120.28C120.06,-107.41 165.18,-87.85 191,-76.67"/>
<polygon fill="midnightblue" stroke="midnightblue" points="88.7,-117.18 80.92,-124.37 91.49,-123.6 88.7,-117.18"/>
</g>
<!-- Node3&#45;&gt;Node3 -->
<g id="edge3" class="edge">
<title>Node3&#45;&gt;Node3</title>
<path fill="none" stroke="#9a32cd" stroke-dasharray="5,2" d="M106.78,-138.95C111.49,-137.97 114.5,-136.32 114.5,-134 114.5,-130.28 106.79,-128.29 96.75,-128.03"/>
<polygon fill="#9a32cd" stroke="#9a32cd" points="106.35,-135.47 96.75,-139.97 107.06,-142.44 106.35,-135.47"/>
<text text-anchor="middle" x="140.5" y="-131.5" font-family="Helvetica,sans-Serif" font-size="10.00"> GlobalList</text>
</g>
<!-- Node4 -->
<g id="node4" class="node">
<title>Node4</title>
<g id="a_node4"><a xlink:href="classpkgVersioningSystem.xhtml" target="_top" xlink:title=" ">
<polygon fill="white" stroke="black" points="0,-191.5 0,-210.5 122,-210.5 122,-191.5 0,-191.5"/>
<text text-anchor="middle" x="61" y="-198.5" font-family="Helvetica,sans-Serif" font-size="10.00">pkgVersioningSystem</text>
</a>
</g>
</g>
<!-- Node4&#45;&gt;Node3 -->
<g id="edge4" class="edge">
<title>Node4&#45;&gt;Node3</title>
<path fill="none" stroke="#9a32cd" stroke-dasharray="5,2" d="M61,-181.04C61,-168.67 61,-153.12 61,-143.63"/>
<polygon fill="#9a32cd" stroke="#9a32cd" points="57.5,-181.23 61,-191.23 64.5,-181.23 57.5,-181.23"/>
<text text-anchor="middle" x="69" y="-165" font-family="Helvetica,sans-Serif" font-size="10.00"> VS</text>
</g>
<!-- Node4&#45;&gt;Node4 -->
<g id="edge5" class="edge">
<title>Node4&#45;&gt;Node4</title>
<path fill="none" stroke="#9a32cd" stroke-dasharray="5,2" d="M132.49,-205.28C137.17,-204.28 140,-202.86 140,-201 140,-198.03 132.75,-196.16 122.28,-195.4"/>
<polygon fill="#9a32cd" stroke="#9a32cd" points="131.74,-201.84 122.28,-206.6 132.65,-208.78 131.74,-201.84"/>
<text text-anchor="middle" x="166" y="-198.5" font-family="Helvetica,sans-Serif" font-size="10.00"> GlobalList</text>
</g>
<!-- Node5 -->
<g id="node5" class="node">
<title>Node5</title>
<g id="a_node5"><a xlink:title=" ">
<polygon fill="white" stroke="#bfbfbf" points="184.5,-124.5 184.5,-143.5 337.5,-143.5 337.5,-124.5 184.5,-124.5"/>
<text text-anchor="middle" x="261" y="-131.5" font-family="Helvetica,sans-Serif" font-size="10.00">unique_ptr&lt; pkgIndexFile &gt;</text>
</a>
</g>
</g>
<!-- Node5&#45;&gt;Node2 -->
<g id="edge6" class="edge">
<title>Node5&#45;&gt;Node2</title>
<path fill="none" stroke="#9a32cd" stroke-dasharray="5,2" d="M248.13,-116.27C238.38,-103.6 225.39,-86.7 217.64,-76.63"/>
<polygon fill="#9a32cd" stroke="#9a32cd" points="245.39,-118.44 254.26,-124.23 250.93,-114.17 245.39,-118.44"/>
<text text-anchor="middle" x="264" y="-98" font-family="Helvetica,sans-Serif" font-size="10.00"> StatusFile</text>
</g>
</g>
</svg>
