<?xml version="1.0" encoding="UTF-8" standalone="no"?>
<!DOCTYPE svg PUBLIC "-//W3C//DTD SVG 1.1//EN"
 "http://www.w3.org/Graphics/SVG/1.1/DTD/svg11.dtd">
<!-- Generated by graphviz version 2.43.0 (0)
 -->
<!-- Title: debTranslationsParser Pages: 1 -->
<svg width="312pt" height="152pt"
 viewBox="0.00 0.00 312.00 152.00" xmlns="http://www.w3.org/2000/svg" xmlns:xlink="http://www.w3.org/1999/xlink">
<g id="graph0" class="graph" transform="scale(1 1) rotate(0) translate(4 148)">
<title>debTranslationsParser</title>
<polygon fill="white" stroke="transparent" points="-4,4 -4,-148 308,-148 308,4 -4,4"/>
<!-- Node1 -->
<g id="node1" class="node">
<title>Node1</title>
<g id="a_node1"><a xlink:title=" ">
<polygon fill="#bfbfbf" stroke="black" points="112.5,-0.5 112.5,-19.5 235.5,-19.5 235.5,-0.5 112.5,-0.5"/>
<text text-anchor="middle" x="174" y="-7.5" font-family="Helvetica,sans-Serif" font-size="10.00">debTranslationsParser</text>
</a>
</g>
</g>
<!-- Node2 -->
<g id="node2" class="node">
<title>Node2</title>
<g id="a_node2"><a xlink:href="classdebListParser.xhtml" target="_top" xlink:title=" ">
<polygon fill="white" stroke="black" points="133,-57.5 133,-76.5 215,-76.5 215,-57.5 133,-57.5"/>
<text text-anchor="middle" x="174" y="-64.5" font-family="Helvetica,sans-Serif" font-size="10.00">debListParser</text>
</a>
</g>
</g>
<!-- Node2&#45;&gt;Node1 -->
<g id="edge1" class="edge">
<title>Node2&#45;&gt;Node1</title>
<path fill="none" stroke="midnightblue" d="M174,-47.12C174,-37.82 174,-27.06 174,-19.71"/>
<polygon fill="midnightblue" stroke="midnightblue" points="170.5,-47.41 174,-57.41 177.5,-47.41 170.5,-47.41"/>
</g>
<!-- Node3 -->
<g id="node3" class="node">
<title>Node3</title>
<g id="a_node3"><a xlink:href="classpkgCacheListParser.xhtml" target="_top" xlink:title=" ">
<polygon fill="white" stroke="black" points="0,-124.5 0,-143.5 112,-143.5 112,-124.5 0,-124.5"/>
<text text-anchor="middle" x="56" y="-131.5" font-family="Helvetica,sans-Serif" font-size="10.00">pkgCacheListParser</text>
</a>
</g>
</g>
<!-- Node3&#45;&gt;Node2 -->
<g id="edge2" class="edge">
<title>Node3&#45;&gt;Node2</title>
<path fill="none" stroke="midnightblue" d="M80.89,-119.29C104.28,-106.4 138.56,-87.52 158.34,-76.63"/>
<polygon fill="midnightblue" stroke="midnightblue" points="78.98,-116.34 71.91,-124.23 82.36,-122.47 78.98,-116.34"/>
</g>
<!-- Node4 -->
<g id="node4" class="node">
<title>Node4</title>
<g id="a_node4"><a xlink:href="classpkgTagSection.xhtml" target="_top" xlink:title=" ">
<polygon fill="white" stroke="black" points="130.5,-124.5 130.5,-143.5 217.5,-143.5 217.5,-124.5 130.5,-124.5"/>
<text text-anchor="middle" x="174" y="-131.5" font-family="Helvetica,sans-Serif" font-size="10.00">pkgTagSection</text>
</a>
</g>
</g>
<!-- Node4&#45;&gt;Node2 -->
<g id="edge3" class="edge">
<title>Node4&#45;&gt;Node2</title>
<path fill="none" stroke="#9a32cd" stroke-dasharray="5,2" d="M174,-114.04C174,-101.67 174,-86.12 174,-76.63"/>
<polygon fill="#9a32cd" stroke="#9a32cd" points="170.5,-114.23 174,-124.23 177.5,-114.23 170.5,-114.23"/>
<text text-anchor="middle" x="194" y="-98" font-family="Helvetica,sans-Serif" font-size="10.00"> Section</text>
</g>
<!-- Node5 -->
<g id="node5" class="node">
<title>Node5</title>
<g id="a_node5"><a xlink:href="classpkgTagFile.xhtml" target="_top" xlink:title=" ">
<polygon fill="white" stroke="black" points="236,-124.5 236,-143.5 304,-143.5 304,-124.5 236,-124.5"/>
<text text-anchor="middle" x="270" y="-131.5" font-family="Helvetica,sans-Serif" font-size="10.00">pkgTagFile</text>
</a>
</g>
</g>
<!-- Node5&#45;&gt;Node2 -->
<g id="edge4" class="edge">
<title>Node5&#45;&gt;Node2</title>
<path fill="none" stroke="#9a32cd" stroke-dasharray="5,2" d="M250.49,-118.17C240.84,-110.98 228.95,-102.34 218,-95 208.47,-88.61 197.47,-81.86 188.85,-76.71"/>
<polygon fill="#9a32cd" stroke="#9a32cd" points="248.53,-121.07 258.62,-124.28 252.73,-115.47 248.53,-121.07"/>
<text text-anchor="middle" x="244.5" y="-98" font-family="Helvetica,sans-Serif" font-size="10.00"> Tags</text>
</g>
</g>
</svg>
