<svg xmlns="http://www.w3.org/2000/svg" xmlns:xlink="http://www.w3.org/1999/xlink" width="178pt" height="140pt" viewBox="0 0 177.5 140"><g id="graph0" class="graph" transform="scale(1 1) rotate(0) translate(4 136)"><title>edspLikeSystem</title><polygon fill="#fff" stroke="transparent" points="-4 4 -4 -136 173.5 -136 173.5 4 -4 4"/><g id="node1" class="node"><title>Node1</title><g id="a_node1"><a><polygon fill="#bfbfbf" stroke="#000" points="37.5 -56.5 37.5 -75.5 133.5 -75.5 133.5 -56.5 37.5 -56.5"/><text x="85.5" y="-63.5" font-family="Helvetica,sans-Serif" font-size="10" text-anchor="middle">edspLikeSystem</text></a></g></g><g id="node3" class="node"><title>Node3</title><g id="a_node3"><a target="_top" xlink:href="classedspSystem.xhtml"><polygon fill="#fff" stroke="#000" points="0 -.5 0 -19.5 77 -19.5 77 -.5 0 -.5"/><text x="38.5" y="-7.5" font-family="Helvetica,sans-Serif" font-size="10" text-anchor="middle">edspSystem</text></a></g></g><g id="edge2" class="edge"><title>Node1-&gt;Node3</title><path fill="none" stroke="#191970" d="M71.08,-48.43C62.84,-38.97 52.85,-27.48 46.12,-19.75"/><polygon fill="#191970" stroke="#191970" points="68.53 -50.84 77.74 -56.08 73.81 -46.24 68.53 -50.84"/></g><g id="node4" class="node"><title>Node4</title><g id="a_node4"><a target="_top" xlink:href="classeippSystem.xhtml"><polygon fill="#fff" stroke="#000" points="95.5 -.5 95.5 -19.5 169.5 -19.5 169.5 -.5 95.5 -.5"/><text x="132.5" y="-7.5" font-family="Helvetica,sans-Serif" font-size="10" text-anchor="middle">eippSystem</text></a></g></g><g id="edge3" class="edge"><title>Node1-&gt;Node4</title><path fill="none" stroke="#191970" d="M99.92,-48.43C108.16,-38.97 118.15,-27.48 124.88,-19.75"/><polygon fill="#191970" stroke="#191970" points="97.19 -46.24 93.26 -56.08 102.47 -50.84 97.19 -46.24"/></g><g id="node2" class="node"><title>Node2</title><g id="a_node2"><a target="_top" xlink:href="classpkgSystem.xhtml"><polygon fill="#fff" stroke="#000" points="50 -112.5 50 -131.5 121 -131.5 121 -112.5 50 -112.5"/><text x="85.5" y="-119.5" font-family="Helvetica,sans-Serif" font-size="10" text-anchor="middle">pkgSystem</text></a></g></g><g id="edge1" class="edge"><title>Node2-&gt;Node1</title><path fill="none" stroke="#191970" d="M85.5,-101.8C85.5,-92.91 85.5,-82.78 85.5,-75.75"/><polygon fill="#191970" stroke="#191970" points="82 -102.08 85.5 -112.08 89 -102.08 82 -102.08"/></g></g></svg>