<svg xmlns="http://www.w3.org/2000/svg" xmlns:xlink="http://www.w3.org/1999/xlink" width="316" height="266pt" viewBox="0 0 236.5 266"><g id="graph0" class="graph" transform="scale(1 1) rotate(0) translate(4 262)"><title>debDebianSourceDirIndex</title><polygon fill="#fff" stroke="transparent" points="-4 4 -4 -262 232.5 -262 232.5 4 -4 4"/><g id="node1" class="node"><title>Node1</title><g id="a_node1"><a><polygon fill="#bfbfbf" stroke="#000" points="33 -.5 33 -19.5 176 -19.5 176 -.5 33 -.5"/><text x="104.5" y="-7.5" font-family="Helvetica,sans-Serif" font-size="10" text-anchor="middle">debDebianSourceDirIndex</text></a></g></g><g id="node2" class="node"><title>Node2</title><g id="a_node2"><a target="_top" xlink:href="classdebDscFileIndex.xhtml"><polygon fill="#fff" stroke="#000" points="56 -57.5 56 -76.5 153 -76.5 153 -57.5 56 -57.5"/><text x="104.5" y="-64.5" font-family="Helvetica,sans-Serif" font-size="10" text-anchor="middle">debDscFileIndex</text></a></g></g><g id="edge1" class="edge"><title>Node2-&gt;Node1</title><path fill="none" stroke="#191970" d="M104.5,-47.12C104.5,-37.82 104.5,-27.06 104.5,-19.71"/><polygon fill="#191970" stroke="#191970" points="101 -47.41 104.5 -57.41 108 -47.41 101 -47.41"/></g><g id="node3" class="node"><title>Node3</title><g id="a_node3"><a target="_top" xlink:href="classpkgDebianIndexRealFile.xhtml"><polygon fill="#fff" stroke="#000" points="37 -114.5 37 -133.5 172 -133.5 172 -114.5 37 -114.5"/><text x="104.5" y="-121.5" font-family="Helvetica,sans-Serif" font-size="10" text-anchor="middle">pkgDebianIndexRealFile</text></a></g></g><g id="edge2" class="edge"><title>Node3-&gt;Node2</title><path fill="none" stroke="#191970" d="M104.5,-104.12C104.5,-94.82 104.5,-84.06 104.5,-76.71"/><polygon fill="#191970" stroke="#191970" points="101 -104.41 104.5 -114.41 108 -104.41 101 -104.41"/></g><g id="node4" class="node"><title>Node4</title><g id="a_node4"><a target="_top" xlink:href="classpkgDebianIndexFile.xhtml"><polygon fill="#fff" stroke="#000" points="0 -181.5 0 -200.5 113 -200.5 113 -181.5 0 -181.5"/><text x="56.5" y="-188.5" font-family="Helvetica,sans-Serif" font-size="10" text-anchor="middle">pkgDebianIndexFile</text></a></g></g><g id="edge3" class="edge"><title>Node4-&gt;Node3</title><path fill="none" stroke="#191970" d="M69.12,-172.9C78.45,-160.27 90.76,-143.6 98.13,-133.63"/><polygon fill="#191970" stroke="#191970" points="66.1 -171.11 62.97 -181.23 71.73 -175.27 66.1 -171.11"/></g><g id="node5" class="node"><title>Node5</title><g id="a_node5"><a target="_top" xlink:href="classpkgIndexFile.xhtml"><polygon fill="#fff" stroke="#000" points="12 -238.5 12 -257.5 91 -257.5 91 -238.5 12 -238.5"/><text x="51.5" y="-245.5" font-family="Helvetica,sans-Serif" font-size="10" text-anchor="middle">pkgIndexFile</text></a></g></g><g id="edge4" class="edge"><title>Node5-&gt;Node4</title><path fill="none" stroke="#191970" d="M53.19,-228.42C54.04,-219.05 55.03,-208.14 55.71,-200.71"/><polygon fill="#191970" stroke="#191970" points="49.7 -228.13 52.28 -238.41 56.67 -228.76 49.7 -228.13"/></g><g id="node6" class="node"><title>Node6</title><g id="a_node6"><a><polygon fill="#fff" stroke="#bfbfbf" points="141.5 -181.5 141.5 -200.5 185.5 -200.5 185.5 -181.5 141.5 -181.5"/><text x="163.5" y="-188.5" font-family="Helvetica,sans-Serif" font-size="10" text-anchor="middle">string</text></a></g></g><g id="edge5" class="edge"><title>Node6-&gt;Node3</title><path fill="none" stroke="#9a32cd" stroke-dasharray="5 2" d="M148.65,-173.63C137.11,-160.92 121.56,-143.8 112.33,-133.63"/><polygon fill="#9a32cd" stroke="#9a32cd" points="146.23 -176.18 155.54 -181.23 151.41 -171.48 146.23 -176.18"/><text x="149" y="-155" font-family="Helvetica,sans-Serif" font-size="10" text-anchor="middle">File</text></g><g id="node7" class="node"><title>Node7</title><g id="a_node7"><a><polygon fill="#fff" stroke="#bfbfbf" points="108.5 -238.5 108.5 -257.5 228.5 -257.5 228.5 -238.5 108.5 -238.5"/><text x="168.5" y="-245.5" font-family="Helvetica,sans-Serif" font-size="10" text-anchor="middle">basic_string&lt; Char &gt;</text></a></g></g><g id="edge6" class="edge"><title>Node7-&gt;Node6</title><path fill="none" stroke="#191970" d="M166.81,-228.42C165.96,-219.05 164.97,-208.14 164.29,-200.71"/><polygon fill="#191970" stroke="#191970" points="163.33 -228.76 167.72 -238.41 170.3 -228.13 163.33 -228.76"/></g></g></svg>