<svg xmlns="http://www.w3.org/2000/svg" xmlns:xlink="http://www.w3.org/1999/xlink" width="562pt" height="176" viewBox="0 0 562 132"><g id="graph0" class="graph" transform="scale(1 1) rotate(0) translate(4 128)"><title>Container_iterator&lt; Interface, Container, Master &gt;</title><polygon fill="#fff" stroke="transparent" points="-4 4 -4 -128 558 -128 558 4 -4 4"/><g id="node1" class="node"><title>Node1</title><g id="a_node1"><a><polygon fill="#bfbfbf" stroke="#000" points="426 -41 426 -82 554 -82 554 -41 426 -41"/><text x="434" y="-70" font-family="Helvetica,sans-Serif" font-size="10" text-anchor="start">Container_iterator</text><text x="434" y="-59" font-family="Helvetica,sans-Serif" font-size="10" text-anchor="start">&lt; Interface, Container,</text><text x="490" y="-48" font-family="Helvetica,sans-Serif" font-size="10" text-anchor="middle">Master &gt;</text></a></g></g><g id="node2" class="node"><title>Node2</title><g id="a_node2"><a target="_top" xlink:href="classAPT_1_1Container__iterator__base.xhtml"><polygon fill="#fff" stroke="#000" points="207 -30 207 -93 390 -93 390 -30 207 -30"/><text x="215" y="-81" font-family="Helvetica,sans-Serif" font-size="10" text-anchor="start">Container_iterator</text><text x="215" y="-70" font-family="Helvetica,sans-Serif" font-size="10" text-anchor="start">_base&lt; Interface, Master,</text><text x="215" y="-59" font-family="Helvetica,sans-Serif" font-size="10" text-anchor="start">Container_iterator&lt; Interface,</text><text x="215" y="-48" font-family="Helvetica,sans-Serif" font-size="10" text-anchor="start">Container, Master &gt;, Container</text><text x="298.5" y="-37" font-family="Helvetica,sans-Serif" font-size="10" text-anchor="middle">::iterator, Container::value_type &gt;</text></a></g></g><g id="edge1" class="edge"><title>Node2-&gt;Node1</title><path fill="none" stroke="#191970" d="M400.29,-61.5C408.97,-61.5 417.58,-61.5 425.83,-61.5"/><polygon fill="#191970" stroke="#191970" points="400.09 -58 390.09 -61.5 400.09 -65 400.09 -58"/></g><g id="node3" class="node"><title>Node3</title><g id="a_node3"><a><polygon fill="#fff" stroke="#bfbfbf" points="0 -71.5 0 -123.5 171 -123.5 171 -71.5 0 -71.5"/><text x="8" y="-111.5" font-family="Helvetica,sans-Serif" font-size="10" text-anchor="start">iterator&lt; std::iterator</text><text x="8" y="-100.5" font-family="Helvetica,sans-Serif" font-size="10" text-anchor="start">_traits&lt; Container::iterator</text><text x="8" y="-89.5" font-family="Helvetica,sans-Serif" font-size="10" text-anchor="start">&gt;::iterator_category, Container</text><text x="85.5" y="-78.5" font-family="Helvetica,sans-Serif" font-size="10" text-anchor="middle">::value_type &gt;</text></a></g></g><g id="edge2" class="edge"><title>Node3-&gt;Node2</title><path fill="none" stroke="#191970" d="M181.04,-81.37C189.56,-79.92 198.17,-78.45 206.65,-77"/><polygon fill="#191970" stroke="#191970" points="180.37 -77.93 171.11 -83.06 181.55 -84.83 180.37 -77.93"/></g><g id="node4" class="node"><title>Node4</title><g id="a_node4"><a><polygon fill="#fff" stroke="#bfbfbf" points="21.5 -.5 21.5 -52.5 149.5 -52.5 149.5 -.5 21.5 -.5"/><text x="29.5" y="-40.5" font-family="Helvetica,sans-Serif" font-size="10" text-anchor="start">template iterator_base</text><text x="29.5" y="-29.5" font-family="Helvetica,sans-Serif" font-size="10" text-anchor="start">&lt; Container_iterator&lt;</text><text x="29.5" y="-18.5" font-family="Helvetica,sans-Serif" font-size="10" text-anchor="start">Interface, Container,</text><text x="85.5" y="-7.5" font-family="Helvetica,sans-Serif" font-size="10" text-anchor="middle">Master &gt; &gt;</text></a></g></g><g id="edge3" class="edge"><title>Node4-&gt;Node2</title><path fill="none" stroke="#191970" d="M159.82,-38.66C174.95,-41.17 191.05,-43.84 206.72,-46.44"/><polygon fill="#191970" stroke="#191970" points="159.96 -35.14 149.52 -36.95 158.81 -42.04 159.96 -35.14"/></g></g></svg>