<?xml version="1.0" encoding="UTF-8" standalone="no"?>
<!DOCTYPE svg PUBLIC "-//W3C//DTD SVG 1.1//EN"
 "http://www.w3.org/Graphics/SVG/1.1/DTD/svg11.dtd">
<!-- Generated by graphviz version 2.43.0 (0)
 -->
<!-- Title: pkgAcqDiffIndex Pages: 1 -->
<svg width="908pt" height="703pt"
 viewBox="0.00 0.00 908.00 703.00" xmlns="http://www.w3.org/2000/svg" xmlns:xlink="http://www.w3.org/1999/xlink">
<g id="graph0" class="graph" transform="scale(1 1) rotate(0) translate(4 699)">
<title>pkgAcqDiffIndex</title>
<polygon fill="white" stroke="transparent" points="-4,4 -4,-699 904,-699 904,4 -4,4"/>
<!-- Node1 -->
<g id="node1" class="node">
<title>Node1</title>
<g id="a_node1"><a xlink:title="An item that is responsible for fetching an index file of {{{ package list diffs and starting the pac...">
<polygon fill="#bfbfbf" stroke="black" points="500.5,-57.5 500.5,-76.5 597.5,-76.5 597.5,-57.5 500.5,-57.5"/>
<text text-anchor="middle" x="549" y="-64.5" font-family="Helvetica,sans-Serif" font-size="10.00">pkgAcqDiffIndex</text>
</a>
</g>
</g>
<!-- Node2 -->
<g id="node2" class="node">
<title>Node2</title>
<g id="a_node2"><a xlink:href="classpkgAcqIndex.xhtml" target="_top" xlink:title="An acquire item that is responsible for fetching an index {{{ file (e.g., Packages or Sources).">
<polygon fill="white" stroke="black" points="509,-115.5 509,-134.5 589,-134.5 589,-115.5 509,-115.5"/>
<text text-anchor="middle" x="549" y="-122.5" font-family="Helvetica,sans-Serif" font-size="10.00">pkgAcqIndex</text>
</a>
</g>
</g>
<!-- Node2&#45;&gt;Node1 -->
<g id="edge1" class="edge">
<title>Node2&#45;&gt;Node1</title>
<path fill="none" stroke="midnightblue" d="M549,-104.95C549,-95.29 549,-84.03 549,-76.51"/>
<polygon fill="midnightblue" stroke="midnightblue" points="545.5,-105.25 549,-115.25 552.5,-105.25 545.5,-105.25"/>
</g>
<!-- Node3 -->
<g id="node3" class="node">
<title>Node3</title>
<g id="a_node3"><a xlink:href="classpkgAcqBaseIndex.xhtml" target="_top" xlink:title="Common base class for all classes that deal with fetching indexes {{{.">
<polygon fill="white" stroke="black" points="417,-189 417,-208 521,-208 521,-189 417,-189"/>
<text text-anchor="middle" x="469" y="-196" font-family="Helvetica,sans-Serif" font-size="10.00">pkgAcqBaseIndex</text>
</a>
</g>
</g>
<!-- Node3&#45;&gt;Node2 -->
<g id="edge2" class="edge">
<title>Node3&#45;&gt;Node2</title>
<path fill="none" stroke="midnightblue" d="M486.49,-181.87C502.62,-167.45 525.99,-146.56 539.11,-134.84"/>
<polygon fill="midnightblue" stroke="midnightblue" points="483.93,-179.46 478.81,-188.73 488.6,-184.68 483.93,-179.46"/>
</g>
<!-- Node4 -->
<g id="node4" class="node">
<title>Node4</title>
<g id="a_node4"><a xlink:href="classpkgAcqTransactionItem.xhtml" target="_top" xlink:title="baseclass for the indexes files to manage them all together">
<polygon fill="white" stroke="black" points="323.5,-261.5 323.5,-280.5 454.5,-280.5 454.5,-261.5 323.5,-261.5"/>
<text text-anchor="middle" x="389" y="-268.5" font-family="Helvetica,sans-Serif" font-size="10.00">pkgAcqTransactionItem</text>
</a>
</g>
</g>
<!-- Node4&#45;&gt;Node3 -->
<g id="edge3" class="edge">
<title>Node4&#45;&gt;Node3</title>
<path fill="none" stroke="midnightblue" d="M406.49,-254.58C422.62,-240.37 445.99,-219.77 459.11,-208.22"/>
<polygon fill="midnightblue" stroke="midnightblue" points="404,-252.12 398.81,-261.36 408.63,-257.37 404,-252.12"/>
</g>
<!-- Node12 -->
<g id="node12" class="node">
<title>Node12</title>
<g id="a_node12"><a xlink:href="classpkgAcqMetaBase.xhtml" target="_top" xlink:title="the manager of a transaction">
<polygon fill="white" stroke="black" points="197.5,-115.5 197.5,-134.5 298.5,-134.5 298.5,-115.5 197.5,-115.5"/>
<text text-anchor="middle" x="248" y="-122.5" font-family="Helvetica,sans-Serif" font-size="10.00">pkgAcqMetaBase</text>
</a>
</g>
</g>
<!-- Node4&#45;&gt;Node12 -->
<g id="edge13" class="edge">
<title>Node4&#45;&gt;Node12</title>
<path fill="none" stroke="midnightblue" d="M378.89,-252.36C362.11,-223.57 328.62,-168.28 311,-154 300.59,-145.56 287.23,-139.14 275.49,-134.6"/>
<polygon fill="midnightblue" stroke="midnightblue" points="376.03,-254.42 384.07,-261.32 382.09,-250.91 376.03,-254.42"/>
</g>
<!-- Node13 -->
<g id="node13" class="node">
<title>Node13</title>
<g id="a_node13"><a xlink:title=" ">
<polygon fill="white" stroke="#bfbfbf" points="173,-183.5 173,-213.5 323,-213.5 323,-183.5 173,-183.5"/>
<text text-anchor="start" x="181" y="-201.5" font-family="Helvetica,sans-Serif" font-size="10.00">vector&lt; pkgAcqTransaction</text>
<text text-anchor="middle" x="248" y="-190.5" font-family="Helvetica,sans-Serif" font-size="10.00">Item * &gt;</text>
</a>
</g>
</g>
<!-- Node4&#45;&gt;Node13 -->
<g id="edge15" class="edge">
<title>Node4&#45;&gt;Node13</title>
<path fill="none" stroke="#9a32cd" stroke-dasharray="5,2" d="M325.07,-258.77C312.25,-254.94 299.26,-249.81 288,-243 275.71,-235.56 264.9,-223.25 257.63,-213.62"/>
<polygon fill="#9a32cd" stroke="#9a32cd" points="324.25,-262.18 334.82,-261.47 326.12,-255.43 324.25,-262.18"/>
<text text-anchor="middle" x="312.5" y="-235" font-family="Helvetica,sans-Serif" font-size="10.00"> elements</text>
</g>
<!-- Node5 -->
<g id="node5" class="node">
<title>Node5</title>
<g id="a_node5"><a xlink:title=" ">
<polygon fill="white" stroke="#bfbfbf" points="441.5,-356 441.5,-375 480.5,-375 480.5,-356 441.5,-356"/>
<text text-anchor="middle" x="461" y="-363" font-family="Helvetica,sans-Serif" font-size="10.00">Item</text>
</a>
</g>
</g>
<!-- Node5&#45;&gt;Node4 -->
<g id="edge4" class="edge">
<title>Node5&#45;&gt;Node4</title>
<path fill="none" stroke="midnightblue" d="M454.25,-346.15C448.49,-332.18 439.2,-313.02 427,-299 420.63,-291.67 411.88,-285.28 404.38,-280.56"/>
<polygon fill="midnightblue" stroke="midnightblue" points="451.06,-347.61 457.96,-355.66 457.58,-345.07 451.06,-347.61"/>
</g>
<!-- Node6 -->
<g id="node6" class="node">
<title>Node6</title>
<g id="a_node6"><a xlink:href="classIndexTarget.xhtml" target="_top" xlink:title="Information about an index file.">
<polygon fill="white" stroke="black" points="241,-356 241,-375 315,-375 315,-356 241,-356"/>
<text text-anchor="middle" x="278" y="-363" font-family="Helvetica,sans-Serif" font-size="10.00">IndexTarget</text>
</a>
</g>
</g>
<!-- Node6&#45;&gt;Node4 -->
<g id="edge5" class="edge">
<title>Node6&#45;&gt;Node4</title>
<path fill="none" stroke="#9a32cd" stroke-dasharray="5,2" d="M296.08,-349.43C319.62,-329.81 359.97,-296.19 378.78,-280.52"/>
<polygon fill="#9a32cd" stroke="#9a32cd" points="293.69,-346.87 288.24,-355.96 298.17,-352.25 293.69,-346.87"/>
<text text-anchor="middle" x="374" y="-313" font-family="Helvetica,sans-Serif" font-size="10.00"> Target</text>
</g>
<!-- Node11 -->
<g id="node11" class="node">
<title>Node11</title>
<g id="a_node11"><a xlink:href="classpkgAcqMetaIndex.xhtml" target="_top" xlink:title="An item that is responsible for downloading the meta&#45;index {{{ file (i.e., Release) itself and verify...">
<polygon fill="white" stroke="black" points="196,-57.5 196,-76.5 300,-76.5 300,-57.5 196,-57.5"/>
<text text-anchor="middle" x="248" y="-64.5" font-family="Helvetica,sans-Serif" font-size="10.00">pkgAcqMetaIndex</text>
</a>
</g>
</g>
<!-- Node6&#45;&gt;Node11 -->
<g id="edge17" class="edge">
<title>Node6&#45;&gt;Node11</title>
<path fill="none" stroke="#9a32cd" stroke-dasharray="5,2" d="M230.22,-364.38C166.06,-361.42 60,-345.41 60,-272 60,-272 60,-272 60,-124 60,-95.56 140,-80.4 195.63,-73.29"/>
<polygon fill="#9a32cd" stroke="#9a32cd" points="230.4,-367.89 240.52,-364.76 230.66,-360.89 230.4,-367.89"/>
<text text-anchor="middle" x="107.5" y="-196" font-family="Helvetica,sans-Serif" font-size="10.00"> DetachedSigTarget</text>
</g>
<!-- Node7 -->
<g id="node7" class="node">
<title>Node7</title>
<g id="a_node7"><a xlink:title=" ">
<polygon fill="white" stroke="#bfbfbf" points="170.5,-523 170.5,-553 289.5,-553 289.5,-523 170.5,-523"/>
<text text-anchor="start" x="178.5" y="-541" font-family="Helvetica,sans-Serif" font-size="10.00">map&lt; std::string, std</text>
<text text-anchor="middle" x="230" y="-530" font-family="Helvetica,sans-Serif" font-size="10.00">::string &gt;</text>
</a>
</g>
</g>
<!-- Node7&#45;&gt;Node6 -->
<g id="edge6" class="edge">
<title>Node7&#45;&gt;Node6</title>
<path fill="none" stroke="#9a32cd" stroke-dasharray="5,2" d="M236.79,-512.9C247.63,-474.39 268.36,-400.74 275.51,-375.36"/>
<polygon fill="#9a32cd" stroke="#9a32cd" points="233.35,-512.18 234.01,-522.76 240.09,-514.08 233.35,-512.18"/>
<text text-anchor="middle" x="289.5" y="-446" font-family="Helvetica,sans-Serif" font-size="10.00"> Options</text>
</g>
<!-- Node8 -->
<g id="node8" class="node">
<title>Node8</title>
<g id="a_node8"><a xlink:title=" ">
<polygon fill="white" stroke="#bfbfbf" points="439,-618.5 439,-637.5 483,-637.5 483,-618.5 439,-618.5"/>
<text text-anchor="middle" x="461" y="-625.5" font-family="Helvetica,sans-Serif" font-size="10.00">string</text>
</a>
</g>
</g>
<!-- Node8&#45;&gt;Node2 -->
<g id="edge28" class="edge">
<title>Node8&#45;&gt;Node2</title>
<path fill="none" stroke="#9a32cd" stroke-dasharray="5,2" d="M466.26,-608.45C473.11,-583.54 484.91,-537.81 491,-498 504.42,-410.33 490.54,-386.34 506,-299 512.84,-260.35 520.52,-252.09 530,-214 537.21,-185.03 544.24,-150.3 547.34,-134.54"/>
<polygon fill="#9a32cd" stroke="#9a32cd" points="462.82,-607.76 463.5,-618.33 469.56,-609.64 462.82,-607.76"/>
<text text-anchor="middle" x="580" y="-324" font-family="Helvetica,sans-Serif" font-size="10.00"> CompressionExtensions</text>
<text text-anchor="middle" x="580" y="-313" font-family="Helvetica,sans-Serif" font-size="10.00">CurrentCompressionExtension</text>
<text text-anchor="middle" x="580" y="-302" font-family="Helvetica,sans-Serif" font-size="10.00">EraseFileName</text>
</g>
<!-- Node8&#45;&gt;Node4 -->
<g id="edge27" class="edge">
<title>Node8&#45;&gt;Node4</title>
<path fill="none" stroke="#9a32cd" stroke-dasharray="5,2" d="M457.39,-608.4C447.65,-558.33 419.89,-416.57 395,-299 393.69,-292.8 392.13,-285.81 390.94,-280.5"/>
<polygon fill="#9a32cd" stroke="#9a32cd" points="453.99,-609.22 459.33,-618.37 460.86,-607.89 453.99,-609.22"/>
<text text-anchor="middle" x="461" y="-446" font-family="Helvetica,sans-Serif" font-size="10.00"> PartialFile</text>
</g>
<!-- Node8&#45;&gt;Node6 -->
<g id="edge9" class="edge">
<title>Node8&#45;&gt;Node6</title>
<path fill="none" stroke="#9a32cd" stroke-dasharray="5,2" d="M428.77,-618.54C400.28,-609.22 360.19,-591.26 340,-560 300.59,-498.99 346.19,-463.08 312,-399 306.85,-389.35 297.78,-380.89 290.3,-375.03"/>
<polygon fill="#9a32cd" stroke="#9a32cd" points="428.1,-621.99 438.69,-621.58 430.16,-615.3 428.1,-621.99"/>
<text text-anchor="middle" x="369.5" y="-552" font-family="Helvetica,sans-Serif" font-size="10.00"> Description</text>
<text text-anchor="middle" x="369.5" y="-541" font-family="Helvetica,sans-Serif" font-size="10.00">MetaKey</text>
<text text-anchor="middle" x="369.5" y="-530" font-family="Helvetica,sans-Serif" font-size="10.00">ShortDesc</text>
<text text-anchor="middle" x="369.5" y="-519" font-family="Helvetica,sans-Serif" font-size="10.00">URI</text>
</g>
<!-- Node8&#45;&gt;Node7 -->
<g id="edge7" class="edge">
<title>Node8&#45;&gt;Node7</title>
<path fill="none" stroke="#9a32cd" stroke-dasharray="5,2" d="M428.68,-626.09C379.59,-624.13 289.18,-618.11 263,-600 246.96,-588.9 238,-567.42 233.59,-553.14"/>
<polygon fill="#9a32cd" stroke="#9a32cd" points="428.65,-629.59 438.77,-626.46 428.91,-622.59 428.65,-629.59"/>
<text text-anchor="middle" x="287.5" y="-592" font-family="Helvetica,sans-Serif" font-size="10.00"> elements</text>
<text text-anchor="middle" x="287.5" y="-581" font-family="Helvetica,sans-Serif" font-size="10.00">keys</text>
</g>
<!-- Node8&#45;&gt;Node12 -->
<g id="edge16" class="edge">
<title>Node8&#45;&gt;Node12</title>
<path fill="none" stroke="#9a32cd" stroke-dasharray="5,2" d="M428.45,-627.7C323.38,-629.11 0,-626.35 0,-539 0,-539 0,-539 0,-197.5 0,-156.84 124.66,-137.89 197.22,-130.31"/>
<polygon fill="#9a32cd" stroke="#9a32cd" points="428.82,-631.2 438.77,-627.54 428.71,-624.2 428.82,-631.2"/>
<text text-anchor="middle" x="22.5" y="-313" font-family="Helvetica,sans-Serif" font-size="10.00"> BaseURI</text>
</g>
<!-- Node14 -->
<g id="node14" class="node">
<title>Node14</title>
<g id="a_node14"><a xlink:href="classmetaIndex.xhtml" target="_top" xlink:title=" ">
<polygon fill="white" stroke="black" points="671.5,-261.5 671.5,-280.5 740.5,-280.5 740.5,-261.5 671.5,-261.5"/>
<text text-anchor="middle" x="706" y="-268.5" font-family="Helvetica,sans-Serif" font-size="10.00">metaIndex</text>
</a>
</g>
</g>
<!-- Node8&#45;&gt;Node14 -->
<g id="edge21" class="edge">
<title>Node8&#45;&gt;Node14</title>
<path fill="none" stroke="#9a32cd" stroke-dasharray="5,2" d="M493.39,-625.46C553.9,-622.27 679.3,-614.02 693,-600 776.62,-514.45 712.44,-451.5 718,-332 718.68,-317.35 721.04,-313.35 718,-299 716.64,-292.58 713.64,-285.83 710.98,-280.68"/>
<polygon fill="#9a32cd" stroke="#9a32cd" points="493.03,-621.97 483.22,-625.98 493.39,-628.96 493.03,-621.97"/>
<text text-anchor="middle" x="770" y="-490" font-family="Helvetica,sans-Serif" font-size="10.00"> Codename</text>
<text text-anchor="middle" x="770" y="-479" font-family="Helvetica,sans-Serif" font-size="10.00">Dist</text>
<text text-anchor="middle" x="770" y="-468" font-family="Helvetica,sans-Serif" font-size="10.00">Label</text>
<text text-anchor="middle" x="770" y="-457" font-family="Helvetica,sans-Serif" font-size="10.00">Origin</text>
<text text-anchor="middle" x="770" y="-446" font-family="Helvetica,sans-Serif" font-size="10.00">ReleaseNotes</text>
<text text-anchor="middle" x="770" y="-435" font-family="Helvetica,sans-Serif" font-size="10.00">SignedBy</text>
<text text-anchor="middle" x="770" y="-424" font-family="Helvetica,sans-Serif" font-size="10.00">Suite</text>
<text text-anchor="middle" x="770" y="-413" font-family="Helvetica,sans-Serif" font-size="10.00">URI</text>
<text text-anchor="middle" x="770" y="-402" font-family="Helvetica,sans-Serif" font-size="10.00">Version</text>
</g>
<!-- Node17 -->
<g id="node17" class="node">
<title>Node17</title>
<g id="a_node17"><a xlink:title=" ">
<polygon fill="white" stroke="#bfbfbf" points="546.5,-350.5 546.5,-380.5 703.5,-380.5 703.5,-350.5 546.5,-350.5"/>
<text text-anchor="start" x="554.5" y="-368.5" font-family="Helvetica,sans-Serif" font-size="10.00">map&lt; std::string, metaIndex</text>
<text text-anchor="middle" x="625" y="-357.5" font-family="Helvetica,sans-Serif" font-size="10.00">::checkSum * &gt;</text>
</a>
</g>
</g>
<!-- Node8&#45;&gt;Node17 -->
<g id="edge23" class="edge">
<title>Node8&#45;&gt;Node17</title>
<path fill="none" stroke="#9a32cd" stroke-dasharray="5,2" d="M492.66,-618.42C503.35,-614.27 514.67,-608.32 523,-600 539.9,-583.12 600.9,-428.49 619.55,-380.58"/>
<polygon fill="#9a32cd" stroke="#9a32cd" points="491.42,-615.15 483.13,-621.75 493.72,-621.76 491.42,-615.15"/>
<text text-anchor="middle" x="577" y="-535.5" font-family="Helvetica,sans-Serif" font-size="10.00"> keys</text>
</g>
<!-- Node18 -->
<g id="node18" class="node">
<title>Node18</title>
<g id="a_node18"><a xlink:href="structmetaIndex_1_1checkSum.xhtml" target="_top" xlink:title=" ">
<polygon fill="white" stroke="black" points="599.5,-528.5 599.5,-547.5 666.5,-547.5 666.5,-528.5 599.5,-528.5"/>
<text text-anchor="middle" x="633" y="-535.5" font-family="Helvetica,sans-Serif" font-size="10.00">checkSum</text>
</a>
</g>
</g>
<!-- Node8&#45;&gt;Node18 -->
<g id="edge26" class="edge">
<title>Node8&#45;&gt;Node18</title>
<path fill="none" stroke="#9a32cd" stroke-dasharray="5,2" d="M493.31,-623.35C515.65,-619.8 545.47,-612.95 569,-600 593.74,-586.38 615.98,-560.83 626.53,-547.53"/>
<polygon fill="#9a32cd" stroke="#9a32cd" points="492.71,-619.9 483.32,-624.8 493.72,-626.83 492.71,-619.9"/>
<text text-anchor="middle" x="643.5" y="-586.5" font-family="Helvetica,sans-Serif" font-size="10.00"> MetaKeyFilename</text>
</g>
<!-- Node9 -->
<g id="node9" class="node">
<title>Node9</title>
<g id="a_node9"><a xlink:title=" ">
<polygon fill="white" stroke="#bfbfbf" points="401,-675.5 401,-694.5 521,-694.5 521,-675.5 401,-675.5"/>
<text text-anchor="middle" x="461" y="-682.5" font-family="Helvetica,sans-Serif" font-size="10.00">basic_string&lt; Char &gt;</text>
</a>
</g>
</g>
<!-- Node9&#45;&gt;Node8 -->
<g id="edge8" class="edge">
<title>Node9&#45;&gt;Node8</title>
<path fill="none" stroke="midnightblue" d="M461,-665.12C461,-655.82 461,-645.06 461,-637.71"/>
<polygon fill="midnightblue" stroke="midnightblue" points="457.5,-665.41 461,-675.41 464.5,-665.41 457.5,-665.41"/>
</g>
<!-- Node10 -->
<g id="node10" class="node">
<title>Node10</title>
<g id="a_node10"><a xlink:href="classpkgAcqMetaClearSig.xhtml" target="_top" xlink:title="An item responsible for downloading clearsigned metaindexes {{{.">
<polygon fill="white" stroke="black" points="330,-0.5 330,-19.5 448,-19.5 448,-0.5 330,-0.5"/>
<text text-anchor="middle" x="389" y="-7.5" font-family="Helvetica,sans-Serif" font-size="10.00">pkgAcqMetaClearSig</text>
</a>
</g>
</g>
<!-- Node10&#45;&gt;Node4 -->
<g id="edge10" class="edge">
<title>Node10&#45;&gt;Node4</title>
<path fill="none" stroke="#9a32cd" stroke-dasharray="5,2" d="M389,-29.76C389,-40.39 389,-53.94 389,-66 389,-199.5 389,-199.5 389,-199.5 389,-221.78 389,-248.01 389,-261.32"/>
<polygon fill="#9a32cd" stroke="#9a32cd" points="392.5,-29.57 389,-19.57 385.5,-29.57 392.5,-29.57"/>
<text text-anchor="middle" x="440" y="-122.5" font-family="Helvetica,sans-Serif" font-size="10.00"> TransactionManager</text>
</g>
<!-- Node11&#45;&gt;Node10 -->
<g id="edge11" class="edge">
<title>Node11&#45;&gt;Node10</title>
<path fill="none" stroke="midnightblue" d="M279.66,-53.65C306.3,-43.26 343.7,-28.67 367.12,-19.53"/>
<polygon fill="midnightblue" stroke="midnightblue" points="278.08,-50.51 270.03,-57.41 280.62,-57.03 278.08,-50.51"/>
</g>
<!-- Node12&#45;&gt;Node11 -->
<g id="edge12" class="edge">
<title>Node12&#45;&gt;Node11</title>
<path fill="none" stroke="midnightblue" d="M248,-104.95C248,-95.29 248,-84.03 248,-76.51"/>
<polygon fill="midnightblue" stroke="midnightblue" points="244.5,-105.25 248,-115.25 251.5,-105.25 244.5,-105.25"/>
</g>
<!-- Node13&#45;&gt;Node12 -->
<g id="edge14" class="edge">
<title>Node13&#45;&gt;Node12</title>
<path fill="none" stroke="#9a32cd" stroke-dasharray="5,2" d="M248,-173.36C248,-160.01 248,-144.25 248,-134.7"/>
<polygon fill="#9a32cd" stroke="#9a32cd" points="244.5,-173.37 248,-183.37 251.5,-173.37 244.5,-173.37"/>
<text text-anchor="middle" x="277.5" y="-157" font-family="Helvetica,sans-Serif" font-size="10.00"> Transaction</text>
</g>
<!-- Node14&#45;&gt;Node10 -->
<g id="edge18" class="edge">
<title>Node14&#45;&gt;Node10</title>
<path fill="none" stroke="#9a32cd" stroke-dasharray="5,2" d="M690.19,-253.52C679.01,-240.09 666,-220.05 666,-199.5 666,-199.5 666,-199.5 666,-66 666,-21.94 529.44,-12.63 448.08,-11"/>
<polygon fill="#9a32cd" stroke="#9a32cd" points="687.87,-256.17 697.12,-261.33 693.1,-251.53 687.87,-256.17"/>
<text text-anchor="middle" x="719" y="-128" font-family="Helvetica,sans-Serif" font-size="10.00"> LastMetaIndexParser</text>
<text text-anchor="middle" x="719" y="-117" font-family="Helvetica,sans-Serif" font-size="10.00">MetaIndexParser</text>
</g>
<!-- Node15 -->
<g id="node15" class="node">
<title>Node15</title>
<g id="a_node15"><a xlink:title=" ">
<polygon fill="white" stroke="#bfbfbf" points="760,-356 760,-375 900,-375 900,-356 760,-356"/>
<text text-anchor="middle" x="830" y="-363" font-family="Helvetica,sans-Serif" font-size="10.00">vector&lt; pkgIndexFile * &gt;</text>
</a>
</g>
</g>
<!-- Node15&#45;&gt;Node14 -->
<g id="edge19" class="edge">
<title>Node15&#45;&gt;Node14</title>
<path fill="none" stroke="#9a32cd" stroke-dasharray="5,2" d="M811.64,-349.6C794.81,-336.07 769.06,-315.75 746,-299 737.19,-292.6 727.01,-285.74 719.13,-280.53"/>
<polygon fill="#9a32cd" stroke="#9a32cd" points="809.59,-352.44 819.57,-355.99 813.98,-346.99 809.59,-352.44"/>
<text text-anchor="middle" x="807.5" y="-313" font-family="Helvetica,sans-Serif" font-size="10.00"> Indexes</text>
</g>
<!-- Node16 -->
<g id="node16" class="node">
<title>Node16</title>
<g id="a_node16"><a xlink:href="classpkgIndexFile.xhtml" target="_top" xlink:title=" ">
<polygon fill="white" stroke="black" points="790.5,-528.5 790.5,-547.5 869.5,-547.5 869.5,-528.5 790.5,-528.5"/>
<text text-anchor="middle" x="830" y="-535.5" font-family="Helvetica,sans-Serif" font-size="10.00">pkgIndexFile</text>
</a>
</g>
</g>
<!-- Node16&#45;&gt;Node15 -->
<g id="edge20" class="edge">
<title>Node16&#45;&gt;Node15</title>
<path fill="none" stroke="#9a32cd" stroke-dasharray="5,2" d="M830,-518.02C830,-481.33 830,-401.96 830,-375.38"/>
<polygon fill="#9a32cd" stroke="#9a32cd" points="826.5,-518.31 830,-528.31 833.5,-518.31 826.5,-518.31"/>
<text text-anchor="middle" x="854.5" y="-446" font-family="Helvetica,sans-Serif" font-size="10.00"> elements</text>
</g>
<!-- Node17&#45;&gt;Node14 -->
<g id="edge22" class="edge">
<title>Node17&#45;&gt;Node14</title>
<path fill="none" stroke="#9a32cd" stroke-dasharray="5,2" d="M647.64,-343.32C651.22,-339.65 654.8,-335.79 658,-332 669.53,-318.34 669.79,-312.93 681,-299 686.13,-292.63 692.38,-285.88 697.35,-280.72"/>
<polygon fill="#9a32cd" stroke="#9a32cd" points="645.03,-340.97 640.38,-350.49 649.95,-345.95 645.03,-340.97"/>
<text text-anchor="middle" x="699.5" y="-313" font-family="Helvetica,sans-Serif" font-size="10.00"> Entries</text>
</g>
<!-- Node18&#45;&gt;Node17 -->
<g id="edge24" class="edge">
<title>Node18&#45;&gt;Node17</title>
<path fill="none" stroke="#9a32cd" stroke-dasharray="5,2" d="M632.12,-518.21C630.5,-483.77 627.1,-411.27 625.66,-380.64"/>
<polygon fill="#9a32cd" stroke="#9a32cd" points="628.63,-518.49 632.59,-528.31 635.62,-518.16 628.63,-518.49"/>
<text text-anchor="middle" x="655.5" y="-446" font-family="Helvetica,sans-Serif" font-size="10.00"> elements</text>
</g>
<!-- Node19 -->
<g id="node19" class="node">
<title>Node19</title>
<g id="a_node19"><a xlink:href="classHashStringList.xhtml" target="_top" xlink:title=" ">
<polygon fill="white" stroke="black" points="721.5,-618.5 721.5,-637.5 808.5,-637.5 808.5,-618.5 721.5,-618.5"/>
<text text-anchor="middle" x="765" y="-625.5" font-family="Helvetica,sans-Serif" font-size="10.00">HashStringList</text>
</a>
</g>
</g>
<!-- Node19&#45;&gt;Node18 -->
<g id="edge25" class="edge">
<title>Node19&#45;&gt;Node18</title>
<path fill="none" stroke="#9a32cd" stroke-dasharray="5,2" d="M746.92,-611.79C734.61,-601.72 717.74,-588.49 702,-578 684.82,-566.56 664.09,-555.13 649.86,-547.64"/>
<polygon fill="#9a32cd" stroke="#9a32cd" points="744.72,-614.51 754.65,-618.19 749.18,-609.12 744.72,-614.51"/>
<text text-anchor="middle" x="752" y="-586.5" font-family="Helvetica,sans-Serif" font-size="10.00"> Hashes</text>
</g>
</g>
</svg>
