<?xml version="1.0" encoding="UTF-8" standalone="no"?>
<!DOCTYPE svg PUBLIC "-//W3C//DTD SVG 1.1//EN"
 "http://www.w3.org/Graphics/SVG/1.1/DTD/svg11.dtd">
<!-- Generated by graphviz version 2.43.0 (0)
 -->
<!-- Title: pkgCache&lt; Str, Itr &gt;::Namespace Pages: 1 -->
<svg width="351pt" height="151pt"
 viewBox="0.00 0.00 351.00 151.00" xmlns="http://www.w3.org/2000/svg" xmlns:xlink="http://www.w3.org/1999/xlink">
<g id="graph0" class="graph" transform="scale(1 1) rotate(0) translate(4 147)">
<title>pkgCache&lt; Str, Itr &gt;::Namespace</title>
<polygon fill="white" stroke="transparent" points="-4,4 -4,-147 347,-147 347,4 -4,4"/>
<!-- Node1 -->
<g id="node1" class="node">
<title>Node1</title>
<g id="a_node1"><a xlink:title=" ">
<polygon fill="#bfbfbf" stroke="black" points="88,-112.5 88,-142.5 194,-142.5 194,-112.5 88,-112.5"/>
<text text-anchor="start" x="96" y="-130.5" font-family="Helvetica,sans-Serif" font-size="10.00">pkgCache&lt; Str, Itr</text>
<text text-anchor="middle" x="141" y="-119.5" font-family="Helvetica,sans-Serif" font-size="10.00"> &gt;::Namespace</text>
</a>
</g>
</g>
<!-- Node2 -->
<g id="node2" class="node">
<title>Node2</title>
<g id="a_node2"><a xlink:href="classpkgDepCache.xhtml" target="_top" xlink:title=" ">
<polygon fill="white" stroke="black" points="0,-56.5 0,-75.5 84,-75.5 84,-56.5 0,-56.5"/>
<text text-anchor="middle" x="42" y="-63.5" font-family="Helvetica,sans-Serif" font-size="10.00">pkgDepCache</text>
</a>
</g>
</g>
<!-- Node1&#45;&gt;Node2 -->
<g id="edge1" class="edge">
<title>Node1&#45;&gt;Node2</title>
<path fill="none" stroke="darkgreen" d="M108.67,-107.07C91.02,-96.46 70.05,-83.86 56.41,-75.66"/>
<polygon fill="darkgreen" stroke="darkgreen" points="107.16,-110.25 117.54,-112.4 110.77,-104.25 107.16,-110.25"/>
</g>
<!-- Node3 -->
<g id="node3" class="node">
<title>Node3</title>
<g id="a_node3"><a xlink:href="classpkgOrderList.xhtml" target="_top" xlink:title=" ">
<polygon fill="white" stroke="black" points="101.5,-56.5 101.5,-75.5 180.5,-75.5 180.5,-56.5 101.5,-56.5"/>
<text text-anchor="middle" x="141" y="-63.5" font-family="Helvetica,sans-Serif" font-size="10.00">pkgOrderList</text>
</a>
</g>
</g>
<!-- Node1&#45;&gt;Node3 -->
<g id="edge2" class="edge">
<title>Node1&#45;&gt;Node3</title>
<path fill="none" stroke="darkgreen" d="M141,-102.29C141,-92.86 141,-82.65 141,-75.66"/>
<polygon fill="darkgreen" stroke="darkgreen" points="137.5,-102.4 141,-112.4 144.5,-102.4 137.5,-102.4"/>
</g>
<!-- Node4 -->
<g id="node4" class="node">
<title>Node4</title>
<g id="a_node4"><a xlink:href="classpkgPackageManager.xhtml" target="_top" xlink:title=" ">
<polygon fill="white" stroke="black" points="198.5,-56.5 198.5,-75.5 315.5,-75.5 315.5,-56.5 198.5,-56.5"/>
<text text-anchor="middle" x="257" y="-63.5" font-family="Helvetica,sans-Serif" font-size="10.00">pkgPackageManager</text>
</a>
</g>
</g>
<!-- Node1&#45;&gt;Node4 -->
<g id="edge3" class="edge">
<title>Node1&#45;&gt;Node4</title>
<path fill="none" stroke="darkgreen" d="M177.47,-107.8C198.43,-97.04 223.77,-84.05 240.12,-75.66"/>
<polygon fill="darkgreen" stroke="darkgreen" points="175.79,-104.72 168.49,-112.4 178.99,-110.95 175.79,-104.72"/>
</g>
<!-- Node5 -->
<g id="node5" class="node">
<title>Node5</title>
<g id="a_node5"><a xlink:href="classpkgDPkgPM.xhtml" target="_top" xlink:title=" ">
<polygon fill="white" stroke="black" points="171.5,-0.5 171.5,-19.5 246.5,-19.5 246.5,-0.5 171.5,-0.5"/>
<text text-anchor="middle" x="209" y="-7.5" font-family="Helvetica,sans-Serif" font-size="10.00">pkgDPkgPM</text>
</a>
</g>
</g>
<!-- Node4&#45;&gt;Node5 -->
<g id="edge4" class="edge">
<title>Node4&#45;&gt;Node5</title>
<path fill="none" stroke="midnightblue" d="M242.27,-48.43C233.86,-38.97 223.65,-27.48 216.78,-19.75"/>
<polygon fill="midnightblue" stroke="midnightblue" points="239.81,-50.93 249.07,-56.08 245.05,-46.28 239.81,-50.93"/>
</g>
<!-- Node6 -->
<g id="node6" class="node">
<title>Node6</title>
<g id="a_node6"><a xlink:href="classpkgSimulate.xhtml" target="_top" xlink:title=" ">
<polygon fill="white" stroke="black" points="265,-0.5 265,-19.5 343,-19.5 343,-0.5 265,-0.5"/>
<text text-anchor="middle" x="304" y="-7.5" font-family="Helvetica,sans-Serif" font-size="10.00">pkgSimulate</text>
</a>
</g>
</g>
<!-- Node4&#45;&gt;Node6 -->
<g id="edge5" class="edge">
<title>Node4&#45;&gt;Node6</title>
<path fill="none" stroke="midnightblue" d="M271.42,-48.43C279.66,-38.97 289.65,-27.48 296.38,-19.75"/>
<polygon fill="midnightblue" stroke="midnightblue" points="268.69,-46.24 264.76,-56.08 273.97,-50.84 268.69,-46.24"/>
</g>
</g>
</svg>
