<?xml version="1.0" encoding="UTF-8" standalone="no"?>
<!DOCTYPE svg PUBLIC "-//W3C//DTD SVG 1.1//EN"
 "http://www.w3.org/Graphics/SVG/1.1/DTD/svg11.dtd">
<!-- Generated by graphviz version 2.43.0 (0)
 -->
<!-- Title: edspListParser Pages: 1 -->
<svg width="120pt" height="196pt"
 viewBox="0.00 0.00 120.00 196.00" xmlns="http://www.w3.org/2000/svg" xmlns:xlink="http://www.w3.org/1999/xlink">
<g id="graph0" class="graph" transform="scale(1 1) rotate(0) translate(4 192)">
<title>edspListParser</title>
<polygon fill="white" stroke="transparent" points="-4,4 -4,-192 116,-192 116,4 -4,4"/>
<!-- Node1 -->
<g id="node1" class="node">
<title>Node1</title>
<g id="a_node1"><a xlink:title=" ">
<polygon fill="#bfbfbf" stroke="black" points="12.5,-0.5 12.5,-19.5 99.5,-19.5 99.5,-0.5 12.5,-0.5"/>
<text text-anchor="middle" x="56" y="-7.5" font-family="Helvetica,sans-Serif" font-size="10.00">edspListParser</text>
</a>
</g>
</g>
<!-- Node2 -->
<g id="node2" class="node">
<title>Node2</title>
<g id="a_node2"><a xlink:href="classedspLikeListParser.xhtml" target="_top" xlink:title=" ">
<polygon fill="white" stroke="black" points="2.5,-56.5 2.5,-75.5 109.5,-75.5 109.5,-56.5 2.5,-56.5"/>
<text text-anchor="middle" x="56" y="-63.5" font-family="Helvetica,sans-Serif" font-size="10.00">edspLikeListParser</text>
</a>
</g>
</g>
<!-- Node2&#45;&gt;Node1 -->
<g id="edge1" class="edge">
<title>Node2&#45;&gt;Node1</title>
<path fill="none" stroke="midnightblue" d="M56,-45.8C56,-36.91 56,-26.78 56,-19.75"/>
<polygon fill="midnightblue" stroke="midnightblue" points="52.5,-46.08 56,-56.08 59.5,-46.08 52.5,-46.08"/>
</g>
<!-- Node3 -->
<g id="node3" class="node">
<title>Node3</title>
<g id="a_node3"><a xlink:href="classdebListParser.xhtml" target="_top" xlink:title=" ">
<polygon fill="white" stroke="black" points="15,-112.5 15,-131.5 97,-131.5 97,-112.5 15,-112.5"/>
<text text-anchor="middle" x="56" y="-119.5" font-family="Helvetica,sans-Serif" font-size="10.00">debListParser</text>
</a>
</g>
</g>
<!-- Node3&#45;&gt;Node2 -->
<g id="edge2" class="edge">
<title>Node3&#45;&gt;Node2</title>
<path fill="none" stroke="midnightblue" d="M56,-101.8C56,-92.91 56,-82.78 56,-75.75"/>
<polygon fill="midnightblue" stroke="midnightblue" points="52.5,-102.08 56,-112.08 59.5,-102.08 52.5,-102.08"/>
</g>
<!-- Node4 -->
<g id="node4" class="node">
<title>Node4</title>
<g id="a_node4"><a xlink:href="classpkgCacheListParser.xhtml" target="_top" xlink:title=" ">
<polygon fill="white" stroke="black" points="0,-168.5 0,-187.5 112,-187.5 112,-168.5 0,-168.5"/>
<text text-anchor="middle" x="56" y="-175.5" font-family="Helvetica,sans-Serif" font-size="10.00">pkgCacheListParser</text>
</a>
</g>
</g>
<!-- Node4&#45;&gt;Node3 -->
<g id="edge3" class="edge">
<title>Node4&#45;&gt;Node3</title>
<path fill="none" stroke="midnightblue" d="M56,-157.8C56,-148.91 56,-138.78 56,-131.75"/>
<polygon fill="midnightblue" stroke="midnightblue" points="52.5,-158.08 56,-168.08 59.5,-158.08 52.5,-158.08"/>
</g>
</g>
</svg>
