<svg xmlns="http://www.w3.org/2000/svg" xmlns:xlink="http://www.w3.org/1999/xlink" width="776" height="122pt" viewBox="0 0 582 121.5"><g id="graph0" class="graph" transform="scale(1 1) rotate(0) translate(4 117.5)"><title>Container_reverse_iterator&lt; Interface, Container, Master &gt;</title><polygon fill="#fff" stroke="transparent" points="-4 4 -4 -117.5 578 -117.5 578 4 -4 4"/><g id="node1" class="node"><title>Node1</title><g id="a_node1"><a><polygon fill="#bfbfbf" stroke="#000" points="427 -33.5 427 -74.5 574 -74.5 574 -33.5 427 -33.5"/><text x="435" y="-62.5" font-family="Helvetica,sans-Serif" font-size="10" text-anchor="start">Container_reverse_iterator</text><text x="435" y="-51.5" font-family="Helvetica,sans-Serif" font-size="10" text-anchor="start">&lt; Interface, Container,</text><text x="500.5" y="-40.5" font-family="Helvetica,sans-Serif" font-size="10" text-anchor="middle">Master &gt;</text></a></g></g><g id="node2" class="node"><title>Node2</title><g id="a_node2"><a target="_top" xlink:href="classAPT_1_1Container__iterator__base.xhtml"><polygon fill="#fff" stroke="#000" points="223 -17 223 -91 391 -91 391 -17 223 -17"/><text x="231" y="-79" font-family="Helvetica,sans-Serif" font-size="10" text-anchor="start">Container_iterator</text><text x="231" y="-68" font-family="Helvetica,sans-Serif" font-size="10" text-anchor="start">_base&lt; Interface, Master,</text><text x="231" y="-57" font-family="Helvetica,sans-Serif" font-size="10" text-anchor="start">Container_reverse_iterator</text><text x="231" y="-46" font-family="Helvetica,sans-Serif" font-size="10" text-anchor="start">&lt; Interface, Container, Master</text><text x="231" y="-35" font-family="Helvetica,sans-Serif" font-size="10" text-anchor="start">&gt;, Container::reverse_iterator,</text><text x="307" y="-24" font-family="Helvetica,sans-Serif" font-size="10" text-anchor="middle">Container::value_type &gt;</text></a></g></g><g id="edge1" class="edge"><title>Node2-&gt;Node1</title><path fill="none" stroke="#191970" d="M401.25,-54C409.88,-54 418.53,-54 426.93,-54"/><polygon fill="#191970" stroke="#191970" points="401.16 -50.5 391.16 -54 401.16 -57.5 401.16 -50.5"/></g><g id="node3" class="node"><title>Node3</title><g id="a_node3"><a><polygon fill="#fff" stroke="#bfbfbf" points="12.5 -61 12.5 -113 174.5 -113 174.5 -61 12.5 -61"/><text x="20.5" y="-101" font-family="Helvetica,sans-Serif" font-size="10" text-anchor="start">iterator&lt; std::iterator</text><text x="20.5" y="-90" font-family="Helvetica,sans-Serif" font-size="10" text-anchor="start">_traits&lt; Container::reverse</text><text x="20.5" y="-79" font-family="Helvetica,sans-Serif" font-size="10" text-anchor="start">_iterator &gt;::iterator_category,</text><text x="93.5" y="-68" font-family="Helvetica,sans-Serif" font-size="10" text-anchor="middle">Container::value_type &gt;</text></a></g></g><g id="edge2" class="edge"><title>Node3-&gt;Node2</title><path fill="none" stroke="#191970" d="M184.84,-72.9C197.5,-70.93 210.46,-68.91 222.98,-66.95"/><polygon fill="#191970" stroke="#191970" points="184.1 -69.48 174.76 -74.48 185.18 -76.39 184.1 -69.48"/></g><g id="node4" class="node"><title>Node4</title><g id="a_node4"><a><polygon fill="#fff" stroke="#bfbfbf" points="0 -.5 0 -41.5 187 -41.5 187 -.5 0 -.5"/><text x="8" y="-29.5" font-family="Helvetica,sans-Serif" font-size="10" text-anchor="start">template iterator_base</text><text x="8" y="-18.5" font-family="Helvetica,sans-Serif" font-size="10" text-anchor="start">&lt; Container_reverse_iterator</text><text x="93.5" y="-7.5" font-family="Helvetica,sans-Serif" font-size="10" text-anchor="middle">&lt; Interface, Container, Master &gt; &gt;</text></a></g></g><g id="edge3" class="edge"><title>Node4-&gt;Node2</title><path fill="none" stroke="#191970" d="M197.33,-37.04C205.92,-38.38 214.53,-39.73 222.95,-41.04"/><polygon fill="#191970" stroke="#191970" points="197.69 -33.56 187.27 -35.47 196.61 -40.47 197.69 -33.56"/></g></g></svg>