<?xml version="1.0" encoding="UTF-8" standalone="no"?>
<!DOCTYPE svg PUBLIC "-//W3C//DTD SVG 1.1//EN"
 "http://www.w3.org/Graphics/SVG/1.1/DTD/svg11.dtd">
<!-- Generated by graphviz version 2.43.0 (0)
 -->
<!-- Title: pkgSimulatePrivate Pages: 1 -->
<svg width="131pt" height="297pt"
 viewBox="0.00 0.00 131.00 297.00" xmlns="http://www.w3.org/2000/svg" xmlns:xlink="http://www.w3.org/1999/xlink">
<g id="graph0" class="graph" transform="scale(1 1) rotate(0) translate(4 293)">
<title>pkgSimulatePrivate</title>
<polygon fill="white" stroke="transparent" points="-4,4 -4,-293 127,-293 127,4 -4,4"/>
<!-- Node1 -->
<g id="node1" class="node">
<title>Node1</title>
<g id="a_node1"><a xlink:title=" ">
<polygon fill="#bfbfbf" stroke="black" points="5,-0.5 5,-19.5 118,-19.5 118,-0.5 5,-0.5"/>
<text text-anchor="middle" x="61.5" y="-7.5" font-family="Helvetica,sans-Serif" font-size="10.00">pkgSimulatePrivate</text>
</a>
</g>
</g>
<!-- Node2 -->
<g id="node2" class="node">
<title>Node2</title>
<g id="a_node2"><a xlink:title=" ">
<polygon fill="white" stroke="#bfbfbf" points="0,-67.5 0,-97.5 123,-97.5 123,-67.5 0,-67.5"/>
<text text-anchor="start" x="8" y="-85.5" font-family="Helvetica,sans-Serif" font-size="10.00">vector&lt; pkgDPkgPM::</text>
<text text-anchor="middle" x="61.5" y="-74.5" font-family="Helvetica,sans-Serif" font-size="10.00">Item &gt;</text>
</a>
</g>
</g>
<!-- Node2&#45;&gt;Node1 -->
<g id="edge1" class="edge">
<title>Node2&#45;&gt;Node1</title>
<path fill="none" stroke="#9a32cd" stroke-dasharray="5,2" d="M61.5,-57.09C61.5,-44.21 61.5,-29.2 61.5,-19.89"/>
<polygon fill="#9a32cd" stroke="#9a32cd" points="58,-57.23 61.5,-67.23 65,-57.23 58,-57.23"/>
<text text-anchor="middle" x="72" y="-41" font-family="Helvetica,sans-Serif" font-size="10.00"> List</text>
</g>
<!-- Node3 -->
<g id="node3" class="node">
<title>Node3</title>
<g id="a_node3"><a xlink:href="structpkgDPkgPM_1_1Item.xhtml" target="_top" xlink:title=" ">
<polygon fill="white" stroke="black" points="42,-145.5 42,-164.5 81,-164.5 81,-145.5 42,-145.5"/>
<text text-anchor="middle" x="61.5" y="-152.5" font-family="Helvetica,sans-Serif" font-size="10.00">Item</text>
</a>
</g>
</g>
<!-- Node3&#45;&gt;Node2 -->
<g id="edge2" class="edge">
<title>Node3&#45;&gt;Node2</title>
<path fill="none" stroke="#9a32cd" stroke-dasharray="5,2" d="M61.5,-135.24C61.5,-123.41 61.5,-108.38 61.5,-97.58"/>
<polygon fill="#9a32cd" stroke="#9a32cd" points="58,-135.36 61.5,-145.36 65,-135.36 58,-135.36"/>
<text text-anchor="middle" x="86" y="-119" font-family="Helvetica,sans-Serif" font-size="10.00"> elements</text>
</g>
<!-- Node4 -->
<g id="node4" class="node">
<title>Node4</title>
<g id="a_node4"><a xlink:title=" ">
<polygon fill="white" stroke="#bfbfbf" points="39.5,-212.5 39.5,-231.5 83.5,-231.5 83.5,-212.5 39.5,-212.5"/>
<text text-anchor="middle" x="61.5" y="-219.5" font-family="Helvetica,sans-Serif" font-size="10.00">string</text>
</a>
</g>
</g>
<!-- Node4&#45;&gt;Node3 -->
<g id="edge3" class="edge">
<title>Node4&#45;&gt;Node3</title>
<path fill="none" stroke="#9a32cd" stroke-dasharray="5,2" d="M61.5,-202.04C61.5,-189.67 61.5,-174.12 61.5,-164.63"/>
<polygon fill="#9a32cd" stroke="#9a32cd" points="58,-202.23 61.5,-212.23 65,-202.23 58,-202.23"/>
<text text-anchor="middle" x="72" y="-186" font-family="Helvetica,sans-Serif" font-size="10.00"> File</text>
</g>
<!-- Node5 -->
<g id="node5" class="node">
<title>Node5</title>
<g id="a_node5"><a xlink:title=" ">
<polygon fill="white" stroke="#bfbfbf" points="1.5,-269.5 1.5,-288.5 121.5,-288.5 121.5,-269.5 1.5,-269.5"/>
<text text-anchor="middle" x="61.5" y="-276.5" font-family="Helvetica,sans-Serif" font-size="10.00">basic_string&lt; Char &gt;</text>
</a>
</g>
</g>
<!-- Node5&#45;&gt;Node4 -->
<g id="edge4" class="edge">
<title>Node5&#45;&gt;Node4</title>
<path fill="none" stroke="midnightblue" d="M61.5,-259.12C61.5,-249.82 61.5,-239.06 61.5,-231.71"/>
<polygon fill="midnightblue" stroke="midnightblue" points="58,-259.41 61.5,-269.41 65,-259.41 58,-259.41"/>
</g>
</g>
</svg>
