<svg xmlns="http://www.w3.org/2000/svg" xmlns:xlink="http://www.w3.org/1999/xlink" width="184" height="85pt" viewBox="0 0 137.5 85"><g id="graph0" class="graph" transform="scale(1 1) rotate(0) translate(4 81)"><title>debIFTypeSrc</title><polygon fill="#fff" stroke="transparent" points="-4 4 -4 -81 133.5 -81 133.5 4 -4 4"/><g id="node1" class="node"><title>Node1</title><g id="a_node1"><a><polygon fill="#bfbfbf" stroke="#000" points="0 -.5 0 -19.5 80 -19.5 80 -.5 0 -.5"/><text x="40" y="-7.5" font-family="Helvetica,sans-Serif" font-size="10" text-anchor="middle">debIFTypeSrc</text></a></g></g><g id="node2" class="node"><title>Node2</title><g id="a_node2"><a target="_top" xlink:href="classpkgIndexFile_1_1Type.xhtml"><polygon fill="#fff" stroke="#000" points="20.5 -57.5 20.5 -76.5 59.5 -76.5 59.5 -57.5 20.5 -57.5"/><text x="40" y="-64.5" font-family="Helvetica,sans-Serif" font-size="10" text-anchor="middle">Type</text></a></g></g><g id="edge1" class="edge"><title>Node2-&gt;Node1</title><path fill="none" stroke="#191970" d="M40,-47.12C40,-37.82 40,-27.06 40,-19.71"/><polygon fill="#191970" stroke="#191970" points="36.5 -47.41 40 -57.41 43.5 -47.41 36.5 -47.41"/></g><g id="edge2" class="edge"><title>Node2-&gt;Node2</title><path fill="none" stroke="#9a32cd" stroke-dasharray="5 2" d="M69.83,-71.79C74.4,-71.06 77.5,-69.47 77.5,-67 77.5,-62.95 69.14,-61.25 59.68,-61.88"/><polygon fill="#9a32cd" stroke="#9a32cd" points="69.56 -68.3 59.68 -72.12 69.79 -75.3 69.56 -68.3"/><text x="103.5" y="-64.5" font-family="Helvetica,sans-Serif" font-size="10" text-anchor="middle">GlobalList</text></g></g></svg>