<svg xmlns="http://www.w3.org/2000/svg" xmlns:xlink="http://www.w3.org/1999/xlink" width="172pt" height="173pt" viewBox="0 0 172 173"><g id="graph0" class="graph" transform="scale(1 1) rotate(0) translate(4 169)"><title>pkgTagSectionPrivate</title><polygon fill="#fff" stroke="transparent" points="-4 4 -4 -169 168 -169 168 4 -4 4"/><g id="node1" class="node"><title>Node1</title><g id="a_node1"><a><polygon fill="#bfbfbf" stroke="#000" points="21 -.5 21 -19.5 143 -19.5 143 -.5 21 -.5"/><text x="82" y="-7.5" font-family="Helvetica,sans-Serif" font-size="10" text-anchor="middle">pkgTagSectionPrivate</text></a></g></g><g id="node2" class="node"><title>Node2</title><g id="a_node2"><a><polygon fill="#fff" stroke="#bfbfbf" points="0 -67.5 0 -97.5 164 -97.5 164 -67.5 0 -67.5"/><text x="8" y="-85.5" font-family="Helvetica,sans-Serif" font-size="10" text-anchor="start">vector&lt; pkgTagSectionPrivate</text><text x="82" y="-74.5" font-family="Helvetica,sans-Serif" font-size="10" text-anchor="middle">::TagData &gt;</text></a></g></g><g id="edge1" class="edge"><title>Node2-&gt;Node1</title><path fill="none" stroke="#9a32cd" stroke-dasharray="5 2" d="M82,-57.09C82,-44.21 82,-29.2 82,-19.89"/><polygon fill="#9a32cd" stroke="#9a32cd" points="78.5 -57.23 82 -67.23 85.5 -57.23 78.5 -57.23"/><text x="94.5" y="-41" font-family="Helvetica,sans-Serif" font-size="10" text-anchor="middle">Tags</text></g><g id="node3" class="node"><title>Node3</title><g id="a_node3"><a target="_top" xlink:href="structpkgTagSectionPrivate_1_1TagData.xhtml"><polygon fill="#fff" stroke="#000" points="54 -145.5 54 -164.5 110 -164.5 110 -145.5 54 -145.5"/><text x="82" y="-152.5" font-family="Helvetica,sans-Serif" font-size="10" text-anchor="middle">TagData</text></a></g></g><g id="edge2" class="edge"><title>Node3-&gt;Node2</title><path fill="none" stroke="#9a32cd" stroke-dasharray="5 2" d="M82,-135.24C82,-123.41 82,-108.38 82,-97.58"/><polygon fill="#9a32cd" stroke="#9a32cd" points="78.5 -135.36 82 -145.36 85.5 -135.36 78.5 -135.36"/><text x="106.5" y="-119" font-family="Helvetica,sans-Serif" font-size="10" text-anchor="middle">elements</text></g></g></svg>