<svg xmlns="http://www.w3.org/2000/svg" xmlns:xlink="http://www.w3.org/1999/xlink" width="384" height="95pt" viewBox="0 0 288 95"><g id="graph0" class="graph" transform="scale(1 1) rotate(0) translate(4 91)"><title>debDebFile</title><polygon fill="#fff" stroke="transparent" points="-4 4 -4 -91 284 -91 284 4 -4 4"/><g id="node1" class="node"><title>Node1</title><g id="a_node1"><a><polygon fill="#bfbfbf" stroke="#000" points="98 -.5 98 -19.5 169 -19.5 169 -.5 98 -.5"/><text x="133.5" y="-7.5" font-family="Helvetica,sans-Serif" font-size="10" text-anchor="middle">debDebFile</text></a></g></g><g id="node2" class="node"><title>Node2</title><g id="a_node2"><a><polygon fill="#fff" stroke="#bfbfbf" points="0 -56.5 0 -86.5 119 -86.5 119 -56.5 0 -56.5"/><text x="8" y="-74.5" font-family="Helvetica,sans-Serif" font-size="10" text-anchor="start">ControlExtract public</text><text x="59.5" y="-63.5" font-family="Helvetica,sans-Serif" font-size="10" text-anchor="middle">pkgDirStream</text></a></g></g><g id="edge1" class="edge"><title>Node2-&gt;Node1</title><path fill="none" stroke="#8b1a1a" d="M85.13,-49.89C98,-39.54 112.91,-27.56 122.73,-19.66"/><polygon fill="#8b1a1a" stroke="#8b1a1a" points="82.64 -47.41 77.04 -56.4 87.02 -52.86 82.64 -47.41"/></g><g id="node3" class="node"><title>Node3</title><g id="a_node3"><a><polygon fill="#fff" stroke="#bfbfbf" points="137 -56.5 137 -86.5 280 -86.5 280 -56.5 137 -56.5"/><text x="145" y="-74.5" font-family="Helvetica,sans-Serif" font-size="10" text-anchor="start">MemControlExtract public</text><text x="208.5" y="-63.5" font-family="Helvetica,sans-Serif" font-size="10" text-anchor="middle">pkgDirStream</text></a></g></g><g id="edge2" class="edge"><title>Node3-&gt;Node1</title><path fill="none" stroke="#8b1a1a" d="M182.53,-49.89C169.48,-39.54 154.37,-27.56 144.41,-19.66"/><polygon fill="#8b1a1a" stroke="#8b1a1a" points="180.72 -52.93 190.73 -56.4 185.07 -47.44 180.72 -52.93"/></g></g></svg>