<?xml version="1.0" encoding="UTF-8" standalone="no"?>
<!DOCTYPE svg PUBLIC "-//W3C//DTD SVG 1.1//EN"
 "http://www.w3.org/Graphics/SVG/1.1/DTD/svg11.dtd">
<!-- Generated by graphviz version 2.43.0 (0)
 -->
<!-- Title: pkgAcqBaseIndex Pages: 1 -->
<svg width="368pt" height="252pt"
 viewBox="0.00 0.00 368.00 252.00" xmlns="http://www.w3.org/2000/svg" xmlns:xlink="http://www.w3.org/1999/xlink">
<g id="graph0" class="graph" transform="scale(1 1) rotate(0) translate(4 248)">
<title>pkgAcqBaseIndex</title>
<polygon fill="white" stroke="transparent" points="-4,4 -4,-248 364,-248 364,4 -4,4"/>
<!-- Node1 -->
<g id="node1" class="node">
<title>Node1</title>
<g id="a_node1"><a xlink:title="Common base class for all classes that deal with fetching indexes {{{.">
<polygon fill="#bfbfbf" stroke="black" points="105.5,-112.5 105.5,-131.5 209.5,-131.5 209.5,-112.5 105.5,-112.5"/>
<text text-anchor="middle" x="157.5" y="-119.5" font-family="Helvetica,sans-Serif" font-size="10.00">pkgAcqBaseIndex</text>
</a>
</g>
</g>
<!-- Node4 -->
<g id="node4" class="node">
<title>Node4</title>
<g id="a_node4"><a xlink:href="classpkgAcqIndex.xhtml" target="_top" xlink:title="An acquire item that is responsible for fetching an index {{{ file (e.g., Packages or Sources).">
<polygon fill="white" stroke="black" points="8.5,-56.5 8.5,-75.5 88.5,-75.5 88.5,-56.5 8.5,-56.5"/>
<text text-anchor="middle" x="48.5" y="-63.5" font-family="Helvetica,sans-Serif" font-size="10.00">pkgAcqIndex</text>
</a>
</g>
</g>
<!-- Node1&#45;&gt;Node4 -->
<g id="edge3" class="edge">
<title>Node1&#45;&gt;Node4</title>
<path fill="none" stroke="midnightblue" d="M130.98,-107.86C110.77,-97.85 83.51,-84.35 65.97,-75.65"/>
<polygon fill="midnightblue" stroke="midnightblue" points="129.47,-111.02 139.99,-112.32 132.58,-104.75 129.47,-111.02"/>
</g>
<!-- Node6 -->
<g id="node6" class="node">
<title>Node6</title>
<g id="a_node6"><a xlink:href="classpkgAcqIndexDiffs.xhtml" target="_top" xlink:title="An item that is responsible for fetching server&#45;merge patches {{{ that need to be applied to a given ...">
<polygon fill="white" stroke="black" points="106.5,-56.5 106.5,-75.5 208.5,-75.5 208.5,-56.5 106.5,-56.5"/>
<text text-anchor="middle" x="157.5" y="-63.5" font-family="Helvetica,sans-Serif" font-size="10.00">pkgAcqIndexDiffs</text>
</a>
</g>
</g>
<!-- Node1&#45;&gt;Node6 -->
<g id="edge5" class="edge">
<title>Node1&#45;&gt;Node6</title>
<path fill="none" stroke="midnightblue" d="M157.5,-101.8C157.5,-92.91 157.5,-82.78 157.5,-75.75"/>
<polygon fill="midnightblue" stroke="midnightblue" points="154,-102.08 157.5,-112.08 161,-102.08 154,-102.08"/>
</g>
<!-- Node7 -->
<g id="node7" class="node">
<title>Node7</title>
<g id="a_node7"><a xlink:href="classpkgAcqIndexMergeDiffs.xhtml" target="_top" xlink:title="An item that is responsible for fetching client&#45;merge patches {{{ that need to be applied to a given ...">
<polygon fill="white" stroke="black" points="227,-56.5 227,-75.5 360,-75.5 360,-56.5 227,-56.5"/>
<text text-anchor="middle" x="293.5" y="-63.5" font-family="Helvetica,sans-Serif" font-size="10.00">pkgAcqIndexMergeDiffs</text>
</a>
</g>
</g>
<!-- Node1&#45;&gt;Node7 -->
<g id="edge6" class="edge">
<title>Node1&#45;&gt;Node7</title>
<path fill="none" stroke="midnightblue" d="M188.63,-108.64C214.16,-98.5 249.61,-84.43 272.05,-75.52"/>
<polygon fill="midnightblue" stroke="midnightblue" points="187.05,-105.5 179.05,-112.44 189.64,-112.01 187.05,-105.5"/>
</g>
<!-- Node2 -->
<g id="node2" class="node">
<title>Node2</title>
<g id="a_node2"><a xlink:href="classpkgAcqTransactionItem.xhtml" target="_top" xlink:title="baseclass for the indexes files to manage them all together">
<polygon fill="white" stroke="black" points="92,-168.5 92,-187.5 223,-187.5 223,-168.5 92,-168.5"/>
<text text-anchor="middle" x="157.5" y="-175.5" font-family="Helvetica,sans-Serif" font-size="10.00">pkgAcqTransactionItem</text>
</a>
</g>
</g>
<!-- Node2&#45;&gt;Node1 -->
<g id="edge1" class="edge">
<title>Node2&#45;&gt;Node1</title>
<path fill="none" stroke="midnightblue" d="M157.5,-157.8C157.5,-148.91 157.5,-138.78 157.5,-131.75"/>
<polygon fill="midnightblue" stroke="midnightblue" points="154,-158.08 157.5,-168.08 161,-158.08 154,-158.08"/>
</g>
<!-- Node3 -->
<g id="node3" class="node">
<title>Node3</title>
<g id="a_node3"><a xlink:title=" ">
<polygon fill="white" stroke="#bfbfbf" points="138,-224.5 138,-243.5 177,-243.5 177,-224.5 138,-224.5"/>
<text text-anchor="middle" x="157.5" y="-231.5" font-family="Helvetica,sans-Serif" font-size="10.00">Item</text>
</a>
</g>
</g>
<!-- Node3&#45;&gt;Node2 -->
<g id="edge2" class="edge">
<title>Node3&#45;&gt;Node2</title>
<path fill="none" stroke="midnightblue" d="M157.5,-213.8C157.5,-204.91 157.5,-194.78 157.5,-187.75"/>
<polygon fill="midnightblue" stroke="midnightblue" points="154,-214.08 157.5,-224.08 161,-214.08 154,-214.08"/>
</g>
<!-- Node5 -->
<g id="node5" class="node">
<title>Node5</title>
<g id="a_node5"><a xlink:href="classpkgAcqDiffIndex.xhtml" target="_top" xlink:title="An item that is responsible for fetching an index file of {{{ package list diffs and starting the pac...">
<polygon fill="white" stroke="black" points="0,-0.5 0,-19.5 97,-19.5 97,-0.5 0,-0.5"/>
<text text-anchor="middle" x="48.5" y="-7.5" font-family="Helvetica,sans-Serif" font-size="10.00">pkgAcqDiffIndex</text>
</a>
</g>
</g>
<!-- Node4&#45;&gt;Node5 -->
<g id="edge4" class="edge">
<title>Node4&#45;&gt;Node5</title>
<path fill="none" stroke="midnightblue" d="M48.5,-45.8C48.5,-36.91 48.5,-26.78 48.5,-19.75"/>
<polygon fill="midnightblue" stroke="midnightblue" points="45,-46.08 48.5,-56.08 52,-46.08 45,-46.08"/>
</g>
</g>
</svg>
