<svg xmlns="http://www.w3.org/2000/svg" xmlns:xlink="http://www.w3.org/1999/xlink" width="216" height="152pt" viewBox="0 0 162 152"><g id="graph0" class="graph" transform="scale(1 1) rotate(0) translate(4 148)"><title>debDebFileRecordParser</title><polygon fill="#fff" stroke="transparent" points="-4 4 -4 -148 158 -148 158 4 -4 4"/><g id="node1" class="node"><title>Node1</title><g id="a_node1"><a><polygon fill="#bfbfbf" stroke="#000" points="0 -.5 0 -19.5 135 -19.5 135 -.5 0 -.5"/><text x="67.5" y="-7.5" font-family="Helvetica,sans-Serif" font-size="10" text-anchor="middle">debDebFileRecordParser</text></a></g></g><g id="node2" class="node"><title>Node2</title><g id="a_node2"><a target="_top" xlink:href="classdebRecordParserBase.xhtml"><polygon fill="#fff" stroke="#000" points="6.5 -57.5 6.5 -76.5 128.5 -76.5 128.5 -57.5 6.5 -57.5"/><text x="67.5" y="-64.5" font-family="Helvetica,sans-Serif" font-size="10" text-anchor="middle">debRecordParserBase</text></a></g></g><g id="edge1" class="edge"><title>Node2-&gt;Node1</title><path fill="none" stroke="#191970" d="M67.5,-47.12C67.5,-37.82 67.5,-27.06 67.5,-19.71"/><polygon fill="#191970" stroke="#191970" points="64 -47.41 67.5 -57.41 71 -47.41 64 -47.41"/></g><g id="node3" class="node"><title>Node3</title><g id="a_node3"><a><polygon fill="#fff" stroke="#bfbfbf" points="2 -124.5 2 -143.5 49 -143.5 49 -124.5 2 -124.5"/><text x="25.5" y="-131.5" font-family="Helvetica,sans-Serif" font-size="10" text-anchor="middle">Parser</text></a></g></g><g id="edge2" class="edge"><title>Node3-&gt;Node2</title><path fill="none" stroke="#191970" d="M36.79,-115.53C44.92,-102.95 55.54,-86.51 61.93,-76.63"/><polygon fill="#191970" stroke="#191970" points="33.65 -113.94 31.16 -124.23 39.53 -117.73 33.65 -113.94"/></g><g id="node4" class="node"><title>Node4</title><g id="a_node4"><a target="_top" xlink:href="classpkgTagSection.xhtml"><polygon fill="#fff" stroke="#000" points="67 -124.5 67 -143.5 154 -143.5 154 -124.5 67 -124.5"/><text x="110.5" y="-131.5" font-family="Helvetica,sans-Serif" font-size="10" text-anchor="middle">pkgTagSection</text></a></g></g><g id="edge3" class="edge"><title>Node4-&gt;Node2</title><path fill="none" stroke="#9a32cd" stroke-dasharray="5 2" d="M98.95,-115.53C90.62,-102.95 79.74,-86.51 73.21,-76.63"/><polygon fill="#9a32cd" stroke="#9a32cd" points="96.26 -117.82 104.7 -124.23 102.1 -113.96 96.26 -117.82"/><text x="111.5" y="-98" font-family="Helvetica,sans-Serif" font-size="10" text-anchor="middle">Section</text></g></g></svg>