<?xml version="1.0" encoding="UTF-8" standalone="no"?>
<!DOCTYPE svg PUBLIC "-//W3C//DTD SVG 1.1//EN"
 "http://www.w3.org/Graphics/SVG/1.1/DTD/svg11.dtd">
<!-- Generated by graphviz version 2.43.0 (0)
 -->
<!-- Title: Container_iterator_base&lt; Interface, Master, iterator_type, container_iterator, container_value &gt; Pages: 1 -->
<svg width="410pt" height="100pt"
 viewBox="0.00 0.00 410.00 99.50" xmlns="http://www.w3.org/2000/svg" xmlns:xlink="http://www.w3.org/1999/xlink">
<g id="graph0" class="graph" transform="scale(1 1) rotate(0) translate(4 95.5)">
<title>Container_iterator_base&lt; Interface, Master, iterator_type, container_iterator, container_value &gt;</title>
<polygon fill="white" stroke="transparent" points="-4,4 -4,-95.5 406,-95.5 406,4 -4,4"/>
<!-- Node1 -->
<g id="node1" class="node">
<title>Node1</title>
<g id="a_node1"><a xlink:title=" ">
<polygon fill="#bfbfbf" stroke="black" points="249,-16.5 249,-68.5 402,-68.5 402,-16.5 249,-16.5"/>
<text text-anchor="start" x="257" y="-56.5" font-family="Helvetica,sans-Serif" font-size="10.00">Container_iterator</text>
<text text-anchor="start" x="257" y="-45.5" font-family="Helvetica,sans-Serif" font-size="10.00">_base&lt; Interface, Master,</text>
<text text-anchor="start" x="257" y="-34.5" font-family="Helvetica,sans-Serif" font-size="10.00"> iterator_type, container</text>
<text text-anchor="middle" x="325.5" y="-23.5" font-family="Helvetica,sans-Serif" font-size="10.00">_iterator, container_value &gt;</text>
</a>
</g>
</g>
<!-- Node2 -->
<g id="node2" class="node">
<title>Node2</title>
<g id="a_node2"><a xlink:title=" ">
<polygon fill="white" stroke="#bfbfbf" points="0,-50 0,-91 213,-91 213,-50 0,-50"/>
<text text-anchor="start" x="8" y="-79" font-family="Helvetica,sans-Serif" font-size="10.00">iterator&lt; std::iterator</text>
<text text-anchor="start" x="8" y="-68" font-family="Helvetica,sans-Serif" font-size="10.00">_traits&lt; container_iterator</text>
<text text-anchor="middle" x="106.5" y="-57" font-family="Helvetica,sans-Serif" font-size="10.00"> &gt;::iterator_category, container_value &gt;</text>
</a>
</g>
</g>
<!-- Node2&#45;&gt;Node1 -->
<g id="edge1" class="edge">
<title>Node2&#45;&gt;Node1</title>
<path fill="none" stroke="midnightblue" d="M223.32,-55.56C231.99,-54.44 240.58,-53.33 248.9,-52.25"/>
<polygon fill="midnightblue" stroke="midnightblue" points="222.61,-52.12 213.14,-56.87 223.51,-59.06 222.61,-52.12"/>
</g>
<!-- Node3 -->
<g id="node3" class="node">
<title>Node3</title>
<g id="a_node3"><a xlink:title=" ">
<polygon fill="white" stroke="#bfbfbf" points="42.5,-0.5 42.5,-30.5 170.5,-30.5 170.5,-0.5 42.5,-0.5"/>
<text text-anchor="start" x="50.5" y="-18.5" font-family="Helvetica,sans-Serif" font-size="10.00">template iterator_base</text>
<text text-anchor="middle" x="106.5" y="-7.5" font-family="Helvetica,sans-Serif" font-size="10.00">&lt; iterator_type &gt;</text>
</a>
</g>
</g>
<!-- Node3&#45;&gt;Node1 -->
<g id="edge2" class="edge">
<title>Node3&#45;&gt;Node1</title>
<path fill="none" stroke="midnightblue" d="M180.51,-24.58C202.56,-27.33 226.79,-30.34 248.99,-33.1"/>
<polygon fill="midnightblue" stroke="midnightblue" points="180.91,-21.11 170.56,-23.35 180.05,-28.05 180.91,-21.11"/>
</g>
</g>
</svg>
