<?xml version="1.0" encoding="UTF-8" standalone="no"?>
<!DOCTYPE svg PUBLIC "-//W3C//DTD SVG 1.1//EN"
 "http://www.w3.org/Graphics/SVG/1.1/DTD/svg11.dtd">
<!-- Generated by graphviz version 2.43.0 (0)
 -->
<!-- Title: StateChanges::Private Pages: 1 -->
<svg width="201pt" height="218pt"
 viewBox="0.00 0.00 201.00 218.00" xmlns="http://www.w3.org/2000/svg" xmlns:xlink="http://www.w3.org/1999/xlink">
<g id="graph0" class="graph" transform="scale(1 1) rotate(0) translate(4 214)">
<title>StateChanges::Private</title>
<polygon fill="white" stroke="transparent" points="-4,4 -4,-214 197,-214 197,4 -4,4"/>
<!-- Node1 -->
<g id="node1" class="node">
<title>Node1</title>
<g id="a_node1"><a xlink:title=" ">
<polygon fill="#bfbfbf" stroke="black" points="34,-0.5 34,-19.5 159,-19.5 159,-0.5 34,-0.5"/>
<text text-anchor="middle" x="96.5" y="-7.5" font-family="Helvetica,sans-Serif" font-size="10.00">StateChanges::Private</text>
</a>
</g>
</g>
<!-- Node2 -->
<g id="node2" class="node">
<title>Node2</title>
<g id="a_node2"><a xlink:href="classAPT_1_1VersionContainer.xhtml" target="_top" xlink:title=" ">
<polygon fill="white" stroke="black" points="0,-122.5 0,-152.5 193,-152.5 193,-122.5 0,-122.5"/>
<text text-anchor="start" x="8" y="-140.5" font-family="Helvetica,sans-Serif" font-size="10.00">VersionContainer&lt; std</text>
<text text-anchor="middle" x="96.5" y="-129.5" font-family="Helvetica,sans-Serif" font-size="10.00">::vector&lt; pkgCache::VerIterator &gt; &gt;</text>
</a>
</g>
</g>
<!-- Node2&#45;&gt;Node1 -->
<g id="edge1" class="edge">
<title>Node2&#45;&gt;Node1</title>
<path fill="none" stroke="#9a32cd" stroke-dasharray="5,2" d="M96.5,-111.79C96.5,-83.42 96.5,-38.39 96.5,-19.64"/>
<polygon fill="#9a32cd" stroke="#9a32cd" points="93,-112.1 96.5,-122.1 100,-112.1 93,-112.1"/>
<text text-anchor="middle" x="119.5" y="-96" font-family="Helvetica,sans-Serif" font-size="10.00"> deinstall</text>
<text text-anchor="middle" x="119.5" y="-85" font-family="Helvetica,sans-Serif" font-size="10.00">error</text>
<text text-anchor="middle" x="119.5" y="-74" font-family="Helvetica,sans-Serif" font-size="10.00">hold</text>
<text text-anchor="middle" x="119.5" y="-63" font-family="Helvetica,sans-Serif" font-size="10.00">install</text>
<text text-anchor="middle" x="119.5" y="-52" font-family="Helvetica,sans-Serif" font-size="10.00">purge</text>
<text text-anchor="middle" x="119.5" y="-41" font-family="Helvetica,sans-Serif" font-size="10.00">unhold</text>
</g>
<!-- Node3 -->
<g id="node3" class="node">
<title>Node3</title>
<g id="a_node3"><a xlink:href="classAPT_1_1VersionContainerInterface.xhtml" target="_top" xlink:title=" ">
<polygon fill="white" stroke="black" points="25,-190.5 25,-209.5 168,-209.5 168,-190.5 25,-190.5"/>
<text text-anchor="middle" x="96.5" y="-197.5" font-family="Helvetica,sans-Serif" font-size="10.00">VersionContainerInterface</text>
</a>
</g>
</g>
<!-- Node3&#45;&gt;Node2 -->
<g id="edge2" class="edge">
<title>Node3&#45;&gt;Node2</title>
<path fill="none" stroke="midnightblue" d="M96.5,-180.22C96.5,-171.36 96.5,-160.96 96.5,-152.76"/>
<polygon fill="midnightblue" stroke="midnightblue" points="93,-180.33 96.5,-190.33 100,-180.33 93,-180.33"/>
</g>
</g>
</svg>
