<svg xmlns="http://www.w3.org/2000/svg" xmlns:xlink="http://www.w3.org/1999/xlink" width="352pt" height="388pt" viewBox="0 0 352.15 388"><g id="graph0" class="graph" transform="scale(1 1) rotate(0) translate(4 384)"><title>BufferedWriteFileFdPrivate</title><polygon fill="#fff" stroke="transparent" points="-4 4 -4 -384 348.15 -384 348.15 4 -4 4"/><g id="node1" class="node"><title>Node1</title><g id="a_node1"><a><polygon fill="#bfbfbf" stroke="#000" points="155.15 -.5 155.15 -19.5 303.15 -19.5 303.15 -.5 155.15 -.5"/><text x="229.15" y="-7.5" font-family="Helvetica,sans-Serif" font-size="10" text-anchor="middle">BufferedWriteFileFdPrivate</text></a></g></g><g id="node2" class="node"><title>Node2</title><g id="a_node2"><a target="_top" xlink:href="classFileFdPrivate.xhtml"><polygon fill="#fff" stroke="#000" points="162.15 -67.5 162.15 -86.5 242.15 -86.5 242.15 -67.5 162.15 -67.5"/><text x="202.15" y="-74.5" font-family="Helvetica,sans-Serif" font-size="10" text-anchor="middle">FileFdPrivate</text></a></g></g><g id="edge1" class="edge"><title>Node2-&gt;Node1</title><path fill="none" stroke="#191970" d="M204.59,-57.03C205.79,-50.8 207.56,-43.95 210.15,-38 212.99,-31.48 217.53,-24.94 221.47,-19.93"/><polygon fill="#191970" stroke="#191970" points="201.07 -56.82 202.98 -67.24 207.99 -57.91 201.07 -56.82"/></g><g id="edge10" class="edge"><title>Node2-&gt;Node1</title><path fill="none" stroke="#9a32cd" stroke-dasharray="5 2" d="M209.72,-57.79C214.9,-45.31 221.54,-29.31 225.57,-19.63"/><polygon fill="#9a32cd" stroke="#9a32cd" points="206.4 -56.66 205.79 -67.23 212.86 -59.34 206.4 -56.66"/><text x="241.15" y="-41" font-family="Helvetica,sans-Serif" font-size="10" text-anchor="middle">wrapped</text></g><g id="node3" class="node"><title>Node3</title><g id="a_node3"><a target="_top" xlink:href="structAPT_1_1Configuration_1_1Compressor.xhtml" xlink:title="Representation of supported compressors."><polygon fill="#fff" stroke="#000" points="62.65 -134.5 62.65 -153.5 137.65 -153.5 137.65 -134.5 62.65 -134.5"/><text x="100.15" y="-141.5" font-family="Helvetica,sans-Serif" font-size="10" text-anchor="middle">Compressor</text></a></g></g><g id="edge2" class="edge"><title>Node3-&gt;Node2</title><path fill="none" stroke="#9a32cd" stroke-dasharray="5 2" d="M109.56,-125.27C114.08,-118.16 120.06,-110.38 127.15,-105 138.17,-96.63 152.03,-90.68 164.82,-86.54"/><polygon fill="#9a32cd" stroke="#9a32cd" points="106.33 -123.87 104.34 -134.28 112.38 -127.38 106.33 -123.87"/><text x="157.65" y="-108" font-family="Helvetica,sans-Serif" font-size="10" text-anchor="middle">compressor</text></g><g id="node4" class="node"><title>Node4</title><g id="a_node4"><a><polygon fill="#fff" stroke="#bfbfbf" points="101.15 -303.5 101.15 -322.5 145.15 -322.5 145.15 -303.5 101.15 -303.5"/><text x="123.15" y="-310.5" font-family="Helvetica,sans-Serif" font-size="10" text-anchor="middle">string</text></a></g></g><g id="edge3" class="edge"><title>Node4-&gt;Node3</title><path fill="none" stroke="#9a32cd" stroke-dasharray="5 2" d="M91.1,-303.67C62.89,-294.45 23.52,-276.55 5.15,-245 -17.8,-205.58 46.01,-169.45 80.17,-153.55"/><polygon fill="#9a32cd" stroke="#9a32cd" points="90.35 -307.1 100.94 -306.69 92.4 -300.41 90.35 -307.1"/><text x="29.65" y="-237" font-family="Helvetica,sans-Serif" font-size="10" text-anchor="middle">Binary</text><text x="29.65" y="-226" font-family="Helvetica,sans-Serif" font-size="10" text-anchor="middle">Extension</text><text x="29.65" y="-215" font-family="Helvetica,sans-Serif" font-size="10" text-anchor="middle">Name</text></g><g id="node6" class="node"><title>Node6</title><g id="a_node6"><a><polygon fill="#fff" stroke="#bfbfbf" points="63.65 -219 63.65 -238 182.65 -238 182.65 -219 63.65 -219"/><text x="123.15" y="-226" font-family="Helvetica,sans-Serif" font-size="10" text-anchor="middle">vector&lt; std::string &gt;</text></a></g></g><g id="edge6" class="edge"><title>Node4-&gt;Node6</title><path fill="none" stroke="#9a32cd" stroke-dasharray="5 2" d="M123.15,-293.43C123.15,-276.13 123.15,-251.11 123.15,-238.1"/><polygon fill="#9a32cd" stroke="#9a32cd" points="119.65 -293.48 123.15 -303.48 126.65 -293.48 119.65 -293.48"/><text x="147.65" y="-271.5" font-family="Helvetica,sans-Serif" font-size="10" text-anchor="middle">elements</text></g><g id="node8" class="node"><title>Node8</title><g id="a_node8"><a target="_top" xlink:href="classFileFd.xhtml"><polygon fill="#fff" stroke="#000" points="188.15 -173.5 188.15 -192.5 234.15 -192.5 234.15 -173.5 188.15 -173.5"/><text x="211.15" y="-180.5" font-family="Helvetica,sans-Serif" font-size="10" text-anchor="middle">FileFd</text></a></g></g><g id="edge9" class="edge"><title>Node4-&gt;Node8</title><path fill="none" stroke="#9a32cd" stroke-dasharray="5 2" d="M154.53,-300.79C162.4,-296.79 170.27,-291.59 176.15,-285 200.76,-257.46 208.26,-211.71 210.38,-192.7"/><polygon fill="#9a32cd" stroke="#9a32cd" points="153.05 -297.62 145.41 -304.95 155.96 -303.98 153.05 -297.62"/><text x="239.65" y="-277" font-family="Helvetica,sans-Serif" font-size="10" text-anchor="middle">FileName</text><text x="239.65" y="-266" font-family="Helvetica,sans-Serif" font-size="10" text-anchor="middle">TemporaryFileName</text></g><g id="node5" class="node"><title>Node5</title><g id="a_node5"><a><polygon fill="#fff" stroke="#bfbfbf" points="63.15 -360.5 63.15 -379.5 183.15 -379.5 183.15 -360.5 63.15 -360.5"/><text x="123.15" y="-367.5" font-family="Helvetica,sans-Serif" font-size="10" text-anchor="middle">basic_string&lt; Char &gt;</text></a></g></g><g id="edge4" class="edge"><title>Node5-&gt;Node4</title><path fill="none" stroke="#191970" d="M123.15,-350.12C123.15,-340.82 123.15,-330.06 123.15,-322.71"/><polygon fill="#191970" stroke="#191970" points="119.65 -350.41 123.15 -360.41 126.65 -350.41 119.65 -350.41"/></g><g id="edge5" class="edge"><title>Node6-&gt;Node3</title><path fill="none" stroke="#9a32cd" stroke-dasharray="5 2" d="M106.41,-211.23C102.25,-206.15 98.35,-200.23 96.15,-194 91.38,-180.48 94.59,-163.6 97.37,-153.6"/><polygon fill="#9a32cd" stroke="#9a32cd" points="104.09 -213.88 113.42 -218.9 109.26 -209.16 104.09 -213.88"/><text x="137.65" y="-186" font-family="Helvetica,sans-Serif" font-size="10" text-anchor="middle">CompressArgs</text><text x="137.65" y="-175" font-family="Helvetica,sans-Serif" font-size="10" text-anchor="middle">UncompressArgs</text></g><g id="node7" class="node"><title>Node7</title><g id="a_node7"><a target="_top" xlink:href="structsimple__buffer.xhtml"><polygon fill="#fff" stroke="#000" points="248.65 -134.5 248.65 -153.5 331.65 -153.5 331.65 -134.5 248.65 -134.5"/><text x="290.15" y="-141.5" font-family="Helvetica,sans-Serif" font-size="10" text-anchor="middle">simple_buffer</text></a></g></g><g id="edge11" class="edge"><title>Node7-&gt;Node1</title><path fill="none" stroke="#9a32cd" stroke-dasharray="5 2" d="M290.29,-124.13C289.59,-101.79 285.6,-64.3 268.15,-38 263.05,-30.31 254.95,-24.19 247.45,-19.72"/><polygon fill="#9a32cd" stroke="#9a32cd" points="286.79 -124.34 290.41 -134.29 293.79 -124.25 286.79 -124.34"/><text x="315.65" y="-74.5" font-family="Helvetica,sans-Serif" font-size="10" text-anchor="middle">writebuffer</text></g><g id="edge7" class="edge"><title>Node7-&gt;Node2</title><path fill="none" stroke="#9a32cd" stroke-dasharray="5 2" d="M264.55,-129.22C257.74,-125.22 250.52,-120.67 244.15,-116 231.79,-106.92 218.89,-94.8 210.71,-86.71"/><polygon fill="#9a32cd" stroke="#9a32cd" points="263.03 -132.39 273.46 -134.29 266.49 -126.3 263.03 -132.39"/><text x="260.15" y="-108" font-family="Helvetica,sans-Serif" font-size="10" text-anchor="middle">buffer</text></g><g id="edge8" class="edge"><title>Node8-&gt;Node2</title><path fill="none" stroke="#9a32cd" stroke-dasharray="5 2" d="M209.55,-163.43C207.58,-140.77 204.35,-103.41 202.9,-86.63"/><polygon fill="#9a32cd" stroke="#9a32cd" points="206.07 -163.83 210.42 -173.49 213.04 -163.22 206.07 -163.83"/><text x="223.15" y="-141.5" font-family="Helvetica,sans-Serif" font-size="10" text-anchor="middle">filefd</text></g></g></svg>