<?xml version="1.0" encoding="UTF-8" standalone="no"?>
<!DOCTYPE svg PUBLIC "-//W3C//DTD SVG 1.1//EN"
 "http://www.w3.org/Graphics/SVG/1.1/DTD/svg11.dtd">
<!-- Generated by graphviz version 2.43.0 (0)
 -->
<!-- Title: debRecordParserBase Pages: 1 -->
<svg width="260pt" height="140pt"
 viewBox="0.00 0.00 259.50 140.00" xmlns="http://www.w3.org/2000/svg" xmlns:xlink="http://www.w3.org/1999/xlink">
<g id="graph0" class="graph" transform="scale(1 1) rotate(0) translate(4 136)">
<title>debRecordParserBase</title>
<polygon fill="white" stroke="transparent" points="-4,4 -4,-136 255.5,-136 255.5,4 -4,4"/>
<!-- Node1 -->
<g id="node1" class="node">
<title>Node1</title>
<g id="a_node1"><a xlink:title=" ">
<polygon fill="#bfbfbf" stroke="black" points="73.5,-56.5 73.5,-75.5 195.5,-75.5 195.5,-56.5 73.5,-56.5"/>
<text text-anchor="middle" x="134.5" y="-63.5" font-family="Helvetica,sans-Serif" font-size="10.00">debRecordParserBase</text>
</a>
</g>
</g>
<!-- Node3 -->
<g id="node3" class="node">
<title>Node3</title>
<g id="a_node3"><a xlink:href="classdebDebFileRecordParser.xhtml" target="_top" xlink:title=" ">
<polygon fill="white" stroke="black" points="0,-0.5 0,-19.5 135,-19.5 135,-0.5 0,-0.5"/>
<text text-anchor="middle" x="67.5" y="-7.5" font-family="Helvetica,sans-Serif" font-size="10.00">debDebFileRecordParser</text>
</a>
</g>
</g>
<!-- Node1&#45;&gt;Node3 -->
<g id="edge2" class="edge">
<title>Node1&#45;&gt;Node3</title>
<path fill="none" stroke="midnightblue" d="M115.67,-49.82C103.66,-40.15 88.53,-27.95 78.46,-19.83"/>
<polygon fill="midnightblue" stroke="midnightblue" points="113.75,-52.77 123.74,-56.32 118.15,-47.32 113.75,-52.77"/>
</g>
<!-- Node4 -->
<g id="node4" class="node">
<title>Node4</title>
<g id="a_node4"><a xlink:href="classdebRecordParser.xhtml" target="_top" xlink:title=" ">
<polygon fill="white" stroke="black" points="153.5,-0.5 153.5,-19.5 251.5,-19.5 251.5,-0.5 153.5,-0.5"/>
<text text-anchor="middle" x="202.5" y="-7.5" font-family="Helvetica,sans-Serif" font-size="10.00">debRecordParser</text>
</a>
</g>
</g>
<!-- Node1&#45;&gt;Node4 -->
<g id="edge3" class="edge">
<title>Node1&#45;&gt;Node4</title>
<path fill="none" stroke="midnightblue" d="M153.26,-50.1C165.5,-40.38 181.06,-28.03 191.38,-19.83"/>
<polygon fill="midnightblue" stroke="midnightblue" points="151.08,-47.36 145.43,-56.32 155.43,-52.85 151.08,-47.36"/>
</g>
<!-- Node2 -->
<g id="node2" class="node">
<title>Node2</title>
<g id="a_node2"><a xlink:title=" ">
<polygon fill="white" stroke="#bfbfbf" points="111,-112.5 111,-131.5 158,-131.5 158,-112.5 111,-112.5"/>
<text text-anchor="middle" x="134.5" y="-119.5" font-family="Helvetica,sans-Serif" font-size="10.00">Parser</text>
</a>
</g>
</g>
<!-- Node2&#45;&gt;Node1 -->
<g id="edge1" class="edge">
<title>Node2&#45;&gt;Node1</title>
<path fill="none" stroke="midnightblue" d="M134.5,-101.8C134.5,-92.91 134.5,-82.78 134.5,-75.75"/>
<polygon fill="midnightblue" stroke="midnightblue" points="131,-102.08 134.5,-112.08 138,-102.08 131,-102.08"/>
</g>
</g>
</svg>
