<?xml version="1.0" encoding="UTF-8" standalone="no"?>
<!DOCTYPE svg PUBLIC "-//W3C//DTD SVG 1.1//EN"
 "http://www.w3.org/Graphics/SVG/1.1/DTD/svg11.dtd">
<!-- Generated by graphviz version 2.43.0 (0)
 -->
<!-- Title: edspLikeSystem Pages: 1 -->
<svg width="346pt" height="162pt"
 viewBox="0.00 0.00 345.50 162.00" xmlns="http://www.w3.org/2000/svg" xmlns:xlink="http://www.w3.org/1999/xlink">
<g id="graph0" class="graph" transform="scale(1 1) rotate(0) translate(4 158)">
<title>edspLikeSystem</title>
<polygon fill="white" stroke="transparent" points="-4,4 -4,-158 341.5,-158 341.5,4 -4,4"/>
<!-- Node1 -->
<g id="node1" class="node">
<title>Node1</title>
<g id="a_node1"><a xlink:title=" ">
<polygon fill="#bfbfbf" stroke="black" points="163,-0.5 163,-19.5 259,-19.5 259,-0.5 163,-0.5"/>
<text text-anchor="middle" x="211" y="-7.5" font-family="Helvetica,sans-Serif" font-size="10.00">edspLikeSystem</text>
</a>
</g>
</g>
<!-- Node2 -->
<g id="node2" class="node">
<title>Node2</title>
<g id="a_node2"><a xlink:href="classpkgSystem.xhtml" target="_top" xlink:title=" ">
<polygon fill="white" stroke="black" points="25.5,-67.5 25.5,-86.5 96.5,-86.5 96.5,-67.5 25.5,-67.5"/>
<text text-anchor="middle" x="61" y="-74.5" font-family="Helvetica,sans-Serif" font-size="10.00">pkgSystem</text>
</a>
</g>
</g>
<!-- Node2&#45;&gt;Node1 -->
<g id="edge1" class="edge">
<title>Node2&#45;&gt;Node1</title>
<path fill="none" stroke="midnightblue" d="M90.35,-63.28C120.06,-50.41 165.18,-30.85 191,-19.67"/>
<polygon fill="midnightblue" stroke="midnightblue" points="88.7,-60.18 80.92,-67.37 91.49,-66.6 88.7,-60.18"/>
</g>
<!-- Node2&#45;&gt;Node2 -->
<g id="edge2" class="edge">
<title>Node2&#45;&gt;Node2</title>
<path fill="none" stroke="#9a32cd" stroke-dasharray="5,2" d="M106.78,-81.95C111.49,-80.97 114.5,-79.32 114.5,-77 114.5,-73.28 106.79,-71.29 96.75,-71.03"/>
<polygon fill="#9a32cd" stroke="#9a32cd" points="106.35,-78.47 96.75,-82.97 107.06,-85.44 106.35,-78.47"/>
<text text-anchor="middle" x="140.5" y="-74.5" font-family="Helvetica,sans-Serif" font-size="10.00"> GlobalList</text>
</g>
<!-- Node3 -->
<g id="node3" class="node">
<title>Node3</title>
<g id="a_node3"><a xlink:href="classpkgVersioningSystem.xhtml" target="_top" xlink:title=" ">
<polygon fill="white" stroke="black" points="0,-134.5 0,-153.5 122,-153.5 122,-134.5 0,-134.5"/>
<text text-anchor="middle" x="61" y="-141.5" font-family="Helvetica,sans-Serif" font-size="10.00">pkgVersioningSystem</text>
</a>
</g>
</g>
<!-- Node3&#45;&gt;Node2 -->
<g id="edge3" class="edge">
<title>Node3&#45;&gt;Node2</title>
<path fill="none" stroke="#9a32cd" stroke-dasharray="5,2" d="M61,-124.04C61,-111.67 61,-96.12 61,-86.63"/>
<polygon fill="#9a32cd" stroke="#9a32cd" points="57.5,-124.23 61,-134.23 64.5,-124.23 57.5,-124.23"/>
<text text-anchor="middle" x="69" y="-108" font-family="Helvetica,sans-Serif" font-size="10.00"> VS</text>
</g>
<!-- Node3&#45;&gt;Node3 -->
<g id="edge4" class="edge">
<title>Node3&#45;&gt;Node3</title>
<path fill="none" stroke="#9a32cd" stroke-dasharray="5,2" d="M132.49,-148.28C137.17,-147.28 140,-145.86 140,-144 140,-141.03 132.75,-139.16 122.28,-138.4"/>
<polygon fill="#9a32cd" stroke="#9a32cd" points="131.74,-144.84 122.28,-149.6 132.65,-151.78 131.74,-144.84"/>
<text text-anchor="middle" x="166" y="-141.5" font-family="Helvetica,sans-Serif" font-size="10.00"> GlobalList</text>
</g>
<!-- Node4 -->
<g id="node4" class="node">
<title>Node4</title>
<g id="a_node4"><a xlink:title=" ">
<polygon fill="white" stroke="#bfbfbf" points="184.5,-67.5 184.5,-86.5 337.5,-86.5 337.5,-67.5 184.5,-67.5"/>
<text text-anchor="middle" x="261" y="-74.5" font-family="Helvetica,sans-Serif" font-size="10.00">unique_ptr&lt; pkgIndexFile &gt;</text>
</a>
</g>
</g>
<!-- Node4&#45;&gt;Node1 -->
<g id="edge5" class="edge">
<title>Node4&#45;&gt;Node1</title>
<path fill="none" stroke="#9a32cd" stroke-dasharray="5,2" d="M248.13,-59.27C238.38,-46.6 225.39,-29.7 217.64,-19.63"/>
<polygon fill="#9a32cd" stroke="#9a32cd" points="245.39,-61.44 254.26,-67.23 250.93,-57.17 245.39,-61.44"/>
<text text-anchor="middle" x="264" y="-41" font-family="Helvetica,sans-Serif" font-size="10.00"> StatusFile</text>
</g>
</g>
</svg>
