<?xml version="1.0" encoding="UTF-8" standalone="no"?>
<!DOCTYPE svg PUBLIC "-//W3C//DTD SVG 1.1//EN"
 "http://www.w3.org/Graphics/SVG/1.1/DTD/svg11.dtd">
<!-- Generated by graphviz version 2.43.0 (0)
 -->
<!-- Title: DynamicMMap Pages: 1 -->
<svg width="190pt" height="297pt"
 viewBox="0.00 0.00 190.00 297.00" xmlns="http://www.w3.org/2000/svg" xmlns:xlink="http://www.w3.org/1999/xlink">
<g id="graph0" class="graph" transform="scale(1 1) rotate(0) translate(4 293)">
<title>DynamicMMap</title>
<polygon fill="white" stroke="transparent" points="-4,4 -4,-293 186,-293 186,4 -4,4"/>
<!-- Node1 -->
<g id="node1" class="node">
<title>Node1</title>
<g id="a_node1"><a xlink:title=" ">
<polygon fill="#bfbfbf" stroke="black" points="57,-0.5 57,-19.5 147,-19.5 147,-0.5 57,-0.5"/>
<text text-anchor="middle" x="102" y="-7.5" font-family="Helvetica,sans-Serif" font-size="10.00">DynamicMMap</text>
</a>
</g>
</g>
<!-- Node2 -->
<g id="node2" class="node">
<title>Node2</title>
<g id="a_node2"><a xlink:href="classMMap.xhtml" target="_top" xlink:title=" ">
<polygon fill="white" stroke="black" points="78.5,-67.5 78.5,-86.5 125.5,-86.5 125.5,-67.5 78.5,-67.5"/>
<text text-anchor="middle" x="102" y="-74.5" font-family="Helvetica,sans-Serif" font-size="10.00">MMap</text>
</a>
</g>
</g>
<!-- Node2&#45;&gt;Node1 -->
<g id="edge1" class="edge">
<title>Node2&#45;&gt;Node1</title>
<path fill="none" stroke="midnightblue" d="M102,-57.04C102,-44.67 102,-29.12 102,-19.63"/>
<polygon fill="midnightblue" stroke="midnightblue" points="98.5,-57.23 102,-67.23 105.5,-57.23 98.5,-57.23"/>
</g>
<!-- Node3 -->
<g id="node3" class="node">
<title>Node3</title>
<g id="a_node3"><a xlink:href="classFileFd.xhtml" target="_top" xlink:title=" ">
<polygon fill="white" stroke="black" points="37,-134.5 37,-153.5 83,-153.5 83,-134.5 37,-134.5"/>
<text text-anchor="middle" x="60" y="-141.5" font-family="Helvetica,sans-Serif" font-size="10.00">FileFd</text>
</a>
</g>
</g>
<!-- Node3&#45;&gt;Node1 -->
<g id="edge6" class="edge">
<title>Node3&#45;&gt;Node1</title>
<path fill="none" stroke="#9a32cd" stroke-dasharray="5,2" d="M53.89,-124.62C49.67,-108.84 45.96,-85.74 53,-67 60.45,-47.17 78.47,-29.76 90.45,-19.81"/>
<polygon fill="#9a32cd" stroke="#9a32cd" points="50.55,-125.66 56.77,-134.24 57.25,-123.65 50.55,-125.66"/>
<text text-anchor="middle" x="61" y="-74.5" font-family="Helvetica,sans-Serif" font-size="10.00"> Fd</text>
</g>
<!-- Node3&#45;&gt;Node2 -->
<g id="edge2" class="edge">
<title>Node3&#45;&gt;Node2</title>
<path fill="none" stroke="#9a32cd" stroke-dasharray="5,2" d="M71.29,-125.53C79.42,-112.95 90.04,-96.51 96.43,-86.63"/>
<polygon fill="#9a32cd" stroke="#9a32cd" points="68.15,-123.94 65.66,-134.23 74.03,-127.73 68.15,-123.94"/>
<text text-anchor="middle" x="108.5" y="-108" font-family="Helvetica,sans-Serif" font-size="10.00"> SyncToFd</text>
</g>
<!-- Node4 -->
<g id="node4" class="node">
<title>Node4</title>
<g id="a_node4"><a xlink:title=" ">
<polygon fill="white" stroke="#bfbfbf" points="38,-212.5 38,-231.5 82,-231.5 82,-212.5 38,-212.5"/>
<text text-anchor="middle" x="60" y="-219.5" font-family="Helvetica,sans-Serif" font-size="10.00">string</text>
</a>
</g>
</g>
<!-- Node4&#45;&gt;Node3 -->
<g id="edge3" class="edge">
<title>Node4&#45;&gt;Node3</title>
<path fill="none" stroke="#9a32cd" stroke-dasharray="5,2" d="M60,-202.22C60,-186.7 60,-165.36 60,-153.62"/>
<polygon fill="#9a32cd" stroke="#9a32cd" points="56.5,-202.28 60,-212.28 63.5,-202.28 56.5,-202.28"/>
<text text-anchor="middle" x="109.5" y="-186" font-family="Helvetica,sans-Serif" font-size="10.00"> FileName</text>
<text text-anchor="middle" x="109.5" y="-175" font-family="Helvetica,sans-Serif" font-size="10.00">TemporaryFileName</text>
</g>
<!-- Node5 -->
<g id="node5" class="node">
<title>Node5</title>
<g id="a_node5"><a xlink:title=" ">
<polygon fill="white" stroke="#bfbfbf" points="0,-269.5 0,-288.5 120,-288.5 120,-269.5 0,-269.5"/>
<text text-anchor="middle" x="60" y="-276.5" font-family="Helvetica,sans-Serif" font-size="10.00">basic_string&lt; Char &gt;</text>
</a>
</g>
</g>
<!-- Node5&#45;&gt;Node4 -->
<g id="edge4" class="edge">
<title>Node5&#45;&gt;Node4</title>
<path fill="none" stroke="midnightblue" d="M60,-259.12C60,-249.82 60,-239.06 60,-231.71"/>
<polygon fill="midnightblue" stroke="midnightblue" points="56.5,-259.41 60,-269.41 63.5,-259.41 56.5,-259.41"/>
</g>
<!-- Node6 -->
<g id="node6" class="node">
<title>Node6</title>
<g id="a_node6"><a xlink:href="structDynamicMMap_1_1Pool.xhtml" target="_top" xlink:title=" ">
<polygon fill="white" stroke="black" points="144,-67.5 144,-86.5 182,-86.5 182,-67.5 144,-67.5"/>
<text text-anchor="middle" x="163" y="-74.5" font-family="Helvetica,sans-Serif" font-size="10.00">Pool</text>
</a>
</g>
</g>
<!-- Node6&#45;&gt;Node1 -->
<g id="edge5" class="edge">
<title>Node6&#45;&gt;Node1</title>
<path fill="none" stroke="#9a32cd" stroke-dasharray="5,2" d="M147.64,-59.63C135.71,-46.92 119.64,-29.8 110.1,-19.63"/>
<polygon fill="#9a32cd" stroke="#9a32cd" points="145.38,-62.34 154.77,-67.23 150.48,-57.55 145.38,-62.34"/>
<text text-anchor="middle" x="151" y="-41" font-family="Helvetica,sans-Serif" font-size="10.00"> Pools</text>
</g>
</g>
</svg>
