<svg xmlns="http://www.w3.org/2000/svg" xmlns:xlink="http://www.w3.org/1999/xlink" width="340pt" height="504" viewBox="0 0 339.65 378"><g id="graph0" class="graph" transform="scale(1 1) rotate(0) translate(4 374)"><title>LzmaFileFdPrivate</title><polygon fill="#fff" stroke="transparent" points="-4 4 -4 -374 335.65 -374 335.65 4 -4 4"/><g id="node1" class="node"><title>Node1</title><g id="a_node1"><a><polygon fill="#bfbfbf" stroke="#000" points="148.65 -.5 148.65 -19.5 255.65 -19.5 255.65 -.5 148.65 -.5"/><text x="202.15" y="-7.5" font-family="Helvetica,sans-Serif" font-size="10" text-anchor="middle">LzmaFileFdPrivate</text></a></g></g><g id="node2" class="node"><title>Node2</title><g id="a_node2"><a target="_top" xlink:href="classFileFdPrivate.xhtml"><polygon fill="#fff" stroke="#000" points="162.15 -57.5 162.15 -76.5 242.15 -76.5 242.15 -57.5 162.15 -57.5"/><text x="202.15" y="-64.5" font-family="Helvetica,sans-Serif" font-size="10" text-anchor="middle">FileFdPrivate</text></a></g></g><g id="edge1" class="edge"><title>Node2-&gt;Node1</title><path fill="none" stroke="#191970" d="M202.15,-47.12C202.15,-37.82 202.15,-27.06 202.15,-19.71"/><polygon fill="#191970" stroke="#191970" points="198.65 -47.41 202.15 -57.41 205.65 -47.41 198.65 -47.41"/></g><g id="node3" class="node"><title>Node3</title><g id="a_node3"><a target="_top" xlink:href="structAPT_1_1Configuration_1_1Compressor.xhtml" xlink:title="Representation of supported compressors."><polygon fill="#fff" stroke="#000" points="62.65 -124.5 62.65 -143.5 137.65 -143.5 137.65 -124.5 62.65 -124.5"/><text x="100.15" y="-131.5" font-family="Helvetica,sans-Serif" font-size="10" text-anchor="middle">Compressor</text></a></g></g><g id="edge2" class="edge"><title>Node3-&gt;Node2</title><path fill="none" stroke="#9a32cd" stroke-dasharray="5 2" d="M109.56,-115.27C114.08,-108.16 120.06,-100.38 127.15,-95 138.17,-86.63 152.03,-80.68 164.82,-76.54"/><polygon fill="#9a32cd" stroke="#9a32cd" points="106.33 -113.87 104.34 -124.28 112.38 -117.38 106.33 -113.87"/><text x="157.65" y="-98" font-family="Helvetica,sans-Serif" font-size="10" text-anchor="middle">compressor</text></g><g id="node4" class="node"><title>Node4</title><g id="a_node4"><a><polygon fill="#fff" stroke="#bfbfbf" points="101.15 -293.5 101.15 -312.5 145.15 -312.5 145.15 -293.5 101.15 -293.5"/><text x="123.15" y="-300.5" font-family="Helvetica,sans-Serif" font-size="10" text-anchor="middle">string</text></a></g></g><g id="edge3" class="edge"><title>Node4-&gt;Node3</title><path fill="none" stroke="#9a32cd" stroke-dasharray="5 2" d="M91.1,-293.67C62.89,-284.45 23.52,-266.55 5.15,-235 -17.8,-195.58 46.01,-159.45 80.17,-143.55"/><polygon fill="#9a32cd" stroke="#9a32cd" points="90.35 -297.1 100.94 -296.69 92.4 -290.41 90.35 -297.1"/><text x="29.65" y="-227" font-family="Helvetica,sans-Serif" font-size="10" text-anchor="middle">Binary</text><text x="29.65" y="-216" font-family="Helvetica,sans-Serif" font-size="10" text-anchor="middle">Extension</text><text x="29.65" y="-205" font-family="Helvetica,sans-Serif" font-size="10" text-anchor="middle">Name</text></g><g id="node6" class="node"><title>Node6</title><g id="a_node6"><a><polygon fill="#fff" stroke="#bfbfbf" points="63.65 -209 63.65 -228 182.65 -228 182.65 -209 63.65 -209"/><text x="123.15" y="-216" font-family="Helvetica,sans-Serif" font-size="10" text-anchor="middle">vector&lt; std::string &gt;</text></a></g></g><g id="edge6" class="edge"><title>Node4-&gt;Node6</title><path fill="none" stroke="#9a32cd" stroke-dasharray="5 2" d="M123.15,-283.43C123.15,-266.13 123.15,-241.11 123.15,-228.1"/><polygon fill="#9a32cd" stroke="#9a32cd" points="119.65 -283.48 123.15 -293.48 126.65 -283.48 119.65 -283.48"/><text x="147.65" y="-261.5" font-family="Helvetica,sans-Serif" font-size="10" text-anchor="middle">elements</text></g><g id="node8" class="node"><title>Node8</title><g id="a_node8"><a target="_top" xlink:href="classFileFd.xhtml"><polygon fill="#fff" stroke="#000" points="188.15 -163.5 188.15 -182.5 234.15 -182.5 234.15 -163.5 188.15 -163.5"/><text x="211.15" y="-170.5" font-family="Helvetica,sans-Serif" font-size="10" text-anchor="middle">FileFd</text></a></g></g><g id="edge9" class="edge"><title>Node4-&gt;Node8</title><path fill="none" stroke="#9a32cd" stroke-dasharray="5 2" d="M154.43,-290.7C162.3,-286.7 170.2,-281.52 176.15,-275 201.06,-247.73 208.39,-201.83 210.42,-182.74"/><polygon fill="#9a32cd" stroke="#9a32cd" points="152.96 -287.53 145.32 -294.87 155.87 -293.89 152.96 -287.53"/><text x="239.65" y="-267" font-family="Helvetica,sans-Serif" font-size="10" text-anchor="middle">FileName</text><text x="239.65" y="-256" font-family="Helvetica,sans-Serif" font-size="10" text-anchor="middle">TemporaryFileName</text></g><g id="node5" class="node"><title>Node5</title><g id="a_node5"><a><polygon fill="#fff" stroke="#bfbfbf" points="63.15 -350.5 63.15 -369.5 183.15 -369.5 183.15 -350.5 63.15 -350.5"/><text x="123.15" y="-357.5" font-family="Helvetica,sans-Serif" font-size="10" text-anchor="middle">basic_string&lt; Char &gt;</text></a></g></g><g id="edge4" class="edge"><title>Node5-&gt;Node4</title><path fill="none" stroke="#191970" d="M123.15,-340.12C123.15,-330.82 123.15,-320.06 123.15,-312.71"/><polygon fill="#191970" stroke="#191970" points="119.65 -340.41 123.15 -350.41 126.65 -340.41 119.65 -340.41"/></g><g id="edge5" class="edge"><title>Node6-&gt;Node3</title><path fill="none" stroke="#9a32cd" stroke-dasharray="5 2" d="M106.41,-201.23C102.25,-196.15 98.35,-190.23 96.15,-184 91.38,-170.48 94.59,-153.6 97.37,-143.6"/><polygon fill="#9a32cd" stroke="#9a32cd" points="104.09 -203.88 113.42 -208.9 109.26 -199.16 104.09 -203.88"/><text x="137.65" y="-176" font-family="Helvetica,sans-Serif" font-size="10" text-anchor="middle">CompressArgs</text><text x="137.65" y="-165" font-family="Helvetica,sans-Serif" font-size="10" text-anchor="middle">UncompressArgs</text></g><g id="node7" class="node"><title>Node7</title><g id="a_node7"><a target="_top" xlink:href="structsimple__buffer.xhtml"><polygon fill="#fff" stroke="#000" points="248.65 -124.5 248.65 -143.5 331.65 -143.5 331.65 -124.5 248.65 -124.5"/><text x="290.15" y="-131.5" font-family="Helvetica,sans-Serif" font-size="10" text-anchor="middle">simple_buffer</text></a></g></g><g id="edge7" class="edge"><title>Node7-&gt;Node2</title><path fill="none" stroke="#9a32cd" stroke-dasharray="5 2" d="M269.94,-118.07C252.57,-105.24 228.13,-87.19 213.83,-76.63"/><polygon fill="#9a32cd" stroke="#9a32cd" points="268.16 -121.11 278.28 -124.23 272.32 -115.48 268.16 -121.11"/><text x="267.15" y="-98" font-family="Helvetica,sans-Serif" font-size="10" text-anchor="middle">buffer</text></g><g id="edge8" class="edge"><title>Node8-&gt;Node2</title><path fill="none" stroke="#9a32cd" stroke-dasharray="5 2" d="M209.55,-153.43C207.58,-130.77 204.35,-93.41 202.9,-76.63"/><polygon fill="#9a32cd" stroke="#9a32cd" points="206.07 -153.83 210.42 -163.49 213.04 -153.22 206.07 -153.83"/><text x="222.15" y="-131.5" font-family="Helvetica,sans-Serif" font-size="10" text-anchor="middle">filefd</text></g></g></svg>