<svg xmlns="http://www.w3.org/2000/svg" xmlns:xlink="http://www.w3.org/1999/xlink" width="133pt" height="140pt" viewBox="0 0 133 140"><g id="graph0" class="graph" transform="scale(1 1) rotate(0) translate(4 136)"><title>pkgSrcRecords::Parser</title><polygon fill="#fff" stroke="transparent" points="-4 4 -4 -136 129 -136 129 4 -4 4"/><g id="node1" class="node"><title>Node1</title><g id="a_node1"><a><polygon fill="#bfbfbf" stroke="#000" points="0 -112.5 0 -131.5 125 -131.5 125 -112.5 0 -112.5"/><text x="62.5" y="-119.5" font-family="Helvetica,sans-Serif" font-size="10" text-anchor="middle">pkgSrcRecords::Parser</text></a></g></g><g id="node2" class="node"><title>Node2</title><g id="a_node2"><a target="_top" xlink:href="classdebSrcRecordParser.xhtml"><polygon fill="#fff" stroke="#000" points="6 -56.5 6 -75.5 119 -75.5 119 -56.5 6 -56.5"/><text x="62.5" y="-63.5" font-family="Helvetica,sans-Serif" font-size="10" text-anchor="middle">debSrcRecordParser</text></a></g></g><g id="edge1" class="edge"><title>Node1-&gt;Node2</title><path fill="none" stroke="#191970" d="M62.5,-101.8C62.5,-92.91 62.5,-82.78 62.5,-75.75"/><polygon fill="#191970" stroke="#191970" points="59 -102.08 62.5 -112.08 66 -102.08 59 -102.08"/></g><g id="node3" class="node"><title>Node3</title><g id="a_node3"><a target="_top" xlink:href="classdebDscRecordParser.xhtml"><polygon fill="#fff" stroke="#000" points="4.5 -.5 4.5 -19.5 120.5 -19.5 120.5 -.5 4.5 -.5"/><text x="62.5" y="-7.5" font-family="Helvetica,sans-Serif" font-size="10" text-anchor="middle">debDscRecordParser</text></a></g></g><g id="edge2" class="edge"><title>Node2-&gt;Node3</title><path fill="none" stroke="#191970" d="M62.5,-45.8C62.5,-36.91 62.5,-26.78 62.5,-19.75"/><polygon fill="#191970" stroke="#191970" points="59 -46.08 62.5 -56.08 66 -46.08 59 -46.08"/></g></g></svg>