<svg xmlns="http://www.w3.org/2000/svg" xmlns:xlink="http://www.w3.org/1999/xlink" width="200pt" height="85pt" viewBox="0 0 200 85"><g id="graph0" class="graph" transform="scale(1 1) rotate(0) translate(4 81)"><title>debVersioningSystem</title><polygon fill="#fff" stroke="transparent" points="-4 4 -4 -81 196 -81 196 4 -4 4"/><g id="node1" class="node"><title>Node1</title><g id="a_node1"><a><polygon fill="#bfbfbf" stroke="#000" points="0 -.5 0 -19.5 122 -19.5 122 -.5 0 -.5"/><text x="61" y="-7.5" font-family="Helvetica,sans-Serif" font-size="10" text-anchor="middle">debVersioningSystem</text></a></g></g><g id="node2" class="node"><title>Node2</title><g id="a_node2"><a target="_top" xlink:href="classpkgVersioningSystem.xhtml"><polygon fill="#fff" stroke="#000" points="0 -57.5 0 -76.5 122 -76.5 122 -57.5 0 -57.5"/><text x="61" y="-64.5" font-family="Helvetica,sans-Serif" font-size="10" text-anchor="middle">pkgVersioningSystem</text></a></g></g><g id="edge1" class="edge"><title>Node2-&gt;Node1</title><path fill="none" stroke="#191970" d="M61,-47.12C61,-37.82 61,-27.06 61,-19.71"/><polygon fill="#191970" stroke="#191970" points="57.5 -47.41 61 -57.41 64.5 -47.41 57.5 -47.41"/></g><g id="edge2" class="edge"><title>Node2-&gt;Node2</title><path fill="none" stroke="#9a32cd" stroke-dasharray="5 2" d="M132.49,-70.74C137.17,-69.87 140,-68.62 140,-67 140,-64.4 132.75,-62.77 122.28,-62.1"/><polygon fill="#9a32cd" stroke="#9a32cd" points="131.82 -67.29 122.28 -71.9 132.61 -74.25 131.82 -67.29"/><text x="166" y="-64.5" font-family="Helvetica,sans-Serif" font-size="10" text-anchor="middle">GlobalList</text></g></g></svg>