<svg xmlns="http://www.w3.org/2000/svg" xmlns:xlink="http://www.w3.org/1999/xlink" width="600" height="442pt" viewBox="0 0 449.5 442"><g id="graph0" class="graph" transform="scale(1 1) rotate(0) translate(4 438)"><title>debReleaseIndex</title><polygon fill="#fff" stroke="transparent" points="-4 4 -4 -438 445.5 -438 445.5 4 -4 4"/><g id="node1" class="node"><title>Node1</title><g id="a_node1"><a><polygon fill="#bfbfbf" stroke="#000" points="117.5 -.5 117.5 -19.5 218.5 -19.5 218.5 -.5 117.5 -.5"/><text x="168" y="-7.5" font-family="Helvetica,sans-Serif" font-size="10" text-anchor="middle">debReleaseIndex</text></a></g></g><g id="node2" class="node"><title>Node2</title><g id="a_node2"><a target="_top" xlink:href="classmetaIndex.xhtml"><polygon fill="#fff" stroke="#000" points="133.5 -57.5 133.5 -76.5 202.5 -76.5 202.5 -57.5 133.5 -57.5"/><text x="168" y="-64.5" font-family="Helvetica,sans-Serif" font-size="10" text-anchor="middle">metaIndex</text></a></g></g><g id="edge1" class="edge"><title>Node2-&gt;Node1</title><path fill="none" stroke="#191970" d="M168,-47.12C168,-37.82 168,-27.06 168,-19.71"/><polygon fill="#191970" stroke="#191970" points="164.5 -47.41 168 -57.41 171.5 -47.41 164.5 -47.41"/></g><g id="node3" class="node"><title>Node3</title><g id="a_node3"><a><polygon fill="#fff" stroke="#bfbfbf" points="0 -130 0 -149 140 -149 140 -130 0 -130"/><text x="70" y="-137" font-family="Helvetica,sans-Serif" font-size="10" text-anchor="middle">vector&lt; pkgIndexFile * &gt;</text></a></g></g><g id="edge2" class="edge"><title>Node3-&gt;Node2</title><path fill="none" stroke="#9a32cd" stroke-dasharray="5 2" d="M83.64,-122.24C91.59,-113.44 102.16,-102.8 113,-95 123.27,-87.61 135.88,-81.25 146.43,-76.57"/><polygon fill="#9a32cd" stroke="#9a32cd" points="80.84 -120.13 76.9 -129.97 86.11 -124.73 80.84 -120.13"/><text x="133.5" y="-98" font-family="Helvetica,sans-Serif" font-size="10" text-anchor="middle">Indexes</text></g><g id="node4" class="node"><title>Node4</title><g id="a_node4"><a target="_top" xlink:href="classpkgIndexFile.xhtml"><polygon fill="#fff" stroke="#000" points="30.5 -290.5 30.5 -309.5 109.5 -309.5 109.5 -290.5 30.5 -290.5"/><text x="70" y="-297.5" font-family="Helvetica,sans-Serif" font-size="10" text-anchor="middle">pkgIndexFile</text></a></g></g><g id="edge3" class="edge"><title>Node4-&gt;Node3</title><path fill="none" stroke="#9a32cd" stroke-dasharray="5 2" d="M70,-280.4C70,-246.03 70,-173.84 70,-149.06"/><polygon fill="#9a32cd" stroke="#9a32cd" points="66.5 -280.48 70 -290.48 73.5 -280.48 66.5 -280.48"/><text x="94.5" y="-220" font-family="Helvetica,sans-Serif" font-size="10" text-anchor="middle">elements</text></g><g id="node5" class="node"><title>Node5</title><g id="a_node5"><a><polygon fill="#fff" stroke="#bfbfbf" points="229 -357.5 229 -376.5 273 -376.5 273 -357.5 229 -357.5"/><text x="251" y="-364.5" font-family="Helvetica,sans-Serif" font-size="10" text-anchor="middle">string</text></a></g></g><g id="edge4" class="edge"><title>Node5-&gt;Node2</title><path fill="none" stroke="#9a32cd" stroke-dasharray="5 2" d="M236.98,-349.72C222.52,-331.92 200.64,-301.93 190,-272 164.47,-200.17 166.25,-105.88 167.52,-76.87"/><polygon fill="#9a32cd" stroke="#9a32cd" points="234.31 -351.98 243.4 -357.42 239.68 -347.5 234.31 -351.98"/><text x="224" y="-264" font-family="Helvetica,sans-Serif" font-size="10" text-anchor="middle">Codename</text><text x="224" y="-253" font-family="Helvetica,sans-Serif" font-size="10" text-anchor="middle">Dist</text><text x="224" y="-242" font-family="Helvetica,sans-Serif" font-size="10" text-anchor="middle">Label</text><text x="224" y="-231" font-family="Helvetica,sans-Serif" font-size="10" text-anchor="middle">Origin</text><text x="224" y="-220" font-family="Helvetica,sans-Serif" font-size="10" text-anchor="middle">ReleaseNotes</text><text x="224" y="-209" font-family="Helvetica,sans-Serif" font-size="10" text-anchor="middle">SignedBy</text><text x="224" y="-198" font-family="Helvetica,sans-Serif" font-size="10" text-anchor="middle">Suite</text><text x="224" y="-187" font-family="Helvetica,sans-Serif" font-size="10" text-anchor="middle">URI</text><text x="224" y="-176" font-family="Helvetica,sans-Serif" font-size="10" text-anchor="middle">Version</text></g><g id="node7" class="node"><title>Node7</title><g id="a_node7"><a><polygon fill="#fff" stroke="#bfbfbf" points="196.5 -124.5 196.5 -154.5 353.5 -154.5 353.5 -124.5 196.5 -124.5"/><text x="204.5" y="-142.5" font-family="Helvetica,sans-Serif" font-size="10" text-anchor="start">map&lt; std::string, metaIndex</text><text x="275" y="-131.5" font-family="Helvetica,sans-Serif" font-size="10" text-anchor="middle">::checkSum * &gt;</text></a></g></g><g id="edge7" class="edge"><title>Node5-&gt;Node7</title><path fill="none" stroke="#9a32cd" stroke-dasharray="5 2" d="M252.99,-347.3C257.67,-303.31 269.3,-194.03 273.48,-154.8"/><polygon fill="#9a32cd" stroke="#9a32cd" points="249.49 -347.12 251.91 -357.44 256.45 -347.86 249.49 -347.12"/><text x="273" y="-297.5" font-family="Helvetica,sans-Serif" font-size="10" text-anchor="middle">keys</text></g><g id="node8" class="node"><title>Node8</title><g id="a_node8"><a target="_top" xlink:href="structmetaIndex_1_1checkSum.xhtml"><polygon fill="#fff" stroke="#000" points="295.5 -290.5 295.5 -309.5 362.5 -309.5 362.5 -290.5 295.5 -290.5"/><text x="329" y="-297.5" font-family="Helvetica,sans-Serif" font-size="10" text-anchor="middle">checkSum</text></a></g></g><g id="edge10" class="edge"><title>Node5-&gt;Node8</title><path fill="none" stroke="#9a32cd" stroke-dasharray="5 2" d="M262.13,-349.09C267.32,-342.03 273.9,-334.07 281,-328 289.57,-320.67 300.44,-314.36 309.67,-309.69"/><polygon fill="#9a32cd" stroke="#9a32cd" points="259.22 -347.14 256.39 -357.35 264.97 -351.14 259.22 -347.14"/><text x="326.5" y="-331" font-family="Helvetica,sans-Serif" font-size="10" text-anchor="middle">MetaKeyFilename</text></g><g id="node6" class="node"><title>Node6</title><g id="a_node6"><a><polygon fill="#fff" stroke="#bfbfbf" points="191 -414.5 191 -433.5 311 -433.5 311 -414.5 191 -414.5"/><text x="251" y="-421.5" font-family="Helvetica,sans-Serif" font-size="10" text-anchor="middle">basic_string&lt; Char &gt;</text></a></g></g><g id="edge5" class="edge"><title>Node6-&gt;Node5</title><path fill="none" stroke="#191970" d="M251,-404.12C251,-394.82 251,-384.06 251,-376.71"/><polygon fill="#191970" stroke="#191970" points="247.5 -404.41 251 -414.41 254.5 -404.41 247.5 -404.41"/></g><g id="edge6" class="edge"><title>Node7-&gt;Node2</title><path fill="none" stroke="#9a32cd" stroke-dasharray="5 2" d="M244.99,-118.73C223.9,-104.83 196.73,-86.93 180.95,-76.53"/><polygon fill="#9a32cd" stroke="#9a32cd" points="243.33 -121.82 253.6 -124.4 247.18 -115.98 243.33 -121.82"/><text x="243.5" y="-98" font-family="Helvetica,sans-Serif" font-size="10" text-anchor="middle">Entries</text></g><g id="edge8" class="edge"><title>Node8-&gt;Node7</title><path fill="none" stroke="#9a32cd" stroke-dasharray="5 2" d="M322.76,-280.68C311.88,-248.74 289.66,-183.52 279.84,-154.71"/><polygon fill="#9a32cd" stroke="#9a32cd" points="319.56 -282.14 326.1 -290.48 326.18 -279.88 319.56 -282.14"/><text x="343.5" y="-220" font-family="Helvetica,sans-Serif" font-size="10" text-anchor="middle">elements</text></g><g id="node9" class="node"><title>Node9</title><g id="a_node9"><a target="_top" xlink:href="classHashStringList.xhtml"><polygon fill="#fff" stroke="#000" points="354.5 -357.5 354.5 -376.5 441.5 -376.5 441.5 -357.5 354.5 -357.5"/><text x="398" y="-364.5" font-family="Helvetica,sans-Serif" font-size="10" text-anchor="middle">HashStringList</text></a></g></g><g id="edge9" class="edge"><title>Node9-&gt;Node8</title><path fill="none" stroke="#9a32cd" stroke-dasharray="5 2" d="M390.1,-348.06C386.49,-341.22 381.73,-333.71 376,-328 368.4,-320.43 358.25,-314.24 349.33,-309.72"/><polygon fill="#9a32cd" stroke="#9a32cd" points="387.06 -349.8 394.55 -357.3 393.37 -346.77 387.06 -349.8"/><text x="404" y="-331" font-family="Helvetica,sans-Serif" font-size="10" text-anchor="middle">Hashes</text></g></g></svg>