<svg xmlns="http://www.w3.org/2000/svg" xmlns:xlink="http://www.w3.org/1999/xlink" id="main" onload="init(evt)" version="1.1" xml:space="preserve"><style type="text/css">.edge:hover path{stroke:red}.edge:hover polygon{stroke:red;fill:red}</style><script type="text/javascript"><![CDATA[
var edges = document.getElementsByTagName('g');
if (edges && edges.length) {
  for (var i=0;i<edges.length;i++) {
    if (edges[i].id.substr(0,4)=='edge') {
      edges[i].setAttribute('class','edge');
    }
  }
}
]]></script><defs><circle id="rim" cx="0" cy="0" r="7"/><circle id="rim2" cx="0" cy="0" r="3.5"/><g id="zoomPlus"><use fill="#404040" xlink:href="#rim"><set attributeName="fill" begin="zoomplus.mouseover" end="zoomplus.mouseout" to="#808080"/></use><path fill="none" stroke="#fff" stroke-width="1.5" d="M-4,0h8M0,-4v8" pointer-events="none"/></g><g id="zoomMin"><use fill="#404040" xlink:href="#rim"><set attributeName="fill" begin="zoomminus.mouseover" end="zoomminus.mouseout" to="#808080"/></use><path fill="none" stroke="#fff" stroke-width="1.5" d="M-4,0h8" pointer-events="none"/></g><g id="dirArrow"><path fill="none" stroke="#fff" stroke-width="1.5" d="M0,-3.0v7 M-2.5,-0.5L0,-3.0L2.5,-0.5"/></g><g id="resetDef"><use fill="#404040" xlink:href="#rim2"><set attributeName="fill" begin="reset.mouseover" end="reset.mouseout" to="#808080"/></use></g></defs><script type="text/javascript">var viewWidth = 598; var viewHeight = 132; var sectionId = &apos;dynsection-0&apos;;</script><script xlink:href="svgpan.js"/><svg id="graph" class="graph"><g id="viewport"><title>Container_const_reverse_iterator&lt; Interface, Container, Master &gt;</title><polygon fill="#fff" stroke="transparent" points="-4 4 -4 -128 594 -128 594 4 -4 4"/><g id="node1" class="node"><title>Node1</title><g id="a_node1"><a><polygon fill="#bfbfbf" stroke="#000" points="453 -41 453 -82 590 -82 590 -41 453 -41"/><text x="461" y="-70" font-family="Helvetica,sans-Serif" font-size="10" text-anchor="start">Container_const_reverse</text><text x="461" y="-59" font-family="Helvetica,sans-Serif" font-size="10" text-anchor="start">_iterator&lt; Interface,</text><text x="521.5" y="-48" font-family="Helvetica,sans-Serif" font-size="10" text-anchor="middle">Container, Master &gt;</text></a></g></g><g id="node2" class="node"><title>Node2</title><g id="a_node2"><a target="_top" xlink:href="classAPT_1_1Container__iterator__base.xhtml"><polygon fill="#fff" stroke="#000" points="225 -24.5 225 -98.5 417 -98.5 417 -24.5 225 -24.5"/><text x="233" y="-86.5" font-family="Helvetica,sans-Serif" font-size="10" text-anchor="start">Container_iterator</text><text x="233" y="-75.5" font-family="Helvetica,sans-Serif" font-size="10" text-anchor="start">_base&lt; Interface, Master,</text><text x="233" y="-64.5" font-family="Helvetica,sans-Serif" font-size="10" text-anchor="start">Container_const_reverse</text><text x="233" y="-53.5" font-family="Helvetica,sans-Serif" font-size="10" text-anchor="start">_iterator&lt; Interface, Container,</text><text x="233" y="-42.5" font-family="Helvetica,sans-Serif" font-size="10" text-anchor="start">Master &gt;, Container::const_reverse</text><text x="321" y="-31.5" font-family="Helvetica,sans-Serif" font-size="10" text-anchor="middle">_iterator, Container::value_type &gt;</text></a></g></g><g id="edge1" class="edge"><title>Node2-&gt;Node1</title><path fill="none" stroke="#191970" d="M427.34,-61.5C435.99,-61.5 444.57,-61.5 452.83,-61.5"/><polygon fill="#191970" stroke="#191970" points="427.18 -58 417.18 -61.5 427.18 -65 427.18 -58"/></g><g id="node3" class="node"><title>Node3</title><g id="a_node3"><a><polygon fill="#fff" stroke="#bfbfbf" points="0 -71.5 0 -123.5 189 -123.5 189 -71.5 0 -71.5"/><text x="8" y="-111.5" font-family="Helvetica,sans-Serif" font-size="10" text-anchor="start">iterator&lt; std::iterator</text><text x="8" y="-100.5" font-family="Helvetica,sans-Serif" font-size="10" text-anchor="start">_traits&lt; Container::const</text><text x="8" y="-89.5" font-family="Helvetica,sans-Serif" font-size="10" text-anchor="start">_reverse_iterator &gt;::iterator</text><text x="94.5" y="-78.5" font-family="Helvetica,sans-Serif" font-size="10" text-anchor="middle">_category, Container::value_type &gt;</text></a></g></g><g id="edge2" class="edge"><title>Node3-&gt;Node2</title><path fill="none" stroke="#191970" d="M199.09,-80.89C207.64,-79.52 216.27,-78.13 224.76,-76.77"/><polygon fill="#191970" stroke="#191970" points="198.4 -77.45 189.08 -82.49 199.51 -84.37 198.4 -77.45"/></g><g id="node4" class="node"><title>Node4</title><g id="a_node4"><a><polygon fill="#fff" stroke="#bfbfbf" points="10 -.5 10 -52.5 179 -52.5 179 -.5 10 -.5"/><text x="18" y="-40.5" font-family="Helvetica,sans-Serif" font-size="10" text-anchor="start">template iterator_base</text><text x="18" y="-29.5" font-family="Helvetica,sans-Serif" font-size="10" text-anchor="start">&lt; Container_const_reverse</text><text x="18" y="-18.5" font-family="Helvetica,sans-Serif" font-size="10" text-anchor="start">_iterator&lt; Interface, Container,</text><text x="94.5" y="-7.5" font-family="Helvetica,sans-Serif" font-size="10" text-anchor="middle">Master &gt; &gt;</text></a></g></g><g id="edge3" class="edge"><title>Node4-&gt;Node2</title><path fill="none" stroke="#191970" d="M189.01,-41.08C200.9,-42.93 213.08,-44.83 225,-46.69"/><polygon fill="#191970" stroke="#191970" points="189.52 -37.61 179.1 -39.53 188.44 -44.53 189.52 -37.61"/></g></g></svg><g id="navigator" fill="#404254" transform="translate(0 0)"><rect width="60" height="60" x="0" y="0" fill="#f2f5e9" fill-opacity=".5" stroke="#606060" stroke-width=".5"/><use id="zoomplus" x="17" y="9" onmousedown="handleZoom(evt,'in')" xlink:href="#zoomPlus"/><use id="zoomminus" x="42" y="9" onmousedown="handleZoom(evt,'out')" xlink:href="#zoomMin"/><use id="reset" x="30" y="36" onmousedown="handleReset()" xlink:href="#resetDef"/><g id="arrowUp" onmousedown="handlePan(0,-1)" transform="translate(30 24)" xlink:href="#dirArrow"><use fill="#404040" xlink:href="#rim"><set attributeName="fill" begin="arrowUp.mouseover" end="arrowUp.mouseout" to="#808080"/></use><path fill="none" stroke="#fff" stroke-width="1.5" d="M0,-3.0v7 M-2.5,-0.5L0,-3.0L2.5,-0.5"/></g><g id="arrowRight" onmousedown="handlePan(1,0)" transform="rotate(90) translate(36 -43)" xlink:href="#dirArrow"><use fill="#404040" xlink:href="#rim"><set attributeName="fill" begin="arrowRight.mouseover" end="arrowRight.mouseout" to="#808080"/></use><path fill="none" stroke="#fff" stroke-width="1.5" d="M0,-3.0v7 M-2.5,-0.5L0,-3.0L2.5,-0.5"/></g><g id="arrowDown" onmousedown="handlePan(0,1)" transform="rotate(180) translate(-30 -48)" xlink:href="#dirArrow"><use fill="#404040" xlink:href="#rim"><set attributeName="fill" begin="arrowDown.mouseover" end="arrowDown.mouseout" to="#808080"/></use><path fill="none" stroke="#fff" stroke-width="1.5" d="M0,-3.0v7 M-2.5,-0.5L0,-3.0L2.5,-0.5"/></g><g id="arrowLeft" onmousedown="handlePan(-1,0)" transform="rotate(270) translate(-36 17)" xlink:href="#dirArrow"><use fill="#404040" xlink:href="#rim"><set attributeName="fill" begin="arrowLeft.mouseover" end="arrowLeft.mouseout" to="#808080"/></use><path fill="none" stroke="#fff" stroke-width="1.5" d="M0,-3.0v7 M-2.5,-0.5L0,-3.0L2.5,-0.5"/></g></g><svg width="100%" height="30" preserveAspectRatio="xMaxYMin meet" viewBox="0 0 15 15"><g id="arrow_out" transform="scale(0.3 0.3)"><a target="_base" xlink:href="classAPT_1_1Container__const__reverse__iterator__inherit__graph_org.svg"><rect id="button" width="38" height="38" x="6" y="6" fill="#f2f5e9" fill-opacity=".5" stroke="#606060" stroke-width="1" rx="5" ry="5"/><path id="arrow" d="M 11.500037,31.436501 C 11.940474,20.09759 22.043105,11.32322 32.158766,21.979434 L 37.068811,17.246167 C 37.068811,17.246167 37.088388,32 37.088388,32 L 22.160133,31.978069 C 22.160133,31.978069 26.997745,27.140456 26.997745,27.140456 C 18.528582,18.264221 13.291696,25.230495 11.500037,31.436501 z" style="fill:#404040"/></a></g></svg></svg>