<svg xmlns="http://www.w3.org/2000/svg" xmlns:xlink="http://www.w3.org/1999/xlink" width="356pt" height="504" viewBox="0 0 356 378"><g id="graph0" class="graph" transform="scale(1 1) rotate(0) translate(4 374)"><title>debTranslationsIndex</title><polygon fill="#fff" stroke="transparent" points="-4 4 -4 -374 352 -374 352 4 -4 4"/><g id="node1" class="node"><title>Node1</title><g id="a_node1"><a><polygon fill="#bfbfbf" stroke="#000" points="51.5 -.5 51.5 -19.5 171.5 -19.5 171.5 -.5 51.5 -.5"/><text x="111.5" y="-7.5" font-family="Helvetica,sans-Serif" font-size="10" text-anchor="middle">debTranslationsIndex</text></a></g></g><g id="node2" class="node"><title>Node2</title><g id="a_node2"><a target="_top" xlink:href="classpkgDebianIndexTargetFile.xhtml"><polygon fill="#fff" stroke="#000" points="40 -57.5 40 -76.5 183 -76.5 183 -57.5 40 -57.5"/><text x="111.5" y="-64.5" font-family="Helvetica,sans-Serif" font-size="10" text-anchor="middle">pkgDebianIndexTargetFile</text></a></g></g><g id="edge1" class="edge"><title>Node2-&gt;Node1</title><path fill="none" stroke="#191970" d="M111.5,-47.12C111.5,-37.82 111.5,-27.06 111.5,-19.71"/><polygon fill="#191970" stroke="#191970" points="108 -47.41 111.5 -57.41 115 -47.41 108 -47.41"/></g><g id="node3" class="node"><title>Node3</title><g id="a_node3"><a target="_top" xlink:href="classpkgDebianIndexFile.xhtml"><polygon fill="#fff" stroke="#000" points="0 -124.5 0 -143.5 113 -143.5 113 -124.5 0 -124.5"/><text x="56.5" y="-131.5" font-family="Helvetica,sans-Serif" font-size="10" text-anchor="middle">pkgDebianIndexFile</text></a></g></g><g id="edge2" class="edge"><title>Node3-&gt;Node2</title><path fill="none" stroke="#191970" d="M70.66,-116.27C81.38,-103.6 95.68,-86.7 104.2,-76.63"/><polygon fill="#191970" stroke="#191970" points="67.71 -114.34 63.92 -124.23 73.05 -118.86 67.71 -114.34"/></g><g id="node4" class="node"><title>Node4</title><g id="a_node4"><a target="_top" xlink:href="classpkgIndexFile.xhtml"><polygon fill="#fff" stroke="#000" points="17 -203.5 17 -222.5 96 -222.5 96 -203.5 17 -203.5"/><text x="56.5" y="-210.5" font-family="Helvetica,sans-Serif" font-size="10" text-anchor="middle">pkgIndexFile</text></a></g></g><g id="edge3" class="edge"><title>Node4-&gt;Node3</title><path fill="none" stroke="#191970" d="M56.5,-193.31C56.5,-177.59 56.5,-155.81 56.5,-143.81"/><polygon fill="#191970" stroke="#191970" points="53 -193.47 56.5 -203.47 60 -193.47 53 -193.47"/></g><g id="node5" class="node"><title>Node5</title><g id="a_node5"><a target="_top" xlink:href="classIndexTarget.xhtml" xlink:title="Information about an index file."><polygon fill="#fff" stroke="#000" points="131.5 -124.5 131.5 -143.5 205.5 -143.5 205.5 -124.5 131.5 -124.5"/><text x="168.5" y="-131.5" font-family="Helvetica,sans-Serif" font-size="10" text-anchor="middle">IndexTarget</text></a></g></g><g id="edge4" class="edge"><title>Node5-&gt;Node2</title><path fill="none" stroke="#9a32cd" stroke-dasharray="5 2" d="M154.15,-116.63C143,-103.92 127.98,-86.8 119.07,-76.63"/><polygon fill="#9a32cd" stroke="#9a32cd" points="151.59 -119.02 160.81 -124.23 156.85 -114.41 151.59 -119.02"/><text x="159.5" y="-98" font-family="Helvetica,sans-Serif" font-size="10" text-anchor="middle">Target</text></g><g id="node6" class="node"><title>Node6</title><g id="a_node6"><a><polygon fill="#fff" stroke="#bfbfbf" points="229 -198 229 -228 348 -228 348 -198 229 -198"/><text x="237" y="-216" font-family="Helvetica,sans-Serif" font-size="10" text-anchor="start">map&lt; std::string, std</text><text x="288.5" y="-205" font-family="Helvetica,sans-Serif" font-size="10" text-anchor="middle">::string &gt;</text></a></g></g><g id="edge5" class="edge"><title>Node6-&gt;Node5</title><path fill="none" stroke="#9a32cd" stroke-dasharray="5 2" d="M257.88,-192.35C233.33,-176.6 200.05,-155.25 181.82,-143.55"/><polygon fill="#9a32cd" stroke="#9a32cd" points="256.18 -195.42 266.49 -197.88 259.96 -189.53 256.18 -195.42"/><text x="245" y="-165" font-family="Helvetica,sans-Serif" font-size="10" text-anchor="middle">Options</text></g><g id="node7" class="node"><title>Node7</title><g id="a_node7"><a><polygon fill="#fff" stroke="#bfbfbf" points="145.5 -293.5 145.5 -312.5 189.5 -312.5 189.5 -293.5 145.5 -293.5"/><text x="167.5" y="-300.5" font-family="Helvetica,sans-Serif" font-size="10" text-anchor="middle">string</text></a></g></g><g id="edge8" class="edge"><title>Node7-&gt;Node5</title><path fill="none" stroke="#9a32cd" stroke-dasharray="5 2" d="M165.17,-283.38C162.72,-261.32 159.48,-223.48 161.5,-191 162.55,-174.18 165.35,-154.68 167.07,-143.7"/><polygon fill="#9a32cd" stroke="#9a32cd" points="161.7 -283.84 166.35 -293.36 168.65 -283.02 161.7 -283.84"/><text x="191" y="-227" font-family="Helvetica,sans-Serif" font-size="10" text-anchor="middle">Description</text><text x="191" y="-216" font-family="Helvetica,sans-Serif" font-size="10" text-anchor="middle">MetaKey</text><text x="191" y="-205" font-family="Helvetica,sans-Serif" font-size="10" text-anchor="middle">ShortDesc</text><text x="191" y="-194" font-family="Helvetica,sans-Serif" font-size="10" text-anchor="middle">URI</text></g><g id="edge6" class="edge"><title>Node7-&gt;Node6</title><path fill="none" stroke="#9a32cd" stroke-dasharray="5 2" d="M187.75,-287.27C210.35,-270.83 246.66,-244.43 268.96,-228.21"/><polygon fill="#9a32cd" stroke="#9a32cd" points="185.57 -284.53 179.54 -293.24 189.69 -290.19 185.57 -284.53"/><text x="256" y="-267" font-family="Helvetica,sans-Serif" font-size="10" text-anchor="middle">elements</text><text x="256" y="-256" font-family="Helvetica,sans-Serif" font-size="10" text-anchor="middle">keys</text></g><g id="node8" class="node"><title>Node8</title><g id="a_node8"><a><polygon fill="#fff" stroke="#bfbfbf" points="107.5 -350.5 107.5 -369.5 227.5 -369.5 227.5 -350.5 107.5 -350.5"/><text x="167.5" y="-357.5" font-family="Helvetica,sans-Serif" font-size="10" text-anchor="middle">basic_string&lt; Char &gt;</text></a></g></g><g id="edge7" class="edge"><title>Node8-&gt;Node7</title><path fill="none" stroke="#191970" d="M167.5,-340.12C167.5,-330.82 167.5,-320.06 167.5,-312.71"/><polygon fill="#191970" stroke="#191970" points="164 -340.41 167.5 -350.41 171 -340.41 164 -340.41"/></g></g></svg>