<svg xmlns="http://www.w3.org/2000/svg" xmlns:xlink="http://www.w3.org/1999/xlink" width="220" height="151pt" viewBox="0 0 165 151"><g id="graph0" class="graph" transform="scale(1 1) rotate(0) translate(4 147)"><title>PackageArchitectureMatchesSpecification</title><polygon fill="#fff" stroke="transparent" points="-4 4 -4 -147 161 -147 161 4 -4 4"/><g id="node1" class="node"><title>Node1</title><g id="a_node1"><a><polygon fill="#bfbfbf" stroke="#000" points="0 -.5 0 -30.5 157 -30.5 157 -.5 0 -.5"/><text x="8" y="-18.5" font-family="Helvetica,sans-Serif" font-size="10" text-anchor="start">PackageArchitectureMatches</text><text x="78.5" y="-7.5" font-family="Helvetica,sans-Serif" font-size="10" text-anchor="middle">Specification</text></a></g></g><g id="node2" class="node"><title>Node2</title><g id="a_node2"><a target="_top" xlink:href="classAPT_1_1CacheFilter_1_1PackageMatcher.xhtml"><polygon fill="#fff" stroke="#000" points="30.5 -67.5 30.5 -86.5 126.5 -86.5 126.5 -67.5 30.5 -67.5"/><text x="78.5" y="-74.5" font-family="Helvetica,sans-Serif" font-size="10" text-anchor="middle">PackageMatcher</text></a></g></g><g id="edge1" class="edge"><title>Node2-&gt;Node1</title><path fill="none" stroke="#191970" d="M78.5,-57.23C78.5,-48.59 78.5,-38.5 78.5,-30.52"/><polygon fill="#191970" stroke="#191970" points="75 -57.48 78.5 -67.48 82 -57.48 75 -57.48"/></g><g id="node3" class="node"><title>Node3</title><g id="a_node3"><a target="_top" xlink:href="classAPT_1_1CacheFilter_1_1Matcher.xhtml"><polygon fill="#fff" stroke="#000" points="50.5 -123.5 50.5 -142.5 106.5 -142.5 106.5 -123.5 50.5 -123.5"/><text x="78.5" y="-130.5" font-family="Helvetica,sans-Serif" font-size="10" text-anchor="middle">Matcher</text></a></g></g><g id="edge2" class="edge"><title>Node3-&gt;Node2</title><path fill="none" stroke="#191970" d="M78.5,-112.8C78.5,-103.91 78.5,-93.78 78.5,-86.75"/><polygon fill="#191970" stroke="#191970" points="75 -113.08 78.5 -123.08 82 -113.08 75 -113.08"/></g></g></svg>