<svg xmlns="http://www.w3.org/2000/svg" xmlns:xlink="http://www.w3.org/1999/xlink" width="1229pt" height="164pt" viewBox="0 0 1229 163.5"><g id="graph0" class="graph" transform="scale(1 1) rotate(0) translate(4 159.5)"><title>debReleaseIndexPrivate</title><polygon fill="#fff" stroke="transparent" points="-4 4 -4 -159.5 1225 -159.5 1225 4 -4 4"/><g id="node1" class="node"><title>Node1</title><g id="a_node1"><a><polygon fill="#bfbfbf" stroke="#000" points="1086 -40 1086 -59 1221 -59 1221 -40 1086 -40"/><text x="1153.5" y="-47" font-family="Helvetica,sans-Serif" font-size="10" text-anchor="middle">debReleaseIndexPrivate</text></a></g></g><g id="node2" class="node"><title>Node2</title><g id="a_node2"><a><polygon fill="#fff" stroke="#bfbfbf" points="804 -84.5 804 -114.5 981 -114.5 981 -84.5 804 -84.5"/><text x="812" y="-102.5" font-family="Helvetica,sans-Serif" font-size="10" text-anchor="start">vector&lt; debReleaseIndexPrivate</text><text x="892.5" y="-91.5" font-family="Helvetica,sans-Serif" font-size="10" text-anchor="middle">::debSectionEntry &gt;</text></a></g></g><g id="edge1" class="edge"><title>Node2-&gt;Node1</title><path fill="none" stroke="#9a32cd" stroke-dasharray="5 2" d="M981.13,-82.58C1021.78,-74.74 1068.6,-65.7 1103.01,-59.05"/><polygon fill="#9a32cd" stroke="#9a32cd" points="980.36 -79.17 971.21 -84.5 981.69 -86.04 980.36 -79.17"/><text x="1033.5" y="-93.5" font-family="Helvetica,sans-Serif" font-size="10" text-anchor="middle">DebEntries</text><text x="1033.5" y="-82.5" font-family="Helvetica,sans-Serif" font-size="10" text-anchor="middle">DebSrcEntries</text></g><g id="node3" class="node"><title>Node3</title><g id="a_node3"><a target="_top" xlink:href="structdebReleaseIndexPrivate_1_1debSectionEntry.xhtml"><polygon fill="#fff" stroke="#000" points="560 -96 560 -115 656 -115 656 -96 560 -96"/><text x="608" y="-103" font-family="Helvetica,sans-Serif" font-size="10" text-anchor="middle">debSectionEntry</text></a></g></g><g id="edge2" class="edge"><title>Node3-&gt;Node2</title><path fill="none" stroke="#9a32cd" stroke-dasharray="5 2" d="M666.52,-104.28C705.97,-103.44 759.06,-102.31 803.76,-101.36"/><polygon fill="#9a32cd" stroke="#9a32cd" points="666.21 -100.78 656.28 -104.5 666.36 -107.78 666.21 -100.78"/><text x="730" y="-107.5" font-family="Helvetica,sans-Serif" font-size="10" text-anchor="middle">elements</text></g><g id="node4" class="node"><title>Node4</title><g id="a_node4"><a><polygon fill="#fff" stroke="#bfbfbf" points="157 -64 157 -83 201 -83 201 -64 157 -64"/><text x="179" y="-71" font-family="Helvetica,sans-Serif" font-size="10" text-anchor="middle">string</text></a></g></g><g id="edge3" class="edge"><title>Node4-&gt;Node3</title><path fill="none" stroke="#9a32cd" stroke-dasharray="5 2" d="M210.86,-86.11C213.58,-87 216.33,-87.81 219,-88.5 358.55,-124.4 398.41,-128.56 542,-116.5 547.82,-116.01 553.9,-115.28 559.9,-114.42"/><polygon fill="#9a32cd" stroke="#9a32cd" points="211.76 -82.72 201.17 -82.66 209.41 -89.31 211.76 -82.72"/><text x="345.5" y="-147.5" font-family="Helvetica,sans-Serif" font-size="10" text-anchor="middle">Name</text><text x="345.5" y="-136.5" font-family="Helvetica,sans-Serif" font-size="10" text-anchor="middle">UseByHash</text><text x="345.5" y="-125.5" font-family="Helvetica,sans-Serif" font-size="10" text-anchor="middle">sourcesEntry</text></g><g id="node6" class="node"><title>Node6</title><g id="a_node6"><a><polygon fill="#fff" stroke="#bfbfbf" points="286 -64 286 -83 405 -83 405 -64 286 -64"/><text x="345.5" y="-71" font-family="Helvetica,sans-Serif" font-size="10" text-anchor="middle">vector&lt; std::string &gt;</text></a></g></g><g id="edge6" class="edge"><title>Node4-&gt;Node6</title><path fill="none" stroke="#9a32cd" stroke-dasharray="5 2" d="M211.45,-73.5C232.49,-73.5 260.81,-73.5 285.92,-73.5"/><polygon fill="#9a32cd" stroke="#9a32cd" points="211.17 -70 201.17 -73.5 211.17 -77 211.17 -70"/><text x="243.5" y="-76.5" font-family="Helvetica,sans-Serif" font-size="10" text-anchor="middle">elements</text></g><g id="node7" class="node"><title>Node7</title><g id="a_node7"><a><polygon fill="#fff" stroke="#bfbfbf" points="423 -.5 423 -30.5 542 -30.5 542 -.5 423 -.5"/><text x="431" y="-18.5" font-family="Helvetica,sans-Serif" font-size="10" text-anchor="start">map&lt; std::string, std</text><text x="482.5" y="-7.5" font-family="Helvetica,sans-Serif" font-size="10" text-anchor="middle">::string &gt;</text></a></g></g><g id="edge8" class="edge"><title>Node4-&gt;Node7</title><path fill="none" stroke="#9a32cd" stroke-dasharray="5 2" d="M199.26,-58.09C205.27,-54.01 212.13,-50.04 219,-47.5 285.95,-22.71 368.42,-16.23 422.85,-14.96"/><polygon fill="#9a32cd" stroke="#9a32cd" points="197.18 -55.28 191.16 -63.99 201.31 -60.93 197.18 -55.28"/><text x="243.5" y="-61.5" font-family="Helvetica,sans-Serif" font-size="10" text-anchor="middle">elements</text><text x="243.5" y="-50.5" font-family="Helvetica,sans-Serif" font-size="10" text-anchor="middle">keys</text></g><g id="node5" class="node"><title>Node5</title><g id="a_node5"><a><polygon fill="#fff" stroke="#bfbfbf" points="0 -64 0 -83 120 -83 120 -64 0 -64"/><text x="60" y="-71" font-family="Helvetica,sans-Serif" font-size="10" text-anchor="middle">basic_string&lt; Char &gt;</text></a></g></g><g id="edge4" class="edge"><title>Node5-&gt;Node4</title><path fill="none" stroke="#191970" d="M130.3,-73.5C139.91,-73.5 149.12,-73.5 156.84,-73.5"/><polygon fill="#191970" stroke="#191970" points="130.19 -70 120.19 -73.5 130.19 -77 130.19 -70"/></g><g id="edge9" class="edge"><title>Node6-&gt;Node1</title><path fill="none" stroke="#9a32cd" stroke-dasharray="5 2" d="M415.38,-69.82C417.95,-69.71 420.5,-69.6 423,-69.5 667.17,-59.77 957.51,-53.35 1085.85,-50.77"/><polygon fill="#9a32cd" stroke="#9a32cd" points="415.21 -66.32 405.38 -70.27 415.53 -73.31 415.21 -66.32"/><text x="730" y="-86.5" font-family="Helvetica,sans-Serif" font-size="10" text-anchor="middle">Architectures</text><text x="730" y="-75.5" font-family="Helvetica,sans-Serif" font-size="10" text-anchor="middle">NoSupportForAll</text><text x="730" y="-64.5" font-family="Helvetica,sans-Serif" font-size="10" text-anchor="middle">SupportedComponents</text></g><g id="edge5" class="edge"><title>Node6-&gt;Node3</title><path fill="none" stroke="#9a32cd" stroke-dasharray="5 2" d="M415.53,-72.42C453.21,-72.99 500.5,-75.57 542,-83.5 556.28,-86.23 571.71,-91.35 583.95,-95.97"/><polygon fill="#9a32cd" stroke="#9a32cd" points="415.21 -68.92 405.17 -72.32 415.13 -75.92 415.21 -68.92"/><text x="482.5" y="-108.5" font-family="Helvetica,sans-Serif" font-size="10" text-anchor="middle">Architectures</text><text x="482.5" y="-97.5" font-family="Helvetica,sans-Serif" font-size="10" text-anchor="middle">Languages</text><text x="482.5" y="-86.5" font-family="Helvetica,sans-Serif" font-size="10" text-anchor="middle">Targets</text></g><g id="edge7" class="edge"><title>Node7-&gt;Node1</title><path fill="none" stroke="#9a32cd" stroke-dasharray="5 2" d="M552.48,-14.23C662.09,-13.03 882.61,-13.95 1068,-35.5 1078.34,-36.7 1089.34,-38.29 1099.87,-39.97"/><polygon fill="#9a32cd" stroke="#9a32cd" points="552.18 -10.74 542.22 -14.36 552.27 -17.74 552.18 -10.74"/><text x="730" y="-19.5" font-family="Helvetica,sans-Serif" font-size="10" text-anchor="middle">ReleaseOptions</text></g></g></svg>