<?xml version="1.0" encoding="UTF-8" standalone="no"?>
<!DOCTYPE svg PUBLIC "-//W3C//DTD SVG 1.1//EN"
 "http://www.w3.org/Graphics/SVG/1.1/DTD/svg11.dtd">
<!-- Generated by graphviz version 2.43.0 (0)
 -->
<!-- Title: pkgSourceList Pages: 1 -->
<svg width="450pt" height="519pt"
 viewBox="0.00 0.00 449.50 519.00" xmlns="http://www.w3.org/2000/svg" xmlns:xlink="http://www.w3.org/1999/xlink">
<g id="graph0" class="graph" transform="scale(1 1) rotate(0) translate(4 515)">
<title>pkgSourceList</title>
<polygon fill="white" stroke="transparent" points="-4,4 -4,-515 445.5,-515 445.5,4 -4,4"/>
<!-- Node1 -->
<g id="node1" class="node">
<title>Node1</title>
<g id="a_node1"><a xlink:title=" ">
<polygon fill="#bfbfbf" stroke="black" points="125.5,-0.5 125.5,-19.5 210.5,-19.5 210.5,-0.5 125.5,-0.5"/>
<text text-anchor="middle" x="168" y="-7.5" font-family="Helvetica,sans-Serif" font-size="10.00">pkgSourceList</text>
</a>
</g>
</g>
<!-- Node2 -->
<g id="node2" class="node">
<title>Node2</title>
<g id="a_node2"><a xlink:title=" ">
<polygon fill="white" stroke="#bfbfbf" points="102.5,-67.5 102.5,-86.5 233.5,-86.5 233.5,-67.5 102.5,-67.5"/>
<text text-anchor="middle" x="168" y="-74.5" font-family="Helvetica,sans-Serif" font-size="10.00">vector&lt; metaIndex * &gt;</text>
</a>
</g>
</g>
<!-- Node2&#45;&gt;Node1 -->
<g id="edge1" class="edge">
<title>Node2&#45;&gt;Node1</title>
<path fill="none" stroke="#9a32cd" stroke-dasharray="5,2" d="M168,-57.04C168,-44.67 168,-29.12 168,-19.63"/>
<polygon fill="#9a32cd" stroke="#9a32cd" points="164.5,-57.23 168,-67.23 171.5,-57.23 164.5,-57.23"/>
<text text-anchor="middle" x="186" y="-41" font-family="Helvetica,sans-Serif" font-size="10.00"> SrcList</text>
</g>
<!-- Node3 -->
<g id="node3" class="node">
<title>Node3</title>
<g id="a_node3"><a xlink:href="classmetaIndex.xhtml" target="_top" xlink:title=" ">
<polygon fill="white" stroke="black" points="133.5,-134.5 133.5,-153.5 202.5,-153.5 202.5,-134.5 133.5,-134.5"/>
<text text-anchor="middle" x="168" y="-141.5" font-family="Helvetica,sans-Serif" font-size="10.00">metaIndex</text>
</a>
</g>
</g>
<!-- Node3&#45;&gt;Node2 -->
<g id="edge2" class="edge">
<title>Node3&#45;&gt;Node2</title>
<path fill="none" stroke="#9a32cd" stroke-dasharray="5,2" d="M168,-124.04C168,-111.67 168,-96.12 168,-86.63"/>
<polygon fill="#9a32cd" stroke="#9a32cd" points="164.5,-124.23 168,-134.23 171.5,-124.23 164.5,-124.23"/>
<text text-anchor="middle" x="192.5" y="-108" font-family="Helvetica,sans-Serif" font-size="10.00"> elements</text>
</g>
<!-- Node4 -->
<g id="node4" class="node">
<title>Node4</title>
<g id="a_node4"><a xlink:title=" ">
<polygon fill="white" stroke="#bfbfbf" points="0,-207 0,-226 140,-226 140,-207 0,-207"/>
<text text-anchor="middle" x="70" y="-214" font-family="Helvetica,sans-Serif" font-size="10.00">vector&lt; pkgIndexFile * &gt;</text>
</a>
</g>
</g>
<!-- Node4&#45;&gt;Node3 -->
<g id="edge3" class="edge">
<title>Node4&#45;&gt;Node3</title>
<path fill="none" stroke="#9a32cd" stroke-dasharray="5,2" d="M83.64,-199.24C91.59,-190.44 102.16,-179.8 113,-172 123.27,-164.61 135.88,-158.25 146.43,-153.57"/>
<polygon fill="#9a32cd" stroke="#9a32cd" points="80.84,-197.13 76.9,-206.97 86.11,-201.73 80.84,-197.13"/>
<text text-anchor="middle" x="133.5" y="-175" font-family="Helvetica,sans-Serif" font-size="10.00"> Indexes</text>
</g>
<!-- Node5 -->
<g id="node5" class="node">
<title>Node5</title>
<g id="a_node5"><a xlink:href="classpkgIndexFile.xhtml" target="_top" xlink:title=" ">
<polygon fill="white" stroke="black" points="30.5,-367.5 30.5,-386.5 109.5,-386.5 109.5,-367.5 30.5,-367.5"/>
<text text-anchor="middle" x="70" y="-374.5" font-family="Helvetica,sans-Serif" font-size="10.00">pkgIndexFile</text>
</a>
</g>
</g>
<!-- Node5&#45;&gt;Node4 -->
<g id="edge4" class="edge">
<title>Node5&#45;&gt;Node4</title>
<path fill="none" stroke="#9a32cd" stroke-dasharray="5,2" d="M70,-357.4C70,-323.03 70,-250.84 70,-226.06"/>
<polygon fill="#9a32cd" stroke="#9a32cd" points="66.5,-357.48 70,-367.48 73.5,-357.48 66.5,-357.48"/>
<text text-anchor="middle" x="94.5" y="-297" font-family="Helvetica,sans-Serif" font-size="10.00"> elements</text>
</g>
<!-- Node6 -->
<g id="node6" class="node">
<title>Node6</title>
<g id="a_node6"><a xlink:title=" ">
<polygon fill="white" stroke="#bfbfbf" points="229,-434.5 229,-453.5 273,-453.5 273,-434.5 229,-434.5"/>
<text text-anchor="middle" x="251" y="-441.5" font-family="Helvetica,sans-Serif" font-size="10.00">string</text>
</a>
</g>
</g>
<!-- Node6&#45;&gt;Node3 -->
<g id="edge5" class="edge">
<title>Node6&#45;&gt;Node3</title>
<path fill="none" stroke="#9a32cd" stroke-dasharray="5,2" d="M236.98,-426.72C222.52,-408.92 200.64,-378.93 190,-349 164.47,-277.17 166.25,-182.88 167.52,-153.87"/>
<polygon fill="#9a32cd" stroke="#9a32cd" points="234.31,-428.98 243.4,-434.42 239.68,-424.5 234.31,-428.98"/>
<text text-anchor="middle" x="224" y="-341" font-family="Helvetica,sans-Serif" font-size="10.00"> Codename</text>
<text text-anchor="middle" x="224" y="-330" font-family="Helvetica,sans-Serif" font-size="10.00">Dist</text>
<text text-anchor="middle" x="224" y="-319" font-family="Helvetica,sans-Serif" font-size="10.00">Label</text>
<text text-anchor="middle" x="224" y="-308" font-family="Helvetica,sans-Serif" font-size="10.00">Origin</text>
<text text-anchor="middle" x="224" y="-297" font-family="Helvetica,sans-Serif" font-size="10.00">ReleaseNotes</text>
<text text-anchor="middle" x="224" y="-286" font-family="Helvetica,sans-Serif" font-size="10.00">SignedBy</text>
<text text-anchor="middle" x="224" y="-275" font-family="Helvetica,sans-Serif" font-size="10.00">Suite</text>
<text text-anchor="middle" x="224" y="-264" font-family="Helvetica,sans-Serif" font-size="10.00">URI</text>
<text text-anchor="middle" x="224" y="-253" font-family="Helvetica,sans-Serif" font-size="10.00">Version</text>
</g>
<!-- Node8 -->
<g id="node8" class="node">
<title>Node8</title>
<g id="a_node8"><a xlink:title=" ">
<polygon fill="white" stroke="#bfbfbf" points="196.5,-201.5 196.5,-231.5 353.5,-231.5 353.5,-201.5 196.5,-201.5"/>
<text text-anchor="start" x="204.5" y="-219.5" font-family="Helvetica,sans-Serif" font-size="10.00">map&lt; std::string, metaIndex</text>
<text text-anchor="middle" x="275" y="-208.5" font-family="Helvetica,sans-Serif" font-size="10.00">::checkSum * &gt;</text>
</a>
</g>
</g>
<!-- Node6&#45;&gt;Node8 -->
<g id="edge8" class="edge">
<title>Node6&#45;&gt;Node8</title>
<path fill="none" stroke="#9a32cd" stroke-dasharray="5,2" d="M252.99,-424.3C257.67,-380.31 269.3,-271.03 273.48,-231.8"/>
<polygon fill="#9a32cd" stroke="#9a32cd" points="249.49,-424.12 251.91,-434.44 256.45,-424.86 249.49,-424.12"/>
<text text-anchor="middle" x="273" y="-374.5" font-family="Helvetica,sans-Serif" font-size="10.00"> keys</text>
</g>
<!-- Node9 -->
<g id="node9" class="node">
<title>Node9</title>
<g id="a_node9"><a xlink:href="structmetaIndex_1_1checkSum.xhtml" target="_top" xlink:title=" ">
<polygon fill="white" stroke="black" points="295.5,-367.5 295.5,-386.5 362.5,-386.5 362.5,-367.5 295.5,-367.5"/>
<text text-anchor="middle" x="329" y="-374.5" font-family="Helvetica,sans-Serif" font-size="10.00">checkSum</text>
</a>
</g>
</g>
<!-- Node6&#45;&gt;Node9 -->
<g id="edge11" class="edge">
<title>Node6&#45;&gt;Node9</title>
<path fill="none" stroke="#9a32cd" stroke-dasharray="5,2" d="M262.13,-426.09C267.32,-419.03 273.9,-411.07 281,-405 289.57,-397.67 300.44,-391.36 309.67,-386.69"/>
<polygon fill="#9a32cd" stroke="#9a32cd" points="259.22,-424.14 256.39,-434.35 264.97,-428.14 259.22,-424.14"/>
<text text-anchor="middle" x="326.5" y="-408" font-family="Helvetica,sans-Serif" font-size="10.00"> MetaKeyFilename</text>
</g>
<!-- Node7 -->
<g id="node7" class="node">
<title>Node7</title>
<g id="a_node7"><a xlink:title=" ">
<polygon fill="white" stroke="#bfbfbf" points="191,-491.5 191,-510.5 311,-510.5 311,-491.5 191,-491.5"/>
<text text-anchor="middle" x="251" y="-498.5" font-family="Helvetica,sans-Serif" font-size="10.00">basic_string&lt; Char &gt;</text>
</a>
</g>
</g>
<!-- Node7&#45;&gt;Node6 -->
<g id="edge6" class="edge">
<title>Node7&#45;&gt;Node6</title>
<path fill="none" stroke="midnightblue" d="M251,-481.12C251,-471.82 251,-461.06 251,-453.71"/>
<polygon fill="midnightblue" stroke="midnightblue" points="247.5,-481.41 251,-491.41 254.5,-481.41 247.5,-481.41"/>
</g>
<!-- Node8&#45;&gt;Node3 -->
<g id="edge7" class="edge">
<title>Node8&#45;&gt;Node3</title>
<path fill="none" stroke="#9a32cd" stroke-dasharray="5,2" d="M244.99,-195.73C223.9,-181.83 196.73,-163.93 180.95,-153.53"/>
<polygon fill="#9a32cd" stroke="#9a32cd" points="243.33,-198.82 253.6,-201.4 247.18,-192.98 243.33,-198.82"/>
<text text-anchor="middle" x="243.5" y="-175" font-family="Helvetica,sans-Serif" font-size="10.00"> Entries</text>
</g>
<!-- Node9&#45;&gt;Node8 -->
<g id="edge9" class="edge">
<title>Node9&#45;&gt;Node8</title>
<path fill="none" stroke="#9a32cd" stroke-dasharray="5,2" d="M322.76,-357.68C311.88,-325.74 289.66,-260.52 279.84,-231.71"/>
<polygon fill="#9a32cd" stroke="#9a32cd" points="319.56,-359.14 326.1,-367.48 326.18,-356.88 319.56,-359.14"/>
<text text-anchor="middle" x="343.5" y="-297" font-family="Helvetica,sans-Serif" font-size="10.00"> elements</text>
</g>
<!-- Node10 -->
<g id="node10" class="node">
<title>Node10</title>
<g id="a_node10"><a xlink:href="classHashStringList.xhtml" target="_top" xlink:title=" ">
<polygon fill="white" stroke="black" points="354.5,-434.5 354.5,-453.5 441.5,-453.5 441.5,-434.5 354.5,-434.5"/>
<text text-anchor="middle" x="398" y="-441.5" font-family="Helvetica,sans-Serif" font-size="10.00">HashStringList</text>
</a>
</g>
</g>
<!-- Node10&#45;&gt;Node9 -->
<g id="edge10" class="edge">
<title>Node10&#45;&gt;Node9</title>
<path fill="none" stroke="#9a32cd" stroke-dasharray="5,2" d="M390.1,-425.06C386.49,-418.22 381.73,-410.71 376,-405 368.4,-397.43 358.25,-391.24 349.33,-386.72"/>
<polygon fill="#9a32cd" stroke="#9a32cd" points="387.06,-426.8 394.55,-434.3 393.37,-423.77 387.06,-426.8"/>
<text text-anchor="middle" x="404" y="-408" font-family="Helvetica,sans-Serif" font-size="10.00"> Hashes</text>
</g>
</g>
</svg>
