<?xml version="1.0" encoding="UTF-8" standalone="no"?>
<!DOCTYPE svg PUBLIC "-//W3C//DTD SVG 1.1//EN"
 "http://www.w3.org/Graphics/SVG/1.1/DTD/svg11.dtd">
<!-- Generated by graphviz version 2.43.0 (0)
 -->
<!-- Title: Container_const_iterator&lt; Interface, Container, Master &gt; Pages: 1 -->
<svg width="568pt" height="122pt"
 viewBox="0.00 0.00 568.00 121.50" xmlns="http://www.w3.org/2000/svg" xmlns:xlink="http://www.w3.org/1999/xlink">
<g id="graph0" class="graph" transform="scale(1 1) rotate(0) translate(4 117.5)">
<title>Container_const_iterator&lt; Interface, Container, Master &gt;</title>
<polygon fill="white" stroke="transparent" points="-4,4 -4,-117.5 564,-117.5 564,4 -4,4"/>
<!-- Node1 -->
<g id="node1" class="node">
<title>Node1</title>
<g id="a_node1"><a xlink:title=" ">
<polygon fill="#bfbfbf" stroke="black" points="423,-33.5 423,-74.5 560,-74.5 560,-33.5 423,-33.5"/>
<text text-anchor="start" x="431" y="-62.5" font-family="Helvetica,sans-Serif" font-size="10.00">Container_const_iterator</text>
<text text-anchor="start" x="431" y="-51.5" font-family="Helvetica,sans-Serif" font-size="10.00">&lt; Interface, Container,</text>
<text text-anchor="middle" x="491.5" y="-40.5" font-family="Helvetica,sans-Serif" font-size="10.00"> Master &gt;</text>
</a>
</g>
</g>
<!-- Node2 -->
<g id="node2" class="node">
<title>Node2</title>
<g id="a_node2"><a xlink:href="classAPT_1_1Container__iterator__base.xhtml" target="_top" xlink:title=" ">
<polygon fill="white" stroke="black" points="223,-17 223,-91 387,-91 387,-17 223,-17"/>
<text text-anchor="start" x="231" y="-79" font-family="Helvetica,sans-Serif" font-size="10.00">Container_iterator</text>
<text text-anchor="start" x="231" y="-68" font-family="Helvetica,sans-Serif" font-size="10.00">_base&lt; Interface, Master,</text>
<text text-anchor="start" x="231" y="-57" font-family="Helvetica,sans-Serif" font-size="10.00"> Container_const_iterator</text>
<text text-anchor="start" x="231" y="-46" font-family="Helvetica,sans-Serif" font-size="10.00">&lt; Interface, Container, Master</text>
<text text-anchor="start" x="231" y="-35" font-family="Helvetica,sans-Serif" font-size="10.00"> &gt;, Container::const_iterator,</text>
<text text-anchor="middle" x="305" y="-24" font-family="Helvetica,sans-Serif" font-size="10.00"> Container::value_type &gt;</text>
</a>
</g>
</g>
<!-- Node2&#45;&gt;Node1 -->
<g id="edge1" class="edge">
<title>Node2&#45;&gt;Node1</title>
<path fill="none" stroke="midnightblue" d="M397.27,-54C405.87,-54 414.48,-54 422.81,-54"/>
<polygon fill="midnightblue" stroke="midnightblue" points="397.19,-50.5 387.19,-54 397.19,-57.5 397.19,-50.5"/>
</g>
<!-- Node3 -->
<g id="node3" class="node">
<title>Node3</title>
<g id="a_node3"><a xlink:title=" ">
<polygon fill="white" stroke="#bfbfbf" points="12.5,-61 12.5,-113 174.5,-113 174.5,-61 12.5,-61"/>
<text text-anchor="start" x="20.5" y="-101" font-family="Helvetica,sans-Serif" font-size="10.00">iterator&lt; std::iterator</text>
<text text-anchor="start" x="20.5" y="-90" font-family="Helvetica,sans-Serif" font-size="10.00">_traits&lt; Container::const</text>
<text text-anchor="start" x="20.5" y="-79" font-family="Helvetica,sans-Serif" font-size="10.00">_iterator &gt;::iterator_category,</text>
<text text-anchor="middle" x="93.5" y="-68" font-family="Helvetica,sans-Serif" font-size="10.00"> Container::value_type &gt;</text>
</a>
</g>
</g>
<!-- Node3&#45;&gt;Node2 -->
<g id="edge2" class="edge">
<title>Node3&#45;&gt;Node2</title>
<path fill="none" stroke="midnightblue" d="M184.71,-72.79C197.4,-70.79 210.39,-68.75 222.9,-66.77"/>
<polygon fill="midnightblue" stroke="midnightblue" points="183.93,-69.37 174.6,-74.38 185.02,-76.28 183.93,-69.37"/>
</g>
<!-- Node4 -->
<g id="node4" class="node">
<title>Node4</title>
<g id="a_node4"><a xlink:title=" ">
<polygon fill="white" stroke="#bfbfbf" points="0,-0.5 0,-41.5 187,-41.5 187,-0.5 0,-0.5"/>
<text text-anchor="start" x="8" y="-29.5" font-family="Helvetica,sans-Serif" font-size="10.00">template iterator_base</text>
<text text-anchor="start" x="8" y="-18.5" font-family="Helvetica,sans-Serif" font-size="10.00">&lt; Container_const_iterator</text>
<text text-anchor="middle" x="93.5" y="-7.5" font-family="Helvetica,sans-Serif" font-size="10.00">&lt; Interface, Container, Master &gt; &gt;</text>
</a>
</g>
</g>
<!-- Node4&#45;&gt;Node2 -->
<g id="edge3" class="edge">
<title>Node4&#45;&gt;Node2</title>
<path fill="none" stroke="midnightblue" d="M197.31,-37.19C205.86,-38.54 214.42,-39.89 222.77,-41.2"/>
<polygon fill="midnightblue" stroke="midnightblue" points="197.73,-33.72 187.3,-35.62 196.64,-40.63 197.73,-33.72"/>
</g>
</g>
</svg>
