<?xml version="1.0" encoding="UTF-8" standalone="no"?>
<!DOCTYPE svg PUBLIC "-//W3C//DTD SVG 1.1//EN"
 "http://www.w3.org/Graphics/SVG/1.1/DTD/svg11.dtd">
<!-- Generated by graphviz version 2.43.0 (0)
 -->
<!-- Title: pkgDebianIndexTargetFile Pages: 1 -->
<svg width="372pt" height="196pt"
 viewBox="0.00 0.00 371.50 196.00" xmlns="http://www.w3.org/2000/svg" xmlns:xlink="http://www.w3.org/1999/xlink">
<g id="graph0" class="graph" transform="scale(1 1) rotate(0) translate(4 192)">
<title>pkgDebianIndexTargetFile</title>
<polygon fill="white" stroke="transparent" points="-4,4 -4,-192 367.5,-192 367.5,4 -4,4"/>
<!-- Node1 -->
<g id="node1" class="node">
<title>Node1</title>
<g id="a_node1"><a xlink:title=" ">
<polygon fill="#bfbfbf" stroke="black" points="104,-56.5 104,-75.5 247,-75.5 247,-56.5 104,-56.5"/>
<text text-anchor="middle" x="175.5" y="-63.5" font-family="Helvetica,sans-Serif" font-size="10.00">pkgDebianIndexTargetFile</text>
</a>
</g>
</g>
<!-- Node4 -->
<g id="node4" class="node">
<title>Node4</title>
<g id="a_node4"><a xlink:href="classdebPackagesIndex.xhtml" target="_top" xlink:title=" ">
<polygon fill="white" stroke="black" points="0,-0.5 0,-19.5 107,-19.5 107,-0.5 0,-0.5"/>
<text text-anchor="middle" x="53.5" y="-7.5" font-family="Helvetica,sans-Serif" font-size="10.00">debPackagesIndex</text>
</a>
</g>
</g>
<!-- Node1&#45;&gt;Node4 -->
<g id="edge3" class="edge">
<title>Node1&#45;&gt;Node4</title>
<path fill="none" stroke="midnightblue" d="M146.96,-52.37C124.11,-42.26 92.69,-28.35 72.74,-19.52"/>
<polygon fill="midnightblue" stroke="midnightblue" points="145.61,-55.6 156.17,-56.44 148.44,-49.2 145.61,-55.6"/>
</g>
<!-- Node5 -->
<g id="node5" class="node">
<title>Node5</title>
<g id="a_node5"><a xlink:href="classdebSourcesIndex.xhtml" target="_top" xlink:title=" ">
<polygon fill="white" stroke="black" points="125.5,-0.5 125.5,-19.5 225.5,-19.5 225.5,-0.5 125.5,-0.5"/>
<text text-anchor="middle" x="175.5" y="-7.5" font-family="Helvetica,sans-Serif" font-size="10.00">debSourcesIndex</text>
</a>
</g>
</g>
<!-- Node1&#45;&gt;Node5 -->
<g id="edge4" class="edge">
<title>Node1&#45;&gt;Node5</title>
<path fill="none" stroke="midnightblue" d="M175.5,-45.8C175.5,-36.91 175.5,-26.78 175.5,-19.75"/>
<polygon fill="midnightblue" stroke="midnightblue" points="172,-46.08 175.5,-56.08 179,-46.08 172,-46.08"/>
</g>
<!-- Node6 -->
<g id="node6" class="node">
<title>Node6</title>
<g id="a_node6"><a xlink:href="classdebTranslationsIndex.xhtml" target="_top" xlink:title=" ">
<polygon fill="white" stroke="black" points="243.5,-0.5 243.5,-19.5 363.5,-19.5 363.5,-0.5 243.5,-0.5"/>
<text text-anchor="middle" x="303.5" y="-7.5" font-family="Helvetica,sans-Serif" font-size="10.00">debTranslationsIndex</text>
</a>
</g>
</g>
<!-- Node1&#45;&gt;Node6 -->
<g id="edge5" class="edge">
<title>Node1&#45;&gt;Node6</title>
<path fill="none" stroke="midnightblue" d="M205.12,-52.5C229.12,-42.38 262.28,-28.39 283.31,-19.52"/>
<polygon fill="midnightblue" stroke="midnightblue" points="203.64,-49.33 195.78,-56.44 206.36,-55.78 203.64,-49.33"/>
</g>
<!-- Node2 -->
<g id="node2" class="node">
<title>Node2</title>
<g id="a_node2"><a xlink:href="classpkgDebianIndexFile.xhtml" target="_top" xlink:title=" ">
<polygon fill="white" stroke="black" points="119,-112.5 119,-131.5 232,-131.5 232,-112.5 119,-112.5"/>
<text text-anchor="middle" x="175.5" y="-119.5" font-family="Helvetica,sans-Serif" font-size="10.00">pkgDebianIndexFile</text>
</a>
</g>
</g>
<!-- Node2&#45;&gt;Node1 -->
<g id="edge1" class="edge">
<title>Node2&#45;&gt;Node1</title>
<path fill="none" stroke="midnightblue" d="M175.5,-101.8C175.5,-92.91 175.5,-82.78 175.5,-75.75"/>
<polygon fill="midnightblue" stroke="midnightblue" points="172,-102.08 175.5,-112.08 179,-102.08 172,-102.08"/>
</g>
<!-- Node3 -->
<g id="node3" class="node">
<title>Node3</title>
<g id="a_node3"><a xlink:href="classpkgIndexFile.xhtml" target="_top" xlink:title=" ">
<polygon fill="white" stroke="black" points="136,-168.5 136,-187.5 215,-187.5 215,-168.5 136,-168.5"/>
<text text-anchor="middle" x="175.5" y="-175.5" font-family="Helvetica,sans-Serif" font-size="10.00">pkgIndexFile</text>
</a>
</g>
</g>
<!-- Node3&#45;&gt;Node2 -->
<g id="edge2" class="edge">
<title>Node3&#45;&gt;Node2</title>
<path fill="none" stroke="midnightblue" d="M175.5,-157.8C175.5,-148.91 175.5,-138.78 175.5,-131.75"/>
<polygon fill="midnightblue" stroke="midnightblue" points="172,-158.08 175.5,-168.08 179,-158.08 172,-158.08"/>
</g>
</g>
</svg>
