<svg xmlns="http://www.w3.org/2000/svg" xmlns:xlink="http://www.w3.org/1999/xlink" id="main" onload="init(evt)" version="1.1" xml:space="preserve"><style type="text/css">.edge:hover path{stroke:red}.edge:hover polygon{stroke:red;fill:red}</style><script type="text/javascript"><![CDATA[
var edges = document.getElementsByTagName('g');
if (edges && edges.length) {
  for (var i=0;i<edges.length;i++) {
    if (edges[i].id.substr(0,4)=='edge') {
      edges[i].setAttribute('class','edge');
    }
  }
}
]]></script><defs><circle id="rim" cx="0" cy="0" r="7"/><circle id="rim2" cx="0" cy="0" r="3.5"/><g id="zoomPlus"><use fill="#404040" xlink:href="#rim"><set attributeName="fill" begin="zoomplus.mouseover" end="zoomplus.mouseout" to="#808080"/></use><path fill="none" stroke="#fff" stroke-width="1.5" d="M-4,0h8M0,-4v8" pointer-events="none"/></g><g id="zoomMin"><use fill="#404040" xlink:href="#rim"><set attributeName="fill" begin="zoomminus.mouseover" end="zoomminus.mouseout" to="#808080"/></use><path fill="none" stroke="#fff" stroke-width="1.5" d="M-4,0h8" pointer-events="none"/></g><g id="dirArrow"><path fill="none" stroke="#fff" stroke-width="1.5" d="M0,-3.0v7 M-2.5,-0.5L0,-3.0L2.5,-0.5"/></g><g id="resetDef"><use fill="#404040" xlink:href="#rim2"><set attributeName="fill" begin="reset.mouseover" end="reset.mouseout" to="#808080"/></use></g></defs><script type="text/javascript">var viewWidth = 582; var viewHeight = 122; var sectionId = &apos;dynsection-0&apos;;</script><script xlink:href="svgpan.js"/><svg id="graph" class="graph"><g id="viewport"><title>Container_reverse_iterator&lt; Interface, Container, Master &gt;</title><polygon fill="#fff" stroke="transparent" points="-4 4 -4 -117.5 578 -117.5 578 4 -4 4"/><g id="node1" class="node"><title>Node1</title><g id="a_node1"><a><polygon fill="#bfbfbf" stroke="#000" points="427 -33.5 427 -74.5 574 -74.5 574 -33.5 427 -33.5"/><text x="435" y="-62.5" font-family="Helvetica,sans-Serif" font-size="10" text-anchor="start">Container_reverse_iterator</text><text x="435" y="-51.5" font-family="Helvetica,sans-Serif" font-size="10" text-anchor="start">&lt; Interface, Container,</text><text x="500.5" y="-40.5" font-family="Helvetica,sans-Serif" font-size="10" text-anchor="middle">Master &gt;</text></a></g></g><g id="node2" class="node"><title>Node2</title><g id="a_node2"><a target="_top" xlink:href="classAPT_1_1Container__iterator__base.xhtml"><polygon fill="#fff" stroke="#000" points="223 -17 223 -91 391 -91 391 -17 223 -17"/><text x="231" y="-79" font-family="Helvetica,sans-Serif" font-size="10" text-anchor="start">Container_iterator</text><text x="231" y="-68" font-family="Helvetica,sans-Serif" font-size="10" text-anchor="start">_base&lt; Interface, Master,</text><text x="231" y="-57" font-family="Helvetica,sans-Serif" font-size="10" text-anchor="start">Container_reverse_iterator</text><text x="231" y="-46" font-family="Helvetica,sans-Serif" font-size="10" text-anchor="start">&lt; Interface, Container, Master</text><text x="231" y="-35" font-family="Helvetica,sans-Serif" font-size="10" text-anchor="start">&gt;, Container::reverse_iterator,</text><text x="307" y="-24" font-family="Helvetica,sans-Serif" font-size="10" text-anchor="middle">Container::value_type &gt;</text></a></g></g><g id="edge1" class="edge"><title>Node2-&gt;Node1</title><path fill="none" stroke="#191970" d="M401.25,-54C409.88,-54 418.53,-54 426.93,-54"/><polygon fill="#191970" stroke="#191970" points="401.16 -50.5 391.16 -54 401.16 -57.5 401.16 -50.5"/></g><g id="node3" class="node"><title>Node3</title><g id="a_node3"><a><polygon fill="#fff" stroke="#bfbfbf" points="12.5 -61 12.5 -113 174.5 -113 174.5 -61 12.5 -61"/><text x="20.5" y="-101" font-family="Helvetica,sans-Serif" font-size="10" text-anchor="start">iterator&lt; std::iterator</text><text x="20.5" y="-90" font-family="Helvetica,sans-Serif" font-size="10" text-anchor="start">_traits&lt; Container::reverse</text><text x="20.5" y="-79" font-family="Helvetica,sans-Serif" font-size="10" text-anchor="start">_iterator &gt;::iterator_category,</text><text x="93.5" y="-68" font-family="Helvetica,sans-Serif" font-size="10" text-anchor="middle">Container::value_type &gt;</text></a></g></g><g id="edge2" class="edge"><title>Node3-&gt;Node2</title><path fill="none" stroke="#191970" d="M184.84,-72.9C197.5,-70.93 210.46,-68.91 222.98,-66.95"/><polygon fill="#191970" stroke="#191970" points="184.1 -69.48 174.76 -74.48 185.18 -76.39 184.1 -69.48"/></g><g id="node4" class="node"><title>Node4</title><g id="a_node4"><a><polygon fill="#fff" stroke="#bfbfbf" points="0 -.5 0 -41.5 187 -41.5 187 -.5 0 -.5"/><text x="8" y="-29.5" font-family="Helvetica,sans-Serif" font-size="10" text-anchor="start">template iterator_base</text><text x="8" y="-18.5" font-family="Helvetica,sans-Serif" font-size="10" text-anchor="start">&lt; Container_reverse_iterator</text><text x="93.5" y="-7.5" font-family="Helvetica,sans-Serif" font-size="10" text-anchor="middle">&lt; Interface, Container, Master &gt; &gt;</text></a></g></g><g id="edge3" class="edge"><title>Node4-&gt;Node2</title><path fill="none" stroke="#191970" d="M197.33,-37.04C205.92,-38.38 214.53,-39.73 222.95,-41.04"/><polygon fill="#191970" stroke="#191970" points="197.69 -33.56 187.27 -35.47 196.61 -40.47 197.69 -33.56"/></g></g></svg><g id="navigator" fill="#404254" transform="translate(0 0)"><rect width="60" height="60" x="0" y="0" fill="#f2f5e9" fill-opacity=".5" stroke="#606060" stroke-width=".5"/><use id="zoomplus" x="17" y="9" onmousedown="handleZoom(evt,'in')" xlink:href="#zoomPlus"/><use id="zoomminus" x="42" y="9" onmousedown="handleZoom(evt,'out')" xlink:href="#zoomMin"/><use id="reset" x="30" y="36" onmousedown="handleReset()" xlink:href="#resetDef"/><g id="arrowUp" onmousedown="handlePan(0,-1)" transform="translate(30 24)" xlink:href="#dirArrow"><use fill="#404040" xlink:href="#rim"><set attributeName="fill" begin="arrowUp.mouseover" end="arrowUp.mouseout" to="#808080"/></use><path fill="none" stroke="#fff" stroke-width="1.5" d="M0,-3.0v7 M-2.5,-0.5L0,-3.0L2.5,-0.5"/></g><g id="arrowRight" onmousedown="handlePan(1,0)" transform="rotate(90) translate(36 -43)" xlink:href="#dirArrow"><use fill="#404040" xlink:href="#rim"><set attributeName="fill" begin="arrowRight.mouseover" end="arrowRight.mouseout" to="#808080"/></use><path fill="none" stroke="#fff" stroke-width="1.5" d="M0,-3.0v7 M-2.5,-0.5L0,-3.0L2.5,-0.5"/></g><g id="arrowDown" onmousedown="handlePan(0,1)" transform="rotate(180) translate(-30 -48)" xlink:href="#dirArrow"><use fill="#404040" xlink:href="#rim"><set attributeName="fill" begin="arrowDown.mouseover" end="arrowDown.mouseout" to="#808080"/></use><path fill="none" stroke="#fff" stroke-width="1.5" d="M0,-3.0v7 M-2.5,-0.5L0,-3.0L2.5,-0.5"/></g><g id="arrowLeft" onmousedown="handlePan(-1,0)" transform="rotate(270) translate(-36 17)" xlink:href="#dirArrow"><use fill="#404040" xlink:href="#rim"><set attributeName="fill" begin="arrowLeft.mouseover" end="arrowLeft.mouseout" to="#808080"/></use><path fill="none" stroke="#fff" stroke-width="1.5" d="M0,-3.0v7 M-2.5,-0.5L0,-3.0L2.5,-0.5"/></g></g><svg width="100%" height="30" preserveAspectRatio="xMaxYMin meet" viewBox="0 0 15 15"><g id="arrow_out" transform="scale(0.3 0.3)"><a target="_base" xlink:href="classAPT_1_1Container__reverse__iterator__inherit__graph_org.svg"><rect id="button" width="38" height="38" x="6" y="6" fill="#f2f5e9" fill-opacity=".5" stroke="#606060" stroke-width="1" rx="5" ry="5"/><path id="arrow" d="M 11.500037,31.436501 C 11.940474,20.09759 22.043105,11.32322 32.158766,21.979434 L 37.068811,17.246167 C 37.068811,17.246167 37.088388,32 37.088388,32 L 22.160133,31.978069 C 22.160133,31.978069 26.997745,27.140456 26.997745,27.140456 C 18.528582,18.264221 13.291696,25.230495 11.500037,31.436501 z" style="fill:#404040"/></a></g></svg></svg>