<svg xmlns="http://www.w3.org/2000/svg" xmlns:xlink="http://www.w3.org/1999/xlink" width="416" height="95pt" viewBox="0 0 312 95"><g id="graph0" class="graph" transform="scale(1 1) rotate(0) translate(4 91)"><title>debListParser</title><polygon fill="#fff" stroke="transparent" points="-4 4 -4 -91 308 -91 308 4 -4 4"/><g id="node1" class="node"><title>Node1</title><g id="a_node1"><a><polygon fill="#bfbfbf" stroke="#000" points="133 -.5 133 -19.5 215 -19.5 215 -.5 133 -.5"/><text x="174" y="-7.5" font-family="Helvetica,sans-Serif" font-size="10" text-anchor="middle">debListParser</text></a></g></g><g id="node2" class="node"><title>Node2</title><g id="a_node2"><a target="_top" xlink:href="classpkgCacheListParser.xhtml"><polygon fill="#fff" stroke="#000" points="0 -67.5 0 -86.5 112 -86.5 112 -67.5 0 -67.5"/><text x="56" y="-74.5" font-family="Helvetica,sans-Serif" font-size="10" text-anchor="middle">pkgCacheListParser</text></a></g></g><g id="edge1" class="edge"><title>Node2-&gt;Node1</title><path fill="none" stroke="#191970" d="M80.89,-62.29C104.28,-49.4 138.56,-30.52 158.34,-19.63"/><polygon fill="#191970" stroke="#191970" points="78.98 -59.34 71.91 -67.23 82.36 -65.47 78.98 -59.34"/></g><g id="node3" class="node"><title>Node3</title><g id="a_node3"><a target="_top" xlink:href="classpkgTagSection.xhtml"><polygon fill="#fff" stroke="#000" points="130.5 -67.5 130.5 -86.5 217.5 -86.5 217.5 -67.5 130.5 -67.5"/><text x="174" y="-74.5" font-family="Helvetica,sans-Serif" font-size="10" text-anchor="middle">pkgTagSection</text></a></g></g><g id="edge2" class="edge"><title>Node3-&gt;Node1</title><path fill="none" stroke="#9a32cd" stroke-dasharray="5 2" d="M174,-57.04C174,-44.67 174,-29.12 174,-19.63"/><polygon fill="#9a32cd" stroke="#9a32cd" points="170.5 -57.23 174 -67.23 177.5 -57.23 170.5 -57.23"/><text x="194" y="-41" font-family="Helvetica,sans-Serif" font-size="10" text-anchor="middle">Section</text></g><g id="node4" class="node"><title>Node4</title><g id="a_node4"><a target="_top" xlink:href="classpkgTagFile.xhtml"><polygon fill="#fff" stroke="#000" points="236 -67.5 236 -86.5 304 -86.5 304 -67.5 236 -67.5"/><text x="270" y="-74.5" font-family="Helvetica,sans-Serif" font-size="10" text-anchor="middle">pkgTagFile</text></a></g></g><g id="edge3" class="edge"><title>Node4-&gt;Node1</title><path fill="none" stroke="#9a32cd" stroke-dasharray="5 2" d="M250.49,-61.17C240.84,-53.98 228.95,-45.34 218,-38 208.47,-31.61 197.47,-24.86 188.85,-19.71"/><polygon fill="#9a32cd" stroke="#9a32cd" points="248.53 -64.07 258.62 -67.28 252.73 -58.47 248.53 -64.07"/><text x="244.5" y="-41" font-family="Helvetica,sans-Serif" font-size="10" text-anchor="middle">Tags</text></g></g></svg>