<svg xmlns="http://www.w3.org/2000/svg" xmlns:xlink="http://www.w3.org/1999/xlink" width="139pt" height="85pt" viewBox="0 0 139 85"><g id="graph0" class="graph" transform="scale(1 1) rotate(0) translate(4 81)"><title>debIFTypePkg</title><polygon fill="#fff" stroke="transparent" points="-4 4 -4 -81 135 -81 135 4 -4 4"/><g id="node1" class="node"><title>Node1</title><g id="a_node1"><a><polygon fill="#bfbfbf" stroke="#000" points="0 -.5 0 -19.5 83 -19.5 83 -.5 0 -.5"/><text x="41.5" y="-7.5" font-family="Helvetica,sans-Serif" font-size="10" text-anchor="middle">debIFTypePkg</text></a></g></g><g id="node2" class="node"><title>Node2</title><g id="a_node2"><a target="_top" xlink:href="classpkgIndexFile_1_1Type.xhtml"><polygon fill="#fff" stroke="#000" points="22 -57.5 22 -76.5 61 -76.5 61 -57.5 22 -57.5"/><text x="41.5" y="-64.5" font-family="Helvetica,sans-Serif" font-size="10" text-anchor="middle">Type</text></a></g></g><g id="edge1" class="edge"><title>Node2-&gt;Node1</title><path fill="none" stroke="#191970" d="M41.5,-47.12C41.5,-37.82 41.5,-27.06 41.5,-19.71"/><polygon fill="#191970" stroke="#191970" points="38 -47.41 41.5 -57.41 45 -47.41 38 -47.41"/></g><g id="edge2" class="edge"><title>Node2-&gt;Node2</title><path fill="none" stroke="#9a32cd" stroke-dasharray="5 2" d="M71.33,-71.79C75.9,-71.06 79,-69.47 79,-67 79,-62.95 70.64,-61.25 61.18,-61.88"/><polygon fill="#9a32cd" stroke="#9a32cd" points="71.06 -68.3 61.18 -72.12 71.29 -75.3 71.06 -68.3"/><text x="105" y="-64.5" font-family="Helvetica,sans-Serif" font-size="10" text-anchor="middle">GlobalList</text></g></g></svg>