<svg xmlns="http://www.w3.org/2000/svg" xmlns:xlink="http://www.w3.org/1999/xlink" width="136pt" height="112" viewBox="0 0 136 84"><g id="graph0" class="graph" transform="scale(1 1) rotate(0) translate(4 80)"><title>pkgDepCache::Policy</title><polygon fill="#fff" stroke="transparent" points="-4 4 -4 -80 132 -80 132 4 -4 4"/><g id="node1" class="node"><title>Node1</title><g id="a_node1"><a><polygon fill="#bfbfbf" stroke="#000" points="8.5 -56.5 8.5 -75.5 127.5 -75.5 127.5 -56.5 8.5 -56.5"/><text x="68" y="-63.5" font-family="Helvetica,sans-Serif" font-size="10" text-anchor="middle">pkgDepCache::Policy</text></a></g></g><g id="node2" class="node"><title>Node2</title><g id="a_node2"><a target="_top" xlink:href="classpkgPolicy.xhtml"><polygon fill="#fff" stroke="#000" points="0 -.5 0 -19.5 64 -19.5 64 -.5 0 -.5"/><text x="32" y="-7.5" font-family="Helvetica,sans-Serif" font-size="10" text-anchor="middle">pkgPolicy</text></a></g></g><g id="edge1" class="edge"><title>Node1-&gt;Node2</title><path fill="none" stroke="#191970" d="M56.38,-47.57C50.18,-38.27 42.83,-27.25 37.83,-19.75"/><polygon fill="#191970" stroke="#191970" points="53.6 -49.7 62.06 -56.08 59.42 -45.82 53.6 -49.7"/></g><g id="node3" class="node"><title>Node3</title><g id="a_node3"><a target="_top" xlink:href="classpkgSimulate_1_1Policy.xhtml"><polygon fill="#fff" stroke="#000" points="82 -.5 82 -19.5 128 -19.5 128 -.5 82 -.5"/><text x="105" y="-7.5" font-family="Helvetica,sans-Serif" font-size="10" text-anchor="middle">Policy</text></a></g></g><g id="edge2" class="edge"><title>Node1-&gt;Node3</title><path fill="none" stroke="#191970" d="M79.95,-47.57C86.31,-38.27 93.87,-27.25 99,-19.75"/><polygon fill="#191970" stroke="#191970" points="76.87 -45.86 74.11 -56.08 82.65 -49.81 76.87 -45.86"/></g></g></svg>