<svg xmlns="http://www.w3.org/2000/svg" xmlns:xlink="http://www.w3.org/1999/xlink" width="260pt" height="140pt" viewBox="0 0 259.5 140"><g id="graph0" class="graph" transform="scale(1 1) rotate(0) translate(4 136)"><title>debRecordParserBase</title><polygon fill="#fff" stroke="transparent" points="-4 4 -4 -136 255.5 -136 255.5 4 -4 4"/><g id="node1" class="node"><title>Node1</title><g id="a_node1"><a><polygon fill="#bfbfbf" stroke="#000" points="73.5 -56.5 73.5 -75.5 195.5 -75.5 195.5 -56.5 73.5 -56.5"/><text x="134.5" y="-63.5" font-family="Helvetica,sans-Serif" font-size="10" text-anchor="middle">debRecordParserBase</text></a></g></g><g id="node3" class="node"><title>Node3</title><g id="a_node3"><a target="_top" xlink:href="classdebDebFileRecordParser.xhtml"><polygon fill="#fff" stroke="#000" points="0 -.5 0 -19.5 135 -19.5 135 -.5 0 -.5"/><text x="67.5" y="-7.5" font-family="Helvetica,sans-Serif" font-size="10" text-anchor="middle">debDebFileRecordParser</text></a></g></g><g id="edge2" class="edge"><title>Node1-&gt;Node3</title><path fill="none" stroke="#191970" d="M115.67,-49.82C103.66,-40.15 88.53,-27.95 78.46,-19.83"/><polygon fill="#191970" stroke="#191970" points="113.75 -52.77 123.74 -56.32 118.15 -47.32 113.75 -52.77"/></g><g id="node4" class="node"><title>Node4</title><g id="a_node4"><a target="_top" xlink:href="classdebRecordParser.xhtml"><polygon fill="#fff" stroke="#000" points="153.5 -.5 153.5 -19.5 251.5 -19.5 251.5 -.5 153.5 -.5"/><text x="202.5" y="-7.5" font-family="Helvetica,sans-Serif" font-size="10" text-anchor="middle">debRecordParser</text></a></g></g><g id="edge3" class="edge"><title>Node1-&gt;Node4</title><path fill="none" stroke="#191970" d="M153.26,-50.1C165.5,-40.38 181.06,-28.03 191.38,-19.83"/><polygon fill="#191970" stroke="#191970" points="151.08 -47.36 145.43 -56.32 155.43 -52.85 151.08 -47.36"/></g><g id="node2" class="node"><title>Node2</title><g id="a_node2"><a><polygon fill="#fff" stroke="#bfbfbf" points="111 -112.5 111 -131.5 158 -131.5 158 -112.5 111 -112.5"/><text x="134.5" y="-119.5" font-family="Helvetica,sans-Serif" font-size="10" text-anchor="middle">Parser</text></a></g></g><g id="edge1" class="edge"><title>Node2-&gt;Node1</title><path fill="none" stroke="#191970" d="M134.5,-101.8C134.5,-92.91 134.5,-82.78 134.5,-75.75"/><polygon fill="#191970" stroke="#191970" points="131 -102.08 134.5 -112.08 138 -102.08 131 -102.08"/></g></g></svg>