<?xml version="1.0" encoding="UTF-8" standalone="no"?>
<!DOCTYPE svg PUBLIC "-//W3C//DTD SVG 1.1//EN"
 "http://www.w3.org/Graphics/SVG/1.1/DTD/svg11.dtd">
<!-- Generated by graphviz version 2.43.0 (0)
 -->
<!-- Title: pkgAcqMethod Pages: 1 -->
<svg width="411pt" height="254pt"
 viewBox="0.00 0.00 411.00 254.00" xmlns="http://www.w3.org/2000/svg" xmlns:xlink="http://www.w3.org/1999/xlink">
<g id="graph0" class="graph" transform="scale(1 1) rotate(0) translate(4 250)">
<title>pkgAcqMethod</title>
<polygon fill="white" stroke="transparent" points="-4,4 -4,-250 407,-250 407,4 -4,4"/>
<!-- Node1 -->
<g id="node1" class="node">
<title>Node1</title>
<g id="a_node1"><a xlink:title=" ">
<polygon fill="#bfbfbf" stroke="black" points="165,-0.5 165,-19.5 254,-19.5 254,-0.5 165,-0.5"/>
<text text-anchor="middle" x="209.5" y="-7.5" font-family="Helvetica,sans-Serif" font-size="10.00">pkgAcqMethod</text>
</a>
</g>
</g>
<!-- Node2 -->
<g id="node2" class="node">
<title>Node2</title>
<g id="a_node2"><a xlink:href="structpkgAcqMethod_1_1FetchItem.xhtml" target="_top" xlink:title=" ">
<polygon fill="white" stroke="black" points="63,-85 63,-104 128,-104 128,-85 63,-85"/>
<text text-anchor="middle" x="95.5" y="-92" font-family="Helvetica,sans-Serif" font-size="10.00">FetchItem</text>
</a>
</g>
</g>
<!-- Node2&#45;&gt;Node1 -->
<g id="edge1" class="edge">
<title>Node2&#45;&gt;Node1</title>
<path fill="none" stroke="#9a32cd" stroke-dasharray="5,2" d="M105.8,-76.04C113.7,-63.94 125.59,-48.23 139.5,-38 150.62,-29.82 164.53,-23.78 177.02,-19.52"/>
<polygon fill="#9a32cd" stroke="#9a32cd" points="102.66,-74.45 100.36,-84.8 108.61,-78.15 102.66,-74.45"/>
<text text-anchor="middle" x="167.5" y="-52" font-family="Helvetica,sans-Serif" font-size="10.00"> Queue</text>
<text text-anchor="middle" x="167.5" y="-41" font-family="Helvetica,sans-Serif" font-size="10.00">QueueBack</text>
</g>
<!-- Node2&#45;&gt;Node2 -->
<g id="edge3" class="edge">
<title>Node2&#45;&gt;Node2</title>
<path fill="none" stroke="#9a32cd" stroke-dasharray="5,2" d="M138.14,-101.47C142.91,-100.15 146,-97.83 146,-94.5 146,-89.17 138.1,-86.42 128.04,-86.26"/>
<polygon fill="#9a32cd" stroke="#9a32cd" points="137.52,-98.02 128.04,-102.74 138.4,-104.96 137.52,-98.02"/>
<text text-anchor="middle" x="159.5" y="-92" font-family="Helvetica,sans-Serif" font-size="10.00"> Next</text>
</g>
<!-- Node3 -->
<g id="node3" class="node">
<title>Node3</title>
<g id="a_node3"><a xlink:href="classHashStringList.xhtml" target="_top" xlink:title=" ">
<polygon fill="white" stroke="black" points="0,-169.5 0,-188.5 87,-188.5 87,-169.5 0,-169.5"/>
<text text-anchor="middle" x="43.5" y="-176.5" font-family="Helvetica,sans-Serif" font-size="10.00">HashStringList</text>
</a>
</g>
</g>
<!-- Node3&#45;&gt;Node2 -->
<g id="edge2" class="edge">
<title>Node3&#45;&gt;Node2</title>
<path fill="none" stroke="#9a32cd" stroke-dasharray="5,2" d="M39.91,-159.29C39.01,-149.67 39.47,-138.1 44.5,-129 50.75,-117.69 62.63,-109.55 73.35,-104.13"/>
<polygon fill="#9a32cd" stroke="#9a32cd" points="36.48,-160.02 41.39,-169.41 43.41,-159.01 36.48,-160.02"/>
<text text-anchor="middle" x="87" y="-137.5" font-family="Helvetica,sans-Serif" font-size="10.00"> ExpectedHashes</text>
</g>
<!-- Node4 -->
<g id="node4" class="node">
<title>Node4</title>
<g id="a_node4"><a xlink:title=" ">
<polygon fill="white" stroke="#bfbfbf" points="187.5,-169.5 187.5,-188.5 231.5,-188.5 231.5,-169.5 187.5,-169.5"/>
<text text-anchor="middle" x="209.5" y="-176.5" font-family="Helvetica,sans-Serif" font-size="10.00">string</text>
</a>
</g>
</g>
<!-- Node4&#45;&gt;Node1 -->
<g id="edge6" class="edge">
<title>Node4&#45;&gt;Node1</title>
<path fill="none" stroke="#9a32cd" stroke-dasharray="5,2" d="M209.5,-159.41C209.5,-123.47 209.5,-45.73 209.5,-19.69"/>
<polygon fill="#9a32cd" stroke="#9a32cd" points="206,-159.49 209.5,-169.49 213,-159.49 206,-159.49"/>
<text text-anchor="middle" x="237.5" y="-103" font-family="Helvetica,sans-Serif" font-size="10.00"> FailReason</text>
<text text-anchor="middle" x="237.5" y="-92" font-family="Helvetica,sans-Serif" font-size="10.00">IP</text>
<text text-anchor="middle" x="237.5" y="-81" font-family="Helvetica,sans-Serif" font-size="10.00">UsedMirror</text>
</g>
<!-- Node4&#45;&gt;Node2 -->
<g id="edge4" class="edge">
<title>Node4&#45;&gt;Node2</title>
<path fill="none" stroke="#9a32cd" stroke-dasharray="5,2" d="M178.34,-165.5C169.65,-161.42 160.42,-156.51 152.5,-151 151.15,-150.06 120.08,-119.63 104.4,-104.24"/>
<polygon fill="#9a32cd" stroke="#9a32cd" points="176.91,-168.7 187.47,-169.58 179.77,-162.31 176.91,-168.7"/>
<text text-anchor="middle" x="174" y="-143" font-family="Helvetica,sans-Serif" font-size="10.00"> DestFile</text>
<text text-anchor="middle" x="174" y="-132" font-family="Helvetica,sans-Serif" font-size="10.00">Uri</text>
</g>
<!-- Node6 -->
<g id="node6" class="node">
<title>Node6</title>
<g id="a_node6"><a xlink:title=" ">
<polygon fill="white" stroke="#bfbfbf" points="284,-85 284,-104 403,-104 403,-85 284,-85"/>
<text text-anchor="middle" x="343.5" y="-92" font-family="Helvetica,sans-Serif" font-size="10.00">vector&lt; std::string &gt;</text>
</a>
</g>
</g>
<!-- Node4&#45;&gt;Node6 -->
<g id="edge8" class="edge">
<title>Node4&#45;&gt;Node6</title>
<path fill="none" stroke="#9a32cd" stroke-dasharray="5,2" d="M232,-164.15C259.84,-147.01 306.38,-118.35 329.54,-104.1"/>
<polygon fill="#9a32cd" stroke="#9a32cd" points="230.02,-161.26 223.34,-169.48 233.69,-167.22 230.02,-161.26"/>
<text text-anchor="middle" x="313" y="-137.5" font-family="Helvetica,sans-Serif" font-size="10.00"> elements</text>
</g>
<!-- Node5 -->
<g id="node5" class="node">
<title>Node5</title>
<g id="a_node5"><a xlink:title=" ">
<polygon fill="white" stroke="#bfbfbf" points="149.5,-226.5 149.5,-245.5 269.5,-245.5 269.5,-226.5 149.5,-226.5"/>
<text text-anchor="middle" x="209.5" y="-233.5" font-family="Helvetica,sans-Serif" font-size="10.00">basic_string&lt; Char &gt;</text>
</a>
</g>
</g>
<!-- Node5&#45;&gt;Node4 -->
<g id="edge5" class="edge">
<title>Node5&#45;&gt;Node4</title>
<path fill="none" stroke="midnightblue" d="M209.5,-216.12C209.5,-206.82 209.5,-196.06 209.5,-188.71"/>
<polygon fill="midnightblue" stroke="midnightblue" points="206,-216.41 209.5,-226.41 213,-216.41 206,-216.41"/>
</g>
<!-- Node6&#45;&gt;Node1 -->
<g id="edge7" class="edge">
<title>Node6&#45;&gt;Node1</title>
<path fill="none" stroke="#9a32cd" stroke-dasharray="5,2" d="M321,-79.65C293.16,-62.51 246.62,-33.85 223.46,-19.6"/>
<polygon fill="#9a32cd" stroke="#9a32cd" points="319.31,-82.72 329.66,-84.98 322.98,-76.76 319.31,-82.72"/>
<text text-anchor="middle" x="314.5" y="-46.5" font-family="Helvetica,sans-Serif" font-size="10.00"> Messages</text>
</g>
</g>
</svg>
