<?xml version="1.0" encoding="UTF-8" standalone="no"?>
<!DOCTYPE svg PUBLIC "-//W3C//DTD SVG 1.1//EN"
 "http://www.w3.org/Graphics/SVG/1.1/DTD/svg11.dtd">
<!-- Generated by graphviz version 2.43.0 (0)
 -->
<!-- Title: debIFTypeDebianSourceDir Pages: 1 -->
<svg width="171pt" height="85pt"
 viewBox="0.00 0.00 171.00 85.00" xmlns="http://www.w3.org/2000/svg" xmlns:xlink="http://www.w3.org/1999/xlink">
<g id="graph0" class="graph" transform="scale(1 1) rotate(0) translate(4 81)">
<title>debIFTypeDebianSourceDir</title>
<polygon fill="white" stroke="transparent" points="-4,4 -4,-81 167,-81 167,4 -4,4"/>
<!-- Node1 -->
<g id="node1" class="node">
<title>Node1</title>
<g id="a_node1"><a xlink:title=" ">
<polygon fill="#bfbfbf" stroke="black" points="0,-0.5 0,-19.5 147,-19.5 147,-0.5 0,-0.5"/>
<text text-anchor="middle" x="73.5" y="-7.5" font-family="Helvetica,sans-Serif" font-size="10.00">debIFTypeDebianSourceDir</text>
</a>
</g>
</g>
<!-- Node2 -->
<g id="node2" class="node">
<title>Node2</title>
<g id="a_node2"><a xlink:href="classpkgIndexFile_1_1Type.xhtml" target="_top" xlink:title=" ">
<polygon fill="white" stroke="black" points="54,-57.5 54,-76.5 93,-76.5 93,-57.5 54,-57.5"/>
<text text-anchor="middle" x="73.5" y="-64.5" font-family="Helvetica,sans-Serif" font-size="10.00">Type</text>
</a>
</g>
</g>
<!-- Node2&#45;&gt;Node1 -->
<g id="edge1" class="edge">
<title>Node2&#45;&gt;Node1</title>
<path fill="none" stroke="midnightblue" d="M73.5,-47.12C73.5,-37.82 73.5,-27.06 73.5,-19.71"/>
<polygon fill="midnightblue" stroke="midnightblue" points="70,-47.41 73.5,-57.41 77,-47.41 70,-47.41"/>
</g>
<!-- Node2&#45;&gt;Node2 -->
<g id="edge2" class="edge">
<title>Node2&#45;&gt;Node2</title>
<path fill="none" stroke="#9a32cd" stroke-dasharray="5,2" d="M103.33,-71.79C107.9,-71.06 111,-69.47 111,-67 111,-62.95 102.64,-61.25 93.18,-61.88"/>
<polygon fill="#9a32cd" stroke="#9a32cd" points="103.06,-68.3 93.18,-72.12 103.29,-75.3 103.06,-68.3"/>
<text text-anchor="middle" x="137" y="-64.5" font-family="Helvetica,sans-Serif" font-size="10.00"> GlobalList</text>
</g>
</g>
</svg>
