<svg xmlns="http://www.w3.org/2000/svg" xmlns:xlink="http://www.w3.org/1999/xlink" width="161pt" height="209pt" viewBox="0 0 161 209"><g id="graph0" class="graph" transform="scale(1 1) rotate(0) translate(4 205)"><title>PackageManagerProgressFd</title><polygon fill="#fff" stroke="transparent" points="-4 4 -4 -205 157 -205 157 4 -4 4"/><g id="node1" class="node"><title>Node1</title><g id="a_node1"><a><polygon fill="#bfbfbf" stroke="#000" points="0 -.5 0 -19.5 153 -19.5 153 -.5 0 -.5"/><text x="76.5" y="-7.5" font-family="Helvetica,sans-Serif" font-size="10" text-anchor="middle">PackageManagerProgressFd</text></a></g></g><g id="node2" class="node"><title>Node2</title><g id="a_node2"><a target="_top" xlink:href="classAPT_1_1Progress_1_1PackageManager.xhtml"><polygon fill="#fff" stroke="#000" points="27 -57.5 27 -76.5 126 -76.5 126 -57.5 27 -57.5"/><text x="76.5" y="-64.5" font-family="Helvetica,sans-Serif" font-size="10" text-anchor="middle">PackageManager</text></a></g></g><g id="edge1" class="edge"><title>Node2-&gt;Node1</title><path fill="none" stroke="#191970" d="M76.5,-47.12C76.5,-37.82 76.5,-27.06 76.5,-19.71"/><polygon fill="#191970" stroke="#191970" points="73 -47.41 76.5 -57.41 80 -47.41 73 -47.41"/></g><g id="node3" class="node"><title>Node3</title><g id="a_node3"><a><polygon fill="#fff" stroke="#bfbfbf" points="54.5 -124.5 54.5 -143.5 98.5 -143.5 98.5 -124.5 54.5 -124.5"/><text x="76.5" y="-131.5" font-family="Helvetica,sans-Serif" font-size="10" text-anchor="middle">string</text></a></g></g><g id="edge2" class="edge"><title>Node3-&gt;Node2</title><path fill="none" stroke="#9a32cd" stroke-dasharray="5 2" d="M76.5,-114.04C76.5,-101.67 76.5,-86.12 76.5,-76.63"/><polygon fill="#9a32cd" stroke="#9a32cd" points="73 -114.23 76.5 -124.23 80 -114.23 73 -114.23"/><text x="108.5" y="-98" font-family="Helvetica,sans-Serif" font-size="10" text-anchor="middle">progress_str</text></g><g id="node4" class="node"><title>Node4</title><g id="a_node4"><a><polygon fill="#fff" stroke="#bfbfbf" points="16.5 -181.5 16.5 -200.5 136.5 -200.5 136.5 -181.5 16.5 -181.5"/><text x="76.5" y="-188.5" font-family="Helvetica,sans-Serif" font-size="10" text-anchor="middle">basic_string&lt; Char &gt;</text></a></g></g><g id="edge3" class="edge"><title>Node4-&gt;Node3</title><path fill="none" stroke="#191970" d="M76.5,-171.12C76.5,-161.82 76.5,-151.06 76.5,-143.71"/><polygon fill="#191970" stroke="#191970" points="73 -171.41 76.5 -181.41 80 -171.41 73 -171.41"/></g></g></svg>