<?xml version="1.0" encoding="UTF-8" standalone="no"?>
<!DOCTYPE svg PUBLIC "-//W3C//DTD SVG 1.1//EN"
 "http://www.w3.org/Graphics/SVG/1.1/DTD/svg11.dtd">
<!-- Generated by graphviz version 2.43.0 (0)
 -->
<!-- Title: pkgAcqTransactionItem Pages: 1 -->
<svg width="516pt" height="252pt"
 viewBox="0.00 0.00 515.50 252.00" xmlns="http://www.w3.org/2000/svg" xmlns:xlink="http://www.w3.org/1999/xlink">
<g id="graph0" class="graph" transform="scale(1 1) rotate(0) translate(4 248)">
<title>pkgAcqTransactionItem</title>
<polygon fill="white" stroke="transparent" points="-4,4 -4,-248 511.5,-248 511.5,4 -4,4"/>
<!-- Node1 -->
<g id="node1" class="node">
<title>Node1</title>
<g id="a_node1"><a xlink:title="baseclass for the indexes files to manage them all together">
<polygon fill="#bfbfbf" stroke="black" points="220,-168.5 220,-187.5 351,-187.5 351,-168.5 220,-168.5"/>
<text text-anchor="middle" x="285.5" y="-175.5" font-family="Helvetica,sans-Serif" font-size="10.00">pkgAcqTransactionItem</text>
</a>
</g>
</g>
<!-- Node3 -->
<g id="node3" class="node">
<title>Node3</title>
<g id="a_node3"><a xlink:href="classCleanupItem.xhtml" target="_top" xlink:title=" ">
<polygon fill="white" stroke="black" points="76,-112.5 76,-131.5 155,-131.5 155,-112.5 76,-112.5"/>
<text text-anchor="middle" x="115.5" y="-119.5" font-family="Helvetica,sans-Serif" font-size="10.00">CleanupItem</text>
</a>
</g>
</g>
<!-- Node1&#45;&gt;Node3 -->
<g id="edge2" class="edge">
<title>Node1&#45;&gt;Node3</title>
<path fill="none" stroke="midnightblue" d="M248.68,-165.3C216.65,-155.13 170.98,-140.62 142.31,-131.52"/>
<polygon fill="midnightblue" stroke="midnightblue" points="247.97,-168.75 258.56,-168.44 250.09,-162.08 247.97,-168.75"/>
</g>
<!-- Node4 -->
<g id="node4" class="node">
<title>Node4</title>
<g id="a_node4"><a xlink:href="classpkgAcqBaseIndex.xhtml" target="_top" xlink:title="Common base class for all classes that deal with fetching indexes {{{.">
<polygon fill="white" stroke="black" points="173.5,-112.5 173.5,-131.5 277.5,-131.5 277.5,-112.5 173.5,-112.5"/>
<text text-anchor="middle" x="225.5" y="-119.5" font-family="Helvetica,sans-Serif" font-size="10.00">pkgAcqBaseIndex</text>
</a>
</g>
</g>
<!-- Node1&#45;&gt;Node4 -->
<g id="edge3" class="edge">
<title>Node1&#45;&gt;Node4</title>
<path fill="none" stroke="midnightblue" d="M268.32,-161.54C257.62,-151.91 244.24,-139.87 235.32,-131.83"/>
<polygon fill="midnightblue" stroke="midnightblue" points="266.09,-164.24 275.86,-168.32 270.77,-159.03 266.09,-164.24"/>
</g>
<!-- Node9 -->
<g id="node9" class="node">
<title>Node9</title>
<g id="a_node9"><a xlink:href="classpkgAcqMetaBase.xhtml" target="_top" xlink:title="the manager of a transaction">
<polygon fill="white" stroke="black" points="296,-112.5 296,-131.5 397,-131.5 397,-112.5 296,-112.5"/>
<text text-anchor="middle" x="346.5" y="-119.5" font-family="Helvetica,sans-Serif" font-size="10.00">pkgAcqMetaBase</text>
</a>
</g>
</g>
<!-- Node1&#45;&gt;Node9 -->
<g id="edge8" class="edge">
<title>Node1&#45;&gt;Node9</title>
<path fill="none" stroke="midnightblue" d="M302.97,-161.54C313.84,-151.91 327.44,-139.87 336.52,-131.83"/>
<polygon fill="midnightblue" stroke="midnightblue" points="300.47,-159.07 295.3,-168.32 305.11,-164.32 300.47,-159.07"/>
</g>
<!-- Node12 -->
<g id="node12" class="node">
<title>Node12</title>
<g id="a_node12"><a xlink:href="classpkgAcqMetaSig.xhtml" target="_top" xlink:title="An acquire item that downloads the detached signature {{{ of a meta&#45;index (Release) file,...">
<polygon fill="white" stroke="black" points="415.5,-112.5 415.5,-131.5 507.5,-131.5 507.5,-112.5 415.5,-112.5"/>
<text text-anchor="middle" x="461.5" y="-119.5" font-family="Helvetica,sans-Serif" font-size="10.00">pkgAcqMetaSig</text>
</a>
</g>
</g>
<!-- Node1&#45;&gt;Node12 -->
<g id="edge11" class="edge">
<title>Node1&#45;&gt;Node12</title>
<path fill="none" stroke="midnightblue" d="M323.19,-165.44C356.37,-155.26 403.93,-140.66 433.74,-131.52"/>
<polygon fill="midnightblue" stroke="midnightblue" points="321.92,-162.16 313.39,-168.44 323.97,-168.86 321.92,-162.16"/>
</g>
<!-- Node2 -->
<g id="node2" class="node">
<title>Node2</title>
<g id="a_node2"><a xlink:title=" ">
<polygon fill="white" stroke="#bfbfbf" points="266,-224.5 266,-243.5 305,-243.5 305,-224.5 266,-224.5"/>
<text text-anchor="middle" x="285.5" y="-231.5" font-family="Helvetica,sans-Serif" font-size="10.00">Item</text>
</a>
</g>
</g>
<!-- Node2&#45;&gt;Node1 -->
<g id="edge1" class="edge">
<title>Node2&#45;&gt;Node1</title>
<path fill="none" stroke="midnightblue" d="M285.5,-213.8C285.5,-204.91 285.5,-194.78 285.5,-187.75"/>
<polygon fill="midnightblue" stroke="midnightblue" points="282,-214.08 285.5,-224.08 289,-214.08 282,-214.08"/>
</g>
<!-- Node5 -->
<g id="node5" class="node">
<title>Node5</title>
<g id="a_node5"><a xlink:href="classpkgAcqIndex.xhtml" target="_top" xlink:title="An acquire item that is responsible for fetching an index {{{ file (e.g., Packages or Sources).">
<polygon fill="white" stroke="black" points="8.5,-56.5 8.5,-75.5 88.5,-75.5 88.5,-56.5 8.5,-56.5"/>
<text text-anchor="middle" x="48.5" y="-63.5" font-family="Helvetica,sans-Serif" font-size="10.00">pkgAcqIndex</text>
</a>
</g>
</g>
<!-- Node4&#45;&gt;Node5 -->
<g id="edge4" class="edge">
<title>Node4&#45;&gt;Node5</title>
<path fill="none" stroke="midnightblue" d="M187.6,-109.44C154.22,-99.26 106.4,-84.66 76.41,-75.52"/>
<polygon fill="midnightblue" stroke="midnightblue" points="186.87,-112.87 197.45,-112.44 188.91,-106.18 186.87,-112.87"/>
</g>
<!-- Node7 -->
<g id="node7" class="node">
<title>Node7</title>
<g id="a_node7"><a xlink:href="classpkgAcqIndexDiffs.xhtml" target="_top" xlink:title="An item that is responsible for fetching server&#45;merge patches {{{ that need to be applied to a given ...">
<polygon fill="white" stroke="black" points="106.5,-56.5 106.5,-75.5 208.5,-75.5 208.5,-56.5 106.5,-56.5"/>
<text text-anchor="middle" x="157.5" y="-63.5" font-family="Helvetica,sans-Serif" font-size="10.00">pkgAcqIndexDiffs</text>
</a>
</g>
</g>
<!-- Node4&#45;&gt;Node7 -->
<g id="edge6" class="edge">
<title>Node4&#45;&gt;Node7</title>
<path fill="none" stroke="midnightblue" d="M206.74,-106.1C194.5,-96.38 178.94,-84.03 168.62,-75.83"/>
<polygon fill="midnightblue" stroke="midnightblue" points="204.57,-108.85 214.57,-112.32 208.92,-103.36 204.57,-108.85"/>
</g>
<!-- Node8 -->
<g id="node8" class="node">
<title>Node8</title>
<g id="a_node8"><a xlink:href="classpkgAcqIndexMergeDiffs.xhtml" target="_top" xlink:title="An item that is responsible for fetching client&#45;merge patches {{{ that need to be applied to a given ...">
<polygon fill="white" stroke="black" points="227,-56.5 227,-75.5 360,-75.5 360,-56.5 227,-56.5"/>
<text text-anchor="middle" x="293.5" y="-63.5" font-family="Helvetica,sans-Serif" font-size="10.00">pkgAcqIndexMergeDiffs</text>
</a>
</g>
</g>
<!-- Node4&#45;&gt;Node8 -->
<g id="edge7" class="edge">
<title>Node4&#45;&gt;Node8</title>
<path fill="none" stroke="midnightblue" d="M244.26,-106.1C256.5,-96.38 272.06,-84.03 282.38,-75.83"/>
<polygon fill="midnightblue" stroke="midnightblue" points="242.08,-103.36 236.43,-112.32 246.43,-108.85 242.08,-103.36"/>
</g>
<!-- Node6 -->
<g id="node6" class="node">
<title>Node6</title>
<g id="a_node6"><a xlink:href="classpkgAcqDiffIndex.xhtml" target="_top" xlink:title="An item that is responsible for fetching an index file of {{{ package list diffs and starting the pac...">
<polygon fill="white" stroke="black" points="0,-0.5 0,-19.5 97,-19.5 97,-0.5 0,-0.5"/>
<text text-anchor="middle" x="48.5" y="-7.5" font-family="Helvetica,sans-Serif" font-size="10.00">pkgAcqDiffIndex</text>
</a>
</g>
</g>
<!-- Node5&#45;&gt;Node6 -->
<g id="edge5" class="edge">
<title>Node5&#45;&gt;Node6</title>
<path fill="none" stroke="midnightblue" d="M48.5,-45.8C48.5,-36.91 48.5,-26.78 48.5,-19.75"/>
<polygon fill="midnightblue" stroke="midnightblue" points="45,-46.08 48.5,-56.08 52,-46.08 45,-46.08"/>
</g>
<!-- Node10 -->
<g id="node10" class="node">
<title>Node10</title>
<g id="a_node10"><a xlink:href="classpkgAcqMetaIndex.xhtml" target="_top" xlink:title="An item that is responsible for downloading the meta&#45;index {{{ file (i.e., Release) itself and verify...">
<polygon fill="white" stroke="black" points="378.5,-56.5 378.5,-75.5 482.5,-75.5 482.5,-56.5 378.5,-56.5"/>
<text text-anchor="middle" x="430.5" y="-63.5" font-family="Helvetica,sans-Serif" font-size="10.00">pkgAcqMetaIndex</text>
</a>
</g>
</g>
<!-- Node9&#45;&gt;Node10 -->
<g id="edge9" class="edge">
<title>Node9&#45;&gt;Node10</title>
<path fill="none" stroke="midnightblue" d="M368.43,-106.9C383.84,-97 403.95,-84.07 417.04,-75.65"/>
<polygon fill="midnightblue" stroke="midnightblue" points="366.52,-103.97 360,-112.32 370.3,-109.86 366.52,-103.97"/>
</g>
<!-- Node11 -->
<g id="node11" class="node">
<title>Node11</title>
<g id="a_node11"><a xlink:href="classpkgAcqMetaClearSig.xhtml" target="_top" xlink:title="An item responsible for downloading clearsigned metaindexes {{{.">
<polygon fill="white" stroke="black" points="371.5,-0.5 371.5,-19.5 489.5,-19.5 489.5,-0.5 371.5,-0.5"/>
<text text-anchor="middle" x="430.5" y="-7.5" font-family="Helvetica,sans-Serif" font-size="10.00">pkgAcqMetaClearSig</text>
</a>
</g>
</g>
<!-- Node10&#45;&gt;Node11 -->
<g id="edge10" class="edge">
<title>Node10&#45;&gt;Node11</title>
<path fill="none" stroke="midnightblue" d="M430.5,-45.8C430.5,-36.91 430.5,-26.78 430.5,-19.75"/>
<polygon fill="midnightblue" stroke="midnightblue" points="427,-46.08 430.5,-56.08 434,-46.08 427,-46.08"/>
</g>
</g>
</svg>
