<svg xmlns="http://www.w3.org/2000/svg" xmlns:xlink="http://www.w3.org/1999/xlink" id="main" onload="init(evt)" version="1.1" xml:space="preserve"><style type="text/css">.edge:hover path{stroke:red}.edge:hover polygon{stroke:red;fill:red}</style><script type="text/javascript"><![CDATA[
var edges = document.getElementsByTagName('g');
if (edges && edges.length) {
  for (var i=0;i<edges.length;i++) {
    if (edges[i].id.substr(0,4)=='edge') {
      edges[i].setAttribute('class','edge');
    }
  }
}
]]></script><defs><circle id="rim" cx="0" cy="0" r="7"/><circle id="rim2" cx="0" cy="0" r="3.5"/><g id="zoomPlus"><use fill="#404040" xlink:href="#rim"><set attributeName="fill" begin="zoomplus.mouseover" end="zoomplus.mouseout" to="#808080"/></use><path fill="none" stroke="#fff" stroke-width="1.5" d="M-4,0h8M0,-4v8" pointer-events="none"/></g><g id="zoomMin"><use fill="#404040" xlink:href="#rim"><set attributeName="fill" begin="zoomminus.mouseover" end="zoomminus.mouseout" to="#808080"/></use><path fill="none" stroke="#fff" stroke-width="1.5" d="M-4,0h8" pointer-events="none"/></g><g id="dirArrow"><path fill="none" stroke="#fff" stroke-width="1.5" d="M0,-3.0v7 M-2.5,-0.5L0,-3.0L2.5,-0.5"/></g><g id="resetDef"><use fill="#404040" xlink:href="#rim2"><set attributeName="fill" begin="reset.mouseover" end="reset.mouseout" to="#808080"/></use></g></defs><script type="text/javascript">var viewWidth = 402; var viewHeight = 572; var sectionId = &apos;dynsection-0&apos;;</script><script xlink:href="svgpan.js"/><svg id="graph" class="graph"><g id="viewport"><title>PackageMatcher</title><polygon fill="#fff" stroke="transparent" points="-4 4 -4 -567.5 398 -567.5 398 4 -4 4"/><g id="node1" class="node"><title>Node1</title><g id="a_node1"><a><polygon fill="#bfbfbf" stroke="#000" points="92 -266.5 92 -285.5 188 -285.5 188 -266.5 92 -266.5"/><text x="140" y="-273.5" font-family="Helvetica,sans-Serif" font-size="10" text-anchor="middle">PackageMatcher</text></a></g></g><g id="node3" class="node"><title>Node3</title><g id="a_node3"><a target="_top" xlink:href="classAPT_1_1CacheFilter_1_1PackageArchitectureMatchesSpecification.xhtml"><polygon fill="#fff" stroke="#000" points="230.5 -533 230.5 -563 387.5 -563 387.5 -533 230.5 -533"/><text x="238.5" y="-551" font-family="Helvetica,sans-Serif" font-size="10" text-anchor="start">PackageArchitectureMatches</text><text x="309" y="-540" font-family="Helvetica,sans-Serif" font-size="10" text-anchor="middle">Specification</text></a></g></g><g id="edge2" class="edge"><title>Node1-&gt;Node3</title><path fill="none" stroke="#191970" d="M141.75,-295.94C144.61,-342.56 158.3,-459.56 224,-523 227.94,-526.81 232.43,-530.03 237.25,-532.77"/><polygon fill="#191970" stroke="#191970" points="145.23 -295.49 141.23 -285.67 138.24 -295.84 145.23 -295.49"/></g><g id="node4" class="node"><title>Node4</title><g id="a_node4"><a target="_top" xlink:href="classAPT_1_1CacheFilter_1_1PackageIsNewInstall.xhtml"><polygon fill="#fff" stroke="#000" points="251 -494.5 251 -513.5 367 -513.5 367 -494.5 251 -494.5"/><text x="309" y="-501.5" font-family="Helvetica,sans-Serif" font-size="10" text-anchor="middle">PackageIsNewInstall</text></a></g></g><g id="edge3" class="edge"><title>Node1-&gt;Node4</title><path fill="none" stroke="#191970" d="M142.82,-295.67C147.76,-337.35 165.3,-434.79 224,-485 231.61,-491.51 240.99,-495.92 250.7,-498.87"/><polygon fill="#191970" stroke="#191970" points="146.29 -295.27 141.75 -285.7 139.33 -296.01 146.29 -295.27"/></g><g id="node5" class="node"><title>Node5</title><g id="a_node5"><a target="_top" xlink:href="classAPT_1_1CacheFilter_1_1PackageNameMatchesFnmatch.xhtml"><polygon fill="#fff" stroke="#000" points="224 -456.5 224 -475.5 394 -475.5 394 -456.5 224 -456.5"/><text x="309" y="-463.5" font-family="Helvetica,sans-Serif" font-size="10" text-anchor="middle">PackageNameMatchesFnmatch</text></a></g></g><g id="edge4" class="edge"><title>Node1-&gt;Node5</title><path fill="none" stroke="#191970" d="M144.75,-295.73C152.66,-331.68 174.55,-407.76 224,-447 228.8,-450.81 234.22,-453.89 239.94,-456.37"/><polygon fill="#191970" stroke="#191970" points="148.1 -294.65 142.66 -285.56 141.24 -296.07 148.1 -294.65"/></g><g id="node6" class="node"><title>Node6</title><g id="a_node6"><a target="_top" xlink:href="classAPT_1_1CacheFilter_1_1PackageNameMatchesRegEx.xhtml"><polygon fill="#fff" stroke="#000" points="230 -418.5 230 -437.5 388 -437.5 388 -418.5 230 -418.5"/><text x="309" y="-425.5" font-family="Helvetica,sans-Serif" font-size="10" text-anchor="middle">PackageNameMatchesRegEx</text></a></g></g><g id="edge5" class="edge"><title>Node1-&gt;Node6</title><path fill="none" stroke="#191970" d="M147.41,-295.01C158.3,-324.3 183.29,-380.08 224,-409 229.49,-412.9 235.64,-416.01 242.05,-418.5"/><polygon fill="#191970" stroke="#191970" points="150.68 -293.77 144.03 -285.52 144.09 -296.12 150.68 -293.77"/></g><g id="node7" class="node"><title>Node7</title><g id="a_node7"><a target="_top" xlink:href="structAPT_1_1Internal_1_1Patterns_1_1PackageHasExactName.xhtml"><polygon fill="#fff" stroke="#000" points="243.5 -380.5 243.5 -399.5 374.5 -399.5 374.5 -380.5 243.5 -380.5"/><text x="309" y="-387.5" font-family="Helvetica,sans-Serif" font-size="10" text-anchor="middle">PackageHasExactName</text></a></g></g><g id="edge6" class="edge"><title>Node1-&gt;Node7</title><path fill="none" stroke="#191970" d="M151.8,-294.22C165.69,-315.99 191.88,-351.85 224,-371 230.55,-374.9 237.82,-378.01 245.27,-380.47"/><polygon fill="#191970" stroke="#191970" points="154.7 -292.26 146.46 -285.59 148.74 -295.93 154.7 -292.26"/></g><g id="node8" class="node"><title>Node8</title><g id="a_node8"><a target="_top" xlink:href="structAPT_1_1Internal_1_1Patterns_1_1PackageIsAutomatic.xhtml"><polygon fill="#fff" stroke="#000" points="251.5 -342.5 251.5 -361.5 366.5 -361.5 366.5 -342.5 251.5 -342.5"/><text x="309" y="-349.5" font-family="Helvetica,sans-Serif" font-size="10" text-anchor="middle">PackageIsAutomatic</text></a></g></g><g id="edge7" class="edge"><title>Node1-&gt;Node8</title><path fill="none" stroke="#191970" d="M160.03,-292.21C176.1,-305.09 200.21,-322.6 224,-333 232.77,-336.83 242.4,-339.94 251.92,-342.44"/><polygon fill="#191970" stroke="#191970" points="161.94 -289.25 151.99 -285.61 157.5 -294.66 161.94 -289.25"/></g><g id="node9" class="node"><title>Node9</title><g id="a_node9"><a target="_top" xlink:href="structAPT_1_1Internal_1_1Patterns_1_1PackageIsBroken.xhtml"><polygon fill="#fff" stroke="#000" points="260 -304.5 260 -323.5 358 -323.5 358 -304.5 260 -304.5"/><text x="309" y="-311.5" font-family="Helvetica,sans-Serif" font-size="10" text-anchor="middle">PackageIsBroken</text></a></g></g><g id="edge8" class="edge"><title>Node1-&gt;Node9</title><path fill="none" stroke="#191970" d="M192.59,-287.83C202.99,-290.21 213.84,-292.69 224,-295 237.56,-298.09 252.35,-301.44 265.69,-304.45"/><polygon fill="#191970" stroke="#191970" points="193.32 -284.41 182.79 -285.59 191.76 -291.23 193.32 -284.41"/></g><g id="node10" class="node"><title>Node10</title><g id="a_node10"><a target="_top" xlink:href="structAPT_1_1Internal_1_1Patterns_1_1PackageIsConfigFiles.xhtml"><polygon fill="#fff" stroke="#000" points="250 -266.5 250 -285.5 368 -285.5 368 -266.5 250 -266.5"/><text x="309" y="-273.5" font-family="Helvetica,sans-Serif" font-size="10" text-anchor="middle">PackageIsConfigFiles</text></a></g></g><g id="edge9" class="edge"><title>Node1-&gt;Node10</title><path fill="none" stroke="#191970" d="M198.5,-276C215.07,-276 233.16,-276 249.77,-276"/><polygon fill="#191970" stroke="#191970" points="198.41 -272.5 188.41 -276 198.41 -279.5 198.41 -272.5"/></g><g id="node11" class="node"><title>Node11</title><g id="a_node11"><a target="_top" xlink:href="structAPT_1_1Internal_1_1Patterns_1_1PackageIsEssential.xhtml"><polygon fill="#fff" stroke="#000" points="254.5 -228.5 254.5 -247.5 363.5 -247.5 363.5 -228.5 254.5 -228.5"/><text x="309" y="-235.5" font-family="Helvetica,sans-Serif" font-size="10" text-anchor="middle">PackageIsEssential</text></a></g></g><g id="edge10" class="edge"><title>Node1-&gt;Node11</title><path fill="none" stroke="#191970" d="M192.59,-264.17C202.99,-261.79 213.84,-259.31 224,-257 237.56,-253.91 252.35,-250.56 265.69,-247.55"/><polygon fill="#191970" stroke="#191970" points="191.76 -260.77 182.79 -266.41 193.32 -267.59 191.76 -260.77"/></g><g id="node12" class="node"><title>Node12</title><g id="a_node12"><a target="_top" xlink:href="structAPT_1_1Internal_1_1Patterns_1_1PackageIsGarbage.xhtml"><polygon fill="#fff" stroke="#000" points="256 -190.5 256 -209.5 362 -209.5 362 -190.5 256 -190.5"/><text x="309" y="-197.5" font-family="Helvetica,sans-Serif" font-size="10" text-anchor="middle">PackageIsGarbage</text></a></g></g><g id="edge11" class="edge"><title>Node1-&gt;Node12</title><path fill="none" stroke="#191970" d="M160.03,-259.79C176.1,-246.91 200.21,-229.4 224,-219 234,-214.63 245.13,-211.2 255.93,-208.54"/><polygon fill="#191970" stroke="#191970" points="157.5 -257.34 151.99 -266.39 161.94 -262.75 157.5 -257.34"/></g><g id="node13" class="node"><title>Node13</title><g id="a_node13"><a target="_top" xlink:href="structAPT_1_1Internal_1_1Patterns_1_1PackageIsInstalled.xhtml"><polygon fill="#fff" stroke="#000" points="255.5 -152.5 255.5 -171.5 362.5 -171.5 362.5 -152.5 255.5 -152.5"/><text x="309" y="-159.5" font-family="Helvetica,sans-Serif" font-size="10" text-anchor="middle">PackageIsInstalled</text></a></g></g><g id="edge12" class="edge"><title>Node1-&gt;Node13</title><path fill="none" stroke="#191970" d="M151.8,-257.78C165.69,-236.01 191.88,-200.15 224,-181 233.5,-175.33 244.53,-171.36 255.41,-168.56"/><polygon fill="#191970" stroke="#191970" points="148.74 -256.07 146.46 -266.41 154.7 -259.74 148.74 -256.07"/></g><g id="node14" class="node"><title>Node14</title><g id="a_node14"><a target="_top" xlink:href="structAPT_1_1Internal_1_1Patterns_1_1PackageIsObsolete.xhtml"><polygon fill="#fff" stroke="#000" points="255 -114.5 255 -133.5 363 -133.5 363 -114.5 255 -114.5"/><text x="309" y="-121.5" font-family="Helvetica,sans-Serif" font-size="10" text-anchor="middle">PackageIsObsolete</text></a></g></g><g id="edge13" class="edge"><title>Node1-&gt;Node14</title><path fill="none" stroke="#191970" d="M147.41,-256.99C158.3,-227.7 183.29,-171.92 224,-143 233.02,-136.59 243.84,-132.3 254.68,-129.44"/><polygon fill="#191970" stroke="#191970" points="144.09 -255.88 144.03 -266.48 150.68 -258.23 144.09 -255.88"/></g><g id="node15" class="node"><title>Node15</title><g id="a_node15"><a target="_top" xlink:href="structAPT_1_1Internal_1_1Patterns_1_1PackageIsUpgradable.xhtml"><polygon fill="#fff" stroke="#000" points="248.5 -76.5 248.5 -95.5 369.5 -95.5 369.5 -76.5 248.5 -76.5"/><text x="309" y="-83.5" font-family="Helvetica,sans-Serif" font-size="10" text-anchor="middle">PackageIsUpgradable</text></a></g></g><g id="edge14" class="edge"><title>Node1-&gt;Node15</title><path fill="none" stroke="#191970" d="M144.75,-256.27C152.66,-220.32 174.55,-144.24 224,-105 231.15,-99.33 239.65,-95.29 248.47,-92.41"/><polygon fill="#191970" stroke="#191970" points="141.24 -255.93 142.66 -266.44 148.1 -257.35 141.24 -255.93"/></g><g id="node16" class="node"><title>Node16</title><g id="a_node16"><a target="_top" xlink:href="structAPT_1_1Internal_1_1Patterns_1_1PackageIsVirtual.xhtml"><polygon fill="#fff" stroke="#000" points="260.5 -38.5 260.5 -57.5 357.5 -57.5 357.5 -38.5 260.5 -38.5"/><text x="309" y="-45.5" font-family="Helvetica,sans-Serif" font-size="10" text-anchor="middle">PackageIsVirtual</text></a></g></g><g id="edge15" class="edge"><title>Node1-&gt;Node16</title><path fill="none" stroke="#191970" d="M142.82,-256.33C147.76,-214.65 165.3,-117.21 224,-67 234.11,-58.35 247.35,-53.42 260.31,-50.66"/><polygon fill="#191970" stroke="#191970" points="139.33 -255.99 141.75 -266.3 146.29 -256.73 139.33 -255.99"/></g><g id="node17" class="node"><title>Node17</title><g id="a_node17"><a target="_top" xlink:href="structAPT_1_1Internal_1_1Patterns_1_1PackageReverseDepends.xhtml"><polygon fill="#fff" stroke="#000" points="239.5 -.5 239.5 -19.5 378.5 -19.5 378.5 -.5 239.5 -.5"/><text x="309" y="-7.5" font-family="Helvetica,sans-Serif" font-size="10" text-anchor="middle">PackageReverseDepends</text></a></g></g><g id="edge16" class="edge"><title>Node1-&gt;Node17</title><path fill="none" stroke="#191970" d="M141.44,-256.39C143.62,-209.54 155.92,-90.48 224,-29 228.55,-24.89 233.8,-21.61 239.4,-19"/><polygon fill="#191970" stroke="#191970" points="137.94 -256.31 141.09 -266.43 144.94 -256.56 137.94 -256.31"/></g><g id="node2" class="node"><title>Node2</title><g id="a_node2"><a target="_top" xlink:href="classAPT_1_1CacheFilter_1_1Matcher.xhtml"><polygon fill="#fff" stroke="#000" points="0 -266.5 0 -285.5 56 -285.5 56 -266.5 0 -266.5"/><text x="28" y="-273.5" font-family="Helvetica,sans-Serif" font-size="10" text-anchor="middle">Matcher</text></a></g></g><g id="edge1" class="edge"><title>Node2-&gt;Node1</title><path fill="none" stroke="#191970" d="M66.27,-276C74.54,-276 83.4,-276 91.99,-276"/><polygon fill="#191970" stroke="#191970" points="66.19 -272.5 56.19 -276 66.19 -279.5 66.19 -272.5"/></g></g></svg><g id="navigator" fill="#404254" transform="translate(0 0)"><rect width="60" height="60" x="0" y="0" fill="#f2f5e9" fill-opacity=".5" stroke="#606060" stroke-width=".5"/><use id="zoomplus" x="17" y="9" onmousedown="handleZoom(evt,'in')" xlink:href="#zoomPlus"/><use id="zoomminus" x="42" y="9" onmousedown="handleZoom(evt,'out')" xlink:href="#zoomMin"/><use id="reset" x="30" y="36" onmousedown="handleReset()" xlink:href="#resetDef"/><g id="arrowUp" onmousedown="handlePan(0,-1)" transform="translate(30 24)" xlink:href="#dirArrow"><use fill="#404040" xlink:href="#rim"><set attributeName="fill" begin="arrowUp.mouseover" end="arrowUp.mouseout" to="#808080"/></use><path fill="none" stroke="#fff" stroke-width="1.5" d="M0,-3.0v7 M-2.5,-0.5L0,-3.0L2.5,-0.5"/></g><g id="arrowRight" onmousedown="handlePan(1,0)" transform="rotate(90) translate(36 -43)" xlink:href="#dirArrow"><use fill="#404040" xlink:href="#rim"><set attributeName="fill" begin="arrowRight.mouseover" end="arrowRight.mouseout" to="#808080"/></use><path fill="none" stroke="#fff" stroke-width="1.5" d="M0,-3.0v7 M-2.5,-0.5L0,-3.0L2.5,-0.5"/></g><g id="arrowDown" onmousedown="handlePan(0,1)" transform="rotate(180) translate(-30 -48)" xlink:href="#dirArrow"><use fill="#404040" xlink:href="#rim"><set attributeName="fill" begin="arrowDown.mouseover" end="arrowDown.mouseout" to="#808080"/></use><path fill="none" stroke="#fff" stroke-width="1.5" d="M0,-3.0v7 M-2.5,-0.5L0,-3.0L2.5,-0.5"/></g><g id="arrowLeft" onmousedown="handlePan(-1,0)" transform="rotate(270) translate(-36 17)" xlink:href="#dirArrow"><use fill="#404040" xlink:href="#rim"><set attributeName="fill" begin="arrowLeft.mouseover" end="arrowLeft.mouseout" to="#808080"/></use><path fill="none" stroke="#fff" stroke-width="1.5" d="M0,-3.0v7 M-2.5,-0.5L0,-3.0L2.5,-0.5"/></g></g><svg width="100%" height="30" preserveAspectRatio="xMaxYMin meet" viewBox="0 0 15 15"><g id="arrow_out" transform="scale(0.3 0.3)"><a target="_base" xlink:href="classAPT_1_1CacheFilter_1_1PackageMatcher__inherit__graph_org.svg"><rect id="button" width="38" height="38" x="6" y="6" fill="#f2f5e9" fill-opacity=".5" stroke="#606060" stroke-width="1" rx="5" ry="5"/><path id="arrow" d="M 11.500037,31.436501 C 11.940474,20.09759 22.043105,11.32322 32.158766,21.979434 L 37.068811,17.246167 C 37.068811,17.246167 37.088388,32 37.088388,32 L 22.160133,31.978069 C 22.160133,31.978069 26.997745,27.140456 26.997745,27.140456 C 18.528582,18.264221 13.291696,25.230495 11.500037,31.436501 z" style="fill:#404040"/></a></g></svg></svg>