<?xml version="1.0" encoding="UTF-8" standalone="no"?>
<!DOCTYPE svg PUBLIC "-//W3C//DTD SVG 1.1//EN"
 "http://www.w3.org/Graphics/SVG/1.1/DTD/svg11.dtd">
<!-- Generated by graphviz version 2.43.0 (0)
 -->
<!-- Title: debIFTypeDebPkgFile Pages: 1 -->
<svg width="158pt" height="85pt"
 viewBox="0.00 0.00 157.50 85.00" xmlns="http://www.w3.org/2000/svg" xmlns:xlink="http://www.w3.org/1999/xlink">
<g id="graph0" class="graph" transform="scale(1 1) rotate(0) translate(4 81)">
<title>debIFTypeDebPkgFile</title>
<polygon fill="white" stroke="transparent" points="-4,4 -4,-81 153.5,-81 153.5,4 -4,4"/>
<!-- Node1 -->
<g id="node1" class="node">
<title>Node1</title>
<g id="a_node1"><a xlink:title=" ">
<polygon fill="#bfbfbf" stroke="black" points="0,-0.5 0,-19.5 120,-19.5 120,-0.5 0,-0.5"/>
<text text-anchor="middle" x="60" y="-7.5" font-family="Helvetica,sans-Serif" font-size="10.00">debIFTypeDebPkgFile</text>
</a>
</g>
</g>
<!-- Node2 -->
<g id="node2" class="node">
<title>Node2</title>
<g id="a_node2"><a xlink:href="classpkgIndexFile_1_1Type.xhtml" target="_top" xlink:title=" ">
<polygon fill="white" stroke="black" points="40.5,-57.5 40.5,-76.5 79.5,-76.5 79.5,-57.5 40.5,-57.5"/>
<text text-anchor="middle" x="60" y="-64.5" font-family="Helvetica,sans-Serif" font-size="10.00">Type</text>
</a>
</g>
</g>
<!-- Node2&#45;&gt;Node1 -->
<g id="edge1" class="edge">
<title>Node2&#45;&gt;Node1</title>
<path fill="none" stroke="midnightblue" d="M60,-47.12C60,-37.82 60,-27.06 60,-19.71"/>
<polygon fill="midnightblue" stroke="midnightblue" points="56.5,-47.41 60,-57.41 63.5,-47.41 56.5,-47.41"/>
</g>
<!-- Node2&#45;&gt;Node2 -->
<g id="edge2" class="edge">
<title>Node2&#45;&gt;Node2</title>
<path fill="none" stroke="#9a32cd" stroke-dasharray="5,2" d="M89.83,-71.79C94.4,-71.06 97.5,-69.47 97.5,-67 97.5,-62.95 89.14,-61.25 79.68,-61.88"/>
<polygon fill="#9a32cd" stroke="#9a32cd" points="89.56,-68.3 79.68,-72.12 89.79,-75.3 89.56,-68.3"/>
<text text-anchor="middle" x="123.5" y="-64.5" font-family="Helvetica,sans-Serif" font-size="10.00"> GlobalList</text>
</g>
</g>
</svg>
