<svg xmlns="http://www.w3.org/2000/svg" xmlns:xlink="http://www.w3.org/1999/xlink" width="235pt" height="241pt" viewBox="0 0 235 241"><g id="graph0" class="graph" transform="scale(1 1) rotate(0) translate(4 237)"><title>ExtractTar</title><polygon fill="#fff" stroke="transparent" points="-4 4 -4 -237 231 -237 231 4 -4 4"/><g id="node1" class="node"><title>Node1</title><g id="a_node1"><a><polygon fill="#bfbfbf" stroke="#000" points="27.5 -.5 27.5 -19.5 92.5 -19.5 92.5 -.5 27.5 -.5"/><text x="60" y="-7.5" font-family="Helvetica,sans-Serif" font-size="10" text-anchor="middle">ExtractTar</text></a></g></g><g id="node2" class="node"><title>Node2</title><g id="a_node2"><a target="_top" xlink:href="classFileFd.xhtml"><polygon fill="#fff" stroke="#000" points="148 -78.5 148 -97.5 194 -97.5 194 -78.5 148 -78.5"/><text x="171" y="-85.5" font-family="Helvetica,sans-Serif" font-size="10" text-anchor="middle">FileFd</text></a></g></g><g id="edge1" class="edge"><title>Node2-&gt;Node1</title><path fill="none" stroke="#9a32cd" stroke-dasharray="5 2" d="M149.92,-72.57C127.08,-56.93 91.4,-32.5 72.58,-19.62"/><polygon fill="#9a32cd" stroke="#9a32cd" points="148.04 -75.52 158.27 -78.28 151.99 -69.74 148.04 -75.52"/><text x="139" y="-52" font-family="Helvetica,sans-Serif" font-size="10" text-anchor="middle">File</text><text x="139" y="-41" font-family="Helvetica,sans-Serif" font-size="10" text-anchor="middle">InFd</text></g><g id="node3" class="node"><title>Node3</title><g id="a_node3"><a><polygon fill="#fff" stroke="#bfbfbf" points="38 -156.5 38 -175.5 82 -175.5 82 -156.5 38 -156.5"/><text x="60" y="-163.5" font-family="Helvetica,sans-Serif" font-size="10" text-anchor="middle">string</text></a></g></g><g id="edge4" class="edge"><title>Node3-&gt;Node1</title><path fill="none" stroke="#9a32cd" stroke-dasharray="5 2" d="M57.06,-146.3C54.63,-128.7 51.77,-101.59 53,-78 54.1,-56.98 57.11,-32.39 58.81,-19.65"/><polygon fill="#9a32cd" stroke="#9a32cd" points="53.62 -146.98 58.55 -156.37 60.55 -145.96 53.62 -146.98"/><text x="96" y="-85.5" font-family="Helvetica,sans-Serif" font-size="10" text-anchor="middle">DecompressProg</text></g><g id="edge2" class="edge"><title>Node3-&gt;Node2</title><path fill="none" stroke="#9a32cd" stroke-dasharray="5 2" d="M81.08,-150.57C103.92,-134.93 139.6,-110.5 158.42,-97.62"/><polygon fill="#9a32cd" stroke="#9a32cd" points="79.01 -147.74 72.73 -156.28 82.96 -153.52 79.01 -147.74"/><text x="177.5" y="-130" font-family="Helvetica,sans-Serif" font-size="10" text-anchor="middle">FileName</text><text x="177.5" y="-119" font-family="Helvetica,sans-Serif" font-size="10" text-anchor="middle">TemporaryFileName</text></g><g id="node4" class="node"><title>Node4</title><g id="a_node4"><a><polygon fill="#fff" stroke="#bfbfbf" points="0 -213.5 0 -232.5 120 -232.5 120 -213.5 0 -213.5"/><text x="60" y="-220.5" font-family="Helvetica,sans-Serif" font-size="10" text-anchor="middle">basic_string&lt; Char &gt;</text></a></g></g><g id="edge3" class="edge"><title>Node4-&gt;Node3</title><path fill="none" stroke="#191970" d="M60,-203.12C60,-193.82 60,-183.06 60,-175.71"/><polygon fill="#191970" stroke="#191970" points="56.5 -203.41 60 -213.41 63.5 -203.41 56.5 -203.41"/></g></g></svg>