<svg xmlns="http://www.w3.org/2000/svg" xmlns:xlink="http://www.w3.org/1999/xlink" width="139pt" height="196pt" viewBox="0 0 139 196"><g id="graph0" class="graph" transform="scale(1 1) rotate(0) translate(4 192)"><title>pkgAcqIndexDiffs</title><polygon fill="#fff" stroke="transparent" points="-4 4 -4 -192 135 -192 135 4 -4 4"/><g id="node1" class="node"><title>Node1</title><g id="a_node1"><a xlink:title="An item that is responsible for fetching server-merge patches {{{ that need to be applied to a given ..."><polygon fill="#bfbfbf" stroke="#000" points="14.5 -.5 14.5 -19.5 116.5 -19.5 116.5 -.5 14.5 -.5"/><text x="65.5" y="-7.5" font-family="Helvetica,sans-Serif" font-size="10" text-anchor="middle">pkgAcqIndexDiffs</text></a></g></g><g id="node2" class="node"><title>Node2</title><g id="a_node2"><a target="_top" xlink:href="classpkgAcqBaseIndex.xhtml" xlink:title="Common base class for all classes that deal with fetching indexes {{{."><polygon fill="#fff" stroke="#000" points="13.5 -56.5 13.5 -75.5 117.5 -75.5 117.5 -56.5 13.5 -56.5"/><text x="65.5" y="-63.5" font-family="Helvetica,sans-Serif" font-size="10" text-anchor="middle">pkgAcqBaseIndex</text></a></g></g><g id="edge1" class="edge"><title>Node2-&gt;Node1</title><path fill="none" stroke="#191970" d="M65.5,-45.8C65.5,-36.91 65.5,-26.78 65.5,-19.75"/><polygon fill="#191970" stroke="#191970" points="62 -46.08 65.5 -56.08 69 -46.08 62 -46.08"/></g><g id="node3" class="node"><title>Node3</title><g id="a_node3"><a target="_top" xlink:href="classpkgAcqTransactionItem.xhtml" xlink:title="baseclass for the indexes files to manage them all together"><polygon fill="#fff" stroke="#000" points="0 -112.5 0 -131.5 131 -131.5 131 -112.5 0 -112.5"/><text x="65.5" y="-119.5" font-family="Helvetica,sans-Serif" font-size="10" text-anchor="middle">pkgAcqTransactionItem</text></a></g></g><g id="edge2" class="edge"><title>Node3-&gt;Node2</title><path fill="none" stroke="#191970" d="M65.5,-101.8C65.5,-92.91 65.5,-82.78 65.5,-75.75"/><polygon fill="#191970" stroke="#191970" points="62 -102.08 65.5 -112.08 69 -102.08 62 -102.08"/></g><g id="node4" class="node"><title>Node4</title><g id="a_node4"><a><polygon fill="#fff" stroke="#bfbfbf" points="46 -168.5 46 -187.5 85 -187.5 85 -168.5 46 -168.5"/><text x="65.5" y="-175.5" font-family="Helvetica,sans-Serif" font-size="10" text-anchor="middle">Item</text></a></g></g><g id="edge3" class="edge"><title>Node4-&gt;Node3</title><path fill="none" stroke="#191970" d="M65.5,-157.8C65.5,-148.91 65.5,-138.78 65.5,-131.75"/><polygon fill="#191970" stroke="#191970" points="62 -158.08 65.5 -168.08 69 -158.08 62 -158.08"/></g></g></svg>