<svg xmlns="http://www.w3.org/2000/svg" xmlns:xlink="http://www.w3.org/1999/xlink" width="200pt" height="95pt" viewBox="0 0 200 95"><g id="graph0" class="graph" transform="scale(1 1) rotate(0) translate(4 91)"><title>pkgSystem</title><polygon fill="#fff" stroke="transparent" points="-4 4 -4 -91 196 -91 196 4 -4 4"/><g id="node1" class="node"><title>Node1</title><g id="a_node1"><a><polygon fill="#bfbfbf" stroke="#000" points="25.5 -.5 25.5 -19.5 96.5 -19.5 96.5 -.5 25.5 -.5"/><text x="61" y="-7.5" font-family="Helvetica,sans-Serif" font-size="10" text-anchor="middle">pkgSystem</text></a></g></g><g id="edge1" class="edge"><title>Node1-&gt;Node1</title><path fill="none" stroke="#9a32cd" stroke-dasharray="5 2" d="M106.78,-14.95C111.49,-13.97 114.5,-12.32 114.5,-10 114.5,-6.28 106.79,-4.29 96.75,-4.03"/><polygon fill="#9a32cd" stroke="#9a32cd" points="106.35 -11.47 96.75 -15.97 107.06 -18.44 106.35 -11.47"/><text x="140.5" y="-7.5" font-family="Helvetica,sans-Serif" font-size="10" text-anchor="middle">GlobalList</text></g><g id="node2" class="node"><title>Node2</title><g id="a_node2"><a target="_top" xlink:href="classpkgVersioningSystem.xhtml"><polygon fill="#fff" stroke="#000" points="0 -67.5 0 -86.5 122 -86.5 122 -67.5 0 -67.5"/><text x="61" y="-74.5" font-family="Helvetica,sans-Serif" font-size="10" text-anchor="middle">pkgVersioningSystem</text></a></g></g><g id="edge2" class="edge"><title>Node2-&gt;Node1</title><path fill="none" stroke="#9a32cd" stroke-dasharray="5 2" d="M61,-57.04C61,-44.67 61,-29.12 61,-19.63"/><polygon fill="#9a32cd" stroke="#9a32cd" points="57.5 -57.23 61 -67.23 64.5 -57.23 57.5 -57.23"/><text x="69" y="-41" font-family="Helvetica,sans-Serif" font-size="10" text-anchor="middle">VS</text></g><g id="edge3" class="edge"><title>Node2-&gt;Node2</title><path fill="none" stroke="#9a32cd" stroke-dasharray="5 2" d="M132.49,-81.28C137.17,-80.28 140,-78.86 140,-77 140,-74.03 132.75,-72.16 122.28,-71.4"/><polygon fill="#9a32cd" stroke="#9a32cd" points="131.74 -77.84 122.28 -82.6 132.65 -84.78 131.74 -77.84"/><text x="166" y="-74.5" font-family="Helvetica,sans-Serif" font-size="10" text-anchor="middle">GlobalList</text></g></g></svg>