<?xml version="1.0" encoding="UTF-8" standalone="no"?>
<!DOCTYPE svg PUBLIC "-//W3C//DTD SVG 1.1//EN"
 "http://www.w3.org/Graphics/SVG/1.1/DTD/svg11.dtd">
<!-- Generated by graphviz version 2.43.0 (0)
 -->
<!-- Title: IndexTarget Pages: 1 -->
<svg width="249pt" height="254pt"
 viewBox="0.00 0.00 248.50 254.00" xmlns="http://www.w3.org/2000/svg" xmlns:xlink="http://www.w3.org/1999/xlink">
<g id="graph0" class="graph" transform="scale(1 1) rotate(0) translate(4 250)">
<title>IndexTarget</title>
<polygon fill="white" stroke="transparent" points="-4,4 -4,-250 244.5,-250 244.5,4 -4,4"/>
<!-- Node1 -->
<g id="node1" class="node">
<title>Node1</title>
<g id="a_node1"><a xlink:title="Information about an index file.">
<polygon fill="#bfbfbf" stroke="black" points="23,-0.5 23,-19.5 97,-19.5 97,-0.5 23,-0.5"/>
<text text-anchor="middle" x="60" y="-7.5" font-family="Helvetica,sans-Serif" font-size="10.00">IndexTarget</text>
</a>
</g>
</g>
<!-- Node2 -->
<g id="node2" class="node">
<title>Node2</title>
<g id="a_node2"><a xlink:title=" ">
<polygon fill="white" stroke="#bfbfbf" points="121.5,-74 121.5,-104 240.5,-104 240.5,-74 121.5,-74"/>
<text text-anchor="start" x="129.5" y="-92" font-family="Helvetica,sans-Serif" font-size="10.00">map&lt; std::string, std</text>
<text text-anchor="middle" x="181" y="-81" font-family="Helvetica,sans-Serif" font-size="10.00">::string &gt;</text>
</a>
</g>
</g>
<!-- Node2&#45;&gt;Node1 -->
<g id="edge1" class="edge">
<title>Node2&#45;&gt;Node1</title>
<path fill="none" stroke="#9a32cd" stroke-dasharray="5,2" d="M150.13,-68.35C125.37,-52.6 91.82,-31.25 73.43,-19.55"/>
<polygon fill="#9a32cd" stroke="#9a32cd" points="148.49,-71.46 158.81,-73.88 152.25,-65.56 148.49,-71.46"/>
<text text-anchor="middle" x="136.5" y="-41" font-family="Helvetica,sans-Serif" font-size="10.00"> Options</text>
</g>
<!-- Node3 -->
<g id="node3" class="node">
<title>Node3</title>
<g id="a_node3"><a xlink:title=" ">
<polygon fill="white" stroke="#bfbfbf" points="38,-169.5 38,-188.5 82,-188.5 82,-169.5 38,-169.5"/>
<text text-anchor="middle" x="60" y="-176.5" font-family="Helvetica,sans-Serif" font-size="10.00">string</text>
</a>
</g>
</g>
<!-- Node3&#45;&gt;Node1 -->
<g id="edge4" class="edge">
<title>Node3&#45;&gt;Node1</title>
<path fill="none" stroke="#9a32cd" stroke-dasharray="5,2" d="M57.85,-159.03C56.44,-145.63 54.73,-127.24 54,-111 53.13,-91.46 52.96,-86.53 54,-67 54.9,-50.21 57.3,-30.7 58.78,-19.71"/>
<polygon fill="#9a32cd" stroke="#9a32cd" points="54.41,-159.78 58.98,-169.34 61.37,-159.02 54.41,-159.78"/>
<text text-anchor="middle" x="83.5" y="-103" font-family="Helvetica,sans-Serif" font-size="10.00"> Description</text>
<text text-anchor="middle" x="83.5" y="-92" font-family="Helvetica,sans-Serif" font-size="10.00">MetaKey</text>
<text text-anchor="middle" x="83.5" y="-81" font-family="Helvetica,sans-Serif" font-size="10.00">ShortDesc</text>
<text text-anchor="middle" x="83.5" y="-70" font-family="Helvetica,sans-Serif" font-size="10.00">URI</text>
</g>
<!-- Node3&#45;&gt;Node2 -->
<g id="edge2" class="edge">
<title>Node3&#45;&gt;Node2</title>
<path fill="none" stroke="#9a32cd" stroke-dasharray="5,2" d="M80.25,-163.27C102.85,-146.83 139.16,-120.43 161.46,-104.21"/>
<polygon fill="#9a32cd" stroke="#9a32cd" points="78.07,-160.53 72.04,-169.24 82.19,-166.19 78.07,-160.53"/>
<text text-anchor="middle" x="148.5" y="-143" font-family="Helvetica,sans-Serif" font-size="10.00"> elements</text>
<text text-anchor="middle" x="148.5" y="-132" font-family="Helvetica,sans-Serif" font-size="10.00">keys</text>
</g>
<!-- Node4 -->
<g id="node4" class="node">
<title>Node4</title>
<g id="a_node4"><a xlink:title=" ">
<polygon fill="white" stroke="#bfbfbf" points="0,-226.5 0,-245.5 120,-245.5 120,-226.5 0,-226.5"/>
<text text-anchor="middle" x="60" y="-233.5" font-family="Helvetica,sans-Serif" font-size="10.00">basic_string&lt; Char &gt;</text>
</a>
</g>
</g>
<!-- Node4&#45;&gt;Node3 -->
<g id="edge3" class="edge">
<title>Node4&#45;&gt;Node3</title>
<path fill="none" stroke="midnightblue" d="M60,-216.12C60,-206.82 60,-196.06 60,-188.71"/>
<polygon fill="midnightblue" stroke="midnightblue" points="56.5,-216.41 60,-226.41 63.5,-216.41 56.5,-216.41"/>
</g>
</g>
</svg>
