<svg xmlns="http://www.w3.org/2000/svg" xmlns:xlink="http://www.w3.org/1999/xlink" width="148pt" height="85pt" viewBox="0 0 148 85"><g id="graph0" class="graph" transform="scale(1 1) rotate(0) translate(4 81)"><title>debIFTypeDscFile</title><polygon fill="#fff" stroke="transparent" points="-4 4 -4 -81 144 -81 144 4 -4 4"/><g id="node1" class="node"><title>Node1</title><g id="a_node1"><a><polygon fill="#bfbfbf" stroke="#000" points="0 -.5 0 -19.5 101 -19.5 101 -.5 0 -.5"/><text x="50.5" y="-7.5" font-family="Helvetica,sans-Serif" font-size="10" text-anchor="middle">debIFTypeDscFile</text></a></g></g><g id="node2" class="node"><title>Node2</title><g id="a_node2"><a target="_top" xlink:href="classpkgIndexFile_1_1Type.xhtml"><polygon fill="#fff" stroke="#000" points="31 -57.5 31 -76.5 70 -76.5 70 -57.5 31 -57.5"/><text x="50.5" y="-64.5" font-family="Helvetica,sans-Serif" font-size="10" text-anchor="middle">Type</text></a></g></g><g id="edge1" class="edge"><title>Node2-&gt;Node1</title><path fill="none" stroke="#191970" d="M50.5,-47.12C50.5,-37.82 50.5,-27.06 50.5,-19.71"/><polygon fill="#191970" stroke="#191970" points="47 -47.41 50.5 -57.41 54 -47.41 47 -47.41"/></g><g id="edge2" class="edge"><title>Node2-&gt;Node2</title><path fill="none" stroke="#9a32cd" stroke-dasharray="5 2" d="M80.33,-71.79C84.9,-71.06 88,-69.47 88,-67 88,-62.95 79.64,-61.25 70.18,-61.88"/><polygon fill="#9a32cd" stroke="#9a32cd" points="80.06 -68.3 70.18 -72.12 80.29 -75.3 80.06 -68.3"/><text x="114" y="-64.5" font-family="Helvetica,sans-Serif" font-size="10" text-anchor="middle">GlobalList</text></g></g></svg>