<svg xmlns="http://www.w3.org/2000/svg" xmlns:xlink="http://www.w3.org/1999/xlink" width="228" height="85pt" viewBox="0 0 171 85"><g id="graph0" class="graph" transform="scale(1 1) rotate(0) translate(4 81)"><title>debIFTypeDebianSourceDir</title><polygon fill="#fff" stroke="transparent" points="-4 4 -4 -81 167 -81 167 4 -4 4"/><g id="node1" class="node"><title>Node1</title><g id="a_node1"><a><polygon fill="#bfbfbf" stroke="#000" points="0 -.5 0 -19.5 147 -19.5 147 -.5 0 -.5"/><text x="73.5" y="-7.5" font-family="Helvetica,sans-Serif" font-size="10" text-anchor="middle">debIFTypeDebianSourceDir</text></a></g></g><g id="node2" class="node"><title>Node2</title><g id="a_node2"><a target="_top" xlink:href="classpkgIndexFile_1_1Type.xhtml"><polygon fill="#fff" stroke="#000" points="54 -57.5 54 -76.5 93 -76.5 93 -57.5 54 -57.5"/><text x="73.5" y="-64.5" font-family="Helvetica,sans-Serif" font-size="10" text-anchor="middle">Type</text></a></g></g><g id="edge1" class="edge"><title>Node2-&gt;Node1</title><path fill="none" stroke="#191970" d="M73.5,-47.12C73.5,-37.82 73.5,-27.06 73.5,-19.71"/><polygon fill="#191970" stroke="#191970" points="70 -47.41 73.5 -57.41 77 -47.41 70 -47.41"/></g><g id="edge2" class="edge"><title>Node2-&gt;Node2</title><path fill="none" stroke="#9a32cd" stroke-dasharray="5 2" d="M103.33,-71.79C107.9,-71.06 111,-69.47 111,-67 111,-62.95 102.64,-61.25 93.18,-61.88"/><polygon fill="#9a32cd" stroke="#9a32cd" points="103.06 -68.3 93.18 -72.12 103.29 -75.3 103.06 -68.3"/><text x="137" y="-64.5" font-family="Helvetica,sans-Serif" font-size="10" text-anchor="middle">GlobalList</text></g></g></svg>