<?xml version="1.0" encoding="UTF-8" standalone="no"?>
<!DOCTYPE svg PUBLIC "-//W3C//DTD SVG 1.1//EN"
 "http://www.w3.org/Graphics/SVG/1.1/DTD/svg11.dtd">
<!-- Generated by graphviz version 2.43.0 (0)
 -->
<!-- Title: pkgAcqArchive Pages: 1 -->
<svg width="474pt" height="586pt"
 viewBox="0.00 0.00 474.00 586.00" xmlns="http://www.w3.org/2000/svg" xmlns:xlink="http://www.w3.org/1999/xlink">
<g id="graph0" class="graph" transform="scale(1 1) rotate(0) translate(4 582)">
<title>pkgAcqArchive</title>
<polygon fill="white" stroke="transparent" points="-4,4 -4,-582 470,-582 470,4 -4,4"/>
<!-- Node1 -->
<g id="node1" class="node">
<title>Node1</title>
<g id="a_node1"><a xlink:title="An item that is responsible for fetching a package file. {{{.">
<polygon fill="#bfbfbf" stroke="black" points="52,-0.5 52,-19.5 141,-19.5 141,-0.5 52,-0.5"/>
<text text-anchor="middle" x="96.5" y="-7.5" font-family="Helvetica,sans-Serif" font-size="10.00">pkgAcqArchive</text>
</a>
</g>
</g>
<!-- Node2 -->
<g id="node2" class="node">
<title>Node2</title>
<g id="a_node2"><a xlink:title=" ">
<polygon fill="white" stroke="#bfbfbf" points="0,-67.5 0,-86.5 39,-86.5 39,-67.5 0,-67.5"/>
<text text-anchor="middle" x="19.5" y="-74.5" font-family="Helvetica,sans-Serif" font-size="10.00">Item</text>
</a>
</g>
</g>
<!-- Node2&#45;&gt;Node1 -->
<g id="edge1" class="edge">
<title>Node2&#45;&gt;Node1</title>
<path fill="none" stroke="midnightblue" d="M32.85,-59.09C38.77,-52.13 46.08,-44.26 53.5,-38 61.85,-30.95 72.2,-24.4 80.66,-19.51"/>
<polygon fill="midnightblue" stroke="midnightblue" points="29.82,-57.26 26.18,-67.21 35.23,-61.7 29.82,-57.26"/>
</g>
<!-- Node3 -->
<g id="node3" class="node">
<title>Node3</title>
<g id="a_node3"><a xlink:title=" ">
<polygon fill="white" stroke="#bfbfbf" points="168.5,-501.5 168.5,-520.5 212.5,-520.5 212.5,-501.5 168.5,-501.5"/>
<text text-anchor="middle" x="190.5" y="-508.5" font-family="Helvetica,sans-Serif" font-size="10.00">string</text>
</a>
</g>
</g>
<!-- Node3&#45;&gt;Node1 -->
<g id="edge2" class="edge">
<title>Node3&#45;&gt;Node1</title>
<path fill="none" stroke="#9a32cd" stroke-dasharray="5,2" d="M158.02,-506.8C121.58,-501.2 67.5,-486 67.5,-445 67.5,-445 67.5,-445 67.5,-76 67.5,-54.25 81.21,-31.68 89.77,-19.7"/>
<polygon fill="#9a32cd" stroke="#9a32cd" points="157.84,-510.31 168.23,-508.19 158.79,-503.37 157.84,-510.31"/>
<text text-anchor="middle" x="104.5" y="-208.5" font-family="Helvetica,sans-Serif" font-size="10.00"> StoreFilename</text>
</g>
<!-- Node7 -->
<g id="node7" class="node">
<title>Node7</title>
<g id="a_node7"><a xlink:href="classmetaIndex.xhtml" target="_top" xlink:title=" ">
<polygon fill="white" stroke="black" points="164,-201.5 164,-220.5 233,-220.5 233,-201.5 164,-201.5"/>
<text text-anchor="middle" x="198.5" y="-208.5" font-family="Helvetica,sans-Serif" font-size="10.00">metaIndex</text>
</a>
</g>
</g>
<!-- Node3&#45;&gt;Node7 -->
<g id="edge9" class="edge">
<title>Node3&#45;&gt;Node7</title>
<path fill="none" stroke="#9a32cd" stroke-dasharray="5,2" d="M177.88,-493.23C169.79,-482.25 159.2,-467.49 150.5,-454 105.28,-383.84 87.33,-342.74 124.5,-268 135.69,-245.5 160.72,-229.62 178.57,-220.66"/>
<polygon fill="#9a32cd" stroke="#9a32cd" points="175.22,-495.52 184,-501.45 180.84,-491.34 175.22,-495.52"/>
<text text-anchor="middle" x="161.5" y="-408" font-family="Helvetica,sans-Serif" font-size="10.00"> Codename</text>
<text text-anchor="middle" x="161.5" y="-397" font-family="Helvetica,sans-Serif" font-size="10.00">Dist</text>
<text text-anchor="middle" x="161.5" y="-386" font-family="Helvetica,sans-Serif" font-size="10.00">Label</text>
<text text-anchor="middle" x="161.5" y="-375" font-family="Helvetica,sans-Serif" font-size="10.00">Origin</text>
<text text-anchor="middle" x="161.5" y="-364" font-family="Helvetica,sans-Serif" font-size="10.00">ReleaseNotes</text>
<text text-anchor="middle" x="161.5" y="-353" font-family="Helvetica,sans-Serif" font-size="10.00">SignedBy</text>
<text text-anchor="middle" x="161.5" y="-342" font-family="Helvetica,sans-Serif" font-size="10.00">Suite</text>
<text text-anchor="middle" x="161.5" y="-331" font-family="Helvetica,sans-Serif" font-size="10.00">URI</text>
<text text-anchor="middle" x="161.5" y="-320" font-family="Helvetica,sans-Serif" font-size="10.00">Version</text>
</g>
<!-- Node10 -->
<g id="node10" class="node">
<title>Node10</title>
<g id="a_node10"><a xlink:title=" ">
<polygon fill="white" stroke="#bfbfbf" points="292,-268.5 292,-298.5 449,-298.5 449,-268.5 292,-268.5"/>
<text text-anchor="start" x="300" y="-286.5" font-family="Helvetica,sans-Serif" font-size="10.00">map&lt; std::string, metaIndex</text>
<text text-anchor="middle" x="370.5" y="-275.5" font-family="Helvetica,sans-Serif" font-size="10.00">::checkSum * &gt;</text>
</a>
</g>
</g>
<!-- Node3&#45;&gt;Node10 -->
<g id="edge11" class="edge">
<title>Node3&#45;&gt;Node10</title>
<path fill="none" stroke="#9a32cd" stroke-dasharray="5,2" d="M207.67,-494.55C219.39,-483.67 235,-468.52 247.5,-454 294.24,-399.73 341.88,-328.61 361.36,-298.71"/>
<polygon fill="#9a32cd" stroke="#9a32cd" points="205.27,-492 200.27,-501.34 210,-497.16 205.27,-492"/>
<text text-anchor="middle" x="277.5" y="-441.5" font-family="Helvetica,sans-Serif" font-size="10.00"> keys</text>
</g>
<!-- Node11 -->
<g id="node11" class="node">
<title>Node11</title>
<g id="a_node11"><a xlink:href="structmetaIndex_1_1checkSum.xhtml" target="_top" xlink:title=" ">
<polygon fill="white" stroke="black" points="337,-434.5 337,-453.5 404,-453.5 404,-434.5 337,-434.5"/>
<text text-anchor="middle" x="370.5" y="-441.5" font-family="Helvetica,sans-Serif" font-size="10.00">checkSum</text>
</a>
</g>
</g>
<!-- Node3&#45;&gt;Node11 -->
<g id="edge14" class="edge">
<title>Node3&#45;&gt;Node11</title>
<path fill="none" stroke="#9a32cd" stroke-dasharray="5,2" d="M222.7,-503.08C241.67,-498.48 265.91,-491.69 286.5,-483 295.49,-479.2 296.75,-476.33 305.5,-472 319.3,-465.18 335.26,-458.53 347.92,-453.54"/>
<polygon fill="#9a32cd" stroke="#9a32cd" points="221.7,-499.72 212.76,-505.41 223.3,-506.54 221.7,-499.72"/>
<text text-anchor="middle" x="351" y="-475" font-family="Helvetica,sans-Serif" font-size="10.00"> MetaKeyFilename</text>
</g>
<!-- Node4 -->
<g id="node4" class="node">
<title>Node4</title>
<g id="a_node4"><a xlink:title=" ">
<polygon fill="white" stroke="#bfbfbf" points="130.5,-558.5 130.5,-577.5 250.5,-577.5 250.5,-558.5 130.5,-558.5"/>
<text text-anchor="middle" x="190.5" y="-565.5" font-family="Helvetica,sans-Serif" font-size="10.00">basic_string&lt; Char &gt;</text>
</a>
</g>
</g>
<!-- Node4&#45;&gt;Node3 -->
<g id="edge3" class="edge">
<title>Node4&#45;&gt;Node3</title>
<path fill="none" stroke="midnightblue" d="M190.5,-548.12C190.5,-538.82 190.5,-528.06 190.5,-520.71"/>
<polygon fill="midnightblue" stroke="midnightblue" points="187,-548.41 190.5,-558.41 194,-548.41 187,-548.41"/>
</g>
<!-- Node5 -->
<g id="node5" class="node">
<title>Node5</title>
<g id="a_node5"><a xlink:href="classpkgSourceList.xhtml" target="_top" xlink:title=" ">
<polygon fill="white" stroke="black" points="102,-67.5 102,-86.5 187,-86.5 187,-67.5 102,-67.5"/>
<text text-anchor="middle" x="144.5" y="-74.5" font-family="Helvetica,sans-Serif" font-size="10.00">pkgSourceList</text>
</a>
</g>
</g>
<!-- Node5&#45;&gt;Node1 -->
<g id="edge4" class="edge">
<title>Node5&#45;&gt;Node1</title>
<path fill="none" stroke="#9a32cd" stroke-dasharray="5,2" d="M131.88,-58.9C122.55,-46.27 110.24,-29.6 102.87,-19.63"/>
<polygon fill="#9a32cd" stroke="#9a32cd" points="129.27,-61.27 138.03,-67.23 134.9,-57.11 129.27,-61.27"/>
<text text-anchor="middle" x="144.5" y="-41" font-family="Helvetica,sans-Serif" font-size="10.00"> Sources</text>
</g>
<!-- Node6 -->
<g id="node6" class="node">
<title>Node6</title>
<g id="a_node6"><a xlink:title=" ">
<polygon fill="white" stroke="#bfbfbf" points="96,-134.5 96,-153.5 227,-153.5 227,-134.5 96,-134.5"/>
<text text-anchor="middle" x="161.5" y="-141.5" font-family="Helvetica,sans-Serif" font-size="10.00">vector&lt; metaIndex * &gt;</text>
</a>
</g>
</g>
<!-- Node6&#45;&gt;Node5 -->
<g id="edge5" class="edge">
<title>Node6&#45;&gt;Node5</title>
<path fill="none" stroke="#9a32cd" stroke-dasharray="5,2" d="M156.64,-124.41C153.39,-111.99 149.26,-96.22 146.76,-86.63"/>
<polygon fill="#9a32cd" stroke="#9a32cd" points="153.29,-125.44 159.21,-134.23 160.06,-123.67 153.29,-125.44"/>
<text text-anchor="middle" x="172.5" y="-108" font-family="Helvetica,sans-Serif" font-size="10.00"> SrcList</text>
</g>
<!-- Node7&#45;&gt;Node6 -->
<g id="edge6" class="edge">
<title>Node7&#45;&gt;Node6</title>
<path fill="none" stroke="#9a32cd" stroke-dasharray="5,2" d="M188.56,-192.53C181.39,-179.95 172.03,-163.51 166.41,-153.63"/>
<polygon fill="#9a32cd" stroke="#9a32cd" points="185.52,-194.27 193.51,-201.23 191.6,-190.81 185.52,-194.27"/>
<text text-anchor="middle" x="207" y="-175" font-family="Helvetica,sans-Serif" font-size="10.00"> elements</text>
</g>
<!-- Node8 -->
<g id="node8" class="node">
<title>Node8</title>
<g id="a_node8"><a xlink:title=" ">
<polygon fill="white" stroke="#bfbfbf" points="133.5,-274 133.5,-293 273.5,-293 273.5,-274 133.5,-274"/>
<text text-anchor="middle" x="203.5" y="-281" font-family="Helvetica,sans-Serif" font-size="10.00">vector&lt; pkgIndexFile * &gt;</text>
</a>
</g>
</g>
<!-- Node8&#45;&gt;Node7 -->
<g id="edge7" class="edge">
<title>Node8&#45;&gt;Node7</title>
<path fill="none" stroke="#9a32cd" stroke-dasharray="5,2" d="M202.18,-263.86C201.19,-249.9 199.88,-231.43 199.12,-220.72"/>
<polygon fill="#9a32cd" stroke="#9a32cd" points="198.69,-264.13 202.89,-273.86 205.67,-263.63 198.69,-264.13"/>
<text text-anchor="middle" x="222" y="-242" font-family="Helvetica,sans-Serif" font-size="10.00"> Indexes</text>
</g>
<!-- Node9 -->
<g id="node9" class="node">
<title>Node9</title>
<g id="a_node9"><a xlink:href="classpkgIndexFile.xhtml" target="_top" xlink:title=" ">
<polygon fill="white" stroke="black" points="160,-434.5 160,-453.5 239,-453.5 239,-434.5 160,-434.5"/>
<text text-anchor="middle" x="199.5" y="-441.5" font-family="Helvetica,sans-Serif" font-size="10.00">pkgIndexFile</text>
</a>
</g>
</g>
<!-- Node9&#45;&gt;Node8 -->
<g id="edge8" class="edge">
<title>Node9&#45;&gt;Node8</title>
<path fill="none" stroke="#9a32cd" stroke-dasharray="5,2" d="M199.97,-424.4C200.84,-390.03 202.66,-317.84 203.28,-293.06"/>
<polygon fill="#9a32cd" stroke="#9a32cd" points="196.47,-424.39 199.72,-434.48 203.47,-424.57 196.47,-424.39"/>
<text text-anchor="middle" x="228" y="-364" font-family="Helvetica,sans-Serif" font-size="10.00"> elements</text>
</g>
<!-- Node10&#45;&gt;Node7 -->
<g id="edge10" class="edge">
<title>Node10&#45;&gt;Node7</title>
<path fill="none" stroke="#9a32cd" stroke-dasharray="5,2" d="M326.74,-264.56C292.29,-250.44 245.82,-231.4 219.32,-220.53"/>
<polygon fill="#9a32cd" stroke="#9a32cd" points="325.53,-267.85 336.11,-268.4 328.18,-261.37 325.53,-267.85"/>
<text text-anchor="middle" x="308" y="-242" font-family="Helvetica,sans-Serif" font-size="10.00"> Entries</text>
</g>
<!-- Node11&#45;&gt;Node10 -->
<g id="edge12" class="edge">
<title>Node11&#45;&gt;Node10</title>
<path fill="none" stroke="#9a32cd" stroke-dasharray="5,2" d="M370.5,-424.26C370.5,-392.17 370.5,-327.39 370.5,-298.71"/>
<polygon fill="#9a32cd" stroke="#9a32cd" points="367,-424.48 370.5,-434.48 374,-424.48 367,-424.48"/>
<text text-anchor="middle" x="395" y="-364" font-family="Helvetica,sans-Serif" font-size="10.00"> elements</text>
</g>
<!-- Node12 -->
<g id="node12" class="node">
<title>Node12</title>
<g id="a_node12"><a xlink:href="classHashStringList.xhtml" target="_top" xlink:title=" ">
<polygon fill="white" stroke="black" points="379,-501.5 379,-520.5 466,-520.5 466,-501.5 379,-501.5"/>
<text text-anchor="middle" x="422.5" y="-508.5" font-family="Helvetica,sans-Serif" font-size="10.00">HashStringList</text>
</a>
</g>
</g>
<!-- Node12&#45;&gt;Node11 -->
<g id="edge13" class="edge">
<title>Node12&#45;&gt;Node11</title>
<path fill="none" stroke="#9a32cd" stroke-dasharray="5,2" d="M413.81,-492.39C410.13,-485.7 405.53,-478.21 400.5,-472 394.94,-465.14 387.58,-458.49 381.55,-453.51"/>
<polygon fill="#9a32cd" stroke="#9a32cd" points="410.76,-494.11 418.48,-501.36 416.97,-490.88 410.76,-494.11"/>
<text text-anchor="middle" x="427.5" y="-475" font-family="Helvetica,sans-Serif" font-size="10.00"> Hashes</text>
</g>
<!-- Node13 -->
<g id="node13" class="node">
<title>Node13</title>
<g id="a_node13"><a xlink:href="classpkgRecords.xhtml" target="_top" xlink:title=" ">
<polygon fill="white" stroke="black" points="218.5,-67.5 218.5,-86.5 292.5,-86.5 292.5,-67.5 218.5,-67.5"/>
<text text-anchor="middle" x="255.5" y="-74.5" font-family="Helvetica,sans-Serif" font-size="10.00">pkgRecords</text>
</a>
</g>
</g>
<!-- Node13&#45;&gt;Node1 -->
<g id="edge15" class="edge">
<title>Node13&#45;&gt;Node1</title>
<path fill="none" stroke="#9a32cd" stroke-dasharray="5,2" d="M227.63,-63.16C210.89,-55.58 189.1,-45.95 169.5,-38 153.35,-31.45 134.94,-24.65 120.65,-19.51"/>
<polygon fill="#9a32cd" stroke="#9a32cd" points="226.3,-66.4 236.85,-67.36 229.2,-60.03 226.3,-66.4"/>
<text text-anchor="middle" x="207" y="-41" font-family="Helvetica,sans-Serif" font-size="10.00"> Recs</text>
</g>
<!-- Node14 -->
<g id="node14" class="node">
<title>Node14</title>
<g id="a_node14"><a xlink:title=" ">
<polygon fill="white" stroke="#bfbfbf" points="245,-134.5 245,-153.5 292,-153.5 292,-134.5 245,-134.5"/>
<text text-anchor="middle" x="268.5" y="-141.5" font-family="Helvetica,sans-Serif" font-size="10.00">Parser</text>
</a>
</g>
</g>
<!-- Node14&#45;&gt;Node13 -->
<g id="edge16" class="edge">
<title>Node14&#45;&gt;Node13</title>
<path fill="none" stroke="#8b1a1a" d="M264.78,-124.41C262.3,-111.99 259.14,-96.22 257.23,-86.63"/>
<polygon fill="#8b1a1a" stroke="#8b1a1a" points="261.35,-125.11 266.75,-134.23 268.22,-123.74 261.35,-125.11"/>
</g>
</g>
</svg>
