<?xml version="1.0" encoding="UTF-8" standalone="no"?>
<!DOCTYPE svg PUBLIC "-//W3C//DTD SVG 1.1//EN"
 "http://www.w3.org/Graphics/SVG/1.1/DTD/svg11.dtd">
<!-- Generated by graphviz version 2.43.0 (0)
 -->
<!-- Title: pkgAcqTransactionItem Pages: 1 -->
<!--zoomable 681 -->
<svg id="main" version="1.1" xmlns="http://www.w3.org/2000/svg" xmlns:xlink="http://www.w3.org/1999/xlink" xml:space="preserve" onload="init(evt)">
<style type="text/css"><![CDATA[
.edge:hover path { stroke: red; }
.edge:hover polygon { stroke: red; fill: red; }
]]></style>
<script type="text/javascript"><![CDATA[
var edges = document.getElementsByTagName('g');
if (edges && edges.length) {
  for (var i=0;i<edges.length;i++) {
    if (edges[i].id.substr(0,4)=='edge') {
      edges[i].setAttribute('class','edge');
    }
  }
}
]]></script>
        <defs>
                <circle id="rim" cx="0" cy="0" r="7"/>
                <circle id="rim2" cx="0" cy="0" r="3.5"/>
                <g id="zoomPlus">
                        <use xlink:href="#rim" fill="#404040">
                                <set attributeName="fill" to="#808080" begin="zoomplus.mouseover" end="zoomplus.mouseout"/>
                        </use>
                        <path d="M-4,0h8M0,-4v8" fill="none" stroke="white" stroke-width="1.5" pointer-events="none"/>
                </g>
                <g id="zoomMin">
                        <use xlink:href="#rim" fill="#404040">
                                <set attributeName="fill" to="#808080" begin="zoomminus.mouseover" end="zoomminus.mouseout"/>
                        </use>
                        <path d="M-4,0h8" fill="none" stroke="white" stroke-width="1.5" pointer-events="none"/>
                </g>
                <g id="dirArrow">
                        <path fill="none" stroke="white" stroke-width="1.5" d="M0,-3.0v7 M-2.5,-0.5L0,-3.0L2.5,-0.5"/>
                </g>
               <g id="resetDef">
                       <use xlink:href="#rim2" fill="#404040">
                               <set attributeName="fill" to="#808080" begin="reset.mouseover" end="reset.mouseout"/>
                       </use>
               </g>
        </defs>

<script type="text/javascript">
var viewWidth = 845;
var viewHeight = 681;
var sectionId = 'dynsection-1';
</script>
<script xlink:href="svgpan.js"/>
<svg id="graph" class="graph">
<g id="viewport">
<title>pkgAcqTransactionItem</title>
<polygon fill="white" stroke="transparent" points="-4,4 -4,-677 840.5,-677 840.5,4 -4,4"/>
<!-- Node1 -->
<g id="node1" class="node">
<title>Node1</title>
<g id="a_node1"><a xlink:title="baseclass for the indexes files to manage them all together">
<polygon fill="#bfbfbf" stroke="black" points="197.5,-261.5 197.5,-280.5 328.5,-280.5 328.5,-261.5 197.5,-261.5"/>
<text text-anchor="middle" x="263" y="-268.5" font-family="Helvetica,sans-Serif" font-size="10.00">pkgAcqTransactionItem</text>
</a>
</g>
</g>
<!-- Node9 -->
<g id="node9" class="node">
<title>Node9</title>
<g id="a_node9"><a xlink:href="classpkgAcqMetaBase.xhtml" target="_top" xlink:title="the manager of a transaction">
<polygon fill="white" stroke="black" points="191.5,-115.5 191.5,-134.5 292.5,-134.5 292.5,-115.5 191.5,-115.5"/>
<text text-anchor="middle" x="242" y="-122.5" font-family="Helvetica,sans-Serif" font-size="10.00">pkgAcqMetaBase</text>
</a>
</g>
</g>
<!-- Node1&#45;&gt;Node9 -->
<g id="edge10" class="edge">
<title>Node1&#45;&gt;Node9</title>
<path fill="none" stroke="midnightblue" d="M273.6,-252.46C275,-249.4 276.22,-246.18 277,-243 286.37,-204.57 294.14,-189.65 277,-154 273.09,-145.86 265.54,-139.35 258.45,-134.66"/>
<polygon fill="midnightblue" stroke="midnightblue" points="270.43,-250.96 268.8,-261.42 276.61,-254.26 270.43,-250.96"/>
</g>
<!-- Node10 -->
<g id="node10" class="node">
<title>Node10</title>
<g id="a_node10"><a xlink:title=" ">
<polygon fill="white" stroke="#bfbfbf" points="113,-183.5 113,-213.5 263,-213.5 263,-183.5 113,-183.5"/>
<text text-anchor="start" x="121" y="-201.5" font-family="Helvetica,sans-Serif" font-size="10.00">vector&lt; pkgAcqTransaction</text>
<text text-anchor="middle" x="188" y="-190.5" font-family="Helvetica,sans-Serif" font-size="10.00">Item * &gt;</text>
</a>
</g>
</g>
<!-- Node1&#45;&gt;Node10 -->
<g id="edge12" class="edge">
<title>Node1&#45;&gt;Node10</title>
<path fill="none" stroke="#9a32cd" stroke-dasharray="5,2" d="M242.9,-255.43C237.9,-251.55 232.64,-247.25 228,-243 218.02,-233.85 207.7,-222.57 200.04,-213.79"/>
<polygon fill="#9a32cd" stroke="#9a32cd" points="240.84,-258.26 250.93,-261.48 245.05,-252.67 240.84,-258.26"/>
<text text-anchor="middle" x="252.5" y="-235" font-family="Helvetica,sans-Serif" font-size="10.00"> elements</text>
</g>
<!-- Node2 -->
<g id="node2" class="node">
<title>Node2</title>
<g id="a_node2"><a xlink:title=" ">
<polygon fill="white" stroke="#bfbfbf" points="232.5,-334 232.5,-353 271.5,-353 271.5,-334 232.5,-334"/>
<text text-anchor="middle" x="252" y="-341" font-family="Helvetica,sans-Serif" font-size="10.00">Item</text>
</a>
</g>
</g>
<!-- Node2&#45;&gt;Node1 -->
<g id="edge1" class="edge">
<title>Node2&#45;&gt;Node1</title>
<path fill="none" stroke="midnightblue" d="M254.91,-323.86C257.09,-309.9 259.97,-291.43 261.64,-280.72"/>
<polygon fill="midnightblue" stroke="midnightblue" points="251.43,-323.44 253.35,-333.86 258.35,-324.51 251.43,-323.44"/>
</g>
<!-- Node3 -->
<g id="node3" class="node">
<title>Node3</title>
<g id="a_node3"><a xlink:href="classIndexTarget.xhtml" target="_top" xlink:title="Information about an index file.">
<polygon fill="white" stroke="black" points="70,-334 70,-353 144,-353 144,-334 70,-334"/>
<text text-anchor="middle" x="107" y="-341" font-family="Helvetica,sans-Serif" font-size="10.00">IndexTarget</text>
</a>
</g>
</g>
<!-- Node3&#45;&gt;Node1 -->
<g id="edge2" class="edge">
<title>Node3&#45;&gt;Node1</title>
<path fill="none" stroke="#9a32cd" stroke-dasharray="5,2" d="M134.95,-329.87C166.48,-315.62 216.91,-292.83 244.12,-280.53"/>
<polygon fill="#9a32cd" stroke="#9a32cd" points="133.49,-326.69 125.82,-334 136.37,-333.07 133.49,-326.69"/>
<text text-anchor="middle" x="216" y="-302" font-family="Helvetica,sans-Serif" font-size="10.00"> Target</text>
</g>
<!-- Node8 -->
<g id="node8" class="node">
<title>Node8</title>
<g id="a_node8"><a xlink:href="classpkgAcqMetaIndex.xhtml" target="_top" xlink:title="An item that is responsible for downloading the meta&#45;index {{{ file (i.e., Release) itself and verify...">
<polygon fill="white" stroke="black" points="190,-57.5 190,-76.5 294,-76.5 294,-57.5 190,-57.5"/>
<text text-anchor="middle" x="242" y="-64.5" font-family="Helvetica,sans-Serif" font-size="10.00">pkgAcqMetaIndex</text>
</a>
</g>
</g>
<!-- Node3&#45;&gt;Node8 -->
<g id="edge14" class="edge">
<title>Node3&#45;&gt;Node8</title>
<path fill="none" stroke="#9a32cd" stroke-dasharray="5,2" d="M60.26,-331.12C31.46,-321 0,-302.88 0,-272 0,-272 0,-272 0,-124 0,-85.35 118.65,-73.37 189.79,-69.66"/>
<polygon fill="#9a32cd" stroke="#9a32cd" points="59.28,-334.48 69.88,-334.25 61.45,-327.82 59.28,-334.48"/>
<text text-anchor="middle" x="47.5" y="-196" font-family="Helvetica,sans-Serif" font-size="10.00"> DetachedSigTarget</text>
</g>
<!-- Node4 -->
<g id="node4" class="node">
<title>Node4</title>
<g id="a_node4"><a xlink:title=" ">
<polygon fill="white" stroke="#bfbfbf" points="152.5,-501 152.5,-531 271.5,-531 271.5,-501 152.5,-501"/>
<text text-anchor="start" x="160.5" y="-519" font-family="Helvetica,sans-Serif" font-size="10.00">map&lt; std::string, std</text>
<text text-anchor="middle" x="212" y="-508" font-family="Helvetica,sans-Serif" font-size="10.00">::string &gt;</text>
</a>
</g>
</g>
<!-- Node4&#45;&gt;Node3 -->
<g id="edge3" class="edge">
<title>Node4&#45;&gt;Node3</title>
<path fill="none" stroke="#9a32cd" stroke-dasharray="5,2" d="M197.76,-491.88C174.22,-453.65 128.22,-378.96 112.46,-353.36"/>
<polygon fill="#9a32cd" stroke="#9a32cd" points="195,-494.08 203.23,-500.76 200.96,-490.41 195,-494.08"/>
<text text-anchor="middle" x="207.5" y="-424" font-family="Helvetica,sans-Serif" font-size="10.00"> Options</text>
</g>
<!-- Node5 -->
<g id="node5" class="node">
<title>Node5</title>
<g id="a_node5"><a xlink:title=" ">
<polygon fill="white" stroke="#bfbfbf" points="345,-596.5 345,-615.5 389,-615.5 389,-596.5 345,-596.5"/>
<text text-anchor="middle" x="367" y="-603.5" font-family="Helvetica,sans-Serif" font-size="10.00">string</text>
</a>
</g>
</g>
<!-- Node5&#45;&gt;Node1 -->
<g id="edge24" class="edge">
<title>Node5&#45;&gt;Node1</title>
<path fill="none" stroke="#9a32cd" stroke-dasharray="5,2" d="M355.73,-587.73C340.65,-563.72 314.26,-518.42 301,-476 281.2,-412.65 295.33,-392.81 281,-328 277.21,-310.85 270.39,-291.47 266.32,-280.59"/>
<polygon fill="#9a32cd" stroke="#9a32cd" points="352.92,-589.84 361.26,-596.38 358.82,-586.07 352.92,-589.84"/>
<text text-anchor="middle" x="327" y="-424" font-family="Helvetica,sans-Serif" font-size="10.00"> PartialFile</text>
</g>
<!-- Node5&#45;&gt;Node3 -->
<g id="edge6" class="edge">
<title>Node5&#45;&gt;Node3</title>
<path fill="none" stroke="#9a32cd" stroke-dasharray="5,2" d="M334.51,-602.41C266.69,-596.23 113.85,-578.06 84,-538 40.54,-479.67 86.3,-382.83 102.08,-353.31"/>
<polygon fill="#9a32cd" stroke="#9a32cd" points="334.37,-605.91 344.63,-603.3 334.98,-598.93 334.37,-605.91"/>
<text text-anchor="middle" x="113.5" y="-530" font-family="Helvetica,sans-Serif" font-size="10.00"> Description</text>
<text text-anchor="middle" x="113.5" y="-519" font-family="Helvetica,sans-Serif" font-size="10.00">MetaKey</text>
<text text-anchor="middle" x="113.5" y="-508" font-family="Helvetica,sans-Serif" font-size="10.00">ShortDesc</text>
<text text-anchor="middle" x="113.5" y="-497" font-family="Helvetica,sans-Serif" font-size="10.00">URI</text>
</g>
<!-- Node5&#45;&gt;Node4 -->
<g id="edge4" class="edge">
<title>Node5&#45;&gt;Node4</title>
<path fill="none" stroke="#9a32cd" stroke-dasharray="5,2" d="M334.47,-601.74C300.94,-597.78 251.56,-590.1 237,-578 222.83,-566.22 216.59,-545.13 213.92,-531.1"/>
<polygon fill="#9a32cd" stroke="#9a32cd" points="334.41,-605.26 344.74,-602.9 335.19,-598.3 334.41,-605.26"/>
<text text-anchor="middle" x="261.5" y="-570" font-family="Helvetica,sans-Serif" font-size="10.00"> elements</text>
<text text-anchor="middle" x="261.5" y="-559" font-family="Helvetica,sans-Serif" font-size="10.00">keys</text>
</g>
<!-- Node5&#45;&gt;Node9 -->
<g id="edge13" class="edge">
<title>Node5&#45;&gt;Node9</title>
<path fill="none" stroke="#9a32cd" stroke-dasharray="5,2" d="M367,-586.07C367,-568.25 367,-540.81 367,-517 367,-517 367,-517 367,-197.5 367,-161.5 327.45,-143.38 292.84,-134.41"/>
<polygon fill="#9a32cd" stroke="#9a32cd" points="363.5,-586.26 367,-596.26 370.5,-586.26 363.5,-586.26"/>
<text text-anchor="middle" x="389.5" y="-302" font-family="Helvetica,sans-Serif" font-size="10.00"> BaseURI</text>
</g>
<!-- Node11 -->
<g id="node11" class="node">
<title>Node11</title>
<g id="a_node11"><a xlink:href="classmetaIndex.xhtml" target="_top" xlink:title=" ">
<polygon fill="white" stroke="black" points="504.5,-261.5 504.5,-280.5 573.5,-280.5 573.5,-261.5 504.5,-261.5"/>
<text text-anchor="middle" x="539" y="-268.5" font-family="Helvetica,sans-Serif" font-size="10.00">metaIndex</text>
</a>
</g>
</g>
<!-- Node5&#45;&gt;Node11 -->
<g id="edge18" class="edge">
<title>Node5&#45;&gt;Node11</title>
<path fill="none" stroke="#9a32cd" stroke-dasharray="5,2" d="M399.16,-599.47C433.23,-591.82 485.91,-574.6 514,-538 576.42,-456.67 543.79,-412.39 549,-310 549.25,-305.12 549.86,-303.81 549,-299 547.87,-292.7 545.37,-285.95 543.15,-280.78"/>
<polygon fill="#9a32cd" stroke="#9a32cd" points="398.3,-596.07 389.23,-601.54 399.73,-602.92 398.3,-596.07"/>
<text text-anchor="middle" x="586" y="-468" font-family="Helvetica,sans-Serif" font-size="10.00"> Codename</text>
<text text-anchor="middle" x="586" y="-457" font-family="Helvetica,sans-Serif" font-size="10.00">Dist</text>
<text text-anchor="middle" x="586" y="-446" font-family="Helvetica,sans-Serif" font-size="10.00">Label</text>
<text text-anchor="middle" x="586" y="-435" font-family="Helvetica,sans-Serif" font-size="10.00">Origin</text>
<text text-anchor="middle" x="586" y="-424" font-family="Helvetica,sans-Serif" font-size="10.00">ReleaseNotes</text>
<text text-anchor="middle" x="586" y="-413" font-family="Helvetica,sans-Serif" font-size="10.00">SignedBy</text>
<text text-anchor="middle" x="586" y="-402" font-family="Helvetica,sans-Serif" font-size="10.00">Suite</text>
<text text-anchor="middle" x="586" y="-391" font-family="Helvetica,sans-Serif" font-size="10.00">URI</text>
<text text-anchor="middle" x="586" y="-380" font-family="Helvetica,sans-Serif" font-size="10.00">Version</text>
</g>
<!-- Node14 -->
<g id="node14" class="node">
<title>Node14</title>
<g id="a_node14"><a xlink:title=" ">
<polygon fill="white" stroke="#bfbfbf" points="591.5,-328.5 591.5,-358.5 748.5,-358.5 748.5,-328.5 591.5,-328.5"/>
<text text-anchor="start" x="599.5" y="-346.5" font-family="Helvetica,sans-Serif" font-size="10.00">map&lt; std::string, metaIndex</text>
<text text-anchor="middle" x="670" y="-335.5" font-family="Helvetica,sans-Serif" font-size="10.00">::checkSum * &gt;</text>
</a>
</g>
</g>
<!-- Node5&#45;&gt;Node14 -->
<g id="edge20" class="edge">
<title>Node5&#45;&gt;Node14</title>
<path fill="none" stroke="#9a32cd" stroke-dasharray="5,2" d="M399.38,-604.39C450.96,-602.83 548.86,-597.34 577,-578 652.88,-525.86 666.86,-401.04 669.42,-358.77"/>
<polygon fill="#9a32cd" stroke="#9a32cd" points="399.02,-600.89 389.11,-604.66 399.2,-607.89 399.02,-600.89"/>
<text text-anchor="middle" x="652" y="-513.5" font-family="Helvetica,sans-Serif" font-size="10.00"> keys</text>
</g>
<!-- Node15 -->
<g id="node15" class="node">
<title>Node15</title>
<g id="a_node15"><a xlink:href="structmetaIndex_1_1checkSum.xhtml" target="_top" xlink:title=" ">
<polygon fill="white" stroke="black" points="690.5,-506.5 690.5,-525.5 757.5,-525.5 757.5,-506.5 690.5,-506.5"/>
<text text-anchor="middle" x="724" y="-513.5" font-family="Helvetica,sans-Serif" font-size="10.00">checkSum</text>
</a>
</g>
</g>
<!-- Node5&#45;&gt;Node15 -->
<g id="edge23" class="edge">
<title>Node5&#45;&gt;Node15</title>
<path fill="none" stroke="#9a32cd" stroke-dasharray="5,2" d="M399.5,-604.99C465.52,-604.48 612.82,-600.76 657,-578 668.49,-572.08 666.73,-565 676,-556 687.56,-544.78 702.05,-533.32 712.07,-525.75"/>
<polygon fill="#9a32cd" stroke="#9a32cd" points="399.24,-601.49 389.26,-605.05 399.28,-608.49 399.24,-601.49"/>
<text text-anchor="middle" x="721.5" y="-564.5" font-family="Helvetica,sans-Serif" font-size="10.00"> MetaKeyFilename</text>
</g>
<!-- Node6 -->
<g id="node6" class="node">
<title>Node6</title>
<g id="a_node6"><a xlink:title=" ">
<polygon fill="white" stroke="#bfbfbf" points="307,-653.5 307,-672.5 427,-672.5 427,-653.5 307,-653.5"/>
<text text-anchor="middle" x="367" y="-660.5" font-family="Helvetica,sans-Serif" font-size="10.00">basic_string&lt; Char &gt;</text>
</a>
</g>
</g>
<!-- Node6&#45;&gt;Node5 -->
<g id="edge5" class="edge">
<title>Node6&#45;&gt;Node5</title>
<path fill="none" stroke="midnightblue" d="M367,-643.12C367,-633.82 367,-623.06 367,-615.71"/>
<polygon fill="midnightblue" stroke="midnightblue" points="363.5,-643.41 367,-653.41 370.5,-643.41 363.5,-643.41"/>
</g>
<!-- Node7 -->
<g id="node7" class="node">
<title>Node7</title>
<g id="a_node7"><a xlink:href="classpkgAcqMetaClearSig.xhtml" target="_top" xlink:title="An item responsible for downloading clearsigned metaindexes {{{.">
<polygon fill="white" stroke="black" points="270,-0.5 270,-19.5 388,-19.5 388,-0.5 270,-0.5"/>
<text text-anchor="middle" x="329" y="-7.5" font-family="Helvetica,sans-Serif" font-size="10.00">pkgAcqMetaClearSig</text>
</a>
</g>
</g>
<!-- Node7&#45;&gt;Node1 -->
<g id="edge7" class="edge">
<title>Node7&#45;&gt;Node1</title>
<path fill="none" stroke="#9a32cd" stroke-dasharray="5,2" d="M329,-29.76C329,-40.39 329,-53.94 329,-66 329,-199.5 329,-199.5 329,-199.5 329,-228.17 299.55,-249.99 280,-261.33"/>
<polygon fill="#9a32cd" stroke="#9a32cd" points="332.5,-29.57 329,-19.57 325.5,-29.57 332.5,-29.57"/>
<text text-anchor="middle" x="380" y="-122.5" font-family="Helvetica,sans-Serif" font-size="10.00"> TransactionManager</text>
</g>
<!-- Node8&#45;&gt;Node7 -->
<g id="edge8" class="edge">
<title>Node8&#45;&gt;Node7</title>
<path fill="none" stroke="midnightblue" d="M264.42,-51.82C280.59,-41.61 301.87,-28.15 315.5,-19.53"/>
<polygon fill="midnightblue" stroke="midnightblue" points="262.18,-49.1 255.59,-57.41 265.92,-55.02 262.18,-49.1"/>
</g>
<!-- Node9&#45;&gt;Node8 -->
<g id="edge9" class="edge">
<title>Node9&#45;&gt;Node8</title>
<path fill="none" stroke="midnightblue" d="M242,-104.95C242,-95.29 242,-84.03 242,-76.51"/>
<polygon fill="midnightblue" stroke="midnightblue" points="238.5,-105.25 242,-115.25 245.5,-105.25 238.5,-105.25"/>
</g>
<!-- Node10&#45;&gt;Node9 -->
<g id="edge11" class="edge">
<title>Node10&#45;&gt;Node9</title>
<path fill="none" stroke="#9a32cd" stroke-dasharray="5,2" d="M203.23,-174.46C207.83,-167.76 213,-160.5 218,-154 223.16,-147.3 229.38,-140.07 234.19,-134.63"/>
<polygon fill="#9a32cd" stroke="#9a32cd" points="200.07,-172.88 197.36,-183.13 205.86,-176.81 200.07,-172.88"/>
<text text-anchor="middle" x="247.5" y="-157" font-family="Helvetica,sans-Serif" font-size="10.00"> Transaction</text>
</g>
<!-- Node11&#45;&gt;Node7 -->
<g id="edge15" class="edge">
<title>Node11&#45;&gt;Node7</title>
<path fill="none" stroke="#9a32cd" stroke-dasharray="5,2" d="M529.35,-252.26C522.68,-238.33 515,-218.23 515,-199.5 515,-199.5 515,-199.5 515,-66 515,-39.1 442.57,-24.36 388.11,-17.07"/>
<polygon fill="#9a32cd" stroke="#9a32cd" points="526.25,-253.88 533.91,-261.2 532.49,-250.7 526.25,-253.88"/>
<text text-anchor="middle" x="568" y="-128" font-family="Helvetica,sans-Serif" font-size="10.00"> LastMetaIndexParser</text>
<text text-anchor="middle" x="568" y="-117" font-family="Helvetica,sans-Serif" font-size="10.00">MetaIndexParser</text>
</g>
<!-- Node12 -->
<g id="node12" class="node">
<title>Node12</title>
<g id="a_node12"><a xlink:title=" ">
<polygon fill="white" stroke="#bfbfbf" points="395,-334 395,-353 535,-353 535,-334 395,-334"/>
<text text-anchor="middle" x="465" y="-341" font-family="Helvetica,sans-Serif" font-size="10.00">vector&lt; pkgIndexFile * &gt;</text>
</a>
</g>
</g>
<!-- Node12&#45;&gt;Node11 -->
<g id="edge16" class="edge">
<title>Node12&#45;&gt;Node11</title>
<path fill="none" stroke="#9a32cd" stroke-dasharray="5,2" d="M480.09,-326.67C488.22,-318.29 498.5,-307.92 508,-299 514.76,-292.65 522.65,-285.79 528.78,-280.57"/>
<polygon fill="#9a32cd" stroke="#9a32cd" points="477.47,-324.34 473.06,-333.97 482.52,-329.2 477.47,-324.34"/>
<text text-anchor="middle" x="528.5" y="-302" font-family="Helvetica,sans-Serif" font-size="10.00"> Indexes</text>
</g>
<!-- Node13 -->
<g id="node13" class="node">
<title>Node13</title>
<g id="a_node13"><a xlink:href="classpkgIndexFile.xhtml" target="_top" xlink:title=" ">
<polygon fill="white" stroke="black" points="425.5,-506.5 425.5,-525.5 504.5,-525.5 504.5,-506.5 425.5,-506.5"/>
<text text-anchor="middle" x="465" y="-513.5" font-family="Helvetica,sans-Serif" font-size="10.00">pkgIndexFile</text>
</a>
</g>
</g>
<!-- Node13&#45;&gt;Node12 -->
<g id="edge17" class="edge">
<title>Node13&#45;&gt;Node12</title>
<path fill="none" stroke="#9a32cd" stroke-dasharray="5,2" d="M465,-496.02C465,-459.33 465,-379.96 465,-353.38"/>
<polygon fill="#9a32cd" stroke="#9a32cd" points="461.5,-496.31 465,-506.31 468.5,-496.31 461.5,-496.31"/>
<text text-anchor="middle" x="489.5" y="-424" font-family="Helvetica,sans-Serif" font-size="10.00"> elements</text>
</g>
<!-- Node14&#45;&gt;Node11 -->
<g id="edge19" class="edge">
<title>Node14&#45;&gt;Node11</title>
<path fill="none" stroke="#9a32cd" stroke-dasharray="5,2" d="M634.97,-323.65C608.93,-309.63 574.61,-291.16 554.86,-280.53"/>
<polygon fill="#9a32cd" stroke="#9a32cd" points="633.34,-326.75 643.81,-328.4 636.66,-320.58 633.34,-326.75"/>
<text text-anchor="middle" x="626.5" y="-302" font-family="Helvetica,sans-Serif" font-size="10.00"> Entries</text>
</g>
<!-- Node15&#45;&gt;Node14 -->
<g id="edge21" class="edge">
<title>Node15&#45;&gt;Node14</title>
<path fill="none" stroke="#9a32cd" stroke-dasharray="5,2" d="M718.19,-496.65C707.34,-462.4 684.22,-389.4 674.48,-358.64"/>
<polygon fill="#9a32cd" stroke="#9a32cd" points="714.89,-497.83 721.25,-506.31 721.57,-495.72 714.89,-497.83"/>
<text text-anchor="middle" x="734.5" y="-424" font-family="Helvetica,sans-Serif" font-size="10.00"> elements</text>
</g>
<!-- Node16 -->
<g id="node16" class="node">
<title>Node16</title>
<g id="a_node16"><a xlink:href="classHashStringList.xhtml" target="_top" xlink:title=" ">
<polygon fill="white" stroke="black" points="749.5,-596.5 749.5,-615.5 836.5,-615.5 836.5,-596.5 749.5,-596.5"/>
<text text-anchor="middle" x="793" y="-603.5" font-family="Helvetica,sans-Serif" font-size="10.00">HashStringList</text>
</a>
</g>
</g>
<!-- Node16&#45;&gt;Node15 -->
<g id="edge22" class="edge">
<title>Node16&#45;&gt;Node15</title>
<path fill="none" stroke="#9a32cd" stroke-dasharray="5,2" d="M787.14,-586.89C783.45,-577.15 778.05,-565.27 771,-556 761.63,-543.68 747.66,-532.72 737.39,-525.59"/>
<polygon fill="#9a32cd" stroke="#9a32cd" points="783.86,-588.12 790.47,-596.4 790.47,-585.8 783.86,-588.12"/>
<text text-anchor="middle" x="803" y="-564.5" font-family="Helvetica,sans-Serif" font-size="10.00"> Hashes</text>
</g>
</g>
</svg>
        <g id="navigator" transform="translate(0 0)" fill="#404254">
                <rect fill="#f2f5e9" fill-opacity="0.5" stroke="#606060" stroke-width=".5" x="0" y="0" width="60" height="60"/>
                <use id="zoomplus" xlink:href="#zoomPlus" x="17" y="9" onmousedown="handleZoom(evt,'in')"/>
                <use id="zoomminus" xlink:href="#zoomMin" x="42" y="9" onmousedown="handleZoom(evt,'out')"/>
                <use id="reset" xlink:href="#resetDef" x="30" y="36" onmousedown="handleReset()"/>
                <g id="arrowUp" xlink:href="#dirArrow" transform="translate(30 24)" onmousedown="handlePan(0,-1)">
                  <use xlink:href="#rim" fill="#404040">
                        <set attributeName="fill" to="#808080" begin="arrowUp.mouseover" end="arrowUp.mouseout"/>
                  </use>
                  <path fill="none" stroke="white" stroke-width="1.5" d="M0,-3.0v7 M-2.5,-0.5L0,-3.0L2.5,-0.5"/>
                </g>
                <g id="arrowRight" xlink:href="#dirArrow" transform="rotate(90) translate(36 -43)" onmousedown="handlePan(1,0)">
                  <use xlink:href="#rim" fill="#404040">
                        <set attributeName="fill" to="#808080" begin="arrowRight.mouseover" end="arrowRight.mouseout"/>
                  </use>
                  <path fill="none" stroke="white" stroke-width="1.5" d="M0,-3.0v7 M-2.5,-0.5L0,-3.0L2.5,-0.5"/>
                </g>
                <g id="arrowDown" xlink:href="#dirArrow" transform="rotate(180) translate(-30 -48)" onmousedown="handlePan(0,1)">
                  <use xlink:href="#rim" fill="#404040">
                        <set attributeName="fill" to="#808080" begin="arrowDown.mouseover" end="arrowDown.mouseout"/>
                  </use>
                  <path fill="none" stroke="white" stroke-width="1.5" d="M0,-3.0v7 M-2.5,-0.5L0,-3.0L2.5,-0.5"/>
                </g>
                <g id="arrowLeft" xlink:href="#dirArrow" transform="rotate(270) translate(-36 17)" onmousedown="handlePan(-1,0)">
                  <use xlink:href="#rim" fill="#404040">
                        <set attributeName="fill" to="#808080" begin="arrowLeft.mouseover" end="arrowLeft.mouseout"/>
                  </use>
                  <path fill="none" stroke="white" stroke-width="1.5" d="M0,-3.0v7 M-2.5,-0.5L0,-3.0L2.5,-0.5"/>
                </g>
        </g>
        <svg viewBox="0 0 15 15" width="100%" height="30px" preserveAspectRatio="xMaxYMin meet">
         <g id="arrow_out" transform="scale(0.3 0.3)">
          <a xlink:href="classpkgAcqTransactionItem__coll__graph_org.svg" target="_base">
           <rect id="button" ry="5" rx="5" y="6" x="6" height="38" width="38"
                fill="#f2f5e9" fill-opacity="0.5" stroke="#606060" stroke-width="1.0"/>
           <path id="arrow"
             d="M 11.500037,31.436501 C 11.940474,20.09759 22.043105,11.32322 32.158766,21.979434 L 37.068811,17.246167 C 37.068811,17.246167 37.088388,32 37.088388,32 L 22.160133,31.978069 C 22.160133,31.978069 26.997745,27.140456 26.997745,27.140456 C 18.528582,18.264221 13.291696,25.230495 11.500037,31.436501 z"
             style="fill:#404040;"/>
          </a>
         </g>
        </svg>
</svg>
