<svg xmlns="http://www.w3.org/2000/svg" xmlns:xlink="http://www.w3.org/1999/xlink" width="160pt" height="95pt" viewBox="0 0 160 95"><g id="graph0" class="graph" transform="scale(1 1) rotate(0) translate(4 91)"><title>debRecordParserBase</title><polygon fill="#fff" stroke="transparent" points="-4 4 -4 -91 156 -91 156 4 -4 4"/><g id="node1" class="node"><title>Node1</title><g id="a_node1"><a><polygon fill="#bfbfbf" stroke="#000" points="4.5 -.5 4.5 -19.5 126.5 -19.5 126.5 -.5 4.5 -.5"/><text x="65.5" y="-7.5" font-family="Helvetica,sans-Serif" font-size="10" text-anchor="middle">debRecordParserBase</text></a></g></g><g id="node2" class="node"><title>Node2</title><g id="a_node2"><a><polygon fill="#fff" stroke="#bfbfbf" points="0 -67.5 0 -86.5 47 -86.5 47 -67.5 0 -67.5"/><text x="23.5" y="-74.5" font-family="Helvetica,sans-Serif" font-size="10" text-anchor="middle">Parser</text></a></g></g><g id="edge1" class="edge"><title>Node2-&gt;Node1</title><path fill="none" stroke="#191970" d="M34.79,-58.53C42.92,-45.95 53.54,-29.51 59.93,-19.63"/><polygon fill="#191970" stroke="#191970" points="31.65 -56.94 29.16 -67.23 37.53 -60.73 31.65 -56.94"/></g><g id="node3" class="node"><title>Node3</title><g id="a_node3"><a target="_top" xlink:href="classpkgTagSection.xhtml"><polygon fill="#fff" stroke="#000" points="65 -67.5 65 -86.5 152 -86.5 152 -67.5 65 -67.5"/><text x="108.5" y="-74.5" font-family="Helvetica,sans-Serif" font-size="10" text-anchor="middle">pkgTagSection</text></a></g></g><g id="edge2" class="edge"><title>Node3-&gt;Node1</title><path fill="none" stroke="#9a32cd" stroke-dasharray="5 2" d="M96.95,-58.53C88.62,-45.95 77.74,-29.51 71.21,-19.63"/><polygon fill="#9a32cd" stroke="#9a32cd" points="94.26 -60.82 102.7 -67.23 100.1 -56.96 94.26 -60.82"/><text x="109.5" y="-41" font-family="Helvetica,sans-Serif" font-size="10" text-anchor="middle">Section</text></g></g></svg>