<?xml version="1.0" encoding="UTF-8" standalone="no"?>
<!DOCTYPE svg PUBLIC "-//W3C//DTD SVG 1.1//EN"
 "http://www.w3.org/Graphics/SVG/1.1/DTD/svg11.dtd">
<!-- Generated by graphviz version 2.43.0 (0)
 -->
<!-- Title: pkgCacheListParser Pages: 1 -->
<svg width="547pt" height="196pt"
 viewBox="0.00 0.00 547.00 196.00" xmlns="http://www.w3.org/2000/svg" xmlns:xlink="http://www.w3.org/1999/xlink">
<g id="graph0" class="graph" transform="scale(1 1) rotate(0) translate(4 192)">
<title>pkgCacheListParser</title>
<polygon fill="white" stroke="transparent" points="-4,4 -4,-192 543,-192 543,4 -4,4"/>
<!-- Node1 -->
<g id="node1" class="node">
<title>Node1</title>
<g id="a_node1"><a xlink:title=" ">
<polygon fill="#bfbfbf" stroke="black" points="187.5,-168.5 187.5,-187.5 299.5,-187.5 299.5,-168.5 187.5,-168.5"/>
<text text-anchor="middle" x="243.5" y="-175.5" font-family="Helvetica,sans-Serif" font-size="10.00">pkgCacheListParser</text>
</a>
</g>
</g>
<!-- Node2 -->
<g id="node2" class="node">
<title>Node2</title>
<g id="a_node2"><a xlink:href="classdebListParser.xhtml" target="_top" xlink:title=" ">
<polygon fill="white" stroke="black" points="202.5,-112.5 202.5,-131.5 284.5,-131.5 284.5,-112.5 202.5,-112.5"/>
<text text-anchor="middle" x="243.5" y="-119.5" font-family="Helvetica,sans-Serif" font-size="10.00">debListParser</text>
</a>
</g>
</g>
<!-- Node1&#45;&gt;Node2 -->
<g id="edge1" class="edge">
<title>Node1&#45;&gt;Node2</title>
<path fill="none" stroke="midnightblue" d="M243.5,-157.8C243.5,-148.91 243.5,-138.78 243.5,-131.75"/>
<polygon fill="midnightblue" stroke="midnightblue" points="240,-158.08 243.5,-168.08 247,-158.08 240,-158.08"/>
</g>
<!-- Node3 -->
<g id="node3" class="node">
<title>Node3</title>
<g id="a_node3"><a xlink:href="classdebDebFileParser.xhtml" target="_top" xlink:title=" ">
<polygon fill="white" stroke="black" points="0,-56.5 0,-75.5 101,-75.5 101,-56.5 0,-56.5"/>
<text text-anchor="middle" x="50.5" y="-63.5" font-family="Helvetica,sans-Serif" font-size="10.00">debDebFileParser</text>
</a>
</g>
</g>
<!-- Node2&#45;&gt;Node3 -->
<g id="edge2" class="edge">
<title>Node2&#45;&gt;Node3</title>
<path fill="none" stroke="midnightblue" d="M203.11,-109.7C166.68,-99.51 113.91,-84.74 80.94,-75.52"/>
<polygon fill="midnightblue" stroke="midnightblue" points="202.35,-113.12 212.92,-112.44 204.23,-106.38 202.35,-113.12"/>
</g>
<!-- Node4 -->
<g id="node4" class="node">
<title>Node4</title>
<g id="a_node4"><a xlink:href="classdebStatusListParser.xhtml" target="_top" xlink:title=" ">
<polygon fill="white" stroke="black" points="119,-56.5 119,-75.5 232,-75.5 232,-56.5 119,-56.5"/>
<text text-anchor="middle" x="175.5" y="-63.5" font-family="Helvetica,sans-Serif" font-size="10.00">debStatusListParser</text>
</a>
</g>
</g>
<!-- Node2&#45;&gt;Node4 -->
<g id="edge3" class="edge">
<title>Node2&#45;&gt;Node4</title>
<path fill="none" stroke="midnightblue" d="M224.74,-106.1C212.5,-96.38 196.94,-84.03 186.62,-75.83"/>
<polygon fill="midnightblue" stroke="midnightblue" points="222.57,-108.85 232.57,-112.32 226.92,-103.36 222.57,-108.85"/>
</g>
<!-- Node5 -->
<g id="node5" class="node">
<title>Node5</title>
<g id="a_node5"><a xlink:href="classdebTranslationsParser.xhtml" target="_top" xlink:title=" ">
<polygon fill="white" stroke="black" points="250,-56.5 250,-75.5 373,-75.5 373,-56.5 250,-56.5"/>
<text text-anchor="middle" x="311.5" y="-63.5" font-family="Helvetica,sans-Serif" font-size="10.00">debTranslationsParser</text>
</a>
</g>
</g>
<!-- Node2&#45;&gt;Node5 -->
<g id="edge4" class="edge">
<title>Node2&#45;&gt;Node5</title>
<path fill="none" stroke="midnightblue" d="M262.26,-106.1C274.5,-96.38 290.06,-84.03 300.38,-75.83"/>
<polygon fill="midnightblue" stroke="midnightblue" points="260.08,-103.36 254.43,-112.32 264.43,-108.85 260.08,-103.36"/>
</g>
<!-- Node6 -->
<g id="node6" class="node">
<title>Node6</title>
<g id="a_node6"><a xlink:href="classedspLikeListParser.xhtml" target="_top" xlink:title=" ">
<polygon fill="white" stroke="black" points="391,-56.5 391,-75.5 498,-75.5 498,-56.5 391,-56.5"/>
<text text-anchor="middle" x="444.5" y="-63.5" font-family="Helvetica,sans-Serif" font-size="10.00">edspLikeListParser</text>
</a>
</g>
</g>
<!-- Node2&#45;&gt;Node6 -->
<g id="edge5" class="edge">
<title>Node2&#45;&gt;Node6</title>
<path fill="none" stroke="midnightblue" d="M285.08,-109.83C323.03,-99.63 378.31,-84.78 412.8,-75.52"/>
<polygon fill="midnightblue" stroke="midnightblue" points="284.1,-106.47 275.35,-112.44 285.91,-113.23 284.1,-106.47"/>
</g>
<!-- Node7 -->
<g id="node7" class="node">
<title>Node7</title>
<g id="a_node7"><a xlink:href="classedspListParser.xhtml" target="_top" xlink:title=" ">
<polygon fill="white" stroke="black" points="349,-0.5 349,-19.5 436,-19.5 436,-0.5 349,-0.5"/>
<text text-anchor="middle" x="392.5" y="-7.5" font-family="Helvetica,sans-Serif" font-size="10.00">edspListParser</text>
</a>
</g>
</g>
<!-- Node6&#45;&gt;Node7 -->
<g id="edge6" class="edge">
<title>Node6&#45;&gt;Node7</title>
<path fill="none" stroke="midnightblue" d="M428.82,-48.72C419.66,-39.2 408.45,-27.56 400.93,-19.75"/>
<polygon fill="midnightblue" stroke="midnightblue" points="426.46,-51.31 435.91,-56.08 431.5,-46.45 426.46,-51.31"/>
</g>
<!-- Node8 -->
<g id="node8" class="node">
<title>Node8</title>
<g id="a_node8"><a xlink:href="classeippListParser.xhtml" target="_top" xlink:title=" ">
<polygon fill="white" stroke="black" points="454,-0.5 454,-19.5 539,-19.5 539,-0.5 454,-0.5"/>
<text text-anchor="middle" x="496.5" y="-7.5" font-family="Helvetica,sans-Serif" font-size="10.00">eippListParser</text>
</a>
</g>
</g>
<!-- Node6&#45;&gt;Node8 -->
<g id="edge7" class="edge">
<title>Node6&#45;&gt;Node8</title>
<path fill="none" stroke="midnightblue" d="M460.18,-48.72C469.34,-39.2 480.55,-27.56 488.07,-19.75"/>
<polygon fill="midnightblue" stroke="midnightblue" points="457.5,-46.45 453.09,-56.08 462.54,-51.31 457.5,-46.45"/>
</g>
</g>
</svg>
