<svg xmlns="http://www.w3.org/2000/svg" xmlns:xlink="http://www.w3.org/1999/xlink" width="146pt" height="95pt" viewBox="0 0 146 95"><g id="graph0" class="graph" transform="scale(1 1) rotate(0) translate(4 91)"><title>CommandLine</title><polygon fill="#fff" stroke="transparent" points="-4 4 -4 -91 142 -91 142 4 -4 4"/><g id="node1" class="node"><title>Node1</title><g id="a_node1"><a><polygon fill="#bfbfbf" stroke="#000" points="14.5 -.5 14.5 -19.5 101.5 -19.5 101.5 -.5 14.5 -.5"/><text x="58" y="-7.5" font-family="Helvetica,sans-Serif" font-size="10" text-anchor="middle">CommandLine</text></a></g></g><g id="node2" class="node"><title>Node2</title><g id="a_node2"><a target="_top" xlink:href="structCommandLine_1_1Args.xhtml"><polygon fill="#fff" stroke="#000" points="0 -67.5 0 -86.5 38 -86.5 38 -67.5 0 -67.5"/><text x="19" y="-74.5" font-family="Helvetica,sans-Serif" font-size="10" text-anchor="middle">Args</text></a></g></g><g id="edge1" class="edge"><title>Node2-&gt;Node1</title><path fill="none" stroke="#9a32cd" stroke-dasharray="5 2" d="M27.17,-58.07C30.32,-51.61 34.1,-44.35 38,-38 41.91,-31.64 46.91,-24.89 50.93,-19.73"/><polygon fill="#9a32cd" stroke="#9a32cd" points="23.91 -56.78 22.81 -67.32 30.24 -59.76 23.91 -56.78"/><text x="56.5" y="-41" font-family="Helvetica,sans-Serif" font-size="10" text-anchor="middle">ArgList</text></g><g id="node3" class="node"><title>Node3</title><g id="a_node3"><a target="_top" xlink:href="classConfiguration.xhtml"><polygon fill="#fff" stroke="#000" points="56 -67.5 56 -86.5 138 -86.5 138 -67.5 56 -67.5"/><text x="97" y="-74.5" font-family="Helvetica,sans-Serif" font-size="10" text-anchor="middle">Configuration</text></a></g></g><g id="edge2" class="edge"><title>Node3-&gt;Node1</title><path fill="none" stroke="#9a32cd" stroke-dasharray="5 2" d="M87.22,-58.8C83.45,-52.25 79.08,-44.75 75,-38 71.33,-31.93 67.08,-25.18 63.75,-19.95"/><polygon fill="#9a32cd" stroke="#9a32cd" points="84.19 -60.55 92.2 -67.5 90.27 -57.08 84.19 -60.55"/><text x="94" y="-41" font-family="Helvetica,sans-Serif" font-size="10" text-anchor="middle">Conf</text></g></g></svg>