<svg xmlns="http://www.w3.org/2000/svg" xmlns:xlink="http://www.w3.org/1999/xlink" width="167pt" height="230pt" viewBox="0 0 167 230"><g id="graph0" class="graph" transform="scale(1 1) rotate(0) translate(4 226)"><title>MMap</title><polygon fill="#fff" stroke="transparent" points="-4 4 -4 -226 163 -226 163 4 -4 4"/><g id="node1" class="node"><title>Node1</title><g id="a_node1"><a><polygon fill="#bfbfbf" stroke="#000" points="36.5 -.5 36.5 -19.5 83.5 -19.5 83.5 -.5 36.5 -.5"/><text x="60" y="-7.5" font-family="Helvetica,sans-Serif" font-size="10" text-anchor="middle">MMap</text></a></g></g><g id="node2" class="node"><title>Node2</title><g id="a_node2"><a target="_top" xlink:href="classFileFd.xhtml"><polygon fill="#fff" stroke="#000" points="37 -67.5 37 -86.5 83 -86.5 83 -67.5 37 -67.5"/><text x="60" y="-74.5" font-family="Helvetica,sans-Serif" font-size="10" text-anchor="middle">FileFd</text></a></g></g><g id="edge1" class="edge"><title>Node2-&gt;Node1</title><path fill="none" stroke="#9a32cd" stroke-dasharray="5 2" d="M60,-57.04C60,-44.67 60,-29.12 60,-19.63"/><polygon fill="#9a32cd" stroke="#9a32cd" points="56.5 -57.23 60 -67.23 63.5 -57.23 56.5 -57.23"/><text x="84.5" y="-41" font-family="Helvetica,sans-Serif" font-size="10" text-anchor="middle">SyncToFd</text></g><g id="node3" class="node"><title>Node3</title><g id="a_node3"><a><polygon fill="#fff" stroke="#bfbfbf" points="38 -145.5 38 -164.5 82 -164.5 82 -145.5 38 -145.5"/><text x="60" y="-152.5" font-family="Helvetica,sans-Serif" font-size="10" text-anchor="middle">string</text></a></g></g><g id="edge2" class="edge"><title>Node3-&gt;Node2</title><path fill="none" stroke="#9a32cd" stroke-dasharray="5 2" d="M60,-135.22C60,-119.7 60,-98.36 60,-86.62"/><polygon fill="#9a32cd" stroke="#9a32cd" points="56.5 -135.28 60 -145.28 63.5 -135.28 56.5 -135.28"/><text x="109.5" y="-119" font-family="Helvetica,sans-Serif" font-size="10" text-anchor="middle">FileName</text><text x="109.5" y="-108" font-family="Helvetica,sans-Serif" font-size="10" text-anchor="middle">TemporaryFileName</text></g><g id="node4" class="node"><title>Node4</title><g id="a_node4"><a><polygon fill="#fff" stroke="#bfbfbf" points="0 -202.5 0 -221.5 120 -221.5 120 -202.5 0 -202.5"/><text x="60" y="-209.5" font-family="Helvetica,sans-Serif" font-size="10" text-anchor="middle">basic_string&lt; Char &gt;</text></a></g></g><g id="edge3" class="edge"><title>Node4-&gt;Node3</title><path fill="none" stroke="#191970" d="M60,-192.12C60,-182.82 60,-172.06 60,-164.71"/><polygon fill="#191970" stroke="#191970" points="56.5 -192.41 60 -202.41 63.5 -192.41 56.5 -192.41"/></g></g></svg>