<?xml version="1.0" encoding="UTF-8" standalone="no"?>
<!DOCTYPE svg PUBLIC "-//W3C//DTD SVG 1.1//EN"
 "http://www.w3.org/Graphics/SVG/1.1/DTD/svg11.dtd">
<!-- Generated by graphviz version 2.43.0 (0)
 -->
<!-- Title: PackageManagerFancy Pages: 1 -->
<svg width="136pt" height="209pt"
 viewBox="0.00 0.00 135.50 209.00" xmlns="http://www.w3.org/2000/svg" xmlns:xlink="http://www.w3.org/1999/xlink">
<g id="graph0" class="graph" transform="scale(1 1) rotate(0) translate(4 205)">
<title>PackageManagerFancy</title>
<polygon fill="white" stroke="transparent" points="-4,4 -4,-205 131.5,-205 131.5,4 -4,4"/>
<!-- Node1 -->
<g id="node1" class="node">
<title>Node1</title>
<g id="a_node1"><a xlink:title=" ">
<polygon fill="#bfbfbf" stroke="black" points="0,-0.5 0,-19.5 127,-19.5 127,-0.5 0,-0.5"/>
<text text-anchor="middle" x="63.5" y="-7.5" font-family="Helvetica,sans-Serif" font-size="10.00">PackageManagerFancy</text>
</a>
</g>
</g>
<!-- Node2 -->
<g id="node2" class="node">
<title>Node2</title>
<g id="a_node2"><a xlink:href="classAPT_1_1Progress_1_1PackageManager.xhtml" target="_top" xlink:title=" ">
<polygon fill="white" stroke="black" points="14,-57.5 14,-76.5 113,-76.5 113,-57.5 14,-57.5"/>
<text text-anchor="middle" x="63.5" y="-64.5" font-family="Helvetica,sans-Serif" font-size="10.00">PackageManager</text>
</a>
</g>
</g>
<!-- Node2&#45;&gt;Node1 -->
<g id="edge1" class="edge">
<title>Node2&#45;&gt;Node1</title>
<path fill="none" stroke="midnightblue" d="M63.5,-47.12C63.5,-37.82 63.5,-27.06 63.5,-19.71"/>
<polygon fill="midnightblue" stroke="midnightblue" points="60,-47.41 63.5,-57.41 67,-47.41 60,-47.41"/>
</g>
<!-- Node3 -->
<g id="node3" class="node">
<title>Node3</title>
<g id="a_node3"><a xlink:title=" ">
<polygon fill="white" stroke="#bfbfbf" points="41.5,-124.5 41.5,-143.5 85.5,-143.5 85.5,-124.5 41.5,-124.5"/>
<text text-anchor="middle" x="63.5" y="-131.5" font-family="Helvetica,sans-Serif" font-size="10.00">string</text>
</a>
</g>
</g>
<!-- Node3&#45;&gt;Node2 -->
<g id="edge2" class="edge">
<title>Node3&#45;&gt;Node2</title>
<path fill="none" stroke="#9a32cd" stroke-dasharray="5,2" d="M63.5,-114.04C63.5,-101.67 63.5,-86.12 63.5,-76.63"/>
<polygon fill="#9a32cd" stroke="#9a32cd" points="60,-114.23 63.5,-124.23 67,-114.23 60,-114.23"/>
<text text-anchor="middle" x="95.5" y="-98" font-family="Helvetica,sans-Serif" font-size="10.00"> progress_str</text>
</g>
<!-- Node4 -->
<g id="node4" class="node">
<title>Node4</title>
<g id="a_node4"><a xlink:title=" ">
<polygon fill="white" stroke="#bfbfbf" points="3.5,-181.5 3.5,-200.5 123.5,-200.5 123.5,-181.5 3.5,-181.5"/>
<text text-anchor="middle" x="63.5" y="-188.5" font-family="Helvetica,sans-Serif" font-size="10.00">basic_string&lt; Char &gt;</text>
</a>
</g>
</g>
<!-- Node4&#45;&gt;Node3 -->
<g id="edge3" class="edge">
<title>Node4&#45;&gt;Node3</title>
<path fill="none" stroke="midnightblue" d="M63.5,-171.12C63.5,-161.82 63.5,-151.06 63.5,-143.71"/>
<polygon fill="midnightblue" stroke="midnightblue" points="60,-171.41 63.5,-181.41 67,-171.41 60,-171.41"/>
</g>
</g>
</svg>
