<?xml version="1.0" encoding="UTF-8" standalone="no"?>
<!DOCTYPE svg PUBLIC "-//W3C//DTD SVG 1.1//EN"
 "http://www.w3.org/Graphics/SVG/1.1/DTD/svg11.dtd">
<!-- Generated by graphviz version 2.43.0 (0)
 -->
<!-- Title: debSystem Pages: 1 -->
<svg width="200pt" height="152pt"
 viewBox="0.00 0.00 200.00 152.00" xmlns="http://www.w3.org/2000/svg" xmlns:xlink="http://www.w3.org/1999/xlink">
<g id="graph0" class="graph" transform="scale(1 1) rotate(0) translate(4 148)">
<title>debSystem</title>
<polygon fill="white" stroke="transparent" points="-4,4 -4,-148 196,-148 196,4 -4,4"/>
<!-- Node1 -->
<g id="node1" class="node">
<title>Node1</title>
<g id="a_node1"><a xlink:title=" ">
<polygon fill="#bfbfbf" stroke="black" points="25.5,-0.5 25.5,-19.5 96.5,-19.5 96.5,-0.5 25.5,-0.5"/>
<text text-anchor="middle" x="61" y="-7.5" font-family="Helvetica,sans-Serif" font-size="10.00">debSystem</text>
</a>
</g>
</g>
<!-- Node2 -->
<g id="node2" class="node">
<title>Node2</title>
<g id="a_node2"><a xlink:href="classpkgSystem.xhtml" target="_top" xlink:title=" ">
<polygon fill="white" stroke="black" points="25.5,-57.5 25.5,-76.5 96.5,-76.5 96.5,-57.5 25.5,-57.5"/>
<text text-anchor="middle" x="61" y="-64.5" font-family="Helvetica,sans-Serif" font-size="10.00">pkgSystem</text>
</a>
</g>
</g>
<!-- Node2&#45;&gt;Node1 -->
<g id="edge1" class="edge">
<title>Node2&#45;&gt;Node1</title>
<path fill="none" stroke="midnightblue" d="M61,-47.12C61,-37.82 61,-27.06 61,-19.71"/>
<polygon fill="midnightblue" stroke="midnightblue" points="57.5,-47.41 61,-57.41 64.5,-47.41 57.5,-47.41"/>
</g>
<!-- Node2&#45;&gt;Node2 -->
<g id="edge2" class="edge">
<title>Node2&#45;&gt;Node2</title>
<path fill="none" stroke="#9a32cd" stroke-dasharray="5,2" d="M106.78,-71.33C111.49,-70.48 114.5,-69.03 114.5,-67 114.5,-63.75 106.79,-62 96.75,-61.78"/>
<polygon fill="#9a32cd" stroke="#9a32cd" points="106.4,-67.85 96.75,-72.22 107.02,-74.82 106.4,-67.85"/>
<text text-anchor="middle" x="140.5" y="-64.5" font-family="Helvetica,sans-Serif" font-size="10.00"> GlobalList</text>
</g>
<!-- Node3 -->
<g id="node3" class="node">
<title>Node3</title>
<g id="a_node3"><a xlink:href="classpkgVersioningSystem.xhtml" target="_top" xlink:title=" ">
<polygon fill="white" stroke="black" points="0,-124.5 0,-143.5 122,-143.5 122,-124.5 0,-124.5"/>
<text text-anchor="middle" x="61" y="-131.5" font-family="Helvetica,sans-Serif" font-size="10.00">pkgVersioningSystem</text>
</a>
</g>
</g>
<!-- Node3&#45;&gt;Node2 -->
<g id="edge3" class="edge">
<title>Node3&#45;&gt;Node2</title>
<path fill="none" stroke="#9a32cd" stroke-dasharray="5,2" d="M61,-114.04C61,-101.67 61,-86.12 61,-76.63"/>
<polygon fill="#9a32cd" stroke="#9a32cd" points="57.5,-114.23 61,-124.23 64.5,-114.23 57.5,-114.23"/>
<text text-anchor="middle" x="69" y="-98" font-family="Helvetica,sans-Serif" font-size="10.00"> VS</text>
</g>
<!-- Node3&#45;&gt;Node3 -->
<g id="edge4" class="edge">
<title>Node3&#45;&gt;Node3</title>
<path fill="none" stroke="#9a32cd" stroke-dasharray="5,2" d="M132.49,-138.28C137.17,-137.28 140,-135.86 140,-134 140,-131.03 132.75,-129.16 122.28,-128.4"/>
<polygon fill="#9a32cd" stroke="#9a32cd" points="131.74,-134.84 122.28,-139.6 132.65,-141.78 131.74,-134.84"/>
<text text-anchor="middle" x="166" y="-131.5" font-family="Helvetica,sans-Serif" font-size="10.00"> GlobalList</text>
</g>
</g>
</svg>
