<svg xmlns="http://www.w3.org/2000/svg" xmlns:xlink="http://www.w3.org/1999/xlink" id="main" onload="init(evt)" version="1.1" xml:space="preserve"><style type="text/css">.edge:hover path{stroke:red}.edge:hover polygon{stroke:red;fill:red}</style><script type="text/javascript"><![CDATA[
var edges = document.getElementsByTagName('g');
if (edges && edges.length) {
  for (var i=0;i<edges.length;i++) {
    if (edges[i].id.substr(0,4)=='edge') {
      edges[i].setAttribute('class','edge');
    }
  }
}
]]></script><defs><circle id="rim" cx="0" cy="0" r="7"/><circle id="rim2" cx="0" cy="0" r="3.5"/><g id="zoomPlus"><use fill="#404040" xlink:href="#rim"><set attributeName="fill" begin="zoomplus.mouseover" end="zoomplus.mouseout" to="#808080"/></use><path fill="none" stroke="#fff" stroke-width="1.5" d="M-4,0h8M0,-4v8" pointer-events="none"/></g><g id="zoomMin"><use fill="#404040" xlink:href="#rim"><set attributeName="fill" begin="zoomminus.mouseover" end="zoomminus.mouseout" to="#808080"/></use><path fill="none" stroke="#fff" stroke-width="1.5" d="M-4,0h8" pointer-events="none"/></g><g id="dirArrow"><path fill="none" stroke="#fff" stroke-width="1.5" d="M0,-3.0v7 M-2.5,-0.5L0,-3.0L2.5,-0.5"/></g><g id="resetDef"><use fill="#404040" xlink:href="#rim2"><set attributeName="fill" begin="reset.mouseover" end="reset.mouseout" to="#808080"/></use></g></defs><script type="text/javascript">var viewWidth = 752; var viewHeight = 199; var sectionId = &apos;dynsection-0&apos;;</script><script xlink:href="svgpan.js"/><svg id="graph" class="graph"><g id="viewport"><title>pkgDebianIndexRealFile</title><polygon fill="#fff" stroke="transparent" points="-4 4 -4 -195 748 -195 748 4 -4 4"/><g id="node1" class="node"><title>Node1</title><g id="a_node1"><a><polygon fill="#bfbfbf" stroke="#000" points="264 -95.5 264 -114.5 399 -114.5 399 -95.5 264 -95.5"/><text x="331.5" y="-102.5" font-family="Helvetica,sans-Serif" font-size="10" text-anchor="middle">pkgDebianIndexRealFile</text></a></g></g><g id="node4" class="node"><title>Node4</title><g id="a_node4"><a target="_top" xlink:href="classdebDebPkgFileIndex.xhtml"><polygon fill="#fff" stroke="#000" points="442 -171.5 442 -190.5 558 -190.5 558 -171.5 442 -171.5"/><text x="500" y="-178.5" font-family="Helvetica,sans-Serif" font-size="10" text-anchor="middle">debDebPkgFileIndex</text></a></g></g><g id="edge3" class="edge"><title>Node1-&gt;Node4</title><path fill="none" stroke="#191970" d="M355.83,-119.91C376.13,-132.42 406.68,-150.09 435,-162 443.44,-165.55 452.77,-168.72 461.63,-171.4"/><polygon fill="#191970" stroke="#191970" points="357.6 -116.89 347.26 -114.57 353.89 -122.83 357.6 -116.89"/></g><g id="node5" class="node"><title>Node5</title><g id="a_node5"><a target="_top" xlink:href="classdebDscFileIndex.xhtml"><polygon fill="#fff" stroke="#000" points="451.5 -133.5 451.5 -152.5 548.5 -152.5 548.5 -133.5 451.5 -133.5"/><text x="500" y="-140.5" font-family="Helvetica,sans-Serif" font-size="10" text-anchor="middle">debDscFileIndex</text></a></g></g><g id="edge4" class="edge"><title>Node1-&gt;Node5</title><path fill="none" stroke="#191970" d="M384.31,-116.82C407.78,-122.18 435.17,-128.43 457.29,-133.48"/><polygon fill="#191970" stroke="#191970" points="385.04 -113.4 374.51 -114.59 383.49 -120.23 385.04 -113.4"/></g><g id="node7" class="node"><title>Node7</title><g id="a_node7"><a target="_top" xlink:href="classdebStatusIndex.xhtml"><polygon fill="#fff" stroke="#000" points="454 -95.5 454 -114.5 546 -114.5 546 -95.5 454 -95.5"/><text x="500" y="-102.5" font-family="Helvetica,sans-Serif" font-size="10" text-anchor="middle">debStatusIndex</text></a></g></g><g id="edge6" class="edge"><title>Node1-&gt;Node7</title><path fill="none" stroke="#191970" d="M409.63,-105C424.71,-105 440.06,-105 453.69,-105"/><polygon fill="#191970" stroke="#191970" points="409.26 -101.5 399.26 -105 409.26 -108.5 409.26 -101.5"/></g><g id="node8" class="node"><title>Node8</title><g id="a_node8"><a target="_top" xlink:href="classdebStringPackageIndex.xhtml"><polygon fill="#fff" stroke="#000" points="435 -57.5 435 -76.5 565 -76.5 565 -57.5 435 -57.5"/><text x="500" y="-64.5" font-family="Helvetica,sans-Serif" font-size="10" text-anchor="middle">debStringPackageIndex</text></a></g></g><g id="edge7" class="edge"><title>Node1-&gt;Node8</title><path fill="none" stroke="#191970" d="M384.31,-93.18C407.78,-87.82 435.17,-81.57 457.29,-76.52"/><polygon fill="#191970" stroke="#191970" points="383.49 -89.77 374.51 -95.41 385.04 -96.6 383.49 -89.77"/></g><g id="node9" class="node"><title>Node9</title><g id="a_node9"><a target="_top" xlink:href="classedspLikeIndex.xhtml"><polygon fill="#fff" stroke="#000" points="457 -19.5 457 -38.5 543 -38.5 543 -19.5 457 -19.5"/><text x="500" y="-26.5" font-family="Helvetica,sans-Serif" font-size="10" text-anchor="middle">edspLikeIndex</text></a></g></g><g id="edge8" class="edge"><title>Node1-&gt;Node9</title><path fill="none" stroke="#191970" d="M355.83,-90.09C376.13,-77.58 406.68,-59.91 435,-48 443.44,-44.45 452.77,-41.28 461.63,-38.6"/><polygon fill="#191970" stroke="#191970" points="353.89 -87.17 347.26 -95.43 357.6 -93.11 353.89 -87.17"/></g><g id="node2" class="node"><title>Node2</title><g id="a_node2"><a target="_top" xlink:href="classpkgDebianIndexFile.xhtml"><polygon fill="#fff" stroke="#000" points="115 -95.5 115 -114.5 228 -114.5 228 -95.5 115 -95.5"/><text x="171.5" y="-102.5" font-family="Helvetica,sans-Serif" font-size="10" text-anchor="middle">pkgDebianIndexFile</text></a></g></g><g id="edge1" class="edge"><title>Node2-&gt;Node1</title><path fill="none" stroke="#191970" d="M238.38,-105C246.82,-105 255.47,-105 263.93,-105"/><polygon fill="#191970" stroke="#191970" points="238.2 -101.5 228.2 -105 238.2 -108.5 238.2 -101.5"/></g><g id="node3" class="node"><title>Node3</title><g id="a_node3"><a target="_top" xlink:href="classpkgIndexFile.xhtml"><polygon fill="#fff" stroke="#000" points="0 -95.5 0 -114.5 79 -114.5 79 -95.5 0 -95.5"/><text x="39.5" y="-102.5" font-family="Helvetica,sans-Serif" font-size="10" text-anchor="middle">pkgIndexFile</text></a></g></g><g id="edge2" class="edge"><title>Node3-&gt;Node2</title><path fill="none" stroke="#191970" d="M89.16,-105C97.56,-105 106.35,-105 114.92,-105"/><polygon fill="#191970" stroke="#191970" points="89.15 -101.5 79.15 -105 89.15 -108.5 89.15 -101.5"/></g><g id="node6" class="node"><title>Node6</title><g id="a_node6"><a target="_top" xlink:href="classdebDebianSourceDirIndex.xhtml"><polygon fill="#fff" stroke="#000" points="601 -133.5 601 -152.5 744 -152.5 744 -133.5 601 -133.5"/><text x="672.5" y="-140.5" font-family="Helvetica,sans-Serif" font-size="10" text-anchor="middle">debDebianSourceDirIndex</text></a></g></g><g id="edge5" class="edge"><title>Node5-&gt;Node6</title><path fill="none" stroke="#191970" d="M558.98,-143C572.38,-143 586.8,-143 600.68,-143"/><polygon fill="#191970" stroke="#191970" points="558.95 -139.5 548.95 -143 558.95 -146.5 558.95 -139.5"/></g><g id="node10" class="node"><title>Node10</title><g id="a_node10"><a target="_top" xlink:href="classedspIndex.xhtml"><polygon fill="#fff" stroke="#000" points="639 -38.5 639 -57.5 706 -57.5 706 -38.5 639 -38.5"/><text x="672.5" y="-45.5" font-family="Helvetica,sans-Serif" font-size="10" text-anchor="middle">edspIndex</text></a></g></g><g id="edge9" class="edge"><title>Node9-&gt;Node10</title><path fill="none" stroke="#191970" d="M553.16,-34.81C581.12,-37.93 614.69,-41.67 638.92,-44.37"/><polygon fill="#191970" stroke="#191970" points="553.47 -31.33 543.15 -33.7 552.7 -38.28 553.47 -31.33"/></g><g id="node11" class="node"><title>Node11</title><g id="a_node11"><a target="_top" xlink:href="classeippIndex.xhtml"><polygon fill="#fff" stroke="#000" points="640 -.5 640 -19.5 705 -19.5 705 -.5 640 -.5"/><text x="672.5" y="-7.5" font-family="Helvetica,sans-Serif" font-size="10" text-anchor="middle">eippIndex</text></a></g></g><g id="edge10" class="edge"><title>Node9-&gt;Node11</title><path fill="none" stroke="#191970" d="M553.27,-23.18C581.51,-20.03 615.47,-16.24 639.73,-13.54"/><polygon fill="#191970" stroke="#191970" points="552.7 -19.72 543.15 -24.3 553.47 -26.67 552.7 -19.72"/></g></g></svg><g id="navigator" fill="#404254" transform="translate(0 0)"><rect width="60" height="60" x="0" y="0" fill="#f2f5e9" fill-opacity=".5" stroke="#606060" stroke-width=".5"/><use id="zoomplus" x="17" y="9" onmousedown="handleZoom(evt,'in')" xlink:href="#zoomPlus"/><use id="zoomminus" x="42" y="9" onmousedown="handleZoom(evt,'out')" xlink:href="#zoomMin"/><use id="reset" x="30" y="36" onmousedown="handleReset()" xlink:href="#resetDef"/><g id="arrowUp" onmousedown="handlePan(0,-1)" transform="translate(30 24)" xlink:href="#dirArrow"><use fill="#404040" xlink:href="#rim"><set attributeName="fill" begin="arrowUp.mouseover" end="arrowUp.mouseout" to="#808080"/></use><path fill="none" stroke="#fff" stroke-width="1.5" d="M0,-3.0v7 M-2.5,-0.5L0,-3.0L2.5,-0.5"/></g><g id="arrowRight" onmousedown="handlePan(1,0)" transform="rotate(90) translate(36 -43)" xlink:href="#dirArrow"><use fill="#404040" xlink:href="#rim"><set attributeName="fill" begin="arrowRight.mouseover" end="arrowRight.mouseout" to="#808080"/></use><path fill="none" stroke="#fff" stroke-width="1.5" d="M0,-3.0v7 M-2.5,-0.5L0,-3.0L2.5,-0.5"/></g><g id="arrowDown" onmousedown="handlePan(0,1)" transform="rotate(180) translate(-30 -48)" xlink:href="#dirArrow"><use fill="#404040" xlink:href="#rim"><set attributeName="fill" begin="arrowDown.mouseover" end="arrowDown.mouseout" to="#808080"/></use><path fill="none" stroke="#fff" stroke-width="1.5" d="M0,-3.0v7 M-2.5,-0.5L0,-3.0L2.5,-0.5"/></g><g id="arrowLeft" onmousedown="handlePan(-1,0)" transform="rotate(270) translate(-36 17)" xlink:href="#dirArrow"><use fill="#404040" xlink:href="#rim"><set attributeName="fill" begin="arrowLeft.mouseover" end="arrowLeft.mouseout" to="#808080"/></use><path fill="none" stroke="#fff" stroke-width="1.5" d="M0,-3.0v7 M-2.5,-0.5L0,-3.0L2.5,-0.5"/></g></g><svg width="100%" height="30" preserveAspectRatio="xMaxYMin meet" viewBox="0 0 15 15"><g id="arrow_out" transform="scale(0.3 0.3)"><a target="_base" xlink:href="classpkgDebianIndexRealFile__inherit__graph_org.svg"><rect id="button" width="38" height="38" x="6" y="6" fill="#f2f5e9" fill-opacity=".5" stroke="#606060" stroke-width="1" rx="5" ry="5"/><path id="arrow" d="M 11.500037,31.436501 C 11.940474,20.09759 22.043105,11.32322 32.158766,21.979434 L 37.068811,17.246167 C 37.068811,17.246167 37.088388,32 37.088388,32 L 22.160133,31.978069 C 22.160133,31.978069 26.997745,27.140456 26.997745,27.140456 C 18.528582,18.264221 13.291696,25.230495 11.500037,31.436501 z" style="fill:#404040"/></a></g></svg></svg>