<?xml version="1.0" encoding="UTF-8" standalone="no"?>
<!DOCTYPE svg PUBLIC "-//W3C//DTD SVG 1.1//EN"
 "http://www.w3.org/Graphics/SVG/1.1/DTD/svg11.dtd">
<!-- Generated by graphviz version 2.43.0 (0)
 -->
<!-- Title: pkgDebianIndexTargetFile Pages: 1 -->
<svg width="356pt" height="321pt"
 viewBox="0.00 0.00 356.00 321.00" xmlns="http://www.w3.org/2000/svg" xmlns:xlink="http://www.w3.org/1999/xlink">
<g id="graph0" class="graph" transform="scale(1 1) rotate(0) translate(4 317)">
<title>pkgDebianIndexTargetFile</title>
<polygon fill="white" stroke="transparent" points="-4,4 -4,-317 352,-317 352,4 -4,4"/>
<!-- Node1 -->
<g id="node1" class="node">
<title>Node1</title>
<g id="a_node1"><a xlink:title=" ">
<polygon fill="#bfbfbf" stroke="black" points="40,-0.5 40,-19.5 183,-19.5 183,-0.5 40,-0.5"/>
<text text-anchor="middle" x="111.5" y="-7.5" font-family="Helvetica,sans-Serif" font-size="10.00">pkgDebianIndexTargetFile</text>
</a>
</g>
</g>
<!-- Node2 -->
<g id="node2" class="node">
<title>Node2</title>
<g id="a_node2"><a xlink:href="classpkgDebianIndexFile.xhtml" target="_top" xlink:title=" ">
<polygon fill="white" stroke="black" points="0,-67.5 0,-86.5 113,-86.5 113,-67.5 0,-67.5"/>
<text text-anchor="middle" x="56.5" y="-74.5" font-family="Helvetica,sans-Serif" font-size="10.00">pkgDebianIndexFile</text>
</a>
</g>
</g>
<!-- Node2&#45;&gt;Node1 -->
<g id="edge1" class="edge">
<title>Node2&#45;&gt;Node1</title>
<path fill="none" stroke="midnightblue" d="M70.66,-59.27C81.38,-46.6 95.68,-29.7 104.2,-19.63"/>
<polygon fill="midnightblue" stroke="midnightblue" points="67.71,-57.34 63.92,-67.23 73.05,-61.86 67.71,-57.34"/>
</g>
<!-- Node3 -->
<g id="node3" class="node">
<title>Node3</title>
<g id="a_node3"><a xlink:href="classpkgIndexFile.xhtml" target="_top" xlink:title=" ">
<polygon fill="white" stroke="black" points="17,-146.5 17,-165.5 96,-165.5 96,-146.5 17,-146.5"/>
<text text-anchor="middle" x="56.5" y="-153.5" font-family="Helvetica,sans-Serif" font-size="10.00">pkgIndexFile</text>
</a>
</g>
</g>
<!-- Node3&#45;&gt;Node2 -->
<g id="edge2" class="edge">
<title>Node3&#45;&gt;Node2</title>
<path fill="none" stroke="midnightblue" d="M56.5,-136.31C56.5,-120.59 56.5,-98.81 56.5,-86.81"/>
<polygon fill="midnightblue" stroke="midnightblue" points="53,-136.47 56.5,-146.47 60,-136.47 53,-136.47"/>
</g>
<!-- Node4 -->
<g id="node4" class="node">
<title>Node4</title>
<g id="a_node4"><a xlink:href="classIndexTarget.xhtml" target="_top" xlink:title="Information about an index file.">
<polygon fill="white" stroke="black" points="131.5,-67.5 131.5,-86.5 205.5,-86.5 205.5,-67.5 131.5,-67.5"/>
<text text-anchor="middle" x="168.5" y="-74.5" font-family="Helvetica,sans-Serif" font-size="10.00">IndexTarget</text>
</a>
</g>
</g>
<!-- Node4&#45;&gt;Node1 -->
<g id="edge3" class="edge">
<title>Node4&#45;&gt;Node1</title>
<path fill="none" stroke="#9a32cd" stroke-dasharray="5,2" d="M154.15,-59.63C143,-46.92 127.98,-29.8 119.07,-19.63"/>
<polygon fill="#9a32cd" stroke="#9a32cd" points="151.59,-62.02 160.81,-67.23 156.85,-57.41 151.59,-62.02"/>
<text text-anchor="middle" x="159.5" y="-41" font-family="Helvetica,sans-Serif" font-size="10.00"> Target</text>
</g>
<!-- Node5 -->
<g id="node5" class="node">
<title>Node5</title>
<g id="a_node5"><a xlink:title=" ">
<polygon fill="white" stroke="#bfbfbf" points="229,-141 229,-171 348,-171 348,-141 229,-141"/>
<text text-anchor="start" x="237" y="-159" font-family="Helvetica,sans-Serif" font-size="10.00">map&lt; std::string, std</text>
<text text-anchor="middle" x="288.5" y="-148" font-family="Helvetica,sans-Serif" font-size="10.00">::string &gt;</text>
</a>
</g>
</g>
<!-- Node5&#45;&gt;Node4 -->
<g id="edge4" class="edge">
<title>Node5&#45;&gt;Node4</title>
<path fill="none" stroke="#9a32cd" stroke-dasharray="5,2" d="M257.88,-135.35C233.33,-119.6 200.05,-98.25 181.82,-86.55"/>
<polygon fill="#9a32cd" stroke="#9a32cd" points="256.18,-138.42 266.49,-140.88 259.96,-132.53 256.18,-138.42"/>
<text text-anchor="middle" x="245" y="-108" font-family="Helvetica,sans-Serif" font-size="10.00"> Options</text>
</g>
<!-- Node6 -->
<g id="node6" class="node">
<title>Node6</title>
<g id="a_node6"><a xlink:title=" ">
<polygon fill="white" stroke="#bfbfbf" points="145.5,-236.5 145.5,-255.5 189.5,-255.5 189.5,-236.5 145.5,-236.5"/>
<text text-anchor="middle" x="167.5" y="-243.5" font-family="Helvetica,sans-Serif" font-size="10.00">string</text>
</a>
</g>
</g>
<!-- Node6&#45;&gt;Node4 -->
<g id="edge7" class="edge">
<title>Node6&#45;&gt;Node4</title>
<path fill="none" stroke="#9a32cd" stroke-dasharray="5,2" d="M165.17,-226.38C162.72,-204.32 159.48,-166.48 161.5,-134 162.55,-117.18 165.35,-97.68 167.07,-86.7"/>
<polygon fill="#9a32cd" stroke="#9a32cd" points="161.7,-226.84 166.35,-236.36 168.65,-226.02 161.7,-226.84"/>
<text text-anchor="middle" x="191" y="-170" font-family="Helvetica,sans-Serif" font-size="10.00"> Description</text>
<text text-anchor="middle" x="191" y="-159" font-family="Helvetica,sans-Serif" font-size="10.00">MetaKey</text>
<text text-anchor="middle" x="191" y="-148" font-family="Helvetica,sans-Serif" font-size="10.00">ShortDesc</text>
<text text-anchor="middle" x="191" y="-137" font-family="Helvetica,sans-Serif" font-size="10.00">URI</text>
</g>
<!-- Node6&#45;&gt;Node5 -->
<g id="edge5" class="edge">
<title>Node6&#45;&gt;Node5</title>
<path fill="none" stroke="#9a32cd" stroke-dasharray="5,2" d="M187.75,-230.27C210.35,-213.83 246.66,-187.43 268.96,-171.21"/>
<polygon fill="#9a32cd" stroke="#9a32cd" points="185.57,-227.53 179.54,-236.24 189.69,-233.19 185.57,-227.53"/>
<text text-anchor="middle" x="256" y="-210" font-family="Helvetica,sans-Serif" font-size="10.00"> elements</text>
<text text-anchor="middle" x="256" y="-199" font-family="Helvetica,sans-Serif" font-size="10.00">keys</text>
</g>
<!-- Node7 -->
<g id="node7" class="node">
<title>Node7</title>
<g id="a_node7"><a xlink:title=" ">
<polygon fill="white" stroke="#bfbfbf" points="107.5,-293.5 107.5,-312.5 227.5,-312.5 227.5,-293.5 107.5,-293.5"/>
<text text-anchor="middle" x="167.5" y="-300.5" font-family="Helvetica,sans-Serif" font-size="10.00">basic_string&lt; Char &gt;</text>
</a>
</g>
</g>
<!-- Node7&#45;&gt;Node6 -->
<g id="edge6" class="edge">
<title>Node7&#45;&gt;Node6</title>
<path fill="none" stroke="midnightblue" d="M167.5,-283.12C167.5,-273.82 167.5,-263.06 167.5,-255.71"/>
<polygon fill="midnightblue" stroke="midnightblue" points="164,-283.41 167.5,-293.41 171,-283.41 164,-283.41"/>
</g>
</g>
</svg>
