<svg xmlns="http://www.w3.org/2000/svg" xmlns:xlink="http://www.w3.org/1999/xlink" width="151pt" height="336" viewBox="0 0 151 252"><g id="graph0" class="graph" transform="scale(1 1) rotate(0) translate(4 248)"><title>debDscFileIndex</title><polygon fill="#fff" stroke="transparent" points="-4 4 -4 -248 147 -248 147 4 -4 4"/><g id="node1" class="node"><title>Node1</title><g id="a_node1"><a><polygon fill="#bfbfbf" stroke="#000" points="23 -56.5 23 -75.5 120 -75.5 120 -56.5 23 -56.5"/><text x="71.5" y="-63.5" font-family="Helvetica,sans-Serif" font-size="10" text-anchor="middle">debDscFileIndex</text></a></g></g><g id="node5" class="node"><title>Node5</title><g id="a_node5"><a target="_top" xlink:href="classdebDebianSourceDirIndex.xhtml"><polygon fill="#fff" stroke="#000" points="0 -.5 0 -19.5 143 -19.5 143 -.5 0 -.5"/><text x="71.5" y="-7.5" font-family="Helvetica,sans-Serif" font-size="10" text-anchor="middle">debDebianSourceDirIndex</text></a></g></g><g id="edge4" class="edge"><title>Node1-&gt;Node5</title><path fill="none" stroke="#191970" d="M71.5,-45.8C71.5,-36.91 71.5,-26.78 71.5,-19.75"/><polygon fill="#191970" stroke="#191970" points="68 -46.08 71.5 -56.08 75 -46.08 68 -46.08"/></g><g id="node2" class="node"><title>Node2</title><g id="a_node2"><a target="_top" xlink:href="classpkgDebianIndexRealFile.xhtml"><polygon fill="#fff" stroke="#000" points="4 -112.5 4 -131.5 139 -131.5 139 -112.5 4 -112.5"/><text x="71.5" y="-119.5" font-family="Helvetica,sans-Serif" font-size="10" text-anchor="middle">pkgDebianIndexRealFile</text></a></g></g><g id="edge1" class="edge"><title>Node2-&gt;Node1</title><path fill="none" stroke="#191970" d="M71.5,-101.8C71.5,-92.91 71.5,-82.78 71.5,-75.75"/><polygon fill="#191970" stroke="#191970" points="68 -102.08 71.5 -112.08 75 -102.08 68 -102.08"/></g><g id="node3" class="node"><title>Node3</title><g id="a_node3"><a target="_top" xlink:href="classpkgDebianIndexFile.xhtml"><polygon fill="#fff" stroke="#000" points="15 -168.5 15 -187.5 128 -187.5 128 -168.5 15 -168.5"/><text x="71.5" y="-175.5" font-family="Helvetica,sans-Serif" font-size="10" text-anchor="middle">pkgDebianIndexFile</text></a></g></g><g id="edge2" class="edge"><title>Node3-&gt;Node2</title><path fill="none" stroke="#191970" d="M71.5,-157.8C71.5,-148.91 71.5,-138.78 71.5,-131.75"/><polygon fill="#191970" stroke="#191970" points="68 -158.08 71.5 -168.08 75 -158.08 68 -158.08"/></g><g id="node4" class="node"><title>Node4</title><g id="a_node4"><a target="_top" xlink:href="classpkgIndexFile.xhtml"><polygon fill="#fff" stroke="#000" points="32 -224.5 32 -243.5 111 -243.5 111 -224.5 32 -224.5"/><text x="71.5" y="-231.5" font-family="Helvetica,sans-Serif" font-size="10" text-anchor="middle">pkgIndexFile</text></a></g></g><g id="edge3" class="edge"><title>Node4-&gt;Node3</title><path fill="none" stroke="#191970" d="M71.5,-213.8C71.5,-204.91 71.5,-194.78 71.5,-187.75"/><polygon fill="#191970" stroke="#191970" points="68 -214.08 71.5 -224.08 75 -214.08 68 -214.08"/></g></g></svg>