<svg xmlns="http://www.w3.org/2000/svg" xmlns:xlink="http://www.w3.org/1999/xlink" width="160" height="196pt" viewBox="0 0 120 196"><g id="graph0" class="graph" transform="scale(1 1) rotate(0) translate(4 192)"><title>edspListParser</title><polygon fill="#fff" stroke="transparent" points="-4 4 -4 -192 116 -192 116 4 -4 4"/><g id="node1" class="node"><title>Node1</title><g id="a_node1"><a><polygon fill="#bfbfbf" stroke="#000" points="12.5 -.5 12.5 -19.5 99.5 -19.5 99.5 -.5 12.5 -.5"/><text x="56" y="-7.5" font-family="Helvetica,sans-Serif" font-size="10" text-anchor="middle">edspListParser</text></a></g></g><g id="node2" class="node"><title>Node2</title><g id="a_node2"><a target="_top" xlink:href="classedspLikeListParser.xhtml"><polygon fill="#fff" stroke="#000" points="2.5 -56.5 2.5 -75.5 109.5 -75.5 109.5 -56.5 2.5 -56.5"/><text x="56" y="-63.5" font-family="Helvetica,sans-Serif" font-size="10" text-anchor="middle">edspLikeListParser</text></a></g></g><g id="edge1" class="edge"><title>Node2-&gt;Node1</title><path fill="none" stroke="#191970" d="M56,-45.8C56,-36.91 56,-26.78 56,-19.75"/><polygon fill="#191970" stroke="#191970" points="52.5 -46.08 56 -56.08 59.5 -46.08 52.5 -46.08"/></g><g id="node3" class="node"><title>Node3</title><g id="a_node3"><a target="_top" xlink:href="classdebListParser.xhtml"><polygon fill="#fff" stroke="#000" points="15 -112.5 15 -131.5 97 -131.5 97 -112.5 15 -112.5"/><text x="56" y="-119.5" font-family="Helvetica,sans-Serif" font-size="10" text-anchor="middle">debListParser</text></a></g></g><g id="edge2" class="edge"><title>Node3-&gt;Node2</title><path fill="none" stroke="#191970" d="M56,-101.8C56,-92.91 56,-82.78 56,-75.75"/><polygon fill="#191970" stroke="#191970" points="52.5 -102.08 56 -112.08 59.5 -102.08 52.5 -102.08"/></g><g id="node4" class="node"><title>Node4</title><g id="a_node4"><a target="_top" xlink:href="classpkgCacheListParser.xhtml"><polygon fill="#fff" stroke="#000" points="0 -168.5 0 -187.5 112 -187.5 112 -168.5 0 -168.5"/><text x="56" y="-175.5" font-family="Helvetica,sans-Serif" font-size="10" text-anchor="middle">pkgCacheListParser</text></a></g></g><g id="edge3" class="edge"><title>Node4-&gt;Node3</title><path fill="none" stroke="#191970" d="M56,-157.8C56,-148.91 56,-138.78 56,-131.75"/><polygon fill="#191970" stroke="#191970" points="52.5 -158.08 56 -168.08 59.5 -158.08 52.5 -158.08"/></g></g></svg>