<svg xmlns="http://www.w3.org/2000/svg" xmlns:xlink="http://www.w3.org/1999/xlink" id="main" onload="init(evt)" version="1.1" xml:space="preserve"><style type="text/css">.edge:hover path{stroke:red}.edge:hover polygon{stroke:red;fill:red}</style><script type="text/javascript"><![CDATA[
var edges = document.getElementsByTagName('g');
if (edges && edges.length) {
  for (var i=0;i<edges.length;i++) {
    if (edges[i].id.substr(0,4)=='edge') {
      edges[i].setAttribute('class','edge');
    }
  }
}
]]></script><defs><circle id="rim" cx="0" cy="0" r="7"/><circle id="rim2" cx="0" cy="0" r="3.5"/><g id="zoomPlus"><use fill="#404040" xlink:href="#rim"><set attributeName="fill" begin="zoomplus.mouseover" end="zoomplus.mouseout" to="#808080"/></use><path fill="none" stroke="#fff" stroke-width="1.5" d="M-4,0h8M0,-4v8" pointer-events="none"/></g><g id="zoomMin"><use fill="#404040" xlink:href="#rim"><set attributeName="fill" begin="zoomminus.mouseover" end="zoomminus.mouseout" to="#808080"/></use><path fill="none" stroke="#fff" stroke-width="1.5" d="M-4,0h8" pointer-events="none"/></g><g id="dirArrow"><path fill="none" stroke="#fff" stroke-width="1.5" d="M0,-3.0v7 M-2.5,-0.5L0,-3.0L2.5,-0.5"/></g><g id="resetDef"><use fill="#404040" xlink:href="#rim2"><set attributeName="fill" begin="reset.mouseover" end="reset.mouseout" to="#808080"/></use></g></defs><script type="text/javascript">var viewWidth = 474; var viewHeight = 586; var sectionId = &apos;dynsection-1&apos;;</script><script xlink:href="svgpan.js"/><svg id="graph" class="graph"><g id="viewport"><title>pkgAcqArchive</title><polygon fill="#fff" stroke="transparent" points="-4 4 -4 -582 470 -582 470 4 -4 4"/><g id="node1" class="node"><title>Node1</title><g id="a_node1"><a xlink:title="An item that is responsible for fetching a package file. {{{."><polygon fill="#bfbfbf" stroke="#000" points="52 -.5 52 -19.5 141 -19.5 141 -.5 52 -.5"/><text x="96.5" y="-7.5" font-family="Helvetica,sans-Serif" font-size="10" text-anchor="middle">pkgAcqArchive</text></a></g></g><g id="node2" class="node"><title>Node2</title><g id="a_node2"><a><polygon fill="#fff" stroke="#bfbfbf" points="0 -67.5 0 -86.5 39 -86.5 39 -67.5 0 -67.5"/><text x="19.5" y="-74.5" font-family="Helvetica,sans-Serif" font-size="10" text-anchor="middle">Item</text></a></g></g><g id="edge1" class="edge"><title>Node2-&gt;Node1</title><path fill="none" stroke="#191970" d="M32.85,-59.09C38.77,-52.13 46.08,-44.26 53.5,-38 61.85,-30.95 72.2,-24.4 80.66,-19.51"/><polygon fill="#191970" stroke="#191970" points="29.82 -57.26 26.18 -67.21 35.23 -61.7 29.82 -57.26"/></g><g id="node3" class="node"><title>Node3</title><g id="a_node3"><a><polygon fill="#fff" stroke="#bfbfbf" points="168.5 -501.5 168.5 -520.5 212.5 -520.5 212.5 -501.5 168.5 -501.5"/><text x="190.5" y="-508.5" font-family="Helvetica,sans-Serif" font-size="10" text-anchor="middle">string</text></a></g></g><g id="edge2" class="edge"><title>Node3-&gt;Node1</title><path fill="none" stroke="#9a32cd" stroke-dasharray="5 2" d="M158.02,-506.8C121.58,-501.2 67.5,-486 67.5,-445 67.5,-445 67.5,-445 67.5,-76 67.5,-54.25 81.21,-31.68 89.77,-19.7"/><polygon fill="#9a32cd" stroke="#9a32cd" points="157.84 -510.31 168.23 -508.19 158.79 -503.37 157.84 -510.31"/><text x="104.5" y="-208.5" font-family="Helvetica,sans-Serif" font-size="10" text-anchor="middle">StoreFilename</text></g><g id="node7" class="node"><title>Node7</title><g id="a_node7"><a target="_top" xlink:href="classmetaIndex.xhtml"><polygon fill="#fff" stroke="#000" points="164 -201.5 164 -220.5 233 -220.5 233 -201.5 164 -201.5"/><text x="198.5" y="-208.5" font-family="Helvetica,sans-Serif" font-size="10" text-anchor="middle">metaIndex</text></a></g></g><g id="edge9" class="edge"><title>Node3-&gt;Node7</title><path fill="none" stroke="#9a32cd" stroke-dasharray="5 2" d="M177.88,-493.23C169.79,-482.25 159.2,-467.49 150.5,-454 105.28,-383.84 87.33,-342.74 124.5,-268 135.69,-245.5 160.72,-229.62 178.57,-220.66"/><polygon fill="#9a32cd" stroke="#9a32cd" points="175.22 -495.52 184 -501.45 180.84 -491.34 175.22 -495.52"/><text x="161.5" y="-408" font-family="Helvetica,sans-Serif" font-size="10" text-anchor="middle">Codename</text><text x="161.5" y="-397" font-family="Helvetica,sans-Serif" font-size="10" text-anchor="middle">Dist</text><text x="161.5" y="-386" font-family="Helvetica,sans-Serif" font-size="10" text-anchor="middle">Label</text><text x="161.5" y="-375" font-family="Helvetica,sans-Serif" font-size="10" text-anchor="middle">Origin</text><text x="161.5" y="-364" font-family="Helvetica,sans-Serif" font-size="10" text-anchor="middle">ReleaseNotes</text><text x="161.5" y="-353" font-family="Helvetica,sans-Serif" font-size="10" text-anchor="middle">SignedBy</text><text x="161.5" y="-342" font-family="Helvetica,sans-Serif" font-size="10" text-anchor="middle">Suite</text><text x="161.5" y="-331" font-family="Helvetica,sans-Serif" font-size="10" text-anchor="middle">URI</text><text x="161.5" y="-320" font-family="Helvetica,sans-Serif" font-size="10" text-anchor="middle">Version</text></g><g id="node10" class="node"><title>Node10</title><g id="a_node10"><a><polygon fill="#fff" stroke="#bfbfbf" points="292 -268.5 292 -298.5 449 -298.5 449 -268.5 292 -268.5"/><text x="300" y="-286.5" font-family="Helvetica,sans-Serif" font-size="10" text-anchor="start">map&lt; std::string, metaIndex</text><text x="370.5" y="-275.5" font-family="Helvetica,sans-Serif" font-size="10" text-anchor="middle">::checkSum * &gt;</text></a></g></g><g id="edge11" class="edge"><title>Node3-&gt;Node10</title><path fill="none" stroke="#9a32cd" stroke-dasharray="5 2" d="M207.67,-494.55C219.39,-483.67 235,-468.52 247.5,-454 294.24,-399.73 341.88,-328.61 361.36,-298.71"/><polygon fill="#9a32cd" stroke="#9a32cd" points="205.27 -492 200.27 -501.34 210 -497.16 205.27 -492"/><text x="277.5" y="-441.5" font-family="Helvetica,sans-Serif" font-size="10" text-anchor="middle">keys</text></g><g id="node11" class="node"><title>Node11</title><g id="a_node11"><a target="_top" xlink:href="structmetaIndex_1_1checkSum.xhtml"><polygon fill="#fff" stroke="#000" points="337 -434.5 337 -453.5 404 -453.5 404 -434.5 337 -434.5"/><text x="370.5" y="-441.5" font-family="Helvetica,sans-Serif" font-size="10" text-anchor="middle">checkSum</text></a></g></g><g id="edge14" class="edge"><title>Node3-&gt;Node11</title><path fill="none" stroke="#9a32cd" stroke-dasharray="5 2" d="M222.7,-503.08C241.67,-498.48 265.91,-491.69 286.5,-483 295.49,-479.2 296.75,-476.33 305.5,-472 319.3,-465.18 335.26,-458.53 347.92,-453.54"/><polygon fill="#9a32cd" stroke="#9a32cd" points="221.7 -499.72 212.76 -505.41 223.3 -506.54 221.7 -499.72"/><text x="351" y="-475" font-family="Helvetica,sans-Serif" font-size="10" text-anchor="middle">MetaKeyFilename</text></g><g id="node4" class="node"><title>Node4</title><g id="a_node4"><a><polygon fill="#fff" stroke="#bfbfbf" points="130.5 -558.5 130.5 -577.5 250.5 -577.5 250.5 -558.5 130.5 -558.5"/><text x="190.5" y="-565.5" font-family="Helvetica,sans-Serif" font-size="10" text-anchor="middle">basic_string&lt; Char &gt;</text></a></g></g><g id="edge3" class="edge"><title>Node4-&gt;Node3</title><path fill="none" stroke="#191970" d="M190.5,-548.12C190.5,-538.82 190.5,-528.06 190.5,-520.71"/><polygon fill="#191970" stroke="#191970" points="187 -548.41 190.5 -558.41 194 -548.41 187 -548.41"/></g><g id="node5" class="node"><title>Node5</title><g id="a_node5"><a target="_top" xlink:href="classpkgSourceList.xhtml"><polygon fill="#fff" stroke="#000" points="102 -67.5 102 -86.5 187 -86.5 187 -67.5 102 -67.5"/><text x="144.5" y="-74.5" font-family="Helvetica,sans-Serif" font-size="10" text-anchor="middle">pkgSourceList</text></a></g></g><g id="edge4" class="edge"><title>Node5-&gt;Node1</title><path fill="none" stroke="#9a32cd" stroke-dasharray="5 2" d="M131.88,-58.9C122.55,-46.27 110.24,-29.6 102.87,-19.63"/><polygon fill="#9a32cd" stroke="#9a32cd" points="129.27 -61.27 138.03 -67.23 134.9 -57.11 129.27 -61.27"/><text x="144.5" y="-41" font-family="Helvetica,sans-Serif" font-size="10" text-anchor="middle">Sources</text></g><g id="node6" class="node"><title>Node6</title><g id="a_node6"><a><polygon fill="#fff" stroke="#bfbfbf" points="96 -134.5 96 -153.5 227 -153.5 227 -134.5 96 -134.5"/><text x="161.5" y="-141.5" font-family="Helvetica,sans-Serif" font-size="10" text-anchor="middle">vector&lt; metaIndex * &gt;</text></a></g></g><g id="edge5" class="edge"><title>Node6-&gt;Node5</title><path fill="none" stroke="#9a32cd" stroke-dasharray="5 2" d="M156.64,-124.41C153.39,-111.99 149.26,-96.22 146.76,-86.63"/><polygon fill="#9a32cd" stroke="#9a32cd" points="153.29 -125.44 159.21 -134.23 160.06 -123.67 153.29 -125.44"/><text x="172.5" y="-108" font-family="Helvetica,sans-Serif" font-size="10" text-anchor="middle">SrcList</text></g><g id="edge6" class="edge"><title>Node7-&gt;Node6</title><path fill="none" stroke="#9a32cd" stroke-dasharray="5 2" d="M188.56,-192.53C181.39,-179.95 172.03,-163.51 166.41,-153.63"/><polygon fill="#9a32cd" stroke="#9a32cd" points="185.52 -194.27 193.51 -201.23 191.6 -190.81 185.52 -194.27"/><text x="207" y="-175" font-family="Helvetica,sans-Serif" font-size="10" text-anchor="middle">elements</text></g><g id="node8" class="node"><title>Node8</title><g id="a_node8"><a><polygon fill="#fff" stroke="#bfbfbf" points="133.5 -274 133.5 -293 273.5 -293 273.5 -274 133.5 -274"/><text x="203.5" y="-281" font-family="Helvetica,sans-Serif" font-size="10" text-anchor="middle">vector&lt; pkgIndexFile * &gt;</text></a></g></g><g id="edge7" class="edge"><title>Node8-&gt;Node7</title><path fill="none" stroke="#9a32cd" stroke-dasharray="5 2" d="M202.18,-263.86C201.19,-249.9 199.88,-231.43 199.12,-220.72"/><polygon fill="#9a32cd" stroke="#9a32cd" points="198.69 -264.13 202.89 -273.86 205.67 -263.63 198.69 -264.13"/><text x="222" y="-242" font-family="Helvetica,sans-Serif" font-size="10" text-anchor="middle">Indexes</text></g><g id="node9" class="node"><title>Node9</title><g id="a_node9"><a target="_top" xlink:href="classpkgIndexFile.xhtml"><polygon fill="#fff" stroke="#000" points="160 -434.5 160 -453.5 239 -453.5 239 -434.5 160 -434.5"/><text x="199.5" y="-441.5" font-family="Helvetica,sans-Serif" font-size="10" text-anchor="middle">pkgIndexFile</text></a></g></g><g id="edge8" class="edge"><title>Node9-&gt;Node8</title><path fill="none" stroke="#9a32cd" stroke-dasharray="5 2" d="M199.97,-424.4C200.84,-390.03 202.66,-317.84 203.28,-293.06"/><polygon fill="#9a32cd" stroke="#9a32cd" points="196.47 -424.39 199.72 -434.48 203.47 -424.57 196.47 -424.39"/><text x="228" y="-364" font-family="Helvetica,sans-Serif" font-size="10" text-anchor="middle">elements</text></g><g id="edge10" class="edge"><title>Node10-&gt;Node7</title><path fill="none" stroke="#9a32cd" stroke-dasharray="5 2" d="M326.74,-264.56C292.29,-250.44 245.82,-231.4 219.32,-220.53"/><polygon fill="#9a32cd" stroke="#9a32cd" points="325.53 -267.85 336.11 -268.4 328.18 -261.37 325.53 -267.85"/><text x="308" y="-242" font-family="Helvetica,sans-Serif" font-size="10" text-anchor="middle">Entries</text></g><g id="edge12" class="edge"><title>Node11-&gt;Node10</title><path fill="none" stroke="#9a32cd" stroke-dasharray="5 2" d="M370.5,-424.26C370.5,-392.17 370.5,-327.39 370.5,-298.71"/><polygon fill="#9a32cd" stroke="#9a32cd" points="367 -424.48 370.5 -434.48 374 -424.48 367 -424.48"/><text x="395" y="-364" font-family="Helvetica,sans-Serif" font-size="10" text-anchor="middle">elements</text></g><g id="node12" class="node"><title>Node12</title><g id="a_node12"><a target="_top" xlink:href="classHashStringList.xhtml"><polygon fill="#fff" stroke="#000" points="379 -501.5 379 -520.5 466 -520.5 466 -501.5 379 -501.5"/><text x="422.5" y="-508.5" font-family="Helvetica,sans-Serif" font-size="10" text-anchor="middle">HashStringList</text></a></g></g><g id="edge13" class="edge"><title>Node12-&gt;Node11</title><path fill="none" stroke="#9a32cd" stroke-dasharray="5 2" d="M413.81,-492.39C410.13,-485.7 405.53,-478.21 400.5,-472 394.94,-465.14 387.58,-458.49 381.55,-453.51"/><polygon fill="#9a32cd" stroke="#9a32cd" points="410.76 -494.11 418.48 -501.36 416.97 -490.88 410.76 -494.11"/><text x="427.5" y="-475" font-family="Helvetica,sans-Serif" font-size="10" text-anchor="middle">Hashes</text></g><g id="node13" class="node"><title>Node13</title><g id="a_node13"><a target="_top" xlink:href="classpkgRecords.xhtml"><polygon fill="#fff" stroke="#000" points="218.5 -67.5 218.5 -86.5 292.5 -86.5 292.5 -67.5 218.5 -67.5"/><text x="255.5" y="-74.5" font-family="Helvetica,sans-Serif" font-size="10" text-anchor="middle">pkgRecords</text></a></g></g><g id="edge15" class="edge"><title>Node13-&gt;Node1</title><path fill="none" stroke="#9a32cd" stroke-dasharray="5 2" d="M227.63,-63.16C210.89,-55.58 189.1,-45.95 169.5,-38 153.35,-31.45 134.94,-24.65 120.65,-19.51"/><polygon fill="#9a32cd" stroke="#9a32cd" points="226.3 -66.4 236.85 -67.36 229.2 -60.03 226.3 -66.4"/><text x="207" y="-41" font-family="Helvetica,sans-Serif" font-size="10" text-anchor="middle">Recs</text></g><g id="node14" class="node"><title>Node14</title><g id="a_node14"><a><polygon fill="#fff" stroke="#bfbfbf" points="245 -134.5 245 -153.5 292 -153.5 292 -134.5 245 -134.5"/><text x="268.5" y="-141.5" font-family="Helvetica,sans-Serif" font-size="10" text-anchor="middle">Parser</text></a></g></g><g id="edge16" class="edge"><title>Node14-&gt;Node13</title><path fill="none" stroke="#8b1a1a" d="M264.78,-124.41C262.3,-111.99 259.14,-96.22 257.23,-86.63"/><polygon fill="#8b1a1a" stroke="#8b1a1a" points="261.35 -125.11 266.75 -134.23 268.22 -123.74 261.35 -125.11"/></g></g></svg><g id="navigator" fill="#404254" transform="translate(0 0)"><rect width="60" height="60" x="0" y="0" fill="#f2f5e9" fill-opacity=".5" stroke="#606060" stroke-width=".5"/><use id="zoomplus" x="17" y="9" onmousedown="handleZoom(evt,'in')" xlink:href="#zoomPlus"/><use id="zoomminus" x="42" y="9" onmousedown="handleZoom(evt,'out')" xlink:href="#zoomMin"/><use id="reset" x="30" y="36" onmousedown="handleReset()" xlink:href="#resetDef"/><g id="arrowUp" onmousedown="handlePan(0,-1)" transform="translate(30 24)" xlink:href="#dirArrow"><use fill="#404040" xlink:href="#rim"><set attributeName="fill" begin="arrowUp.mouseover" end="arrowUp.mouseout" to="#808080"/></use><path fill="none" stroke="#fff" stroke-width="1.5" d="M0,-3.0v7 M-2.5,-0.5L0,-3.0L2.5,-0.5"/></g><g id="arrowRight" onmousedown="handlePan(1,0)" transform="rotate(90) translate(36 -43)" xlink:href="#dirArrow"><use fill="#404040" xlink:href="#rim"><set attributeName="fill" begin="arrowRight.mouseover" end="arrowRight.mouseout" to="#808080"/></use><path fill="none" stroke="#fff" stroke-width="1.5" d="M0,-3.0v7 M-2.5,-0.5L0,-3.0L2.5,-0.5"/></g><g id="arrowDown" onmousedown="handlePan(0,1)" transform="rotate(180) translate(-30 -48)" xlink:href="#dirArrow"><use fill="#404040" xlink:href="#rim"><set attributeName="fill" begin="arrowDown.mouseover" end="arrowDown.mouseout" to="#808080"/></use><path fill="none" stroke="#fff" stroke-width="1.5" d="M0,-3.0v7 M-2.5,-0.5L0,-3.0L2.5,-0.5"/></g><g id="arrowLeft" onmousedown="handlePan(-1,0)" transform="rotate(270) translate(-36 17)" xlink:href="#dirArrow"><use fill="#404040" xlink:href="#rim"><set attributeName="fill" begin="arrowLeft.mouseover" end="arrowLeft.mouseout" to="#808080"/></use><path fill="none" stroke="#fff" stroke-width="1.5" d="M0,-3.0v7 M-2.5,-0.5L0,-3.0L2.5,-0.5"/></g></g><svg width="100%" height="30" preserveAspectRatio="xMaxYMin meet" viewBox="0 0 15 15"><g id="arrow_out" transform="scale(0.3 0.3)"><a target="_base" xlink:href="classpkgAcqArchive__coll__graph_org.svg"><rect id="button" width="38" height="38" x="6" y="6" fill="#f2f5e9" fill-opacity=".5" stroke="#606060" stroke-width="1" rx="5" ry="5"/><path id="arrow" d="M 11.500037,31.436501 C 11.940474,20.09759 22.043105,11.32322 32.158766,21.979434 L 37.068811,17.246167 C 37.068811,17.246167 37.088388,32 37.088388,32 L 22.160133,31.978069 C 22.160133,31.978069 26.997745,27.140456 26.997745,27.140456 C 18.528582,18.264221 13.291696,25.230495 11.500037,31.436501 z" style="fill:#404040"/></a></g></svg></svg>