<?xml version="1.0" encoding="UTF-8" standalone="no"?>
<!DOCTYPE svg PUBLIC "-//W3C//DTD SVG 1.1//EN"
 "http://www.w3.org/Graphics/SVG/1.1/DTD/svg11.dtd">
<!-- Generated by graphviz version 2.43.0 (0)
 -->
<!-- Title: pkgSimulate Pages: 1 -->
<svg width="125pt" height="140pt"
 viewBox="0.00 0.00 125.00 140.00" xmlns="http://www.w3.org/2000/svg" xmlns:xlink="http://www.w3.org/1999/xlink">
<g id="graph0" class="graph" transform="scale(1 1) rotate(0) translate(4 136)">
<title>pkgSimulate</title>
<polygon fill="white" stroke="transparent" points="-4,4 -4,-136 121,-136 121,4 -4,4"/>
<!-- Node1 -->
<g id="node1" class="node">
<title>Node1</title>
<g id="a_node1"><a xlink:title=" ">
<polygon fill="#bfbfbf" stroke="black" points="19.5,-0.5 19.5,-19.5 97.5,-19.5 97.5,-0.5 19.5,-0.5"/>
<text text-anchor="middle" x="58.5" y="-7.5" font-family="Helvetica,sans-Serif" font-size="10.00">pkgSimulate</text>
</a>
</g>
</g>
<!-- Node2 -->
<g id="node2" class="node">
<title>Node2</title>
<g id="a_node2"><a xlink:href="classpkgPackageManager.xhtml" target="_top" xlink:title=" ">
<polygon fill="white" stroke="black" points="0,-56.5 0,-75.5 117,-75.5 117,-56.5 0,-56.5"/>
<text text-anchor="middle" x="58.5" y="-63.5" font-family="Helvetica,sans-Serif" font-size="10.00">pkgPackageManager</text>
</a>
</g>
</g>
<!-- Node2&#45;&gt;Node1 -->
<g id="edge1" class="edge">
<title>Node2&#45;&gt;Node1</title>
<path fill="none" stroke="midnightblue" d="M58.5,-45.8C58.5,-36.91 58.5,-26.78 58.5,-19.75"/>
<polygon fill="midnightblue" stroke="midnightblue" points="55,-46.08 58.5,-56.08 62,-46.08 55,-46.08"/>
</g>
<!-- Node3 -->
<g id="node3" class="node">
<title>Node3</title>
<g id="a_node3"><a xlink:href="classpkgCache_1_1Namespace.xhtml" target="_top" xlink:title=" ">
<polygon fill="white" stroke="black" points="21.5,-112.5 21.5,-131.5 95.5,-131.5 95.5,-112.5 21.5,-112.5"/>
<text text-anchor="middle" x="58.5" y="-119.5" font-family="Helvetica,sans-Serif" font-size="10.00">Namespace</text>
</a>
</g>
</g>
<!-- Node3&#45;&gt;Node2 -->
<g id="edge2" class="edge">
<title>Node3&#45;&gt;Node2</title>
<path fill="none" stroke="darkgreen" d="M58.5,-101.8C58.5,-92.91 58.5,-82.78 58.5,-75.75"/>
<polygon fill="darkgreen" stroke="darkgreen" points="55,-102.08 58.5,-112.08 62,-102.08 55,-102.08"/>
</g>
</g>
</svg>
