<?xml version="1.0" encoding="UTF-8" standalone="no"?>
<!DOCTYPE svg PUBLIC "-//W3C//DTD SVG 1.1//EN"
 "http://www.w3.org/Graphics/SVG/1.1/DTD/svg11.dtd">
<!-- Generated by graphviz version 2.43.0 (0)
 -->
<!-- Title: Matcher Pages: 1 -->
<svg width="421pt" height="876pt"
 viewBox="0.00 0.00 421.00 875.50" xmlns="http://www.w3.org/2000/svg" xmlns:xlink="http://www.w3.org/1999/xlink">
<g id="graph0" class="graph" transform="scale(1 1) rotate(0) translate(4 871.5)">
<title>Matcher</title>
<polygon fill="white" stroke="transparent" points="-4,4 -4,-871.5 417,-871.5 417,4 -4,4"/>
<!-- Node1 -->
<g id="node1" class="node">
<title>Node1</title>
<g id="a_node1"><a xlink:title=" ">
<polygon fill="#bfbfbf" stroke="black" points="0,-551.5 0,-570.5 56,-570.5 56,-551.5 0,-551.5"/>
<text text-anchor="middle" x="28" y="-558.5" font-family="Helvetica,sans-Serif" font-size="10.00">Matcher</text>
</a>
</g>
</g>
<!-- Node2 -->
<g id="node2" class="node">
<title>Node2</title>
<g id="a_node2"><a xlink:href="classAPT_1_1CacheFilter_1_1ANDMatcher.xhtml" target="_top" xlink:title=" ">
<polygon fill="white" stroke="black" points="110.5,-684.5 110.5,-703.5 188.5,-703.5 188.5,-684.5 110.5,-684.5"/>
<text text-anchor="middle" x="149.5" y="-691.5" font-family="Helvetica,sans-Serif" font-size="10.00">ANDMatcher</text>
</a>
</g>
</g>
<!-- Node1&#45;&gt;Node2 -->
<g id="edge1" class="edge">
<title>Node1&#45;&gt;Node2</title>
<path fill="none" stroke="midnightblue" d="M34.8,-580.4C43.33,-605.69 61.61,-649.65 92,-675 97.32,-679.44 103.73,-682.86 110.29,-685.49"/>
<polygon fill="midnightblue" stroke="midnightblue" points="38.12,-579.28 31.74,-570.82 31.45,-581.41 38.12,-579.28"/>
</g>
<!-- Node3 -->
<g id="node3" class="node">
<title>Node3</title>
<g id="a_node3"><a xlink:href="classAPT_1_1CacheFilter_1_1FalseMatcher.xhtml" target="_top" xlink:title=" ">
<polygon fill="white" stroke="black" points="109,-646.5 109,-665.5 190,-665.5 190,-646.5 109,-646.5"/>
<text text-anchor="middle" x="149.5" y="-653.5" font-family="Helvetica,sans-Serif" font-size="10.00">FalseMatcher</text>
</a>
</g>
</g>
<!-- Node1&#45;&gt;Node3 -->
<g id="edge2" class="edge">
<title>Node1&#45;&gt;Node3</title>
<path fill="none" stroke="midnightblue" d="M39.86,-579.22C50.96,-596.39 69.71,-621.7 92,-637 97.55,-640.81 103.92,-643.91 110.34,-646.41"/>
<polygon fill="midnightblue" stroke="midnightblue" points="42.77,-577.27 34.5,-570.63 36.83,-580.97 42.77,-577.27"/>
</g>
<!-- Node4 -->
<g id="node4" class="node">
<title>Node4</title>
<g id="a_node4"><a xlink:href="classAPT_1_1CacheFilter_1_1NOTMatcher.xhtml" target="_top" xlink:title=" ">
<polygon fill="white" stroke="black" points="111,-608.5 111,-627.5 188,-627.5 188,-608.5 111,-608.5"/>
<text text-anchor="middle" x="149.5" y="-615.5" font-family="Helvetica,sans-Serif" font-size="10.00">NOTMatcher</text>
</a>
</g>
</g>
<!-- Node1&#45;&gt;Node4 -->
<g id="edge3" class="edge">
<title>Node1&#45;&gt;Node4</title>
<path fill="none" stroke="midnightblue" d="M51.69,-576.34C63.39,-583.82 78.1,-592.56 92,-599 99.61,-602.52 108.06,-605.72 116.05,-608.44"/>
<polygon fill="midnightblue" stroke="midnightblue" points="53.31,-573.21 43.02,-570.68 49.48,-579.08 53.31,-573.21"/>
</g>
<!-- Node5 -->
<g id="node5" class="node">
<title>Node5</title>
<g id="a_node5"><a xlink:href="classAPT_1_1CacheFilter_1_1ORMatcher.xhtml" target="_top" xlink:title=" ">
<polygon fill="white" stroke="black" points="114,-570.5 114,-589.5 185,-589.5 185,-570.5 114,-570.5"/>
<text text-anchor="middle" x="149.5" y="-577.5" font-family="Helvetica,sans-Serif" font-size="10.00">ORMatcher</text>
</a>
</g>
</g>
<!-- Node1&#45;&gt;Node5 -->
<g id="edge4" class="edge">
<title>Node1&#45;&gt;Node5</title>
<path fill="none" stroke="midnightblue" d="M66.2,-566.92C81.39,-569.33 98.85,-572.11 113.77,-574.48"/>
<polygon fill="midnightblue" stroke="midnightblue" points="66.54,-563.43 56.12,-565.31 65.44,-570.34 66.54,-563.43"/>
</g>
<!-- Node6 -->
<g id="node6" class="node">
<title>Node6</title>
<g id="a_node6"><a xlink:href="classAPT_1_1CacheFilter_1_1PackageMatcher.xhtml" target="_top" xlink:title=" ">
<polygon fill="white" stroke="black" points="101.5,-532.5 101.5,-551.5 197.5,-551.5 197.5,-532.5 101.5,-532.5"/>
<text text-anchor="middle" x="149.5" y="-539.5" font-family="Helvetica,sans-Serif" font-size="10.00">PackageMatcher</text>
</a>
</g>
</g>
<!-- Node1&#45;&gt;Node6 -->
<g id="edge5" class="edge">
<title>Node1&#45;&gt;Node6</title>
<path fill="none" stroke="midnightblue" d="M66.31,-555.07C77.4,-553.3 89.69,-551.35 101.32,-549.5"/>
<polygon fill="midnightblue" stroke="midnightblue" points="65.44,-551.66 56.12,-556.69 66.54,-558.57 65.44,-551.66"/>
</g>
<!-- Node22 -->
<g id="node22" class="node">
<title>Node22</title>
<g id="a_node22"><a xlink:href="classAPT_1_1CacheFilter_1_1TrueMatcher.xhtml" target="_top" xlink:title=" ">
<polygon fill="white" stroke="black" points="111,-494.5 111,-513.5 188,-513.5 188,-494.5 111,-494.5"/>
<text text-anchor="middle" x="149.5" y="-501.5" font-family="Helvetica,sans-Serif" font-size="10.00">TrueMatcher</text>
</a>
</g>
</g>
<!-- Node1&#45;&gt;Node22 -->
<g id="edge21" class="edge">
<title>Node1&#45;&gt;Node22</title>
<path fill="none" stroke="midnightblue" d="M51.69,-545.66C63.39,-538.18 78.1,-529.44 92,-523 99.61,-519.48 108.06,-516.28 116.05,-513.56"/>
<polygon fill="midnightblue" stroke="midnightblue" points="49.48,-542.92 43.02,-551.32 53.31,-548.79 49.48,-542.92"/>
</g>
<!-- Node23 -->
<g id="node23" class="node">
<title>Node23</title>
<g id="a_node23"><a xlink:href="structAPT_1_1Internal_1_1Patterns_1_1VersionAnyMatcher.xhtml" target="_top" xlink:title=" ">
<polygon fill="white" stroke="black" points="94,-171.5 94,-190.5 205,-190.5 205,-171.5 94,-171.5"/>
<text text-anchor="middle" x="149.5" y="-178.5" font-family="Helvetica,sans-Serif" font-size="10.00">VersionAnyMatcher</text>
</a>
</g>
</g>
<!-- Node1&#45;&gt;Node23 -->
<g id="edge22" class="edge">
<title>Node1&#45;&gt;Node23</title>
<path fill="none" stroke="midnightblue" d="M35.1,-541.62C56.76,-472.71 129.61,-241.06 145.45,-190.71"/>
<polygon fill="midnightblue" stroke="midnightblue" points="31.74,-540.64 32.07,-551.22 38.41,-542.74 31.74,-540.64"/>
</g>
<!-- Node32 -->
<g id="node32" class="node">
<title>Node32</title>
<g id="a_node32"><a xlink:href="structAPT_1_1Internal_1_1Patterns_1_1VersionIsAllVersions.xhtml" target="_top" xlink:title=" ">
<polygon fill="white" stroke="black" points="92,-133.5 92,-152.5 207,-152.5 207,-133.5 92,-133.5"/>
<text text-anchor="middle" x="149.5" y="-140.5" font-family="Helvetica,sans-Serif" font-size="10.00">VersionIsAllVersions</text>
</a>
</g>
</g>
<!-- Node1&#45;&gt;Node32 -->
<g id="edge31" class="edge">
<title>Node1&#45;&gt;Node32</title>
<path fill="none" stroke="midnightblue" d="M29.5,-540.97C31.68,-468.38 42.7,-220.36 92,-162 95.27,-158.13 99.36,-155.04 103.84,-152.58"/>
<polygon fill="midnightblue" stroke="midnightblue" points="25.98,-541.3 29.21,-551.4 32.98,-541.5 25.98,-541.3"/>
</g>
<!-- Node7 -->
<g id="node7" class="node">
<title>Node7</title>
<g id="a_node7"><a xlink:href="classAPT_1_1CacheFilter_1_1PackageArchitectureMatchesSpecification.xhtml" target="_top" xlink:title=" ">
<polygon fill="white" stroke="black" points="249.5,-837 249.5,-867 406.5,-867 406.5,-837 249.5,-837"/>
<text text-anchor="start" x="257.5" y="-855" font-family="Helvetica,sans-Serif" font-size="10.00">PackageArchitectureMatches</text>
<text text-anchor="middle" x="328" y="-844" font-family="Helvetica,sans-Serif" font-size="10.00">Specification</text>
</a>
</g>
</g>
<!-- Node6&#45;&gt;Node7 -->
<g id="edge6" class="edge">
<title>Node6&#45;&gt;Node7</title>
<path fill="none" stroke="midnightblue" d="M203.74,-557.56C204.9,-558.63 205.99,-559.78 207,-561 282.98,-652.97 165.42,-736.37 243,-827 246.27,-830.81 250.08,-834.06 254.26,-836.82"/>
<polygon fill="midnightblue" stroke="midnightblue" points="205.42,-554.46 195.25,-551.51 201.36,-560.16 205.42,-554.46"/>
</g>
<!-- Node8 -->
<g id="node8" class="node">
<title>Node8</title>
<g id="a_node8"><a xlink:href="classAPT_1_1CacheFilter_1_1PackageIsNewInstall.xhtml" target="_top" xlink:title=" ">
<polygon fill="white" stroke="black" points="270,-798.5 270,-817.5 386,-817.5 386,-798.5 270,-798.5"/>
<text text-anchor="middle" x="328" y="-805.5" font-family="Helvetica,sans-Serif" font-size="10.00">PackageIsNewInstall</text>
</a>
</g>
</g>
<!-- Node6&#45;&gt;Node8 -->
<g id="edge7" class="edge">
<title>Node6&#45;&gt;Node8</title>
<path fill="none" stroke="midnightblue" d="M203.71,-557.59C204.87,-558.66 205.98,-559.79 207,-561 273.21,-639.37 172.89,-714.11 243,-789 250.15,-796.64 259.67,-801.52 269.74,-804.58"/>
<polygon fill="midnightblue" stroke="midnightblue" points="205.36,-554.48 195.16,-551.58 201.33,-560.2 205.36,-554.48"/>
</g>
<!-- Node9 -->
<g id="node9" class="node">
<title>Node9</title>
<g id="a_node9"><a xlink:href="classAPT_1_1CacheFilter_1_1PackageNameMatchesFnmatch.xhtml" target="_top" xlink:title=" ">
<polygon fill="white" stroke="black" points="243,-760.5 243,-779.5 413,-779.5 413,-760.5 243,-760.5"/>
<text text-anchor="middle" x="328" y="-767.5" font-family="Helvetica,sans-Serif" font-size="10.00">PackageNameMatchesFnmatch</text>
</a>
</g>
</g>
<!-- Node6&#45;&gt;Node9 -->
<g id="edge8" class="edge">
<title>Node6&#45;&gt;Node9</title>
<path fill="none" stroke="midnightblue" d="M203.22,-557.25C204.57,-558.41 205.83,-559.66 207,-561 263.47,-625.8 183.31,-689.17 243,-751 246.63,-754.76 250.85,-757.86 255.41,-760.39"/>
<polygon fill="midnightblue" stroke="midnightblue" points="205.01,-554.24 194.77,-551.53 201.09,-560.04 205.01,-554.24"/>
</g>
<!-- Node10 -->
<g id="node10" class="node">
<title>Node10</title>
<g id="a_node10"><a xlink:href="classAPT_1_1CacheFilter_1_1PackageNameMatchesRegEx.xhtml" target="_top" xlink:title=" ">
<polygon fill="white" stroke="black" points="249,-722.5 249,-741.5 407,-741.5 407,-722.5 249,-722.5"/>
<text text-anchor="middle" x="328" y="-729.5" font-family="Helvetica,sans-Serif" font-size="10.00">PackageNameMatchesRegEx</text>
</a>
</g>
</g>
<!-- Node6&#45;&gt;Node10 -->
<g id="edge9" class="edge">
<title>Node6&#45;&gt;Node10</title>
<path fill="none" stroke="midnightblue" d="M203.06,-557.26C204.46,-558.41 205.78,-559.66 207,-561 253.79,-612.29 193.66,-664.16 243,-713 246.83,-716.79 251.24,-719.88 255.99,-722.41"/>
<polygon fill="midnightblue" stroke="midnightblue" points="204.61,-554.09 194.32,-551.54 200.77,-559.94 204.61,-554.09"/>
</g>
<!-- Node11 -->
<g id="node11" class="node">
<title>Node11</title>
<g id="a_node11"><a xlink:href="structAPT_1_1Internal_1_1Patterns_1_1PackageHasExactName.xhtml" target="_top" xlink:title=" ">
<polygon fill="white" stroke="black" points="262.5,-684.5 262.5,-703.5 393.5,-703.5 393.5,-684.5 262.5,-684.5"/>
<text text-anchor="middle" x="328" y="-691.5" font-family="Helvetica,sans-Serif" font-size="10.00">PackageHasExactName</text>
</a>
</g>
</g>
<!-- Node6&#45;&gt;Node11 -->
<g id="edge10" class="edge">
<title>Node6&#45;&gt;Node11</title>
<path fill="none" stroke="midnightblue" d="M202.35,-556.93C204,-558.18 205.56,-559.53 207,-561 244.22,-598.92 203.9,-639.03 243,-675 248.61,-680.16 255.32,-684.02 262.47,-686.89"/>
<polygon fill="midnightblue" stroke="midnightblue" points="203.85,-553.74 193.49,-551.51 200.2,-559.71 203.85,-553.74"/>
</g>
<!-- Node12 -->
<g id="node12" class="node">
<title>Node12</title>
<g id="a_node12"><a xlink:href="structAPT_1_1Internal_1_1Patterns_1_1PackageIsAutomatic.xhtml" target="_top" xlink:title=" ">
<polygon fill="white" stroke="black" points="270.5,-646.5 270.5,-665.5 385.5,-665.5 385.5,-646.5 270.5,-646.5"/>
<text text-anchor="middle" x="328" y="-653.5" font-family="Helvetica,sans-Serif" font-size="10.00">PackageIsAutomatic</text>
</a>
</g>
</g>
<!-- Node6&#45;&gt;Node12 -->
<g id="edge11" class="edge">
<title>Node6&#45;&gt;Node12</title>
<path fill="none" stroke="midnightblue" d="M201.36,-556.68C203.35,-558 205.24,-559.44 207,-561 234.94,-585.82 213.83,-613.63 243,-637 250.93,-643.36 260.58,-647.68 270.47,-650.59"/>
<polygon fill="midnightblue" stroke="midnightblue" points="202.59,-553.37 192.14,-551.62 199.22,-559.5 202.59,-553.37"/>
</g>
<!-- Node13 -->
<g id="node13" class="node">
<title>Node13</title>
<g id="a_node13"><a xlink:href="structAPT_1_1Internal_1_1Patterns_1_1PackageIsBroken.xhtml" target="_top" xlink:title=" ">
<polygon fill="white" stroke="black" points="279,-608.5 279,-627.5 377,-627.5 377,-608.5 279,-608.5"/>
<text text-anchor="middle" x="328" y="-615.5" font-family="Helvetica,sans-Serif" font-size="10.00">PackageIsBroken</text>
</a>
</g>
</g>
<!-- Node6&#45;&gt;Node13 -->
<g id="edge12" class="edge">
<title>Node6&#45;&gt;Node13</title>
<path fill="none" stroke="midnightblue" d="M196.97,-555.52C200.46,-557.16 203.85,-558.99 207,-561 226.61,-573.52 222.78,-587.49 243,-599 253.92,-605.21 266.71,-609.39 278.98,-612.21"/>
<polygon fill="midnightblue" stroke="midnightblue" points="198.14,-552.21 187.56,-551.56 195.42,-558.67 198.14,-552.21"/>
</g>
<!-- Node14 -->
<g id="node14" class="node">
<title>Node14</title>
<g id="a_node14"><a xlink:href="structAPT_1_1Internal_1_1Patterns_1_1PackageIsConfigFiles.xhtml" target="_top" xlink:title=" ">
<polygon fill="white" stroke="black" points="269,-570.5 269,-589.5 387,-589.5 387,-570.5 269,-570.5"/>
<text text-anchor="middle" x="328" y="-577.5" font-family="Helvetica,sans-Serif" font-size="10.00">PackageIsConfigFiles</text>
</a>
</g>
</g>
<!-- Node6&#45;&gt;Node14 -->
<g id="edge13" class="edge">
<title>Node6&#45;&gt;Node14</title>
<path fill="none" stroke="midnightblue" d="M205.09,-553.75C230.04,-559.13 259.23,-565.41 282.78,-570.48"/>
<polygon fill="midnightblue" stroke="midnightblue" points="205.55,-550.27 195.04,-551.59 204.08,-557.12 205.55,-550.27"/>
</g>
<!-- Node15 -->
<g id="node15" class="node">
<title>Node15</title>
<g id="a_node15"><a xlink:href="structAPT_1_1Internal_1_1Patterns_1_1PackageIsEssential.xhtml" target="_top" xlink:title=" ">
<polygon fill="white" stroke="black" points="273.5,-532.5 273.5,-551.5 382.5,-551.5 382.5,-532.5 273.5,-532.5"/>
<text text-anchor="middle" x="328" y="-539.5" font-family="Helvetica,sans-Serif" font-size="10.00">PackageIsEssential</text>
</a>
</g>
</g>
<!-- Node6&#45;&gt;Node15 -->
<g id="edge14" class="edge">
<title>Node6&#45;&gt;Node15</title>
<path fill="none" stroke="midnightblue" d="M207.89,-542C228.92,-542 252.63,-542 273.33,-542"/>
<polygon fill="midnightblue" stroke="midnightblue" points="207.8,-538.5 197.8,-542 207.8,-545.5 207.8,-538.5"/>
</g>
<!-- Node16 -->
<g id="node16" class="node">
<title>Node16</title>
<g id="a_node16"><a xlink:href="structAPT_1_1Internal_1_1Patterns_1_1PackageIsGarbage.xhtml" target="_top" xlink:title=" ">
<polygon fill="white" stroke="black" points="275,-494.5 275,-513.5 381,-513.5 381,-494.5 275,-494.5"/>
<text text-anchor="middle" x="328" y="-501.5" font-family="Helvetica,sans-Serif" font-size="10.00">PackageIsGarbage</text>
</a>
</g>
</g>
<!-- Node6&#45;&gt;Node16 -->
<g id="edge15" class="edge">
<title>Node6&#45;&gt;Node16</title>
<path fill="none" stroke="midnightblue" d="M205.09,-530.25C230.04,-524.87 259.23,-518.59 282.78,-513.52"/>
<polygon fill="midnightblue" stroke="midnightblue" points="204.08,-526.88 195.04,-532.41 205.55,-533.73 204.08,-526.88"/>
</g>
<!-- Node17 -->
<g id="node17" class="node">
<title>Node17</title>
<g id="a_node17"><a xlink:href="structAPT_1_1Internal_1_1Patterns_1_1PackageIsInstalled.xhtml" target="_top" xlink:title=" ">
<polygon fill="white" stroke="black" points="274.5,-456.5 274.5,-475.5 381.5,-475.5 381.5,-456.5 274.5,-456.5"/>
<text text-anchor="middle" x="328" y="-463.5" font-family="Helvetica,sans-Serif" font-size="10.00">PackageIsInstalled</text>
</a>
</g>
</g>
<!-- Node6&#45;&gt;Node17 -->
<g id="edge16" class="edge">
<title>Node6&#45;&gt;Node17</title>
<path fill="none" stroke="midnightblue" d="M196.97,-528.48C200.46,-526.84 203.85,-525.01 207,-523 226.61,-510.48 222.78,-496.51 243,-485 252.49,-479.6 263.39,-475.74 274.14,-472.97"/>
<polygon fill="midnightblue" stroke="midnightblue" points="195.42,-525.33 187.56,-532.44 198.14,-531.79 195.42,-525.33"/>
</g>
<!-- Node18 -->
<g id="node18" class="node">
<title>Node18</title>
<g id="a_node18"><a xlink:href="structAPT_1_1Internal_1_1Patterns_1_1PackageIsObsolete.xhtml" target="_top" xlink:title=" ">
<polygon fill="white" stroke="black" points="274,-418.5 274,-437.5 382,-437.5 382,-418.5 274,-418.5"/>
<text text-anchor="middle" x="328" y="-425.5" font-family="Helvetica,sans-Serif" font-size="10.00">PackageIsObsolete</text>
</a>
</g>
</g>
<!-- Node6&#45;&gt;Node18 -->
<g id="edge17" class="edge">
<title>Node6&#45;&gt;Node18</title>
<path fill="none" stroke="midnightblue" d="M201.36,-527.32C203.35,-526 205.24,-524.56 207,-523 234.94,-498.18 213.83,-470.37 243,-447 251.87,-439.9 262.87,-435.33 273.97,-432.43"/>
<polygon fill="midnightblue" stroke="midnightblue" points="199.22,-524.5 192.14,-532.38 202.59,-530.63 199.22,-524.5"/>
</g>
<!-- Node19 -->
<g id="node19" class="node">
<title>Node19</title>
<g id="a_node19"><a xlink:href="structAPT_1_1Internal_1_1Patterns_1_1PackageIsUpgradable.xhtml" target="_top" xlink:title=" ">
<polygon fill="white" stroke="black" points="267.5,-380.5 267.5,-399.5 388.5,-399.5 388.5,-380.5 267.5,-380.5"/>
<text text-anchor="middle" x="328" y="-387.5" font-family="Helvetica,sans-Serif" font-size="10.00">PackageIsUpgradable</text>
</a>
</g>
</g>
<!-- Node6&#45;&gt;Node19 -->
<g id="edge18" class="edge">
<title>Node6&#45;&gt;Node19</title>
<path fill="none" stroke="midnightblue" d="M202.35,-527.07C204,-525.82 205.56,-524.47 207,-523 244.22,-485.08 203.9,-444.97 243,-409 249.82,-402.72 258.27,-398.37 267.15,-395.38"/>
<polygon fill="midnightblue" stroke="midnightblue" points="200.2,-524.29 193.49,-532.49 203.85,-530.26 200.2,-524.29"/>
</g>
<!-- Node20 -->
<g id="node20" class="node">
<title>Node20</title>
<g id="a_node20"><a xlink:href="structAPT_1_1Internal_1_1Patterns_1_1PackageIsVirtual.xhtml" target="_top" xlink:title=" ">
<polygon fill="white" stroke="black" points="279.5,-342.5 279.5,-361.5 376.5,-361.5 376.5,-342.5 279.5,-342.5"/>
<text text-anchor="middle" x="328" y="-349.5" font-family="Helvetica,sans-Serif" font-size="10.00">PackageIsVirtual</text>
</a>
</g>
</g>
<!-- Node6&#45;&gt;Node20 -->
<g id="edge19" class="edge">
<title>Node6&#45;&gt;Node20</title>
<path fill="none" stroke="midnightblue" d="M203.06,-526.74C204.46,-525.59 205.78,-524.34 207,-523 253.79,-471.71 193.66,-419.84 243,-371 252.67,-361.43 266.08,-356.26 279.35,-353.57"/>
<polygon fill="midnightblue" stroke="midnightblue" points="200.77,-524.06 194.32,-532.46 204.61,-529.91 200.77,-524.06"/>
</g>
<!-- Node21 -->
<g id="node21" class="node">
<title>Node21</title>
<g id="a_node21"><a xlink:href="structAPT_1_1Internal_1_1Patterns_1_1PackageReverseDepends.xhtml" target="_top" xlink:title=" ">
<polygon fill="white" stroke="black" points="258.5,-304.5 258.5,-323.5 397.5,-323.5 397.5,-304.5 258.5,-304.5"/>
<text text-anchor="middle" x="328" y="-311.5" font-family="Helvetica,sans-Serif" font-size="10.00">PackageReverseDepends</text>
</a>
</g>
</g>
<!-- Node6&#45;&gt;Node21 -->
<g id="edge20" class="edge">
<title>Node6&#45;&gt;Node21</title>
<path fill="none" stroke="midnightblue" d="M203.22,-526.75C204.57,-525.59 205.83,-524.34 207,-523 263.47,-458.2 183.31,-394.83 243,-333 247.36,-328.48 252.55,-324.94 258.18,-322.16"/>
<polygon fill="midnightblue" stroke="midnightblue" points="201.09,-523.96 194.77,-532.47 205.01,-529.76 201.09,-523.96"/>
</g>
<!-- Node24 -->
<g id="node24" class="node">
<title>Node24</title>
<g id="a_node24"><a xlink:href="structAPT_1_1Internal_1_1Patterns_1_1VersionDepends.xhtml" target="_top" xlink:title=" ">
<polygon fill="white" stroke="black" points="280.5,-266.5 280.5,-285.5 375.5,-285.5 375.5,-266.5 280.5,-266.5"/>
<text text-anchor="middle" x="328" y="-273.5" font-family="Helvetica,sans-Serif" font-size="10.00">VersionDepends</text>
</a>
</g>
</g>
<!-- Node23&#45;&gt;Node24 -->
<g id="edge23" class="edge">
<title>Node23&#45;&gt;Node24</title>
<path fill="none" stroke="midnightblue" d="M166.2,-197.9C183.38,-215.36 212.56,-242.11 243,-257 254.55,-262.65 267.82,-266.65 280.35,-269.47"/>
<polygon fill="midnightblue" stroke="midnightblue" points="168.64,-195.39 159.18,-190.6 163.59,-200.24 168.64,-195.39"/>
</g>
<!-- Node25 -->
<g id="node25" class="node">
<title>Node25</title>
<g id="a_node25"><a xlink:href="structAPT_1_1Internal_1_1Patterns_1_1VersionIsAnyVersion.xhtml" target="_top" xlink:title=" ">
<polygon fill="white" stroke="black" points="270,-228.5 270,-247.5 386,-247.5 386,-228.5 270,-228.5"/>
<text text-anchor="middle" x="328" y="-235.5" font-family="Helvetica,sans-Serif" font-size="10.00">VersionIsAnyVersion</text>
</a>
</g>
</g>
<!-- Node23&#45;&gt;Node25 -->
<g id="edge24" class="edge">
<title>Node23&#45;&gt;Node25</title>
<path fill="none" stroke="midnightblue" d="M180.4,-194.78C198.29,-202.64 221.63,-212.25 243,-219 254.26,-222.56 266.57,-225.73 278.21,-228.42"/>
<polygon fill="midnightblue" stroke="midnightblue" points="181.63,-191.49 171.07,-190.62 178.78,-197.89 181.63,-191.49"/>
</g>
<!-- Node26 -->
<g id="node26" class="node">
<title>Node26</title>
<g id="a_node26"><a xlink:href="structAPT_1_1Internal_1_1Patterns_1_1VersionIsArchive.xhtml" target="_top" xlink:title=" ">
<polygon fill="white" stroke="black" points="279,-190.5 279,-209.5 377,-209.5 377,-190.5 279,-190.5"/>
<text text-anchor="middle" x="328" y="-197.5" font-family="Helvetica,sans-Serif" font-size="10.00">VersionIsArchive</text>
</a>
</g>
</g>
<!-- Node23&#45;&gt;Node26 -->
<g id="edge25" class="edge">
<title>Node23&#45;&gt;Node26</title>
<path fill="none" stroke="midnightblue" d="M215.48,-187.99C236.41,-190.25 259.22,-192.7 278.73,-194.8"/>
<polygon fill="midnightblue" stroke="midnightblue" points="215.7,-184.5 205.38,-186.91 214.95,-191.46 215.7,-184.5"/>
</g>
<!-- Node27 -->
<g id="node27" class="node">
<title>Node27</title>
<g id="a_node27"><a xlink:href="structAPT_1_1Internal_1_1Patterns_1_1VersionIsOrigin.xhtml" target="_top" xlink:title=" ">
<polygon fill="white" stroke="black" points="283,-152.5 283,-171.5 373,-171.5 373,-152.5 283,-152.5"/>
<text text-anchor="middle" x="328" y="-159.5" font-family="Helvetica,sans-Serif" font-size="10.00">VersionIsOrigin</text>
</a>
</g>
</g>
<!-- Node23&#45;&gt;Node27 -->
<g id="edge26" class="edge">
<title>Node23&#45;&gt;Node27</title>
<path fill="none" stroke="midnightblue" d="M215.49,-174C237.89,-171.59 262.44,-168.95 282.79,-166.76"/>
<polygon fill="midnightblue" stroke="midnightblue" points="214.95,-170.54 205.38,-175.09 215.7,-177.5 214.95,-170.54"/>
</g>
<!-- Node28 -->
<g id="node28" class="node">
<title>Node28</title>
<g id="a_node28"><a xlink:href="structAPT_1_1Internal_1_1Patterns_1_1VersionIsSection.xhtml" target="_top" xlink:title=" ">
<polygon fill="white" stroke="black" points="279.5,-114.5 279.5,-133.5 376.5,-133.5 376.5,-114.5 279.5,-114.5"/>
<text text-anchor="middle" x="328" y="-121.5" font-family="Helvetica,sans-Serif" font-size="10.00">VersionIsSection</text>
</a>
</g>
</g>
<!-- Node23&#45;&gt;Node28 -->
<g id="edge27" class="edge">
<title>Node23&#45;&gt;Node28</title>
<path fill="none" stroke="midnightblue" d="M191.38,-168.13C196.68,-166.2 202.01,-164.14 207,-162 223.63,-154.87 226.03,-149.27 243,-143 254.5,-138.75 267.25,-135.27 279.27,-132.51"/>
<polygon fill="midnightblue" stroke="midnightblue" points="190.21,-164.83 181.92,-171.43 192.52,-171.44 190.21,-164.83"/>
</g>
<!-- Node29 -->
<g id="node29" class="node">
<title>Node29</title>
<g id="a_node29"><a xlink:href="structAPT_1_1Internal_1_1Patterns_1_1VersionIsSourcePackage.xhtml" target="_top" xlink:title=" ">
<polygon fill="white" stroke="black" points="261,-76.5 261,-95.5 395,-95.5 395,-76.5 261,-76.5"/>
<text text-anchor="middle" x="328" y="-83.5" font-family="Helvetica,sans-Serif" font-size="10.00">VersionIsSourcePackage</text>
</a>
</g>
</g>
<!-- Node23&#45;&gt;Node29 -->
<g id="edge28" class="edge">
<title>Node23&#45;&gt;Node29</title>
<path fill="none" stroke="midnightblue" d="M199.66,-166.91C202.24,-165.43 204.71,-163.8 207,-162 230.56,-143.49 218.53,-122.29 243,-105 248.5,-101.12 254.65,-98.01 261.07,-95.53"/>
<polygon fill="midnightblue" stroke="midnightblue" points="197.99,-163.84 190.56,-171.39 201.08,-170.12 197.99,-163.84"/>
</g>
<!-- Node30 -->
<g id="node30" class="node">
<title>Node30</title>
<g id="a_node30"><a xlink:href="structAPT_1_1Internal_1_1Patterns_1_1VersionIsSourceVersion.xhtml" target="_top" xlink:title=" ">
<polygon fill="white" stroke="black" points="263,-38.5 263,-57.5 393,-57.5 393,-38.5 263,-38.5"/>
<text text-anchor="middle" x="328" y="-45.5" font-family="Helvetica,sans-Serif" font-size="10.00">VersionIsSourceVersion</text>
</a>
</g>
</g>
<!-- Node23&#45;&gt;Node30 -->
<g id="edge29" class="edge">
<title>Node23&#45;&gt;Node30</title>
<path fill="none" stroke="midnightblue" d="M201.73,-166.34C203.59,-165.02 205.36,-163.57 207,-162 239.53,-130.68 208.92,-96.62 243,-67 248.76,-62 255.55,-58.23 262.74,-55.42"/>
<polygon fill="midnightblue" stroke="midnightblue" points="199.88,-163.37 193,-171.42 203.4,-169.42 199.88,-163.37"/>
</g>
<!-- Node31 -->
<g id="node31" class="node">
<title>Node31</title>
<g id="a_node31"><a xlink:href="structAPT_1_1Internal_1_1Patterns_1_1VersionIsVersion.xhtml" target="_top" xlink:title=" ">
<polygon fill="white" stroke="black" points="279.5,-0.5 279.5,-19.5 376.5,-19.5 376.5,-0.5 279.5,-0.5"/>
<text text-anchor="middle" x="328" y="-7.5" font-family="Helvetica,sans-Serif" font-size="10.00">VersionIsVersion</text>
</a>
</g>
</g>
<!-- Node23&#45;&gt;Node31 -->
<g id="edge30" class="edge">
<title>Node23&#45;&gt;Node31</title>
<path fill="none" stroke="midnightblue" d="M202.52,-166.08C204.12,-164.82 205.62,-163.47 207,-162 248.98,-117.42 198.8,-71.39 243,-29 252.71,-19.69 265.98,-14.57 279.1,-11.86"/>
<polygon fill="midnightblue" stroke="midnightblue" points="200.52,-163.2 193.93,-171.5 204.25,-169.12 200.52,-163.2"/>
</g>
</g>
</svg>
