<?xml version="1.0" encoding="UTF-8" standalone="no"?>
<!DOCTYPE svg PUBLIC "-//W3C//DTD SVG 1.1//EN"
 "http://www.w3.org/Graphics/SVG/1.1/DTD/svg11.dtd">
<!-- Generated by graphviz version 2.43.0 (0)
 -->
<!-- Title: debSrcRecordParser Pages: 1 -->
<svg width="473pt" height="230pt"
 viewBox="0.00 0.00 472.50 230.00" xmlns="http://www.w3.org/2000/svg" xmlns:xlink="http://www.w3.org/1999/xlink">
<g id="graph0" class="graph" transform="scale(1 1) rotate(0) translate(4 226)">
<title>debSrcRecordParser</title>
<polygon fill="white" stroke="transparent" points="-4,4 -4,-226 468.5,-226 468.5,4 -4,4"/>
<!-- Node1 -->
<g id="node1" class="node">
<title>Node1</title>
<g id="a_node1"><a xlink:title=" ">
<polygon fill="#bfbfbf" stroke="black" points="194,-0.5 194,-19.5 307,-19.5 307,-0.5 194,-0.5"/>
<text text-anchor="middle" x="250.5" y="-7.5" font-family="Helvetica,sans-Serif" font-size="10.00">debSrcRecordParser</text>
</a>
</g>
</g>
<!-- Node2 -->
<g id="node2" class="node">
<title>Node2</title>
<g id="a_node2"><a xlink:href="classpkgSrcRecords_1_1Parser.xhtml" target="_top" xlink:title=" ">
<polygon fill="white" stroke="black" points="16,-67.5 16,-86.5 63,-86.5 63,-67.5 16,-67.5"/>
<text text-anchor="middle" x="39.5" y="-74.5" font-family="Helvetica,sans-Serif" font-size="10.00">Parser</text>
</a>
</g>
</g>
<!-- Node2&#45;&gt;Node1 -->
<g id="edge1" class="edge">
<title>Node2&#45;&gt;Node1</title>
<path fill="none" stroke="midnightblue" d="M72.93,-65.7C114.36,-52.94 184.21,-31.42 222.79,-19.53"/>
<polygon fill="midnightblue" stroke="midnightblue" points="71.82,-62.38 63.29,-68.67 73.88,-69.07 71.82,-62.38"/>
</g>
<!-- Node3 -->
<g id="node3" class="node">
<title>Node3</title>
<g id="a_node3"><a xlink:href="classpkgIndexFile.xhtml" target="_top" xlink:title=" ">
<polygon fill="white" stroke="black" points="0,-145.5 0,-164.5 79,-164.5 79,-145.5 0,-145.5"/>
<text text-anchor="middle" x="39.5" y="-152.5" font-family="Helvetica,sans-Serif" font-size="10.00">pkgIndexFile</text>
</a>
</g>
</g>
<!-- Node3&#45;&gt;Node2 -->
<g id="edge2" class="edge">
<title>Node3&#45;&gt;Node2</title>
<path fill="none" stroke="#9a32cd" stroke-dasharray="5,2" d="M39.5,-135.22C39.5,-119.7 39.5,-98.36 39.5,-86.62"/>
<polygon fill="#9a32cd" stroke="#9a32cd" points="36,-135.28 39.5,-145.28 43,-135.28 36,-135.28"/>
<text text-anchor="middle" x="56.5" y="-113.5" font-family="Helvetica,sans-Serif" font-size="10.00"> iIndex</text>
</g>
<!-- Node4 -->
<g id="node4" class="node">
<title>Node4</title>
<g id="a_node4"><a xlink:href="classpkgTagSection.xhtml" target="_top" xlink:title=" ">
<polygon fill="white" stroke="black" points="81,-67.5 81,-86.5 168,-86.5 168,-67.5 81,-67.5"/>
<text text-anchor="middle" x="124.5" y="-74.5" font-family="Helvetica,sans-Serif" font-size="10.00">pkgTagSection</text>
</a>
</g>
</g>
<!-- Node4&#45;&gt;Node1 -->
<g id="edge3" class="edge">
<title>Node4&#45;&gt;Node1</title>
<path fill="none" stroke="#9a32cd" stroke-dasharray="5,2" d="M150.14,-62.77C175.09,-49.9 212.3,-30.71 233.7,-19.67"/>
<polygon fill="#9a32cd" stroke="#9a32cd" points="148.51,-59.67 141.23,-67.37 151.72,-65.89 148.51,-59.67"/>
<text text-anchor="middle" x="208" y="-41" font-family="Helvetica,sans-Serif" font-size="10.00"> Sect</text>
</g>
<!-- Node5 -->
<g id="node5" class="node">
<title>Node5</title>
<g id="a_node5"><a xlink:title=" ">
<polygon fill="white" stroke="#bfbfbf" points="186.5,-67.5 186.5,-86.5 314.5,-86.5 314.5,-67.5 186.5,-67.5"/>
<text text-anchor="middle" x="250.5" y="-74.5" font-family="Helvetica,sans-Serif" font-size="10.00">vector&lt; const char * &gt;</text>
</a>
</g>
</g>
<!-- Node5&#45;&gt;Node1 -->
<g id="edge4" class="edge">
<title>Node5&#45;&gt;Node1</title>
<path fill="none" stroke="#9a32cd" stroke-dasharray="5,2" d="M250.5,-57.04C250.5,-44.67 250.5,-29.12 250.5,-19.63"/>
<polygon fill="#9a32cd" stroke="#9a32cd" points="247,-57.23 250.5,-67.23 254,-57.23 247,-57.23"/>
<text text-anchor="middle" x="282.5" y="-41" font-family="Helvetica,sans-Serif" font-size="10.00"> StaticBinList</text>
</g>
<!-- Node6 -->
<g id="node6" class="node">
<title>Node6</title>
<g id="a_node6"><a xlink:href="classFileFd.xhtml" target="_top" xlink:title=" ">
<polygon fill="white" stroke="black" points="332.5,-67.5 332.5,-86.5 378.5,-86.5 378.5,-67.5 332.5,-67.5"/>
<text text-anchor="middle" x="355.5" y="-74.5" font-family="Helvetica,sans-Serif" font-size="10.00">FileFd</text>
</a>
</g>
</g>
<!-- Node6&#45;&gt;Node1 -->
<g id="edge5" class="edge">
<title>Node6&#45;&gt;Node1</title>
<path fill="none" stroke="#9a32cd" stroke-dasharray="5,2" d="M342.21,-59.46C335.67,-52.14 327.31,-43.88 318.5,-38 306.67,-30.1 292.17,-23.95 279.61,-19.52"/>
<polygon fill="#9a32cd" stroke="#9a32cd" points="339.82,-62.07 348.96,-67.43 345.16,-57.54 339.82,-62.07"/>
<text text-anchor="middle" x="339.5" y="-41" font-family="Helvetica,sans-Serif" font-size="10.00"> Fd</text>
</g>
<!-- Node7 -->
<g id="node7" class="node">
<title>Node7</title>
<g id="a_node7"><a xlink:title=" ">
<polygon fill="white" stroke="#bfbfbf" points="333.5,-145.5 333.5,-164.5 377.5,-164.5 377.5,-145.5 333.5,-145.5"/>
<text text-anchor="middle" x="355.5" y="-152.5" font-family="Helvetica,sans-Serif" font-size="10.00">string</text>
</a>
</g>
</g>
<!-- Node7&#45;&gt;Node6 -->
<g id="edge6" class="edge">
<title>Node7&#45;&gt;Node6</title>
<path fill="none" stroke="#9a32cd" stroke-dasharray="5,2" d="M355.5,-135.22C355.5,-119.7 355.5,-98.36 355.5,-86.62"/>
<polygon fill="#9a32cd" stroke="#9a32cd" points="352,-135.28 355.5,-145.28 359,-135.28 352,-135.28"/>
<text text-anchor="middle" x="405" y="-119" font-family="Helvetica,sans-Serif" font-size="10.00"> FileName</text>
<text text-anchor="middle" x="405" y="-108" font-family="Helvetica,sans-Serif" font-size="10.00">TemporaryFileName</text>
</g>
<!-- Node8 -->
<g id="node8" class="node">
<title>Node8</title>
<g id="a_node8"><a xlink:title=" ">
<polygon fill="white" stroke="#bfbfbf" points="295.5,-202.5 295.5,-221.5 415.5,-221.5 415.5,-202.5 295.5,-202.5"/>
<text text-anchor="middle" x="355.5" y="-209.5" font-family="Helvetica,sans-Serif" font-size="10.00">basic_string&lt; Char &gt;</text>
</a>
</g>
</g>
<!-- Node8&#45;&gt;Node7 -->
<g id="edge7" class="edge">
<title>Node8&#45;&gt;Node7</title>
<path fill="none" stroke="midnightblue" d="M355.5,-192.12C355.5,-182.82 355.5,-172.06 355.5,-164.71"/>
<polygon fill="midnightblue" stroke="midnightblue" points="352,-192.41 355.5,-202.41 359,-192.41 352,-192.41"/>
</g>
<!-- Node9 -->
<g id="node9" class="node">
<title>Node9</title>
<g id="a_node9"><a xlink:href="classpkgTagFile.xhtml" target="_top" xlink:title=" ">
<polygon fill="white" stroke="black" points="396.5,-67.5 396.5,-86.5 464.5,-86.5 464.5,-67.5 396.5,-67.5"/>
<text text-anchor="middle" x="430.5" y="-74.5" font-family="Helvetica,sans-Serif" font-size="10.00">pkgTagFile</text>
</a>
</g>
</g>
<!-- Node9&#45;&gt;Node1 -->
<g id="edge8" class="edge">
<title>Node9&#45;&gt;Node1</title>
<path fill="none" stroke="#9a32cd" stroke-dasharray="5,2" d="M405.56,-62.52C390.27,-54.63 370.11,-44.9 351.5,-38 331.42,-30.56 308.39,-24.24 289.4,-19.59"/>
<polygon fill="#9a32cd" stroke="#9a32cd" points="404.36,-65.84 414.84,-67.39 407.61,-59.64 404.36,-65.84"/>
<text text-anchor="middle" x="388" y="-41" font-family="Helvetica,sans-Serif" font-size="10.00"> Tags</text>
</g>
</g>
</svg>
