<svg xmlns="http://www.w3.org/2000/svg" xmlns:xlink="http://www.w3.org/1999/xlink" width="226pt" height="292" viewBox="0 0 225.5 219"><g id="graph0" class="graph" transform="scale(1 1) rotate(0) translate(4 215)"><title>pkgDPkgPMPrivate</title><polygon fill="#fff" stroke="transparent" points="-4 4 -4 -215 221.5 -215 221.5 4 -4 4"/><g id="node1" class="node"><title>Node1</title><g id="a_node1"><a><polygon fill="#bfbfbf" stroke="#000" points="5 -.5 5 -19.5 115 -19.5 115 -.5 5 -.5"/><text x="60" y="-7.5" font-family="Helvetica,sans-Serif" font-size="10" text-anchor="middle">pkgDPkgPMPrivate</text></a></g></g><g id="node2" class="node"><title>Node2</title><g id="a_node2"><a target="_top" xlink:href="classAPT_1_1Progress_1_1PackageManager.xhtml"><polygon fill="#fff" stroke="#000" points="118.5 -67.5 118.5 -86.5 217.5 -86.5 217.5 -67.5 118.5 -67.5"/><text x="168" y="-74.5" font-family="Helvetica,sans-Serif" font-size="10" text-anchor="middle">PackageManager</text></a></g></g><g id="edge1" class="edge"><title>Node2-&gt;Node1</title><path fill="none" stroke="#9a32cd" stroke-dasharray="5 2" d="M144.64,-61.94C123.25,-49.07 92.28,-30.43 74.33,-19.63"/><polygon fill="#9a32cd" stroke="#9a32cd" points="143.06 -65.08 153.43 -67.23 146.67 -59.08 143.06 -65.08"/><text x="143" y="-41" font-family="Helvetica,sans-Serif" font-size="10" text-anchor="middle">progress</text></g><g id="node3" class="node"><title>Node3</title><g id="a_node3"><a><polygon fill="#fff" stroke="#bfbfbf" points="38 -134.5 38 -153.5 82 -153.5 82 -134.5 38 -134.5"/><text x="60" y="-141.5" font-family="Helvetica,sans-Serif" font-size="10" text-anchor="middle">string</text></a></g></g><g id="edge4" class="edge"><title>Node3-&gt;Node1</title><path fill="none" stroke="#9a32cd" stroke-dasharray="5 2" d="M57.08,-123.85C55.08,-108.49 52.96,-86.38 54,-67 54.9,-50.21 57.3,-30.7 58.78,-19.71"/><polygon fill="#9a32cd" stroke="#9a32cd" points="53.67 -124.71 58.53 -134.12 60.6 -123.73 53.67 -124.71"/><text x="82" y="-74.5" font-family="Helvetica,sans-Serif" font-size="10" text-anchor="middle">dpkg_error</text></g><g id="edge2" class="edge"><title>Node3-&gt;Node2</title><path fill="none" stroke="#9a32cd" stroke-dasharray="5 2" d="M83.36,-128.94C104.75,-116.07 135.72,-97.43 153.67,-86.63"/><polygon fill="#9a32cd" stroke="#9a32cd" points="81.33 -126.08 74.57 -134.23 84.94 -132.08 81.33 -126.08"/><text x="152" y="-108" font-family="Helvetica,sans-Serif" font-size="10" text-anchor="middle">progress_str</text></g><g id="node4" class="node"><title>Node4</title><g id="a_node4"><a><polygon fill="#fff" stroke="#bfbfbf" points="0 -191.5 0 -210.5 120 -210.5 120 -191.5 0 -191.5"/><text x="60" y="-198.5" font-family="Helvetica,sans-Serif" font-size="10" text-anchor="middle">basic_string&lt; Char &gt;</text></a></g></g><g id="edge3" class="edge"><title>Node4-&gt;Node3</title><path fill="none" stroke="#191970" d="M60,-181.12C60,-171.82 60,-161.06 60,-153.71"/><polygon fill="#191970" stroke="#191970" points="56.5 -181.41 60 -191.41 63.5 -181.41 56.5 -181.41"/></g></g></svg>