<svg xmlns="http://www.w3.org/2000/svg" xmlns:xlink="http://www.w3.org/1999/xlink" id="main" onload="init(evt)" version="1.1" xml:space="preserve"><style type="text/css">.edge:hover path{stroke:red}.edge:hover polygon{stroke:red;fill:red}</style><script type="text/javascript"><![CDATA[
var edges = document.getElementsByTagName('g');
if (edges && edges.length) {
  for (var i=0;i<edges.length;i++) {
    if (edges[i].id.substr(0,4)=='edge') {
      edges[i].setAttribute('class','edge');
    }
  }
}
]]></script><defs><circle id="rim" cx="0" cy="0" r="7"/><circle id="rim2" cx="0" cy="0" r="3.5"/><g id="zoomPlus"><use fill="#404040" xlink:href="#rim"><set attributeName="fill" begin="zoomplus.mouseover" end="zoomplus.mouseout" to="#808080"/></use><path fill="none" stroke="#fff" stroke-width="1.5" d="M-4,0h8M0,-4v8" pointer-events="none"/></g><g id="zoomMin"><use fill="#404040" xlink:href="#rim"><set attributeName="fill" begin="zoomminus.mouseover" end="zoomminus.mouseout" to="#808080"/></use><path fill="none" stroke="#fff" stroke-width="1.5" d="M-4,0h8" pointer-events="none"/></g><g id="dirArrow"><path fill="none" stroke="#fff" stroke-width="1.5" d="M0,-3.0v7 M-2.5,-0.5L0,-3.0L2.5,-0.5"/></g><g id="resetDef"><use fill="#404040" xlink:href="#rim2"><set attributeName="fill" begin="reset.mouseover" end="reset.mouseout" to="#808080"/></use></g></defs><script type="text/javascript">var viewWidth = 566; var viewHeight = 122; var sectionId = &apos;dynsection-1&apos;;</script><script xlink:href="svgpan.js"/><svg id="graph" class="graph"><g id="viewport"><title>PackageUniverse::const_iterator</title><polygon fill="#fff" stroke="transparent" points="-4 4 -4 -117.5 562 -117.5 562 4 -4 4"/><g id="node1" class="node"><title>Node1</title><g id="a_node1"><a><polygon fill="#bfbfbf" stroke="#000" points="426 -39 426 -69 558 -69 558 -39 426 -39"/><text x="434" y="-57" font-family="Helvetica,sans-Serif" font-size="10" text-anchor="start">PackageUniverse::const</text><text x="492" y="-46" font-family="Helvetica,sans-Serif" font-size="10" text-anchor="middle">_iterator</text></a></g></g><g id="node2" class="node"><title>Node2</title><g id="a_node2"><a target="_top" xlink:href="classAPT_1_1Container__iterator__base.xhtml"><polygon fill="#fff" stroke="#000" points="208 -17 208 -91 390 -91 390 -17 208 -17"/><text x="216" y="-79" font-family="Helvetica,sans-Serif" font-size="10" text-anchor="start">Container_iterator</text><text x="216" y="-68" font-family="Helvetica,sans-Serif" font-size="10" text-anchor="start">_base&lt; APT::PackageContainer</text><text x="216" y="-57" font-family="Helvetica,sans-Serif" font-size="10" text-anchor="start">Interface, PackageUniverse,</text><text x="216" y="-46" font-family="Helvetica,sans-Serif" font-size="10" text-anchor="start">PackageUniverse::const_iterator,</text><text x="216" y="-35" font-family="Helvetica,sans-Serif" font-size="10" text-anchor="start">pkgCache::PkgIterator, pkgCache</text><text x="299" y="-24" font-family="Helvetica,sans-Serif" font-size="10" text-anchor="middle">::PkgIterator &gt;</text></a></g></g><g id="edge1" class="edge"><title>Node2-&gt;Node1</title><path fill="none" stroke="#191970" d="M400.38,-54C409.06,-54 417.69,-54 425.97,-54"/><polygon fill="#191970" stroke="#191970" points="400.19 -50.5 390.19 -54 400.19 -57.5 400.19 -50.5"/></g><g id="node3" class="node"><title>Node3</title><g id="a_node3"><a><polygon fill="#fff" stroke="#bfbfbf" points="0 -61 0 -113 172 -113 172 -61 0 -61"/><text x="8" y="-101" font-family="Helvetica,sans-Serif" font-size="10" text-anchor="start">iterator&lt; std::iterator</text><text x="8" y="-90" font-family="Helvetica,sans-Serif" font-size="10" text-anchor="start">_traits&lt; pkgCache::PkgIterator</text><text x="8" y="-79" font-family="Helvetica,sans-Serif" font-size="10" text-anchor="start">&gt;::iterator_category, pkgCache</text><text x="86" y="-68" font-family="Helvetica,sans-Serif" font-size="10" text-anchor="middle">::PkgIterator &gt;</text></a></g></g><g id="edge2" class="edge"><title>Node3-&gt;Node2</title><path fill="none" stroke="#191970" d="M182.22,-72.11C190.8,-70.77 199.46,-69.41 207.99,-68.08"/><polygon fill="#191970" stroke="#191970" points="181.55 -68.67 172.21 -73.67 182.63 -75.59 181.55 -68.67"/></g><g id="node4" class="node"><title>Node4</title><g id="a_node4"><a><polygon fill="#fff" stroke="#bfbfbf" points="14.5 -.5 14.5 -41.5 157.5 -41.5 157.5 -.5 14.5 -.5"/><text x="22.5" y="-29.5" font-family="Helvetica,sans-Serif" font-size="10" text-anchor="start">template iterator_base</text><text x="22.5" y="-18.5" font-family="Helvetica,sans-Serif" font-size="10" text-anchor="start">&lt; PackageUniverse::const</text><text x="86" y="-7.5" font-family="Helvetica,sans-Serif" font-size="10" text-anchor="middle">_iterator &gt;</text></a></g></g><g id="edge3" class="edge"><title>Node4-&gt;Node2</title><path fill="none" stroke="#191970" d="M167.47,-33.59C180.6,-35.64 194.28,-37.78 207.63,-39.87"/><polygon fill="#191970" stroke="#191970" points="167.97 -30.12 157.55 -32.03 166.89 -37.04 167.97 -30.12"/></g></g></svg><g id="navigator" fill="#404254" transform="translate(0 0)"><rect width="60" height="60" x="0" y="0" fill="#f2f5e9" fill-opacity=".5" stroke="#606060" stroke-width=".5"/><use id="zoomplus" x="17" y="9" onmousedown="handleZoom(evt,'in')" xlink:href="#zoomPlus"/><use id="zoomminus" x="42" y="9" onmousedown="handleZoom(evt,'out')" xlink:href="#zoomMin"/><use id="reset" x="30" y="36" onmousedown="handleReset()" xlink:href="#resetDef"/><g id="arrowUp" onmousedown="handlePan(0,-1)" transform="translate(30 24)" xlink:href="#dirArrow"><use fill="#404040" xlink:href="#rim"><set attributeName="fill" begin="arrowUp.mouseover" end="arrowUp.mouseout" to="#808080"/></use><path fill="none" stroke="#fff" stroke-width="1.5" d="M0,-3.0v7 M-2.5,-0.5L0,-3.0L2.5,-0.5"/></g><g id="arrowRight" onmousedown="handlePan(1,0)" transform="rotate(90) translate(36 -43)" xlink:href="#dirArrow"><use fill="#404040" xlink:href="#rim"><set attributeName="fill" begin="arrowRight.mouseover" end="arrowRight.mouseout" to="#808080"/></use><path fill="none" stroke="#fff" stroke-width="1.5" d="M0,-3.0v7 M-2.5,-0.5L0,-3.0L2.5,-0.5"/></g><g id="arrowDown" onmousedown="handlePan(0,1)" transform="rotate(180) translate(-30 -48)" xlink:href="#dirArrow"><use fill="#404040" xlink:href="#rim"><set attributeName="fill" begin="arrowDown.mouseover" end="arrowDown.mouseout" to="#808080"/></use><path fill="none" stroke="#fff" stroke-width="1.5" d="M0,-3.0v7 M-2.5,-0.5L0,-3.0L2.5,-0.5"/></g><g id="arrowLeft" onmousedown="handlePan(-1,0)" transform="rotate(270) translate(-36 17)" xlink:href="#dirArrow"><use fill="#404040" xlink:href="#rim"><set attributeName="fill" begin="arrowLeft.mouseover" end="arrowLeft.mouseout" to="#808080"/></use><path fill="none" stroke="#fff" stroke-width="1.5" d="M0,-3.0v7 M-2.5,-0.5L0,-3.0L2.5,-0.5"/></g></g><svg width="100%" height="30" preserveAspectRatio="xMaxYMin meet" viewBox="0 0 15 15"><g id="arrow_out" transform="scale(0.3 0.3)"><a target="_base" xlink:href="classAPT_1_1PackageUniverse_1_1const__iterator__coll__graph_org.svg"><rect id="button" width="38" height="38" x="6" y="6" fill="#f2f5e9" fill-opacity=".5" stroke="#606060" stroke-width="1" rx="5" ry="5"/><path id="arrow" d="M 11.500037,31.436501 C 11.940474,20.09759 22.043105,11.32322 32.158766,21.979434 L 37.068811,17.246167 C 37.068811,17.246167 37.088388,32 37.088388,32 L 22.160133,31.978069 C 22.160133,31.978069 26.997745,27.140456 26.997745,27.140456 C 18.528582,18.264221 13.291696,25.230495 11.500037,31.436501 z" style="fill:#404040"/></a></g></svg></svg>