<?xml version="1.0" encoding="UTF-8" standalone="no"?>
<!DOCTYPE svg PUBLIC "-//W3C//DTD SVG 1.1//EN"
 "http://www.w3.org/Graphics/SVG/1.1/DTD/svg11.dtd">
<!-- Generated by graphviz version 2.43.0 (0)
 -->
<!-- Title: pkgAcqDiffIndex Pages: 1 -->
<svg width="139pt" height="252pt"
 viewBox="0.00 0.00 139.00 252.00" xmlns="http://www.w3.org/2000/svg" xmlns:xlink="http://www.w3.org/1999/xlink">
<g id="graph0" class="graph" transform="scale(1 1) rotate(0) translate(4 248)">
<title>pkgAcqDiffIndex</title>
<polygon fill="white" stroke="transparent" points="-4,4 -4,-248 135,-248 135,4 -4,4"/>
<!-- Node1 -->
<g id="node1" class="node">
<title>Node1</title>
<g id="a_node1"><a xlink:title="An item that is responsible for fetching an index file of {{{ package list diffs and starting the pac...">
<polygon fill="#bfbfbf" stroke="black" points="17,-0.5 17,-19.5 114,-19.5 114,-0.5 17,-0.5"/>
<text text-anchor="middle" x="65.5" y="-7.5" font-family="Helvetica,sans-Serif" font-size="10.00">pkgAcqDiffIndex</text>
</a>
</g>
</g>
<!-- Node2 -->
<g id="node2" class="node">
<title>Node2</title>
<g id="a_node2"><a xlink:href="classpkgAcqIndex.xhtml" target="_top" xlink:title="An acquire item that is responsible for fetching an index {{{ file (e.g., Packages or Sources).">
<polygon fill="white" stroke="black" points="25.5,-56.5 25.5,-75.5 105.5,-75.5 105.5,-56.5 25.5,-56.5"/>
<text text-anchor="middle" x="65.5" y="-63.5" font-family="Helvetica,sans-Serif" font-size="10.00">pkgAcqIndex</text>
</a>
</g>
</g>
<!-- Node2&#45;&gt;Node1 -->
<g id="edge1" class="edge">
<title>Node2&#45;&gt;Node1</title>
<path fill="none" stroke="midnightblue" d="M65.5,-45.8C65.5,-36.91 65.5,-26.78 65.5,-19.75"/>
<polygon fill="midnightblue" stroke="midnightblue" points="62,-46.08 65.5,-56.08 69,-46.08 62,-46.08"/>
</g>
<!-- Node3 -->
<g id="node3" class="node">
<title>Node3</title>
<g id="a_node3"><a xlink:href="classpkgAcqBaseIndex.xhtml" target="_top" xlink:title="Common base class for all classes that deal with fetching indexes {{{.">
<polygon fill="white" stroke="black" points="13.5,-112.5 13.5,-131.5 117.5,-131.5 117.5,-112.5 13.5,-112.5"/>
<text text-anchor="middle" x="65.5" y="-119.5" font-family="Helvetica,sans-Serif" font-size="10.00">pkgAcqBaseIndex</text>
</a>
</g>
</g>
<!-- Node3&#45;&gt;Node2 -->
<g id="edge2" class="edge">
<title>Node3&#45;&gt;Node2</title>
<path fill="none" stroke="midnightblue" d="M65.5,-101.8C65.5,-92.91 65.5,-82.78 65.5,-75.75"/>
<polygon fill="midnightblue" stroke="midnightblue" points="62,-102.08 65.5,-112.08 69,-102.08 62,-102.08"/>
</g>
<!-- Node4 -->
<g id="node4" class="node">
<title>Node4</title>
<g id="a_node4"><a xlink:href="classpkgAcqTransactionItem.xhtml" target="_top" xlink:title="baseclass for the indexes files to manage them all together">
<polygon fill="white" stroke="black" points="0,-168.5 0,-187.5 131,-187.5 131,-168.5 0,-168.5"/>
<text text-anchor="middle" x="65.5" y="-175.5" font-family="Helvetica,sans-Serif" font-size="10.00">pkgAcqTransactionItem</text>
</a>
</g>
</g>
<!-- Node4&#45;&gt;Node3 -->
<g id="edge3" class="edge">
<title>Node4&#45;&gt;Node3</title>
<path fill="none" stroke="midnightblue" d="M65.5,-157.8C65.5,-148.91 65.5,-138.78 65.5,-131.75"/>
<polygon fill="midnightblue" stroke="midnightblue" points="62,-158.08 65.5,-168.08 69,-158.08 62,-158.08"/>
</g>
<!-- Node5 -->
<g id="node5" class="node">
<title>Node5</title>
<g id="a_node5"><a xlink:title=" ">
<polygon fill="white" stroke="#bfbfbf" points="46,-224.5 46,-243.5 85,-243.5 85,-224.5 46,-224.5"/>
<text text-anchor="middle" x="65.5" y="-231.5" font-family="Helvetica,sans-Serif" font-size="10.00">Item</text>
</a>
</g>
</g>
<!-- Node5&#45;&gt;Node4 -->
<g id="edge4" class="edge">
<title>Node5&#45;&gt;Node4</title>
<path fill="none" stroke="midnightblue" d="M65.5,-213.8C65.5,-204.91 65.5,-194.78 65.5,-187.75"/>
<polygon fill="midnightblue" stroke="midnightblue" points="62,-214.08 65.5,-224.08 69,-214.08 62,-214.08"/>
</g>
</g>
</svg>
