<svg xmlns="http://www.w3.org/2000/svg" xmlns:xlink="http://www.w3.org/1999/xlink" width="268" height="218pt" viewBox="0 0 201 218"><g id="graph0" class="graph" transform="scale(1 1) rotate(0) translate(4 214)"><title>StateChanges::Private</title><polygon fill="#fff" stroke="transparent" points="-4 4 -4 -214 197 -214 197 4 -4 4"/><g id="node1" class="node"><title>Node1</title><g id="a_node1"><a><polygon fill="#bfbfbf" stroke="#000" points="34 -.5 34 -19.5 159 -19.5 159 -.5 34 -.5"/><text x="96.5" y="-7.5" font-family="Helvetica,sans-Serif" font-size="10" text-anchor="middle">StateChanges::Private</text></a></g></g><g id="node2" class="node"><title>Node2</title><g id="a_node2"><a target="_top" xlink:href="classAPT_1_1VersionContainer.xhtml"><polygon fill="#fff" stroke="#000" points="0 -122.5 0 -152.5 193 -152.5 193 -122.5 0 -122.5"/><text x="8" y="-140.5" font-family="Helvetica,sans-Serif" font-size="10" text-anchor="start">VersionContainer&lt; std</text><text x="96.5" y="-129.5" font-family="Helvetica,sans-Serif" font-size="10" text-anchor="middle">::vector&lt; pkgCache::VerIterator &gt; &gt;</text></a></g></g><g id="edge1" class="edge"><title>Node2-&gt;Node1</title><path fill="none" stroke="#9a32cd" stroke-dasharray="5 2" d="M96.5,-111.79C96.5,-83.42 96.5,-38.39 96.5,-19.64"/><polygon fill="#9a32cd" stroke="#9a32cd" points="93 -112.1 96.5 -122.1 100 -112.1 93 -112.1"/><text x="119.5" y="-96" font-family="Helvetica,sans-Serif" font-size="10" text-anchor="middle">deinstall</text><text x="119.5" y="-85" font-family="Helvetica,sans-Serif" font-size="10" text-anchor="middle">error</text><text x="119.5" y="-74" font-family="Helvetica,sans-Serif" font-size="10" text-anchor="middle">hold</text><text x="119.5" y="-63" font-family="Helvetica,sans-Serif" font-size="10" text-anchor="middle">install</text><text x="119.5" y="-52" font-family="Helvetica,sans-Serif" font-size="10" text-anchor="middle">purge</text><text x="119.5" y="-41" font-family="Helvetica,sans-Serif" font-size="10" text-anchor="middle">unhold</text></g><g id="node3" class="node"><title>Node3</title><g id="a_node3"><a target="_top" xlink:href="classAPT_1_1VersionContainerInterface.xhtml"><polygon fill="#fff" stroke="#000" points="25 -190.5 25 -209.5 168 -209.5 168 -190.5 25 -190.5"/><text x="96.5" y="-197.5" font-family="Helvetica,sans-Serif" font-size="10" text-anchor="middle">VersionContainerInterface</text></a></g></g><g id="edge2" class="edge"><title>Node3-&gt;Node2</title><path fill="none" stroke="#191970" d="M96.5,-180.22C96.5,-171.36 96.5,-160.96 96.5,-152.76"/><polygon fill="#191970" stroke="#191970" points="93 -180.33 96.5 -190.33 100 -180.33 93 -180.33"/></g></g></svg>