<svg xmlns="http://www.w3.org/2000/svg" xmlns:xlink="http://www.w3.org/1999/xlink" width="132" height="140pt" viewBox="0 0 99 140"><g id="graph0" class="graph" transform="scale(1 1) rotate(0) translate(4 136)"><title>debIFTypeTrans</title><polygon fill="#fff" stroke="transparent" points="-4 4 -4 -136 95 -136 95 4 -4 4"/><g id="node1" class="node"><title>Node1</title><g id="a_node1"><a><polygon fill="#bfbfbf" stroke="#000" points="0 -.5 0 -19.5 91 -19.5 91 -.5 0 -.5"/><text x="45.5" y="-7.5" font-family="Helvetica,sans-Serif" font-size="10" text-anchor="middle">debIFTypeTrans</text></a></g></g><g id="node2" class="node"><title>Node2</title><g id="a_node2"><a target="_top" xlink:href="classdebIFTypePkg.xhtml"><polygon fill="#fff" stroke="#000" points="4 -56.5 4 -75.5 87 -75.5 87 -56.5 4 -56.5"/><text x="45.5" y="-63.5" font-family="Helvetica,sans-Serif" font-size="10" text-anchor="middle">debIFTypePkg</text></a></g></g><g id="edge1" class="edge"><title>Node2-&gt;Node1</title><path fill="none" stroke="#191970" d="M45.5,-45.8C45.5,-36.91 45.5,-26.78 45.5,-19.75"/><polygon fill="#191970" stroke="#191970" points="42 -46.08 45.5 -56.08 49 -46.08 42 -46.08"/></g><g id="node3" class="node"><title>Node3</title><g id="a_node3"><a target="_top" xlink:href="classpkgIndexFile_1_1Type.xhtml"><polygon fill="#fff" stroke="#000" points="26 -112.5 26 -131.5 65 -131.5 65 -112.5 26 -112.5"/><text x="45.5" y="-119.5" font-family="Helvetica,sans-Serif" font-size="10" text-anchor="middle">Type</text></a></g></g><g id="edge2" class="edge"><title>Node3-&gt;Node2</title><path fill="none" stroke="#191970" d="M45.5,-101.8C45.5,-92.91 45.5,-82.78 45.5,-75.75"/><polygon fill="#191970" stroke="#191970" points="42 -102.08 45.5 -112.08 49 -102.08 42 -102.08"/></g></g></svg>