<svg xmlns="http://www.w3.org/2000/svg" xmlns:xlink="http://www.w3.org/1999/xlink" width="598pt" height="176" viewBox="0 0 598 132"><g id="graph0" class="graph" transform="scale(1 1) rotate(0) translate(4 128)"><title>Container_const_reverse_iterator&lt; Interface, Container, Master &gt;</title><polygon fill="#fff" stroke="transparent" points="-4 4 -4 -128 594 -128 594 4 -4 4"/><g id="node1" class="node"><title>Node1</title><g id="a_node1"><a><polygon fill="#bfbfbf" stroke="#000" points="453 -41 453 -82 590 -82 590 -41 453 -41"/><text x="461" y="-70" font-family="Helvetica,sans-Serif" font-size="10" text-anchor="start">Container_const_reverse</text><text x="461" y="-59" font-family="Helvetica,sans-Serif" font-size="10" text-anchor="start">_iterator&lt; Interface,</text><text x="521.5" y="-48" font-family="Helvetica,sans-Serif" font-size="10" text-anchor="middle">Container, Master &gt;</text></a></g></g><g id="node2" class="node"><title>Node2</title><g id="a_node2"><a target="_top" xlink:href="classAPT_1_1Container__iterator__base.xhtml"><polygon fill="#fff" stroke="#000" points="225 -24.5 225 -98.5 417 -98.5 417 -24.5 225 -24.5"/><text x="233" y="-86.5" font-family="Helvetica,sans-Serif" font-size="10" text-anchor="start">Container_iterator</text><text x="233" y="-75.5" font-family="Helvetica,sans-Serif" font-size="10" text-anchor="start">_base&lt; Interface, Master,</text><text x="233" y="-64.5" font-family="Helvetica,sans-Serif" font-size="10" text-anchor="start">Container_const_reverse</text><text x="233" y="-53.5" font-family="Helvetica,sans-Serif" font-size="10" text-anchor="start">_iterator&lt; Interface, Container,</text><text x="233" y="-42.5" font-family="Helvetica,sans-Serif" font-size="10" text-anchor="start">Master &gt;, Container::const_reverse</text><text x="321" y="-31.5" font-family="Helvetica,sans-Serif" font-size="10" text-anchor="middle">_iterator, Container::value_type &gt;</text></a></g></g><g id="edge1" class="edge"><title>Node2-&gt;Node1</title><path fill="none" stroke="#191970" d="M427.34,-61.5C435.99,-61.5 444.57,-61.5 452.83,-61.5"/><polygon fill="#191970" stroke="#191970" points="427.18 -58 417.18 -61.5 427.18 -65 427.18 -58"/></g><g id="node3" class="node"><title>Node3</title><g id="a_node3"><a><polygon fill="#fff" stroke="#bfbfbf" points="0 -71.5 0 -123.5 189 -123.5 189 -71.5 0 -71.5"/><text x="8" y="-111.5" font-family="Helvetica,sans-Serif" font-size="10" text-anchor="start">iterator&lt; std::iterator</text><text x="8" y="-100.5" font-family="Helvetica,sans-Serif" font-size="10" text-anchor="start">_traits&lt; Container::const</text><text x="8" y="-89.5" font-family="Helvetica,sans-Serif" font-size="10" text-anchor="start">_reverse_iterator &gt;::iterator</text><text x="94.5" y="-78.5" font-family="Helvetica,sans-Serif" font-size="10" text-anchor="middle">_category, Container::value_type &gt;</text></a></g></g><g id="edge2" class="edge"><title>Node3-&gt;Node2</title><path fill="none" stroke="#191970" d="M199.09,-80.89C207.64,-79.52 216.27,-78.13 224.76,-76.77"/><polygon fill="#191970" stroke="#191970" points="198.4 -77.45 189.08 -82.49 199.51 -84.37 198.4 -77.45"/></g><g id="node4" class="node"><title>Node4</title><g id="a_node4"><a><polygon fill="#fff" stroke="#bfbfbf" points="10 -.5 10 -52.5 179 -52.5 179 -.5 10 -.5"/><text x="18" y="-40.5" font-family="Helvetica,sans-Serif" font-size="10" text-anchor="start">template iterator_base</text><text x="18" y="-29.5" font-family="Helvetica,sans-Serif" font-size="10" text-anchor="start">&lt; Container_const_reverse</text><text x="18" y="-18.5" font-family="Helvetica,sans-Serif" font-size="10" text-anchor="start">_iterator&lt; Interface, Container,</text><text x="94.5" y="-7.5" font-family="Helvetica,sans-Serif" font-size="10" text-anchor="middle">Master &gt; &gt;</text></a></g></g><g id="edge3" class="edge"><title>Node4-&gt;Node2</title><path fill="none" stroke="#191970" d="M189.01,-41.08C200.9,-42.93 213.08,-44.83 225,-46.69"/><polygon fill="#191970" stroke="#191970" points="189.52 -37.61 179.1 -39.53 188.44 -44.53 189.52 -37.61"/></g></g></svg>