<?xml version="1.0" encoding="UTF-8" standalone="no"?>
<!DOCTYPE svg PUBLIC "-//W3C//DTD SVG 1.1//EN"
 "http://www.w3.org/Graphics/SVG/1.1/DTD/svg11.dtd">
<!-- Generated by graphviz version 2.43.0 (0)
 -->
<!-- Title: PackageManagerProgressDeb822Fd Pages: 1 -->
<svg width="199pt" height="209pt"
 viewBox="0.00 0.00 199.00 209.00" xmlns="http://www.w3.org/2000/svg" xmlns:xlink="http://www.w3.org/1999/xlink">
<g id="graph0" class="graph" transform="scale(1 1) rotate(0) translate(4 205)">
<title>PackageManagerProgressDeb822Fd</title>
<polygon fill="white" stroke="transparent" points="-4,4 -4,-205 195,-205 195,4 -4,4"/>
<!-- Node1 -->
<g id="node1" class="node">
<title>Node1</title>
<g id="a_node1"><a xlink:title=" ">
<polygon fill="#bfbfbf" stroke="black" points="0,-0.5 0,-19.5 191,-19.5 191,-0.5 0,-0.5"/>
<text text-anchor="middle" x="95.5" y="-7.5" font-family="Helvetica,sans-Serif" font-size="10.00">PackageManagerProgressDeb822Fd</text>
</a>
</g>
</g>
<!-- Node2 -->
<g id="node2" class="node">
<title>Node2</title>
<g id="a_node2"><a xlink:href="classAPT_1_1Progress_1_1PackageManager.xhtml" target="_top" xlink:title=" ">
<polygon fill="white" stroke="black" points="46,-57.5 46,-76.5 145,-76.5 145,-57.5 46,-57.5"/>
<text text-anchor="middle" x="95.5" y="-64.5" font-family="Helvetica,sans-Serif" font-size="10.00">PackageManager</text>
</a>
</g>
</g>
<!-- Node2&#45;&gt;Node1 -->
<g id="edge1" class="edge">
<title>Node2&#45;&gt;Node1</title>
<path fill="none" stroke="midnightblue" d="M95.5,-47.12C95.5,-37.82 95.5,-27.06 95.5,-19.71"/>
<polygon fill="midnightblue" stroke="midnightblue" points="92,-47.41 95.5,-57.41 99,-47.41 92,-47.41"/>
</g>
<!-- Node3 -->
<g id="node3" class="node">
<title>Node3</title>
<g id="a_node3"><a xlink:title=" ">
<polygon fill="white" stroke="#bfbfbf" points="73.5,-124.5 73.5,-143.5 117.5,-143.5 117.5,-124.5 73.5,-124.5"/>
<text text-anchor="middle" x="95.5" y="-131.5" font-family="Helvetica,sans-Serif" font-size="10.00">string</text>
</a>
</g>
</g>
<!-- Node3&#45;&gt;Node2 -->
<g id="edge2" class="edge">
<title>Node3&#45;&gt;Node2</title>
<path fill="none" stroke="#9a32cd" stroke-dasharray="5,2" d="M95.5,-114.04C95.5,-101.67 95.5,-86.12 95.5,-76.63"/>
<polygon fill="#9a32cd" stroke="#9a32cd" points="92,-114.23 95.5,-124.23 99,-114.23 92,-114.23"/>
<text text-anchor="middle" x="127.5" y="-98" font-family="Helvetica,sans-Serif" font-size="10.00"> progress_str</text>
</g>
<!-- Node4 -->
<g id="node4" class="node">
<title>Node4</title>
<g id="a_node4"><a xlink:title=" ">
<polygon fill="white" stroke="#bfbfbf" points="35.5,-181.5 35.5,-200.5 155.5,-200.5 155.5,-181.5 35.5,-181.5"/>
<text text-anchor="middle" x="95.5" y="-188.5" font-family="Helvetica,sans-Serif" font-size="10.00">basic_string&lt; Char &gt;</text>
</a>
</g>
</g>
<!-- Node4&#45;&gt;Node3 -->
<g id="edge3" class="edge">
<title>Node4&#45;&gt;Node3</title>
<path fill="none" stroke="midnightblue" d="M95.5,-171.12C95.5,-161.82 95.5,-151.06 95.5,-143.71"/>
<polygon fill="midnightblue" stroke="midnightblue" points="92,-171.41 95.5,-181.41 99,-171.41 92,-171.41"/>
</g>
</g>
</svg>
