<svg xmlns="http://www.w3.org/2000/svg" xmlns:xlink="http://www.w3.org/1999/xlink" width="226pt" height="151pt" viewBox="0 0 226 151"><g id="graph0" class="graph" transform="scale(1 1) rotate(0) translate(4 147)"><title>pkgDepCache::DefaultRootSetFunc</title><polygon fill="#fff" stroke="transparent" points="-4 4 -4 -147 222 -147 222 4 -4 4"/><g id="node1" class="node"><title>Node1</title><g id="a_node1"><a xlink:title="Returns true for packages matching a regular expression in APT::NeverAutoRemove."><polygon fill="#bfbfbf" stroke="#000" points="27.5 -56.5 27.5 -86.5 176.5 -86.5 176.5 -56.5 27.5 -56.5"/><text x="35.5" y="-74.5" font-family="Helvetica,sans-Serif" font-size="10" text-anchor="start">pkgDepCache::DefaultRoot</text><text x="102" y="-63.5" font-family="Helvetica,sans-Serif" font-size="10" text-anchor="middle">SetFunc</text></a></g></g><g id="node4" class="node"><title>Node4</title><g id="a_node4"><a target="_top" xlink:href="classDefaultRootSetFunc2.xhtml" xlink:title="Returns true for packages matching a regular expression in APT::NeverAutoRemove."><polygon fill="#fff" stroke="#000" points="42.5 -.5 42.5 -19.5 161.5 -19.5 161.5 -.5 42.5 -.5"/><text x="102" y="-7.5" font-family="Helvetica,sans-Serif" font-size="10" text-anchor="middle">DefaultRootSetFunc2</text></a></g></g><g id="edge3" class="edge"><title>Node1-&gt;Node4</title><path fill="none" stroke="#191970" d="M102,-46.29C102,-36.86 102,-26.65 102,-19.66"/><polygon fill="#191970" stroke="#191970" points="98.5 -46.4 102 -56.4 105.5 -46.4 98.5 -46.4"/></g><g id="node2" class="node"><title>Node2</title><g id="a_node2"><a target="_top" xlink:href="classpkgDepCache_1_1InRootSetFunc.xhtml" xlink:title="An arbitrary predicate on packages."><polygon fill="#fff" stroke="#000" points="0 -123.5 0 -142.5 86 -142.5 86 -123.5 0 -123.5"/><text x="43" y="-130.5" font-family="Helvetica,sans-Serif" font-size="10" text-anchor="middle">InRootSetFunc</text></a></g></g><g id="edge1" class="edge"><title>Node2-&gt;Node1</title><path fill="none" stroke="#191970" d="M58.5,-116.37C67.68,-107.11 79.21,-95.48 88.09,-86.52"/><polygon fill="#191970" stroke="#191970" points="56.01 -113.91 51.45 -123.48 60.98 -118.84 56.01 -113.91"/></g><g id="node3" class="node"><title>Node3</title><g id="a_node3"><a target="_top" xlink:href="classConfiguration_1_1MatchAgainstConfig.xhtml" xlink:title="match a string against a configurable list of patterns"><polygon fill="#fff" stroke="#000" points="104 -123.5 104 -142.5 218 -142.5 218 -123.5 104 -123.5"/><text x="161" y="-130.5" font-family="Helvetica,sans-Serif" font-size="10" text-anchor="middle">MatchAgainstConfig</text></a></g></g><g id="edge2" class="edge"><title>Node3-&gt;Node1</title><path fill="none" stroke="#191970" d="M145.5,-116.37C136.32,-107.11 124.79,-95.48 115.91,-86.52"/><polygon fill="#191970" stroke="#191970" points="143.02 -118.84 152.55 -123.48 147.99 -113.91 143.02 -118.84"/></g></g></svg>