<svg xmlns="http://www.w3.org/2000/svg" xmlns:xlink="http://www.w3.org/1999/xlink" width="143pt" height="140pt" viewBox="0 0 143 140"><g id="graph0" class="graph" transform="scale(1 1) rotate(0) translate(4 136)"><title>debDebFileRecordParser</title><polygon fill="#fff" stroke="transparent" points="-4 4 -4 -136 139 -136 139 4 -4 4"/><g id="node1" class="node"><title>Node1</title><g id="a_node1"><a><polygon fill="#bfbfbf" stroke="#000" points="0 -.5 0 -19.5 135 -19.5 135 -.5 0 -.5"/><text x="67.5" y="-7.5" font-family="Helvetica,sans-Serif" font-size="10" text-anchor="middle">debDebFileRecordParser</text></a></g></g><g id="node2" class="node"><title>Node2</title><g id="a_node2"><a target="_top" xlink:href="classdebRecordParserBase.xhtml"><polygon fill="#fff" stroke="#000" points="6.5 -56.5 6.5 -75.5 128.5 -75.5 128.5 -56.5 6.5 -56.5"/><text x="67.5" y="-63.5" font-family="Helvetica,sans-Serif" font-size="10" text-anchor="middle">debRecordParserBase</text></a></g></g><g id="edge1" class="edge"><title>Node2-&gt;Node1</title><path fill="none" stroke="#191970" d="M67.5,-45.8C67.5,-36.91 67.5,-26.78 67.5,-19.75"/><polygon fill="#191970" stroke="#191970" points="64 -46.08 67.5 -56.08 71 -46.08 64 -46.08"/></g><g id="node3" class="node"><title>Node3</title><g id="a_node3"><a><polygon fill="#fff" stroke="#bfbfbf" points="44 -112.5 44 -131.5 91 -131.5 91 -112.5 44 -112.5"/><text x="67.5" y="-119.5" font-family="Helvetica,sans-Serif" font-size="10" text-anchor="middle">Parser</text></a></g></g><g id="edge2" class="edge"><title>Node3-&gt;Node2</title><path fill="none" stroke="#191970" d="M67.5,-101.8C67.5,-92.91 67.5,-82.78 67.5,-75.75"/><polygon fill="#191970" stroke="#191970" points="64 -102.08 67.5 -112.08 71 -102.08 64 -102.08"/></g></g></svg>