<svg xmlns="http://www.w3.org/2000/svg" xmlns:xlink="http://www.w3.org/1999/xlink" id="main" onload="init(evt)" version="1.1" xml:space="preserve"><style type="text/css">.edge:hover path{stroke:red}.edge:hover polygon{stroke:red;fill:red}</style><script type="text/javascript"><![CDATA[
var edges = document.getElementsByTagName('g');
if (edges && edges.length) {
  for (var i=0;i<edges.length;i++) {
    if (edges[i].id.substr(0,4)=='edge') {
      edges[i].setAttribute('class','edge');
    }
  }
}
]]></script><defs><circle id="rim" cx="0" cy="0" r="7"/><circle id="rim2" cx="0" cy="0" r="3.5"/><g id="zoomPlus"><use fill="#404040" xlink:href="#rim"><set attributeName="fill" begin="zoomplus.mouseover" end="zoomplus.mouseout" to="#808080"/></use><path fill="none" stroke="#fff" stroke-width="1.5" d="M-4,0h8M0,-4v8" pointer-events="none"/></g><g id="zoomMin"><use fill="#404040" xlink:href="#rim"><set attributeName="fill" begin="zoomminus.mouseover" end="zoomminus.mouseout" to="#808080"/></use><path fill="none" stroke="#fff" stroke-width="1.5" d="M-4,0h8" pointer-events="none"/></g><g id="dirArrow"><path fill="none" stroke="#fff" stroke-width="1.5" d="M0,-3.0v7 M-2.5,-0.5L0,-3.0L2.5,-0.5"/></g><g id="resetDef"><use fill="#404040" xlink:href="#rim2"><set attributeName="fill" begin="reset.mouseover" end="reset.mouseout" to="#808080"/></use></g></defs><script type="text/javascript">var viewWidth = 1168; var viewHeight = 252; var sectionId = &apos;dynsection-0&apos;;</script><script xlink:href="svgpan.js"/><svg id="graph" class="graph"><g id="viewport"><title>apt-pkg/edsp.h</title><polygon fill="#fff" stroke="transparent" points="-4 4 -4 -248 1164 -248 1164 4 -4 4"/><g id="node1" class="node"><title>Node1</title><g id="a_node1"><a><polygon fill="#bfbfbf" stroke="#000" points="927.5 -224.5 927.5 -243.5 1016.5 -243.5 1016.5 -224.5 927.5 -224.5"/><text x="972" y="-231.5" font-family="Helvetica,sans-Serif" font-size="10" text-anchor="middle">apt-pkg/edsp.h</text></a></g></g><g id="node2" class="node"><title>Node2</title><g id="a_node2"><a target="_top" xlink:href="cacheset_8h.xhtml"><polygon fill="#fff" stroke="#000" points="598 -168.5 598 -187.5 708 -187.5 708 -168.5 598 -168.5"/><text x="653" y="-175.5" font-family="Helvetica,sans-Serif" font-size="10" text-anchor="middle">apt-pkg/cacheset.h</text></a></g></g><g id="edge1" class="edge"><title>Node1-&gt;Node2</title><path fill="none" stroke="#191970" d="M927.31,-225.43C871.51,-215.99 775.85,-199.8 713.52,-189.25"/><polygon fill="#191970" stroke="#191970" points="713.88 -185.76 703.44 -187.54 712.71 -192.66 713.88 -185.76"/></g><g id="node9" class="node"><title>Node9</title><g id="a_node9"><a><polygon fill="#fff" stroke="#bfbfbf" points="956 -112.5 956 -131.5 988 -131.5 988 -112.5 956 -112.5"/><text x="972" y="-119.5" font-family="Helvetica,sans-Serif" font-size="10" text-anchor="middle">list</text></a></g></g><g id="edge32" class="edge"><title>Node1-&gt;Node9</title><path fill="none" stroke="#191970" d="M972,-224.37C972,-206.62 972,-165.67 972,-141.6"/><polygon fill="#191970" stroke="#191970" points="975.5 -141.59 972 -131.59 968.5 -141.59 975.5 -141.59"/></g><g id="node10" class="node"><title>Node10</title><g id="a_node10"><a><polygon fill="#fff" stroke="#bfbfbf" points="0 -.5 0 -19.5 44 -19.5 44 -.5 0 -.5"/><text x="22" y="-7.5" font-family="Helvetica,sans-Serif" font-size="10" text-anchor="middle">string</text></a></g></g><g id="edge33" class="edge"><title>Node1-&gt;Node10</title><path fill="none" stroke="#191970" d="M927.33,-231.69C769.06,-226.45 236.39,-203.78 84,-132 50.71,-116.32 38.07,-109.58 23,-76 16.5,-61.52 16.84,-43.33 18.47,-29.88"/><polygon fill="#191970" stroke="#191970" points="21.94 -30.3 20.01 -19.88 15.03 -29.23 21.94 -30.3"/></g><g id="node11" class="node"><title>Node11</title><g id="a_node11"><a><polygon fill="#fff" stroke="#bfbfbf" points="1006.5 -112.5 1006.5 -131.5 1053.5 -131.5 1053.5 -112.5 1006.5 -112.5"/><text x="1030" y="-119.5" font-family="Helvetica,sans-Serif" font-size="10" text-anchor="middle">vector</text></a></g></g><g id="edge34" class="edge"><title>Node1-&gt;Node11</title><path fill="none" stroke="#191970" d="M976.55,-224.37C986.04,-206.38 1008.09,-164.55 1020.71,-140.63"/><polygon fill="#191970" stroke="#191970" points="1023.9 -142.07 1025.47 -131.59 1017.71 -138.8 1023.9 -142.07"/></g><g id="node14" class="node"><title>Node14</title><g id="a_node14"><a><polygon fill="#fff" stroke="#bfbfbf" points="650 -.5 650 -19.5 752 -19.5 752 -.5 650 -.5"/><text x="701" y="-7.5" font-family="Helvetica,sans-Serif" font-size="10" text-anchor="middle">apt-pkg/macros.h</text></a></g></g><g id="edge29" class="edge"><title>Node1-&gt;Node14</title><path fill="none" stroke="#191970" d="M987.22,-224.47C1020.63,-204.67 1094.95,-154.08 1063,-112 1026.73,-64.23 855.84,-32.98 762.4,-19.16"/><polygon fill="#191970" stroke="#191970" points="762.63 -15.66 752.23 -17.68 761.62 -22.58 762.63 -15.66"/></g><g id="node15" class="node"><title>Node15</title><g id="a_node15"><a target="_top" xlink:href="pkgcache_8h.xhtml" xlink:title="pkgCache - Structure definitions for the cache file"><polygon fill="#fff" stroke="#000" points="238.5 -112.5 238.5 -131.5 351.5 -131.5 351.5 -112.5 238.5 -112.5"/><text x="295" y="-119.5" font-family="Helvetica,sans-Serif" font-size="10" text-anchor="middle">apt-pkg/pkgcache.h</text></a></g></g><g id="edge30" class="edge"><title>Node1-&gt;Node15</title><path fill="none" stroke="#191970" d="M927.27,-229.22C855.58,-222.82 710.63,-208.54 589,-188 499.04,-172.81 395.1,-148.12 338.05,-133.95"/><polygon fill="#191970" stroke="#191970" points="338.84 -130.54 328.29 -131.51 337.15 -137.33 338.84 -130.54"/></g><g id="node24" class="node"><title>Node24</title><g id="a_node24"><a><polygon fill="#fff" stroke="#bfbfbf" points="1110 -168.5 1110 -187.5 1160 -187.5 1160 -168.5 1110 -168.5"/><text x="1135" y="-175.5" font-family="Helvetica,sans-Serif" font-size="10" text-anchor="middle">stdio.h</text></a></g></g><g id="edge31" class="edge"><title>Node1-&gt;Node24</title><path fill="none" stroke="#191970" d="M997.83,-224.44C1025.41,-215.31 1069.29,-200.77 1099.97,-190.6"/><polygon fill="#191970" stroke="#191970" points="1101.44 -193.81 1109.83 -187.34 1099.24 -187.16 1101.44 -193.81"/></g><g id="node3" class="node"><title>Node3</title><g id="a_node3"><a><polygon fill="#fff" stroke="#bfbfbf" points="700.5 -112.5 700.5 -131.5 755.5 -131.5 755.5 -112.5 700.5 -112.5"/><text x="728" y="-119.5" font-family="Helvetica,sans-Serif" font-size="10" text-anchor="middle">fstream</text></a></g></g><g id="edge2" class="edge"><title>Node2-&gt;Node3</title><path fill="none" stroke="#191970" d="M665.05,-168.32C676.46,-160.11 693.83,-147.6 707.43,-137.81"/><polygon fill="#191970" stroke="#191970" points="709.66 -140.52 715.73 -131.83 705.57 -134.84 709.66 -140.52"/></g><g id="node4" class="node"><title>Node4</title><g id="a_node4"><a><polygon fill="#fff" stroke="#bfbfbf" points="370 -112.5 370 -131.5 408 -131.5 408 -112.5 370 -112.5"/><text x="389" y="-119.5" font-family="Helvetica,sans-Serif" font-size="10" text-anchor="middle">map</text></a></g></g><g id="edge3" class="edge"><title>Node2-&gt;Node4</title><path fill="none" stroke="#191970" d="M597.74,-168.43C551.9,-160.88 484.87,-148.81 418.05,-132.02"/><polygon fill="#191970" stroke="#191970" points="418.74 -128.59 408.19 -129.51 417.02 -135.37 418.74 -128.59"/></g><g id="node5" class="node"><title>Node5</title><g id="a_node5"><a><polygon fill="#fff" stroke="#bfbfbf" points="426 -112.5 426 -131.5 458 -131.5 458 -112.5 426 -112.5"/><text x="442" y="-119.5" font-family="Helvetica,sans-Serif" font-size="10" text-anchor="middle">set</text></a></g></g><g id="edge4" class="edge"><title>Node2-&gt;Node5</title><path fill="none" stroke="#191970" d="M612.02,-168.42C576.25,-160.64 522.81,-148.3 467.95,-132.04"/><polygon fill="#191970" stroke="#191970" points="468.64 -128.59 458.05 -129.07 466.62 -135.3 468.64 -128.59"/></g><g id="node6" class="node"><title>Node6</title><g id="a_node6"><a><polygon fill="#fff" stroke="#bfbfbf" points="476 -112.5 476 -131.5 540 -131.5 540 -112.5 476 -112.5"/><text x="508" y="-119.5" font-family="Helvetica,sans-Serif" font-size="10" text-anchor="middle">algorithm</text></a></g></g><g id="edge5" class="edge"><title>Node2-&gt;Node6</title><path fill="none" stroke="#191970" d="M630.02,-168.44C605.84,-159.44 567.58,-145.19 540.35,-135.05"/><polygon fill="#191970" stroke="#191970" points="541.46 -131.73 530.87 -131.52 539.02 -138.29 541.46 -131.73"/></g><g id="node7" class="node"><title>Node7</title><g id="a_node7"><a><polygon fill="#fff" stroke="#bfbfbf" points="558.5 -112.5 558.5 -131.5 605.5 -131.5 605.5 -112.5 558.5 -112.5"/><text x="582" y="-119.5" font-family="Helvetica,sans-Serif" font-size="10" text-anchor="middle">deque</text></a></g></g><g id="edge6" class="edge"><title>Node2-&gt;Node7</title><path fill="none" stroke="#191970" d="M641.59,-168.32C630.89,-160.18 614.66,-147.84 601.84,-138.09"/><polygon fill="#191970" stroke="#191970" points="603.69 -135.1 593.61 -131.83 599.46 -140.67 603.69 -135.1"/></g><g id="node8" class="node"><title>Node8</title><g id="a_node8"><a><polygon fill="#fff" stroke="#bfbfbf" points="578.5 -.5 578.5 -19.5 631.5 -19.5 631.5 -.5 578.5 -.5"/><text x="605" y="-7.5" font-family="Helvetica,sans-Serif" font-size="10" text-anchor="middle">iterator</text></a></g></g><g id="edge7" class="edge"><title>Node2-&gt;Node8</title><path fill="none" stroke="#191970" d="M650.42,-168.08C642.86,-141.95 620.68,-65.21 610.37,-29.58"/><polygon fill="#191970" stroke="#191970" points="613.62 -28.2 607.48 -19.57 606.89 -30.15 613.62 -28.2"/></g><g id="edge8" class="edge"><title>Node2-&gt;Node9</title><path fill="none" stroke="#191970" d="M708.13,-171.54C767.46,-164.98 864.32,-152.23 946,-132 946.1,-131.97 946.2,-131.95 946.3,-131.92"/><polygon fill="#191970" stroke="#191970" points="947.32 -135.27 955.91 -129.08 945.33 -128.56 947.32 -135.27"/></g><g id="edge9" class="edge"><title>Node2-&gt;Node10</title><path fill="none" stroke="#191970" d="M597.98,-174.32C516.66,-169.65 359.89,-157.92 229,-132 142.22,-114.82 99.17,-139.91 38,-76 26.33,-63.81 22.75,-44.54 21.84,-30.14"/><polygon fill="#191970" stroke="#191970" points="25.33 -29.77 21.58 -19.87 18.33 -29.95 25.33 -29.77"/></g><g id="edge10" class="edge"><title>Node2-&gt;Node11</title><path fill="none" stroke="#191970" d="M708.19,-172.12C774.39,-165.74 888.83,-153.07 996.26,-131.89"/><polygon fill="#191970" stroke="#191970" points="997.18 -135.27 1006.3 -129.88 995.81 -128.41 997.18 -135.27"/></g><g id="node12" class="node"><title>Node12</title><g id="a_node12"><a><polygon fill="#fff" stroke="#bfbfbf" points="774 -112.5 774 -131.5 830 -131.5 830 -112.5 774 -112.5"/><text x="802" y="-119.5" font-family="Helvetica,sans-Serif" font-size="10" text-anchor="middle">stddef.h</text></a></g></g><g id="edge11" class="edge"><title>Node2-&gt;Node12</title><path fill="none" stroke="#191970" d="M676.61,-168.44C701.46,-159.44 740.77,-145.19 768.75,-135.05"/><polygon fill="#191970" stroke="#191970" points="770.29 -138.21 778.5 -131.52 767.91 -131.63 770.29 -138.21"/></g><g id="node13" class="node"><title>Node13</title><g id="a_node13"><a><polygon fill="#fff" stroke="#bfbfbf" points="848.5 -112.5 848.5 -131.5 937.5 -131.5 937.5 -112.5 848.5 -112.5"/><text x="893" y="-119.5" font-family="Helvetica,sans-Serif" font-size="10" text-anchor="middle">apt-pkg/error.h</text></a></g></g><g id="edge12" class="edge"><title>Node2-&gt;Node13</title><path fill="none" stroke="#191970" d="M691.03,-168.44C732.81,-159.04 799.98,-143.93 845.27,-133.74"/><polygon fill="#191970" stroke="#191970" points="846.16 -137.13 855.15 -131.52 844.62 -130.3 846.16 -137.13"/></g><g id="edge13" class="edge"><title>Node2-&gt;Node14</title><path fill="none" stroke="#191970" d="M655.58,-168.08C663.14,-141.95 685.32,-65.21 695.63,-29.58"/><polygon fill="#191970" stroke="#191970" points="699.11 -30.15 698.52 -19.57 692.38 -28.2 699.11 -30.15"/></g><g id="edge14" class="edge"><title>Node2-&gt;Node15</title><path fill="none" stroke="#191970" d="M597.85,-168.68C534.23,-159.09 429.68,-143.31 361.59,-133.04"/><polygon fill="#191970" stroke="#191970" points="361.81 -129.54 351.4 -131.51 360.76 -136.46 361.81 -129.54"/></g><g id="edge18" class="edge"><title>Node15-&gt;Node10</title><path fill="none" stroke="#191970" d="M238.45,-115.58C178.33,-108.88 88.11,-95.88 60,-76 44.03,-64.7 33.74,-44.4 27.95,-29.48"/><polygon fill="#191970" stroke="#191970" points="31.15 -28.03 24.52 -19.77 24.56 -30.37 31.15 -28.03"/></g><g id="edge15" class="edge"><title>Node15-&gt;Node14</title><path fill="none" stroke="#191970" d="M351.78,-112.91C416.69,-103.36 518.78,-87.35 556,-76 599.9,-62.61 647.99,-39.17 676.27,-24.4"/><polygon fill="#191970" stroke="#191970" points="678.21 -27.33 685.41 -19.56 674.94 -21.14 678.21 -27.33"/></g><g id="node16" class="node"><title>Node16</title><g id="a_node16"><a><polygon fill="#fff" stroke="#bfbfbf" points="69 -56.5 69 -75.5 167 -75.5 167 -56.5 69 -56.5"/><text x="118" y="-63.5" font-family="Helvetica,sans-Serif" font-size="10" text-anchor="middle">apt-pkg/mmap.h</text></a></g></g><g id="edge16" class="edge"><title>Node15-&gt;Node16</title><path fill="none" stroke="#191970" d="M266.95,-112.44C236.92,-103.28 189.09,-88.69 155.76,-78.52"/><polygon fill="#191970" stroke="#191970" points="156.5 -75.09 145.91 -75.52 154.46 -81.78 156.5 -75.09"/></g><g id="node17" class="node"><title>Node17</title><g id="a_node17"><a><polygon fill="#fff" stroke="#bfbfbf" points="185.5 -56.5 185.5 -75.5 238.5 -75.5 238.5 -56.5 185.5 -56.5"/><text x="212" y="-63.5" font-family="Helvetica,sans-Serif" font-size="10" text-anchor="middle">cstddef</text></a></g></g><g id="edge17" class="edge"><title>Node15-&gt;Node17</title><path fill="none" stroke="#191970" d="M281.66,-112.32C268.84,-103.98 249.22,-91.21 234.06,-81.35"/><polygon fill="#191970" stroke="#191970" points="235.59 -78.17 225.3 -75.65 231.78 -84.04 235.59 -78.17"/></g><g id="node18" class="node"><title>Node18</title><g id="a_node18"><a><polygon fill="#fff" stroke="#bfbfbf" points="256.5 -56.5 256.5 -75.5 309.5 -75.5 309.5 -56.5 256.5 -56.5"/><text x="283" y="-63.5" font-family="Helvetica,sans-Serif" font-size="10" text-anchor="middle">stdint.h</text></a></g></g><g id="edge19" class="edge"><title>Node15-&gt;Node18</title><path fill="none" stroke="#191970" d="M293.02,-112.08C291.43,-104.93 289.14,-94.64 287.15,-85.69"/><polygon fill="#191970" stroke="#191970" points="290.53 -84.75 284.94 -75.75 283.7 -86.27 290.53 -84.75"/></g><g id="node19" class="node"><title>Node19</title><g id="a_node19"><a><polygon fill="#fff" stroke="#bfbfbf" points="328 -56.5 328 -75.5 376 -75.5 376 -56.5 328 -56.5"/><text x="352" y="-63.5" font-family="Helvetica,sans-Serif" font-size="10" text-anchor="middle">time.h</text></a></g></g><g id="edge20" class="edge"><title>Node15-&gt;Node19</title><path fill="none" stroke="#191970" d="M304.16,-112.32C312.5,-104.42 325.03,-92.55 335.18,-82.94"/><polygon fill="#191970" stroke="#191970" points="337.82 -85.25 342.68 -75.83 333.01 -80.17 337.82 -85.25"/></g><g id="node20" class="node"><title>Node20</title><g id="a_node20"><a><polygon fill="#fff" stroke="#bfbfbf" points="438 -.5 438 -19.5 560 -19.5 560 -.5 438 -.5"/><text x="499" y="-7.5" font-family="Helvetica,sans-Serif" font-size="10" text-anchor="middle">apt-pkg/string_view.h</text></a></g></g><g id="edge21" class="edge"><title>Node15-&gt;Node20</title><path fill="none" stroke="#191970" d="M351.31,-112.46C421.48,-101.56 532.98,-83.23 539,-76 552.14,-60.22 534.71,-39.72 518.91,-26"/><polygon fill="#191970" stroke="#191970" points="520.92 -23.13 510.96 -19.51 516.49 -28.55 520.92 -23.13"/></g><g id="node21" class="node"><title>Node21</title><g id="a_node21"><a target="_top" xlink:href="cacheiterators_8h_source.xhtml"><polygon fill="#fff" stroke="#000" points="394 -56.5 394 -75.5 530 -75.5 530 -56.5 394 -56.5"/><text x="462" y="-63.5" font-family="Helvetica,sans-Serif" font-size="10" text-anchor="middle">apt-pkg/cacheiterators.h</text></a></g></g><g id="edge22" class="edge"><title>Node15-&gt;Node21</title><path fill="none" stroke="#191970" d="M321.46,-112.44C349.68,-103.32 394.54,-88.81 425.97,-78.65"/><polygon fill="#191970" stroke="#191970" points="427.22 -81.92 435.66 -75.52 425.07 -75.26 427.22 -81.92"/></g><g id="edge25" class="edge"><title>Node21-&gt;Node8</title><path fill="none" stroke="#191970" d="M484.66,-56.44C508.4,-47.48 545.91,-33.31 572.74,-23.18"/><polygon fill="#191970" stroke="#191970" points="574.33 -26.32 582.45 -19.52 571.86 -19.77 574.33 -26.32"/></g><g id="edge26" class="edge"><title>Node21-&gt;Node10</title><path fill="none" stroke="#191970" d="M393.73,-56.62C297.53,-44.82 125.86,-23.75 54.5,-14.99"/><polygon fill="#191970" stroke="#191970" points="54.68 -11.48 44.33 -13.74 53.83 -18.43 54.68 -11.48"/></g><g id="edge23" class="edge"><title>Node21-&gt;Node14</title><path fill="none" stroke="#191970" d="M499.87,-56.44C541.48,-47.04 608.37,-31.93 653.47,-21.74"/><polygon fill="#191970" stroke="#191970" points="654.32 -25.13 663.31 -19.52 652.78 -18.31 654.32 -25.13"/></g><g id="edge27" class="edge"><title>Node21-&gt;Node20</title><path fill="none" stroke="#191970" d="M468.11,-56.08C473.28,-48.53 480.85,-37.49 487.19,-28.23"/><polygon fill="#191970" stroke="#191970" points="490.24 -29.98 493 -19.75 484.46 -26.02 490.24 -29.98"/></g><g id="node22" class="node"><title>Node22</title><g id="a_node22"><a><polygon fill="#fff" stroke="#bfbfbf" points="372 -.5 372 -19.5 420 -19.5 420 -.5 372 -.5"/><text x="396" y="-7.5" font-family="Helvetica,sans-Serif" font-size="10" text-anchor="middle">iosfwd</text></a></g></g><g id="edge24" class="edge"><title>Node21-&gt;Node22</title><path fill="none" stroke="#191970" d="M451.4,-56.32C441.54,-48.26 426.65,-36.08 414.78,-26.37"/><polygon fill="#191970" stroke="#191970" points="416.75 -23.46 406.8 -19.83 412.32 -28.88 416.75 -23.46"/></g><g id="node23" class="node"><title>Node23</title><g id="a_node23"><a><polygon fill="#fff" stroke="#bfbfbf" points="300.5 -.5 300.5 -19.5 353.5 -19.5 353.5 -.5 300.5 -.5"/><text x="327" y="-7.5" font-family="Helvetica,sans-Serif" font-size="10" text-anchor="middle">string.h</text></a></g></g><g id="edge28" class="edge"><title>Node21-&gt;Node23</title><path fill="none" stroke="#191970" d="M440.61,-56.44C418.29,-47.52 383.1,-33.44 357.79,-23.32"/><polygon fill="#191970" stroke="#191970" points="358.88 -19.98 348.29 -19.52 356.28 -26.48 358.88 -19.98"/></g></g></svg><g id="navigator" fill="#404254" transform="translate(0 0)"><rect width="60" height="60" x="0" y="0" fill="#f2f5e9" fill-opacity=".5" stroke="#606060" stroke-width=".5"/><use id="zoomplus" x="17" y="9" onmousedown="handleZoom(evt,'in')" xlink:href="#zoomPlus"/><use id="zoomminus" x="42" y="9" onmousedown="handleZoom(evt,'out')" xlink:href="#zoomMin"/><use id="reset" x="30" y="36" onmousedown="handleReset()" xlink:href="#resetDef"/><g id="arrowUp" onmousedown="handlePan(0,-1)" transform="translate(30 24)" xlink:href="#dirArrow"><use fill="#404040" xlink:href="#rim"><set attributeName="fill" begin="arrowUp.mouseover" end="arrowUp.mouseout" to="#808080"/></use><path fill="none" stroke="#fff" stroke-width="1.5" d="M0,-3.0v7 M-2.5,-0.5L0,-3.0L2.5,-0.5"/></g><g id="arrowRight" onmousedown="handlePan(1,0)" transform="rotate(90) translate(36 -43)" xlink:href="#dirArrow"><use fill="#404040" xlink:href="#rim"><set attributeName="fill" begin="arrowRight.mouseover" end="arrowRight.mouseout" to="#808080"/></use><path fill="none" stroke="#fff" stroke-width="1.5" d="M0,-3.0v7 M-2.5,-0.5L0,-3.0L2.5,-0.5"/></g><g id="arrowDown" onmousedown="handlePan(0,1)" transform="rotate(180) translate(-30 -48)" xlink:href="#dirArrow"><use fill="#404040" xlink:href="#rim"><set attributeName="fill" begin="arrowDown.mouseover" end="arrowDown.mouseout" to="#808080"/></use><path fill="none" stroke="#fff" stroke-width="1.5" d="M0,-3.0v7 M-2.5,-0.5L0,-3.0L2.5,-0.5"/></g><g id="arrowLeft" onmousedown="handlePan(-1,0)" transform="rotate(270) translate(-36 17)" xlink:href="#dirArrow"><use fill="#404040" xlink:href="#rim"><set attributeName="fill" begin="arrowLeft.mouseover" end="arrowLeft.mouseout" to="#808080"/></use><path fill="none" stroke="#fff" stroke-width="1.5" d="M0,-3.0v7 M-2.5,-0.5L0,-3.0L2.5,-0.5"/></g></g><svg width="100%" height="30" preserveAspectRatio="xMaxYMin meet" viewBox="0 0 15 15"><g id="arrow_out" transform="scale(0.3 0.3)"><a target="_base" xlink:href="edsp_8h__incl_org.svg"><rect id="button" width="38" height="38" x="6" y="6" fill="#f2f5e9" fill-opacity=".5" stroke="#606060" stroke-width="1" rx="5" ry="5"/><path id="arrow" d="M 11.500037,31.436501 C 11.940474,20.09759 22.043105,11.32322 32.158766,21.979434 L 37.068811,17.246167 C 37.068811,17.246167 37.088388,32 37.088388,32 L 22.160133,31.978069 C 22.160133,31.978069 26.997745,27.140456 26.997745,27.140456 C 18.528582,18.264221 13.291696,25.230495 11.500037,31.436501 z" style="fill:#404040"/></a></g></svg></svg>