<svg xmlns="http://www.w3.org/2000/svg" xmlns:xlink="http://www.w3.org/1999/xlink" width="397pt" height="88" viewBox="0 0 397 66"><g id="graph0" class="graph" transform="scale(1 1) rotate(0) translate(4 62)"><title>Graphical Class Hierarchy</title><polygon fill="#fff" stroke="transparent" points="-4 4 -4 -62 393 -62 393 4 -4 4"/><g id="node1" class="node"><title>Node0</title><g id="a_node1"><a target="_top" xlink:href="classpkgSourceList_1_1Type.xhtml"><polygon fill="#fff" stroke="#000" points="0 -19.5 0 -38.5 113 -38.5 113 -19.5 0 -19.5"/><text x="56.5" y="-26.5" font-family="Helvetica,sans-Serif" font-size="10" text-anchor="middle">pkgSourceList::Type</text></a></g></g><g id="node2" class="node"><title>Node1</title><g id="a_node2"><a target="_top" xlink:href="classdebSLTypeDebian.xhtml"><polygon fill="#fff" stroke="#000" points="149 -19.5 149 -38.5 251 -38.5 251 -19.5 149 -19.5"/><text x="200" y="-26.5" font-family="Helvetica,sans-Serif" font-size="10" text-anchor="middle">debSLTypeDebian</text></a></g></g><g id="edge1" class="edge"><title>Node0-&gt;Node1</title><path fill="none" stroke="#191970" d="M123.06,-29C131.68,-29 140.4,-29 148.71,-29"/><polygon fill="#191970" stroke="#191970" points="123.02 -25.5 113.02 -29 123.02 -32.5 123.02 -25.5"/></g><g id="node3" class="node"><title>Node2</title><g id="a_node3"><a target="_top" xlink:href="classdebSLTypeDeb.xhtml"><polygon fill="#fff" stroke="#000" points="294.5 -38.5 294.5 -57.5 381.5 -57.5 381.5 -38.5 294.5 -38.5"/><text x="338" y="-45.5" font-family="Helvetica,sans-Serif" font-size="10" text-anchor="middle">debSLTypeDeb</text></a></g></g><g id="edge2" class="edge"><title>Node1-&gt;Node2</title><path fill="none" stroke="#191970" d="M261.3,-37.42C272.35,-38.97 283.68,-40.55 294.1,-42.01"/><polygon fill="#191970" stroke="#191970" points="261.64 -33.94 251.25 -36.02 260.67 -40.87 261.64 -33.94"/></g><g id="node4" class="node"><title>Node3</title><g id="a_node4"><a target="_top" xlink:href="classdebSLTypeDebSrc.xhtml"><polygon fill="#fff" stroke="#000" points="287 -.5 287 -19.5 389 -19.5 389 -.5 287 -.5"/><text x="338" y="-7.5" font-family="Helvetica,sans-Serif" font-size="10" text-anchor="middle">debSLTypeDebSrc</text></a></g></g><g id="edge3" class="edge"><title>Node1-&gt;Node3</title><path fill="none" stroke="#191970" d="M261.23,-20.59C269.82,-19.39 278.58,-18.16 286.95,-16.99"/><polygon fill="#191970" stroke="#191970" points="260.67 -17.13 251.25 -21.98 261.64 -24.06 260.67 -17.13"/></g></g></svg>