<?xml version="1.0" encoding="UTF-8" standalone="no"?>
<!DOCTYPE svg PUBLIC "-//W3C//DTD SVG 1.1//EN"
 "http://www.w3.org/Graphics/SVG/1.1/DTD/svg11.dtd">
<!-- Generated by graphviz version 2.43.0 (0)
 -->
<!-- Title: Graphical Class Hierarchy Pages: 1 -->
<svg width="284pt" height="88pt"
 viewBox="0.00 0.00 284.00 88.00" xmlns="http://www.w3.org/2000/svg" xmlns:xlink="http://www.w3.org/1999/xlink">
<g id="graph0" class="graph" transform="scale(1 1) rotate(0) translate(4 84)">
<title>Graphical Class Hierarchy</title>
<polygon fill="white" stroke="transparent" points="-4,4 -4,-84 280,-84 280,4 -4,4"/>
<!-- Node0 -->
<g id="node1" class="node">
<title>Node0</title>
<g id="a_node1"><a xlink:href="structAPT_1_1Internal_1_1PatternTreeParser_1_1Node.xhtml" target="_top" xlink:title=" ">
<polygon fill="white" stroke="black" points="0,-30 0,-49 133,-49 133,-30 0,-30"/>
<text text-anchor="middle" x="66.5" y="-37" font-family="Helvetica,sans-Serif" font-size="10.00">PatternTreeParser::Node</text>
</a>
</g>
</g>
<!-- Node1 -->
<g id="node2" class="node">
<title>Node1</title>
<g id="a_node2"><a xlink:href="structAPT_1_1Internal_1_1PatternTreeParser_1_1PatternNode.xhtml" target="_top" xlink:title=" ">
<polygon fill="white" stroke="black" points="169,-49.5 169,-79.5 276,-79.5 276,-49.5 169,-49.5"/>
<text text-anchor="start" x="177" y="-67.5" font-family="Helvetica,sans-Serif" font-size="10.00">PatternTreeParser::</text>
<text text-anchor="middle" x="222.5" y="-56.5" font-family="Helvetica,sans-Serif" font-size="10.00">PatternNode</text>
</a>
</g>
</g>
<!-- Node0&#45;&gt;Node1 -->
<g id="edge1" class="edge">
<title>Node0&#45;&gt;Node1</title>
<path fill="none" stroke="midnightblue" d="M136.08,-50.63C146.97,-52.4 158.1,-54.21 168.56,-55.91"/>
<polygon fill="midnightblue" stroke="midnightblue" points="136.59,-47.17 126.16,-49.02 135.47,-54.08 136.59,-47.17"/>
</g>
<!-- Node2 -->
<g id="node3" class="node">
<title>Node2</title>
<g id="a_node3"><a xlink:href="structAPT_1_1Internal_1_1PatternTreeParser_1_1WordNode.xhtml" target="_top" xlink:title=" ">
<polygon fill="white" stroke="black" points="169,-0.5 169,-30.5 276,-30.5 276,-0.5 169,-0.5"/>
<text text-anchor="start" x="177" y="-18.5" font-family="Helvetica,sans-Serif" font-size="10.00">PatternTreeParser::</text>
<text text-anchor="middle" x="222.5" y="-7.5" font-family="Helvetica,sans-Serif" font-size="10.00">WordNode</text>
</a>
</g>
</g>
<!-- Node0&#45;&gt;Node2 -->
<g id="edge2" class="edge">
<title>Node0&#45;&gt;Node2</title>
<path fill="none" stroke="midnightblue" d="M138.84,-28.38C148.95,-26.81 159.18,-25.21 168.85,-23.71"/>
<polygon fill="midnightblue" stroke="midnightblue" points="138.15,-24.95 128.81,-29.95 139.23,-31.86 138.15,-24.95"/>
</g>
</g>
</svg>
