<?xml version="1.0" encoding="UTF-8" standalone="no"?>
<!DOCTYPE svg PUBLIC "-//W3C//DTD SVG 1.1//EN"
 "http://www.w3.org/Graphics/SVG/1.1/DTD/svg11.dtd">
<!-- Generated by graphviz version 2.43.0 (0)
 -->
<!-- Title: Graphical Class Hierarchy Pages: 1 -->
<svg width="193pt" height="66pt"
 viewBox="0.00 0.00 193.00 66.00" xmlns="http://www.w3.org/2000/svg" xmlns:xlink="http://www.w3.org/1999/xlink">
<g id="graph0" class="graph" transform="scale(1 1) rotate(0) translate(4 62)">
<title>Graphical Class Hierarchy</title>
<polygon fill="white" stroke="transparent" points="-4,4 -4,-62 189,-62 189,4 -4,4"/>
<!-- Node0 -->
<g id="node1" class="node">
<title>Node0</title>
<g id="a_node1"><a xlink:href="classIndexCopy.xhtml" target="_top" xlink:title=" ">
<polygon fill="white" stroke="black" points="0,-19.5 0,-38.5 68,-38.5 68,-19.5 0,-19.5"/>
<text text-anchor="middle" x="34" y="-26.5" font-family="Helvetica,sans-Serif" font-size="10.00">IndexCopy</text>
</a>
</g>
</g>
<!-- Node1 -->
<g id="node2" class="node">
<title>Node1</title>
<g id="a_node2"><a xlink:href="classPackageCopy.xhtml" target="_top" xlink:title=" ">
<polygon fill="white" stroke="black" points="104,-38.5 104,-57.5 185,-57.5 185,-38.5 104,-38.5"/>
<text text-anchor="middle" x="144.5" y="-45.5" font-family="Helvetica,sans-Serif" font-size="10.00">PackageCopy</text>
</a>
</g>
</g>
<!-- Node0&#45;&gt;Node1 -->
<g id="edge1" class="edge">
<title>Node0&#45;&gt;Node1</title>
<path fill="none" stroke="midnightblue" d="M78.17,-36.56C86.59,-38.03 95.38,-39.57 103.69,-41.03"/>
<polygon fill="midnightblue" stroke="midnightblue" points="78.6,-33.08 68.14,-34.8 77.39,-39.98 78.6,-33.08"/>
</g>
<!-- Node2 -->
<g id="node3" class="node">
<title>Node2</title>
<g id="a_node3"><a xlink:href="classSourceCopy.xhtml" target="_top" xlink:title=" ">
<polygon fill="white" stroke="black" points="107.5,-0.5 107.5,-19.5 181.5,-19.5 181.5,-0.5 107.5,-0.5"/>
<text text-anchor="middle" x="144.5" y="-7.5" font-family="Helvetica,sans-Serif" font-size="10.00">SourceCopy</text>
</a>
</g>
</g>
<!-- Node0&#45;&gt;Node2 -->
<g id="edge2" class="edge">
<title>Node0&#45;&gt;Node2</title>
<path fill="none" stroke="midnightblue" d="M78.28,-21.42C87.85,-19.74 97.9,-17.99 107.16,-16.36"/>
<polygon fill="midnightblue" stroke="midnightblue" points="77.39,-18.02 68.14,-23.2 78.6,-24.92 77.39,-18.02"/>
</g>
</g>
</svg>
