<?xml version="1.0" encoding="UTF-8" standalone="no"?>
<!DOCTYPE svg PUBLIC "-//W3C//DTD SVG 1.1//EN"
 "http://www.w3.org/Graphics/SVG/1.1/DTD/svg11.dtd">
<!-- Generated by graphviz version 2.43.0 (0)
 -->
<!-- Title: Graphical Class Hierarchy Pages: 1 -->
<svg width="381pt" height="123pt"
 viewBox="0.00 0.00 381.00 123.00" xmlns="http://www.w3.org/2000/svg" xmlns:xlink="http://www.w3.org/1999/xlink">
<g id="graph0" class="graph" transform="scale(1 1) rotate(0) translate(4 119)">
<title>Graphical Class Hierarchy</title>
<polygon fill="white" stroke="transparent" points="-4,4 -4,-119 377,-119 377,4 -4,4"/>
<!-- Node0 -->
<g id="node1" class="node">
<title>Node0</title>
<g id="a_node1"><a xlink:href="classpkgCache_1_1Namespace.xhtml" target="_top" xlink:title=" ">
<polygon fill="white" stroke="black" points="0,-52 0,-82 106,-82 106,-52 0,-52"/>
<text text-anchor="start" x="8" y="-70" font-family="Helvetica,sans-Serif" font-size="10.00">pkgCache&lt; Str, Itr</text>
<text text-anchor="middle" x="53" y="-59" font-family="Helvetica,sans-Serif" font-size="10.00"> &gt;::Namespace</text>
</a>
</g>
</g>
<!-- Node1 -->
<g id="node2" class="node">
<title>Node1</title>
<g id="a_node2"><a xlink:href="classpkgDepCache.xhtml" target="_top" xlink:title=" ">
<polygon fill="white" stroke="black" points="158.5,-95.5 158.5,-114.5 242.5,-114.5 242.5,-95.5 158.5,-95.5"/>
<text text-anchor="middle" x="200.5" y="-102.5" font-family="Helvetica,sans-Serif" font-size="10.00">pkgDepCache</text>
</a>
</g>
</g>
<!-- Node0&#45;&gt;Node1 -->
<g id="edge1" class="edge">
<title>Node0&#45;&gt;Node1</title>
<path fill="none" stroke="darkgreen" d="M115.94,-83.18C131.9,-87.34 148.57,-91.7 162.79,-95.41"/>
<polygon fill="darkgreen" stroke="darkgreen" points="116.68,-79.75 106.12,-80.61 114.91,-86.52 116.68,-79.75"/>
</g>
<!-- Node2 -->
<g id="node3" class="node">
<title>Node2</title>
<g id="a_node3"><a xlink:href="classpkgOrderList.xhtml" target="_top" xlink:title=" ">
<polygon fill="white" stroke="black" points="161,-57.5 161,-76.5 240,-76.5 240,-57.5 161,-57.5"/>
<text text-anchor="middle" x="200.5" y="-64.5" font-family="Helvetica,sans-Serif" font-size="10.00">pkgOrderList</text>
</a>
</g>
</g>
<!-- Node0&#45;&gt;Node2 -->
<g id="edge2" class="edge">
<title>Node0&#45;&gt;Node2</title>
<path fill="none" stroke="darkgreen" d="M116.46,-67C131.59,-67 147.33,-67 160.98,-67"/>
<polygon fill="darkgreen" stroke="darkgreen" points="116.12,-63.5 106.12,-67 116.12,-70.5 116.12,-63.5"/>
</g>
<!-- Node3 -->
<g id="node4" class="node">
<title>Node3</title>
<g id="a_node4"><a xlink:href="classpkgPackageManager.xhtml" target="_top" xlink:title=" ">
<polygon fill="white" stroke="black" points="142,-19.5 142,-38.5 259,-38.5 259,-19.5 142,-19.5"/>
<text text-anchor="middle" x="200.5" y="-26.5" font-family="Helvetica,sans-Serif" font-size="10.00">pkgPackageManager</text>
</a>
</g>
</g>
<!-- Node0&#45;&gt;Node3 -->
<g id="edge3" class="edge">
<title>Node0&#45;&gt;Node3</title>
<path fill="none" stroke="darkgreen" d="M115.94,-50.82C131.9,-46.66 148.57,-42.3 162.79,-38.59"/>
<polygon fill="darkgreen" stroke="darkgreen" points="114.91,-47.48 106.12,-53.39 116.68,-54.25 114.91,-47.48"/>
</g>
<!-- Node4 -->
<g id="node5" class="node">
<title>Node4</title>
<g id="a_node5"><a xlink:href="classpkgDPkgPM.xhtml" target="_top" xlink:title=" ">
<polygon fill="white" stroke="black" points="296.5,-38.5 296.5,-57.5 371.5,-57.5 371.5,-38.5 296.5,-38.5"/>
<text text-anchor="middle" x="334" y="-45.5" font-family="Helvetica,sans-Serif" font-size="10.00">pkgDPkgPM</text>
</a>
</g>
</g>
<!-- Node3&#45;&gt;Node4 -->
<g id="edge4" class="edge">
<title>Node3&#45;&gt;Node4</title>
<path fill="none" stroke="midnightblue" d="M269.24,-38.79C278.52,-40.13 287.75,-41.46 296.18,-42.68"/>
<polygon fill="midnightblue" stroke="midnightblue" points="269.58,-35.3 259.18,-37.33 268.57,-42.23 269.58,-35.3"/>
</g>
<!-- Node5 -->
<g id="node6" class="node">
<title>Node5</title>
<g id="a_node6"><a xlink:href="classpkgSimulate.xhtml" target="_top" xlink:title=" ">
<polygon fill="white" stroke="black" points="295,-0.5 295,-19.5 373,-19.5 373,-0.5 295,-0.5"/>
<text text-anchor="middle" x="334" y="-7.5" font-family="Helvetica,sans-Serif" font-size="10.00">pkgSimulate</text>
</a>
</g>
</g>
<!-- Node3&#45;&gt;Node5 -->
<g id="edge5" class="edge">
<title>Node3&#45;&gt;Node5</title>
<path fill="none" stroke="midnightblue" d="M269.08,-19.24C277.86,-17.97 286.59,-16.71 294.66,-15.54"/>
<polygon fill="midnightblue" stroke="midnightblue" points="268.57,-15.77 259.18,-20.67 269.58,-22.7 268.57,-15.77"/>
</g>
</g>
</svg>
