<svg xmlns="http://www.w3.org/2000/svg" xmlns:xlink="http://www.w3.org/1999/xlink" width="596" height="85pt" viewBox="0 0 447 85"><g id="graph0" class="graph" transform="scale(1 1) rotate(0) translate(4 81)"><title>Graphical Class Hierarchy</title><polygon fill="#fff" stroke="transparent" points="-4 4 -4 -81 443 -81 443 4 -4 4"/><g id="node1" class="node"><title>Node188</title><g id="a_node1"><a><polygon fill="#fff" stroke="#bfbfbf" points="0 -19.5 0 -38.5 110 -38.5 110 -19.5 0 -19.5"/><text x="55" y="-26.5" font-family="Helvetica,sans-Serif" font-size="10" text-anchor="middle">pkgRecords::Parser</text></a></g></g><g id="node2" class="node"><title>Node0</title><g id="a_node2"><a target="_top" xlink:href="classdebRecordParserBase.xhtml"><polygon fill="#fff" stroke="#000" points="146 -38.5 146 -57.5 268 -57.5 268 -38.5 146 -38.5"/><text x="207" y="-45.5" font-family="Helvetica,sans-Serif" font-size="10" text-anchor="middle">debRecordParserBase</text></a></g></g><g id="edge1" class="edge"><title>Node188-&gt;Node0</title><path fill="none" stroke="#191970" d="M120.35,-37.15C128.8,-38.22 137.44,-39.32 145.83,-40.38"/><polygon fill="#191970" stroke="#191970" points="120.51 -33.64 110.15 -35.86 119.63 -40.59 120.51 -33.64"/></g><g id="node5" class="node"><title>Node192</title><g id="a_node5"><a target="_top" xlink:href="classpkgRecords.xhtml"><polygon fill="#fff" stroke="#000" points="170 -.5 170 -19.5 244 -19.5 244 -.5 170 -.5"/><text x="207" y="-7.5" font-family="Helvetica,sans-Serif" font-size="10" text-anchor="middle">pkgRecords</text></a></g></g><g id="edge4" class="edge"><title>Node188-&gt;Node192</title><path fill="none" stroke="#8b1a1a" d="M120.52,-20.83C137.37,-18.69 154.94,-16.47 169.74,-14.59"/><polygon fill="#8b1a1a" stroke="#8b1a1a" points="119.63 -17.41 110.15 -22.14 120.51 -24.36 119.63 -17.41"/></g><g id="node3" class="node"><title>Node1</title><g id="a_node3"><a target="_top" xlink:href="classdebDebFileRecordParser.xhtml"><polygon fill="#fff" stroke="#000" points="304 -57.5 304 -76.5 439 -76.5 439 -57.5 304 -57.5"/><text x="371.5" y="-64.5" font-family="Helvetica,sans-Serif" font-size="10" text-anchor="middle">debDebFileRecordParser</text></a></g></g><g id="edge2" class="edge"><title>Node0-&gt;Node1</title><path fill="none" stroke="#191970" d="M278.01,-56.19C286.59,-57.19 295.34,-58.21 303.86,-59.21"/><polygon fill="#191970" stroke="#191970" points="278.39 -52.71 268.05 -55.02 277.57 -59.66 278.39 -52.71"/></g><g id="node4" class="node"><title>Node2</title><g id="a_node4"><a target="_top" xlink:href="classdebRecordParser.xhtml"><polygon fill="#fff" stroke="#000" points="322.5 -19.5 322.5 -38.5 420.5 -38.5 420.5 -19.5 322.5 -19.5"/><text x="371.5" y="-26.5" font-family="Helvetica,sans-Serif" font-size="10" text-anchor="middle">debRecordParser</text></a></g></g><g id="edge3" class="edge"><title>Node0-&gt;Node2</title><path fill="none" stroke="#191970" d="M278.25,-39.79C293.13,-38.05 308.52,-36.25 322.36,-34.63"/><polygon fill="#191970" stroke="#191970" points="277.57 -36.34 268.05 -40.98 278.39 -43.29 277.57 -36.34"/></g></g></svg>