<svg xmlns="http://www.w3.org/2000/svg" xmlns:xlink="http://www.w3.org/1999/xlink" width="547pt" height="688" viewBox="0 0 547 516"><g id="graph0" class="graph" transform="scale(1 1) rotate(0) translate(4 512)"><title>Graphical Class Hierarchy</title><polygon fill="#fff" stroke="transparent" points="-4 4 -4 -512 543 -512 543 4 -4 4"/><g id="node1" class="node"><title>Node93</title><g id="a_node1"><a><polygon fill="#fff" stroke="#bfbfbf" points="37.5 -271 37.5 -290 90.5 -290 90.5 -271 37.5 -271"/><text x="64" y="-278" font-family="Helvetica,sans-Serif" font-size="10" text-anchor="middle">iterator</text></a></g></g><g id="node2" class="node"><title>Node0</title><g id="a_node2"><a target="_top" xlink:href="classAPT_1_1Container__iterator__base.xhtml"><polygon fill="#fff" stroke="#000" points="178 -433.5 178 -507.5 342 -507.5 342 -433.5 178 -433.5"/><text x="186" y="-495.5" font-family="Helvetica,sans-Serif" font-size="10" text-anchor="start">Container_iterator</text><text x="186" y="-484.5" font-family="Helvetica,sans-Serif" font-size="10" text-anchor="start">_base&lt; Interface, Master,</text><text x="186" y="-473.5" font-family="Helvetica,sans-Serif" font-size="10" text-anchor="start">Container_const_iterator</text><text x="186" y="-462.5" font-family="Helvetica,sans-Serif" font-size="10" text-anchor="start">&lt; Interface, Container, Master</text><text x="186" y="-451.5" font-family="Helvetica,sans-Serif" font-size="10" text-anchor="start">&gt;, Container::const_iterator,</text><text x="260" y="-440.5" font-family="Helvetica,sans-Serif" font-size="10" text-anchor="middle">Container::value_type &gt;</text></a></g></g><g id="edge1" class="edge"><title>Node93-&gt;Node0</title><path fill="none" stroke="#191970" d="M74.04,-299.32C89.11,-329.03 121.89,-387.13 164,-423.5 168.32,-427.23 172.98,-430.74 177.85,-434.04"/><polygon fill="#191970" stroke="#191970" points="77.04 -297.49 69.47 -290.08 70.77 -300.6 77.04 -297.49"/></g><g id="node4" class="node"><title>Node96</title><g id="a_node4"><a target="_top" xlink:href="classAPT_1_1Container__iterator__base.xhtml"><polygon fill="#fff" stroke="#000" points="168.5 -351 168.5 -414 351.5 -414 351.5 -351 168.5 -351"/><text x="176.5" y="-402" font-family="Helvetica,sans-Serif" font-size="10" text-anchor="start">Container_iterator</text><text x="176.5" y="-391" font-family="Helvetica,sans-Serif" font-size="10" text-anchor="start">_base&lt; Interface, Master,</text><text x="176.5" y="-380" font-family="Helvetica,sans-Serif" font-size="10" text-anchor="start">Container_iterator&lt; Interface,</text><text x="176.5" y="-369" font-family="Helvetica,sans-Serif" font-size="10" text-anchor="start">Container, Master &gt;, Container</text><text x="260" y="-358" font-family="Helvetica,sans-Serif" font-size="10" text-anchor="middle">::iterator, Container::value_type &gt;</text></a></g></g><g id="edge3" class="edge"><title>Node93-&gt;Node96</title><path fill="none" stroke="#191970" d="M87.63,-295.75C107.34,-308.72 136.94,-327.42 164,-341.5 170.13,-344.69 176.57,-347.85 183.09,-350.92"/><polygon fill="#191970" stroke="#191970" points="89.32 -292.67 79.05 -290.06 85.45 -298.5 89.32 -292.67"/></g><g id="node6" class="node"><title>Node98</title><g id="a_node6"><a target="_top" xlink:href="classAPT_1_1Container__iterator__base.xhtml"><polygon fill="#fff" stroke="#000" points="164 -257.5 164 -331.5 356 -331.5 356 -257.5 164 -257.5"/><text x="172" y="-319.5" font-family="Helvetica,sans-Serif" font-size="10" text-anchor="start">Container_iterator</text><text x="172" y="-308.5" font-family="Helvetica,sans-Serif" font-size="10" text-anchor="start">_base&lt; Interface, Master,</text><text x="172" y="-297.5" font-family="Helvetica,sans-Serif" font-size="10" text-anchor="start">Container_const_reverse</text><text x="172" y="-286.5" font-family="Helvetica,sans-Serif" font-size="10" text-anchor="start">_iterator&lt; Interface, Container,</text><text x="172" y="-275.5" font-family="Helvetica,sans-Serif" font-size="10" text-anchor="start">Master &gt;, Container::const_reverse</text><text x="260" y="-264.5" font-family="Helvetica,sans-Serif" font-size="10" text-anchor="middle">_iterator, Container::value_type &gt;</text></a></g></g><g id="edge5" class="edge"><title>Node93-&gt;Node98</title><path fill="none" stroke="#191970" d="M100.96,-283.1C118.81,-284.38 141.31,-286.01 163.68,-287.62"/><polygon fill="#191970" stroke="#191970" points="100.99 -279.59 90.76 -282.36 100.48 -286.57 100.99 -279.59"/></g><g id="node8" class="node"><title>Node100</title><g id="a_node8"><a target="_top" xlink:href="classAPT_1_1Container__iterator__base.xhtml"><polygon fill="#fff" stroke="#000" points="176 -164.5 176 -238.5 344 -238.5 344 -164.5 176 -164.5"/><text x="184" y="-226.5" font-family="Helvetica,sans-Serif" font-size="10" text-anchor="start">Container_iterator</text><text x="184" y="-215.5" font-family="Helvetica,sans-Serif" font-size="10" text-anchor="start">_base&lt; Interface, Master,</text><text x="184" y="-204.5" font-family="Helvetica,sans-Serif" font-size="10" text-anchor="start">Container_reverse_iterator</text><text x="184" y="-193.5" font-family="Helvetica,sans-Serif" font-size="10" text-anchor="start">&lt; Interface, Container, Master</text><text x="184" y="-182.5" font-family="Helvetica,sans-Serif" font-size="10" text-anchor="start">&gt;, Container::reverse_iterator,</text><text x="260" y="-171.5" font-family="Helvetica,sans-Serif" font-size="10" text-anchor="middle">Container::value_type &gt;</text></a></g></g><g id="edge7" class="edge"><title>Node93-&gt;Node100</title><path fill="none" stroke="#191970" d="M97.68,-267.19C119.1,-258.47 148.15,-246.64 175.7,-235.42"/><polygon fill="#191970" stroke="#191970" points="96.34 -263.96 88.4 -270.97 98.98 -270.44 96.34 -263.96"/></g><g id="node10" class="node"><title>Node102</title><g id="a_node10"><a target="_top" xlink:href="classAPT_1_1Container__iterator__base.xhtml"><polygon fill="#fff" stroke="#000" points="169 -71.5 169 -145.5 351 -145.5 351 -71.5 169 -71.5"/><text x="177" y="-133.5" font-family="Helvetica,sans-Serif" font-size="10" text-anchor="start">Container_iterator</text><text x="177" y="-122.5" font-family="Helvetica,sans-Serif" font-size="10" text-anchor="start">_base&lt; APT::PackageContainer</text><text x="177" y="-111.5" font-family="Helvetica,sans-Serif" font-size="10" text-anchor="start">Interface, PackageUniverse,</text><text x="177" y="-100.5" font-family="Helvetica,sans-Serif" font-size="10" text-anchor="start">PackageUniverse::const_iterator,</text><text x="177" y="-89.5" font-family="Helvetica,sans-Serif" font-size="10" text-anchor="start">pkgCache::PkgIterator, pkgCache</text><text x="260" y="-78.5" font-family="Helvetica,sans-Serif" font-size="10" text-anchor="middle">::PkgIterator &gt;</text></a></g></g><g id="edge9" class="edge"><title>Node93-&gt;Node102</title><path fill="none" stroke="#191970" d="M99.9,-267.74C110.01,-262.69 120.37,-256.02 128,-247.5 157.3,-214.8 134.32,-187.86 164,-155.5 167.23,-151.97 170.79,-148.68 174.57,-145.61"/><polygon fill="#191970" stroke="#191970" points="98.39 -264.58 90.76 -271.93 101.31 -270.94 98.39 -264.58"/></g><g id="node12" class="node"><title>Node104</title><g id="a_node12"><a target="_top" xlink:href="classAPT_1_1Container__iterator__base.xhtml"><polygon fill="#fff" stroke="#000" points="183.5 -.5 183.5 -52.5 336.5 -52.5 336.5 -.5 183.5 -.5"/><text x="191.5" y="-40.5" font-family="Helvetica,sans-Serif" font-size="10" text-anchor="start">Container_iterator</text><text x="191.5" y="-29.5" font-family="Helvetica,sans-Serif" font-size="10" text-anchor="start">_base&lt; Interface, Master,</text><text x="191.5" y="-18.5" font-family="Helvetica,sans-Serif" font-size="10" text-anchor="start">iterator_type, container</text><text x="260" y="-7.5" font-family="Helvetica,sans-Serif" font-size="10" text-anchor="middle">_iterator, container_value &gt;</text></a></g></g><g id="edge11" class="edge"><title>Node93-&gt;Node104</title><path fill="none" stroke="#191970" d="M100.12,-268.92C110.53,-263.87 121,-256.9 128,-247.5 178.27,-179.95 109.47,-125.66 164,-61.5 169.35,-55.21 175.94,-50.04 183.13,-45.81"/><polygon fill="#191970" stroke="#191970" points="98.46 -265.82 90.69 -273.02 101.25 -272.24 98.46 -265.82"/></g><g id="node3" class="node"><title>Node1</title><g id="a_node3"><a target="_top" xlink:href="classAPT_1_1Container__const__iterator.xhtml"><polygon fill="#fff" stroke="#000" points="397 -450 397 -491 534 -491 534 -450 397 -450"/><text x="405" y="-479" font-family="Helvetica,sans-Serif" font-size="10" text-anchor="start">Container_const_iterator</text><text x="405" y="-468" font-family="Helvetica,sans-Serif" font-size="10" text-anchor="start">&lt; Interface, Container,</text><text x="465.5" y="-457" font-family="Helvetica,sans-Serif" font-size="10" text-anchor="middle">Master &gt;</text></a></g></g><g id="edge2" class="edge"><title>Node0-&gt;Node1</title><path fill="none" stroke="#191970" d="M352.32,-470.5C367.3,-470.5 382.58,-470.5 396.86,-470.5"/><polygon fill="#191970" stroke="#191970" points="352.01 -467 342.01 -470.5 352.01 -474 352.01 -467"/></g><g id="node5" class="node"><title>Node97</title><g id="a_node5"><a target="_top" xlink:href="classAPT_1_1Container__iterator.xhtml"><polygon fill="#fff" stroke="#000" points="401.5 -362 401.5 -403 529.5 -403 529.5 -362 401.5 -362"/><text x="409.5" y="-391" font-family="Helvetica,sans-Serif" font-size="10" text-anchor="start">Container_iterator</text><text x="409.5" y="-380" font-family="Helvetica,sans-Serif" font-size="10" text-anchor="start">&lt; Interface, Container,</text><text x="465.5" y="-369" font-family="Helvetica,sans-Serif" font-size="10" text-anchor="middle">Master &gt;</text></a></g></g><g id="edge4" class="edge"><title>Node96-&gt;Node97</title><path fill="none" stroke="#191970" d="M361.98,-382.5C375.39,-382.5 388.83,-382.5 401.34,-382.5"/><polygon fill="#191970" stroke="#191970" points="361.74 -379 351.74 -382.5 361.74 -386 361.74 -379"/></g><g id="node7" class="node"><title>Node99</title><g id="a_node7"><a target="_top" xlink:href="classAPT_1_1Container__const__reverse__iterator.xhtml"><polygon fill="#fff" stroke="#000" points="397 -274 397 -315 534 -315 534 -274 397 -274"/><text x="405" y="-303" font-family="Helvetica,sans-Serif" font-size="10" text-anchor="start">Container_const_reverse</text><text x="405" y="-292" font-family="Helvetica,sans-Serif" font-size="10" text-anchor="start">_iterator&lt; Interface,</text><text x="465.5" y="-281" font-family="Helvetica,sans-Serif" font-size="10" text-anchor="middle">Container, Master &gt;</text></a></g></g><g id="edge6" class="edge"><title>Node98-&gt;Node99</title><path fill="none" stroke="#191970" d="M366.21,-294.5C376.65,-294.5 387.04,-294.5 396.94,-294.5"/><polygon fill="#191970" stroke="#191970" points="366.2 -291 356.2 -294.5 366.2 -298 366.2 -291"/></g><g id="node9" class="node"><title>Node101</title><g id="a_node9"><a target="_top" xlink:href="classAPT_1_1Container__reverse__iterator.xhtml"><polygon fill="#fff" stroke="#000" points="392 -181 392 -222 539 -222 539 -181 392 -181"/><text x="400" y="-210" font-family="Helvetica,sans-Serif" font-size="10" text-anchor="start">Container_reverse_iterator</text><text x="400" y="-199" font-family="Helvetica,sans-Serif" font-size="10" text-anchor="start">&lt; Interface, Container,</text><text x="465.5" y="-188" font-family="Helvetica,sans-Serif" font-size="10" text-anchor="middle">Master &gt;</text></a></g></g><g id="edge8" class="edge"><title>Node100-&gt;Node101</title><path fill="none" stroke="#191970" d="M354.15,-201.5C366.79,-201.5 379.6,-201.5 391.81,-201.5"/><polygon fill="#191970" stroke="#191970" points="354.06 -198 344.06 -201.5 354.06 -205 354.06 -198"/></g><g id="node11" class="node"><title>Node103</title><g id="a_node11"><a target="_top" xlink:href="classAPT_1_1PackageUniverse_1_1const__iterator.xhtml"><polygon fill="#fff" stroke="#000" points="399.5 -93.5 399.5 -123.5 531.5 -123.5 531.5 -93.5 399.5 -93.5"/><text x="407.5" y="-111.5" font-family="Helvetica,sans-Serif" font-size="10" text-anchor="start">PackageUniverse::const</text><text x="465.5" y="-100.5" font-family="Helvetica,sans-Serif" font-size="10" text-anchor="middle">_iterator</text></a></g></g><g id="edge10" class="edge"><title>Node102-&gt;Node103</title><path fill="none" stroke="#191970" d="M361.48,-108.5C374.39,-108.5 387.32,-108.5 399.45,-108.5"/><polygon fill="#191970" stroke="#191970" points="361.15 -105 351.15 -108.5 361.15 -112 361.15 -105"/></g><g id="node13" class="node"><title>Node290</title><g id="a_node13"><a><polygon fill="#fff" stroke="#bfbfbf" points="0 -219 0 -238 128 -238 128 -219 0 -219"/><text x="64" y="-226" font-family="Helvetica,sans-Serif" font-size="10" text-anchor="middle">template iterator_base</text></a></g></g><g id="edge12" class="edge"><title>Node290-&gt;Node0</title><path fill="none" stroke="#191970" d="M104.58,-242.57C113.4,-247.36 121.93,-253.57 128,-261.5 172.84,-320.06 118.49,-365.46 164,-423.5 167.97,-428.57 172.64,-433.13 177.73,-437.23"/><polygon fill="#191970" stroke="#191970" points="105.89 -239.31 95.37 -238.08 102.82 -245.6 105.89 -239.31"/></g><g id="edge13" class="edge"><title>Node290-&gt;Node96</title><path fill="none" stroke="#191970" d="M101.73,-242.56C111.16,-247.47 120.7,-253.75 128,-261.5 154.74,-289.88 136.22,-314.14 164,-341.5 167.46,-344.9 171.24,-348.04 175.24,-350.94"/><polygon fill="#191970" stroke="#191970" points="102.95 -239.26 92.42 -238.1 99.93 -245.58 102.95 -239.26"/></g><g id="edge14" class="edge"><title>Node290-&gt;Node98</title><path fill="none" stroke="#191970" d="M103.01,-241.43C120.52,-247.39 142.17,-254.75 163.7,-262.08"/><polygon fill="#191970" stroke="#191970" points="103.8 -238 93.21 -238.1 101.55 -244.63 103.8 -238"/></g><g id="edge15" class="edge"><title>Node290-&gt;Node100</title><path fill="none" stroke="#191970" d="M138.36,-218.29C150.56,-216.59 163.28,-214.82 175.71,-213.09"/><polygon fill="#191970" stroke="#191970" points="137.68 -214.85 128.25 -219.7 138.64 -221.78 137.68 -214.85"/></g><g id="edge16" class="edge"><title>Node290-&gt;Node102</title><path fill="none" stroke="#191970" d="M84.55,-212.48C104.02,-196.91 135.09,-173.12 164,-155.5 169.5,-152.15 175.27,-148.83 181.14,-145.61"/><polygon fill="#191970" stroke="#191970" points="82.3 -209.8 76.72 -218.8 86.7 -215.24 82.3 -209.8"/></g><g id="edge17" class="edge"><title>Node290-&gt;Node104</title><path fill="none" stroke="#191970" d="M71.64,-208.82C84.26,-174.23 114.92,-102.37 164,-61.5 169.81,-56.66 176.35,-52.46 183.2,-48.83"/><polygon fill="#191970" stroke="#191970" points="68.19 -208.05 68.17 -218.65 74.8 -210.38 68.19 -208.05"/></g></g></svg>