<svg xmlns="http://www.w3.org/2000/svg" xmlns:xlink="http://www.w3.org/1999/xlink" width="344" height="88pt" viewBox="0 0 258 88"><g id="graph0" class="graph" transform="scale(1 1) rotate(0) translate(4 84)"><title>Graphical Class Hierarchy</title><polygon fill="#fff" stroke="transparent" points="-4 4 -4 -84 254 -84 254 4 -4 4"/><g id="node1" class="node"><title>Node15</title><g id="a_node1"><a><polygon fill="#fff" stroke="#bfbfbf" points="12 -49.5 12 -79.5 131 -79.5 131 -49.5 12 -49.5"/><text x="20" y="-67.5" font-family="Helvetica,sans-Serif" font-size="10" text-anchor="start">ControlExtract public</text><text x="71.5" y="-56.5" font-family="Helvetica,sans-Serif" font-size="10" text-anchor="middle">pkgDirStream</text></a></g></g><g id="node2" class="node"><title>Node0</title><g id="a_node2"><a target="_top" xlink:href="classdebDebFile.xhtml"><polygon fill="#fff" stroke="#000" points="179 -30 179 -49 250 -49 250 -30 179 -30"/><text x="214.5" y="-37" font-family="Helvetica,sans-Serif" font-size="10" text-anchor="middle">debDebFile</text></a></g></g><g id="edge1" class="edge"><title>Node15-&gt;Node0</title><path fill="none" stroke="#8b1a1a" d="M141.02,-52.35C154.08,-50.04 167.24,-47.7 178.69,-45.67"/><polygon fill="#8b1a1a" stroke="#8b1a1a" points="140.31 -48.92 131.07 -54.11 141.53 -55.82 140.31 -48.92"/></g><g id="node3" class="node"><title>Node159</title><g id="a_node3"><a><polygon fill="#fff" stroke="#bfbfbf" points="0 -.5 0 -30.5 143 -30.5 143 -.5 0 -.5"/><text x="8" y="-18.5" font-family="Helvetica,sans-Serif" font-size="10" text-anchor="start">MemControlExtract public</text><text x="71.5" y="-7.5" font-family="Helvetica,sans-Serif" font-size="10" text-anchor="middle">pkgDirStream</text></a></g></g><g id="edge2" class="edge"><title>Node159-&gt;Node0</title><path fill="none" stroke="#8b1a1a" d="M153.5,-29.29C162.38,-30.8 171.04,-32.27 178.88,-33.61"/><polygon fill="#8b1a1a" stroke="#8b1a1a" points="153.86 -25.8 143.41 -27.57 152.68 -32.7 153.86 -25.8"/></g></g></svg>