<?xml version="1.0" encoding="UTF-8" standalone="no"?>
<!DOCTYPE svg PUBLIC "-//W3C//DTD SVG 1.1//EN"
 "http://www.w3.org/Graphics/SVG/1.1/DTD/svg11.dtd">
<!-- Generated by graphviz version 2.43.0 (0)
 -->
<!-- Title: Graphical Class Hierarchy Pages: 1 -->
<svg width="508pt" height="78pt"
 viewBox="0.00 0.00 508.00 77.50" xmlns="http://www.w3.org/2000/svg" xmlns:xlink="http://www.w3.org/1999/xlink">
<g id="graph0" class="graph" transform="scale(1 1) rotate(0) translate(4 73.5)">
<title>Graphical Class Hierarchy</title>
<polygon fill="white" stroke="transparent" points="-4,4 -4,-73.5 504,-73.5 504,4 -4,4"/>
<!-- Node0 -->
<g id="node1" class="node">
<title>Node0</title>
<g id="a_node1"><a xlink:href="classpkgDepCache_1_1InRootSetFunc.xhtml" target="_top" xlink:title="An arbitrary predicate on packages.">
<polygon fill="white" stroke="black" points="0,-50 0,-69 160,-69 160,-50 0,-50"/>
<text text-anchor="middle" x="80" y="-57" font-family="Helvetica,sans-Serif" font-size="10.00">pkgDepCache::InRootSetFunc</text>
</a>
</g>
</g>
<!-- Node1 -->
<g id="node2" class="node">
<title>Node1</title>
<g id="a_node2"><a xlink:href="classpkgDepCache_1_1DefaultRootSetFunc.xhtml" target="_top" xlink:title="Returns true for packages matching a regular expression in APT::NeverAutoRemove.">
<polygon fill="white" stroke="black" points="196,-22.5 196,-52.5 345,-52.5 345,-22.5 196,-22.5"/>
<text text-anchor="start" x="204" y="-40.5" font-family="Helvetica,sans-Serif" font-size="10.00">pkgDepCache::DefaultRoot</text>
<text text-anchor="middle" x="270.5" y="-29.5" font-family="Helvetica,sans-Serif" font-size="10.00">SetFunc</text>
</a>
</g>
</g>
<!-- Node0&#45;&gt;Node1 -->
<g id="edge1" class="edge">
<title>Node0&#45;&gt;Node1</title>
<path fill="none" stroke="midnightblue" d="M170.21,-49.09C178.85,-48.08 187.54,-47.07 195.99,-46.08"/>
<polygon fill="midnightblue" stroke="midnightblue" points="169.65,-45.63 160.12,-50.27 170.46,-52.58 169.65,-45.63"/>
</g>
<!-- Node2 -->
<g id="node3" class="node">
<title>Node2</title>
<g id="a_node3"><a xlink:href="classDefaultRootSetFunc2.xhtml" target="_top" xlink:title="Returns true for packages matching a regular expression in APT::NeverAutoRemove.">
<polygon fill="white" stroke="black" points="381,-28 381,-47 500,-47 500,-28 381,-28"/>
<text text-anchor="middle" x="440.5" y="-35" font-family="Helvetica,sans-Serif" font-size="10.00">DefaultRootSetFunc2</text>
</a>
</g>
</g>
<!-- Node1&#45;&gt;Node2 -->
<g id="edge2" class="edge">
<title>Node1&#45;&gt;Node2</title>
<path fill="none" stroke="midnightblue" d="M355.27,-37.5C363.89,-37.5 372.5,-37.5 380.76,-37.5"/>
<polygon fill="midnightblue" stroke="midnightblue" points="355.19,-34 345.19,-37.5 355.19,-41 355.19,-34"/>
</g>
<!-- Node124 -->
<g id="node4" class="node">
<title>Node124</title>
<g id="a_node4"><a xlink:href="classConfiguration_1_1MatchAgainstConfig.xhtml" target="_top" xlink:title="match a string against a configurable list of patterns">
<polygon fill="white" stroke="black" points="2.5,-0.5 2.5,-30.5 157.5,-30.5 157.5,-0.5 2.5,-0.5"/>
<text text-anchor="start" x="10.5" y="-18.5" font-family="Helvetica,sans-Serif" font-size="10.00">Configuration::MatchAgainst</text>
<text text-anchor="middle" x="80" y="-7.5" font-family="Helvetica,sans-Serif" font-size="10.00">Config</text>
</a>
</g>
</g>
<!-- Node124&#45;&gt;Node1 -->
<g id="edge3" class="edge">
<title>Node124&#45;&gt;Node1</title>
<path fill="none" stroke="midnightblue" d="M167.82,-25.63C177.22,-26.73 186.72,-27.84 195.95,-28.92"/>
<polygon fill="midnightblue" stroke="midnightblue" points="168.01,-22.13 157.67,-24.45 167.2,-29.08 168.01,-22.13"/>
</g>
</g>
</svg>
