<svg xmlns="http://www.w3.org/2000/svg" xmlns:xlink="http://www.w3.org/1999/xlink" width="272pt" height="392" viewBox="0 0 272 294"><g id="graph0" class="graph" transform="scale(1 1) rotate(0) translate(4 290)"><title>Graphical Class Hierarchy</title><polygon fill="#fff" stroke="transparent" points="-4 4 -4 -290 268 -290 268 4 -4 4"/><g id="node1" class="node"><title>Node0</title><g id="a_node1"><a target="_top" xlink:href="classFileFdPrivate.xhtml"><polygon fill="#fff" stroke="#000" points="0 -133.5 0 -152.5 80 -152.5 80 -133.5 0 -133.5"/><text x="40" y="-140.5" font-family="Helvetica,sans-Serif" font-size="10" text-anchor="middle">FileFdPrivate</text></a></g></g><g id="node2" class="node"><title>Node1</title><g id="a_node2"><a target="_top" xlink:href="classBufferedWriteFileFdPrivate.xhtml"><polygon fill="#fff" stroke="#000" points="116 -266.5 116 -285.5 264 -285.5 264 -266.5 116 -266.5"/><text x="190" y="-273.5" font-family="Helvetica,sans-Serif" font-size="10" text-anchor="middle">BufferedWriteFileFdPrivate</text></a></g></g><g id="edge1" class="edge"><title>Node0-&gt;Node1</title><path fill="none" stroke="#191970" d="M48.34,-162.04C59.2,-187.6 81.98,-232.62 116,-257 121.43,-260.89 127.59,-263.98 133.98,-266.45"/><polygon fill="#191970" stroke="#191970" points="51.55 -160.63 44.54 -152.68 45.06 -163.27 51.55 -160.63"/></g><g id="node3" class="node"><title>Node2</title><g id="a_node3"><a target="_top" xlink:href="classBz2FileFdPrivate.xhtml"><polygon fill="#fff" stroke="#000" points="141 -228.5 141 -247.5 239 -247.5 239 -228.5 141 -228.5"/><text x="190" y="-235.5" font-family="Helvetica,sans-Serif" font-size="10" text-anchor="middle">Bz2FileFdPrivate</text></a></g></g><g id="edge2" class="edge"><title>Node0-&gt;Node2</title><path fill="none" stroke="#191970" d="M53.87,-160.76C67.41,-178.16 90.29,-204.17 116,-219 123.6,-223.39 132.22,-226.78 140.81,-229.39"/><polygon fill="#191970" stroke="#191970" points="56.49 -158.43 47.67 -152.55 50.9 -162.64 56.49 -158.43"/></g><g id="node4" class="node"><title>Node3</title><g id="a_node4"><a target="_top" xlink:href="classDirectFileFdPrivate.xhtml"><polygon fill="#fff" stroke="#000" points="135 -190.5 135 -209.5 245 -209.5 245 -190.5 135 -190.5"/><text x="190" y="-197.5" font-family="Helvetica,sans-Serif" font-size="10" text-anchor="middle">DirectFileFdPrivate</text></a></g></g><g id="edge3" class="edge"><title>Node0-&gt;Node3</title><path fill="none" stroke="#191970" d="M66.37,-157.57C80.62,-165.31 98.92,-174.54 116,-181 125.55,-184.62 136.06,-187.79 146.06,-190.46"/><polygon fill="#191970" stroke="#191970" points="67.66 -154.29 57.22 -152.5 64.27 -160.41 67.66 -154.29"/></g><g id="node5" class="node"><title>Node4</title><g id="a_node5"><a target="_top" xlink:href="classGzipFileFdPrivate.xhtml"><polygon fill="#fff" stroke="#000" points="139 -152.5 139 -171.5 241 -171.5 241 -152.5 139 -152.5"/><text x="190" y="-159.5" font-family="Helvetica,sans-Serif" font-size="10" text-anchor="middle">GzipFileFdPrivate</text></a></g></g><g id="edge4" class="edge"><title>Node0-&gt;Node4</title><path fill="none" stroke="#191970" d="M90.28,-149.33C105.91,-151.33 123.22,-153.55 138.91,-155.57"/><polygon fill="#191970" stroke="#191970" points="90.64 -145.84 80.27 -148.04 89.75 -152.79 90.64 -145.84"/></g><g id="node6" class="node"><title>Node5</title><g id="a_node6"><a target="_top" xlink:href="classLz4FileFdPrivate.xhtml"><polygon fill="#fff" stroke="#000" points="141.5 -114.5 141.5 -133.5 238.5 -133.5 238.5 -114.5 141.5 -114.5"/><text x="190" y="-121.5" font-family="Helvetica,sans-Serif" font-size="10" text-anchor="middle">Lz4FileFdPrivate</text></a></g></g><g id="edge5" class="edge"><title>Node0-&gt;Node5</title><path fill="none" stroke="#191970" d="M90.25,-136.68C106.71,-134.56 125.02,-132.21 141.36,-130.12"/><polygon fill="#191970" stroke="#191970" points="89.75 -133.21 80.27 -137.96 90.64 -140.16 89.75 -133.21"/></g><g id="node7" class="node"><title>Node6</title><g id="a_node7"><a target="_top" xlink:href="classLzmaFileFdPrivate.xhtml"><polygon fill="#fff" stroke="#000" points="136.5 -76.5 136.5 -95.5 243.5 -95.5 243.5 -76.5 136.5 -76.5"/><text x="190" y="-83.5" font-family="Helvetica,sans-Serif" font-size="10" text-anchor="middle">LzmaFileFdPrivate</text></a></g></g><g id="edge6" class="edge"><title>Node0-&gt;Node6</title><path fill="none" stroke="#191970" d="M66.37,-128.43C80.62,-120.69 98.92,-111.46 116,-105 125.55,-101.38 136.06,-98.21 146.06,-95.54"/><polygon fill="#191970" stroke="#191970" points="64.27 -125.59 57.22 -133.5 67.66 -131.71 64.27 -125.59"/></g><g id="node8" class="node"><title>Node7</title><g id="a_node8"><a target="_top" xlink:href="classPipedFileFdPrivate.xhtml"><polygon fill="#fff" stroke="#000" points="136.5 -38.5 136.5 -57.5 243.5 -57.5 243.5 -38.5 136.5 -38.5"/><text x="190" y="-45.5" font-family="Helvetica,sans-Serif" font-size="10" text-anchor="middle">PipedFileFdPrivate</text></a></g></g><g id="edge7" class="edge"><title>Node0-&gt;Node7</title><path fill="none" stroke="#191970" d="M53.87,-125.24C67.41,-107.84 90.29,-81.83 116,-67 122.69,-63.14 130.18,-60.05 137.73,-57.58"/><polygon fill="#191970" stroke="#191970" points="50.9 -123.36 47.67 -133.45 56.49 -127.57 50.9 -123.36"/></g><g id="node9" class="node"><title>Node8</title><g id="a_node9"><a target="_top" xlink:href="classZstdFileFdPrivate.xhtml"><polygon fill="#fff" stroke="#000" points="139 -.5 139 -19.5 241 -19.5 241 -.5 139 -.5"/><text x="190" y="-7.5" font-family="Helvetica,sans-Serif" font-size="10" text-anchor="middle">ZstdFileFdPrivate</text></a></g></g><g id="edge8" class="edge"><title>Node0-&gt;Node8</title><path fill="none" stroke="#191970" d="M48.34,-123.96C59.2,-98.4 81.98,-53.38 116,-29 122.81,-24.12 130.78,-20.49 138.9,-17.79"/><polygon fill="#191970" stroke="#191970" points="45.06 -122.73 44.54 -133.32 51.55 -125.37 45.06 -122.73"/></g></g></svg>