<?xml version="1.0" encoding="UTF-8" standalone="no"?>
<!DOCTYPE svg PUBLIC "-//W3C//DTD SVG 1.1//EN"
 "http://www.w3.org/Graphics/SVG/1.1/DTD/svg11.dtd">
<!-- Generated by graphviz version 2.43.0 (0)
 -->
<!-- Title: Graphical Class Hierarchy Pages: 1 -->
<svg width="520pt" height="161pt"
 viewBox="0.00 0.00 520.00 161.00" xmlns="http://www.w3.org/2000/svg" xmlns:xlink="http://www.w3.org/1999/xlink">
<g id="graph0" class="graph" transform="scale(1 1) rotate(0) translate(4 157)">
<title>Graphical Class Hierarchy</title>
<polygon fill="white" stroke="transparent" points="-4,4 -4,-157 516,-157 516,4 -4,4"/>
<!-- Node0 -->
<g id="node1" class="node">
<title>Node0</title>
<g id="a_node1"><a xlink:href="classpkgCacheListParser.xhtml" target="_top" xlink:title=" ">
<polygon fill="white" stroke="black" points="0,-76.5 0,-95.5 112,-95.5 112,-76.5 0,-76.5"/>
<text text-anchor="middle" x="56" y="-83.5" font-family="Helvetica,sans-Serif" font-size="10.00">pkgCacheListParser</text>
</a>
</g>
</g>
<!-- Node1 -->
<g id="node2" class="node">
<title>Node1</title>
<g id="a_node2"><a xlink:href="classdebListParser.xhtml" target="_top" xlink:title=" ">
<polygon fill="white" stroke="black" points="148,-76.5 148,-95.5 230,-95.5 230,-76.5 148,-76.5"/>
<text text-anchor="middle" x="189" y="-83.5" font-family="Helvetica,sans-Serif" font-size="10.00">debListParser</text>
</a>
</g>
</g>
<!-- Node0&#45;&gt;Node1 -->
<g id="edge1" class="edge">
<title>Node0&#45;&gt;Node1</title>
<path fill="none" stroke="midnightblue" d="M122.28,-86C130.92,-86 139.57,-86 147.61,-86"/>
<polygon fill="midnightblue" stroke="midnightblue" points="122.18,-82.5 112.18,-86 122.18,-89.5 122.18,-82.5"/>
</g>
<!-- Node2 -->
<g id="node3" class="node">
<title>Node2</title>
<g id="a_node3"><a xlink:href="classdebDebFileParser.xhtml" target="_top" xlink:title=" ">
<polygon fill="white" stroke="black" points="277,-133.5 277,-152.5 378,-152.5 378,-133.5 277,-133.5"/>
<text text-anchor="middle" x="327.5" y="-140.5" font-family="Helvetica,sans-Serif" font-size="10.00">debDebFileParser</text>
</a>
</g>
</g>
<!-- Node1&#45;&gt;Node2 -->
<g id="edge2" class="edge">
<title>Node1&#45;&gt;Node2</title>
<path fill="none" stroke="midnightblue" d="M216.01,-100.3C230.47,-107.92 248.95,-117.11 266,-124 274.57,-127.46 284.04,-130.7 292.88,-133.49"/>
<polygon fill="midnightblue" stroke="midnightblue" points="217.61,-97.19 207.14,-95.56 214.31,-103.36 217.61,-97.19"/>
</g>
<!-- Node3 -->
<g id="node4" class="node">
<title>Node3</title>
<g id="a_node4"><a xlink:href="classdebStatusListParser.xhtml" target="_top" xlink:title=" ">
<polygon fill="white" stroke="black" points="271,-95.5 271,-114.5 384,-114.5 384,-95.5 271,-95.5"/>
<text text-anchor="middle" x="327.5" y="-102.5" font-family="Helvetica,sans-Serif" font-size="10.00">debStatusListParser</text>
</a>
</g>
</g>
<!-- Node1&#45;&gt;Node3 -->
<g id="edge3" class="edge">
<title>Node1&#45;&gt;Node3</title>
<path fill="none" stroke="midnightblue" d="M240.35,-93.01C250.29,-94.39 260.78,-95.85 270.89,-97.26"/>
<polygon fill="midnightblue" stroke="midnightblue" points="240.6,-89.51 230.22,-91.6 239.64,-96.44 240.6,-89.51"/>
</g>
<!-- Node4 -->
<g id="node5" class="node">
<title>Node4</title>
<g id="a_node5"><a xlink:href="classdebTranslationsParser.xhtml" target="_top" xlink:title=" ">
<polygon fill="white" stroke="black" points="266,-57.5 266,-76.5 389,-76.5 389,-57.5 266,-57.5"/>
<text text-anchor="middle" x="327.5" y="-64.5" font-family="Helvetica,sans-Serif" font-size="10.00">debTranslationsParser</text>
</a>
</g>
</g>
<!-- Node1&#45;&gt;Node4 -->
<g id="edge4" class="edge">
<title>Node1&#45;&gt;Node4</title>
<path fill="none" stroke="midnightblue" d="M240.17,-79.02C248.51,-77.86 257.25,-76.64 265.82,-75.45"/>
<polygon fill="midnightblue" stroke="midnightblue" points="239.64,-75.56 230.22,-80.4 240.6,-82.49 239.64,-75.56"/>
</g>
<!-- Node5 -->
<g id="node6" class="node">
<title>Node5</title>
<g id="a_node6"><a xlink:href="classedspLikeListParser.xhtml" target="_top" xlink:title=" ">
<polygon fill="white" stroke="black" points="274,-19.5 274,-38.5 381,-38.5 381,-19.5 274,-19.5"/>
<text text-anchor="middle" x="327.5" y="-26.5" font-family="Helvetica,sans-Serif" font-size="10.00">edspLikeListParser</text>
</a>
</g>
</g>
<!-- Node1&#45;&gt;Node5 -->
<g id="edge5" class="edge">
<title>Node1&#45;&gt;Node5</title>
<path fill="none" stroke="midnightblue" d="M216.01,-71.7C230.47,-64.08 248.95,-54.89 266,-48 274.57,-44.54 284.04,-41.3 292.88,-38.51"/>
<polygon fill="midnightblue" stroke="midnightblue" points="214.31,-68.64 207.14,-76.44 217.61,-74.81 214.31,-68.64"/>
</g>
<!-- Node6 -->
<g id="node7" class="node">
<title>Node6</title>
<g id="a_node7"><a xlink:href="classedspListParser.xhtml" target="_top" xlink:title=" ">
<polygon fill="white" stroke="black" points="425,-38.5 425,-57.5 512,-57.5 512,-38.5 425,-38.5"/>
<text text-anchor="middle" x="468.5" y="-45.5" font-family="Helvetica,sans-Serif" font-size="10.00">edspListParser</text>
</a>
</g>
</g>
<!-- Node5&#45;&gt;Node6 -->
<g id="edge6" class="edge">
<title>Node5&#45;&gt;Node6</title>
<path fill="none" stroke="midnightblue" d="M391,-37.54C402.44,-39.11 414.13,-40.7 424.82,-42.17"/>
<polygon fill="midnightblue" stroke="midnightblue" points="391.43,-34.07 381.05,-36.18 390.48,-41.01 391.43,-34.07"/>
</g>
<!-- Node7 -->
<g id="node8" class="node">
<title>Node7</title>
<g id="a_node8"><a xlink:href="classeippListParser.xhtml" target="_top" xlink:title=" ">
<polygon fill="white" stroke="black" points="426,-0.5 426,-19.5 511,-19.5 511,-0.5 426,-0.5"/>
<text text-anchor="middle" x="468.5" y="-7.5" font-family="Helvetica,sans-Serif" font-size="10.00">eippListParser</text>
</a>
</g>
</g>
<!-- Node5&#45;&gt;Node7 -->
<g id="edge7" class="edge">
<title>Node5&#45;&gt;Node7</title>
<path fill="none" stroke="midnightblue" d="M391.22,-20.43C402.9,-18.83 414.84,-17.2 425.7,-15.71"/>
<polygon fill="midnightblue" stroke="midnightblue" points="390.48,-16.99 381.05,-21.82 391.43,-23.93 390.48,-16.99"/>
</g>
</g>
</svg>
