<?xml version="1.0" encoding="UTF-8" standalone="no"?>
<!DOCTYPE svg PUBLIC "-//W3C//DTD SVG 1.1//EN"
 "http://www.w3.org/Graphics/SVG/1.1/DTD/svg11.dtd">
<!-- Generated by graphviz version 2.43.0 (0)
 -->
<!-- Title: Graphical Class Hierarchy Pages: 1 -->
<svg width="287pt" height="508pt"
 viewBox="0.00 0.00 287.00 508.00" xmlns="http://www.w3.org/2000/svg" xmlns:xlink="http://www.w3.org/1999/xlink">
<g id="graph0" class="graph" transform="scale(1 1) rotate(0) translate(4 504)">
<title>Graphical Class Hierarchy</title>
<polygon fill="white" stroke="transparent" points="-4,4 -4,-504 283,-504 283,4 -4,4"/>
<!-- Node24 -->
<g id="node1" class="node">
<title>Node24</title>
<g id="a_node1"><a xlink:title=" ">
<polygon fill="white" stroke="#bfbfbf" points="11,-469.5 11,-499.5 115,-499.5 115,-469.5 11,-469.5"/>
<text text-anchor="start" x="19" y="-487.5" font-family="Helvetica,sans-Serif" font-size="10.00">DepIterator public</text>
<text text-anchor="middle" x="63" y="-476.5" font-family="Helvetica,sans-Serif" font-size="10.00"> Iterator</text>
</a>
</g>
</g>
<!-- Node0 -->
<g id="node2" class="node">
<title>Node0</title>
<g id="a_node2"><a xlink:href="classpkgCache.xhtml" target="_top" xlink:title=" ">
<polygon fill="white" stroke="black" points="162,-246 162,-265 279,-265 279,-246 162,-246"/>
<text text-anchor="middle" x="220.5" y="-253" font-family="Helvetica,sans-Serif" font-size="10.00">pkgCache&lt; Str, Itr &gt;</text>
</a>
</g>
</g>
<!-- Node24&#45;&gt;Node0 -->
<g id="edge1" class="edge">
<title>Node24&#45;&gt;Node0</title>
<path fill="none" stroke="#8b1a1a" d="M122.47,-463.56C123.69,-462.58 124.87,-461.56 126,-460.5 187.19,-402.8 211.55,-297.42 217.78,-265.15"/>
<polygon fill="#8b1a1a" stroke="#8b1a1a" points="120.17,-460.88 113.84,-469.38 124.09,-466.69 120.17,-460.88"/>
</g>
<!-- Node27 -->
<g id="node3" class="node">
<title>Node27</title>
<g id="a_node3"><a xlink:title=" ">
<polygon fill="white" stroke="#bfbfbf" points="0,-420.5 0,-450.5 126,-450.5 126,-420.5 0,-420.5"/>
<text text-anchor="start" x="8" y="-438.5" font-family="Helvetica,sans-Serif" font-size="10.00">DescFileIterator public</text>
<text text-anchor="middle" x="63" y="-427.5" font-family="Helvetica,sans-Serif" font-size="10.00"> Iterator</text>
</a>
</g>
</g>
<!-- Node27&#45;&gt;Node0 -->
<g id="edge2" class="edge">
<title>Node27&#45;&gt;Node0</title>
<path fill="none" stroke="#8b1a1a" d="M121.22,-415.16C122.88,-414 124.48,-412.78 126,-411.5 176.47,-368.98 206.85,-291.91 216.31,-265.04"/>
<polygon fill="#8b1a1a" stroke="#8b1a1a" points="119.24,-412.27 112.52,-420.45 122.88,-418.25 119.24,-412.27"/>
</g>
<!-- Node28 -->
<g id="node4" class="node">
<title>Node28</title>
<g id="a_node4"><a xlink:title=" ">
<polygon fill="white" stroke="#bfbfbf" points="8.5,-371.5 8.5,-401.5 117.5,-401.5 117.5,-371.5 8.5,-371.5"/>
<text text-anchor="start" x="16.5" y="-389.5" font-family="Helvetica,sans-Serif" font-size="10.00">DescIterator public</text>
<text text-anchor="middle" x="63" y="-378.5" font-family="Helvetica,sans-Serif" font-size="10.00"> Iterator</text>
</a>
</g>
</g>
<!-- Node28&#45;&gt;Node0 -->
<g id="edge3" class="edge">
<title>Node28&#45;&gt;Node0</title>
<path fill="none" stroke="#8b1a1a" d="M119.4,-366.71C121.68,-365.38 123.89,-363.98 126,-362.5 166.01,-334.48 200.06,-285.79 213.44,-265.17"/>
<polygon fill="#8b1a1a" stroke="#8b1a1a" points="117.55,-363.73 110.32,-371.47 120.8,-369.92 117.55,-363.73"/>
</g>
<!-- Node54 -->
<g id="node5" class="node">
<title>Node54</title>
<g id="a_node5"><a xlink:title=" ">
<polygon fill="white" stroke="#bfbfbf" points="12,-322.5 12,-352.5 114,-352.5 114,-322.5 12,-322.5"/>
<text text-anchor="start" x="20" y="-340.5" font-family="Helvetica,sans-Serif" font-size="10.00">GrpIterator public</text>
<text text-anchor="middle" x="63" y="-329.5" font-family="Helvetica,sans-Serif" font-size="10.00"> Iterator</text>
</a>
</g>
</g>
<!-- Node54&#45;&gt;Node0 -->
<g id="edge4" class="edge">
<title>Node54&#45;&gt;Node0</title>
<path fill="none" stroke="#8b1a1a" d="M113.49,-318.4C117.76,-316.5 121.98,-314.52 126,-312.5 155.22,-297.83 187.38,-277.14 205.34,-265.14"/>
<polygon fill="#8b1a1a" stroke="#8b1a1a" points="111.91,-315.27 104.12,-322.45 114.69,-321.7 111.91,-315.27"/>
</g>
<!-- Node91 -->
<g id="node6" class="node">
<title>Node91</title>
<g id="a_node6"><a xlink:title=" ">
<polygon fill="white" stroke="#bfbfbf" points="36.5,-284 36.5,-303 89.5,-303 89.5,-284 36.5,-284"/>
<text text-anchor="middle" x="63" y="-291" font-family="Helvetica,sans-Serif" font-size="10.00">iterator</text>
</a>
</g>
</g>
<!-- Node91&#45;&gt;Node0 -->
<g id="edge5" class="edge">
<title>Node91&#45;&gt;Node0</title>
<path fill="none" stroke="#8b1a1a" d="M99.49,-284.83C123.61,-278.93 155.52,-271.14 180.37,-265.06"/>
<polygon fill="#8b1a1a" stroke="#8b1a1a" points="98.56,-281.45 89.68,-287.23 100.22,-288.25 98.56,-281.45"/>
</g>
<!-- Node105 -->
<g id="node7" class="node">
<title>Node105</title>
<g id="a_node7"><a xlink:title=" ">
<polygon fill="white" stroke="#bfbfbf" points="36.5,-246 36.5,-265 89.5,-265 89.5,-246 36.5,-246"/>
<text text-anchor="middle" x="63" y="-253" font-family="Helvetica,sans-Serif" font-size="10.00">Iterator</text>
</a>
</g>
</g>
<!-- Node105&#45;&gt;Node0 -->
<g id="edge6" class="edge">
<title>Node105&#45;&gt;Node0</title>
<path fill="none" stroke="#8b1a1a" d="M99.93,-255.5C118.28,-255.5 141.07,-255.5 161.81,-255.5"/>
<polygon fill="#8b1a1a" stroke="#8b1a1a" points="99.68,-252 89.68,-255.5 99.68,-259 99.68,-252"/>
</g>
<!-- Node217 -->
<g id="node8" class="node">
<title>Node217</title>
<g id="a_node8"><a xlink:title=" ">
<polygon fill="white" stroke="#bfbfbf" points="3,-196.5 3,-226.5 123,-226.5 123,-196.5 3,-196.5"/>
<text text-anchor="start" x="11" y="-214.5" font-family="Helvetica,sans-Serif" font-size="10.00">PkgFileIterator public</text>
<text text-anchor="middle" x="63" y="-203.5" font-family="Helvetica,sans-Serif" font-size="10.00"> Iterator</text>
</a>
</g>
</g>
<!-- Node217&#45;&gt;Node0 -->
<g id="edge7" class="edge">
<title>Node217&#45;&gt;Node0</title>
<path fill="none" stroke="#8b1a1a" d="M126.82,-229.27C146.93,-234.97 168.43,-241.05 185.65,-245.92"/>
<polygon fill="#8b1a1a" stroke="#8b1a1a" points="127.65,-225.87 117.08,-226.52 125.75,-232.61 127.65,-225.87"/>
</g>
<!-- Node233 -->
<g id="node9" class="node">
<title>Node233</title>
<g id="a_node9"><a xlink:title=" ">
<polygon fill="white" stroke="#bfbfbf" points="11.5,-147.5 11.5,-177.5 114.5,-177.5 114.5,-147.5 11.5,-147.5"/>
<text text-anchor="start" x="19.5" y="-165.5" font-family="Helvetica,sans-Serif" font-size="10.00">PkgIterator public</text>
<text text-anchor="middle" x="63" y="-154.5" font-family="Helvetica,sans-Serif" font-size="10.00"> Iterator</text>
</a>
</g>
</g>
<!-- Node233&#45;&gt;Node0 -->
<g id="edge8" class="edge">
<title>Node233&#45;&gt;Node0</title>
<path fill="none" stroke="#8b1a1a" d="M114.57,-181.67C118.49,-183.52 122.35,-185.47 126,-187.5 157.78,-205.11 191.36,-231.81 208.31,-245.94"/>
<polygon fill="#8b1a1a" stroke="#8b1a1a" points="115.9,-178.43 105.35,-177.52 113.03,-184.81 115.9,-178.43"/>
</g>
<!-- Node270 -->
<g id="node10" class="node">
<title>Node270</title>
<g id="a_node10"><a xlink:title=" ">
<polygon fill="white" stroke="#bfbfbf" points="12.5,-98.5 12.5,-128.5 113.5,-128.5 113.5,-98.5 12.5,-98.5"/>
<text text-anchor="start" x="20.5" y="-116.5" font-family="Helvetica,sans-Serif" font-size="10.00">PrvIterator public</text>
<text text-anchor="middle" x="63" y="-105.5" font-family="Helvetica,sans-Serif" font-size="10.00"> Iterator</text>
</a>
</g>
</g>
<!-- Node270&#45;&gt;Node0 -->
<g id="edge9" class="edge">
<title>Node270&#45;&gt;Node0</title>
<path fill="none" stroke="#8b1a1a" d="M118.3,-133.39C120.98,-134.98 123.56,-136.69 126,-138.5 167.92,-169.71 201.65,-224.04 214.21,-245.94"/>
<polygon fill="#8b1a1a" stroke="#8b1a1a" points="119.96,-130.31 109.5,-128.64 116.64,-136.47 119.96,-130.31"/>
</g>
<!-- Node274 -->
<g id="node11" class="node">
<title>Node274</title>
<g id="a_node11"><a xlink:title=" ">
<polygon fill="white" stroke="#bfbfbf" points="4.5,-49.5 4.5,-79.5 121.5,-79.5 121.5,-49.5 4.5,-49.5"/>
<text text-anchor="start" x="12.5" y="-67.5" font-family="Helvetica,sans-Serif" font-size="10.00">RlsFileIterator public</text>
<text text-anchor="middle" x="63" y="-56.5" font-family="Helvetica,sans-Serif" font-size="10.00"> Iterator</text>
</a>
</g>
</g>
<!-- Node274&#45;&gt;Node0 -->
<g id="edge10" class="edge">
<title>Node274&#45;&gt;Node0</title>
<path fill="none" stroke="#8b1a1a" d="M119.93,-84.78C122.06,-86.25 124.09,-87.82 126,-89.5 178.2,-135.33 207.68,-217.67 216.58,-245.79"/>
<polygon fill="#8b1a1a" stroke="#8b1a1a" points="121.72,-81.77 111.36,-79.57 118.09,-87.76 121.72,-81.77"/>
</g>
<!-- Node310 -->
<g id="node12" class="node">
<title>Node310</title>
<g id="a_node12"><a xlink:title=" ">
<polygon fill="white" stroke="#bfbfbf" points="12.5,-0.5 12.5,-30.5 113.5,-30.5 113.5,-0.5 12.5,-0.5"/>
<text text-anchor="start" x="20.5" y="-18.5" font-family="Helvetica,sans-Serif" font-size="10.00">VerIterator public</text>
<text text-anchor="middle" x="63" y="-7.5" font-family="Helvetica,sans-Serif" font-size="10.00"> Iterator</text>
</a>
</g>
</g>
<!-- Node310&#45;&gt;Node0 -->
<g id="edge11" class="edge">
<title>Node310&#45;&gt;Node0</title>
<path fill="none" stroke="#8b1a1a" d="M121.35,-36.45C122.98,-37.72 124.53,-39.07 126,-40.5 189,-101.83 212.25,-212.73 217.98,-245.88"/>
<polygon fill="#8b1a1a" stroke="#8b1a1a" points="122.94,-33.31 112.68,-30.67 119.06,-39.13 122.94,-33.31"/>
</g>
</g>
</svg>
