<?xml version="1.0" encoding="UTF-8" standalone="no"?>
<!DOCTYPE svg PUBLIC "-//W3C//DTD SVG 1.1//EN"
 "http://www.w3.org/Graphics/SVG/1.1/DTD/svg11.dtd">
<!-- Generated by graphviz version 2.43.0 (0)
 -->
<!-- Title: Graphical Class Hierarchy Pages: 1 -->
<svg width="258pt" height="88pt"
 viewBox="0.00 0.00 258.00 88.00" xmlns="http://www.w3.org/2000/svg" xmlns:xlink="http://www.w3.org/1999/xlink">
<g id="graph0" class="graph" transform="scale(1 1) rotate(0) translate(4 84)">
<title>Graphical Class Hierarchy</title>
<polygon fill="white" stroke="transparent" points="-4,4 -4,-84 254,-84 254,4 -4,4"/>
<!-- Node15 -->
<g id="node1" class="node">
<title>Node15</title>
<g id="a_node1"><a xlink:title=" ">
<polygon fill="white" stroke="#bfbfbf" points="12,-49.5 12,-79.5 131,-79.5 131,-49.5 12,-49.5"/>
<text text-anchor="start" x="20" y="-67.5" font-family="Helvetica,sans-Serif" font-size="10.00">ControlExtract public</text>
<text text-anchor="middle" x="71.5" y="-56.5" font-family="Helvetica,sans-Serif" font-size="10.00"> pkgDirStream</text>
</a>
</g>
</g>
<!-- Node0 -->
<g id="node2" class="node">
<title>Node0</title>
<g id="a_node2"><a xlink:href="classdebDebFile.xhtml" target="_top" xlink:title=" ">
<polygon fill="white" stroke="black" points="179,-30 179,-49 250,-49 250,-30 179,-30"/>
<text text-anchor="middle" x="214.5" y="-37" font-family="Helvetica,sans-Serif" font-size="10.00">debDebFile</text>
</a>
</g>
</g>
<!-- Node15&#45;&gt;Node0 -->
<g id="edge1" class="edge">
<title>Node15&#45;&gt;Node0</title>
<path fill="none" stroke="#8b1a1a" d="M141.02,-52.35C154.08,-50.04 167.24,-47.7 178.69,-45.67"/>
<polygon fill="#8b1a1a" stroke="#8b1a1a" points="140.31,-48.92 131.07,-54.11 141.53,-55.82 140.31,-48.92"/>
</g>
<!-- Node159 -->
<g id="node3" class="node">
<title>Node159</title>
<g id="a_node3"><a xlink:title=" ">
<polygon fill="white" stroke="#bfbfbf" points="0,-0.5 0,-30.5 143,-30.5 143,-0.5 0,-0.5"/>
<text text-anchor="start" x="8" y="-18.5" font-family="Helvetica,sans-Serif" font-size="10.00">MemControlExtract public</text>
<text text-anchor="middle" x="71.5" y="-7.5" font-family="Helvetica,sans-Serif" font-size="10.00"> pkgDirStream</text>
</a>
</g>
</g>
<!-- Node159&#45;&gt;Node0 -->
<g id="edge2" class="edge">
<title>Node159&#45;&gt;Node0</title>
<path fill="none" stroke="#8b1a1a" d="M153.5,-29.29C162.38,-30.8 171.04,-32.27 178.88,-33.61"/>
<polygon fill="#8b1a1a" stroke="#8b1a1a" points="153.86,-25.8 143.41,-27.57 152.68,-32.7 153.86,-25.8"/>
</g>
</g>
</svg>
