<?xml version="1.0" encoding="UTF-8" standalone="no"?>
<!DOCTYPE svg PUBLIC "-//W3C//DTD SVG 1.1//EN"
 "http://www.w3.org/Graphics/SVG/1.1/DTD/svg11.dtd">
<!-- Generated by graphviz version 2.43.0 (0)
 -->
<!-- Title: Graphical Class Hierarchy Pages: 1 -->
<svg width="324pt" height="85pt"
 viewBox="0.00 0.00 324.00 85.00" xmlns="http://www.w3.org/2000/svg" xmlns:xlink="http://www.w3.org/1999/xlink">
<g id="graph0" class="graph" transform="scale(1 1) rotate(0) translate(4 81)">
<title>Graphical Class Hierarchy</title>
<polygon fill="white" stroke="transparent" points="-4,4 -4,-81 320,-81 320,4 -4,4"/>
<!-- Node0 -->
<g id="node1" class="node">
<title>Node0</title>
<g id="a_node1"><a xlink:href="classpkgSystem.xhtml" target="_top" xlink:title=" ">
<polygon fill="white" stroke="black" points="0,-38.5 0,-57.5 71,-57.5 71,-38.5 0,-38.5"/>
<text text-anchor="middle" x="35.5" y="-45.5" font-family="Helvetica,sans-Serif" font-size="10.00">pkgSystem</text>
</a>
</g>
</g>
<!-- Node1 -->
<g id="node2" class="node">
<title>Node1</title>
<g id="a_node2"><a xlink:href="classdebSystem.xhtml" target="_top" xlink:title=" ">
<polygon fill="white" stroke="black" points="119.5,-57.5 119.5,-76.5 190.5,-76.5 190.5,-57.5 119.5,-57.5"/>
<text text-anchor="middle" x="155" y="-64.5" font-family="Helvetica,sans-Serif" font-size="10.00">debSystem</text>
</a>
</g>
</g>
<!-- Node0&#45;&gt;Node1 -->
<g id="edge1" class="edge">
<title>Node0&#45;&gt;Node1</title>
<path fill="none" stroke="midnightblue" d="M81.01,-55.2C93.66,-57.24 107.24,-59.44 119.22,-61.38"/>
<polygon fill="midnightblue" stroke="midnightblue" points="81.55,-51.74 71.12,-53.6 80.43,-58.65 81.55,-51.74"/>
</g>
<!-- Node2 -->
<g id="node3" class="node">
<title>Node2</title>
<g id="a_node3"><a xlink:href="classedspLikeSystem.xhtml" target="_top" xlink:title=" ">
<polygon fill="white" stroke="black" points="107,-19.5 107,-38.5 203,-38.5 203,-19.5 107,-19.5"/>
<text text-anchor="middle" x="155" y="-26.5" font-family="Helvetica,sans-Serif" font-size="10.00">edspLikeSystem</text>
</a>
</g>
</g>
<!-- Node0&#45;&gt;Node2 -->
<g id="edge2" class="edge">
<title>Node0&#45;&gt;Node2</title>
<path fill="none" stroke="midnightblue" d="M81.05,-40.8C89.39,-39.45 98.14,-38.03 106.57,-36.67"/>
<polygon fill="midnightblue" stroke="midnightblue" points="80.43,-37.35 71.12,-42.4 81.55,-44.26 80.43,-37.35"/>
</g>
<!-- Node3 -->
<g id="node4" class="node">
<title>Node3</title>
<g id="a_node4"><a xlink:href="classedspSystem.xhtml" target="_top" xlink:title=" ">
<polygon fill="white" stroke="black" points="239,-38.5 239,-57.5 316,-57.5 316,-38.5 239,-38.5"/>
<text text-anchor="middle" x="277.5" y="-45.5" font-family="Helvetica,sans-Serif" font-size="10.00">edspSystem</text>
</a>
</g>
</g>
<!-- Node2&#45;&gt;Node3 -->
<g id="edge3" class="edge">
<title>Node2&#45;&gt;Node3</title>
<path fill="none" stroke="midnightblue" d="M213.3,-38.04C221.91,-39.39 230.6,-40.76 238.66,-42.03"/>
<polygon fill="midnightblue" stroke="midnightblue" points="213.7,-34.56 203.28,-36.45 212.61,-41.47 213.7,-34.56"/>
</g>
<!-- Node4 -->
<g id="node5" class="node">
<title>Node4</title>
<g id="a_node5"><a xlink:href="classeippSystem.xhtml" target="_top" xlink:title=" ">
<polygon fill="white" stroke="black" points="240.5,-0.5 240.5,-19.5 314.5,-19.5 314.5,-0.5 240.5,-0.5"/>
<text text-anchor="middle" x="277.5" y="-7.5" font-family="Helvetica,sans-Serif" font-size="10.00">eippSystem</text>
</a>
</g>
</g>
<!-- Node2&#45;&gt;Node4 -->
<g id="edge4" class="edge">
<title>Node2&#45;&gt;Node4</title>
<path fill="none" stroke="midnightblue" d="M213.17,-19.99C222.36,-18.54 231.64,-17.07 240.16,-15.73"/>
<polygon fill="midnightblue" stroke="midnightblue" points="212.61,-16.53 203.28,-21.55 213.7,-23.44 212.61,-16.53"/>
</g>
</g>
</svg>
