<svg xmlns="http://www.w3.org/2000/svg" xmlns:xlink="http://www.w3.org/1999/xlink" width="677pt" height="140pt" viewBox="0 0 677 140"><g id="graph0" class="graph" transform="scale(1 1) rotate(0) translate(4 136)"><title>apt-pkg/pkgcache.h</title><polygon fill="#fff" stroke="transparent" points="-4 4 -4 -136 673 -136 673 4 -4 4"/><g id="node1" class="node"><title>Node1</title><g id="a_node1"><a xlink:title="pkgCache - Structure definitions for the cache file"><polygon fill="#bfbfbf" stroke="#000" points="286.5 -112.5 286.5 -131.5 399.5 -131.5 399.5 -112.5 286.5 -112.5"/><text x="343" y="-119.5" font-family="Helvetica,sans-Serif" font-size="10" text-anchor="middle">apt-pkg/pkgcache.h</text></a></g></g><g id="node2" class="node"><title>Node2</title><g id="a_node2"><a><polygon fill="#fff" stroke="#bfbfbf" points="0 -.5 0 -19.5 102 -19.5 102 -.5 0 -.5"/><text x="51" y="-7.5" font-family="Helvetica,sans-Serif" font-size="10" text-anchor="middle">apt-pkg/macros.h</text></a></g></g><g id="edge1" class="edge"><title>Node1-&gt;Node2</title><path fill="none" stroke="#191970" d="M294.67,-112.47C258.22,-105.16 207.43,-93.09 165,-76 130.79,-62.22 94.26,-39.88 72.03,-25.31"/><polygon fill="#191970" stroke="#191970" points="73.69 -22.21 63.42 -19.59 69.81 -28.04 73.69 -22.21"/></g><g id="node3" class="node"><title>Node3</title><g id="a_node3"><a><polygon fill="#fff" stroke="#bfbfbf" points="362 -56.5 362 -75.5 460 -75.5 460 -56.5 362 -56.5"/><text x="411" y="-63.5" font-family="Helvetica,sans-Serif" font-size="10" text-anchor="middle">apt-pkg/mmap.h</text></a></g></g><g id="edge2" class="edge"><title>Node1-&gt;Node3</title><path fill="none" stroke="#191970" d="M353.93,-112.32C364.17,-104.18 379.72,-91.84 392,-82.09"/><polygon fill="#191970" stroke="#191970" points="394.22 -84.79 399.88 -75.83 389.87 -79.31 394.22 -84.79"/></g><g id="node4" class="node"><title>Node4</title><g id="a_node4"><a><polygon fill="#fff" stroke="#bfbfbf" points="478.5 -56.5 478.5 -75.5 531.5 -75.5 531.5 -56.5 478.5 -56.5"/><text x="505" y="-63.5" font-family="Helvetica,sans-Serif" font-size="10" text-anchor="middle">cstddef</text></a></g></g><g id="edge3" class="edge"><title>Node1-&gt;Node4</title><path fill="none" stroke="#191970" d="M368.67,-112.44C395.92,-103.36 439.18,-88.94 469.65,-78.78"/><polygon fill="#191970" stroke="#191970" points="471.07 -82 479.45 -75.52 468.86 -75.36 471.07 -82"/></g><g id="node5" class="node"><title>Node5</title><g id="a_node5"><a><polygon fill="#fff" stroke="#bfbfbf" points="120 -.5 120 -19.5 164 -19.5 164 -.5 120 -.5"/><text x="142" y="-7.5" font-family="Helvetica,sans-Serif" font-size="10" text-anchor="middle">string</text></a></g></g><g id="edge4" class="edge"><title>Node1-&gt;Node5</title><path fill="none" stroke="#191970" d="M286.46,-113.37C255.8,-107.12 218.47,-95.92 190,-76 172.63,-63.85 159.04,-43.39 150.82,-28.67"/><polygon fill="#191970" stroke="#191970" points="153.78 -26.77 146.01 -19.57 147.59 -30.04 153.78 -26.77"/></g><g id="node6" class="node"><title>Node6</title><g id="a_node6"><a><polygon fill="#fff" stroke="#bfbfbf" points="549.5 -56.5 549.5 -75.5 602.5 -75.5 602.5 -56.5 549.5 -56.5"/><text x="576" y="-63.5" font-family="Helvetica,sans-Serif" font-size="10" text-anchor="middle">stdint.h</text></a></g></g><g id="edge5" class="edge"><title>Node1-&gt;Node6</title><path fill="none" stroke="#191970" d="M382.15,-112.44C420.04,-104.09 479.34,-90.81 539.26,-76.38"/><polygon fill="#191970" stroke="#191970" points="540.37 -79.71 549.27 -73.96 538.72 -72.91 540.37 -79.71"/></g><g id="node7" class="node"><title>Node7</title><g id="a_node7"><a><polygon fill="#fff" stroke="#bfbfbf" points="621 -56.5 621 -75.5 669 -75.5 669 -56.5 621 -56.5"/><text x="645" y="-63.5" font-family="Helvetica,sans-Serif" font-size="10" text-anchor="middle">time.h</text></a></g></g><g id="edge6" class="edge"><title>Node1-&gt;Node7</title><path fill="none" stroke="#191970" d="M399.73,-113.2C452.15,-105.62 532.36,-93.04 610.86,-76.07"/><polygon fill="#191970" stroke="#191970" points="611.9 -79.43 620.92 -73.87 610.4 -72.59 611.9 -79.43"/></g><g id="node8" class="node"><title>Node8</title><g id="a_node8"><a><polygon fill="#fff" stroke="#bfbfbf" points="182 -.5 182 -19.5 304 -19.5 304 -.5 182 -.5"/><text x="243" y="-7.5" font-family="Helvetica,sans-Serif" font-size="10" text-anchor="middle">apt-pkg/string_view.h</text></a></g></g><g id="edge7" class="edge"><title>Node1-&gt;Node8</title><path fill="none" stroke="#191970" d="M286.26,-118.81C255.14,-114.35 218.94,-103.12 199,-76 186.63,-59.17 204.85,-39.19 221.46,-25.87"/><polygon fill="#191970" stroke="#191970" points="223.95 -28.37 229.83 -19.56 219.73 -22.78 223.95 -28.37"/></g><g id="node9" class="node"><title>Node9</title><g id="a_node9"><a target="_top" xlink:href="cacheiterators_8h_source.xhtml"><polygon fill="#fff" stroke="#000" points="208 -56.5 208 -75.5 344 -75.5 344 -56.5 208 -56.5"/><text x="276" y="-63.5" font-family="Helvetica,sans-Serif" font-size="10" text-anchor="middle">apt-pkg/cacheiterators.h</text></a></g></g><g id="edge8" class="edge"><title>Node1-&gt;Node9</title><path fill="none" stroke="#191970" d="M332.24,-112.32C322.23,-104.26 307.11,-92.08 295.07,-82.37"/><polygon fill="#191970" stroke="#191970" points="296.94 -79.38 286.96 -75.83 292.55 -84.83 296.94 -79.38"/></g><g id="edge9" class="edge"><title>Node9-&gt;Node2</title><path fill="none" stroke="#191970" d="M240.35,-56.44C201.34,-47.08 138.73,-32.06 96.28,-21.87"/><polygon fill="#191970" stroke="#191970" points="97.03 -18.45 86.49 -19.52 95.39 -25.25 97.03 -18.45"/></g><g id="edge12" class="edge"><title>Node9-&gt;Node5</title><path fill="none" stroke="#191970" d="M254.77,-56.44C232.62,-47.52 197.68,-33.44 172.56,-23.32"/><polygon fill="#191970" stroke="#191970" points="173.72 -20.01 163.13 -19.52 171.1 -26.5 173.72 -20.01"/></g><g id="edge13" class="edge"><title>Node9-&gt;Node8</title><path fill="none" stroke="#191970" d="M270.55,-56.08C265.99,-48.61 259.33,-37.72 253.71,-28.52"/><polygon fill="#191970" stroke="#191970" points="256.55 -26.46 248.35 -19.75 250.58 -30.11 256.55 -26.46"/></g><g id="node10" class="node"><title>Node10</title><g id="a_node10"><a><polygon fill="#fff" stroke="#bfbfbf" points="322 -.5 322 -19.5 370 -19.5 370 -.5 322 -.5"/><text x="346" y="-7.5" font-family="Helvetica,sans-Serif" font-size="10" text-anchor="middle">iosfwd</text></a></g></g><g id="edge10" class="edge"><title>Node9-&gt;Node10</title><path fill="none" stroke="#191970" d="M287.25,-56.32C297.8,-48.18 313.8,-35.84 326.44,-26.09"/><polygon fill="#191970" stroke="#191970" points="328.77 -28.71 334.55 -19.83 324.49 -23.17 328.77 -28.71"/></g><g id="node11" class="node"><title>Node11</title><g id="a_node11"><a><polygon fill="#fff" stroke="#bfbfbf" points="388.5 -.5 388.5 -19.5 441.5 -19.5 441.5 -.5 388.5 -.5"/><text x="415" y="-7.5" font-family="Helvetica,sans-Serif" font-size="10" text-anchor="middle">iterator</text></a></g></g><g id="edge11" class="edge"><title>Node9-&gt;Node11</title><path fill="none" stroke="#191970" d="M298.02,-56.44C321.1,-47.48 357.56,-33.31 383.64,-23.18"/><polygon fill="#191970" stroke="#191970" points="385.02 -26.4 393.08 -19.52 382.49 -19.88 385.02 -26.4"/></g><g id="node12" class="node"><title>Node12</title><g id="a_node12"><a><polygon fill="#fff" stroke="#bfbfbf" points="459.5 -.5 459.5 -19.5 512.5 -19.5 512.5 -.5 459.5 -.5"/><text x="486" y="-7.5" font-family="Helvetica,sans-Serif" font-size="10" text-anchor="middle">string.h</text></a></g></g><g id="edge14" class="edge"><title>Node9-&gt;Node12</title><path fill="none" stroke="#191970" d="M309.28,-56.44C347.47,-46.62 409.92,-30.56 449.44,-20.4"/><polygon fill="#191970" stroke="#191970" points="450.4 -23.77 459.21 -17.89 448.65 -16.99 450.4 -23.77"/></g></g></svg>