<?xml version="1.0" encoding="UTF-8" standalone="no"?>
<!DOCTYPE svg PUBLIC "-//W3C//DTD SVG 1.1//EN"
 "http://www.w3.org/Graphics/SVG/1.1/DTD/svg11.dtd">
<!-- Generated by graphviz version 2.43.0 (0)
 -->
<!-- Title: apt&#45;pkg/pkgcache.h Pages: 1 -->
<svg width="2222pt" height="263pt"
 viewBox="0.00 0.00 2221.50 263.00" xmlns="http://www.w3.org/2000/svg" xmlns:xlink="http://www.w3.org/1999/xlink">
<g id="graph0" class="graph" transform="scale(1 1) rotate(0) translate(4 259)">
<title>apt&#45;pkg/pkgcache.h</title>
<polygon fill="white" stroke="transparent" points="-4,4 -4,-259 2217.5,-259 2217.5,4 -4,4"/>
<!-- Node1 -->
<g id="node1" class="node">
<title>Node1</title>
<g id="a_node1"><a xlink:title="pkgCache &#45; Structure definitions for the cache file">
<polygon fill="#bfbfbf" stroke="black" points="930.5,-235.5 930.5,-254.5 1043.5,-254.5 1043.5,-235.5 930.5,-235.5"/>
<text text-anchor="middle" x="987" y="-242.5" font-family="Helvetica,sans-Serif" font-size="10.00">apt&#45;pkg/pkgcache.h</text>
</a>
</g>
</g>
<!-- Node2 -->
<g id="node2" class="node">
<title>Node2</title>
<g id="a_node2"><a xlink:href="acquire-item_8h.xhtml" target="_top" xlink:title=" ">
<polygon fill="white" stroke="black" points="0,-62 0,-81 128,-81 128,-62 0,-62"/>
<text text-anchor="middle" x="64" y="-69" font-family="Helvetica,sans-Serif" font-size="10.00">apt&#45;pkg/acquire&#45;item.h</text>
</a>
</g>
</g>
<!-- Node1&#45;&gt;Node2 -->
<g id="edge1" class="edge">
<title>Node1&#45;&gt;Node2</title>
<path fill="none" stroke="midnightblue" d="M920.3,-244.66C755.48,-245.56 332.7,-243.35 200,-199 157.44,-184.78 148.47,-173.96 116,-143 95.53,-123.48 77.35,-95.11 68.95,-81.05"/>
<polygon fill="midnightblue" stroke="midnightblue" points="920.33,-248.16 930.31,-244.59 920.29,-241.16 920.33,-248.16"/>
</g>
<!-- Node3 -->
<g id="node3" class="node">
<title>Node3</title>
<g id="a_node3"><a xlink:href="algorithms_8h_source.xhtml" target="_top" xlink:title=" ">
<polygon fill="white" stroke="black" points="586.5,-0.5 586.5,-19.5 705.5,-19.5 705.5,-0.5 586.5,-0.5"/>
<text text-anchor="middle" x="646" y="-7.5" font-family="Helvetica,sans-Serif" font-size="10.00">apt&#45;pkg/algorithms.h</text>
</a>
</g>
</g>
<!-- Node1&#45;&gt;Node3 -->
<g id="edge2" class="edge">
<title>Node1&#45;&gt;Node3</title>
<path fill="none" stroke="midnightblue" d="M920.43,-242.21C793.16,-237.1 523.87,-217.51 478,-143 440.18,-81.56 556.81,-37.28 615.02,-19.56"/>
<polygon fill="midnightblue" stroke="midnightblue" points="920.32,-245.71 930.45,-242.6 920.59,-238.71 920.32,-245.71"/>
</g>
<!-- Node4 -->
<g id="node4" class="node">
<title>Node4</title>
<g id="a_node4"><a xlink:href="cachefile_8h_source.xhtml" target="_top" xlink:title=" ">
<polygon fill="white" stroke="black" points="621,-123.5 621,-142.5 731,-142.5 731,-123.5 621,-123.5"/>
<text text-anchor="middle" x="676" y="-130.5" font-family="Helvetica,sans-Serif" font-size="10.00">apt&#45;pkg/cachefile.h</text>
</a>
</g>
</g>
<!-- Node1&#45;&gt;Node4 -->
<g id="edge3" class="edge">
<title>Node1&#45;&gt;Node4</title>
<path fill="none" stroke="midnightblue" d="M920.33,-240.24C822.8,-234.05 650.72,-220.24 632,-199 615.69,-180.5 644.44,-155.66 662.68,-142.7"/>
<polygon fill="midnightblue" stroke="midnightblue" points="920.19,-243.74 930.39,-240.87 920.63,-236.75 920.19,-243.74"/>
</g>
<!-- Node6 -->
<g id="node6" class="node">
<title>Node6</title>
<g id="a_node6"><a xlink:href="cachefilter_8h.xhtml" target="_top" xlink:title=" ">
<polygon fill="white" stroke="black" points="487,-123.5 487,-142.5 603,-142.5 603,-123.5 487,-123.5"/>
<text text-anchor="middle" x="545" y="-130.5" font-family="Helvetica,sans-Serif" font-size="10.00">apt&#45;pkg/cachefilter.h</text>
</a>
</g>
</g>
<!-- Node1&#45;&gt;Node6 -->
<g id="edge5" class="edge">
<title>Node1&#45;&gt;Node6</title>
<path fill="none" stroke="midnightblue" d="M920.37,-240.19C830.53,-234.3 675.82,-221.27 624,-199 593.32,-185.82 565.1,-156.94 552.27,-142.53"/>
<polygon fill="midnightblue" stroke="midnightblue" points="920.26,-243.69 930.46,-240.84 920.71,-236.71 920.26,-243.69"/>
</g>
<!-- Node7 -->
<g id="node7" class="node">
<title>Node7</title>
<g id="a_node7"><a xlink:href="cacheset_8h.xhtml" target="_top" xlink:title=" ">
<polygon fill="white" stroke="black" points="849,-179.5 849,-198.5 959,-198.5 959,-179.5 849,-179.5"/>
<text text-anchor="middle" x="904" y="-186.5" font-family="Helvetica,sans-Serif" font-size="10.00">apt&#45;pkg/cacheset.h</text>
</a>
</g>
</g>
<!-- Node1&#45;&gt;Node7 -->
<g id="edge8" class="edge">
<title>Node1&#45;&gt;Node7</title>
<path fill="none" stroke="midnightblue" d="M964.9,-229.62C949.74,-219.76 930.12,-206.99 917.3,-198.65"/>
<polygon fill="midnightblue" stroke="midnightblue" points="963.37,-232.8 973.66,-235.32 967.19,-226.94 963.37,-232.8"/>
</g>
<!-- Node8 -->
<g id="node8" class="node">
<title>Node8</title>
<g id="a_node8"><a xlink:href="edsp_8h.xhtml" target="_top" xlink:title=" ">
<polygon fill="white" stroke="black" points="825.5,-123.5 825.5,-142.5 914.5,-142.5 914.5,-123.5 825.5,-123.5"/>
<text text-anchor="middle" x="870" y="-130.5" font-family="Helvetica,sans-Serif" font-size="10.00">apt&#45;pkg/edsp.h</text>
</a>
</g>
</g>
<!-- Node1&#45;&gt;Node8 -->
<g id="edge25" class="edge">
<title>Node1&#45;&gt;Node8</title>
<path fill="none" stroke="midnightblue" d="M920.32,-240.78C890.76,-235.62 858.54,-224.06 840,-199 826.55,-180.81 847.39,-155.63 860.56,-142.6"/>
<polygon fill="midnightblue" stroke="midnightblue" points="919.8,-244.25 930.22,-242.3 920.86,-237.33 919.8,-244.25"/>
</g>
<!-- Node9 -->
<g id="node9" class="node">
<title>Node9</title>
<g id="a_node9"><a xlink:href="packagemanager_8h_source.xhtml" target="_top" xlink:title=" ">
<polygon fill="white" stroke="black" points="790.5,-62 790.5,-81 939.5,-81 939.5,-62 790.5,-62"/>
<text text-anchor="middle" x="865" y="-69" font-family="Helvetica,sans-Serif" font-size="10.00">apt&#45;pkg/packagemanager.h</text>
</a>
</g>
</g>
<!-- Node1&#45;&gt;Node9 -->
<g id="edge32" class="edge">
<title>Node1&#45;&gt;Node9</title>
<path fill="none" stroke="midnightblue" d="M920.19,-239.19C889.64,-233.68 855.18,-222.28 832,-199 807.64,-174.54 803.03,-154.99 816,-123 823.25,-105.11 840.22,-90.07 852.14,-81.17"/>
<polygon fill="midnightblue" stroke="midnightblue" points="919.94,-242.69 930.37,-240.84 921.06,-235.78 919.94,-242.69"/>
</g>
<!-- Node10 -->
<g id="node10" class="node">
<title>Node10</title>
<g id="a_node10"><a xlink:href="dpkgpm_8h_source.xhtml" target="_top" xlink:title=" ">
<polygon fill="white" stroke="black" points="976.5,-0.5 976.5,-19.5 1103.5,-19.5 1103.5,-0.5 976.5,-0.5"/>
<text text-anchor="middle" x="1040" y="-7.5" font-family="Helvetica,sans-Serif" font-size="10.00">apt&#45;pkg/deb/dpkgpm.h</text>
</a>
</g>
</g>
<!-- Node1&#45;&gt;Node10 -->
<g id="edge18" class="edge">
<title>Node1&#45;&gt;Node10</title>
<path fill="none" stroke="midnightblue" d="M1054.02,-235.58C1100.69,-228.34 1157.42,-216.29 1174,-199 1197.62,-174.36 1200.05,-153.63 1185,-123 1158.85,-69.75 1093.84,-34.65 1060.48,-19.51"/>
<polygon fill="midnightblue" stroke="midnightblue" points="1053.3,-232.15 1043.93,-237.1 1054.34,-239.07 1053.3,-232.15"/>
</g>
<!-- Node11 -->
<g id="node11" class="node">
<title>Node11</title>
<g id="a_node11"><a xlink:href="statechanges_8h_source.xhtml" target="_top" xlink:title=" ">
<polygon fill="white" stroke="black" points="932.5,-123.5 932.5,-142.5 1063.5,-142.5 1063.5,-123.5 932.5,-123.5"/>
<text text-anchor="middle" x="998" y="-130.5" font-family="Helvetica,sans-Serif" font-size="10.00">apt&#45;pkg/statechanges.h</text>
</a>
</g>
</g>
<!-- Node1&#45;&gt;Node11 -->
<g id="edge44" class="edge">
<title>Node1&#45;&gt;Node11</title>
<path fill="none" stroke="midnightblue" d="M988.87,-225.35C991.27,-201.25 995.37,-160.31 997.14,-142.59"/>
<polygon fill="midnightblue" stroke="midnightblue" points="985.38,-225.07 987.86,-235.37 992.34,-225.77 985.38,-225.07"/>
</g>
<!-- Node12 -->
<g id="node12" class="node">
<title>Node12</title>
<g id="a_node12"><a xlink:href="debindexfile_8h_source.xhtml" target="_top" xlink:title=" ">
<polygon fill="white" stroke="black" points="283.5,-62 283.5,-81 430.5,-81 430.5,-62 283.5,-62"/>
<text text-anchor="middle" x="357" y="-69" font-family="Helvetica,sans-Serif" font-size="10.00">apt&#45;pkg/deb/debindexfile.h</text>
</a>
</g>
</g>
<!-- Node1&#45;&gt;Node12 -->
<g id="edge14" class="edge">
<title>Node1&#45;&gt;Node12</title>
<path fill="none" stroke="midnightblue" d="M919.9,-241.89C783.68,-237.1 484.26,-223.86 445,-199 412.02,-178.12 423.7,-154.75 401,-123 389.77,-107.3 374.6,-90.73 365.33,-81.01"/>
<polygon fill="midnightblue" stroke="midnightblue" points="920.09,-245.39 930.2,-242.24 920.33,-238.4 920.09,-245.39"/>
</g>
<!-- Node13 -->
<g id="node13" class="node">
<title>Node13</title>
<g id="a_node13"><a xlink:href="deblistparser_8h_source.xhtml" target="_top" xlink:title=" ">
<polygon fill="white" stroke="black" points="1243,-123.5 1243,-142.5 1393,-142.5 1393,-123.5 1243,-123.5"/>
<text text-anchor="middle" x="1318" y="-130.5" font-family="Helvetica,sans-Serif" font-size="10.00">apt&#45;pkg/deb/deblistparser.h</text>
</a>
</g>
</g>
<!-- Node1&#45;&gt;Node13 -->
<g id="edge15" class="edge">
<title>Node1&#45;&gt;Node13</title>
<path fill="none" stroke="midnightblue" d="M1053.57,-241.19C1160.68,-235.98 1361.49,-223.09 1383,-199 1401.92,-177.81 1363.1,-154.66 1337.69,-142.52"/>
<polygon fill="midnightblue" stroke="midnightblue" points="1053.33,-237.7 1043.51,-241.67 1053.66,-244.69 1053.33,-237.7"/>
</g>
<!-- Node14 -->
<g id="node14" class="node">
<title>Node14</title>
<g id="a_node14"><a xlink:href="debrecords_8h_source.xhtml" target="_top" xlink:title=" ">
<polygon fill="white" stroke="black" points="251.5,-123.5 251.5,-142.5 392.5,-142.5 392.5,-123.5 251.5,-123.5"/>
<text text-anchor="middle" x="322" y="-130.5" font-family="Helvetica,sans-Serif" font-size="10.00">apt&#45;pkg/deb/debrecords.h</text>
</a>
</g>
</g>
<!-- Node1&#45;&gt;Node14 -->
<g id="edge16" class="edge">
<title>Node1&#45;&gt;Node14</title>
<path fill="none" stroke="midnightblue" d="M920,-243.55C787.99,-241.88 499.08,-234.2 407,-199 374.38,-186.53 343.83,-157.32 329.9,-142.68"/>
<polygon fill="midnightblue" stroke="midnightblue" points="920.33,-247.05 930.37,-243.67 920.42,-240.05 920.33,-247.05"/>
</g>
<!-- Node15 -->
<g id="node15" class="node">
<title>Node15</title>
<g id="a_node15"><a xlink:href="debsystem_8h_source.xhtml" target="_top" xlink:title=" ">
<polygon fill="white" stroke="black" points="1411.5,-123.5 1411.5,-142.5 1552.5,-142.5 1552.5,-123.5 1411.5,-123.5"/>
<text text-anchor="middle" x="1482" y="-130.5" font-family="Helvetica,sans-Serif" font-size="10.00">apt&#45;pkg/deb/debsystem.h</text>
</a>
</g>
</g>
<!-- Node1&#45;&gt;Node15 -->
<g id="edge17" class="edge">
<title>Node1&#45;&gt;Node15</title>
<path fill="none" stroke="midnightblue" d="M1053.76,-241.22C1154.2,-236.28 1338.96,-224.05 1400,-199 1431.6,-186.03 1461.01,-157.06 1474.4,-142.58"/>
<polygon fill="midnightblue" stroke="midnightblue" points="1053.54,-237.72 1043.71,-241.7 1053.87,-244.72 1053.54,-237.72"/>
</g>
<!-- Node16 -->
<g id="node16" class="node">
<title>Node16</title>
<g id="a_node16"><a xlink:href="depcache_8h_source.xhtml" target="_top" xlink:title=" ">
<polygon fill="white" stroke="black" points="641.5,-179.5 641.5,-198.5 754.5,-198.5 754.5,-179.5 641.5,-179.5"/>
<text text-anchor="middle" x="698" y="-186.5" font-family="Helvetica,sans-Serif" font-size="10.00">apt&#45;pkg/depcache.h</text>
</a>
</g>
</g>
<!-- Node1&#45;&gt;Node16 -->
<g id="edge19" class="edge">
<title>Node1&#45;&gt;Node16</title>
<path fill="none" stroke="midnightblue" d="M931.34,-233.6C876.73,-223.4 794.43,-208.02 743.58,-198.52"/>
<polygon fill="midnightblue" stroke="midnightblue" points="930.73,-237.05 941.21,-235.44 932.02,-230.17 930.73,-237.05"/>
</g>
<!-- Node17 -->
<g id="node17" class="node">
<title>Node17</title>
<g id="a_node17"><a xlink:href="policy_8h_source.xhtml" target="_top" xlink:title=" ">
<polygon fill="white" stroke="black" points="1082,-123.5 1082,-142.5 1176,-142.5 1176,-123.5 1082,-123.5"/>
<text text-anchor="middle" x="1129" y="-130.5" font-family="Helvetica,sans-Serif" font-size="10.00">apt&#45;pkg/policy.h</text>
</a>
</g>
</g>
<!-- Node1&#45;&gt;Node17 -->
<g id="edge41" class="edge">
<title>Node1&#45;&gt;Node17</title>
<path fill="none" stroke="midnightblue" d="M1053.5,-234.84C1095.47,-227.53 1144.11,-215.74 1157,-199 1170.64,-181.28 1150.73,-155.9 1138.09,-142.71"/>
<polygon fill="midnightblue" stroke="midnightblue" points="1052.84,-231.4 1043.56,-236.51 1054,-238.3 1052.84,-231.4"/>
</g>
<!-- Node18 -->
<g id="node18" class="node">
<title>Node18</title>
<g id="a_node18"><a xlink:href="edsplistparser_8h_source.xhtml" target="_top" xlink:title=" ">
<polygon fill="white" stroke="black" points="1645.5,-179.5 1645.5,-198.5 1806.5,-198.5 1806.5,-179.5 1645.5,-179.5"/>
<text text-anchor="middle" x="1726" y="-186.5" font-family="Helvetica,sans-Serif" font-size="10.00">apt&#45;pkg/edsp/edsplistparser.h</text>
</a>
</g>
</g>
<!-- Node1&#45;&gt;Node18 -->
<g id="edge23" class="edge">
<title>Node1&#45;&gt;Node18</title>
<path fill="none" stroke="midnightblue" d="M1054.13,-239.86C1171.29,-232.5 1420.65,-216.31 1631,-199 1635.71,-198.61 1640.54,-198.2 1645.42,-197.77"/>
<polygon fill="midnightblue" stroke="midnightblue" points="1053.65,-236.38 1043.89,-240.5 1054.09,-243.37 1053.65,-236.38"/>
</g>
<!-- Node19 -->
<g id="node19" class="node">
<title>Node19</title>
<g id="a_node19"><a xlink:href="edspsystem_8h_source.xhtml" target="_top" xlink:title=" ">
<polygon fill="white" stroke="black" points="1571,-123.5 1571,-142.5 1723,-142.5 1723,-123.5 1571,-123.5"/>
<text text-anchor="middle" x="1647" y="-130.5" font-family="Helvetica,sans-Serif" font-size="10.00">apt&#45;pkg/edsp/edspsystem.h</text>
</a>
</g>
</g>
<!-- Node1&#45;&gt;Node19 -->
<g id="edge24" class="edge">
<title>Node1&#45;&gt;Node19</title>
<path fill="none" stroke="midnightblue" d="M1053.96,-242.17C1202.7,-237.68 1551.18,-224.53 1598,-199 1621.33,-186.28 1636.82,-157.19 1643.4,-142.63"/>
<polygon fill="midnightblue" stroke="midnightblue" points="1053.5,-238.69 1043.61,-242.48 1053.71,-245.68 1053.5,-238.69"/>
</g>
<!-- Node20 -->
<g id="node20" class="node">
<title>Node20</title>
<g id="a_node20"><a xlink:href="indexfile_8h_source.xhtml" target="_top" xlink:title=" ">
<polygon fill="white" stroke="black" points="125,-123.5 125,-142.5 233,-142.5 233,-123.5 125,-123.5"/>
<text text-anchor="middle" x="179" y="-130.5" font-family="Helvetica,sans-Serif" font-size="10.00">apt&#45;pkg/indexfile.h</text>
</a>
</g>
</g>
<!-- Node1&#45;&gt;Node20 -->
<g id="edge26" class="edge">
<title>Node1&#45;&gt;Node20</title>
<path fill="none" stroke="midnightblue" d="M920.33,-243.3C746.01,-241.03 286.01,-231.93 226,-199 203.05,-186.4 188.46,-157.25 182.33,-142.66"/>
<polygon fill="midnightblue" stroke="midnightblue" points="920.35,-246.8 930.4,-243.43 920.44,-239.8 920.35,-246.8"/>
</g>
<!-- Node23 -->
<g id="node23" class="node">
<title>Node23</title>
<g id="a_node23"><a xlink:href="orderlist_8h_source.xhtml" target="_top" xlink:title=" ">
<polygon fill="white" stroke="black" points="1824.5,-179.5 1824.5,-198.5 1931.5,-198.5 1931.5,-179.5 1824.5,-179.5"/>
<text text-anchor="middle" x="1878" y="-186.5" font-family="Helvetica,sans-Serif" font-size="10.00">apt&#45;pkg/orderlist.h</text>
</a>
</g>
</g>
<!-- Node1&#45;&gt;Node23 -->
<g id="edge31" class="edge">
<title>Node1&#45;&gt;Node23</title>
<path fill="none" stroke="midnightblue" d="M1053.89,-242.41C1195.03,-238.6 1533.53,-227.11 1816,-199 1818.71,-198.73 1821.47,-198.43 1824.27,-198.1"/>
<polygon fill="midnightblue" stroke="midnightblue" points="1053.58,-238.92 1043.67,-242.68 1053.76,-245.91 1053.58,-238.92"/>
</g>
<!-- Node24 -->
<g id="node24" class="node">
<title>Node24</title>
<g id="a_node24"><a xlink:href="pkgcachegen_8h_source.xhtml" target="_top" xlink:title=" ">
<polygon fill="white" stroke="black" points="1243.5,-179.5 1243.5,-198.5 1374.5,-198.5 1374.5,-179.5 1243.5,-179.5"/>
<text text-anchor="middle" x="1309" y="-186.5" font-family="Helvetica,sans-Serif" font-size="10.00">apt&#45;pkg/pkgcachegen.h</text>
</a>
</g>
</g>
<!-- Node1&#45;&gt;Node24 -->
<g id="edge33" class="edge">
<title>Node1&#45;&gt;Node24</title>
<path fill="none" stroke="midnightblue" d="M1048.25,-233.73C1109.1,-223.52 1201.32,-208.06 1258.22,-198.52"/>
<polygon fill="midnightblue" stroke="midnightblue" points="1047.31,-230.34 1038.02,-235.44 1048.46,-237.24 1047.31,-230.34"/>
</g>
<!-- Node25 -->
<g id="node25" class="node">
<title>Node25</title>
<g id="a_node25"><a xlink:href="pkgrecords_8h_source.xhtml" target="_top" xlink:title=" ">
<polygon fill="white" stroke="black" points="235,-179.5 235,-198.5 355,-198.5 355,-179.5 235,-179.5"/>
<text text-anchor="middle" x="295" y="-186.5" font-family="Helvetica,sans-Serif" font-size="10.00">apt&#45;pkg/pkgrecords.h</text>
</a>
</g>
</g>
<!-- Node1&#45;&gt;Node25 -->
<g id="edge35" class="edge">
<title>Node1&#45;&gt;Node25</title>
<path fill="none" stroke="midnightblue" d="M920,-240.19C806.47,-233.48 569.13,-218.45 369,-199 364.49,-198.56 359.83,-198.08 355.15,-197.56"/>
<polygon fill="midnightblue" stroke="midnightblue" points="920.07,-243.7 930.26,-240.79 920.48,-236.71 920.07,-243.7"/>
</g>
<!-- Node26 -->
<g id="node26" class="node">
<title>Node26</title>
<g id="a_node26"><a xlink:href="pkgsystem_8h_source.xhtml" target="_top" xlink:title=" ">
<polygon fill="white" stroke="black" points="1469,-179.5 1469,-198.5 1589,-198.5 1589,-179.5 1469,-179.5"/>
<text text-anchor="middle" x="1529" y="-186.5" font-family="Helvetica,sans-Serif" font-size="10.00">apt&#45;pkg/pkgsystem.h</text>
</a>
</g>
</g>
<!-- Node1&#45;&gt;Node26 -->
<g id="edge38" class="edge">
<title>Node1&#45;&gt;Node26</title>
<path fill="none" stroke="midnightblue" d="M1053.75,-238.11C1144.6,-229.98 1312.21,-214.55 1455,-199 1459.5,-198.51 1464.16,-197.99 1468.84,-197.45"/>
<polygon fill="midnightblue" stroke="midnightblue" points="1053.25,-234.64 1043.6,-239.02 1053.87,-241.62 1053.25,-234.64"/>
</g>
<!-- Node27 -->
<g id="node27" class="node">
<title>Node27</title>
<g id="a_node27"><a xlink:href="prettyprinters_8h_source.xhtml" target="_top" xlink:title=" ">
<polygon fill="white" stroke="black" points="1949.5,-179.5 1949.5,-198.5 2082.5,-198.5 2082.5,-179.5 1949.5,-179.5"/>
<text text-anchor="middle" x="2016" y="-186.5" font-family="Helvetica,sans-Serif" font-size="10.00">apt&#45;pkg/prettyprinters.h</text>
</a>
</g>
</g>
<!-- Node1&#45;&gt;Node27 -->
<g id="edge42" class="edge">
<title>Node1&#45;&gt;Node27</title>
<path fill="none" stroke="midnightblue" d="M1053.89,-242.51C1209.67,-238.67 1608.67,-226.74 1941,-199 1943.74,-198.77 1946.54,-198.52 1949.37,-198.25"/>
<polygon fill="midnightblue" stroke="midnightblue" points="1053.46,-239.02 1043.54,-242.76 1053.63,-246.02 1053.46,-239.02"/>
</g>
<!-- Node28 -->
<g id="node28" class="node">
<title>Node28</title>
<g id="a_node28"><a xlink:href="sourcelist_8h_source.xhtml" target="_top" xlink:title=" ">
<polygon fill="white" stroke="black" points="2100.5,-179.5 2100.5,-198.5 2213.5,-198.5 2213.5,-179.5 2100.5,-179.5"/>
<text text-anchor="middle" x="2157" y="-186.5" font-family="Helvetica,sans-Serif" font-size="10.00">apt&#45;pkg/sourcelist.h</text>
</a>
</g>
</g>
<!-- Node1&#45;&gt;Node28 -->
<g id="edge43" class="edge">
<title>Node1&#45;&gt;Node28</title>
<path fill="none" stroke="midnightblue" d="M1053.95,-243.53C1226.37,-241.83 1699.61,-234.07 2092,-199 2094.72,-198.76 2097.51,-198.48 2100.32,-198.18"/>
<polygon fill="midnightblue" stroke="midnightblue" points="1053.73,-240.03 1043.77,-243.63 1053.8,-247.03 1053.73,-240.03"/>
</g>
<!-- Node29 -->
<g id="node29" class="node">
<title>Node29</title>
<g id="a_node29"><a xlink:href="versionmatch_8h_source.xhtml" target="_top" xlink:title=" ">
<polygon fill="white" stroke="black" points="1015.5,-179.5 1015.5,-198.5 1148.5,-198.5 1148.5,-179.5 1015.5,-179.5"/>
<text text-anchor="middle" x="1082" y="-186.5" font-family="Helvetica,sans-Serif" font-size="10.00">apt&#45;pkg/versionmatch.h</text>
</a>
</g>
</g>
<!-- Node1&#45;&gt;Node29 -->
<g id="edge45" class="edge">
<title>Node1&#45;&gt;Node29</title>
<path fill="none" stroke="midnightblue" d="M1011.32,-230.18C1028.8,-220.24 1051.83,-207.15 1066.77,-198.65"/>
<polygon fill="midnightblue" stroke="midnightblue" points="1009.23,-227.34 1002.26,-235.32 1012.69,-233.43 1009.23,-227.34"/>
</g>
<!-- Node5 -->
<g id="node5" class="node">
<title>Node5</title>
<g id="a_node5"><a xlink:href="cachefilter-patterns_8h_source.xhtml" target="_top" xlink:title=" ">
<polygon fill="white" stroke="black" points="598,-56.5 598,-86.5 706,-86.5 706,-56.5 598,-56.5"/>
<text text-anchor="start" x="606" y="-74.5" font-family="Helvetica,sans-Serif" font-size="10.00">apt&#45;pkg/cachefilter</text>
<text text-anchor="middle" x="652" y="-63.5" font-family="Helvetica,sans-Serif" font-size="10.00">&#45;patterns.h</text>
</a>
</g>
</g>
<!-- Node4&#45;&gt;Node5 -->
<g id="edge4" class="edge">
<title>Node4&#45;&gt;Node5</title>
<path fill="none" stroke="midnightblue" d="M668.78,-114.1C665.22,-105.27 660.98,-94.77 657.66,-86.52"/>
<polygon fill="midnightblue" stroke="midnightblue" points="665.57,-115.51 672.56,-123.48 672.07,-112.89 665.57,-115.51"/>
</g>
<!-- Node6&#45;&gt;Node3 -->
<g id="edge6" class="edge">
<title>Node6&#45;&gt;Node3</title>
<path fill="none" stroke="midnightblue" d="M553.04,-113.94C560.79,-97.71 573.61,-73.77 589,-56 601.71,-41.32 619.76,-28.02 632.12,-19.75"/>
<polygon fill="midnightblue" stroke="midnightblue" points="549.71,-112.8 548.69,-123.35 556.06,-115.74 549.71,-112.8"/>
</g>
<!-- Node6&#45;&gt;Node5 -->
<g id="edge7" class="edge">
<title>Node6&#45;&gt;Node5</title>
<path fill="none" stroke="midnightblue" d="M569.2,-118.54C586.38,-108.99 609.38,-96.2 626.78,-86.52"/>
<polygon fill="midnightblue" stroke="midnightblue" points="567.37,-115.56 560.33,-123.48 570.77,-121.67 567.37,-115.56"/>
</g>
<!-- Node7&#45;&gt;Node8 -->
<g id="edge9" class="edge">
<title>Node7&#45;&gt;Node8</title>
<path fill="none" stroke="midnightblue" d="M893.02,-170.57C887.17,-161.27 880.23,-150.25 875.51,-142.75"/>
<polygon fill="midnightblue" stroke="midnightblue" points="890.1,-172.49 898.39,-179.08 896.02,-168.76 890.1,-172.49"/>
</g>
<!-- Node7&#45;&gt;Node11 -->
<g id="edge13" class="edge">
<title>Node7&#45;&gt;Node11</title>
<path fill="none" stroke="midnightblue" d="M928.06,-174.18C945.36,-164.24 968.15,-151.15 982.93,-142.65"/>
<polygon fill="midnightblue" stroke="midnightblue" points="926.03,-171.31 919.1,-179.32 929.52,-177.38 926.03,-171.31"/>
</g>
<!-- Node8&#45;&gt;Node9 -->
<g id="edge10" class="edge">
<title>Node8&#45;&gt;Node9</title>
<path fill="none" stroke="midnightblue" d="M868.43,-113.32C867.52,-102.5 866.42,-89.4 865.72,-81.01"/>
<polygon fill="midnightblue" stroke="midnightblue" points="864.96,-113.8 869.28,-123.48 871.93,-113.22 864.96,-113.8"/>
</g>
<!-- Node9&#45;&gt;Node3 -->
<g id="edge11" class="edge">
<title>Node9&#45;&gt;Node3</title>
<path fill="none" stroke="midnightblue" d="M823.86,-59.32C781.32,-47.76 715.83,-29.97 677.32,-19.51"/>
<polygon fill="midnightblue" stroke="midnightblue" points="823.05,-62.73 833.62,-61.98 824.89,-55.98 823.05,-62.73"/>
</g>
<!-- Node9&#45;&gt;Node10 -->
<g id="edge12" class="edge">
<title>Node9&#45;&gt;Node10</title>
<path fill="none" stroke="midnightblue" d="M899.61,-58.73C933.63,-47.17 984.72,-29.8 1014.97,-19.51"/>
<polygon fill="midnightblue" stroke="midnightblue" points="898.41,-55.44 890.07,-61.98 900.67,-62.07 898.41,-55.44"/>
</g>
<!-- Node16&#45;&gt;Node3 -->
<g id="edge20" class="edge">
<title>Node16&#45;&gt;Node3</title>
<path fill="none" stroke="midnightblue" d="M718.05,-172.53C726.53,-164.71 735.49,-154.45 740,-143 743.26,-134.73 741.58,-131.75 740,-123 734.35,-91.72 734.86,-80.81 715,-56 701.86,-39.59 681.06,-27.19 665.73,-19.6"/>
<polygon fill="midnightblue" stroke="midnightblue" points="715.53,-170.07 710.21,-179.24 720.09,-175.39 715.53,-170.07"/>
</g>
<!-- Node16&#45;&gt;Node4 -->
<g id="edge21" class="edge">
<title>Node16&#45;&gt;Node4</title>
<path fill="none" stroke="midnightblue" d="M690.54,-169.69C686.83,-160.59 682.52,-150.01 679.57,-142.75"/>
<polygon fill="midnightblue" stroke="midnightblue" points="687.35,-171.14 694.37,-179.08 693.84,-168.5 687.35,-171.14"/>
</g>
<!-- Node16&#45;&gt;Node17 -->
<g id="edge22" class="edge">
<title>Node16&#45;&gt;Node17</title>
<path fill="none" stroke="midnightblue" d="M765.03,-180.69C839.94,-172.34 964.82,-157.9 1072,-143 1075.18,-142.56 1078.45,-142.09 1081.74,-141.6"/>
<polygon fill="midnightblue" stroke="midnightblue" points="764.34,-177.24 754.79,-181.83 765.12,-184.2 764.34,-177.24"/>
</g>
<!-- Node20&#45;&gt;Node2 -->
<g id="edge27" class="edge">
<title>Node20&#45;&gt;Node2</title>
<path fill="none" stroke="midnightblue" d="M153.62,-118.87C131.33,-107.33 99.56,-90.9 80.45,-81.01"/>
<polygon fill="midnightblue" stroke="midnightblue" points="152.03,-121.99 162.52,-123.48 155.25,-115.77 152.03,-121.99"/>
</g>
<!-- Node20&#45;&gt;Node12 -->
<g id="edge28" class="edge">
<title>Node20&#45;&gt;Node12</title>
<path fill="none" stroke="midnightblue" d="M214.21,-120.23C248.81,-108.67 300.77,-91.3 331.54,-81.01"/>
<polygon fill="midnightblue" stroke="midnightblue" points="212.88,-116.99 204.5,-123.48 215.1,-123.62 212.88,-116.99"/>
</g>
<!-- Node21 -->
<g id="node21" class="node">
<title>Node21</title>
<g id="a_node21"><a xlink:href="metaindex_8h_source.xhtml" target="_top" xlink:title=" ">
<polygon fill="white" stroke="black" points="146.5,-62 146.5,-81 265.5,-81 265.5,-62 146.5,-62"/>
<text text-anchor="middle" x="206" y="-69" font-family="Helvetica,sans-Serif" font-size="10.00">apt&#45;pkg/metaindex.h</text>
</a>
</g>
</g>
<!-- Node20&#45;&gt;Node21 -->
<g id="edge29" class="edge">
<title>Node20&#45;&gt;Node21</title>
<path fill="none" stroke="midnightblue" d="M187.02,-114.33C192.01,-103.33 198.21,-89.66 202.14,-81.01"/>
<polygon fill="midnightblue" stroke="midnightblue" points="183.81,-112.92 182.87,-123.48 190.19,-115.82 183.81,-112.92"/>
</g>
<!-- Node22 -->
<g id="node22" class="node">
<title>Node22</title>
<g id="a_node22"><a xlink:href="debmetaindex_8h_source.xhtml" target="_top" xlink:title=" ">
<polygon fill="white" stroke="black" points="127,-0.5 127,-19.5 285,-19.5 285,-0.5 127,-0.5"/>
<text text-anchor="middle" x="206" y="-7.5" font-family="Helvetica,sans-Serif" font-size="10.00">apt&#45;pkg/deb/debmetaindex.h</text>
</a>
</g>
</g>
<!-- Node21&#45;&gt;Node22 -->
<g id="edge30" class="edge">
<title>Node21&#45;&gt;Node22</title>
<path fill="none" stroke="midnightblue" d="M206,-51.82C206,-41 206,-27.9 206,-19.51"/>
<polygon fill="midnightblue" stroke="midnightblue" points="202.5,-51.98 206,-61.98 209.5,-51.98 202.5,-51.98"/>
</g>
<!-- Node24&#45;&gt;Node13 -->
<g id="edge34" class="edge">
<title>Node24&#45;&gt;Node13</title>
<path fill="none" stroke="midnightblue" d="M1312.15,-169.1C1313.64,-160.14 1315.36,-149.86 1316.54,-142.75"/>
<polygon fill="midnightblue" stroke="midnightblue" points="1308.68,-168.64 1310.49,-179.08 1315.58,-169.79 1308.68,-168.64"/>
</g>
<!-- Node25&#45;&gt;Node14 -->
<g id="edge36" class="edge">
<title>Node25&#45;&gt;Node14</title>
<path fill="none" stroke="midnightblue" d="M304.01,-169.98C308.59,-160.82 313.95,-150.09 317.62,-142.75"/>
<polygon fill="midnightblue" stroke="midnightblue" points="300.8,-168.57 299.46,-179.08 307.06,-171.7 300.8,-168.57"/>
</g>
<!-- Node25&#45;&gt;Node20 -->
<g id="edge37" class="edge">
<title>Node25&#45;&gt;Node20</title>
<path fill="none" stroke="midnightblue" d="M267.28,-175.1C245.61,-165.01 216.1,-151.27 197.29,-142.52"/>
<polygon fill="midnightblue" stroke="midnightblue" points="266.08,-178.4 276.62,-179.44 269.03,-172.05 266.08,-178.4"/>
</g>
<!-- Node26&#45;&gt;Node15 -->
<g id="edge39" class="edge">
<title>Node26&#45;&gt;Node15</title>
<path fill="none" stroke="midnightblue" d="M1514.58,-171.43C1506.34,-161.97 1496.35,-150.48 1489.62,-142.75"/>
<polygon fill="midnightblue" stroke="midnightblue" points="1512.03,-173.84 1521.24,-179.08 1517.31,-169.24 1512.03,-173.84"/>
</g>
<!-- Node26&#45;&gt;Node19 -->
<g id="edge40" class="edge">
<title>Node26&#45;&gt;Node19</title>
<path fill="none" stroke="midnightblue" d="M1556.9,-175.23C1578.97,-165.13 1609.18,-151.31 1628.39,-142.52"/>
<polygon fill="midnightblue" stroke="midnightblue" points="1555.33,-172.1 1547.7,-179.44 1558.25,-178.46 1555.33,-172.1"/>
</g>
<!-- Node29&#45;&gt;Node17 -->
<g id="edge46" class="edge">
<title>Node29&#45;&gt;Node17</title>
<path fill="none" stroke="midnightblue" d="M1096.42,-171.43C1104.66,-161.97 1114.65,-150.48 1121.38,-142.75"/>
<polygon fill="midnightblue" stroke="midnightblue" points="1093.69,-169.24 1089.76,-179.08 1098.97,-173.84 1093.69,-169.24"/>
</g>
</g>
</svg>
