<svg xmlns="http://www.w3.org/2000/svg" xmlns:xlink="http://www.w3.org/1999/xlink" width="211pt" height="241pt" viewBox="0 0 210.5 241"><g id="graph0" class="graph" transform="scale(1 1) rotate(0) translate(4 237)"><title>Private::AlternateURI</title><polygon fill="#fff" stroke="transparent" points="-4 4 -4 -237 206.5 -237 206.5 4 -4 4"/><g id="node1" class="node"><title>Node1</title><g id="a_node1"><a><polygon fill="#bfbfbf" stroke="#000" points=".5 -.5 .5 -19.5 119.5 -19.5 119.5 -.5 .5 -.5"/><text x="60" y="-7.5" font-family="Helvetica,sans-Serif" font-size="10" text-anchor="middle">Private::AlternateURI</text></a></g></g><g id="node2" class="node"><title>Node2</title><g id="a_node2"><a><polygon fill="#fff" stroke="#bfbfbf" points="83.5 -67.5 83.5 -97.5 202.5 -97.5 202.5 -67.5 83.5 -67.5"/><text x="91.5" y="-85.5" font-family="Helvetica,sans-Serif" font-size="10" text-anchor="start">unordered_map&lt; std</text><text x="143" y="-74.5" font-family="Helvetica,sans-Serif" font-size="10" text-anchor="middle">::string, std::string &gt;</text></a></g></g><g id="edge1" class="edge"><title>Node2-&gt;Node1</title><path fill="none" stroke="#9a32cd" stroke-dasharray="5 2" d="M118.29,-60.51C102.34,-46.96 82.41,-30.03 70.47,-19.89"/><polygon fill="#9a32cd" stroke="#9a32cd" points="116.32 -63.43 126.2 -67.23 120.85 -58.09 116.32 -63.43"/><text x="135.5" y="-41" font-family="Helvetica,sans-Serif" font-size="10" text-anchor="middle">changefields</text></g><g id="node3" class="node"><title>Node3</title><g id="a_node3"><a><polygon fill="#fff" stroke="#bfbfbf" points="38 -156.5 38 -175.5 82 -175.5 82 -156.5 38 -156.5"/><text x="60" y="-163.5" font-family="Helvetica,sans-Serif" font-size="10" text-anchor="middle">string</text></a></g></g><g id="edge4" class="edge"><title>Node3-&gt;Node1</title><path fill="none" stroke="#9a32cd" stroke-dasharray="5 2" d="M57.18,-146.28C54.55,-126.57 51.28,-94.61 53,-67 54.05,-50.18 56.85,-30.68 58.57,-19.7"/><polygon fill="#9a32cd" stroke="#9a32cd" points="53.73 -146.94 58.61 -156.35 60.66 -145.96 53.73 -146.94"/><text x="63.5" y="-80" font-family="Helvetica,sans-Serif" font-size="10" text-anchor="middle">URI</text></g><g id="edge2" class="edge"><title>Node3-&gt;Node2</title><path fill="none" stroke="#9a32cd" stroke-dasharray="5 2" d="M76.09,-149.2C91.33,-134.23 114,-111.97 128.64,-97.6"/><polygon fill="#9a32cd" stroke="#9a32cd" points="73.57 -146.77 68.88 -156.28 78.47 -151.77 73.57 -146.77"/><text x="132.5" y="-130" font-family="Helvetica,sans-Serif" font-size="10" text-anchor="middle">elements</text><text x="132.5" y="-119" font-family="Helvetica,sans-Serif" font-size="10" text-anchor="middle">keys</text></g><g id="node4" class="node"><title>Node4</title><g id="a_node4"><a><polygon fill="#fff" stroke="#bfbfbf" points="0 -213.5 0 -232.5 120 -232.5 120 -213.5 0 -213.5"/><text x="60" y="-220.5" font-family="Helvetica,sans-Serif" font-size="10" text-anchor="middle">basic_string&lt; Char &gt;</text></a></g></g><g id="edge3" class="edge"><title>Node4-&gt;Node3</title><path fill="none" stroke="#191970" d="M60,-203.12C60,-193.82 60,-183.06 60,-175.71"/><polygon fill="#191970" stroke="#191970" points="56.5 -203.41 60 -213.41 63.5 -203.41 56.5 -203.41"/></g></g></svg>