<?xml version="1.0" encoding="UTF-8" standalone="no"?>
<!DOCTYPE svg PUBLIC "-//W3C//DTD SVG 1.1//EN"
 "http://www.w3.org/Graphics/SVG/1.1/DTD/svg11.dtd">
<!-- Generated by graphviz version 2.43.0 (0)
 -->
<!-- Title: pkgCache&lt; Str, Itr &gt;::Version Pages: 1 -->
<svg width="368pt" height="377pt"
 viewBox="0.00 0.00 368.00 376.50" xmlns="http://www.w3.org/2000/svg" xmlns:xlink="http://www.w3.org/1999/xlink">
<g id="graph0" class="graph" transform="scale(1 1) rotate(0) translate(4 372.5)">
<title>pkgCache&lt; Str, Itr &gt;::Version</title>
<polygon fill="white" stroke="transparent" points="-4,4 -4,-372.5 364,-372.5 364,4 -4,4"/>
<!-- Node1 -->
<g id="node1" class="node">
<title>Node1</title>
<g id="a_node1"><a xlink:title="information for a single version of a package">
<polygon fill="#bfbfbf" stroke="black" points="254,-176 254,-206 360,-206 360,-176 254,-176"/>
<text text-anchor="start" x="262" y="-194" font-family="Helvetica,sans-Serif" font-size="10.00">pkgCache&lt; Str, Itr</text>
<text text-anchor="middle" x="307" y="-183" font-family="Helvetica,sans-Serif" font-size="10.00"> &gt;::Version</text>
</a>
</g>
</g>
<!-- Node2 -->
<g id="node2" class="node">
<title>Node2</title>
<g id="a_node2"><a xlink:href="classmap__pointer.xhtml" target="_top" xlink:title=" ">
<polygon fill="white" stroke="black" points="0,-338 0,-368 137,-368 137,-338 0,-338"/>
<text text-anchor="start" x="8" y="-356" font-family="Helvetica,sans-Serif" font-size="10.00">map_pointer&lt; pkgCache</text>
<text text-anchor="middle" x="68.5" y="-345" font-family="Helvetica,sans-Serif" font-size="10.00">::Provides &gt;</text>
</a>
</g>
</g>
<!-- Node2&#45;&gt;Node1 -->
<g id="edge1" class="edge">
<title>Node2&#45;&gt;Node1</title>
<path fill="none" stroke="#9a32cd" stroke-dasharray="5,2" d="M147.09,-342.94C177.15,-336.06 210.4,-324.48 236,-305 270.38,-278.84 291.75,-230.52 300.87,-206.04"/>
<polygon fill="#9a32cd" stroke="#9a32cd" points="146.08,-339.58 137.04,-345.1 147.55,-346.42 146.08,-339.58"/>
<text text-anchor="middle" x="195.5" y="-343" font-family="Helvetica,sans-Serif" font-size="10.00"> ProvidesList</text>
</g>
<!-- Node3 -->
<g id="node3" class="node">
<title>Node3</title>
<g id="a_node3"><a xlink:href="classmap__pointer.xhtml" target="_top" xlink:title=" ">
<polygon fill="white" stroke="black" points="5.5,-299.5 5.5,-318.5 131.5,-318.5 131.5,-299.5 5.5,-299.5"/>
<text text-anchor="middle" x="68.5" y="-306.5" font-family="Helvetica,sans-Serif" font-size="10.00">map_pointer&lt; Extra &gt;</text>
</a>
</g>
</g>
<!-- Node3&#45;&gt;Node1 -->
<g id="edge2" class="edge">
<title>Node3&#45;&gt;Node1</title>
<path fill="none" stroke="#9a32cd" stroke-dasharray="5,2" d="M133.02,-297.14C165.39,-289.26 204.47,-276.81 236,-258 259.26,-244.12 280.95,-221.2 293.84,-206.1"/>
<polygon fill="#9a32cd" stroke="#9a32cd" points="132.14,-293.75 123.2,-299.44 133.73,-300.56 132.14,-293.75"/>
<text text-anchor="middle" x="195.5" y="-293" font-family="Helvetica,sans-Serif" font-size="10.00"> d</text>
</g>
<!-- Node4 -->
<g id="node4" class="node">
<title>Node4</title>
<g id="a_node4"><a xlink:href="classmap__pointer.xhtml" target="_top" xlink:title=" ">
<polygon fill="white" stroke="black" points="0,-250 0,-280 137,-280 137,-250 0,-250"/>
<text text-anchor="start" x="8" y="-268" font-family="Helvetica,sans-Serif" font-size="10.00">map_pointer&lt; pkgCache</text>
<text text-anchor="middle" x="68.5" y="-257" font-family="Helvetica,sans-Serif" font-size="10.00">::Dependency &gt;</text>
</a>
</g>
</g>
<!-- Node4&#45;&gt;Node1 -->
<g id="edge3" class="edge">
<title>Node4&#45;&gt;Node1</title>
<path fill="none" stroke="#9a32cd" stroke-dasharray="5,2" d="M145.36,-247.45C174.04,-240.16 206.79,-231.06 236,-221 248.5,-216.7 261.92,-211.18 273.63,-206.05"/>
<polygon fill="#9a32cd" stroke="#9a32cd" points="144.25,-244.12 135.4,-249.95 145.95,-250.91 144.25,-244.12"/>
<text text-anchor="middle" x="195.5" y="-246" font-family="Helvetica,sans-Serif" font-size="10.00"> DependsList</text>
</g>
<!-- Node5 -->
<g id="node5" class="node">
<title>Node5</title>
<g id="a_node5"><a xlink:href="classmap__pointer.xhtml" target="_top" xlink:title=" ">
<polygon fill="white" stroke="black" points="0,-201 0,-231 137,-231 137,-201 0,-201"/>
<text text-anchor="start" x="8" y="-219" font-family="Helvetica,sans-Serif" font-size="10.00">map_pointer&lt; pkgCache</text>
<text text-anchor="middle" x="68.5" y="-208" font-family="Helvetica,sans-Serif" font-size="10.00">::Description &gt;</text>
</a>
</g>
</g>
<!-- Node5&#45;&gt;Node1 -->
<g id="edge4" class="edge">
<title>Node5&#45;&gt;Node1</title>
<path fill="none" stroke="#9a32cd" stroke-dasharray="5,2" d="M147.42,-207.76C182.28,-204.08 222.44,-199.83 253.63,-196.54"/>
<polygon fill="#9a32cd" stroke="#9a32cd" points="146.85,-204.3 137.27,-208.84 147.58,-211.27 146.85,-204.3"/>
<text text-anchor="middle" x="195.5" y="-209" font-family="Helvetica,sans-Serif" font-size="10.00"> DescriptionList</text>
</g>
<!-- Node6 -->
<g id="node6" class="node">
<title>Node6</title>
<g id="a_node6"><a xlink:href="classmap__pointer.xhtml" target="_top" xlink:title=" ">
<polygon fill="white" stroke="black" points="0,-152 0,-182 137,-182 137,-152 0,-152"/>
<text text-anchor="start" x="8" y="-170" font-family="Helvetica,sans-Serif" font-size="10.00">map_pointer&lt; pkgCache</text>
<text text-anchor="middle" x="68.5" y="-159" font-family="Helvetica,sans-Serif" font-size="10.00">::Package &gt;</text>
</a>
</g>
</g>
<!-- Node6&#45;&gt;Node1 -->
<g id="edge5" class="edge">
<title>Node6&#45;&gt;Node1</title>
<path fill="none" stroke="#9a32cd" stroke-dasharray="5,2" d="M147.29,-174.18C175.27,-176.84 207.06,-179.96 236,-183 241.72,-183.6 247.69,-184.25 253.64,-184.91"/>
<polygon fill="#9a32cd" stroke="#9a32cd" points="147.46,-170.68 137.17,-173.22 146.8,-177.65 147.46,-170.68"/>
<text text-anchor="middle" x="195.5" y="-186" font-family="Helvetica,sans-Serif" font-size="10.00"> ParentPkg</text>
</g>
<!-- Node7 -->
<g id="node7" class="node">
<title>Node7</title>
<g id="a_node7"><a xlink:href="classmap__pointer.xhtml" target="_top" xlink:title=" ">
<polygon fill="white" stroke="black" points="0,-103 0,-133 137,-133 137,-103 0,-103"/>
<text text-anchor="start" x="8" y="-121" font-family="Helvetica,sans-Serif" font-size="10.00">map_pointer&lt; pkgCache</text>
<text text-anchor="middle" x="68.5" y="-110" font-family="Helvetica,sans-Serif" font-size="10.00">::Version &gt;</text>
</a>
</g>
</g>
<!-- Node7&#45;&gt;Node1 -->
<g id="edge6" class="edge">
<title>Node7&#45;&gt;Node1</title>
<path fill="none" stroke="#9a32cd" stroke-dasharray="5,2" d="M146.96,-126.56C175.56,-131.23 207.84,-138.33 236,-149 253.63,-155.68 271.83,-166.76 285.26,-175.86"/>
<polygon fill="#9a32cd" stroke="#9a32cd" points="147.44,-123.09 137.02,-125.01 146.36,-130.01 147.44,-123.09"/>
<text text-anchor="middle" x="195.5" y="-163" font-family="Helvetica,sans-Serif" font-size="10.00"> NextInSource</text>
<text text-anchor="middle" x="195.5" y="-152" font-family="Helvetica,sans-Serif" font-size="10.00">NextVer</text>
</g>
<!-- Node8 -->
<g id="node8" class="node">
<title>Node8</title>
<g id="a_node8"><a xlink:href="classmap__pointer.xhtml" target="_top" xlink:title=" ">
<polygon fill="white" stroke="black" points="0,-54 0,-84 137,-84 137,-54 0,-54"/>
<text text-anchor="start" x="8" y="-72" font-family="Helvetica,sans-Serif" font-size="10.00">map_pointer&lt; pkgCache</text>
<text text-anchor="middle" x="68.5" y="-61" font-family="Helvetica,sans-Serif" font-size="10.00">::VerFile &gt;</text>
</a>
</g>
</g>
<!-- Node8&#45;&gt;Node1 -->
<g id="edge7" class="edge">
<title>Node8&#45;&gt;Node1</title>
<path fill="none" stroke="#9a32cd" stroke-dasharray="5,2" d="M146.89,-79.75C176.32,-86.25 209.19,-96.6 236,-113 262.39,-129.14 284.6,-158.24 296.54,-175.97"/>
<polygon fill="#9a32cd" stroke="#9a32cd" points="147.57,-76.31 137.06,-77.69 146.13,-83.16 147.57,-76.31"/>
<text text-anchor="middle" x="195.5" y="-116" font-family="Helvetica,sans-Serif" font-size="10.00"> FileList</text>
</g>
<!-- Node9 -->
<g id="node9" class="node">
<title>Node9</title>
<g id="a_node9"><a xlink:href="classmap__pointer.xhtml" target="_top" xlink:title=" ">
<polygon fill="white" stroke="black" points="7.5,-0.5 7.5,-19.5 129.5,-19.5 129.5,-0.5 7.5,-0.5"/>
<text text-anchor="middle" x="68.5" y="-7.5" font-family="Helvetica,sans-Serif" font-size="10.00">map_pointer&lt; char &gt;</text>
</a>
</g>
</g>
<!-- Node9&#45;&gt;Node1 -->
<g id="edge8" class="edge">
<title>Node9&#45;&gt;Node1</title>
<path fill="none" stroke="#9a32cd" stroke-dasharray="5,2" d="M139.84,-5.34C172,-6.68 208.88,-13.5 236,-34 283.14,-69.63 299.23,-144.06 304.11,-175.96"/>
<polygon fill="#9a32cd" stroke="#9a32cd" points="139.67,-1.83 129.58,-5.09 139.5,-8.83 139.67,-1.83"/>
<text text-anchor="middle" x="195.5" y="-70" font-family="Helvetica,sans-Serif" font-size="10.00"> Section</text>
<text text-anchor="middle" x="195.5" y="-59" font-family="Helvetica,sans-Serif" font-size="10.00">SourcePkgName</text>
<text text-anchor="middle" x="195.5" y="-48" font-family="Helvetica,sans-Serif" font-size="10.00">SourceVerStr</text>
<text text-anchor="middle" x="195.5" y="-37" font-family="Helvetica,sans-Serif" font-size="10.00">VerStr</text>
</g>
</g>
</svg>
