<svg xmlns="http://www.w3.org/2000/svg" xmlns:xlink="http://www.w3.org/1999/xlink" width="155pt" height="196pt" viewBox="0 0 155 196"><g id="graph0" class="graph" transform="scale(1 1) rotate(0) translate(4 192)"><title>pkgAcquireStatus::ReleaseInfoChange</title><polygon fill="#fff" stroke="transparent" points="-4 4 -4 -192 151 -192 151 4 -4 4"/><g id="node1" class="node"><title>Node1</title><g id="a_node1"><a><polygon fill="#bfbfbf" stroke="#000" points="0 -.5 0 -30.5 147 -30.5 147 -.5 0 -.5"/><text x="8" y="-18.5" font-family="Helvetica,sans-Serif" font-size="10" text-anchor="start">pkgAcquireStatus::Release</text><text x="73.5" y="-7.5" font-family="Helvetica,sans-Serif" font-size="10" text-anchor="middle">InfoChange</text></a></g></g><g id="node2" class="node"><title>Node2</title><g id="a_node2"><a><polygon fill="#fff" stroke="#bfbfbf" points="51.5 -111.5 51.5 -130.5 95.5 -130.5 95.5 -111.5 51.5 -111.5"/><text x="73.5" y="-118.5" font-family="Helvetica,sans-Serif" font-size="10" text-anchor="middle">string</text></a></g></g><g id="edge1" class="edge"><title>Node2-&gt;Node1</title><path fill="none" stroke="#9a32cd" stroke-dasharray="5 2" d="M73.5,-101C73.5,-80.74 73.5,-49.11 73.5,-30.84"/><polygon fill="#9a32cd" stroke="#9a32cd" points="70 -101.18 73.5 -111.18 77 -101.18 70 -101.18"/><text x="95.5" y="-85" font-family="Helvetica,sans-Serif" font-size="10" text-anchor="middle">From</text><text x="95.5" y="-74" font-family="Helvetica,sans-Serif" font-size="10" text-anchor="middle">Message</text><text x="95.5" y="-63" font-family="Helvetica,sans-Serif" font-size="10" text-anchor="middle">To</text><text x="95.5" y="-52" font-family="Helvetica,sans-Serif" font-size="10" text-anchor="middle">Type</text></g><g id="node3" class="node"><title>Node3</title><g id="a_node3"><a><polygon fill="#fff" stroke="#bfbfbf" points="13.5 -168.5 13.5 -187.5 133.5 -187.5 133.5 -168.5 13.5 -168.5"/><text x="73.5" y="-175.5" font-family="Helvetica,sans-Serif" font-size="10" text-anchor="middle">basic_string&lt; Char &gt;</text></a></g></g><g id="edge2" class="edge"><title>Node3-&gt;Node2</title><path fill="none" stroke="#191970" d="M73.5,-158.12C73.5,-148.82 73.5,-138.06 73.5,-130.71"/><polygon fill="#191970" stroke="#191970" points="70 -158.41 73.5 -168.41 77 -158.41 70 -158.41"/></g></g></svg>