<svg xmlns="http://www.w3.org/2000/svg" xmlns:xlink="http://www.w3.org/1999/xlink" width="223pt" height="163pt" viewBox="0 0 222.5 163"><g id="graph0" class="graph" transform="scale(1 1) rotate(0) translate(4 159)"><title>pkgAcqMethod::FetchItem</title><polygon fill="#fff" stroke="transparent" points="-4 4 -4 -159 218.5 -159 218.5 4 -4 4"/><g id="node1" class="node"><title>Node1</title><g id="a_node1"><a><polygon fill="#bfbfbf" stroke="#000" points="25.5 -.5 25.5 -19.5 169.5 -19.5 169.5 -.5 25.5 -.5"/><text x="97.5" y="-7.5" font-family="Helvetica,sans-Serif" font-size="10" text-anchor="middle">pkgAcqMethod::FetchItem</text></a></g></g><g id="edge2" class="edge"><title>Node1-&gt;Node1</title><path fill="none" stroke="#9a32cd" stroke-dasharray="5 2" d="M179.57,-14.93C184.52,-13.76 187.5,-12.12 187.5,-10 187.5,-6.7 180.25,-4.54 169.53,-3.54"/><polygon fill="#9a32cd" stroke="#9a32cd" points="178.88 -11.5 169.53 -16.46 179.94 -18.42 178.88 -11.5"/><text x="201" y="-7.5" font-family="Helvetica,sans-Serif" font-size="10" text-anchor="middle">Next</text></g><g id="node2" class="node"><title>Node2</title><g id="a_node2"><a target="_top" xlink:href="classHashStringList.xhtml"><polygon fill="#fff" stroke="#000" points="0 -78.5 0 -97.5 87 -97.5 87 -78.5 0 -78.5"/><text x="43.5" y="-85.5" font-family="Helvetica,sans-Serif" font-size="10" text-anchor="middle">HashStringList</text></a></g></g><g id="edge1" class="edge"><title>Node2-&gt;Node1</title><path fill="none" stroke="#9a32cd" stroke-dasharray="5 2" d="M39.54,-68.37C38.49,-58.62 38.92,-46.9 44.5,-38 49.77,-29.6 58.54,-23.7 67.44,-19.61"/><polygon fill="#9a32cd" stroke="#9a32cd" points="36.09 -68.97 41.16 -78.27 43 -67.84 36.09 -68.97"/><text x="87" y="-46.5" font-family="Helvetica,sans-Serif" font-size="10" text-anchor="middle">ExpectedHashes</text></g><g id="node3" class="node"><title>Node3</title><g id="a_node3"><a><polygon fill="#fff" stroke="#bfbfbf" points="129.5 -78.5 129.5 -97.5 173.5 -97.5 173.5 -78.5 129.5 -78.5"/><text x="151.5" y="-85.5" font-family="Helvetica,sans-Serif" font-size="10" text-anchor="middle">string</text></a></g></g><g id="edge3" class="edge"><title>Node3-&gt;Node1</title><path fill="none" stroke="#9a32cd" stroke-dasharray="5 2" d="M145.61,-68.91C141.91,-59.18 136.51,-47.3 129.5,-38 124.16,-30.92 116.64,-24.45 110.24,-19.63"/><polygon fill="#9a32cd" stroke="#9a32cd" points="142.33 -70.14 148.95 -78.41 148.94 -67.82 142.33 -70.14"/><text x="164" y="-52" font-family="Helvetica,sans-Serif" font-size="10" text-anchor="middle">DestFile</text><text x="164" y="-41" font-family="Helvetica,sans-Serif" font-size="10" text-anchor="middle">Uri</text></g><g id="node4" class="node"><title>Node4</title><g id="a_node4"><a><polygon fill="#fff" stroke="#bfbfbf" points="91.5 -135.5 91.5 -154.5 211.5 -154.5 211.5 -135.5 91.5 -135.5"/><text x="151.5" y="-142.5" font-family="Helvetica,sans-Serif" font-size="10" text-anchor="middle">basic_string&lt; Char &gt;</text></a></g></g><g id="edge4" class="edge"><title>Node4-&gt;Node3</title><path fill="none" stroke="#191970" d="M151.5,-125.12C151.5,-115.82 151.5,-105.06 151.5,-97.71"/><polygon fill="#191970" stroke="#191970" points="148 -125.41 151.5 -135.41 155 -125.41 148 -125.41"/></g></g></svg>