<svg xmlns="http://www.w3.org/2000/svg" xmlns:xlink="http://www.w3.org/1999/xlink" width="133pt" height="232" viewBox="0 0 133 174"><g id="graph0" class="graph" transform="scale(1 1) rotate(0) translate(4 170)"><title>pkgSrcRecords::Parser::BuildDepRec</title><polygon fill="#fff" stroke="transparent" points="-4 4 -4 -170 129 -170 129 4 -4 4"/><g id="node1" class="node"><title>Node1</title><g id="a_node1"><a><polygon fill="#bfbfbf" stroke="#000" points="0 -.5 0 -30.5 125 -30.5 125 -.5 0 -.5"/><text x="8" y="-18.5" font-family="Helvetica,sans-Serif" font-size="10" text-anchor="start">pkgSrcRecords::Parser</text><text x="62.5" y="-7.5" font-family="Helvetica,sans-Serif" font-size="10" text-anchor="middle">::BuildDepRec</text></a></g></g><g id="node2" class="node"><title>Node2</title><g id="a_node2"><a><polygon fill="#fff" stroke="#bfbfbf" points="40.5 -89.5 40.5 -108.5 84.5 -108.5 84.5 -89.5 40.5 -89.5"/><text x="62.5" y="-96.5" font-family="Helvetica,sans-Serif" font-size="10" text-anchor="middle">string</text></a></g></g><g id="edge1" class="edge"><title>Node2-&gt;Node1</title><path fill="none" stroke="#9a32cd" stroke-dasharray="5 2" d="M62.5,-79.23C62.5,-64.41 62.5,-44.05 62.5,-30.6"/><polygon fill="#9a32cd" stroke="#9a32cd" points="59 -79.28 62.5 -89.28 66 -79.28 59 -79.28"/><text x="84" y="-63" font-family="Helvetica,sans-Serif" font-size="10" text-anchor="middle">Package</text><text x="84" y="-52" font-family="Helvetica,sans-Serif" font-size="10" text-anchor="middle">Version</text></g><g id="node3" class="node"><title>Node3</title><g id="a_node3"><a><polygon fill="#fff" stroke="#bfbfbf" points="2.5 -146.5 2.5 -165.5 122.5 -165.5 122.5 -146.5 2.5 -146.5"/><text x="62.5" y="-153.5" font-family="Helvetica,sans-Serif" font-size="10" text-anchor="middle">basic_string&lt; Char &gt;</text></a></g></g><g id="edge2" class="edge"><title>Node3-&gt;Node2</title><path fill="none" stroke="#191970" d="M62.5,-136.12C62.5,-126.82 62.5,-116.06 62.5,-108.71"/><polygon fill="#191970" stroke="#191970" points="59 -136.41 62.5 -146.41 66 -136.41 59 -136.41"/></g></g></svg>