<svg xmlns="http://www.w3.org/2000/svg" xmlns:xlink="http://www.w3.org/1999/xlink" width="142pt" height="140pt" viewBox="0 0 142 140"><g id="graph0" class="graph" transform="scale(1 1) rotate(0) translate(4 136)"><title>VersionIsSourcePackage</title><polygon fill="#fff" stroke="transparent" points="-4 4 -4 -136 138 -136 138 4 -4 4"/><g id="node1" class="node"><title>Node1</title><g id="a_node1"><a><polygon fill="#bfbfbf" stroke="#000" points="0 -.5 0 -19.5 134 -19.5 134 -.5 0 -.5"/><text x="67" y="-7.5" font-family="Helvetica,sans-Serif" font-size="10" text-anchor="middle">VersionIsSourcePackage</text></a></g></g><g id="node2" class="node"><title>Node2</title><g id="a_node2"><a target="_top" xlink:href="structAPT_1_1Internal_1_1Patterns_1_1VersionAnyMatcher.xhtml"><polygon fill="#fff" stroke="#000" points="11.5 -56.5 11.5 -75.5 122.5 -75.5 122.5 -56.5 11.5 -56.5"/><text x="67" y="-63.5" font-family="Helvetica,sans-Serif" font-size="10" text-anchor="middle">VersionAnyMatcher</text></a></g></g><g id="edge1" class="edge"><title>Node2-&gt;Node1</title><path fill="none" stroke="#191970" d="M67,-45.8C67,-36.91 67,-26.78 67,-19.75"/><polygon fill="#191970" stroke="#191970" points="63.5 -46.08 67 -56.08 70.5 -46.08 63.5 -46.08"/></g><g id="node3" class="node"><title>Node3</title><g id="a_node3"><a target="_top" xlink:href="classAPT_1_1CacheFilter_1_1Matcher.xhtml"><polygon fill="#fff" stroke="#000" points="39 -112.5 39 -131.5 95 -131.5 95 -112.5 39 -112.5"/><text x="67" y="-119.5" font-family="Helvetica,sans-Serif" font-size="10" text-anchor="middle">Matcher</text></a></g></g><g id="edge2" class="edge"><title>Node3-&gt;Node2</title><path fill="none" stroke="#191970" d="M67,-101.8C67,-92.91 67,-82.78 67,-75.75"/><polygon fill="#191970" stroke="#191970" points="63.5 -102.08 67 -112.08 70.5 -102.08 63.5 -102.08"/></g></g></svg>