<?xml version="1.0" encoding="UTF-8" standalone="no"?>
<!DOCTYPE svg PUBLIC "-//W3C//DTD SVG 1.1//EN"
 "http://www.w3.org/Graphics/SVG/1.1/DTD/svg11.dtd">
<!-- Generated by graphviz version 2.43.0 (0)
 -->
<!-- Title: pkgCache&lt; Str, Itr &gt;::ReleaseFile Pages: 1 -->
<svg width="426pt" height="183pt"
 viewBox="0.00 0.00 425.50 183.00" xmlns="http://www.w3.org/2000/svg" xmlns:xlink="http://www.w3.org/1999/xlink">
<g id="graph0" class="graph" transform="scale(1 1) rotate(0) translate(4 179)">
<title>pkgCache&lt; Str, Itr &gt;::ReleaseFile</title>
<polygon fill="white" stroke="transparent" points="-4,4 -4,-179 421.5,-179 421.5,4 -4,4"/>
<!-- Node1 -->
<g id="node1" class="node">
<title>Node1</title>
<g id="a_node1"><a xlink:title="stores information about the release files used to generate the cache">
<polygon fill="#bfbfbf" stroke="black" points="163.5,-0.5 163.5,-30.5 269.5,-30.5 269.5,-0.5 163.5,-0.5"/>
<text text-anchor="start" x="171.5" y="-18.5" font-family="Helvetica,sans-Serif" font-size="10.00">pkgCache&lt; Str, Itr</text>
<text text-anchor="middle" x="216.5" y="-7.5" font-family="Helvetica,sans-Serif" font-size="10.00"> &gt;::ReleaseFile</text>
</a>
</g>
</g>
<!-- Node2 -->
<g id="node2" class="node">
<title>Node2</title>
<g id="a_node2"><a xlink:href="classmap__pointer.xhtml" target="_top" xlink:title=" ">
<polygon fill="white" stroke="black" points="0,-144.5 0,-174.5 137,-174.5 137,-144.5 0,-144.5"/>
<text text-anchor="start" x="8" y="-162.5" font-family="Helvetica,sans-Serif" font-size="10.00">map_pointer&lt; pkgCache</text>
<text text-anchor="middle" x="68.5" y="-151.5" font-family="Helvetica,sans-Serif" font-size="10.00">::ReleaseFile &gt;</text>
</a>
</g>
</g>
<!-- Node2&#45;&gt;Node1 -->
<g id="edge1" class="edge">
<title>Node2&#45;&gt;Node1</title>
<path fill="none" stroke="#9a32cd" stroke-dasharray="5,2" d="M85.94,-136.51C104.9,-113.33 136.76,-76.44 168.5,-49 176.11,-42.42 185.1,-36.02 193.23,-30.66"/>
<polygon fill="#9a32cd" stroke="#9a32cd" points="83.14,-134.41 79.56,-144.38 88.58,-138.81 83.14,-134.41"/>
<text text-anchor="middle" x="190.5" y="-85" font-family="Helvetica,sans-Serif" font-size="10.00"> NextFile</text>
</g>
<!-- Node3 -->
<g id="node3" class="node">
<title>Node3</title>
<g id="a_node3"><a xlink:href="classmap__pointer.xhtml" target="_top" xlink:title=" ">
<polygon fill="white" stroke="black" points="155.5,-150 155.5,-169 277.5,-169 277.5,-150 155.5,-150"/>
<text text-anchor="middle" x="216.5" y="-157" font-family="Helvetica,sans-Serif" font-size="10.00">map_pointer&lt; char &gt;</text>
</a>
</g>
</g>
<!-- Node3&#45;&gt;Node1 -->
<g id="edge2" class="edge">
<title>Node3&#45;&gt;Node1</title>
<path fill="none" stroke="#9a32cd" stroke-dasharray="5,2" d="M216.5,-139.6C216.5,-110.75 216.5,-56.35 216.5,-30.64"/>
<polygon fill="#9a32cd" stroke="#9a32cd" points="213,-139.62 216.5,-149.62 220,-139.62 213,-139.62"/>
<text text-anchor="middle" x="243" y="-118" font-family="Helvetica,sans-Serif" font-size="10.00"> Archive</text>
<text text-anchor="middle" x="243" y="-107" font-family="Helvetica,sans-Serif" font-size="10.00">Codename</text>
<text text-anchor="middle" x="243" y="-96" font-family="Helvetica,sans-Serif" font-size="10.00">FileName</text>
<text text-anchor="middle" x="243" y="-85" font-family="Helvetica,sans-Serif" font-size="10.00">Label</text>
<text text-anchor="middle" x="243" y="-74" font-family="Helvetica,sans-Serif" font-size="10.00">Origin</text>
<text text-anchor="middle" x="243" y="-63" font-family="Helvetica,sans-Serif" font-size="10.00">Site</text>
<text text-anchor="middle" x="243" y="-52" font-family="Helvetica,sans-Serif" font-size="10.00">Version</text>
</g>
<!-- Node4 -->
<g id="node4" class="node">
<title>Node4</title>
<g id="a_node4"><a xlink:href="classmap__pointer.xhtml" target="_top" xlink:title=" ">
<polygon fill="white" stroke="black" points="295.5,-150 295.5,-169 417.5,-169 417.5,-150 295.5,-150"/>
<text text-anchor="middle" x="356.5" y="-157" font-family="Helvetica,sans-Serif" font-size="10.00">map_pointer&lt; void &gt;</text>
</a>
</g>
</g>
<!-- Node4&#45;&gt;Node1 -->
<g id="edge3" class="edge">
<title>Node4&#45;&gt;Node1</title>
<path fill="none" stroke="#9a32cd" stroke-dasharray="5,2" d="M346.47,-141.17C332.42,-118 305.04,-76.67 273.5,-49 265.45,-41.94 255.63,-35.68 246.42,-30.59"/>
<polygon fill="#9a32cd" stroke="#9a32cd" points="343.53,-143.08 351.64,-149.89 349.55,-139.5 343.53,-143.08"/>
<text text-anchor="middle" x="340.5" y="-85" font-family="Helvetica,sans-Serif" font-size="10.00"> d</text>
</g>
</g>
</svg>
