<svg xmlns="http://www.w3.org/2000/svg" xmlns:xlink="http://www.w3.org/1999/xlink" width="217pt" height="152pt" viewBox="0 0 217 152"><g id="graph0" class="graph" transform="scale(1 1) rotate(0) translate(4 148)"><title>PackageHasExactName</title><polygon fill="#fff" stroke="transparent" points="-4 4 -4 -148 213 -148 213 4 -4 4"/><g id="node1" class="node"><title>Node1</title><g id="a_node1"><a><polygon fill="#bfbfbf" stroke="#000" points="25.5 -.5 25.5 -19.5 156.5 -19.5 156.5 -.5 25.5 -.5"/><text x="91" y="-7.5" font-family="Helvetica,sans-Serif" font-size="10" text-anchor="middle">PackageHasExactName</text></a></g></g><g id="node2" class="node"><title>Node2</title><g id="a_node2"><a target="_top" xlink:href="classAPT_1_1CacheFilter_1_1PackageMatcher.xhtml"><polygon fill="#fff" stroke="#000" points="0 -67.5 0 -86.5 96 -86.5 96 -67.5 0 -67.5"/><text x="48" y="-74.5" font-family="Helvetica,sans-Serif" font-size="10" text-anchor="middle">PackageMatcher</text></a></g></g><g id="edge1" class="edge"><title>Node2-&gt;Node1</title><path fill="none" stroke="#191970" d="M59.55,-58.53C67.88,-45.95 78.76,-29.51 85.29,-19.63"/><polygon fill="#191970" stroke="#191970" points="56.4 -56.96 53.8 -67.23 62.24 -60.82 56.4 -56.96"/></g><g id="node3" class="node"><title>Node3</title><g id="a_node3"><a target="_top" xlink:href="classAPT_1_1CacheFilter_1_1Matcher.xhtml"><polygon fill="#fff" stroke="#000" points="15 -124.5 15 -143.5 71 -143.5 71 -124.5 15 -124.5"/><text x="43" y="-131.5" font-family="Helvetica,sans-Serif" font-size="10" text-anchor="middle">Matcher</text></a></g></g><g id="edge2" class="edge"><title>Node3-&gt;Node2</title><path fill="none" stroke="#191970" d="M44.69,-114.42C45.54,-105.05 46.53,-94.14 47.21,-86.71"/><polygon fill="#191970" stroke="#191970" points="41.2 -114.13 43.78 -124.41 48.17 -114.76 41.2 -114.13"/></g><g id="node4" class="node"><title>Node4</title><g id="a_node4"><a><polygon fill="#fff" stroke="#bfbfbf" points="123 -67.5 123 -86.5 167 -86.5 167 -67.5 123 -67.5"/><text x="145" y="-74.5" font-family="Helvetica,sans-Serif" font-size="10" text-anchor="middle">string</text></a></g></g><g id="edge3" class="edge"><title>Node4-&gt;Node1</title><path fill="none" stroke="#9a32cd" stroke-dasharray="5 2" d="M131.1,-59.27C120.57,-46.6 106.54,-29.7 98.17,-19.63"/><polygon fill="#9a32cd" stroke="#9a32cd" points="128.63 -61.78 137.72 -67.23 134.02 -57.31 128.63 -61.78"/><text x="137.5" y="-41" font-family="Helvetica,sans-Serif" font-size="10" text-anchor="middle">name</text></g><g id="node5" class="node"><title>Node5</title><g id="a_node5"><a><polygon fill="#fff" stroke="#bfbfbf" points="89 -124.5 89 -143.5 209 -143.5 209 -124.5 89 -124.5"/><text x="149" y="-131.5" font-family="Helvetica,sans-Serif" font-size="10" text-anchor="middle">basic_string&lt; Char &gt;</text></a></g></g><g id="edge4" class="edge"><title>Node5-&gt;Node4</title><path fill="none" stroke="#191970" d="M147.65,-114.42C146.97,-105.05 146.17,-94.14 145.63,-86.71"/><polygon fill="#191970" stroke="#191970" points="144.16 -114.69 148.38 -124.41 151.14 -114.18 144.16 -114.69"/></g></g></svg>