<svg xmlns="http://www.w3.org/2000/svg" xmlns:xlink="http://www.w3.org/1999/xlink" id="main" onload="init(evt)" version="1.1" xml:space="preserve"><style type="text/css">.edge:hover path{stroke:red}.edge:hover polygon{stroke:red;fill:red}</style><script type="text/javascript"><![CDATA[
var edges = document.getElementsByTagName('g');
if (edges && edges.length) {
  for (var i=0;i<edges.length;i++) {
    if (edges[i].id.substr(0,4)=='edge') {
      edges[i].setAttribute('class','edge');
    }
  }
}
]]></script><defs><circle id="rim" cx="0" cy="0" r="7"/><circle id="rim2" cx="0" cy="0" r="3.5"/><g id="zoomPlus"><use fill="#404040" xlink:href="#rim"><set attributeName="fill" begin="zoomplus.mouseover" end="zoomplus.mouseout" to="#808080"/></use><path fill="none" stroke="#fff" stroke-width="1.5" d="M-4,0h8M0,-4v8" pointer-events="none"/></g><g id="zoomMin"><use fill="#404040" xlink:href="#rim"><set attributeName="fill" begin="zoomminus.mouseover" end="zoomminus.mouseout" to="#808080"/></use><path fill="none" stroke="#fff" stroke-width="1.5" d="M-4,0h8" pointer-events="none"/></g><g id="dirArrow"><path fill="none" stroke="#fff" stroke-width="1.5" d="M0,-3.0v7 M-2.5,-0.5L0,-3.0L2.5,-0.5"/></g><g id="resetDef"><use fill="#404040" xlink:href="#rim2"><set attributeName="fill" begin="reset.mouseover" end="reset.mouseout" to="#808080"/></use></g></defs><script type="text/javascript">var viewWidth = 555; var viewHeight = 138; var sectionId = &apos;dynsection-1&apos;;</script><script xlink:href="svgpan.js"/><svg id="graph" class="graph"><g id="viewport"><title>PatternTreeParser::PatternNode</title><polygon fill="#fff" stroke="transparent" points="-4 4 -4 -133.5 551 -133.5 551 4 -4 4"/><g id="node1" class="node"><title>Node1</title><g id="a_node1"><a><polygon fill="#bfbfbf" stroke="#000" points="440 -66.5 440 -96.5 547 -96.5 547 -66.5 440 -66.5"/><text x="448" y="-84.5" font-family="Helvetica,sans-Serif" font-size="10" text-anchor="start">PatternTreeParser::</text><text x="493.5" y="-73.5" font-family="Helvetica,sans-Serif" font-size="10" text-anchor="middle">PatternNode</text></a></g></g><g id="node2" class="node"><title>Node2</title><g id="a_node2"><a target="_top" xlink:href="structAPT_1_1Internal_1_1PatternTreeParser_1_1Node.xhtml"><polygon fill="#fff" stroke="#000" points="270.5 -110 270.5 -129 312.5 -129 312.5 -110 270.5 -110"/><text x="291.5" y="-117" font-family="Helvetica,sans-Serif" font-size="10" text-anchor="middle">Node</text></a></g></g><g id="edge1" class="edge"><title>Node2-&gt;Node1</title><path fill="none" stroke="#191970" d="M322.82,-114.41C349.1,-109.93 388.12,-103.11 422,-96.5 427.77,-95.37 433.8,-94.16 439.8,-92.92"/><polygon fill="#191970" stroke="#191970" points="322 -111 312.73 -116.13 323.17 -117.9 322 -111"/></g><g id="node3" class="node"><title>Node3</title><g id="a_node3"><a target="_top" xlink:href="classAPT_1_1StringView.xhtml" xlink:title="Simple subset of std::string_view from C++17."><polygon fill="#fff" stroke="#000" points="257 -72 257 -91 326 -91 326 -72 257 -72"/><text x="291.5" y="-79" font-family="Helvetica,sans-Serif" font-size="10" text-anchor="middle">StringView</text></a></g></g><g id="edge2" class="edge"><title>Node3-&gt;Node1</title><path fill="none" stroke="#9a32cd" stroke-dasharray="5 2" d="M336.75,-81.5C367.22,-81.5 407.83,-81.5 439.94,-81.5"/><polygon fill="#9a32cd" stroke="#9a32cd" points="336.43 -78 326.43 -81.5 336.43 -85 336.43 -78"/><text x="394" y="-84.5" font-family="Helvetica,sans-Serif" font-size="10" text-anchor="middle">term</text></g><g id="node4" class="node"><title>Node4</title><g id="a_node4"><a><polygon fill="#fff" stroke="#bfbfbf" points="235 -.5 235 -52.5 348 -52.5 348 -.5 235 -.5"/><text x="243" y="-40.5" font-family="Helvetica,sans-Serif" font-size="10" text-anchor="start">vector&lt; std::unique</text><text x="243" y="-29.5" font-family="Helvetica,sans-Serif" font-size="10" text-anchor="start">_ptr&lt; APT::Internal</text><text x="243" y="-18.5" font-family="Helvetica,sans-Serif" font-size="10" text-anchor="start">::PatternTreeParser::</text><text x="291.5" y="-7.5" font-family="Helvetica,sans-Serif" font-size="10" text-anchor="middle">Node &gt; &gt;</text></a></g></g><g id="edge3" class="edge"><title>Node4-&gt;Node1</title><path fill="none" stroke="#9a32cd" stroke-dasharray="5 2" d="M358.17,-44.56C384.66,-51.85 414.82,-60.14 439.84,-67.02"/><polygon fill="#9a32cd" stroke="#9a32cd" points="358.78 -41.1 348.21 -41.82 356.93 -47.85 358.78 -41.1"/><text x="394" y="-63.5" font-family="Helvetica,sans-Serif" font-size="10" text-anchor="middle">arguments</text></g><g id="node5" class="node"><title>Node5</title><g id="a_node5"><a><polygon fill="#fff" stroke="#bfbfbf" points="0 -11.5 0 -41.5 150 -41.5 150 -11.5 0 -11.5"/><text x="8" y="-29.5" font-family="Helvetica,sans-Serif" font-size="10" text-anchor="start">unique_ptr&lt; APT::Internal</text><text x="75" y="-18.5" font-family="Helvetica,sans-Serif" font-size="10" text-anchor="middle">::PatternTreeParser::Node &gt;</text></a></g></g><g id="edge4" class="edge"><title>Node5-&gt;Node4</title><path fill="none" stroke="#9a32cd" stroke-dasharray="5 2" d="M160.32,-26.5C185.28,-26.5 211.98,-26.5 234.66,-26.5"/><polygon fill="#9a32cd" stroke="#9a32cd" points="160.12 -23 150.12 -26.5 160.12 -30 160.12 -23"/><text x="192.5" y="-29.5" font-family="Helvetica,sans-Serif" font-size="10" text-anchor="middle">elements</text></g></g></svg><g id="navigator" fill="#404254" transform="translate(0 0)"><rect width="60" height="60" x="0" y="0" fill="#f2f5e9" fill-opacity=".5" stroke="#606060" stroke-width=".5"/><use id="zoomplus" x="17" y="9" onmousedown="handleZoom(evt,'in')" xlink:href="#zoomPlus"/><use id="zoomminus" x="42" y="9" onmousedown="handleZoom(evt,'out')" xlink:href="#zoomMin"/><use id="reset" x="30" y="36" onmousedown="handleReset()" xlink:href="#resetDef"/><g id="arrowUp" onmousedown="handlePan(0,-1)" transform="translate(30 24)" xlink:href="#dirArrow"><use fill="#404040" xlink:href="#rim"><set attributeName="fill" begin="arrowUp.mouseover" end="arrowUp.mouseout" to="#808080"/></use><path fill="none" stroke="#fff" stroke-width="1.5" d="M0,-3.0v7 M-2.5,-0.5L0,-3.0L2.5,-0.5"/></g><g id="arrowRight" onmousedown="handlePan(1,0)" transform="rotate(90) translate(36 -43)" xlink:href="#dirArrow"><use fill="#404040" xlink:href="#rim"><set attributeName="fill" begin="arrowRight.mouseover" end="arrowRight.mouseout" to="#808080"/></use><path fill="none" stroke="#fff" stroke-width="1.5" d="M0,-3.0v7 M-2.5,-0.5L0,-3.0L2.5,-0.5"/></g><g id="arrowDown" onmousedown="handlePan(0,1)" transform="rotate(180) translate(-30 -48)" xlink:href="#dirArrow"><use fill="#404040" xlink:href="#rim"><set attributeName="fill" begin="arrowDown.mouseover" end="arrowDown.mouseout" to="#808080"/></use><path fill="none" stroke="#fff" stroke-width="1.5" d="M0,-3.0v7 M-2.5,-0.5L0,-3.0L2.5,-0.5"/></g><g id="arrowLeft" onmousedown="handlePan(-1,0)" transform="rotate(270) translate(-36 17)" xlink:href="#dirArrow"><use fill="#404040" xlink:href="#rim"><set attributeName="fill" begin="arrowLeft.mouseover" end="arrowLeft.mouseout" to="#808080"/></use><path fill="none" stroke="#fff" stroke-width="1.5" d="M0,-3.0v7 M-2.5,-0.5L0,-3.0L2.5,-0.5"/></g></g><svg width="100%" height="30" preserveAspectRatio="xMaxYMin meet" viewBox="0 0 15 15"><g id="arrow_out" transform="scale(0.3 0.3)"><a target="_base" xlink:href="structAPT_1_1Internal_1_1PatternTreeParser_1_1PatternNode__coll__graph_org.svg"><rect id="button" width="38" height="38" x="6" y="6" fill="#f2f5e9" fill-opacity=".5" stroke="#606060" stroke-width="1" rx="5" ry="5"/><path id="arrow" d="M 11.500037,31.436501 C 11.940474,20.09759 22.043105,11.32322 32.158766,21.979434 L 37.068811,17.246167 C 37.068811,17.246167 37.088388,32 37.088388,32 L 22.160133,31.978069 C 22.160133,31.978069 26.997745,27.140456 26.997745,27.140456 C 18.528582,18.264221 13.291696,25.230495 11.500037,31.436501 z" style="fill:#404040"/></a></g></svg></svg>