<svg xmlns="http://www.w3.org/2000/svg" xmlns:xlink="http://www.w3.org/1999/xlink" width="472" height="416" viewBox="0 0 354 311.5"><g id="graph0" class="graph" transform="scale(1 1) rotate(0) translate(4 307.5)"><title>pkgCache&lt; Str, Itr &gt;::Package</title><polygon fill="#fff" stroke="transparent" points="-4 4 -4 -307.5 350 -307.5 350 4 -4 4"/><g id="node1" class="node"><title>Node1</title><g id="a_node1"><a xlink:title="contains information for a single unique package"><polygon fill="#bfbfbf" stroke="#000" points="240 -126 240 -156 346 -156 346 -126 240 -126"/><text x="248" y="-144" font-family="Helvetica,sans-Serif" font-size="10" text-anchor="start">pkgCache&lt; Str, Itr</text><text x="293" y="-133" font-family="Helvetica,sans-Serif" font-size="10" text-anchor="middle">&gt;::Package</text></a></g></g><g id="node2" class="node"><title>Node2</title><g id="a_node2"><a target="_top" xlink:href="classmap__pointer.xhtml"><polygon fill="#fff" stroke="#000" points="0 -273 0 -303 137 -303 137 -273 0 -273"/><text x="8" y="-291" font-family="Helvetica,sans-Serif" font-size="10" text-anchor="start">map_pointer&lt; pkgCache</text><text x="68.5" y="-280" font-family="Helvetica,sans-Serif" font-size="10" text-anchor="middle">::Provides &gt;</text></a></g></g><g id="edge1" class="edge"><title>Node2-&gt;Node1</title><path fill="none" stroke="#9a32cd" stroke-dasharray="5 2" d="M131.78,-269.57C161.04,-258.97 195.28,-243.6 222,-223 247.05,-203.69 269.53,-174.14 281.92,-156.28"/><polygon fill="#9a32cd" stroke="#9a32cd" points="130.34 -266.37 122.07 -272.99 132.67 -272.97 130.34 -266.37"/><text x="188.5" y="-263" font-family="Helvetica,sans-Serif" font-size="10" text-anchor="middle">ProvidesList</text></g><g id="node3" class="node"><title>Node3</title><g id="a_node3"><a target="_top" xlink:href="classmap__pointer.xhtml"><polygon fill="#fff" stroke="#000" points="0 -224 0 -254 137 -254 137 -224 0 -224"/><text x="8" y="-242" font-family="Helvetica,sans-Serif" font-size="10" text-anchor="start">map_pointer&lt; pkgCache</text><text x="68.5" y="-231" font-family="Helvetica,sans-Serif" font-size="10" text-anchor="middle">::Dependency &gt;</text></a></g></g><g id="edge2" class="edge"><title>Node3-&gt;Node1</title><path fill="none" stroke="#9a32cd" stroke-dasharray="5 2" d="M121.43,-220.58C126.69,-218.7 131.95,-216.82 137,-215 174.83,-201.38 185.8,-201.5 222,-184 238.69,-175.93 256.48,-164.97 269.95,-156.13"/><polygon fill="#9a32cd" stroke="#9a32cd" points="120.25 -217.29 112.01 -223.95 122.6 -223.88 120.25 -217.29"/><text x="188.5" y="-211" font-family="Helvetica,sans-Serif" font-size="10" text-anchor="middle">RevDepends</text></g><g id="node4" class="node"><title>Node4</title><g id="a_node4"><a target="_top" xlink:href="classmap__pointer.xhtml"><polygon fill="#fff" stroke="#000" points="0 -175 0 -205 137 -205 137 -175 0 -175"/><text x="8" y="-193" font-family="Helvetica,sans-Serif" font-size="10" text-anchor="start">map_pointer&lt; pkgCache</text><text x="68.5" y="-182" font-family="Helvetica,sans-Serif" font-size="10" text-anchor="middle">::Package &gt;</text></a></g></g><g id="edge3" class="edge"><title>Node4-&gt;Node1</title><path fill="none" stroke="#9a32cd" stroke-dasharray="5 2" d="M146.99,-172.94C177.7,-166.17 212.2,-158.57 239.84,-152.49"/><polygon fill="#9a32cd" stroke="#9a32cd" points="146.18 -169.53 137.16 -175.1 147.68 -176.37 146.18 -169.53"/><text x="188.5" y="-172" font-family="Helvetica,sans-Serif" font-size="10" text-anchor="middle">NextPackage</text></g><g id="node5" class="node"><title>Node5</title><g id="a_node5"><a target="_top" xlink:href="classmap__pointer.xhtml"><polygon fill="#fff" stroke="#000" points="0 -126 0 -156 137 -156 137 -126 0 -126"/><text x="8" y="-144" font-family="Helvetica,sans-Serif" font-size="10" text-anchor="start">map_pointer&lt; pkgCache</text><text x="68.5" y="-133" font-family="Helvetica,sans-Serif" font-size="10" text-anchor="middle">::Group &gt;</text></a></g></g><g id="edge4" class="edge"><title>Node5-&gt;Node1</title><path fill="none" stroke="#9a32cd" stroke-dasharray="5 2" d="M147.39,-141C178,-141 212.32,-141 239.84,-141"/><polygon fill="#9a32cd" stroke="#9a32cd" points="147.16 -137.5 137.16 -141 147.16 -144.5 147.16 -137.5"/><text x="188.5" y="-144" font-family="Helvetica,sans-Serif" font-size="10" text-anchor="middle">Group</text></g><g id="node6" class="node"><title>Node6</title><g id="a_node6"><a target="_top" xlink:href="classmap__pointer.xhtml"><polygon fill="#fff" stroke="#000" points="0 -77 0 -107 137 -107 137 -77 0 -77"/><text x="8" y="-95" font-family="Helvetica,sans-Serif" font-size="10" text-anchor="start">map_pointer&lt; pkgCache</text><text x="68.5" y="-84" font-family="Helvetica,sans-Serif" font-size="10" text-anchor="middle">::Version &gt;</text></a></g></g><g id="edge5" class="edge"><title>Node6-&gt;Node1</title><path fill="none" stroke="#9a32cd" stroke-dasharray="5 2" d="M147.46,-100.61C171.57,-104.11 198.07,-108.82 222,-115 233.17,-117.88 245.04,-121.91 255.76,-125.92"/><polygon fill="#9a32cd" stroke="#9a32cd" points="147.68 -97.1 137.29 -99.18 146.71 -104.04 147.68 -97.1"/><text x="188.5" y="-129" font-family="Helvetica,sans-Serif" font-size="10" text-anchor="middle">CurrentVer</text><text x="188.5" y="-118" font-family="Helvetica,sans-Serif" font-size="10" text-anchor="middle">VersionList</text></g><g id="node7" class="node"><title>Node7</title><g id="a_node7"><a target="_top" xlink:href="classmap__pointer.xhtml"><polygon fill="#fff" stroke="#000" points="7.5 -38.5 7.5 -57.5 129.5 -57.5 129.5 -38.5 7.5 -38.5"/><text x="68.5" y="-45.5" font-family="Helvetica,sans-Serif" font-size="10" text-anchor="middle">map_pointer&lt; char &gt;</text></a></g></g><g id="edge6" class="edge"><title>Node7-&gt;Node1</title><path fill="none" stroke="#9a32cd" stroke-dasharray="5 2" d="M139.84,-59.06C166.45,-64.89 196.47,-73.5 222,-86 242.82,-96.19 263.28,-113.32 276.64,-125.76"/><polygon fill="#9a32cd" stroke="#9a32cd" points="140.33 -55.58 129.82 -56.96 138.89 -62.44 140.33 -55.58"/><text x="188.5" y="-89" font-family="Helvetica,sans-Serif" font-size="10" text-anchor="middle">Arch</text></g><g id="node8" class="node"><title>Node8</title><g id="a_node8"><a target="_top" xlink:href="classmap__pointer.xhtml"><polygon fill="#fff" stroke="#000" points="7.5 -.5 7.5 -19.5 129.5 -19.5 129.5 -.5 7.5 -.5"/><text x="68.5" y="-7.5" font-family="Helvetica,sans-Serif" font-size="10" text-anchor="middle">map_pointer&lt; void &gt;</text></a></g></g><g id="edge7" class="edge"><title>Node8-&gt;Node1</title><path fill="none" stroke="#9a32cd" stroke-dasharray="5 2" d="M139.7,-17.27C167.09,-22.62 197.69,-31.9 222,-48 251.99,-67.86 274.12,-105.06 284.82,-125.89"/><polygon fill="#9a32cd" stroke="#9a32cd" points="140.24 -13.81 129.78 -15.47 138.99 -20.7 140.24 -13.81"/><text x="188.5" y="-51" font-family="Helvetica,sans-Serif" font-size="10" text-anchor="middle">d</text></g></g></svg>