<svg xmlns="http://www.w3.org/2000/svg" xmlns:xlink="http://www.w3.org/1999/xlink" width="350pt" height="188pt" viewBox="0 0 350 187.5"><g id="graph0" class="graph" transform="scale(1 1) rotate(0) translate(4 183.5)"><title>pkgCache&lt; Str, Itr &gt;::PackageFile</title><polygon fill="#fff" stroke="transparent" points="-4 4 -4 -183.5 346 -183.5 346 4 -4 4"/><g id="node1" class="node"><title>Node1</title><g id="a_node1"><a xlink:title="stores information about the files used to generate the cache"><polygon fill="#bfbfbf" stroke="#000" points="236 -66 236 -96 342 -96 342 -66 236 -66"/><text x="244" y="-84" font-family="Helvetica,sans-Serif" font-size="10" text-anchor="start">pkgCache&lt; Str, Itr</text><text x="289" y="-73" font-family="Helvetica,sans-Serif" font-size="10" text-anchor="middle">&gt;::PackageFile</text></a></g></g><g id="node2" class="node"><title>Node2</title><g id="a_node2"><a target="_top" xlink:href="classmap__pointer.xhtml"><polygon fill="#fff" stroke="#000" points="0 -149 0 -179 137 -179 137 -149 0 -149"/><text x="8" y="-167" font-family="Helvetica,sans-Serif" font-size="10" text-anchor="start">map_pointer&lt; pkgCache</text><text x="68.5" y="-156" font-family="Helvetica,sans-Serif" font-size="10" text-anchor="middle">::PackageFile &gt;</text></a></g></g><g id="edge1" class="edge"><title>Node2-&gt;Node1</title><path fill="none" stroke="#9a32cd" stroke-dasharray="5 2" d="M134.45,-146.03C160.75,-138.09 191.17,-128.05 218,-117 232.66,-110.96 248.4,-103 261.24,-96.11"/><polygon fill="#9a32cd" stroke="#9a32cd" points="133.18 -142.76 124.59 -148.97 135.18 -149.47 133.18 -142.76"/><text x="186.5" y="-141" font-family="Helvetica,sans-Serif" font-size="10" text-anchor="middle">NextFile</text></g><g id="node3" class="node"><title>Node3</title><g id="a_node3"><a target="_top" xlink:href="classmap__pointer.xhtml"><polygon fill="#fff" stroke="#000" points="0 -100 0 -130 137 -130 137 -100 0 -100"/><text x="8" y="-118" font-family="Helvetica,sans-Serif" font-size="10" text-anchor="start">map_pointer&lt; pkgCache</text><text x="68.5" y="-107" font-family="Helvetica,sans-Serif" font-size="10" text-anchor="middle">::ReleaseFile &gt;</text></a></g></g><g id="edge2" class="edge"><title>Node3-&gt;Node1</title><path fill="none" stroke="#9a32cd" stroke-dasharray="5 2" d="M147.17,-103.83C170.01,-100.46 195.02,-96.67 218,-93 223.72,-92.09 229.7,-91.1 235.65,-90.11"/><polygon fill="#9a32cd" stroke="#9a32cd" points="146.57 -100.38 137.19 -105.3 147.59 -107.31 146.57 -100.38"/><text x="186.5" y="-105" font-family="Helvetica,sans-Serif" font-size="10" text-anchor="middle">Release</text></g><g id="node4" class="node"><title>Node4</title><g id="a_node4"><a target="_top" xlink:href="classmap__pointer.xhtml"><polygon fill="#fff" stroke="#000" points="7.5 -38.5 7.5 -57.5 129.5 -57.5 129.5 -38.5 7.5 -38.5"/><text x="68.5" y="-45.5" font-family="Helvetica,sans-Serif" font-size="10" text-anchor="middle">map_pointer&lt; char &gt;</text></a></g></g><g id="edge3" class="edge"><title>Node4-&gt;Node1</title><path fill="none" stroke="#9a32cd" stroke-dasharray="5 2" d="M139.86,-42.45C164.8,-42.07 192.89,-43.44 218,-49 233.26,-52.38 249.2,-59.35 262,-65.93"/><polygon fill="#9a32cd" stroke="#9a32cd" points="139.66 -38.96 129.75 -42.71 139.84 -45.96 139.66 -38.96"/><text x="186.5" y="-85" font-family="Helvetica,sans-Serif" font-size="10" text-anchor="middle">Architecture</text><text x="186.5" y="-74" font-family="Helvetica,sans-Serif" font-size="10" text-anchor="middle">Component</text><text x="186.5" y="-63" font-family="Helvetica,sans-Serif" font-size="10" text-anchor="middle">FileName</text><text x="186.5" y="-52" font-family="Helvetica,sans-Serif" font-size="10" text-anchor="middle">IndexType</text></g><g id="node5" class="node"><title>Node5</title><g id="a_node5"><a target="_top" xlink:href="classmap__pointer.xhtml"><polygon fill="#fff" stroke="#000" points="7.5 -.5 7.5 -19.5 129.5 -19.5 129.5 -.5 7.5 -.5"/><text x="68.5" y="-7.5" font-family="Helvetica,sans-Serif" font-size="10" text-anchor="middle">map_pointer&lt; void &gt;</text></a></g></g><g id="edge4" class="edge"><title>Node5-&gt;Node1</title><path fill="none" stroke="#9a32cd" stroke-dasharray="5 2" d="M140.1,-10.98C165.4,-13.28 193.67,-18.16 218,-28 239.34,-36.63 259.86,-53.52 273.1,-65.92"/><polygon fill="#9a32cd" stroke="#9a32cd" points="140.07 -7.47 129.83 -10.18 139.52 -14.45 140.07 -7.47"/><text x="186.5" y="-31" font-family="Helvetica,sans-Serif" font-size="10" text-anchor="middle">d</text></g></g></svg>