<?xml version="1.0" encoding="UTF-8" standalone="no"?>
<!DOCTYPE svg PUBLIC "-//W3C//DTD SVG 1.1//EN"
 "http://www.w3.org/Graphics/SVG/1.1/DTD/svg11.dtd">
<!-- Generated by graphviz version 2.43.0 (0)
 -->
<!-- Title: pkgPolicy::PkgPin Pages: 1 -->
<svg width="128pt" height="209pt"
 viewBox="0.00 0.00 128.00 209.00" xmlns="http://www.w3.org/2000/svg" xmlns:xlink="http://www.w3.org/1999/xlink">
<g id="graph0" class="graph" transform="scale(1 1) rotate(0) translate(4 205)">
<title>pkgPolicy::PkgPin</title>
<polygon fill="white" stroke="transparent" points="-4,4 -4,-205 124,-205 124,4 -4,4"/>
<!-- Node1 -->
<g id="node1" class="node">
<title>Node1</title>
<g id="a_node1"><a xlink:title=" ">
<polygon fill="#bfbfbf" stroke="black" points="5,-0.5 5,-19.5 107,-19.5 107,-0.5 5,-0.5"/>
<text text-anchor="middle" x="56" y="-7.5" font-family="Helvetica,sans-Serif" font-size="10.00">pkgPolicy::PkgPin</text>
</a>
</g>
</g>
<!-- Node2 -->
<g id="node2" class="node">
<title>Node2</title>
<g id="a_node2"><a xlink:href="structpkgPolicy_1_1Pin.xhtml" target="_top" xlink:title=" ">
<polygon fill="white" stroke="black" points="84,-57.5 84,-76.5 116,-76.5 116,-57.5 84,-57.5"/>
<text text-anchor="middle" x="100" y="-64.5" font-family="Helvetica,sans-Serif" font-size="10.00">Pin</text>
</a>
</g>
</g>
<!-- Node2&#45;&gt;Node1 -->
<g id="edge1" class="edge">
<title>Node2&#45;&gt;Node1</title>
<path fill="none" stroke="midnightblue" d="M86.83,-49.53C78.99,-39.74 69.36,-27.7 62.97,-19.71"/>
<polygon fill="midnightblue" stroke="midnightblue" points="84.14,-51.78 93.12,-57.41 89.61,-47.41 84.14,-51.78"/>
</g>
<!-- Node3 -->
<g id="node3" class="node">
<title>Node3</title>
<g id="a_node3"><a xlink:title=" ">
<polygon fill="white" stroke="#bfbfbf" points="38,-124.5 38,-143.5 82,-143.5 82,-124.5 38,-124.5"/>
<text text-anchor="middle" x="60" y="-131.5" font-family="Helvetica,sans-Serif" font-size="10.00">string</text>
</a>
</g>
</g>
<!-- Node3&#45;&gt;Node1 -->
<g id="edge4" class="edge">
<title>Node3&#45;&gt;Node1</title>
<path fill="none" stroke="#9a32cd" stroke-dasharray="5,2" d="M57.07,-114.3C55.52,-103.44 53.78,-89.48 53,-77 52.45,-68.13 52.71,-65.88 53,-57 53.42,-44.04 54.51,-29.06 55.25,-19.81"/>
<polygon fill="#9a32cd" stroke="#9a32cd" points="53.63,-114.93 58.57,-124.3 60.55,-113.89 53.63,-114.93"/>
<text text-anchor="middle" x="64" y="-64.5" font-family="Helvetica,sans-Serif" font-size="10.00"> Pkg</text>
</g>
<!-- Node3&#45;&gt;Node2 -->
<g id="edge2" class="edge">
<title>Node3&#45;&gt;Node2</title>
<path fill="none" stroke="#9a32cd" stroke-dasharray="5,2" d="M70.75,-115.53C78.49,-102.95 88.61,-86.51 94.69,-76.63"/>
<polygon fill="#9a32cd" stroke="#9a32cd" points="67.65,-113.88 65.39,-124.23 73.62,-117.55 67.65,-113.88"/>
<text text-anchor="middle" x="95.5" y="-98" font-family="Helvetica,sans-Serif" font-size="10.00"> Data</text>
</g>
<!-- Node4 -->
<g id="node4" class="node">
<title>Node4</title>
<g id="a_node4"><a xlink:title=" ">
<polygon fill="white" stroke="#bfbfbf" points="0,-181.5 0,-200.5 120,-200.5 120,-181.5 0,-181.5"/>
<text text-anchor="middle" x="60" y="-188.5" font-family="Helvetica,sans-Serif" font-size="10.00">basic_string&lt; Char &gt;</text>
</a>
</g>
</g>
<!-- Node4&#45;&gt;Node3 -->
<g id="edge3" class="edge">
<title>Node4&#45;&gt;Node3</title>
<path fill="none" stroke="midnightblue" d="M60,-171.12C60,-161.82 60,-151.06 60,-143.71"/>
<polygon fill="midnightblue" stroke="midnightblue" points="56.5,-171.41 60,-181.41 63.5,-171.41 56.5,-171.41"/>
</g>
</g>
</svg>
