<?xml version="1.0" encoding="UTF-8" standalone="no"?>
<!DOCTYPE svg PUBLIC "-//W3C//DTD SVG 1.1//EN"
 "http://www.w3.org/Graphics/SVG/1.1/DTD/svg11.dtd">
<!-- Generated by graphviz version 2.43.0 (0)
 -->
<!-- Title: Private::AlternateURI Pages: 1 -->
<svg width="211pt" height="241pt"
 viewBox="0.00 0.00 210.50 241.00" xmlns="http://www.w3.org/2000/svg" xmlns:xlink="http://www.w3.org/1999/xlink">
<g id="graph0" class="graph" transform="scale(1 1) rotate(0) translate(4 237)">
<title>Private::AlternateURI</title>
<polygon fill="white" stroke="transparent" points="-4,4 -4,-237 206.5,-237 206.5,4 -4,4"/>
<!-- Node1 -->
<g id="node1" class="node">
<title>Node1</title>
<g id="a_node1"><a xlink:title=" ">
<polygon fill="#bfbfbf" stroke="black" points="0.5,-0.5 0.5,-19.5 119.5,-19.5 119.5,-0.5 0.5,-0.5"/>
<text text-anchor="middle" x="60" y="-7.5" font-family="Helvetica,sans-Serif" font-size="10.00">Private::AlternateURI</text>
</a>
</g>
</g>
<!-- Node2 -->
<g id="node2" class="node">
<title>Node2</title>
<g id="a_node2"><a xlink:title=" ">
<polygon fill="white" stroke="#bfbfbf" points="83.5,-67.5 83.5,-97.5 202.5,-97.5 202.5,-67.5 83.5,-67.5"/>
<text text-anchor="start" x="91.5" y="-85.5" font-family="Helvetica,sans-Serif" font-size="10.00">unordered_map&lt; std</text>
<text text-anchor="middle" x="143" y="-74.5" font-family="Helvetica,sans-Serif" font-size="10.00">::string, std::string &gt;</text>
</a>
</g>
</g>
<!-- Node2&#45;&gt;Node1 -->
<g id="edge1" class="edge">
<title>Node2&#45;&gt;Node1</title>
<path fill="none" stroke="#9a32cd" stroke-dasharray="5,2" d="M118.29,-60.51C102.34,-46.96 82.41,-30.03 70.47,-19.89"/>
<polygon fill="#9a32cd" stroke="#9a32cd" points="116.32,-63.43 126.2,-67.23 120.85,-58.09 116.32,-63.43"/>
<text text-anchor="middle" x="135.5" y="-41" font-family="Helvetica,sans-Serif" font-size="10.00"> changefields</text>
</g>
<!-- Node3 -->
<g id="node3" class="node">
<title>Node3</title>
<g id="a_node3"><a xlink:title=" ">
<polygon fill="white" stroke="#bfbfbf" points="38,-156.5 38,-175.5 82,-175.5 82,-156.5 38,-156.5"/>
<text text-anchor="middle" x="60" y="-163.5" font-family="Helvetica,sans-Serif" font-size="10.00">string</text>
</a>
</g>
</g>
<!-- Node3&#45;&gt;Node1 -->
<g id="edge4" class="edge">
<title>Node3&#45;&gt;Node1</title>
<path fill="none" stroke="#9a32cd" stroke-dasharray="5,2" d="M57.18,-146.28C54.55,-126.57 51.28,-94.61 53,-67 54.05,-50.18 56.85,-30.68 58.57,-19.7"/>
<polygon fill="#9a32cd" stroke="#9a32cd" points="53.73,-146.94 58.61,-156.35 60.66,-145.96 53.73,-146.94"/>
<text text-anchor="middle" x="63.5" y="-80" font-family="Helvetica,sans-Serif" font-size="10.00"> URI</text>
</g>
<!-- Node3&#45;&gt;Node2 -->
<g id="edge2" class="edge">
<title>Node3&#45;&gt;Node2</title>
<path fill="none" stroke="#9a32cd" stroke-dasharray="5,2" d="M76.09,-149.2C91.33,-134.23 114,-111.97 128.64,-97.6"/>
<polygon fill="#9a32cd" stroke="#9a32cd" points="73.57,-146.77 68.88,-156.28 78.47,-151.77 73.57,-146.77"/>
<text text-anchor="middle" x="132.5" y="-130" font-family="Helvetica,sans-Serif" font-size="10.00"> elements</text>
<text text-anchor="middle" x="132.5" y="-119" font-family="Helvetica,sans-Serif" font-size="10.00">keys</text>
</g>
<!-- Node4 -->
<g id="node4" class="node">
<title>Node4</title>
<g id="a_node4"><a xlink:title=" ">
<polygon fill="white" stroke="#bfbfbf" points="0,-213.5 0,-232.5 120,-232.5 120,-213.5 0,-213.5"/>
<text text-anchor="middle" x="60" y="-220.5" font-family="Helvetica,sans-Serif" font-size="10.00">basic_string&lt; Char &gt;</text>
</a>
</g>
</g>
<!-- Node4&#45;&gt;Node3 -->
<g id="edge3" class="edge">
<title>Node4&#45;&gt;Node3</title>
<path fill="none" stroke="midnightblue" d="M60,-203.12C60,-193.82 60,-183.06 60,-175.71"/>
<polygon fill="midnightblue" stroke="midnightblue" points="56.5,-203.41 60,-213.41 63.5,-203.41 56.5,-203.41"/>
</g>
</g>
</svg>
