<?xml version="1.0" encoding="UTF-8" standalone="no"?>
<!DOCTYPE svg PUBLIC "-//W3C//DTD SVG 1.1//EN"
 "http://www.w3.org/Graphics/SVG/1.1/DTD/svg11.dtd">
<!-- Generated by graphviz version 2.43.0 (0)
 -->
<!-- Title: VersionAnyMatcher Pages: 1 -->
<svg width="381pt" height="294pt"
 viewBox="0.00 0.00 381.00 294.00" xmlns="http://www.w3.org/2000/svg" xmlns:xlink="http://www.w3.org/1999/xlink">
<g id="graph0" class="graph" transform="scale(1 1) rotate(0) translate(4 290)">
<title>VersionAnyMatcher</title>
<polygon fill="white" stroke="transparent" points="-4,4 -4,-290 377,-290 377,4 -4,4"/>
<!-- Node1 -->
<g id="node1" class="node">
<title>Node1</title>
<g id="a_node1"><a xlink:title=" ">
<polygon fill="#bfbfbf" stroke="black" points="92,-133.5 92,-152.5 203,-152.5 203,-133.5 92,-133.5"/>
<text text-anchor="middle" x="147.5" y="-140.5" font-family="Helvetica,sans-Serif" font-size="10.00">VersionAnyMatcher</text>
</a>
</g>
</g>
<!-- Node3 -->
<g id="node3" class="node">
<title>Node3</title>
<g id="a_node3"><a xlink:href="structAPT_1_1Internal_1_1Patterns_1_1VersionDepends.xhtml" target="_top" xlink:title=" ">
<polygon fill="white" stroke="black" points="258.5,-266.5 258.5,-285.5 353.5,-285.5 353.5,-266.5 258.5,-266.5"/>
<text text-anchor="middle" x="306" y="-273.5" font-family="Helvetica,sans-Serif" font-size="10.00">VersionDepends</text>
</a>
</g>
</g>
<!-- Node1&#45;&gt;Node3 -->
<g id="edge2" class="edge">
<title>Node1&#45;&gt;Node3</title>
<path fill="none" stroke="midnightblue" d="M158.31,-161.57C172.65,-186.92 201.74,-232.05 239,-257 244.85,-260.91 251.5,-264.03 258.29,-266.52"/>
<polygon fill="midnightblue" stroke="midnightblue" points="161.27,-159.69 153.39,-152.61 155.14,-163.06 161.27,-159.69"/>
</g>
<!-- Node4 -->
<g id="node4" class="node">
<title>Node4</title>
<g id="a_node4"><a xlink:href="structAPT_1_1Internal_1_1Patterns_1_1VersionIsAnyVersion.xhtml" target="_top" xlink:title=" ">
<polygon fill="white" stroke="black" points="248,-228.5 248,-247.5 364,-247.5 364,-228.5 248,-228.5"/>
<text text-anchor="middle" x="306" y="-235.5" font-family="Helvetica,sans-Serif" font-size="10.00">VersionIsAnyVersion</text>
</a>
</g>
</g>
<!-- Node1&#45;&gt;Node4 -->
<g id="edge3" class="edge">
<title>Node1&#45;&gt;Node4</title>
<path fill="none" stroke="midnightblue" d="M164.69,-160.31C181.67,-177.51 209.9,-203.5 239,-219 246.16,-222.81 254.17,-225.94 262.07,-228.48"/>
<polygon fill="midnightblue" stroke="midnightblue" points="166.76,-157.42 157.3,-152.66 161.73,-162.28 166.76,-157.42"/>
</g>
<!-- Node5 -->
<g id="node5" class="node">
<title>Node5</title>
<g id="a_node5"><a xlink:href="structAPT_1_1Internal_1_1Patterns_1_1VersionIsArchive.xhtml" target="_top" xlink:title=" ">
<polygon fill="white" stroke="black" points="257,-190.5 257,-209.5 355,-209.5 355,-190.5 257,-190.5"/>
<text text-anchor="middle" x="306" y="-197.5" font-family="Helvetica,sans-Serif" font-size="10.00">VersionIsArchive</text>
</a>
</g>
</g>
<!-- Node1&#45;&gt;Node5 -->
<g id="edge4" class="edge">
<title>Node1&#45;&gt;Node5</title>
<path fill="none" stroke="midnightblue" d="M179.05,-156.88C196.43,-164.51 218.71,-173.85 239,-181 248.56,-184.37 259.05,-187.6 268.79,-190.4"/>
<polygon fill="midnightblue" stroke="midnightblue" points="180,-153.47 169.44,-152.62 177.16,-159.87 180,-153.47"/>
</g>
<!-- Node6 -->
<g id="node6" class="node">
<title>Node6</title>
<g id="a_node6"><a xlink:href="structAPT_1_1Internal_1_1Patterns_1_1VersionIsOrigin.xhtml" target="_top" xlink:title=" ">
<polygon fill="white" stroke="black" points="261,-152.5 261,-171.5 351,-171.5 351,-152.5 261,-152.5"/>
<text text-anchor="middle" x="306" y="-159.5" font-family="Helvetica,sans-Serif" font-size="10.00">VersionIsOrigin</text>
</a>
</g>
</g>
<!-- Node1&#45;&gt;Node6 -->
<g id="edge5" class="edge">
<title>Node1&#45;&gt;Node6</title>
<path fill="none" stroke="midnightblue" d="M213.57,-150.9C229.5,-152.83 246.19,-154.86 260.88,-156.64"/>
<polygon fill="midnightblue" stroke="midnightblue" points="213.59,-147.38 203.24,-149.65 212.74,-154.33 213.59,-147.38"/>
</g>
<!-- Node7 -->
<g id="node7" class="node">
<title>Node7</title>
<g id="a_node7"><a xlink:href="structAPT_1_1Internal_1_1Patterns_1_1VersionIsSection.xhtml" target="_top" xlink:title=" ">
<polygon fill="white" stroke="black" points="257.5,-114.5 257.5,-133.5 354.5,-133.5 354.5,-114.5 257.5,-114.5"/>
<text text-anchor="middle" x="306" y="-121.5" font-family="Helvetica,sans-Serif" font-size="10.00">VersionIsSection</text>
</a>
</g>
</g>
<!-- Node1&#45;&gt;Node7 -->
<g id="edge6" class="edge">
<title>Node1&#45;&gt;Node7</title>
<path fill="none" stroke="midnightblue" d="M213.31,-135.13C228.05,-133.34 243.45,-131.47 257.33,-129.79"/>
<polygon fill="midnightblue" stroke="midnightblue" points="212.74,-131.67 203.24,-136.35 213.59,-138.62 212.74,-131.67"/>
</g>
<!-- Node8 -->
<g id="node8" class="node">
<title>Node8</title>
<g id="a_node8"><a xlink:href="structAPT_1_1Internal_1_1Patterns_1_1VersionIsSourcePackage.xhtml" target="_top" xlink:title=" ">
<polygon fill="white" stroke="black" points="239,-76.5 239,-95.5 373,-95.5 373,-76.5 239,-76.5"/>
<text text-anchor="middle" x="306" y="-83.5" font-family="Helvetica,sans-Serif" font-size="10.00">VersionIsSourcePackage</text>
</a>
</g>
</g>
<!-- Node1&#45;&gt;Node8 -->
<g id="edge7" class="edge">
<title>Node1&#45;&gt;Node8</title>
<path fill="none" stroke="midnightblue" d="M179.05,-129.12C196.43,-121.49 218.71,-112.15 239,-105 248.56,-101.63 259.05,-98.4 268.79,-95.6"/>
<polygon fill="midnightblue" stroke="midnightblue" points="177.16,-126.13 169.44,-133.38 180,-132.53 177.16,-126.13"/>
</g>
<!-- Node9 -->
<g id="node9" class="node">
<title>Node9</title>
<g id="a_node9"><a xlink:href="structAPT_1_1Internal_1_1Patterns_1_1VersionIsSourceVersion.xhtml" target="_top" xlink:title=" ">
<polygon fill="white" stroke="black" points="241,-38.5 241,-57.5 371,-57.5 371,-38.5 241,-38.5"/>
<text text-anchor="middle" x="306" y="-45.5" font-family="Helvetica,sans-Serif" font-size="10.00">VersionIsSourceVersion</text>
</a>
</g>
</g>
<!-- Node1&#45;&gt;Node9 -->
<g id="edge8" class="edge">
<title>Node1&#45;&gt;Node9</title>
<path fill="none" stroke="midnightblue" d="M164.69,-125.69C181.67,-108.49 209.9,-82.5 239,-67 246.16,-63.19 254.17,-60.06 262.07,-57.52"/>
<polygon fill="midnightblue" stroke="midnightblue" points="161.73,-123.72 157.3,-133.34 166.76,-128.58 161.73,-123.72"/>
</g>
<!-- Node10 -->
<g id="node10" class="node">
<title>Node10</title>
<g id="a_node10"><a xlink:href="structAPT_1_1Internal_1_1Patterns_1_1VersionIsVersion.xhtml" target="_top" xlink:title=" ">
<polygon fill="white" stroke="black" points="257.5,-0.5 257.5,-19.5 354.5,-19.5 354.5,-0.5 257.5,-0.5"/>
<text text-anchor="middle" x="306" y="-7.5" font-family="Helvetica,sans-Serif" font-size="10.00">VersionIsVersion</text>
</a>
</g>
</g>
<!-- Node1&#45;&gt;Node10 -->
<g id="edge9" class="edge">
<title>Node1&#45;&gt;Node10</title>
<path fill="none" stroke="midnightblue" d="M158.31,-124.43C172.65,-99.08 201.74,-53.95 239,-29 244.75,-25.15 251.28,-22.07 257.94,-19.61"/>
<polygon fill="midnightblue" stroke="midnightblue" points="155.14,-122.94 153.39,-133.39 161.27,-126.31 155.14,-122.94"/>
</g>
<!-- Node2 -->
<g id="node2" class="node">
<title>Node2</title>
<g id="a_node2"><a xlink:href="classAPT_1_1CacheFilter_1_1Matcher.xhtml" target="_top" xlink:title=" ">
<polygon fill="white" stroke="black" points="0,-133.5 0,-152.5 56,-152.5 56,-133.5 0,-133.5"/>
<text text-anchor="middle" x="28" y="-140.5" font-family="Helvetica,sans-Serif" font-size="10.00">Matcher</text>
</a>
</g>
</g>
<!-- Node2&#45;&gt;Node1 -->
<g id="edge1" class="edge">
<title>Node2&#45;&gt;Node1</title>
<path fill="none" stroke="midnightblue" d="M66.4,-143C74.43,-143 83.08,-143 91.62,-143"/>
<polygon fill="midnightblue" stroke="midnightblue" points="66.25,-139.5 56.25,-143 66.25,-146.5 66.25,-139.5"/>
</g>
</g>
</svg>
