<svg xmlns="http://www.w3.org/2000/svg" xmlns:xlink="http://www.w3.org/1999/xlink" width="740" height="184" viewBox="0 0 555 137.5"><g id="graph0" class="graph" transform="scale(1 1) rotate(0) translate(4 133.5)"><title>PatternTreeParser::PatternNode</title><polygon fill="#fff" stroke="transparent" points="-4 4 -4 -133.5 551 -133.5 551 4 -4 4"/><g id="node1" class="node"><title>Node1</title><g id="a_node1"><a><polygon fill="#bfbfbf" stroke="#000" points="440 -66.5 440 -96.5 547 -96.5 547 -66.5 440 -66.5"/><text x="448" y="-84.5" font-family="Helvetica,sans-Serif" font-size="10" text-anchor="start">PatternTreeParser::</text><text x="493.5" y="-73.5" font-family="Helvetica,sans-Serif" font-size="10" text-anchor="middle">PatternNode</text></a></g></g><g id="node2" class="node"><title>Node2</title><g id="a_node2"><a target="_top" xlink:href="structAPT_1_1Internal_1_1PatternTreeParser_1_1Node.xhtml"><polygon fill="#fff" stroke="#000" points="270.5 -110 270.5 -129 312.5 -129 312.5 -110 270.5 -110"/><text x="291.5" y="-117" font-family="Helvetica,sans-Serif" font-size="10" text-anchor="middle">Node</text></a></g></g><g id="edge1" class="edge"><title>Node2-&gt;Node1</title><path fill="none" stroke="#191970" d="M322.82,-114.41C349.1,-109.93 388.12,-103.11 422,-96.5 427.77,-95.37 433.8,-94.16 439.8,-92.92"/><polygon fill="#191970" stroke="#191970" points="322 -111 312.73 -116.13 323.17 -117.9 322 -111"/></g><g id="node3" class="node"><title>Node3</title><g id="a_node3"><a target="_top" xlink:href="classAPT_1_1StringView.xhtml" xlink:title="Simple subset of std::string_view from C++17."><polygon fill="#fff" stroke="#000" points="257 -72 257 -91 326 -91 326 -72 257 -72"/><text x="291.5" y="-79" font-family="Helvetica,sans-Serif" font-size="10" text-anchor="middle">StringView</text></a></g></g><g id="edge2" class="edge"><title>Node3-&gt;Node1</title><path fill="none" stroke="#9a32cd" stroke-dasharray="5 2" d="M336.75,-81.5C367.22,-81.5 407.83,-81.5 439.94,-81.5"/><polygon fill="#9a32cd" stroke="#9a32cd" points="336.43 -78 326.43 -81.5 336.43 -85 336.43 -78"/><text x="394" y="-84.5" font-family="Helvetica,sans-Serif" font-size="10" text-anchor="middle">term</text></g><g id="node4" class="node"><title>Node4</title><g id="a_node4"><a><polygon fill="#fff" stroke="#bfbfbf" points="235 -.5 235 -52.5 348 -52.5 348 -.5 235 -.5"/><text x="243" y="-40.5" font-family="Helvetica,sans-Serif" font-size="10" text-anchor="start">vector&lt; std::unique</text><text x="243" y="-29.5" font-family="Helvetica,sans-Serif" font-size="10" text-anchor="start">_ptr&lt; APT::Internal</text><text x="243" y="-18.5" font-family="Helvetica,sans-Serif" font-size="10" text-anchor="start">::PatternTreeParser::</text><text x="291.5" y="-7.5" font-family="Helvetica,sans-Serif" font-size="10" text-anchor="middle">Node &gt; &gt;</text></a></g></g><g id="edge3" class="edge"><title>Node4-&gt;Node1</title><path fill="none" stroke="#9a32cd" stroke-dasharray="5 2" d="M358.17,-44.56C384.66,-51.85 414.82,-60.14 439.84,-67.02"/><polygon fill="#9a32cd" stroke="#9a32cd" points="358.78 -41.1 348.21 -41.82 356.93 -47.85 358.78 -41.1"/><text x="394" y="-63.5" font-family="Helvetica,sans-Serif" font-size="10" text-anchor="middle">arguments</text></g><g id="node5" class="node"><title>Node5</title><g id="a_node5"><a><polygon fill="#fff" stroke="#bfbfbf" points="0 -11.5 0 -41.5 150 -41.5 150 -11.5 0 -11.5"/><text x="8" y="-29.5" font-family="Helvetica,sans-Serif" font-size="10" text-anchor="start">unique_ptr&lt; APT::Internal</text><text x="75" y="-18.5" font-family="Helvetica,sans-Serif" font-size="10" text-anchor="middle">::PatternTreeParser::Node &gt;</text></a></g></g><g id="edge4" class="edge"><title>Node5-&gt;Node4</title><path fill="none" stroke="#9a32cd" stroke-dasharray="5 2" d="M160.32,-26.5C185.28,-26.5 211.98,-26.5 234.66,-26.5"/><polygon fill="#9a32cd" stroke="#9a32cd" points="160.12 -23 150.12 -26.5 160.12 -30 160.12 -23"/><text x="192.5" y="-29.5" font-family="Helvetica,sans-Serif" font-size="10" text-anchor="middle">elements</text></g></g></svg>