<svg xmlns="http://www.w3.org/2000/svg" xmlns:xlink="http://www.w3.org/1999/xlink" width="484" height="176pt" viewBox="0 0 363 175.5"><g id="graph0" class="graph" transform="scale(1 1) rotate(0) translate(4 171.5)"><title>pkgCache&lt; Str, Itr &gt;::Provides</title><polygon fill="#fff" stroke="transparent" points="-4 4 -4 -171.5 359 -171.5 359 4 -4 4"/><g id="node1" class="node"><title>Node1</title><g id="a_node1"><a xlink:title="handles virtual packages"><polygon fill="#bfbfbf" stroke="#000" points="249 -63 249 -93 355 -93 355 -63 249 -63"/><text x="257" y="-81" font-family="Helvetica,sans-Serif" font-size="10" text-anchor="start">pkgCache&lt; Str, Itr</text><text x="302" y="-70" font-family="Helvetica,sans-Serif" font-size="10" text-anchor="middle">&gt;::Provides</text></a></g></g><g id="node2" class="node"><title>Node2</title><g id="a_node2"><a target="_top" xlink:href="classmap__pointer.xhtml"><polygon fill="#fff" stroke="#000" points="0 -137 0 -167 137 -167 137 -137 0 -137"/><text x="8" y="-155" font-family="Helvetica,sans-Serif" font-size="10" text-anchor="start">map_pointer&lt; pkgCache</text><text x="68.5" y="-144" font-family="Helvetica,sans-Serif" font-size="10" text-anchor="middle">::Provides &gt;</text></a></g></g><g id="edge1" class="edge"><title>Node2-&gt;Node1</title><path fill="none" stroke="#9a32cd" stroke-dasharray="5 2" d="M142.34,-134.45C170.33,-127.11 202.4,-117.97 231,-108 243.36,-103.69 256.63,-98.23 268.26,-93.15"/><polygon fill="#9a32cd" stroke="#9a32cd" points="141.43 -131.07 132.63 -136.97 143.18 -137.85 141.43 -131.07"/><text x="193" y="-144" font-family="Helvetica,sans-Serif" font-size="10" text-anchor="middle">NextPkgProv</text><text x="193" y="-133" font-family="Helvetica,sans-Serif" font-size="10" text-anchor="middle">NextProvides</text></g><g id="node3" class="node"><title>Node3</title><g id="a_node3"><a target="_top" xlink:href="classmap__pointer.xhtml"><polygon fill="#fff" stroke="#000" points="0 -88 0 -118 137 -118 137 -88 0 -88"/><text x="8" y="-106" font-family="Helvetica,sans-Serif" font-size="10" text-anchor="start">map_pointer&lt; pkgCache</text><text x="68.5" y="-95" font-family="Helvetica,sans-Serif" font-size="10" text-anchor="middle">::Version &gt;</text></a></g></g><g id="edge2" class="edge"><title>Node3-&gt;Node1</title><path fill="none" stroke="#9a32cd" stroke-dasharray="5 2" d="M147.28,-94.6C180.7,-90.99 218.86,-86.87 248.8,-83.64"/><polygon fill="#9a32cd" stroke="#9a32cd" points="146.65 -91.15 137.08 -95.7 147.4 -98.11 146.65 -91.15"/><text x="193" y="-96" font-family="Helvetica,sans-Serif" font-size="10" text-anchor="middle">Version</text></g><g id="node4" class="node"><title>Node4</title><g id="a_node4"><a target="_top" xlink:href="classmap__pointer.xhtml"><polygon fill="#fff" stroke="#000" points="0 -39 0 -69 137 -69 137 -39 0 -39"/><text x="8" y="-57" font-family="Helvetica,sans-Serif" font-size="10" text-anchor="start">map_pointer&lt; pkgCache</text><text x="68.5" y="-46" font-family="Helvetica,sans-Serif" font-size="10" text-anchor="middle">::Package &gt;</text></a></g></g><g id="edge3" class="edge"><title>Node4-&gt;Node1</title><path fill="none" stroke="#9a32cd" stroke-dasharray="5 2" d="M147.12,-61.45C173.72,-64.07 203.67,-67.08 231,-70 236.72,-70.61 242.69,-71.27 248.64,-71.93"/><polygon fill="#9a32cd" stroke="#9a32cd" points="147.39 -57.96 137.1 -60.47 146.71 -64.93 147.39 -57.96"/><text x="193" y="-73" font-family="Helvetica,sans-Serif" font-size="10" text-anchor="middle">ParentPkg</text></g><g id="node5" class="node"><title>Node5</title><g id="a_node5"><a target="_top" xlink:href="classmap__pointer.xhtml"><polygon fill="#fff" stroke="#000" points="7.5 -.5 7.5 -19.5 129.5 -19.5 129.5 -.5 7.5 -.5"/><text x="68.5" y="-7.5" font-family="Helvetica,sans-Serif" font-size="10" text-anchor="middle">map_pointer&lt; char &gt;</text></a></g></g><g id="edge4" class="edge"><title>Node5-&gt;Node1</title><path fill="none" stroke="#9a32cd" stroke-dasharray="5 2" d="M132.89,-21.59C162.99,-27.83 199.24,-36.44 231,-47 244.24,-51.4 258.4,-57.41 270.49,-62.96"/><polygon fill="#9a32cd" stroke="#9a32cd" points="133.44 -18.13 122.94 -19.56 132.04 -24.99 133.44 -18.13"/><text x="193" y="-50" font-family="Helvetica,sans-Serif" font-size="10" text-anchor="middle">ProvideVersion</text></g></g></svg>