<svg xmlns="http://www.w3.org/2000/svg" xmlns:xlink="http://www.w3.org/1999/xlink" width="184" height="140pt" viewBox="0 0 138 140"><g id="graph0" class="graph" transform="scale(1 1) rotate(0) translate(4 136)"><title>VersionIsSourceVersion</title><polygon fill="#fff" stroke="transparent" points="-4 4 -4 -136 134 -136 134 4 -4 4"/><g id="node1" class="node"><title>Node1</title><g id="a_node1"><a><polygon fill="#bfbfbf" stroke="#000" points="0 -.5 0 -19.5 130 -19.5 130 -.5 0 -.5"/><text x="65" y="-7.5" font-family="Helvetica,sans-Serif" font-size="10" text-anchor="middle">VersionIsSourceVersion</text></a></g></g><g id="node2" class="node"><title>Node2</title><g id="a_node2"><a target="_top" xlink:href="structAPT_1_1Internal_1_1Patterns_1_1VersionAnyMatcher.xhtml"><polygon fill="#fff" stroke="#000" points="9.5 -56.5 9.5 -75.5 120.5 -75.5 120.5 -56.5 9.5 -56.5"/><text x="65" y="-63.5" font-family="Helvetica,sans-Serif" font-size="10" text-anchor="middle">VersionAnyMatcher</text></a></g></g><g id="edge1" class="edge"><title>Node2-&gt;Node1</title><path fill="none" stroke="#191970" d="M65,-45.8C65,-36.91 65,-26.78 65,-19.75"/><polygon fill="#191970" stroke="#191970" points="61.5 -46.08 65 -56.08 68.5 -46.08 61.5 -46.08"/></g><g id="node3" class="node"><title>Node3</title><g id="a_node3"><a target="_top" xlink:href="classAPT_1_1CacheFilter_1_1Matcher.xhtml"><polygon fill="#fff" stroke="#000" points="37 -112.5 37 -131.5 93 -131.5 93 -112.5 37 -112.5"/><text x="65" y="-119.5" font-family="Helvetica,sans-Serif" font-size="10" text-anchor="middle">Matcher</text></a></g></g><g id="edge2" class="edge"><title>Node3-&gt;Node2</title><path fill="none" stroke="#191970" d="M65,-101.8C65,-92.91 65,-82.78 65,-75.75"/><polygon fill="#191970" stroke="#191970" points="61.5 -102.08 65 -112.08 68.5 -102.08 61.5 -102.08"/></g></g></svg>