<?xml version="1.0" encoding="UTF-8" standalone="no"?>
<!DOCTYPE svg PUBLIC "-//W3C//DTD SVG 1.1//EN"
 "http://www.w3.org/Graphics/SVG/1.1/DTD/svg11.dtd">
<!-- Generated by graphviz version 2.43.0 (0)
 -->
<!-- Title: pkgAcquireStatus::ReleaseInfoChange Pages: 1 -->
<svg width="155pt" height="196pt"
 viewBox="0.00 0.00 155.00 196.00" xmlns="http://www.w3.org/2000/svg" xmlns:xlink="http://www.w3.org/1999/xlink">
<g id="graph0" class="graph" transform="scale(1 1) rotate(0) translate(4 192)">
<title>pkgAcquireStatus::ReleaseInfoChange</title>
<polygon fill="white" stroke="transparent" points="-4,4 -4,-192 151,-192 151,4 -4,4"/>
<!-- Node1 -->
<g id="node1" class="node">
<title>Node1</title>
<g id="a_node1"><a xlink:title=" ">
<polygon fill="#bfbfbf" stroke="black" points="0,-0.5 0,-30.5 147,-30.5 147,-0.5 0,-0.5"/>
<text text-anchor="start" x="8" y="-18.5" font-family="Helvetica,sans-Serif" font-size="10.00">pkgAcquireStatus::Release</text>
<text text-anchor="middle" x="73.5" y="-7.5" font-family="Helvetica,sans-Serif" font-size="10.00">InfoChange</text>
</a>
</g>
</g>
<!-- Node2 -->
<g id="node2" class="node">
<title>Node2</title>
<g id="a_node2"><a xlink:title=" ">
<polygon fill="white" stroke="#bfbfbf" points="51.5,-111.5 51.5,-130.5 95.5,-130.5 95.5,-111.5 51.5,-111.5"/>
<text text-anchor="middle" x="73.5" y="-118.5" font-family="Helvetica,sans-Serif" font-size="10.00">string</text>
</a>
</g>
</g>
<!-- Node2&#45;&gt;Node1 -->
<g id="edge1" class="edge">
<title>Node2&#45;&gt;Node1</title>
<path fill="none" stroke="#9a32cd" stroke-dasharray="5,2" d="M73.5,-101C73.5,-80.74 73.5,-49.11 73.5,-30.84"/>
<polygon fill="#9a32cd" stroke="#9a32cd" points="70,-101.18 73.5,-111.18 77,-101.18 70,-101.18"/>
<text text-anchor="middle" x="95.5" y="-85" font-family="Helvetica,sans-Serif" font-size="10.00"> From</text>
<text text-anchor="middle" x="95.5" y="-74" font-family="Helvetica,sans-Serif" font-size="10.00">Message</text>
<text text-anchor="middle" x="95.5" y="-63" font-family="Helvetica,sans-Serif" font-size="10.00">To</text>
<text text-anchor="middle" x="95.5" y="-52" font-family="Helvetica,sans-Serif" font-size="10.00">Type</text>
</g>
<!-- Node3 -->
<g id="node3" class="node">
<title>Node3</title>
<g id="a_node3"><a xlink:title=" ">
<polygon fill="white" stroke="#bfbfbf" points="13.5,-168.5 13.5,-187.5 133.5,-187.5 133.5,-168.5 13.5,-168.5"/>
<text text-anchor="middle" x="73.5" y="-175.5" font-family="Helvetica,sans-Serif" font-size="10.00">basic_string&lt; Char &gt;</text>
</a>
</g>
</g>
<!-- Node3&#45;&gt;Node2 -->
<g id="edge2" class="edge">
<title>Node3&#45;&gt;Node2</title>
<path fill="none" stroke="midnightblue" d="M73.5,-158.12C73.5,-148.82 73.5,-138.06 73.5,-130.71"/>
<polygon fill="midnightblue" stroke="midnightblue" points="70,-158.41 73.5,-168.41 77,-158.41 70,-158.41"/>
</g>
</g>
</svg>
