<svg xmlns="http://www.w3.org/2000/svg" xmlns:xlink="http://www.w3.org/1999/xlink" width="170pt" height="152pt" viewBox="0 0 169.5 152"><g id="graph0" class="graph" transform="scale(1 1) rotate(0) translate(4 148)"><title>ARArchive::Member</title><polygon fill="#fff" stroke="transparent" points="-4 4 -4 -148 165.5 -148 165.5 4 -4 4"/><g id="node1" class="node"><title>Node1</title><g id="a_node1"><a><polygon fill="#bfbfbf" stroke="#000" points="3.5 -.5 3.5 -19.5 116.5 -19.5 116.5 -.5 3.5 -.5"/><text x="60" y="-7.5" font-family="Helvetica,sans-Serif" font-size="10" text-anchor="middle">ARArchive::Member</text></a></g></g><g id="edge1" class="edge"><title>Node1-&gt;Node1</title><path fill="none" stroke="#9a32cd" stroke-dasharray="5 2" d="M126.49,-14.47C131.45,-13.47 134.5,-11.98 134.5,-10 134.5,-6.91 127.07,-5.01 116.53,-4.31"/><polygon fill="#9a32cd" stroke="#9a32cd" points="126.03 -11 116.53 -15.69 126.88 -17.95 126.03 -11"/><text x="148" y="-7.5" font-family="Helvetica,sans-Serif" font-size="10" text-anchor="middle">Next</text></g><g id="node2" class="node"><title>Node2</title><g id="a_node2"><a><polygon fill="#fff" stroke="#bfbfbf" points="38 -67.5 38 -86.5 82 -86.5 82 -67.5 38 -67.5"/><text x="60" y="-74.5" font-family="Helvetica,sans-Serif" font-size="10" text-anchor="middle">string</text></a></g></g><g id="edge2" class="edge"><title>Node2-&gt;Node1</title><path fill="none" stroke="#9a32cd" stroke-dasharray="5 2" d="M60,-57.04C60,-44.67 60,-29.12 60,-19.63"/><polygon fill="#9a32cd" stroke="#9a32cd" points="56.5 -57.23 60 -67.23 63.5 -57.23 56.5 -57.23"/><text x="76.5" y="-41" font-family="Helvetica,sans-Serif" font-size="10" text-anchor="middle">Name</text></g><g id="node3" class="node"><title>Node3</title><g id="a_node3"><a><polygon fill="#fff" stroke="#bfbfbf" points="0 -124.5 0 -143.5 120 -143.5 120 -124.5 0 -124.5"/><text x="60" y="-131.5" font-family="Helvetica,sans-Serif" font-size="10" text-anchor="middle">basic_string&lt; Char &gt;</text></a></g></g><g id="edge3" class="edge"><title>Node3-&gt;Node2</title><path fill="none" stroke="#191970" d="M60,-114.12C60,-104.82 60,-94.06 60,-86.71"/><polygon fill="#191970" stroke="#191970" points="56.5 -114.41 60 -124.41 63.5 -114.41 56.5 -114.41"/></g></g></svg>