<?xml version="1.0" encoding="UTF-8" standalone="no"?>
<!DOCTYPE svg PUBLIC "-//W3C//DTD SVG 1.1//EN"
 "http://www.w3.org/Graphics/SVG/1.1/DTD/svg11.dtd">
<!-- Generated by graphviz version 2.43.0 (0)
 -->
<!-- Title: pkgCache&lt; Str, Itr &gt;::DependencyData Pages: 1 -->
<svg width="349pt" height="127pt"
 viewBox="0.00 0.00 349.00 127.00" xmlns="http://www.w3.org/2000/svg" xmlns:xlink="http://www.w3.org/1999/xlink">
<g id="graph0" class="graph" transform="scale(1 1) rotate(0) translate(4 123)">
<title>pkgCache&lt; Str, Itr &gt;::DependencyData</title>
<polygon fill="white" stroke="transparent" points="-4,4 -4,-123 345,-123 345,4 -4,4"/>
<!-- Node1 -->
<g id="node1" class="node">
<title>Node1</title>
<g id="a_node1"><a xlink:title="information for a single dependency record">
<polygon fill="#bfbfbf" stroke="black" points="223,-44.5 223,-74.5 341,-74.5 341,-44.5 223,-44.5"/>
<text text-anchor="start" x="231" y="-62.5" font-family="Helvetica,sans-Serif" font-size="10.00">pkgCache&lt; Str, Itr</text>
<text text-anchor="middle" x="282" y="-51.5" font-family="Helvetica,sans-Serif" font-size="10.00"> &gt;::DependencyData</text>
</a>
</g>
</g>
<!-- Node2 -->
<g id="node2" class="node">
<title>Node2</title>
<g id="a_node2"><a xlink:href="classmap__pointer.xhtml" target="_top" xlink:title=" ">
<polygon fill="white" stroke="black" points="0,-88.5 0,-118.5 137,-118.5 137,-88.5 0,-88.5"/>
<text text-anchor="start" x="8" y="-106.5" font-family="Helvetica,sans-Serif" font-size="10.00">map_pointer&lt; pkgCache</text>
<text text-anchor="middle" x="68.5" y="-95.5" font-family="Helvetica,sans-Serif" font-size="10.00">::Package &gt;</text>
</a>
</g>
</g>
<!-- Node2&#45;&gt;Node1 -->
<g id="edge1" class="edge">
<title>Node2&#45;&gt;Node1</title>
<path fill="none" stroke="#9a32cd" stroke-dasharray="5,2" d="M146.84,-87.41C171.9,-82.2 199.25,-76.51 222.68,-71.63"/>
<polygon fill="#9a32cd" stroke="#9a32cd" points="146.08,-83.99 137,-89.46 147.5,-90.85 146.08,-83.99"/>
<text text-anchor="middle" x="180" y="-87.5" font-family="Helvetica,sans-Serif" font-size="10.00"> Package</text>
</g>
<!-- Node3 -->
<g id="node3" class="node">
<title>Node3</title>
<g id="a_node3"><a xlink:href="classmap__pointer.xhtml" target="_top" xlink:title=" ">
<polygon fill="white" stroke="black" points="7.5,-50 7.5,-69 129.5,-69 129.5,-50 7.5,-50"/>
<text text-anchor="middle" x="68.5" y="-57" font-family="Helvetica,sans-Serif" font-size="10.00">map_pointer&lt; char &gt;</text>
</a>
</g>
</g>
<!-- Node3&#45;&gt;Node1 -->
<g id="edge2" class="edge">
<title>Node3&#45;&gt;Node1</title>
<path fill="none" stroke="#9a32cd" stroke-dasharray="5,2" d="M139.71,-59.5C166.73,-59.5 197.25,-59.5 223,-59.5"/>
<polygon fill="#9a32cd" stroke="#9a32cd" points="139.54,-56 129.54,-59.5 139.54,-63 139.54,-56"/>
<text text-anchor="middle" x="180" y="-62.5" font-family="Helvetica,sans-Serif" font-size="10.00"> Version</text>
</g>
<!-- Node4 -->
<g id="node4" class="node">
<title>Node4</title>
<g id="a_node4"><a xlink:href="classmap__pointer.xhtml" target="_top" xlink:title=" ">
<polygon fill="white" stroke="black" points="0,-0.5 0,-30.5 137,-30.5 137,-0.5 0,-0.5"/>
<text text-anchor="start" x="8" y="-18.5" font-family="Helvetica,sans-Serif" font-size="10.00">map_pointer&lt; pkgCache</text>
<text text-anchor="middle" x="68.5" y="-7.5" font-family="Helvetica,sans-Serif" font-size="10.00">::DependencyData &gt;</text>
</a>
</g>
</g>
<!-- Node4&#45;&gt;Node1 -->
<g id="edge3" class="edge">
<title>Node4&#45;&gt;Node1</title>
<path fill="none" stroke="#9a32cd" stroke-dasharray="5,2" d="M146.84,-31.59C171.9,-36.8 199.25,-42.49 222.68,-47.37"/>
<polygon fill="#9a32cd" stroke="#9a32cd" points="147.5,-28.15 137,-29.54 146.08,-35.01 147.5,-28.15"/>
<text text-anchor="middle" x="180" y="-46.5" font-family="Helvetica,sans-Serif" font-size="10.00"> NextData</text>
</g>
</g>
</svg>
