<svg xmlns="http://www.w3.org/2000/svg" xmlns:xlink="http://www.w3.org/1999/xlink" width="106pt" height="140pt" viewBox="0 0 106 140"><g id="graph0" class="graph" transform="scale(1 1) rotate(0) translate(4 136)"><title>PackageIsBroken</title><polygon fill="#fff" stroke="transparent" points="-4 4 -4 -136 102 -136 102 4 -4 4"/><g id="node1" class="node"><title>Node1</title><g id="a_node1"><a><polygon fill="#bfbfbf" stroke="#000" points="0 -.5 0 -19.5 98 -19.5 98 -.5 0 -.5"/><text x="49" y="-7.5" font-family="Helvetica,sans-Serif" font-size="10" text-anchor="middle">PackageIsBroken</text></a></g></g><g id="node2" class="node"><title>Node2</title><g id="a_node2"><a target="_top" xlink:href="classAPT_1_1CacheFilter_1_1PackageMatcher.xhtml"><polygon fill="#fff" stroke="#000" points="1 -56.5 1 -75.5 97 -75.5 97 -56.5 1 -56.5"/><text x="49" y="-63.5" font-family="Helvetica,sans-Serif" font-size="10" text-anchor="middle">PackageMatcher</text></a></g></g><g id="edge1" class="edge"><title>Node2-&gt;Node1</title><path fill="none" stroke="#191970" d="M49,-45.8C49,-36.91 49,-26.78 49,-19.75"/><polygon fill="#191970" stroke="#191970" points="45.5 -46.08 49 -56.08 52.5 -46.08 45.5 -46.08"/></g><g id="node3" class="node"><title>Node3</title><g id="a_node3"><a target="_top" xlink:href="classAPT_1_1CacheFilter_1_1Matcher.xhtml"><polygon fill="#fff" stroke="#000" points="21 -112.5 21 -131.5 77 -131.5 77 -112.5 21 -112.5"/><text x="49" y="-119.5" font-family="Helvetica,sans-Serif" font-size="10" text-anchor="middle">Matcher</text></a></g></g><g id="edge2" class="edge"><title>Node3-&gt;Node2</title><path fill="none" stroke="#191970" d="M49,-101.8C49,-92.91 49,-82.78 49,-75.75"/><polygon fill="#191970" stroke="#191970" points="45.5 -102.08 49 -112.08 52.5 -102.08 45.5 -102.08"/></g></g></svg>