<svg xmlns="http://www.w3.org/2000/svg" xmlns:xlink="http://www.w3.org/1999/xlink" width="196" height="140pt" viewBox="0 0 147 140"><g id="graph0" class="graph" transform="scale(1 1) rotate(0) translate(4 136)"><title>PackageReverseDepends</title><polygon fill="#fff" stroke="transparent" points="-4 4 -4 -136 143 -136 143 4 -4 4"/><g id="node1" class="node"><title>Node1</title><g id="a_node1"><a><polygon fill="#bfbfbf" stroke="#000" points="0 -.5 0 -19.5 139 -19.5 139 -.5 0 -.5"/><text x="69.5" y="-7.5" font-family="Helvetica,sans-Serif" font-size="10" text-anchor="middle">PackageReverseDepends</text></a></g></g><g id="node2" class="node"><title>Node2</title><g id="a_node2"><a target="_top" xlink:href="classAPT_1_1CacheFilter_1_1PackageMatcher.xhtml"><polygon fill="#fff" stroke="#000" points="21.5 -56.5 21.5 -75.5 117.5 -75.5 117.5 -56.5 21.5 -56.5"/><text x="69.5" y="-63.5" font-family="Helvetica,sans-Serif" font-size="10" text-anchor="middle">PackageMatcher</text></a></g></g><g id="edge1" class="edge"><title>Node2-&gt;Node1</title><path fill="none" stroke="#191970" d="M69.5,-45.8C69.5,-36.91 69.5,-26.78 69.5,-19.75"/><polygon fill="#191970" stroke="#191970" points="66 -46.08 69.5 -56.08 73 -46.08 66 -46.08"/></g><g id="node3" class="node"><title>Node3</title><g id="a_node3"><a target="_top" xlink:href="classAPT_1_1CacheFilter_1_1Matcher.xhtml"><polygon fill="#fff" stroke="#000" points="41.5 -112.5 41.5 -131.5 97.5 -131.5 97.5 -112.5 41.5 -112.5"/><text x="69.5" y="-119.5" font-family="Helvetica,sans-Serif" font-size="10" text-anchor="middle">Matcher</text></a></g></g><g id="edge2" class="edge"><title>Node3-&gt;Node2</title><path fill="none" stroke="#191970" d="M69.5,-101.8C69.5,-92.91 69.5,-82.78 69.5,-75.75"/><polygon fill="#191970" stroke="#191970" points="66 -102.08 69.5 -112.08 73 -102.08 66 -102.08"/></g></g></svg>