<svg xmlns="http://www.w3.org/2000/svg" xmlns:xlink="http://www.w3.org/1999/xlink" width="209pt" height="163pt" viewBox="0 0 208.5 163"><g id="graph0" class="graph" transform="scale(1 1) rotate(0) translate(4 159)"><title>PatternTreeParser::Error</title><polygon fill="#fff" stroke="transparent" points="-4 4 -4 -159 204.5 -159 204.5 4 -4 4"/><g id="node1" class="node"><title>Node1</title><g id="a_node1"><a><polygon fill="#bfbfbf" stroke="#000" points="47 -.5 47 -30.5 154 -30.5 154 -.5 47 -.5"/><text x="55" y="-18.5" font-family="Helvetica,sans-Serif" font-size="10" text-anchor="start">PatternTreeParser::</text><text x="100.5" y="-7.5" font-family="Helvetica,sans-Serif" font-size="10" text-anchor="middle">Error</text></a></g></g><g id="node2" class="node"><title>Node2</title><g id="a_node2"><a><polygon fill="#fff" stroke="#bfbfbf" points="0 -78.5 0 -97.5 65 -97.5 65 -78.5 0 -78.5"/><text x="32.5" y="-85.5" font-family="Helvetica,sans-Serif" font-size="10" text-anchor="middle">exception</text></a></g></g><g id="edge1" class="edge"><title>Node2-&gt;Node1</title><path fill="none" stroke="#191970" d="M47.84,-71.09C59.59,-58.91 75.64,-42.27 86.92,-30.58"/><polygon fill="#191970" stroke="#191970" points="45.26 -68.73 40.84 -78.36 50.3 -73.59 45.26 -68.73"/></g><g id="node3" class="node"><title>Node3</title><g id="a_node3"><a><polygon fill="#fff" stroke="#bfbfbf" points="83.5 -78.5 83.5 -97.5 127.5 -97.5 127.5 -78.5 83.5 -78.5"/><text x="105.5" y="-85.5" font-family="Helvetica,sans-Serif" font-size="10" text-anchor="middle">string</text></a></g></g><g id="edge2" class="edge"><title>Node3-&gt;Node1</title><path fill="none" stroke="#9a32cd" stroke-dasharray="5 2" d="M102.36,-67.86C102.02,-65.22 101.72,-62.55 101.5,-60 100.67,-50.22 100.42,-39.15 100.38,-30.63"/><polygon fill="#9a32cd" stroke="#9a32cd" points="98.95 -68.66 103.89 -78.03 105.87 -67.62 98.95 -68.66"/><text x="125.5" y="-52" font-family="Helvetica,sans-Serif" font-size="10" text-anchor="middle">message</text></g><g id="node4" class="node"><title>Node4</title><g id="a_node4"><a><polygon fill="#fff" stroke="#bfbfbf" points="45.5 -135.5 45.5 -154.5 165.5 -154.5 165.5 -135.5 45.5 -135.5"/><text x="105.5" y="-142.5" font-family="Helvetica,sans-Serif" font-size="10" text-anchor="middle">basic_string&lt; Char &gt;</text></a></g></g><g id="edge3" class="edge"><title>Node4-&gt;Node3</title><path fill="none" stroke="#191970" d="M105.5,-125.12C105.5,-115.82 105.5,-105.06 105.5,-97.71"/><polygon fill="#191970" stroke="#191970" points="102 -125.41 105.5 -135.41 109 -125.41 102 -125.41"/></g><g id="node5" class="node"><title>Node5</title><g id="a_node5"><a target="_top" xlink:href="structAPT_1_1Internal_1_1PatternTreeParser_1_1Node.xhtml"><polygon fill="#fff" stroke="#000" points="150.5 -78.5 150.5 -97.5 192.5 -97.5 192.5 -78.5 150.5 -78.5"/><text x="171.5" y="-85.5" font-family="Helvetica,sans-Serif" font-size="10" text-anchor="middle">Node</text></a></g></g><g id="edge4" class="edge"><title>Node5-&gt;Node1</title><path fill="none" stroke="#9a32cd" stroke-dasharray="5 2" d="M163.41,-69.24C159.77,-62.43 155.05,-54.89 149.5,-49 142.85,-41.94 134.39,-35.64 126.38,-30.51"/><polygon fill="#9a32cd" stroke="#9a32cd" points="160.37 -70.99 167.93 -78.41 166.65 -67.9 160.37 -70.99"/><text x="179" y="-52" font-family="Helvetica,sans-Serif" font-size="10" text-anchor="middle">location</text></g></g></svg>