<?xml version="1.0" encoding="UTF-8" standalone="no"?>
<!DOCTYPE svg PUBLIC "-//W3C//DTD SVG 1.1//EN"
 "http://www.w3.org/Graphics/SVG/1.1/DTD/svg11.dtd">
<!-- Generated by graphviz version 2.43.0 (0)
 -->
<!-- Title: PatternTreeParser::Node Pages: 1 -->
<svg width="170pt" height="84pt"
 viewBox="0.00 0.00 170.00 84.00" xmlns="http://www.w3.org/2000/svg" xmlns:xlink="http://www.w3.org/1999/xlink">
<g id="graph0" class="graph" transform="scale(1 1) rotate(0) translate(4 80)">
<title>PatternTreeParser::Node</title>
<polygon fill="white" stroke="transparent" points="-4,4 -4,-80 166,-80 166,4 -4,4"/>
<!-- Node1 -->
<g id="node1" class="node">
<title>Node1</title>
<g id="a_node1"><a xlink:title=" ">
<polygon fill="#bfbfbf" stroke="black" points="17,-56.5 17,-75.5 150,-75.5 150,-56.5 17,-56.5"/>
<text text-anchor="middle" x="83.5" y="-63.5" font-family="Helvetica,sans-Serif" font-size="10.00">PatternTreeParser::Node</text>
</a>
</g>
</g>
<!-- Node2 -->
<g id="node2" class="node">
<title>Node2</title>
<g id="a_node2"><a xlink:href="structAPT_1_1Internal_1_1PatternTreeParser_1_1PatternNode.xhtml" target="_top" xlink:title=" ">
<polygon fill="white" stroke="black" points="0,-0.5 0,-19.5 77,-19.5 77,-0.5 0,-0.5"/>
<text text-anchor="middle" x="38.5" y="-7.5" font-family="Helvetica,sans-Serif" font-size="10.00">PatternNode</text>
</a>
</g>
</g>
<!-- Node1&#45;&gt;Node2 -->
<g id="edge1" class="edge">
<title>Node1&#45;&gt;Node2</title>
<path fill="none" stroke="midnightblue" d="M69.45,-48.14C61.61,-38.74 52.17,-27.4 45.79,-19.75"/>
<polygon fill="midnightblue" stroke="midnightblue" points="66.98,-50.64 76.07,-56.08 72.36,-46.16 66.98,-50.64"/>
</g>
<!-- Node3 -->
<g id="node3" class="node">
<title>Node3</title>
<g id="a_node3"><a xlink:href="structAPT_1_1Internal_1_1PatternTreeParser_1_1WordNode.xhtml" target="_top" xlink:title=" ">
<polygon fill="white" stroke="black" points="95,-0.5 95,-19.5 162,-19.5 162,-0.5 95,-0.5"/>
<text text-anchor="middle" x="128.5" y="-7.5" font-family="Helvetica,sans-Serif" font-size="10.00">WordNode</text>
</a>
</g>
</g>
<!-- Node1&#45;&gt;Node3 -->
<g id="edge2" class="edge">
<title>Node1&#45;&gt;Node3</title>
<path fill="none" stroke="midnightblue" d="M97.55,-48.14C105.39,-38.74 114.83,-27.4 121.21,-19.75"/>
<polygon fill="midnightblue" stroke="midnightblue" points="94.64,-46.16 90.93,-56.08 100.02,-50.64 94.64,-46.16"/>
</g>
</g>
</svg>
