<svg xmlns="http://www.w3.org/2000/svg" xmlns:xlink="http://www.w3.org/1999/xlink" width="155pt" height="106pt" viewBox="0 0 155 106"><g id="graph0" class="graph" transform="scale(1 1) rotate(0) translate(4 102)"><title>pkgDepCache::Private</title><polygon fill="#fff" stroke="transparent" points="-4 4 -4 -102 151 -102 151 4 -4 4"/><g id="node1" class="node"><title>Node1</title><g id="a_node1"><a><polygon fill="#bfbfbf" stroke="#000" points="11 -.5 11 -19.5 136 -19.5 136 -.5 11 -.5"/><text x="73.5" y="-7.5" font-family="Helvetica,sans-Serif" font-size="10" text-anchor="middle">pkgDepCache::Private</text></a></g></g><g id="node2" class="node"><title>Node2</title><g id="a_node2"><a><polygon fill="#fff" stroke="#bfbfbf" points="0 -67.5 0 -97.5 147 -97.5 147 -67.5 0 -67.5"/><text x="8" y="-85.5" font-family="Helvetica,sans-Serif" font-size="10" text-anchor="start">unique_ptr&lt; pkgDepCache</text><text x="73.5" y="-74.5" font-family="Helvetica,sans-Serif" font-size="10" text-anchor="middle">::InRootSetFunc &gt;</text></a></g></g><g id="edge1" class="edge"><title>Node2-&gt;Node1</title><path fill="none" stroke="#9a32cd" stroke-dasharray="5 2" d="M73.5,-57.09C73.5,-44.21 73.5,-29.2 73.5,-19.89"/><polygon fill="#9a32cd" stroke="#9a32cd" points="70 -57.23 73.5 -67.23 77 -57.23 70 -57.23"/><text x="110" y="-41" font-family="Helvetica,sans-Serif" font-size="10" text-anchor="middle">inRootSetFunc</text></g></g></svg>