<svg xmlns="http://www.w3.org/2000/svg" xmlns:xlink="http://www.w3.org/1999/xlink" width="400" height="156" viewBox="0 0 300 117"><g id="graph0" class="graph" transform="scale(1 1) rotate(0) translate(4 113)"><title>pkgCache&lt; Str, Itr &gt;::DescFile</title><polygon fill="#fff" stroke="transparent" points="-4 4 -4 -113 296 -113 296 4 -4 4"/><g id="node1" class="node"><title>Node1</title><g id="a_node1"><a xlink:title="associates a description with a Translation file"><polygon fill="#bfbfbf" stroke="#000" points="92.5 -.5 92.5 -30.5 198.5 -30.5 198.5 -.5 92.5 -.5"/><text x="100.5" y="-18.5" font-family="Helvetica,sans-Serif" font-size="10" text-anchor="start">pkgCache&lt; Str, Itr</text><text x="145.5" y="-7.5" font-family="Helvetica,sans-Serif" font-size="10" text-anchor="middle">&gt;::DescFile</text></a></g></g><g id="node2" class="node"><title>Node2</title><g id="a_node2"><a target="_top" xlink:href="classmap__pointer.xhtml"><polygon fill="#fff" stroke="#000" points="0 -78.5 0 -108.5 137 -108.5 137 -78.5 0 -78.5"/><text x="8" y="-96.5" font-family="Helvetica,sans-Serif" font-size="10" text-anchor="start">map_pointer&lt; pkgCache</text><text x="68.5" y="-85.5" font-family="Helvetica,sans-Serif" font-size="10" text-anchor="middle">::DescFile &gt;</text></a></g></g><g id="edge1" class="edge"><title>Node2-&gt;Node1</title><path fill="none" stroke="#9a32cd" stroke-dasharray="5 2" d="M90.25,-71.03C103.32,-58.13 119.59,-42.07 131.08,-30.73"/><polygon fill="#9a32cd" stroke="#9a32cd" points="87.64 -68.69 82.98 -78.2 92.56 -73.67 87.64 -68.69"/><text x="134.5" y="-52" font-family="Helvetica,sans-Serif" font-size="10" text-anchor="middle">NextFile</text></g><g id="node3" class="node"><title>Node3</title><g id="a_node3"><a target="_top" xlink:href="classmap__pointer.xhtml"><polygon fill="#fff" stroke="#000" points="155 -78.5 155 -108.5 292 -108.5 292 -78.5 155 -78.5"/><text x="163" y="-96.5" font-family="Helvetica,sans-Serif" font-size="10" text-anchor="start">map_pointer&lt; pkgCache</text><text x="223.5" y="-85.5" font-family="Helvetica,sans-Serif" font-size="10" text-anchor="middle">::PackageFile &gt;</text></a></g></g><g id="edge2" class="edge"><title>Node3-&gt;Node1</title><path fill="none" stroke="#9a32cd" stroke-dasharray="5 2" d="M201.47,-71.03C188.23,-58.13 171.74,-42.07 160.11,-30.73"/><polygon fill="#9a32cd" stroke="#9a32cd" points="199.22 -73.73 208.83 -78.2 204.11 -68.72 199.22 -73.73"/><text x="199" y="-52" font-family="Helvetica,sans-Serif" font-size="10" text-anchor="middle">File</text></g></g></svg>