<?xml version="1.0" encoding="UTF-8" standalone="no"?>
<!DOCTYPE svg PUBLIC "-//W3C//DTD SVG 1.1//EN"
 "http://www.w3.org/Graphics/SVG/1.1/DTD/svg11.dtd">
<!-- Generated by graphviz version 2.43.0 (0)
 -->
<!-- Title: PackageHasExactName Pages: 1 -->
<svg width="217pt" height="152pt"
 viewBox="0.00 0.00 217.00 152.00" xmlns="http://www.w3.org/2000/svg" xmlns:xlink="http://www.w3.org/1999/xlink">
<g id="graph0" class="graph" transform="scale(1 1) rotate(0) translate(4 148)">
<title>PackageHasExactName</title>
<polygon fill="white" stroke="transparent" points="-4,4 -4,-148 213,-148 213,4 -4,4"/>
<!-- Node1 -->
<g id="node1" class="node">
<title>Node1</title>
<g id="a_node1"><a xlink:title=" ">
<polygon fill="#bfbfbf" stroke="black" points="25.5,-0.5 25.5,-19.5 156.5,-19.5 156.5,-0.5 25.5,-0.5"/>
<text text-anchor="middle" x="91" y="-7.5" font-family="Helvetica,sans-Serif" font-size="10.00">PackageHasExactName</text>
</a>
</g>
</g>
<!-- Node2 -->
<g id="node2" class="node">
<title>Node2</title>
<g id="a_node2"><a xlink:href="classAPT_1_1CacheFilter_1_1PackageMatcher.xhtml" target="_top" xlink:title=" ">
<polygon fill="white" stroke="black" points="0,-67.5 0,-86.5 96,-86.5 96,-67.5 0,-67.5"/>
<text text-anchor="middle" x="48" y="-74.5" font-family="Helvetica,sans-Serif" font-size="10.00">PackageMatcher</text>
</a>
</g>
</g>
<!-- Node2&#45;&gt;Node1 -->
<g id="edge1" class="edge">
<title>Node2&#45;&gt;Node1</title>
<path fill="none" stroke="midnightblue" d="M59.55,-58.53C67.88,-45.95 78.76,-29.51 85.29,-19.63"/>
<polygon fill="midnightblue" stroke="midnightblue" points="56.4,-56.96 53.8,-67.23 62.24,-60.82 56.4,-56.96"/>
</g>
<!-- Node3 -->
<g id="node3" class="node">
<title>Node3</title>
<g id="a_node3"><a xlink:href="classAPT_1_1CacheFilter_1_1Matcher.xhtml" target="_top" xlink:title=" ">
<polygon fill="white" stroke="black" points="15,-124.5 15,-143.5 71,-143.5 71,-124.5 15,-124.5"/>
<text text-anchor="middle" x="43" y="-131.5" font-family="Helvetica,sans-Serif" font-size="10.00">Matcher</text>
</a>
</g>
</g>
<!-- Node3&#45;&gt;Node2 -->
<g id="edge2" class="edge">
<title>Node3&#45;&gt;Node2</title>
<path fill="none" stroke="midnightblue" d="M44.69,-114.42C45.54,-105.05 46.53,-94.14 47.21,-86.71"/>
<polygon fill="midnightblue" stroke="midnightblue" points="41.2,-114.13 43.78,-124.41 48.17,-114.76 41.2,-114.13"/>
</g>
<!-- Node4 -->
<g id="node4" class="node">
<title>Node4</title>
<g id="a_node4"><a xlink:title=" ">
<polygon fill="white" stroke="#bfbfbf" points="123,-67.5 123,-86.5 167,-86.5 167,-67.5 123,-67.5"/>
<text text-anchor="middle" x="145" y="-74.5" font-family="Helvetica,sans-Serif" font-size="10.00">string</text>
</a>
</g>
</g>
<!-- Node4&#45;&gt;Node1 -->
<g id="edge3" class="edge">
<title>Node4&#45;&gt;Node1</title>
<path fill="none" stroke="#9a32cd" stroke-dasharray="5,2" d="M131.1,-59.27C120.57,-46.6 106.54,-29.7 98.17,-19.63"/>
<polygon fill="#9a32cd" stroke="#9a32cd" points="128.63,-61.78 137.72,-67.23 134.02,-57.31 128.63,-61.78"/>
<text text-anchor="middle" x="137.5" y="-41" font-family="Helvetica,sans-Serif" font-size="10.00"> name</text>
</g>
<!-- Node5 -->
<g id="node5" class="node">
<title>Node5</title>
<g id="a_node5"><a xlink:title=" ">
<polygon fill="white" stroke="#bfbfbf" points="89,-124.5 89,-143.5 209,-143.5 209,-124.5 89,-124.5"/>
<text text-anchor="middle" x="149" y="-131.5" font-family="Helvetica,sans-Serif" font-size="10.00">basic_string&lt; Char &gt;</text>
</a>
</g>
</g>
<!-- Node5&#45;&gt;Node4 -->
<g id="edge4" class="edge">
<title>Node5&#45;&gt;Node4</title>
<path fill="none" stroke="midnightblue" d="M147.65,-114.42C146.97,-105.05 146.17,-94.14 145.63,-86.71"/>
<polygon fill="midnightblue" stroke="midnightblue" points="144.16,-114.69 148.38,-124.41 151.14,-114.18 144.16,-114.69"/>
</g>
</g>
</svg>
