<svg xmlns="http://www.w3.org/2000/svg" xmlns:xlink="http://www.w3.org/1999/xlink" width="368pt" height="377pt" viewBox="0 0 368 376.5"><g id="graph0" class="graph" transform="scale(1 1) rotate(0) translate(4 372.5)"><title>pkgCache&lt; Str, Itr &gt;::Version</title><polygon fill="#fff" stroke="transparent" points="-4 4 -4 -372.5 364 -372.5 364 4 -4 4"/><g id="node1" class="node"><title>Node1</title><g id="a_node1"><a xlink:title="information for a single version of a package"><polygon fill="#bfbfbf" stroke="#000" points="254 -176 254 -206 360 -206 360 -176 254 -176"/><text x="262" y="-194" font-family="Helvetica,sans-Serif" font-size="10" text-anchor="start">pkgCache&lt; Str, Itr</text><text x="307" y="-183" font-family="Helvetica,sans-Serif" font-size="10" text-anchor="middle">&gt;::Version</text></a></g></g><g id="node2" class="node"><title>Node2</title><g id="a_node2"><a target="_top" xlink:href="classmap__pointer.xhtml"><polygon fill="#fff" stroke="#000" points="0 -338 0 -368 137 -368 137 -338 0 -338"/><text x="8" y="-356" font-family="Helvetica,sans-Serif" font-size="10" text-anchor="start">map_pointer&lt; pkgCache</text><text x="68.5" y="-345" font-family="Helvetica,sans-Serif" font-size="10" text-anchor="middle">::Provides &gt;</text></a></g></g><g id="edge1" class="edge"><title>Node2-&gt;Node1</title><path fill="none" stroke="#9a32cd" stroke-dasharray="5 2" d="M147.09,-342.94C177.15,-336.06 210.4,-324.48 236,-305 270.38,-278.84 291.75,-230.52 300.87,-206.04"/><polygon fill="#9a32cd" stroke="#9a32cd" points="146.08 -339.58 137.04 -345.1 147.55 -346.42 146.08 -339.58"/><text x="195.5" y="-343" font-family="Helvetica,sans-Serif" font-size="10" text-anchor="middle">ProvidesList</text></g><g id="node3" class="node"><title>Node3</title><g id="a_node3"><a target="_top" xlink:href="classmap__pointer.xhtml"><polygon fill="#fff" stroke="#000" points="5.5 -299.5 5.5 -318.5 131.5 -318.5 131.5 -299.5 5.5 -299.5"/><text x="68.5" y="-306.5" font-family="Helvetica,sans-Serif" font-size="10" text-anchor="middle">map_pointer&lt; Extra &gt;</text></a></g></g><g id="edge2" class="edge"><title>Node3-&gt;Node1</title><path fill="none" stroke="#9a32cd" stroke-dasharray="5 2" d="M133.02,-297.14C165.39,-289.26 204.47,-276.81 236,-258 259.26,-244.12 280.95,-221.2 293.84,-206.1"/><polygon fill="#9a32cd" stroke="#9a32cd" points="132.14 -293.75 123.2 -299.44 133.73 -300.56 132.14 -293.75"/><text x="195.5" y="-293" font-family="Helvetica,sans-Serif" font-size="10" text-anchor="middle">d</text></g><g id="node4" class="node"><title>Node4</title><g id="a_node4"><a target="_top" xlink:href="classmap__pointer.xhtml"><polygon fill="#fff" stroke="#000" points="0 -250 0 -280 137 -280 137 -250 0 -250"/><text x="8" y="-268" font-family="Helvetica,sans-Serif" font-size="10" text-anchor="start">map_pointer&lt; pkgCache</text><text x="68.5" y="-257" font-family="Helvetica,sans-Serif" font-size="10" text-anchor="middle">::Dependency &gt;</text></a></g></g><g id="edge3" class="edge"><title>Node4-&gt;Node1</title><path fill="none" stroke="#9a32cd" stroke-dasharray="5 2" d="M145.36,-247.45C174.04,-240.16 206.79,-231.06 236,-221 248.5,-216.7 261.92,-211.18 273.63,-206.05"/><polygon fill="#9a32cd" stroke="#9a32cd" points="144.25 -244.12 135.4 -249.95 145.95 -250.91 144.25 -244.12"/><text x="195.5" y="-246" font-family="Helvetica,sans-Serif" font-size="10" text-anchor="middle">DependsList</text></g><g id="node5" class="node"><title>Node5</title><g id="a_node5"><a target="_top" xlink:href="classmap__pointer.xhtml"><polygon fill="#fff" stroke="#000" points="0 -201 0 -231 137 -231 137 -201 0 -201"/><text x="8" y="-219" font-family="Helvetica,sans-Serif" font-size="10" text-anchor="start">map_pointer&lt; pkgCache</text><text x="68.5" y="-208" font-family="Helvetica,sans-Serif" font-size="10" text-anchor="middle">::Description &gt;</text></a></g></g><g id="edge4" class="edge"><title>Node5-&gt;Node1</title><path fill="none" stroke="#9a32cd" stroke-dasharray="5 2" d="M147.42,-207.76C182.28,-204.08 222.44,-199.83 253.63,-196.54"/><polygon fill="#9a32cd" stroke="#9a32cd" points="146.85 -204.3 137.27 -208.84 147.58 -211.27 146.85 -204.3"/><text x="195.5" y="-209" font-family="Helvetica,sans-Serif" font-size="10" text-anchor="middle">DescriptionList</text></g><g id="node6" class="node"><title>Node6</title><g id="a_node6"><a target="_top" xlink:href="classmap__pointer.xhtml"><polygon fill="#fff" stroke="#000" points="0 -152 0 -182 137 -182 137 -152 0 -152"/><text x="8" y="-170" font-family="Helvetica,sans-Serif" font-size="10" text-anchor="start">map_pointer&lt; pkgCache</text><text x="68.5" y="-159" font-family="Helvetica,sans-Serif" font-size="10" text-anchor="middle">::Package &gt;</text></a></g></g><g id="edge5" class="edge"><title>Node6-&gt;Node1</title><path fill="none" stroke="#9a32cd" stroke-dasharray="5 2" d="M147.29,-174.18C175.27,-176.84 207.06,-179.96 236,-183 241.72,-183.6 247.69,-184.25 253.64,-184.91"/><polygon fill="#9a32cd" stroke="#9a32cd" points="147.46 -170.68 137.17 -173.22 146.8 -177.65 147.46 -170.68"/><text x="195.5" y="-186" font-family="Helvetica,sans-Serif" font-size="10" text-anchor="middle">ParentPkg</text></g><g id="node7" class="node"><title>Node7</title><g id="a_node7"><a target="_top" xlink:href="classmap__pointer.xhtml"><polygon fill="#fff" stroke="#000" points="0 -103 0 -133 137 -133 137 -103 0 -103"/><text x="8" y="-121" font-family="Helvetica,sans-Serif" font-size="10" text-anchor="start">map_pointer&lt; pkgCache</text><text x="68.5" y="-110" font-family="Helvetica,sans-Serif" font-size="10" text-anchor="middle">::Version &gt;</text></a></g></g><g id="edge6" class="edge"><title>Node7-&gt;Node1</title><path fill="none" stroke="#9a32cd" stroke-dasharray="5 2" d="M146.96,-126.56C175.56,-131.23 207.84,-138.33 236,-149 253.63,-155.68 271.83,-166.76 285.26,-175.86"/><polygon fill="#9a32cd" stroke="#9a32cd" points="147.44 -123.09 137.02 -125.01 146.36 -130.01 147.44 -123.09"/><text x="195.5" y="-163" font-family="Helvetica,sans-Serif" font-size="10" text-anchor="middle">NextInSource</text><text x="195.5" y="-152" font-family="Helvetica,sans-Serif" font-size="10" text-anchor="middle">NextVer</text></g><g id="node8" class="node"><title>Node8</title><g id="a_node8"><a target="_top" xlink:href="classmap__pointer.xhtml"><polygon fill="#fff" stroke="#000" points="0 -54 0 -84 137 -84 137 -54 0 -54"/><text x="8" y="-72" font-family="Helvetica,sans-Serif" font-size="10" text-anchor="start">map_pointer&lt; pkgCache</text><text x="68.5" y="-61" font-family="Helvetica,sans-Serif" font-size="10" text-anchor="middle">::VerFile &gt;</text></a></g></g><g id="edge7" class="edge"><title>Node8-&gt;Node1</title><path fill="none" stroke="#9a32cd" stroke-dasharray="5 2" d="M146.89,-79.75C176.32,-86.25 209.19,-96.6 236,-113 262.39,-129.14 284.6,-158.24 296.54,-175.97"/><polygon fill="#9a32cd" stroke="#9a32cd" points="147.57 -76.31 137.06 -77.69 146.13 -83.16 147.57 -76.31"/><text x="195.5" y="-116" font-family="Helvetica,sans-Serif" font-size="10" text-anchor="middle">FileList</text></g><g id="node9" class="node"><title>Node9</title><g id="a_node9"><a target="_top" xlink:href="classmap__pointer.xhtml"><polygon fill="#fff" stroke="#000" points="7.5 -.5 7.5 -19.5 129.5 -19.5 129.5 -.5 7.5 -.5"/><text x="68.5" y="-7.5" font-family="Helvetica,sans-Serif" font-size="10" text-anchor="middle">map_pointer&lt; char &gt;</text></a></g></g><g id="edge8" class="edge"><title>Node9-&gt;Node1</title><path fill="none" stroke="#9a32cd" stroke-dasharray="5 2" d="M139.84,-5.34C172,-6.68 208.88,-13.5 236,-34 283.14,-69.63 299.23,-144.06 304.11,-175.96"/><polygon fill="#9a32cd" stroke="#9a32cd" points="139.67 -1.83 129.58 -5.09 139.5 -8.83 139.67 -1.83"/><text x="195.5" y="-70" font-family="Helvetica,sans-Serif" font-size="10" text-anchor="middle">Section</text><text x="195.5" y="-59" font-family="Helvetica,sans-Serif" font-size="10" text-anchor="middle">SourcePkgName</text><text x="195.5" y="-48" font-family="Helvetica,sans-Serif" font-size="10" text-anchor="middle">SourceVerStr</text><text x="195.5" y="-37" font-family="Helvetica,sans-Serif" font-size="10" text-anchor="middle">VerStr</text></g></g></svg>