<?xml version="1.0" encoding="UTF-8" standalone="no"?>
<!DOCTYPE svg PUBLIC "-//W3C//DTD SVG 1.1//EN"
 "http://www.w3.org/Graphics/SVG/1.1/DTD/svg11.dtd">
<!-- Generated by graphviz version 2.43.0 (0)
 -->
<!-- Title: pkgCache&lt; Str, Itr &gt;::Provides Pages: 1 -->
<svg width="363pt" height="176pt"
 viewBox="0.00 0.00 363.00 175.50" xmlns="http://www.w3.org/2000/svg" xmlns:xlink="http://www.w3.org/1999/xlink">
<g id="graph0" class="graph" transform="scale(1 1) rotate(0) translate(4 171.5)">
<title>pkgCache&lt; Str, Itr &gt;::Provides</title>
<polygon fill="white" stroke="transparent" points="-4,4 -4,-171.5 359,-171.5 359,4 -4,4"/>
<!-- Node1 -->
<g id="node1" class="node">
<title>Node1</title>
<g id="a_node1"><a xlink:title="handles virtual packages">
<polygon fill="#bfbfbf" stroke="black" points="249,-63 249,-93 355,-93 355,-63 249,-63"/>
<text text-anchor="start" x="257" y="-81" font-family="Helvetica,sans-Serif" font-size="10.00">pkgCache&lt; Str, Itr</text>
<text text-anchor="middle" x="302" y="-70" font-family="Helvetica,sans-Serif" font-size="10.00"> &gt;::Provides</text>
</a>
</g>
</g>
<!-- Node2 -->
<g id="node2" class="node">
<title>Node2</title>
<g id="a_node2"><a xlink:href="classmap__pointer.xhtml" target="_top" xlink:title=" ">
<polygon fill="white" stroke="black" points="0,-137 0,-167 137,-167 137,-137 0,-137"/>
<text text-anchor="start" x="8" y="-155" font-family="Helvetica,sans-Serif" font-size="10.00">map_pointer&lt; pkgCache</text>
<text text-anchor="middle" x="68.5" y="-144" font-family="Helvetica,sans-Serif" font-size="10.00">::Provides &gt;</text>
</a>
</g>
</g>
<!-- Node2&#45;&gt;Node1 -->
<g id="edge1" class="edge">
<title>Node2&#45;&gt;Node1</title>
<path fill="none" stroke="#9a32cd" stroke-dasharray="5,2" d="M142.34,-134.45C170.33,-127.11 202.4,-117.97 231,-108 243.36,-103.69 256.63,-98.23 268.26,-93.15"/>
<polygon fill="#9a32cd" stroke="#9a32cd" points="141.43,-131.07 132.63,-136.97 143.18,-137.85 141.43,-131.07"/>
<text text-anchor="middle" x="193" y="-144" font-family="Helvetica,sans-Serif" font-size="10.00"> NextPkgProv</text>
<text text-anchor="middle" x="193" y="-133" font-family="Helvetica,sans-Serif" font-size="10.00">NextProvides</text>
</g>
<!-- Node3 -->
<g id="node3" class="node">
<title>Node3</title>
<g id="a_node3"><a xlink:href="classmap__pointer.xhtml" target="_top" xlink:title=" ">
<polygon fill="white" stroke="black" points="0,-88 0,-118 137,-118 137,-88 0,-88"/>
<text text-anchor="start" x="8" y="-106" font-family="Helvetica,sans-Serif" font-size="10.00">map_pointer&lt; pkgCache</text>
<text text-anchor="middle" x="68.5" y="-95" font-family="Helvetica,sans-Serif" font-size="10.00">::Version &gt;</text>
</a>
</g>
</g>
<!-- Node3&#45;&gt;Node1 -->
<g id="edge2" class="edge">
<title>Node3&#45;&gt;Node1</title>
<path fill="none" stroke="#9a32cd" stroke-dasharray="5,2" d="M147.28,-94.6C180.7,-90.99 218.86,-86.87 248.8,-83.64"/>
<polygon fill="#9a32cd" stroke="#9a32cd" points="146.65,-91.15 137.08,-95.7 147.4,-98.11 146.65,-91.15"/>
<text text-anchor="middle" x="193" y="-96" font-family="Helvetica,sans-Serif" font-size="10.00"> Version</text>
</g>
<!-- Node4 -->
<g id="node4" class="node">
<title>Node4</title>
<g id="a_node4"><a xlink:href="classmap__pointer.xhtml" target="_top" xlink:title=" ">
<polygon fill="white" stroke="black" points="0,-39 0,-69 137,-69 137,-39 0,-39"/>
<text text-anchor="start" x="8" y="-57" font-family="Helvetica,sans-Serif" font-size="10.00">map_pointer&lt; pkgCache</text>
<text text-anchor="middle" x="68.5" y="-46" font-family="Helvetica,sans-Serif" font-size="10.00">::Package &gt;</text>
</a>
</g>
</g>
<!-- Node4&#45;&gt;Node1 -->
<g id="edge3" class="edge">
<title>Node4&#45;&gt;Node1</title>
<path fill="none" stroke="#9a32cd" stroke-dasharray="5,2" d="M147.12,-61.45C173.72,-64.07 203.67,-67.08 231,-70 236.72,-70.61 242.69,-71.27 248.64,-71.93"/>
<polygon fill="#9a32cd" stroke="#9a32cd" points="147.39,-57.96 137.1,-60.47 146.71,-64.93 147.39,-57.96"/>
<text text-anchor="middle" x="193" y="-73" font-family="Helvetica,sans-Serif" font-size="10.00"> ParentPkg</text>
</g>
<!-- Node5 -->
<g id="node5" class="node">
<title>Node5</title>
<g id="a_node5"><a xlink:href="classmap__pointer.xhtml" target="_top" xlink:title=" ">
<polygon fill="white" stroke="black" points="7.5,-0.5 7.5,-19.5 129.5,-19.5 129.5,-0.5 7.5,-0.5"/>
<text text-anchor="middle" x="68.5" y="-7.5" font-family="Helvetica,sans-Serif" font-size="10.00">map_pointer&lt; char &gt;</text>
</a>
</g>
</g>
<!-- Node5&#45;&gt;Node1 -->
<g id="edge4" class="edge">
<title>Node5&#45;&gt;Node1</title>
<path fill="none" stroke="#9a32cd" stroke-dasharray="5,2" d="M132.89,-21.59C162.99,-27.83 199.24,-36.44 231,-47 244.24,-51.4 258.4,-57.41 270.49,-62.96"/>
<polygon fill="#9a32cd" stroke="#9a32cd" points="133.44,-18.13 122.94,-19.56 132.04,-24.99 133.44,-18.13"/>
<text text-anchor="middle" x="193" y="-50" font-family="Helvetica,sans-Serif" font-size="10.00"> ProvideVersion</text>
</g>
</g>
</svg>
