<svg xmlns="http://www.w3.org/2000/svg" xmlns:xlink="http://www.w3.org/1999/xlink" width="500" height="137pt" viewBox="0 0 375 137"><g id="graph0" class="graph" transform="scale(1 1) rotate(0) translate(4 133)"><title>pkgCache&lt; Str, Itr &gt;::Dependency</title><polygon fill="#fff" stroke="transparent" points="-4 4 -4 -133 371 -133 371 4 -4 4"/><g id="node1" class="node"><title>Node1</title><g id="a_node1"><a><polygon fill="#bfbfbf" stroke="#000" points="261 -49.5 261 -79.5 367 -79.5 367 -49.5 261 -49.5"/><text x="269" y="-67.5" font-family="Helvetica,sans-Serif" font-size="10" text-anchor="start">pkgCache&lt; Str, Itr</text><text x="314" y="-56.5" font-family="Helvetica,sans-Serif" font-size="10" text-anchor="middle">&gt;::Dependency</text></a></g></g><g id="node2" class="node"><title>Node2</title><g id="a_node2"><a target="_top" xlink:href="classmap__pointer.xhtml"><polygon fill="#fff" stroke="#000" points="0 -98.5 0 -128.5 137 -128.5 137 -98.5 0 -98.5"/><text x="8" y="-116.5" font-family="Helvetica,sans-Serif" font-size="10" text-anchor="start">map_pointer&lt; pkgCache</text><text x="68.5" y="-105.5" font-family="Helvetica,sans-Serif" font-size="10" text-anchor="middle">::Dependency &gt;</text></a></g></g><g id="edge1" class="edge"><title>Node2-&gt;Node1</title><path fill="none" stroke="#9a32cd" stroke-dasharray="5 2" d="M147.1,-98.6C177.09,-92.76 211.66,-85.93 243,-79.5 248.72,-78.33 254.7,-77.08 260.65,-75.82"/><polygon fill="#9a32cd" stroke="#9a32cd" points="146.27 -95.19 137.12 -100.54 147.6 -102.06 146.27 -95.19"/><text x="199" y="-110.5" font-family="Helvetica,sans-Serif" font-size="10" text-anchor="middle">NextDepends</text><text x="199" y="-99.5" font-family="Helvetica,sans-Serif" font-size="10" text-anchor="middle">NextRevDepends</text></g><g id="node3" class="node"><title>Node3</title><g id="a_node3"><a target="_top" xlink:href="classmap__pointer.xhtml"><polygon fill="#fff" stroke="#000" points="0 -49.5 0 -79.5 137 -79.5 137 -49.5 0 -49.5"/><text x="8" y="-67.5" font-family="Helvetica,sans-Serif" font-size="10" text-anchor="start">map_pointer&lt; pkgCache</text><text x="68.5" y="-56.5" font-family="Helvetica,sans-Serif" font-size="10" text-anchor="middle">::Version &gt;</text></a></g></g><g id="edge2" class="edge"><title>Node3-&gt;Node1</title><path fill="none" stroke="#9a32cd" stroke-dasharray="5 2" d="M147.29,-64.5C184.38,-64.5 227.77,-64.5 260.84,-64.5"/><polygon fill="#9a32cd" stroke="#9a32cd" points="147 -61 137 -64.5 147 -68 147 -61"/><text x="199" y="-67.5" font-family="Helvetica,sans-Serif" font-size="10" text-anchor="middle">ParentVer</text></g><g id="node4" class="node"><title>Node4</title><g id="a_node4"><a target="_top" xlink:href="classmap__pointer.xhtml"><polygon fill="#fff" stroke="#000" points="0 -.5 0 -30.5 137 -30.5 137 -.5 0 -.5"/><text x="8" y="-18.5" font-family="Helvetica,sans-Serif" font-size="10" text-anchor="start">map_pointer&lt; pkgCache</text><text x="68.5" y="-7.5" font-family="Helvetica,sans-Serif" font-size="10" text-anchor="middle">::DependencyData &gt;</text></a></g></g><g id="edge3" class="edge"><title>Node4-&gt;Node1</title><path fill="none" stroke="#9a32cd" stroke-dasharray="5 2" d="M147.1,-30.4C177.09,-36.24 211.66,-43.07 243,-49.5 248.72,-50.67 254.7,-51.92 260.65,-53.18"/><polygon fill="#9a32cd" stroke="#9a32cd" points="147.6 -26.94 137.12 -28.46 146.27 -33.81 147.6 -26.94"/><text x="199" y="-52.5" font-family="Helvetica,sans-Serif" font-size="10" text-anchor="middle">DependencyData</text></g></g></svg>