<?xml version="1.0" encoding="UTF-8" standalone="no"?>
<!DOCTYPE svg PUBLIC "-//W3C//DTD SVG 1.1//EN"
 "http://www.w3.org/Graphics/SVG/1.1/DTD/svg11.dtd">
<!-- Generated by graphviz version 2.43.0 (0)
 -->
<!-- Title: pkgCache&lt; Str, Itr &gt;::DependencyProxy Pages: 1 -->
<svg width="391pt" height="225pt"
 viewBox="0.00 0.00 391.00 225.00" xmlns="http://www.w3.org/2000/svg" xmlns:xlink="http://www.w3.org/1999/xlink">
<g id="graph0" class="graph" transform="scale(1 1) rotate(0) translate(4 221)">
<title>pkgCache&lt; Str, Itr &gt;::DependencyProxy</title>
<polygon fill="white" stroke="transparent" points="-4,4 -4,-221 387,-221 387,4 -4,4"/>
<!-- Node1 -->
<g id="node1" class="node">
<title>Node1</title>
<g id="a_node1"><a xlink:title=" ">
<polygon fill="#bfbfbf" stroke="black" points="261,-98.5 261,-128.5 383,-128.5 383,-98.5 261,-98.5"/>
<text text-anchor="start" x="269" y="-116.5" font-family="Helvetica,sans-Serif" font-size="10.00">pkgCache&lt; Str, Itr</text>
<text text-anchor="middle" x="322" y="-105.5" font-family="Helvetica,sans-Serif" font-size="10.00"> &gt;::DependencyProxy</text>
</a>
</g>
</g>
<!-- Node2 -->
<g id="node2" class="node">
<title>Node2</title>
<g id="a_node2"><a xlink:href="classmap__pointer.xhtml" target="_top" xlink:title=" ">
<polygon fill="white" stroke="black" points="0,-186.5 0,-216.5 137,-216.5 137,-186.5 0,-186.5"/>
<text text-anchor="start" x="8" y="-204.5" font-family="Helvetica,sans-Serif" font-size="10.00">map_pointer&lt; pkgCache</text>
<text text-anchor="middle" x="68.5" y="-193.5" font-family="Helvetica,sans-Serif" font-size="10.00">::Dependency &gt;</text>
</a>
</g>
</g>
<!-- Node2&#45;&gt;Node1 -->
<g id="edge1" class="edge">
<title>Node2&#45;&gt;Node1</title>
<path fill="none" stroke="#9a32cd" stroke-dasharray="5,2" d="M147.28,-186.41C177.71,-179.32 212.55,-169.7 243,-157.5 262.34,-149.75 282.8,-138.06 297.92,-128.68"/>
<polygon fill="#9a32cd" stroke="#9a32cd" points="146.11,-183.09 137.14,-188.72 147.66,-189.91 146.11,-183.09"/>
<text text-anchor="middle" x="199" y="-197.5" font-family="Helvetica,sans-Serif" font-size="10.00"> NextDepends</text>
<text text-anchor="middle" x="199" y="-186.5" font-family="Helvetica,sans-Serif" font-size="10.00">NextRevDepends</text>
</g>
<!-- Node3 -->
<g id="node3" class="node">
<title>Node3</title>
<g id="a_node3"><a xlink:href="classmap__pointer.xhtml" target="_top" xlink:title=" ">
<polygon fill="white" stroke="black" points="15,-148 15,-167 122,-167 122,-148 15,-148"/>
<text text-anchor="middle" x="68.5" y="-155" font-family="Helvetica,sans-Serif" font-size="10.00">map_pointer&lt; T &gt;</text>
</a>
</g>
</g>
<!-- Node3&#45;&gt;Node1 -->
<g id="edge2" class="edge">
<title>Node3&#45;&gt;Node1</title>
<path fill="none" stroke="#9a32cd" stroke-dasharray="5,2" d="M132.29,-147.38C165.28,-141.97 206.36,-135.08 243,-128.5 248.84,-127.45 254.91,-126.33 260.98,-125.19"/>
<polygon fill="#9a32cd" stroke="#9a32cd" points="131.63,-143.94 122.33,-149.01 132.76,-150.85 131.63,-143.94"/>
<text text-anchor="middle" x="199" y="-145.5" font-family="Helvetica,sans-Serif" font-size="10.00"> Version</text>
</g>
<!-- Node4 -->
<g id="node4" class="node">
<title>Node4</title>
<g id="a_node4"><a xlink:href="classmap__pointer.xhtml" target="_top" xlink:title=" ">
<polygon fill="white" stroke="black" points="0,-98.5 0,-128.5 137,-128.5 137,-98.5 0,-98.5"/>
<text text-anchor="start" x="8" y="-116.5" font-family="Helvetica,sans-Serif" font-size="10.00">map_pointer&lt; pkgCache</text>
<text text-anchor="middle" x="68.5" y="-105.5" font-family="Helvetica,sans-Serif" font-size="10.00">::Version &gt;</text>
</a>
</g>
</g>
<!-- Node4&#45;&gt;Node1 -->
<g id="edge3" class="edge">
<title>Node4&#45;&gt;Node1</title>
<path fill="none" stroke="#9a32cd" stroke-dasharray="5,2" d="M147.36,-113.5C183.93,-113.5 226.86,-113.5 260.88,-113.5"/>
<polygon fill="#9a32cd" stroke="#9a32cd" points="147.23,-110 137.23,-113.5 147.23,-117 147.23,-110"/>
<text text-anchor="middle" x="199" y="-116.5" font-family="Helvetica,sans-Serif" font-size="10.00"> ParentVer</text>
</g>
<!-- Node5 -->
<g id="node5" class="node">
<title>Node5</title>
<g id="a_node5"><a xlink:href="classmap__pointer.xhtml" target="_top" xlink:title=" ">
<polygon fill="white" stroke="black" points="0,-49.5 0,-79.5 137,-79.5 137,-49.5 0,-49.5"/>
<text text-anchor="start" x="8" y="-67.5" font-family="Helvetica,sans-Serif" font-size="10.00">map_pointer&lt; pkgCache</text>
<text text-anchor="middle" x="68.5" y="-56.5" font-family="Helvetica,sans-Serif" font-size="10.00">::Package &gt;</text>
</a>
</g>
</g>
<!-- Node5&#45;&gt;Node1 -->
<g id="edge4" class="edge">
<title>Node5&#45;&gt;Node1</title>
<path fill="none" stroke="#9a32cd" stroke-dasharray="5,2" d="M147.36,-79.67C183.93,-86.8 226.86,-95.16 260.88,-101.79"/>
<polygon fill="#9a32cd" stroke="#9a32cd" points="147.71,-76.17 137.23,-77.7 146.37,-83.04 147.71,-76.17"/>
<text text-anchor="middle" x="199" y="-100.5" font-family="Helvetica,sans-Serif" font-size="10.00"> Package</text>
</g>
<!-- Node6 -->
<g id="node6" class="node">
<title>Node6</title>
<g id="a_node6"><a xlink:href="classmap__pointer.xhtml" target="_top" xlink:title=" ">
<polygon fill="white" stroke="black" points="0,-0.5 0,-30.5 137,-30.5 137,-0.5 0,-0.5"/>
<text text-anchor="start" x="8" y="-18.5" font-family="Helvetica,sans-Serif" font-size="10.00">map_pointer&lt; pkgCache</text>
<text text-anchor="middle" x="68.5" y="-7.5" font-family="Helvetica,sans-Serif" font-size="10.00">::DependencyData &gt;</text>
</a>
</g>
</g>
<!-- Node6&#45;&gt;Node1 -->
<g id="edge5" class="edge">
<title>Node6&#45;&gt;Node1</title>
<path fill="none" stroke="#9a32cd" stroke-dasharray="5,2" d="M146.96,-26.29C177.79,-32.37 213,-41.63 243,-55.5 266.59,-66.4 290.02,-85.18 304.95,-98.41"/>
<polygon fill="#9a32cd" stroke="#9a32cd" points="147.59,-22.84 137.11,-24.42 146.29,-29.72 147.59,-22.84"/>
<text text-anchor="middle" x="199" y="-69.5" font-family="Helvetica,sans-Serif" font-size="10.00"> DependencyData</text>
<text text-anchor="middle" x="199" y="-58.5" font-family="Helvetica,sans-Serif" font-size="10.00">NextData</text>
</g>
</g>
</svg>
