<svg xmlns="http://www.w3.org/2000/svg" xmlns:xlink="http://www.w3.org/1999/xlink" width="152pt" height="163pt" viewBox="0 0 152 163"><g id="graph0" class="graph" transform="scale(1 1) rotate(0) translate(4 159)"><title>pkgAcqMethod::FetchItem::Private</title><polygon fill="#fff" stroke="transparent" points="-4 4 -4 -159 148 -159 148 4 -4 4"/><g id="node1" class="node"><title>Node1</title><g id="a_node1"><a><polygon fill="#bfbfbf" stroke="#000" points="0 -.5 0 -30.5 144 -30.5 144 -.5 0 -.5"/><text x="8" y="-18.5" font-family="Helvetica,sans-Serif" font-size="10" text-anchor="start">pkgAcqMethod::FetchItem</text><text x="72" y="-7.5" font-family="Helvetica,sans-Serif" font-size="10" text-anchor="middle">::Private</text></a></g></g><g id="node2" class="node"><title>Node2</title><g id="a_node2"><a><polygon fill="#fff" stroke="#bfbfbf" points="50 -78.5 50 -97.5 94 -97.5 94 -78.5 50 -78.5"/><text x="72" y="-85.5" font-family="Helvetica,sans-Serif" font-size="10" text-anchor="middle">string</text></a></g></g><g id="edge1" class="edge"><title>Node2-&gt;Node1</title><path fill="none" stroke="#9a32cd" stroke-dasharray="5 2" d="M72,-68.24C72,-56.41 72,-41.38 72,-30.58"/><polygon fill="#9a32cd" stroke="#9a32cd" points="68.5 -68.36 72 -78.36 75.5 -68.36 68.5 -68.36"/><text x="87.5" y="-52" font-family="Helvetica,sans-Serif" font-size="10" text-anchor="middle">Proxy</text></g><g id="node3" class="node"><title>Node3</title><g id="a_node3"><a><polygon fill="#fff" stroke="#bfbfbf" points="12 -135.5 12 -154.5 132 -154.5 132 -135.5 12 -135.5"/><text x="72" y="-142.5" font-family="Helvetica,sans-Serif" font-size="10" text-anchor="middle">basic_string&lt; Char &gt;</text></a></g></g><g id="edge2" class="edge"><title>Node3-&gt;Node2</title><path fill="none" stroke="#191970" d="M72,-125.12C72,-115.82 72,-105.06 72,-97.71"/><polygon fill="#191970" stroke="#191970" points="68.5 -125.41 72 -135.41 75.5 -125.41 68.5 -125.41"/></g></g></svg>